<!-- Generated by IcoMoon.io -->
<svg version="1.1" xmlns="http://www.w3.org/2000/svg" width="32" height="32" viewBox="0 0 32 32">
<title>ac-adapter</title>
<path stroke="#000" fill="#000" stroke-width="2" stroke-miterlimit="4" stroke-linecap="butt" stroke-linejoin="miter" d="M26.010 29.884h-20.013v-23.844h4.005v-3c0-0.468 0.5-0.966 0.938-0.966l9.945 0.002c0.562-0.030 1.094 0.68 1.124 1.24v2.724h4.001zM17.563 10.018c-0.372 0.104-0.69 0.3-0.939 0.561l-0.001 0.001-6.061 6.001c-0.472 0.46-0.69 1.166-0.564 1.812v1.626h4.941l-2.372 2.544c-0.428 0.44-0.642 1.080-0.562 1.688-0.001 0.028-0.002 0.061-0.002 0.094s0.001 0.066 0.002 0.099l-0-0.005v1.564h2c0.528 0.008 1.056-0.198 1.438-0.562l6.001-5.987c0.366-0.38 0.574-0.908 0.562-1.436 0.003-0.037 0.005-0.081 0.005-0.125s-0.002-0.088-0.005-0.131l0 0.006v-1.75h-5.131l2.624-2.564c0.43-0.438 0.642-1.080 0.562-1.686 0.001-0.028 0.002-0.061 0.002-0.094s-0.001-0.066-0.002-0.099l0 0.005v-1.562h-2c-0.075-0.010-0.162-0.015-0.25-0.015s-0.175 0.006-0.26 0.016l0.010-0.001z"></path>
</svg>
