<!-- Generated by IcoMoon.io -->
<svg version="1.1" xmlns="http://www.w3.org/2000/svg" width="32" height="32" viewBox="0 0 32 32">
<title>accessories-character-map</title>
<path d="M7.405 2c-3.064 0-5.437 2.64-5.437 5.689v16.691c0 3.048 2.37 5.687 5.437 5.687h17.163c3.064 0 5.501-2.64 5.501-5.689v-16.686c0-3.050-2.436-5.689-5.501-5.689zM8.969 4.063c7.053 0.512 10.636 0.268 14.096 0 1.508-0.116 3.064 1.232 3.064 2.876v14.752c0 1.33-1.064 2.19-2.376 2.374-5.673 0.794-9.507 0.88-15.348 0-1.31-0.198-2.374-1.044-2.374-2.374v-14.69c0-1.644 1.428-3.048 2.938-2.938z"></path>
<path d="M21.131 11.956l-5.879 0.088 0.032 2 5.759-0.086c0.4 0.036 0.66 0.152 0.792 0.27 0.134 0.12 0.21 0.242 0.21 0.586l-0.016 1.208-4.919 0.004c-0.075-0.007-0.162-0.011-0.25-0.011-0.813 0-1.549 0.333-2.078 0.87l-0 0c-0.5 0.537-0.813 1.253-0.832 2.042l-0 0.004c-0.026 0.734 0.184 1.5 0.704 2.106s1.374 0.992 2.324 0.964h6.965l0.102-7.181v-0.008c0-0.804-0.32-1.572-0.87-2.070-0.552-0.498-1.26-0.728-1.996-0.786zM16.963 18.023h5.039l-0.028 1.98h-5.057c-0.44 0.014-0.604-0.102-0.742-0.266-0.141-0.184-0.226-0.417-0.226-0.67 0-0.023 0.001-0.045 0.002-0.067l-0 0.003c0.005-0.285 0.111-0.543 0.283-0.744l-0.001 0.002c0.158-0.166 0.326-0.268 0.726-0.24zM22.687 6.051l-6.001 2 0.632 1.9 6.001-2z"></path>
</svg>
