<!-- Generated by IcoMoon.io -->
<svg version="1.1" xmlns="http://www.w3.org/2000/svg" width="32" height="32" viewBox="0 0 32 32">
<title>accessories-character-map</title>
<path d="M7.406 2c-3.066 0-5.438 2.639-5.438 5.688v16.69c0 3.049 2.372 5.688 5.438 5.688h17.161c3.066 0 5.501-2.639 5.501-5.688v-16.69c0-3.049-2.435-5.688-5.501-5.688zM8.968 4.063c7.054 0.512 10.636 0.268 14.098 0 1.509-0.117 3.063 1.232 3.063 2.875v14.752c0 1.331-1.063 2.192-2.375 2.375-5.674 0.794-9.508 0.88-15.348 0-1.311-0.198-2.375-1.044-2.375-2.375v-14.69c0-1.644 1.429-3.047 2.938-2.938z"></path>
<path d="M21.065 11.939l-5.813 0.125 0.062 2 5.688-0.125c0.414 0.032 0.679 0.192 0.813 0.313s0.25 0.219 0.25 0.563v1.188h-5.001c-0.906-0.050-1.782 0.314-2.313 0.875-0.543 0.574-0.786 1.328-0.813 2.063s0.167 1.518 0.688 2.125c0.509 0.593 1.389 0.947 2.313 0.938 0.022-0 0.041 0.001 0.062 0h6.939v-1l0.125-6.188c0-0.805-0.324-1.565-0.875-2.063s-1.265-0.756-2-0.813h-0.125zM16.94 18.003h5.063l-0.062 2h-5.001c-0.44 0.014-0.611-0.087-0.75-0.25s-0.261-0.455-0.25-0.75c0.010-0.295 0.155-0.584 0.313-0.75s0.287-0.28 0.688-0.25z"></path>
<path d="M22.691 6.063l-6.001 2 0.625 1.875 6.001-2-0.625-1.875z"></path>
</svg>
