<!-- Generated by IcoMoon.io -->
<svg version="1.1" xmlns="http://www.w3.org/2000/svg" width="32" height="32" viewBox="0 0 32 32">
<title>accessories-calculator</title>
<path d="M4.063 0c-1.085 0-2 0.658-2 1.875v28.254c0 1.173 0.753 1.875 2 1.875h26.066c1.040 0 1.875-0.702 1.875-1.875v-28.254c0-1.085-0.791-1.875-1.875-1.875h-26.066zM6.001 4.063h22.066v5.938h-22.066v-5.938zM6.376 12.002h3.251c0.222 0 0.375 0.153 0.375 0.375v3.251c0 0.222-0.153 0.375-0.375 0.375h-3.251c-0.222 0-0.375-0.153-0.375-0.375v-3.251c0-0.222 0.153-0.375 0.375-0.375zM12.377 12.002h3.251c0.222 0 0.375 0.153 0.375 0.375v3.251c0 0.222-0.153 0.375-0.375 0.375h-3.251c-0.222 0-0.375-0.153-0.375-0.375v-3.251c0-0.222 0.153-0.375 0.375-0.375zM18.378 12.002h3.25c0.222 0 0.375 0.153 0.375 0.375v3.251c0 0.222-0.153 0.375-0.375 0.375h-3.25c-0.222 0-0.375-0.153-0.375-0.375v-3.251c0-0.222 0.153-0.375 0.375-0.375zM24.379 12.002h3.25c0.222 0 0.375 0.153 0.375 0.375v3.251c0 0.222-0.153 0.375-0.375 0.375h-3.25c-0.222 0-0.375-0.153-0.375-0.375v-3.251c0-0.222 0.153-0.375 0.375-0.375zM6.376 18.003h3.251c0.222 0 0.375 0.153 0.375 0.375v3.25c0 0.222-0.153 0.375-0.375 0.375h-3.251c-0.222 0-0.375-0.153-0.375-0.375v-3.25c0-0.222 0.153-0.375 0.375-0.375zM12.377 18.003h3.251c0.222 0 0.375 0.153 0.375 0.375v3.25c0 0.222-0.153 0.375-0.375 0.375h-3.251c-0.222 0-0.375-0.153-0.375-0.375v-3.25c0-0.222 0.153-0.375 0.375-0.375zM18.378 18.003h3.25c0.222 0 0.375 0.153 0.375 0.375v3.25c0 0.222-0.153 0.375-0.375 0.375h-3.25c-0.222 0-0.375-0.153-0.375-0.375v-3.25c0-0.222 0.153-0.375 0.375-0.375zM24.379 18.003h3.25c0.222 0 0.375 0.153 0.375 0.375v3.25c0 0.222-0.153 0.375-0.375 0.375h-3.25c-0.222 0-0.375-0.153-0.375-0.375v-3.25c0-0.222 0.153-0.375 0.375-0.375zM6.376 24.004h3.251c0.222 0 0.375 0.153 0.375 0.375v3.25c0 0.222-0.153 0.375-0.375 0.375h-3.251c-0.222 0-0.375-0.153-0.375-0.375v-3.25c0-0.222 0.153-0.375 0.375-0.375zM12.377 24.004h3.251c0.222 0 0.375 0.153 0.375 0.375v3.25c0 0.222-0.153 0.375-0.375 0.375h-3.251c-0.222 0-0.375-0.153-0.375-0.375v-3.25c0-0.222 0.153-0.375 0.375-0.375zM18.378 24.004h3.25c0.222 0 0.375 0.153 0.375 0.375v3.25c0 0.222-0.153 0.375-0.375 0.375h-3.25c-0.222 0-0.375-0.153-0.375-0.375v-3.25c0-0.222 0.153-0.375 0.375-0.375zM24.379 24.004h3.25c0.222 0 0.375 0.153 0.375 0.375v3.25c0 0.222-0.153 0.375-0.375 0.375h-3.25c-0.222 0-0.375-0.153-0.375-0.375v-3.25c0-0.222 0.153-0.375 0.375-0.375z"></path>
</svg>
