<!-- Generated by IcoMoon.io -->
<svg version="1.1" xmlns="http://www.w3.org/2000/svg" width="32" height="32" viewBox="0 0 32 32">
<title>accessories-dictionary</title>
<path d="M19.143 2.368c-1.134 0.156-2.502 0.7-4.031 1.506-3.082-1.688-5.483-1.792-7.497-1.276-2.14 0.548-3.877 1.444-6.583 1.362l-1.032-0.030v21.623h1c2.644 0 4.961-1.202 7.111-1.734 2.15-0.53 3.985-0.592 6.289 1.476l0.676 0.61 0.672-0.616c2.238-2.066 4.021-2.008 6.149-1.48 2.13 0.526 4.449 1.728 7.101 1.744l1.006 0.008v-21.597l-1.036 0.036c-3.032 0.11-4.541-0.788-6.501-1.368-0.675-0.215-1.451-0.339-2.256-0.339-0.377 0-0.748 0.027-1.11 0.080l0.041-0.005zM19.363 4.289c0.956-0.14 1.708 0.020 2.534 0.262 1.452 0.43 3.358 1.204 6.107 1.328v17.417c-1.75-0.254-3.557-0.918-5.625-1.428-2.24-0.554-4.817-0.326-7.311 1.6-2.556-1.934-5.173-2.148-7.435-1.59-2.086 0.516-3.893 1.18-5.633 1.422v-17.463c2.548-0.146 4.495-0.888 6.111-1.3 1.848-0.474 3.455-0.574 6.485 1.246l0.504 0.304 0.508-0.294c1.634-0.932 2.794-1.364 3.755-1.502z"></path>
<path d="M14.002 4.795h2v19.209h-2z"></path>
<path d="M0 5.001v27.004h30.005v-26.968h-4.001v22.967h-22.003v-23.003z"></path>
<path d="M1.876 29.504v-4.377l8.439-2.26 4.687 1.194 4.775-1.342 7.485 2.006v4.903z"></path>
</svg>
