<!-- Generated by IcoMoon.io -->
<svg version="1.1" xmlns="http://www.w3.org/2000/svg" width="32" height="32" viewBox="0 0 32 32">
<title>accessories-text-editor</title>
<path d="M10.808 12.022c-0.514 0.048-0.913 0.477-0.913 1 0 0.554 0.45 1.004 1.004 1.004 0.034 0 0.068-0.002 0.101-0.005l-0.004 0h11.995c0.004 0 0.009 0 0.014 0 0.552 0 1-0.448 1-1s-0.448-1-1-1c-0.005 0-0.010 0-0.015 0h-11.994c-0.028-0.003-0.061-0.004-0.094-0.004s-0.066 0.002-0.098 0.005l0.004-0z"></path>
<path d="M10.808 16.020c-0.514 0.048-0.913 0.477-0.913 1 0 0.554 0.45 1.004 1.004 1.004 0.034 0 0.068-0.002 0.101-0.005l-0.004 0h9.996c0.004 0 0.009 0 0.014 0 0.552 0 1-0.448 1-1s-0.448-1-1-1c-0.005 0-0.010 0-0.015 0h-9.995c-0.028-0.003-0.061-0.004-0.094-0.004s-0.066 0.002-0.098 0.005l0.004-0z"></path>
<path d="M10.808 20.019c-0.514 0.048-0.913 0.477-0.913 1 0 0.554 0.45 1.004 1.004 1.004 0.034 0 0.068-0.002 0.101-0.005l-0.004 0h11.995c0.004 0 0.009 0 0.014 0 0.552 0 1-0.448 1-1s-0.448-1-1-1c-0.005 0-0.010 0-0.015 0h-11.994c-0.028-0.003-0.061-0.004-0.094-0.004s-0.066 0.002-0.098 0.005l0.004-0z"></path>
<path d="M10.808 24.017c-0.514 0.048-0.913 0.477-0.913 1 0 0.554 0.45 1.004 1.004 1.004 0.034 0 0.068-0.002 0.101-0.005l-0.004 0h5.998c0.004 0 0.009 0 0.014 0 0.552 0 1-0.448 1-1s-0.448-1-1-1c-0.005 0-0.010 0-0.015 0h-5.997c-0.028-0.003-0.061-0.004-0.094-0.004s-0.066 0.002-0.098 0.005l0.004-0z"></path>
<path d="M7.997 2.026c-2.181 0-3.998 1.818-3.998 3.998v21.991c0 2.181 1.818 3.998 3.998 3.998h17.993c2.181 0 3.998-1.818 3.998-3.998v-21.991c0-2.181-1.818-3.998-3.998-3.998 0 8.663 0 17.326 0 25.989h-17.993c0-8.663 0-17.326 0-25.989z"></path>
<path d="M10.808 0.027c-0.466 0.091-0.812 0.496-0.812 0.982 0 0.006 0 0.012 0 0.019v-0.001 5.998c-0 0.004-0 0.009-0 0.014 0 0.552 0.448 1 1 1s1-0.448 1-1c0-0.005-0-0.010-0-0.015v0.001-5.998c0-0.005 0-0.011 0-0.018 0-0.552-0.448-1-1-1-0.066 0-0.131 0.006-0.194 0.019l0.006-0.001z"></path>
<path d="M14.806 0.027c-0.466 0.091-0.812 0.496-0.812 0.982 0 0.006 0 0.012 0 0.019v-0.001 5.998c-0 0.004-0 0.009-0 0.014 0 0.552 0.448 1 1 1s1-0.448 1-1c0-0.005-0-0.010-0-0.015v0.001-5.998c0-0.005 0-0.011 0-0.018 0-0.552-0.448-1-1-1-0.066 0-0.131 0.006-0.194 0.019l0.006-0.001z"></path>
<path d="M18.805 0.027c-0.466 0.091-0.812 0.496-0.812 0.982 0 0.006 0 0.012 0 0.019v-0.001 5.998c-0 0.004-0 0.009-0 0.014 0 0.552 0.448 1 1 1s1-0.448 1-1c0-0.005-0-0.010-0-0.015v0.001-5.998c0-0.005 0-0.011 0-0.018 0-0.552-0.448-1-1-1-0.066 0-0.131 0.006-0.194 0.019l0.006-0.001z"></path>
<path d="M22.803 0.027c-0.466 0.091-0.812 0.496-0.812 0.982 0 0.006 0 0.012 0 0.019v-0.001 5.998c-0 0.004-0 0.009-0 0.014 0 0.552 0.448 1 1 1s1-0.448 1-1c0-0.005-0-0.010-0-0.015v0.001-5.998c0-0.005 0-0.011 0-0.018 0-0.552-0.448-1-1-1-0.066 0-0.131 0.006-0.194 0.019l0.006-0.001z"></path>
</svg>
