<!-- Generated by IcoMoon.io -->
<svg version="1.1" xmlns="http://www.w3.org/2000/svg" width="32" height="32" viewBox="0 0 32 32">
<title>action-unavailable</title>
<path d="M16.002 2c-7.727 0-14.002 6.275-14.002 14.002s6.275 14.002 14.002 14.002 14.002-6.275 14.002-14.002-6.275-14.002-14.002-14.002zM16.002 6.001c0.022-0 0.049-0 0.075-0 2.020 0 3.898 0.607 5.461 1.649l-0.036-0.023-13.876 13.876c-1.019-1.527-1.627-3.405-1.627-5.425 0-0.027 0-0.053 0-0.080l-0 0.004c0-5.521 4.481-10.002 10.002-10.002zM24.38 10.502c1.018 1.527 1.625 3.404 1.625 5.422 0 0.028-0 0.055-0 0.083l0-0.004c0 5.521-4.481 10.002-10.002 10.002-0.022 0-0.049 0-0.075 0-2.020 0-3.898-0.607-5.461-1.649l0.036 0.023z"></path>
</svg>
