<!-- Generated by IcoMoon.io -->
<svg version="1.1" xmlns="http://www.w3.org/2000/svg" width="32" height="32" viewBox="0 0 32 32">
<title>address-book-new</title>
<path d="M6.376 2c-2.182 0-4.001 1.819-4.001 4.001h15.627v-4.001h-11.627zM24.004 14.002v14.002h-21.628c0 2.182 1.819 4.001 4.001 4.001h17.628c2.182 0 4.001-1.819 4.001-4.001v-14.002h-4.001z"></path>
<path d="M1.379 24.004c-0.004-0-0.009-0-0.014-0-0.552 0-1 0.448-1 1s0.448 1 1 1c0.005 0 0.010-0 0.015-0h3.621c0.004 0 0.009 0 0.014 0 0.552 0 1-0.448 1-1s-0.448-1-1-1c-0.005 0-0.010 0-0.015 0h-3.621z"></path>
<path d="M1.379 20.003c-0.004-0-0.009-0-0.014-0-0.552 0-1 0.448-1 1s0.448 1 1 1c0.005 0 0.010-0 0.015-0h3.621c0.004 0 0.009 0 0.014 0 0.552 0 1-0.448 1-1s-0.448-1-1-1c-0.005 0-0.010 0-0.015 0h-3.621z"></path>
<path d="M1.379 16.002c-0.004-0-0.009-0-0.014-0-0.552 0-1 0.448-1 1s0.448 1 1 1c0.005 0 0.010-0 0.015-0h3.621c0.004 0 0.009 0 0.014 0 0.552 0 1-0.448 1-1s-0.448-1-1-1c-0.005 0-0.010 0-0.015 0h-3.621z"></path>
<path d="M1.379 12.002c-0.004-0-0.009-0-0.014-0-0.552 0-1 0.448-1 1s0.448 1 1 1c0.005 0 0.010-0 0.015-0h3.621c0.004 0 0.009 0 0.014 0 0.552 0 1-0.448 1-1s-0.448-1-1-1c-0.005 0-0.010 0-0.015 0h-3.621z"></path>
<path d="M1.379 8.001c-0.004-0-0.009-0-0.014-0-0.552 0-1 0.448-1 1s0.448 1 1 1c0.005 0 0.010-0 0.015-0h3.621c0.004 0 0.009 0 0.014 0 0.552 0 1-0.448 1-1s-0.448-1-1-1c-0.005 0-0.010 0-0.015 0h-3.621z"></path>
<path d="M14.002 20.003c0.655 0.133 1.332 0.014 2 0 0.667-0.014 1.338 0.078 2 0 1.248-0.147 2.392-0.923 3.046-1.996s0.824-2.415 0.52-3.635c-0.304-1.219-1.064-2.308-2.064-3.068s-2.232-1.196-3.484-1.303c-1.816-0.156-3.685 0.384-5.132 1.492s-2.457 2.774-2.763 4.571c-0.215 1.266-0.086 2.589 0.369 3.789s1.237 2.276 2.238 3.080c1.001 0.805 2.219 1.336 3.489 1.523s2.59 0.028 3.78-0.454v-2c-0.907 0.597-2 0.907-3.085 0.874s-2.157-0.409-3.026-1.060-1.529-1.576-1.865-2.608c-0.336-1.032-0.345-2.169-0.025-3.206 0.381-1.237 1.224-2.318 2.309-3.023s2.399-1.039 3.692-0.977c1.074 0.051 2.164 0.387 2.966 1.103 0.401 0.358 0.724 0.808 0.913 1.311s0.24 1.062 0.121 1.586c-0.108 0.481-0.358 0.929-0.711 1.274s-0.806 0.585-1.289 0.682v-1.956c-0.239-0.595-0.659-1.115-1.19-1.474s-1.17-0.555-1.811-0.555c-0.641 0-1.28 0.196-1.811 0.555s-0.951 0.879-1.19 1.474c-0.317 0.789-0.304 1.712 0.067 2.477s1.1 1.355 1.934 1.524zM16.074 18.049c-0.207 0.208-0.481 0.349-0.771 0.396s-0.594 0-0.857-0.132-0.481-0.349-0.616-0.61c-0.135-0.261-0.185-0.565-0.141-0.855 0.038-0.247 0.143-0.484 0.301-0.678s0.37-0.344 0.605-0.43c0.235-0.086 0.493-0.108 0.739-0.062s0.479 0.159 0.668 0.324z"></path>
<path d="M24.004 0.039v3.994h-4.001v3.994h4.001v3.994h4.001v-3.994h4.001v-3.994h-4.001v-3.994h-4.001z"></path>
</svg>
