<!-- Generated by IcoMoon.io -->
<svg version="1.1" xmlns="http://www.w3.org/2000/svg" width="32" height="32" viewBox="0 0 32 32">
<title>applications-engineering</title>
<path d="M15.996 16.002c-7.998 0-11.997 6.001-11.997 12.002h-3.499c-0.5 0-0.5 0.314-0.5 0.5v3c0 0.5 0.276 0.5 0.5 0.5h30.992c0.391 0.012 0.5-0.259 0.5-0.5v-3c0.042-0.292 0-0.5-0.5-0.5h-3.499c0-6.001-3.999-12.002-11.997-12.002zM15.996 22.003c4.701 0 5.998 3.524 5.998 6.001h-11.997c0-2.396 1.405-6.001 5.998-6.001z"></path>
<path d="M29.982 1.2c-0.566-0.48-1.248-0.839-1.933-1.123l-0.043 4.465c-0.010 0.917-0.904 1.459-2.012 1.459h-2c-1.108-0.014-2.006-0.619-1.997-1.536l0.043-4.465c-0.691 0.266-1.379 0.607-1.955 1.073-2.755 2.229-2.791 5.899-0.080 8.197 0.566 0.48 1.248 0.839 1.933 1.123 0.056 0.023 0.056 4.109 0.056 4.109 2.979 1.5 4.703 3.5 5.998 5.501v-9.498c0.691-0.266 1.334-0.642 1.909-1.108 2.755-2.229 2.791-5.899 0.080-8.197z"></path>
</svg>
