<!-- Generated by IcoMoon.io -->
<svg version="1.1" xmlns="http://www.w3.org/2000/svg" width="32" height="32" viewBox="0 0 32 32">
<title>applications-system</title>
<path d="M16.002 2c-0.44 0-0.88 0.022-1.312 0.062l-0.812 4.189c-0.739 0.16-1.387 0.374-2.002 0.649l0.064-0.025-3.062-2.934c-0.778 0.46-1.454 1.028-2.126 1.624l1.812 3.813c-0.431 0.48-0.823 1.012-1.161 1.58l-0.026 0.047-4.189-0.562c-0.321 0.726-0.601 1.581-0.795 2.469l-0.017 0.091 3.687 2c-0.035 0.297-0.057 0.644-0.060 0.996l-0 0.004c0 0.346 0.026 0.664 0.060 1l-3.687 2c0.194 0.89 0.456 1.744 0.812 2.562l4.189-0.562c0.34 0.58 0.742 1.126 1.186 1.624l-1.812 3.815c0.672 0.596 1.348 1.164 2.126 1.624l3.062-2.938c0.612 0.274 1.268 0.48 1.938 0.626l0.812 4.189c0.393 0.039 0.85 0.061 1.312 0.061s0.919-0.022 1.37-0.065l-0.057 0.004 0.814-4.189c0.668-0.146 1.326-0.352 1.936-0.626l3.064 2.94c0.776-0.46 1.454-1.030 2.124-1.626l-1.812-3.815c0.444-0.498 0.848-1.044 1.188-1.624l4.187 0.562c0.322-0.726 0.602-1.583 0.797-2.471l0.017-0.091-3.689-2c0.034-0.336 0.062-0.654 0.062-1s-0.028-0.664-0.062-1l3.689-2c-0.212-0.98-0.492-1.836-0.849-2.651l0.035 0.089-4.187 0.562c-0.364-0.614-0.757-1.147-1.196-1.636l0.008 0.009 1.812-3.813c-0.67-0.596-1.348-1.164-2.124-1.624l-3.066 2.936c-0.551-0.249-1.198-0.464-1.87-0.612l-0.066-0.012-0.814-4.189c-0.392-0.039-0.848-0.061-1.309-0.062h-0.001zM16.002 10.002c3.314 0 6.001 2.687 6.001 6.001s-2.687 6.001-6.001 6.001v0c-3.314 0-6.001-2.687-6.001-6.001s2.687-6.001 6.001-6.001v0z"></path>
</svg>
