<!-- Generated by IcoMoon.io -->
<svg version="1.1" xmlns="http://www.w3.org/2000/svg" width="32" height="32" viewBox="0 0 32 32">
<title>applets-screenshooter</title>
<path d="M28.004 0c2.4 0 4.001 1.596 4.001 4.001v8.001h-4.001v-7.501c0-0.248-0.114-0.5-0.376-0.5h-23.252c-0.264 0-0.376 0.252-0.376 0.5v23.504c-2.4 0-4.001-1.846-4.001-4.251v-19.753c0-2.404 1.6-4.001 4.001-4.001z"></path>
<path d="M14.502 12.002c-0.942 0-1.486 1.084-1.5 2v2h-5.001c-0.938 0.13-2 1.084-2 2v12.002c0 0.916 1.054 2 2 2h20.003c0.946 0 2-1.084 2-2v-12.002c0-0.916-1.054-2-2-2h-5.001v-2c0-0.916-0.682-2-1.626-2zM18.003 18.003c3.314 0 6.001 2.687 6.001 6.001s-2.687 6.001-6.001 6.001v0c-3.314 0-6.001-2.687-6.001-6.001s2.687-6.001 6.001-6.001v0z"></path>
<path d="M22.003 24.004c0 2.209-1.791 4.001-4.001 4.001v0c-2.209 0-4.001-1.791-4.001-4.001v0c0-2.209 1.791-4.001 4.001-4.001v0c2.209 0 4.001 1.791 4.001 4.001v0z"></path>
</svg>
