<!-- Generated by IcoMoon.io -->
<svg version="1.1" xmlns="http://www.w3.org/2000/svg" width="32" height="32" viewBox="0 0 32 32">
<title>application-certificate</title>
<path d="M4.001 4.001c-1.047 0-2 0.953-2 2v20.003c0 1.047 0.953 2 2 2h6.001v-4.001c0 0-3.986-0.042-4.001 0v-16.002h22.003l0.001 16.002h-2.001v4.001h4.002c1.039 0 1.999-0.87 1.999-2v-20.003c0.002-0.933-0.874-2.001-2-2z"></path>
<path d="M24.002 16.128c-0.071 3.26-2.73 5.875-6 5.875s-5.929-2.615-5.999-5.868l-0-0.007c-0.001-0.037-0.001-0.082-0.001-0.126 0-3.314 2.687-6.001 6.001-6.001s6.001 2.687 6.001 6.001c0 0.044-0 0.088-0.001 0.132l0-0.007z"></path>
<path d="M16.003 18.003l-4.001 14.002h2l4.001-4.001 4 4.001h2l-4-14.002z"></path>
</svg>
