<!-- Generated by IcoMoon.io -->
<svg version="1.1" xmlns="http://www.w3.org/2000/svg" width="32" height="32" viewBox="0 0 32 32">
<title>applications-multimedia</title>
<path d="M18.003 16.002v8.563c-0.572-0.346-1.261-0.554-1.998-0.562l-0.002-0c-2.209 0-4.001 1.791-4.001 4.001s1.791 4.001 4.001 4.001c2.209 0 4.001-1.791 4.001-4.001v0-10.002h8.001v6.563c-0.572-0.346-1.261-0.554-1.998-0.562l-0.002-0c-2.209 0-4.001 1.791-4.001 4.001s1.791 4.001 4.001 4.001c2.209 0 4.001-1.791 4.001-4.001v0-12.002h-10.002z"></path>
<path d="M3.939 0s-1.938 2-1.938 4.001v24.004c0 2.020-2 4.001-2 4.001h2s0.846-0.854 1.438-2h2c-0.592 1.146-1.438 2-1.438 2h2s2-2.042 2-4.001v-4.001h2v-2h-2v-10.002h16.002v2h6.001v-10.002c0-2 1.938-4.001 1.938-4.001h-6.001s-1.938 2-1.938 4.001v6.001h-16.002v-6.001c0-2 1.938-4.001 1.938-4.001zM4.563 2h2c-0.304 0.612-0.56 1.304-0.56 2h-2.002c0-0.696 0.256-1.388 0.56-2zM26.566 2h2c-0.304 0.612-0.56 1.304-0.56 2h-2c0-0.696 0.256-1.388 0.56-2zM4.003 6.001h2v2h-2.002zM26.006 6.001h2v2h-2zM4.001 10.002h2v2h-2zM26.004 10.002h2v2h-2zM4.001 14.002h2v2h-2zM4.001 18.003h2v2h-2zM4.001 22.003h2v2h-2zM4.001 26.004h2v2h-2z"></path>
</svg>
