<!-- Generated by IcoMoon.io -->
<svg version="1.1" xmlns="http://www.w3.org/2000/svg" width="32" height="32" viewBox="0 0 32 32">
<title>applications-games</title>
<path d="M7.57 4.038c-0.485 0.002-1.042 0.133-1.612 0.438-2.075 1.093-3.985 4.673-5.022 9.314-0.884 3.942-1.209 9.333-0.682 11.502 0.459 1.864 1.254 2.688 2.666 2.688 2.092-0.036 4.719-2.365 6.386-5.501 1.206-1.736 4.002-2.525 6.696-2.438 2.695-0.094 5.491 0.702 6.696 2.438 1.667 3.136 4.294 5.465 6.386 5.501 1.412 0 2.207-0.824 2.666-2.688 0.527-2.168 0.202-7.559-0.682-11.502-1.038-4.641-2.947-8.221-5.022-9.314-1.14-0.609-2.081-0.591-2.914 0-1.055 0.753-3.252 1.559-7.13 1.563s-6.076-0.81-7.13-1.563c-0.417-0.296-0.817-0.44-1.302-0.438zM8.066 10.039h1.984v2h1.984v2h-1.984v2h-1.984v-2h-1.984v-2h1.984v-2zM22.947 10.039c0.548 0 0.992 0.448 0.992 1s-0.444 1-0.992 1c-0.548 0-0.992-0.448-0.992-1s0.444-1 0.992-1zM20.963 12.039c0.548 0 0.992 0.448 0.992 1s-0.444 1-0.992 1c-0.548 0-0.992-0.448-0.992-1s0.444-1 0.992-1zM24.931 12.039c0.548 0 0.992 0.448 0.992 1s-0.444 1-0.992 1c-0.548 0-0.992-0.448-0.992-1s0.444-1 0.992-1zM22.947 14.040c0.548 0 0.992 0.448 0.992 1s-0.444 1-0.992 1c-0.548 0-0.992-0.448-0.992-1s0.444-1 0.992-1z"></path>
</svg>
