<!-- Generated by IcoMoon.io -->
<svg version="1.1" xmlns="http://www.w3.org/2000/svg" width="32" height="32" viewBox="0 0 32 32">
<title>applications-games</title>
<path d="M4.493 6.001c-0.306 0-0.512 0.146-0.582 0.406l-3.39 17.245c-0.45 1.692 3.122 3.715 5.481 2.352l5.501-8.001h9.001l5.501 8.001c2.356 1.36 5.931-0.66 5.477-2.352l-3.386-17.243c-0.070-0.262-0.28-0.408-0.582-0.408zM8.501 8.001h1c0.276 0 0.5 0.224 0.5 0.5v0 1.5h1.5c0.276 0 0.5 0.224 0.5 0.5v0 1c0 0.276-0.224 0.5-0.5 0.5v0h-1.5v1.5c0 0.276-0.224 0.5-0.5 0.5v0h-1c-0.276 0-0.5-0.224-0.5-0.5v0-1.5h-1.5c-0.276 0-0.5-0.224-0.5-0.5v0-1c0-0.276 0.224-0.5 0.5-0.5v0h1.5v-1.5c0-0.276 0.224-0.5 0.5-0.5v0zM21.003 9.501c0.829 0 1.5 0.672 1.5 1.5s-0.672 1.5-1.5 1.5v0c-0.829 0-1.5-0.672-1.5-1.5s0.672-1.5 1.5-1.5v0zM25.004 11.502c0.829 0 1.5 0.672 1.5 1.5s-0.672 1.5-1.5 1.5v0c-0.829 0-1.5-0.672-1.5-1.5s0.672-1.5 1.5-1.5v0z"></path>
</svg>
