<!-- Generated by IcoMoon.io -->
<svg version="1.1" xmlns="http://www.w3.org/2000/svg" width="32" height="32" viewBox="0 0 32 32">
<title>applications-engineering</title>
<path d="M15.996 16.002c-7.999 0-11.998 6.001-11.998 12.002h-3.499c-0.5 0-0.5 0.314-0.5 0.5v3c0 0.5 0.276 0.5 0.5 0.5h30.993c0.39 0.012 0.5-0.26 0.5-0.5v-3c0.042-0.292 0-0.5-0.5-0.5h-3.501c0-6.001-3.999-12.002-11.996-12.002zM15.996 22.003c4.701 0 5.999 3.525 5.999 6.001h-11.998c0-2.396 1.406-6.001 5.999-6.001z"></path>
<path d="M29.983 1.2c-0.555-0.451-1.194-0.829-1.885-1.105l-0.049-0.017-0.042 4.465c-0.010 0.916-0.904 1.458-2.012 1.458h-2c-1.106-0.014-2.006-0.62-1.996-1.536l0.042-4.465c-0.69 0.266-1.378 0.608-1.954 1.072-2.754 2.228-2.79 5.901-0.080 8.197 0.568 0.48 1.248 0.84 1.934 1.124 0.056 0.022 0.056 4.109 0.056 4.109 2.98 1.5 4.701 3.501 5.999 5.501v-9.497c0.731-0.288 1.361-0.661 1.921-1.118l-0.013 0.010c2.754-2.228 2.79-5.899 0.080-8.197z"></path>
</svg>
