<!-- Generated by IcoMoon.io -->
<svg version="1.1" xmlns="http://www.w3.org/2000/svg" width="32" height="32" viewBox="0 0 32 32">
<title>application-certificate</title>
<path d="M4.001 4.001c-1.048 0-2 0.952-2 2v20.003c0 1.048 0.952 2 2 2h6.001v-4.001s-3.987-0.042-4.001 0v-16.002h22.003v16.002h-2v4.001h4.001c1.040 0 2-0.87 2-2v-20.003c0-0.934-0.874-2-2-2z"></path>
<path d="M24.004 16.128c0 3.314-2.687 6.001-6.001 6.001s-6.001-2.687-6.001-6.001v0c0-3.314 2.687-6.001 6.001-6.001s6.001 2.687 6.001 6.001v0z"></path>
<path d="M16.002 18.003l-4.001 14.002h2l4.001-4.001 4.001 4.001h2l-4.001-14.002z"></path>
</svg>
