<!-- Generated by IcoMoon.io -->
<svg version="1.1" xmlns="http://www.w3.org/2000/svg" width="32" height="32" viewBox="0 0 32 32">
<title>applications-graphics</title>
<path d="M15.786 0.005c-4.22 0.059-9.892 1.605-9.796 6.562 0.1 5.173 5.836 3.323 6.302 5.437 0.071-0.090 0.177-0.164 0.25-0.25 0.395-0.427 0.79-0.775 1.186-1.187 0.625-0.705 1.273-1.358 1.934-2.062 2.214-2.357 2.309-2.5 7.593-6.5-2.070-1.242-4.517-1.932-6.595-2-0.266-0.010-0.592-0.004-0.874 0zM11.98 3.068c1.654 0 2.995 1.343 2.995 3s-1.341 3-2.995 3c-1.654 0-2.995-1.343-2.995-3s1.341-3 2.995-3zM26.52 4.391c-2.837 4.467-4.734 7.113-6.74 9.176-1.279 1.315-2.327 2.623-3.245 3.562-1.678 1.781-3.876 3.882-6.302 6.187 0.127 2.938 1.622 5.494 6.489 6.437 7.797 1.512 16.056-3.649 15.225-14.125-0.357-4.497-2.811-8.564-5.427-11.239zM27.205 12.005c1.098 0 1.997 0.895 1.997 2s-0.899 2-1.997 2c-1.098 0-1.997-0.895-1.997-2s0.899-2 1.997-2zM25.957 18.005c1.098 0 1.997 0.895 1.997 2s-0.899 2-1.997 2c-1.098 0-1.997-0.895-1.997-2s0.899-2 1.997-2zM15.973 22.005c1.098 0 1.997 0.895 1.997 2s-0.899 2-1.997 2c-1.098 0-1.997-0.895-1.997-2s0.899-2 1.997-2zM21.963 22.005c1.098 0 1.997 0.895 1.997 2s-0.899 2-1.997 2c-1.098 0-1.997-0.895-1.997-2s0.899-2 1.997-2z"></path>
<path d="M0 27.002c3.105 0.001 2.788-3.576 4.295-4.571 1.747-1.154 3.278 0.276 3.583 1.453 0.386 1.485-0.234 3.263-2.26 3.77-2.147 0.537-5.324 0.553-5.618-0.651z"></path>
<path d="M28.078 0.005c-3.6 2.598-8.414 6.605-12.232 10.669-0.347 0.369-0.681 0.725-1.009 1.094-0.207 0.216-0.424 0.392-0.63 0.616-0.131 0.153-0.252 0.326-0.378 0.479-3.747 4.141-7.441 9.363-9.836 13.267 5.955-4.595 9.834-8.331 12.295-10.942 0.481-0.492 1.059-1.133 1.702-1.847 2.408-2.67 5.851-6.876 10.088-13.336z"></path>
</svg>
