<!-- Generated by IcoMoon.io -->
<svg version="1.1" xmlns="http://www.w3.org/2000/svg" width="32" height="32" viewBox="0 0 32 32">
<title>applications-science</title>
<path d="M10.024 0.2c-1.103 0.002-1.997 0.897-1.997 2 0 0.746 0.409 1.397 1.015 1.741l0.010 0.005 0.98 0.546v5.369c-0.26 0.408-0.496 0.772-0.874 1.426-0.546 0.94-1.216 2.124-1.94 3.418 1.192-2.518-0.271 0.095-1.723 2.715l-2.682 5.275c-1.146 2.094-1.1 4.909 0.6 7.029 1.348 1.8 3.479 2.28 5.241 2.28h14.702c1.764 0 3.895-0.48 5.241-2.284 1.7-2.12 1.74-4.931 0.594-7.025-2.326-4.739-4.949-8.439-7.125-12.796v-5.401l0.98-0.552c0.616-0.349 1.025-1 1.025-1.746 0-1.104-0.894-1.998-1.997-2h-0zM14.032 4.201h4.033v6.215c0 0.001 0 0.003 0 0.004 0 0.319 0.075 0.62 0.207 0.888l-0.005-0.012c2.404 4.915 5.149 8.687 7.373 13.236 0.018 0.039 0.031 0.065 0.045 0.091l-0.005-0.011c0.48 0.88 0.506 1.768-0.2 2.63-0.021 0.025-0.044 0.055-0.066 0.085l-0.004 0.005c-0.29 0.398-0.974 0.672-2.056 0.672h-14.702c-1.080 0-1.764-0.274-2.054-0.672-0.026-0.035-0.049-0.065-0.073-0.093l0.003 0.003c-0.708-0.862-0.682-1.75-0.202-2.628 4.117-7.866 5.575-10.469 7.043-13.065l-2.656 5.106c1.288-2.384 1.92-3.483 2.559-4.576l-0.656 1.215c0.526-0.906 0.982-1.624 1.036-1.698 0.239-0.325 0.382-0.734 0.382-1.176 0-0.002 0-0.003 0-0.005v0z"></path>
<path d="M12.44 18.007l-4.439 7.997h16.002l-4.439-8.001z"></path>
</svg>
