<!-- Generated by IcoMoon.io -->
<svg version="1.1" xmlns="http://www.w3.org/2000/svg" width="32" height="32" viewBox="0 0 32 32">
<title>application-x-firmware</title>
<path d="M18 0v2h-2v2h-1.906v2h1.906v2h-1.906v2h1.906v2h-1.906v2h1.906v2h2v2h2v-2h2v2h2v-2h2v2h2v-2h2v-2h2v-2h-2v-2h2v-2h-2v-2h2v-2h-2v-2h-2v-2h-2v2h-2v-2h-2v2h-2v-2z"></path>
<path d="M13 23.965c-1.665 0-3.035 1.37-3.035 3.035s1.37 3.035 3.035 3.035c1.665 0 3.035-1.37 3.035-3.035s-1.37-3.035-3.035-3.035zM13 25.965c0.584 0 1.035 0.451 1.035 1.035s-0.451 1.035-1.035 1.035c-0.584 0-1.035-0.451-1.035-1.035s0.451-1.035 1.035-1.035z"></path>
<path d="M1 20.262v2h2.422l3.313 5.738h4.141v-2h-2.984l-3.313-5.738z"></path>
<path d="M28.964 17.891c-1.665 0-3.035 1.37-3.035 3.035s1.37 3.039 3.035 3.039c1.665 0 3.035-1.374 3.035-3.039s-1.37-3.035-3.035-3.035zM28.964 19.891c0.584 0 1.035 0.451 1.035 1.035s-0.451 1.039-1.035 1.039c-0.584 0-1.035-0.455-1.035-1.039s0.451-1.035 1.035-1.035z"></path>
<path d="M1 14.191v2h2.422l3.313 5.734h19.578v-2h-18.422l-3.313-5.734z"></path>
<path d="M11.058 11.926c-1.665 0-3.035 1.374-3.035 3.039s1.37 3.035 3.035 3.035c1.665 0 3.035-1.37 3.035-3.035s-1.37-3.039-3.035-3.039zM11.058 13.926c0.584 0 1.035 0.455 1.035 1.039s-0.451 1.035-1.035 1.035c-0.584 0-1.035-0.451-1.035-1.035s0.451-1.039 1.035-1.039z"></path>
<path d="M1.004 7.953l-0.004 2 7.066 0.012 2.117 3.418 1.703-1.055-2.703-4.363z"></path>
<path d="M3.050 6.074c1.665 0 3.039-1.374 3.039-3.039s-1.374-3.035-3.039-3.035c-1.665 0-3.035 1.37-3.035 3.035s1.37 3.039 3.035 3.039zM3.050 4.074c-0.584 0-1.035-0.455-1.035-1.039s0.451-1.035 1.035-1.035c0.584 0 1.039 0.451 1.039 1.035s-0.455 1.039-1.039 1.039z"></path>
<path d="M4.003 2.027l-0.004 2 6.621 0.012 1.707 1.656 1.391-1.438-2.285-2.219z"></path>
<path d="M19.074 23.965c-1.665 0-3.039 1.37-3.039 3.035s1.374 3.035 3.039 3.035c1.665 0 3.035-1.37 3.035-3.035s-1.37-3.035-3.035-3.035zM19.074 25.965c0.584 0 1.035 0.451 1.035 1.035s-0.451 1.035-1.035 1.035c-0.584 0-1.039-0.451-1.039-1.035s0.455-1.035 1.039-1.035z"></path>
<path d="M25.144 23.965c-1.665 0-3.035 1.37-3.035 3.035s1.37 3.035 3.035 3.035c1.665 0 3.039-1.37 3.039-3.035s-1.374-3.035-3.039-3.035zM25.144 25.965c0.584 0 1.039 0.451 1.039 1.035s-0.455 1.035-1.039 1.035c-0.584 0-1.035-0.451-1.035-1.035s0.451-1.035 1.035-1.035z"></path>
<path d="M23.55 20.621l-1.727 1.008 2.25 3.875 1.727-1.008z"></path>
<path d="M17.492 20.563l-1.734 1 2.313 4 1.734-1z"></path>
<path d="M11.836 20.688l-1.797 0.875 1.938 4 1.797-0.875z"></path>
</svg>
