<!-- Generated by IcoMoon.io -->
<svg version="1.1" xmlns="http://www.w3.org/2000/svg" width="32" height="32" viewBox="0 0 32 32">
<title>applications-utilities</title>
<path d="M5.868 0h0.265c3.241 0 5.868 2.674 5.868 5.973v20.059c0 3.299-2.627 5.973-5.868 5.973h-0.265c-3.241 0-5.868-2.674-5.868-5.973v-20.059c0-3.299 2.627-5.973 5.868-5.973z"></path>
<path d="M10.814 0c1.756 1.426 2.938 3.585 2.938 6.001v2h4.251c-0.148-2.186 2.498-4.001 4.001-4.001 1.362 0 2 0.023 2 2v2h2.438c2.458-1.2 3.563-3.939 3.563-5.376 0-1.472-4.771-2.625-7.376-2.625z"></path>
<path d="M14.002 10.003v8.626c5.533 5.324 12.252 4.813 12.252 4.813s0.706-3.042-3.813-8.064l-4.751-5.376h-3.563c-0.043 0.004-0.082-0.004-0.125 0zM19.953 15.067l3.367 3.474c-3.599 0.331-4.302-1.713-3.367-3.474z"></path>
</svg>
