<!-- Generated by IcoMoon.io -->
<svg version="1.1" xmlns="http://www.w3.org/2000/svg" width="32" height="32" viewBox="0 0 32 32">
<title>applications-system</title>
<path d="M16.003 2c-0.441 0-0.882 0.023-1.313 0.062l-0.813 4.188c-0.669 0.147-1.326 0.352-1.938 0.625l-3.063-2.938c-0.777 0.46-1.454 1.028-2.125 1.625l1.813 3.813c-0.445 0.498-0.849 1.045-1.188 1.625l-4.188-0.563c-0.356 0.818-0.618 1.673-0.813 2.563l3.688 2c-0.034 0.336-0.062 0.655-0.062 1s0.028 0.664 0.062 1l-3.688 2c0.195 0.89 0.457 1.745 0.813 2.563l4.188-0.563c0.339 0.58 0.743 1.127 1.188 1.625l-1.813 3.813c0.671 0.597 1.348 1.165 2.125 1.625l3.063-2.938c0.611 0.273 1.269 0.478 1.938 0.625l0.813 4.188c0.431 0.040 0.871 0.062 1.313 0.062s0.882-0.023 1.313-0.062l0.813-4.188c0.669-0.147 1.326-0.352 1.938-0.625l3.063 2.938c0.777-0.46 1.454-1.028 2.125-1.625l-1.813-3.813c0.445-0.498 0.849-1.045 1.188-1.625l4.188 0.563c0.355-0.818 0.618-1.673 0.813-2.563l-3.688-2c0.034-0.336 0.062-0.655 0.062-1s-0.028-0.664-0.062-1l3.688-2c-0.195-0.89-0.457-1.745-0.813-2.563l-4.188 0.563c-0.339-0.58-0.743-1.127-1.188-1.625l1.813-3.813c-0.671-0.597-1.348-1.165-2.125-1.625l-3.063 2.938c-0.611-0.273-1.269-0.478-1.938-0.625l-0.813-4.188c-0.431-0.040-0.871-0.062-1.313-0.062zM16.003 10.002c3.314 0 6.001 2.687 6.001 6.001s-2.687 6.001-6.001 6.001c-3.314 0-6.001-2.687-6.001-6.001s2.687-6.001 6.001-6.001z"></path>
</svg>
