<!-- Generated by IcoMoon.io -->
<svg version="1.1" xmlns="http://www.w3.org/2000/svg" width="32" height="32" viewBox="0 0 32 32">
<title>appointment-soon</title>
<path d="M13.002 0c-7.157 0-13.002 5.845-13.002 13.002s5.845 13.002 13.002 13.002c0.341 0 0.665-0.036 1-0.062v-4.063c-0.335 0.037-0.655 0.125-1 0.125-4.995 0-9.001-4.006-9.001-9.001s4.006-9.001 9.001-9.001c4.995 0 9.001 4.006 9.001 9.001 0 0.345-0.088 0.665-0.125 1h4.063c0.026-0.335 0.062-0.659 0.062-1 0-7.157-5.845-13.002-13.002-13.002z"></path>
<path d="M12.814 6.001c-0.466 0.091-0.813 0.496-0.813 0.983 0 0.006 0 0.012 0 0.019v-0.001 5.001h-3c-0.004-0-0.009-0-0.014-0-0.552 0-1 0.448-1 1s0.448 1 1 1c0.005 0 0.010-0 0.015-0h4c0.552-0 1-0.448 1-1v0-6.001c0-0.005 0-0.011 0-0.018 0-0.552-0.448-1-1-1-0.066 0-0.131 0.006-0.194 0.019l0.006-0.001z"></path>
<path d="M17.753 16.141c-0.985 0-1.75 0.759-1.75 1.735v12.393c0 0.976 0.765 1.735 1.75 1.735h12.502c0.985 0 1.75-0.759 1.75-1.735v-12.393c0-0.976-0.765-1.735-1.75-1.735h-12.502zM22.003 18.124h4.001v7.932h-4.001v-7.932zM22.003 28.038h4.001v1.983h-4.001v-1.983z"></path>
</svg>
