<!-- Generated by IcoMoon.io -->
<svg version="1.1" xmlns="http://www.w3.org/2000/svg" width="32" height="32" viewBox="0 0 32 32">
<title>appointment-new</title>
<path d="M24.004 2v3.994h-4.001v3.994h4.001v3.994h4.001v-3.994h4.001v-3.994h-4.001v-3.994h-4.001z"></path>
<path d="M12.814 12.002c-0.466 0.091-0.813 0.496-0.813 0.983 0 0.006 0 0.012 0 0.019v-0.001 5.001h-3c-0.004-0-0.009-0-0.014-0-0.552 0-1 0.448-1 1s0.448 1 1 1c0.005 0 0.010-0 0.015-0h4c0.552-0 1-0.448 1-1v0-6.001c0-0.005 0-0.011 0-0.018 0-0.552-0.448-1-1-1-0.066 0-0.131 0.006-0.194 0.019l0.006-0.001z"></path>
<path d="M13.002 6.001c-7.157 0-13.002 5.845-13.002 13.002s5.845 13.002 13.002 13.002c7.157 0 13.002-5.845 13.002-13.002 0-1.031-0.145-2.037-0.375-3h-4.188c0.335 0.946 0.563 1.934 0.563 3 0 4.995-4.006 9.001-9.001 9.001s-9.001-4.006-9.001-9.001 4.006-9.001 9.001-9.001c1.865 0 3.58 0.539 5.001 1.5v-4.501c-1.536-0.646-3.229-1-5.001-1z"></path>
</svg>
