<!-- Generated by IcoMoon.io -->
<svg version="1.1" xmlns="http://www.w3.org/2000/svg" width="32" height="32" viewBox="0 0 32 32">
<title>audio-volume-overamplified</title>
<path d="M-0.004 10.024h4.965l5.936-5.996h1.091v23.986h-0.949l-6.076-5.996h-4.967z"></path>
<path d="M30.040 0.032l-3.998 1.473v29.033l3.998 1.475zM24.044 2.243l-3.998 1.473v24.611l3.998 1.475zM17.985 4.477l-3.998 1.479v20.128l3.998 1.483z"></path>
<path d="M30.040 0.032h-3.998v8.839l3.998-0.728zM24.044 0.032h-3.998v9.926l3.998-0.726zM17.985 0.032l-3.998-0.032v11.063l3.998-0.73zM13.988 20.979v11.033h3.998v-10.306zM20.046 22.085v9.928h3.998v-9.202zM26.042 23.174v8.839h3.998v-8.113z"></path>
</svg>
