<!-- Generated by IcoMoon.io -->
<svg version="1.1" xmlns="http://www.w3.org/2000/svg" width="32" height="32" viewBox="0 0 32 32">
<title>audio-speakers</title>
<path d="M1.99 10.090h4.95l5.919-5.978 1.088 0.030v23.914l-0.947 0.002-6.058-6.010h-4.952z"></path>
<path d="M15.94 10.090v-2.836l6.71-6.692c0.805-0.817 2.118-0.69 2.814 0.046 0.662 0.699 0.747 1.969-0.060 2.774l-6.69 6.708zM15.94 21.921v2.834l6.71 6.692c0.805 0.821 2.118 0.692 2.814-0.044 0.323-0.357 0.52-0.833 0.52-1.355 0-0.553-0.221-1.054-0.581-1.419l0 0-6.69-6.708zM15.94 14.075v3.986h11.957c1.495 0 1.991-0.998 1.993-1.997 0-0.996-0.498-1.989-1.993-1.989z"></path>
</svg>
