<!-- Generated by IcoMoon.io -->
<svg version="1.1" xmlns="http://www.w3.org/2000/svg" width="32" height="32" viewBox="0 0 32 32">
<title>audio-volume-low</title>
<path d="M0 10.002h4.969l5.941-6.001h1.092v24.004h-0.95l-6.081-6.001h-4.971z"></path>
<path d="M21.503 1.5v3.641l0.117 0.141c2.474 2.973 3.883 6.226 3.883 10.72 0 4.488-1.5 7.749-3.891 10.728l-0.109 0.137v3.637h3.485l0.152-0.168c3.017-3.375 5.364-8.569 5.364-14.334 0-5.747-2.050-10.592-5.294-14.33l-0.152-0.172zM22.503 2.5h2.055c3.025 3.552 4.946 8.069 4.946 13.502 0 5.415-2.217 10.311-5.009 13.502h-1.992v-2.336c2.412-3.060 4.001-6.539 4.001-11.166 0-4.617-1.504-8.101-4.001-11.166z"></path>
<path d="M17.503 5.501v4.673l0.105 0.133c1.157 1.504 1.895 3.321 1.895 5.696 0 2.377-0.741 4.21-1.895 5.692l-0.105 0.137v4.673h2.676l0.141-0.113c2.605-2.119 4.184-6.012 4.184-10.388 0-4.446-1.503-8.306-4.192-10.396l-0.137-0.106zM18.503 6.501h1.266c2.3 1.852 3.735 5.339 3.735 9.501 0 4.074-1.505 7.617-3.739 9.501h-1.262v-3.383c1.201-1.611 2-3.619 2-6.118 0-2.498-0.802-4.491-2-6.114z"></path>
<path d="M18.003 16.002c0-2.514-0.624-4.433-2-6.001h-2v12.002h2c1.344-1.674 2-3.485 2-6.001z"></path>
</svg>
