<!-- Generated by IcoMoon.io -->
<svg version="1.1" xmlns="http://www.w3.org/2000/svg" width="32" height="32" viewBox="0 0 32 32">
<title>audio-volume-muted</title>
<path d="M22.003 22.003h2.75l2.25 2.188 2.188-2.188h2.812v2.938l-2.188 2.124 2.188 2.126v2.812h-2.876l-2.124-2.126-2.126 2.126h-2.874v-2.812l2.124-2.126-2.124-2.122zM0 10.002h4.969l5.941-6.001h1.092v24.004h-0.95l-6.081-6.001h-4.971z"></path>
<path d="M22.003 2v2.96c2.53 3.040 4.001 6.441 4.001 11.042 0 1.446-0.17 2.764-0.458 4.001h4.069c0.248-1.29 0.39-2.628 0.39-4.001 0-5.629-2-10.346-5.173-14.002z"></path>
<path d="M18.003 6.001v4.001c1.214 1.578 2 3.519 2 6.001s-0.786 4.441-2 6.001v4.001h2v-6.001h3.501c0.316-1.252 0.5-2.594 0.5-4.001 0-4.335-1.478-8.041-4.001-10.002z"></path>
<path d="M18.003 16.002c0-2.514-0.624-4.433-2-6.001h-2v12.002h2c1.344-1.674 2-3.485 2-6.001z"></path>
</svg>
