<!-- Generated by IcoMoon.io -->
<svg version="1.1" xmlns="http://www.w3.org/2000/svg" width="32" height="32" viewBox="0 0 32 32">
<title>audio-volume-medium</title>
<path d="M30 16c0-5.628-2-10.343-5.171-14h-2.829v2.961c2.529 3.039 4 6.439 4 11.039s-1.559 8-4 11.039v2.961h2.763c2.931-3.281 5.237-8.372 5.237-14z"></path>
<path d="M24 16c0-4.333-1.478-8.040-4-10h-2v4c1.213 1.578 2 3.518 2 6s-0.787 4.439-2 6v4h2c2.446-1.99 4-5.747 4-10z"></path>
<path d="M18 16c0-2.515-0.623-4.431-2-6h-2v12h2c1.344-1.674 2-3.485 2-6z"></path>
<path d="M0 10h4.969l5.938-6h1.094v23.998l-0.951 0.002-6.081-6.001h-4.969z"></path>
</svg>
