<!-- Generated by IcoMoon.io -->
<svg version="1.1" xmlns="http://www.w3.org/2000/svg" width="32" height="32" viewBox="0 0 32 32">
<title>audio-x-generic</title>
<path d="M10.002 2v14.69c-0.905-0.423-1.94-0.688-3-0.688-3.843 0-7.001 3.158-7.001 7.001s3.158 7.001 7.001 7.001c3.821 0 6.966-3.125 7.001-6.939 0-0.022 0-0.041 0-0.062v-15.002h12.002v8.689c-0.905-0.423-1.94-0.688-3-0.688-3.843 0-7.001 3.158-7.001 7.001s3.158 7.001 7.001 7.001c3.8 0 6.931-3.092 7.001-6.876 0.001-0.043 0-0.082 0-0.125v-21.003z"></path>
</svg>
