<!-- Generated by IcoMoon.io -->
<svg version="1.1" xmlns="http://www.w3.org/2000/svg" width="32" height="32" viewBox="0 0 32 32">
<title>audio-volume-medium</title>
<path d="M21.503 1.5v3.641l0.117 0.141c2.474 2.973 3.883 6.226 3.883 10.72 0 4.488-1.5 7.749-3.891 10.728l-0.109 0.137v3.637h3.485l0.152-0.168c3.017-3.375 5.364-8.569 5.364-14.334 0-5.747-2.050-10.592-5.294-14.33l-0.152-0.172zM22.503 2.5h2.055c3.025 3.552 4.946 8.069 4.946 13.502 0 5.415-2.217 10.311-5.009 13.502h-1.992v-2.336c2.412-3.060 4.001-6.539 4.001-11.166 0-4.617-1.504-8.101-4.001-11.166z"></path>
<path d="M24.004 16.002c0-4.333-1.478-8.041-4.001-10.002h-2v4.001c1.214 1.578 2 3.521 2 6.001 0 2.482-0.786 4.441-2 6.001v4.001h2c2.446-1.99 4.001-5.747 4.001-10.002z"></path>
<path d="M18.003 16.002c0-2.514-0.624-4.433-2-6.001h-2v12.002h2c1.344-1.674 2-3.485 2-6.001z"></path>
<path d="M0 10.002h4.969l5.941-6.001h1.092v24.004h-0.95l-6.081-6.001h-4.971z"></path>
</svg>
