<!-- Generated by IcoMoon.io -->
<svg version="1.1" xmlns="http://www.w3.org/2000/svg" width="32" height="32" viewBox="0 0 32 32">
<title>audio-input-microphone</title>
<path d="M7.001 10.002c-0.552 0-1 0.448-1 1v0 5.939c0.003 3.898 2.476 7.219 5.938 8.481l0.063 0.020v2.562h-4.001c-1.13 0-2 0.98-2 2v2h18.003v-2c0-1.168-0.952-2-2-2h-4.001v-2.562c3.525-1.283 5.997-4.603 6.001-8.501v-5.939c0-0.552-0.448-1-1-1s-1 0.448-1 1v0c0 0.138 0.012 0.256 0.062 0.376v5.561c0 0.007 0 0.014 0 0.022 0 3.89-3.153 7.043-7.043 7.043-0.006 0-0.013 0-0.019-0h0.001c-3.909 0-7.003-3.134-7.003-7.063v-5.939c0-0.552-0.448-1-1-1v0zM15.002 1.974c2.77 0 5.001 2.23 5.001 5.001v10.027c0 2.77-2.23 5.001-5.001 5.001-0.003 0-0.007 0-0.010 0-2.756 0-4.991-2.234-4.991-4.991 0-0.004 0-0.007 0-0.011v0.001-10.027c0-2.77 2.23-5.001 5.001-5.001z"></path>
</svg>
