<!-- Generated by IcoMoon.io -->
<svg version="1.1" xmlns="http://www.w3.org/2000/svg" width="32" height="32" viewBox="0 0 32 32">
<title>audio-volume-overamplified</title>
<path d="M0 10.021h4.964l5.932-5.994h1.093v23.975l-0.95 0.002-6.075-5.995h-4.964z"></path>
<path d="M30.033 0.031l-3.996 1.473v29.022l3.996 1.473zM24.039 2.241l-3.996 1.473v24.602l3.996 1.473zM17.982 4.475l-3.996 1.481v20.119l3.996 1.481z"></path>
<path d="M30.033 0.031h-3.996v8.835l3.996-0.726zM24.039 0.031h-3.996v9.924l3.996-0.726zM17.982 0.031l-3.996-0.031v11.059l3.996-0.73zM13.986 20.972v11.028h3.996v-10.299zM20.043 22.076v9.924h3.996v-9.198zM26.037 23.165v8.835h3.996v-8.109z"></path>
</svg>
