<!-- Generated by IcoMoon.io -->
<svg version="1.1" xmlns="http://www.w3.org/2000/svg" width="32" height="32" viewBox="0 0 32 32">
<title>audio-input-microphone</title>
<path d="M7.001 10.002c-0.552 0-1 0.448-1 1v5.938c0 3.937 2.516 7.25 6.001 8.501v2.563h-4.001c-1.13 0-2 0.98-2 2v2h18.003v-2c-0-1.169-0.953-2-2-2h-4.001v-2.563c3.485-1.251 6.001-4.564 6.001-8.501v-5.938c0-0.552-0.448-1-1-1s-1 0.448-1 1c0 0.138 0.012 0.255 0.062 0.375v5.563c0 3.929-3.158 7.064-7.064 7.064s-7.001-3.135-7.001-7.064v-5.938c0-0.552-0.448-1-1-1zM15.002 1.975c2.77 0 5.001 2.23 5.001 5.001v10.027c0 2.77-2.23 5.001-5.001 5.001s-5.001-2.23-5.001-5.001v-10.027c0-2.77 2.23-5.001 5.001-5.001z"></path>
</svg>
