<!-- Generated by IcoMoon.io -->
<svg version="1.1" xmlns="http://www.w3.org/2000/svg" width="32" height="32" viewBox="0 0 32 32">
<title>auth-smartcard</title>
<path d="M9.455 0c-3.022 0-5.455 2.23-5.455 5.001v22.003c0 2.77 2.432 5.001 5.455 5.001h13.094c3.022 0 5.455-2.23 5.455-5.001v-22.003c0-2.77-2.432-5.001-5.455-5.001zM11.016 5.955c0.005-0 0.012-0 0.018-0 0.552 0 1 0.448 1 1 0 0.005-0 0.010-0 0.015v-0.001 7.065h2v-8.065h6.001v8.065h1.022c0.552 0 1 0.448 1 1s-0.448 1-1 1v0h-3.022v-8.065h-2v8.065h-6.001v-9.065c-0-0.004-0-0.009-0-0.014 0-0.547 0.439-0.991 0.983-1h0.001z"></path>
</svg>
