<!-- Generated by IcoMoon.io -->
<svg version="1.1" xmlns="http://www.w3.org/2000/svg" width="32" height="32" viewBox="0 0 32 32">
<title>auth-sim-locked</title>
<path d="M9.455 0c-3.022 0-5.455 2.23-5.455 5.001v22.003c0 2.77 2.432 5.001 5.455 5.001h8.547l0.056-10.002 1.9 0.004c0.044-4.005 2.574-6.915 8.045-5.967v-6.039l-10.002-10.002zM10.986 5.955c0.005-0 0.010-0 0.016-0 0.552 0 1 0.448 1 1 0 0.005-0 0.010-0 0.015v-0.001 7.065h2v-8.065h6.001v8.065h1.024c1.352-0.020 1.352 2.020 0 2h-3.024v-8.065h-2v8.065h-6.001v-9.065c-0-0.004-0-0.009-0-0.014 0-0.547 0.439-0.991 0.983-1h0.001z"></path>
<path d="M26.004 17.753c-2.178 0-4.001 1.758-4.001 3.939v2.188h-1.938v8.125h11.94v-8.127h-2.062v-2.186c0-2.18-1.76-3.939-3.939-3.939zM26.004 19.753c1.092 0 1.938 0.834 1.938 1.938v2.188h-3.939v-2.188c0-1.104 0.908-1.938 2-1.938z"></path>
</svg>
