<!-- Generated by IcoMoon.io -->
<svg version="1.1" xmlns="http://www.w3.org/2000/svg" width="32" height="32" viewBox="0 0 32 32">
<title>auth-fingerprint</title>
<path d="M13.318 0.508c-3.767 0.212-7.689 1.588-11.262 4.615-0.325 0.277-0.529 0.687-0.529 1.144 0 0.829 0.672 1.501 1.501 1.501 0.372 0 0.712-0.135 0.974-0.359l-0.002 0.002c6.185-5.241 13.21-4.661 18.203-1.906 2.494 1.376 4.421 3.317 5.375 5.223s1.014 3.629-0.008 5.205c-1.142 1.76-4.701 3-7.661-0.278-1.776-1.964-4.167-2.66-6.267-2.266-2.1 0.398-3.919 1.766-4.961 3.665-1.046 1.9-1.27 4.391-0.178 6.799 1.094 2.408 3.41 4.685 7.225 6.555 0.195 0.099 0.424 0.157 0.668 0.157 0.829 0 1.5-0.672 1.5-1.5 0-0.59-0.34-1.1-0.835-1.345l-0.009-0.004c-3.38-1.658-5.095-3.509-5.817-5.101-0.724-1.594-0.548-2.984 0.074-4.115 0.62-1.13 1.738-1.944 2.886-2.16 1.15-0.216 2.324 0.044 3.485 1.328 4.067 4.501 10.096 3.457 12.406-0.1 1.642-2.534 1.474-5.589 0.174-8.181-1.3-2.596-3.655-4.877-6.609-6.507-2.688-1.508-5.9-2.397-9.32-2.397-0.357 0-0.711 0.010-1.063 0.029l0.049-0.002z"></path>
<path d="M16.052 7.149c-0.29-0.022-0.628-0.034-0.969-0.034-3.106 0-5.972 1.022-8.282 2.748l0.036-0.026c-2.602 1.936-4.549 4.835-5.053 8.321-0.502 3.489 0.466 7.491 3.364 11.55 0.274 0.398 0.727 0.656 1.24 0.656 0.829 0 1.5-0.672 1.5-1.5 0-0.34-0.113-0.653-0.303-0.904l0.003 0.004c-2.546-3.565-3.216-6.733-2.834-9.375 0.38-2.642 1.84-4.831 3.875-6.345 4.067-3.026 10.174-3.267 14.082 1.574 0.277 0.365 0.711 0.599 1.199 0.599 0.829 0 1.5-0.672 1.5-1.5 0-0.376-0.138-0.72-0.367-0.983l0.002 0.002c-2.456-3.046-5.707-4.539-8.993-4.787z"></path>
<path d="M14.79 19.409c-0.803 0.032-1.442 0.691-1.442 1.499 0 0.336 0.11 0.645 0.296 0.895l-0.003-0.004c2.3 3.21 6.681 5.645 11.096 5.041 0.748-0.092 1.321-0.724 1.321-1.49 0-0.829-0.672-1.5-1.5-1.5-0.080 0-0.159 0.006-0.236 0.018l0.009-0.001c-2.964 0.404-6.643-1.568-8.251-3.815-0.274-0.392-0.724-0.645-1.233-0.645-0.020 0-0.040 0-0.060 0.001l0.003-0z"></path>
</svg>
