<!-- Generated by IcoMoon.io -->
<svg version="1.1" xmlns="http://www.w3.org/2000/svg" width="32" height="32" viewBox="0 0 32 32">
<title>auth-sim-missing</title>
<path d="M9.455 0c-3.022 0-5.455 2.23-5.455 5.001v22.003c0 2.77 2.432 5.001 5.455 5.001h10.548l0.032-11.94 7.969-0.030v-10.034l-10.002-10.002zM10.986 5.955c0.005-0 0.010-0 0.016-0 0.552 0 1 0.448 1 1 0 0.005-0 0.010-0 0.015v-0.001 7.065h2v-8.065h6.001v8.065h1.024c1.352-0.020 1.352 2.020 0 2h-3.024v-8.065h-2v8.065h-6.001v-9.065c-0-0.004-0-0.009-0-0.014 0-0.547 0.439-0.991 0.983-1h0.001z"></path>
<path d="M22.003 22.003h2.75l2.25 2.188 2.188-2.188h2.812v2.938l-2.188 2.124 2.188 2.126v2.812h-2.876l-2.124-2.126-2.126 2.126h-2.874v-2.812l2.126-2.126-2.126-2.122z"></path>
</svg>
