<!-- Generated by IcoMoon.io -->
<svg version="1.1" xmlns="http://www.w3.org/2000/svg" width="32" height="32" viewBox="0 0 32 32">
<title>avatar-default</title>
<path d="M16.002 4.001c-3.314 0-6.001 2.687-6.001 6.001s2.687 6.001 6.001 6.001v0c3.314 0 6.001-2.687 6.001-6.001s-2.687-6.001-6.001-6.001v0zM13.002 18.003c-0.006 0-0.013-0-0.020-0-4.96 0-8.981 4.021-8.981 8.981 0 0.007 0 0.014 0 0.021v-0.001 1c0 2 2 2 2 2h20.003s2 0 2-2v-1c0-0.006 0-0.013 0-0.020 0-4.96-4.021-8.981-8.981-8.981-0.007 0-0.014 0-0.021 0h0.001z"></path>
</svg>
