<!-- Generated by IcoMoon.io -->
<svg version="1.1" xmlns="http://www.w3.org/2000/svg" width="32" height="32" viewBox="0 0 32 32">
<title>battery-full-charged</title>
<path d="M10.94 0.080c-0.978 0-1.588 0.426-2.060 0.904-0.47 0.48-0.878 1.108-0.878 2.056v1.002h-4.001v27.836l24.008 0.004v-27.84h-4.005v-0.834c-0.037-0.784-0.348-1.489-0.838-2.027l0.002 0.003c-0.472-0.556-1.24-1.166-2.394-1.102l0.108-0.004zM11.998 4.071l8.013 0.004v3.961h4.001v19.851h-16.018v-19.849h4.005z"></path>
<path d="M17.917 10.005c-0.52 0.023-0.986 0.241-1.328 0.582l-6.001 6.001c-0.362 0.362-0.586 0.862-0.586 1.414 0 1.105 0.895 2 2 2h1.968l0.34 0.004-1.96 2.868c-0.218 0.316-0.349 0.707-0.349 1.128 0 1.105 0.896 2 2 2 0.553 0 1.053-0.224 1.415-0.586l6.001-6.001c0.362-0.362 0.586-0.862 0.586-1.414 0-1.105-0.895-2-2-2h-2.26l1.924-2.89c0.21-0.311 0.335-0.695 0.335-1.108 0-1.105-0.896-2-2-2-0.030 0-0.060 0.001-0.089 0.002l0.004-0z"></path>
<path d="M10.002 18.003h2v2h-2zM18.003 10.002h2v2h-2zM12.002 24.004h2v2h-2zM20.003 16.002h2v2h-2z"></path>
</svg>
