<!-- Generated by IcoMoon.io -->
<svg version="1.1" xmlns="http://www.w3.org/2000/svg" width="32" height="32" viewBox="0 0 32 32">
<title>battery-good-charging</title>
<path d="M10.002 16.002v4.001h8.001l4.001-4.001zM10.002 22.003v4.001h6.001v-4.001z"></path>
<path d="M10.94 0.024c-0.98 0-1.592 0.43-2.064 0.91-0.47 0.48-0.874 1.112-0.874 2.060v1.006h-4.001v28.004h16.002v-4.001h-12.002v-20.003h4.001v-3.977h8.001v3.977h4.001v6.001h4.001v-10.002h-4.001v-0.79l-0.004-0.054c-0.036-0.785-0.346-1.491-0.835-2.031l0.002 0.003c-0.472-0.558-1.24-1.168-2.4-1.104z"></path>
<path d="M25.918 16.006c-0.52 0.023-0.986 0.241-1.328 0.582l-6.001 6.001c-0.362 0.362-0.586 0.862-0.586 1.414 0 1.105 0.895 2 2 2h4.209l-1.92 2.808c-0.218 0.316-0.349 0.707-0.349 1.129 0 1.105 0.896 2 2 2 0.544 0 1.037-0.217 1.398-0.569l-0 0 6.063-5.941c0.37-0.363 0.6-0.869 0.6-1.428 0-1.104-0.894-1.999-1.998-2h-4.261l1.924-2.89c0.21-0.311 0.335-0.695 0.335-1.108 0-1.105-0.896-2-2-2-0.030 0-0.060 0.001-0.089 0.002l0.004-0z"></path>
<path d="M30.005 22.003h2v2h-2zM18.003 24.004h2v2h-2zM26.004 16.002h2v2h-2zM21.941 29.941h2v2h-2z"></path>
</svg>
