<!-- Generated by IcoMoon.io -->
<svg version="1.1" xmlns="http://www.w3.org/2000/svg" width="32" height="32" viewBox="0 0 32 32">
<title>battery-good-charging</title>
<path d="M10.002 16.002v4.001h8.001l4.001-4.001zM10.002 22.003v4.001h6.001v-4.001z"></path>
<path d="M10.939 0c-0.981 0-1.592 0.457-2.063 0.938s-0.875 1.117-0.875 2.063v1h-4.001v28.004h16.002v-4.001h-12.002v-20.003h4.001v-4.001h8.001v4.001h4.001v6.001h4.001v-10.002h-4.001v-0.875c-0.048-0.861-0.34-1.442-0.813-2-0.448-0.529-1.254-1.059-2.313-1.063v-0.062h-9.939z"></path>
<path d="M25.691 15.94c-0.466 0.052-0.877 0.257-1.188 0.563l0-0-6.001 6.001c-0.376 0.364-0.61 0.874-0.61 1.438 0 1.105 0.896 2 2 2 0.017 0 0.033-0 0.049-0.001l-0.002 0h5.126l-2.563 2.563c-0.368 0.368-0.596 0.876-0.596 1.438 0 1.123 0.91 2.033 2.033 2.033 0.561 0 1.070-0.228 1.438-0.596l6.001-6.001c0.376-0.364 0.61-0.874 0.61-1.438 0-1.105-0.896-2-2-2-0.017 0-0.033 0-0.049 0.001l0.002-0h-5.126l2.563-2.563c0.392-0.366 0.637-0.887 0.637-1.464 0-1.105-0.896-2.001-2-2.001-0.115 0-0.227 0.010-0.336 0.028l0.012-0.002z"></path>
<path d="M29.942 21.94h2v2h-2v-2z"></path>
<path d="M17.941 23.941h2v2h-2v-2z"></path>
<path d="M25.942 15.939h2v2h-2v-2z"></path>
<path d="M21.941 29.942h2v2h-2v-2z"></path>
<path d="M24.253 16.815l-4.001 6.001 3.375 2.25 4.001-6.001-3.375-2.25z"></path>
<path d="M26.254 22.816l-4.001 6.001 3.375 2.25 4.001-6.001-3.375-2.25z"></path>
</svg>
