<!-- Generated by IcoMoon.io -->
<svg version="1.1" xmlns="http://www.w3.org/2000/svg" width="32" height="32" viewBox="0 0 32 32">
<title>battery-full-charged</title>
<path d="M17.56 10.017c-0.356 0.098-0.684 0.295-0.938 0.563l-6.063 6c-0.471 0.462-0.689 1.166-0.563 1.813v1.625h4.942l-2.375 2.547c-0.429 0.439-0.643 1.079-0.563 1.688-0.002 0.062-0.002 0.125 0 0.187v1.563h2c0.528 0.008 1.056-0.198 1.438-0.563l6-5.985c0.367-0.38 0.575-0.909 0.563-1.438 0.006-0.083 0.006-0.167 0-0.25v-1.75h-5.129l2.625-2.563c0.429-0.439 0.643-1.079 0.563-1.688 0.002-0.062 0.002-0.125 0-0.187v-1.563h-1.875c-0.042-0.001-0.083-0.001-0.125 0-0.166-0.021-0.334-0.021-0.5 0z"></path>
<path d="M10.938 0.013c-0.984 0-1.596 0.432-2.067 0.914s-0.871 1.114-0.871 2.059v1.016h-4v28.002l24.005 0.004v-28.002h-4v-0.797l-0.004-0.055c-0.048-0.861-0.36-1.468-0.832-2.027s-1.241-1.174-2.402-1.109l0.113-0.004h-9.942zM12.004 4.017l7.997 0.004v3.989h3.996v19.989h-15.993v-19.993h4v-3.989z"></path>
</svg>
