<!-- Generated by IcoMoon.io -->
<svg version="1.1" xmlns="http://www.w3.org/2000/svg" width="32" height="32" viewBox="0 0 32 32">
<title>battery-missing</title>
<path d="M10.939 0c-0.984 0-1.593 0.456-2.063 0.938s-0.875 1.118-0.875 2.063v1h-4.001v28.004h24.004v-28.004h-4.001v-0.875c-0.048-0.861-0.341-1.441-0.813-2-0.447-0.53-1.25-1.059-2.313-1.063v-0.062h-9.939zM12.002 4.001h8.001v3.063c0.459 0.264 0.852 0.592 1.25 0.938h2.75v20.003h-4.563c-0.177 0.302-0.379 0.566-0.625 0.813s-0.51 0.448-0.813 0.625c-0.238 0.142-0.483 0.285-0.75 0.375-0.062 0.021-0.124 0.045-0.187 0.062-0.081 0.023-0.167 0.045-0.25 0.062-0.259 0.054-0.539 0.062-0.813 0.062-0.362 0-0.728-0.032-1.063-0.125-0.064-0.018-0.125-0.041-0.187-0.062-0.265-0.088-0.512-0.236-0.75-0.375-0.302-0.177-0.566-0.379-0.813-0.625s-0.448-0.51-0.625-0.813h-4.563v-20.003h2.625c0.419-0.367 0.885-0.662 1.375-0.938v-3.063z"></path>
<path d="M15.637 8.011c3.285-0.184 6.192 2.341 6.376 5.626-0 2.803-0.756 3.844-3.188 5.688-0.382 0.287-0.651 0.501-0.75 0.625s-0.062 0.066-0.062 0.062c0.014 1.057-0.943 2-2 2s-2.014-0.944-2-2c0-1.005 0.449-1.887 0.938-2.5s0.983-1.033 1.438-1.375c0.408-0.321 0.922-0.769 1.375-1.313 0.187-0.224 0.258-0.615 0.25-0.875v-0.062c-0.063-1.127-0.999-1.938-2.125-1.875s-1.938 0.874-1.875 2h-4.001c-0.184-3.285 2.341-5.817 5.626-6.001zM16.012 24.013c1.105 0 2 0.896 2 2s-0.896 2-2 2c-1.105 0-2-0.896-2-2s0.896-2 2-2z"></path>
</svg>
