<!-- Generated by IcoMoon.io -->
<svg version="1.1" xmlns="http://www.w3.org/2000/svg" width="32" height="32" viewBox="0 0 32 32">
<title>battery-caution</title>
<path d="M10.002 22.003v4.001h4.001v-4.001z"></path>
<path d="M10.94 0.024c-0.98 0-1.592 0.43-2.064 0.91-0.47 0.48-0.874 1.112-0.874 2.060v1.006h-4.001v28.004h10.002v-4.001h-6.001v-20.003h4.001v-3.977h8.001v3.977h4.001v6.001h4.001v-10.002h-4.001v-0.79l-0.004-0.054c-0.036-0.785-0.346-1.491-0.835-2.031l0.002 0.003c-0.472-0.556-1.24-1.168-2.4-1.104z"></path>
<path d="M17.753 16.002c-0.007-0-0.016-0-0.024-0-0.953 0-1.726 0.773-1.726 1.726 0 0.009 0 0.017 0 0.025v-0.001 12.502c0 0.984 0.766 1.75 1.75 1.75h12.502c0.007 0 0.016 0 0.024 0 0.953 0 1.726-0.773 1.726-1.726 0-0.009-0-0.017-0-0.025v0.001-12.502c0-0.007 0-0.016 0-0.024 0-0.953-0.773-1.726-1.726-1.726-0.009 0-0.017 0-0.025 0h0.001zM22.003 18.003h4.001v8.001h-4.001zM22.003 28.004h4.001v2h-4.001z"></path>
</svg>
