<!-- Generated by IcoMoon.io -->
<svg version="1.1" xmlns="http://www.w3.org/2000/svg" width="32" height="32" viewBox="0 0 32 32">
<title>battery-full-charging</title>
<path d="M10.002 10.002v4.001h12.002v-4.001h-12.002zM10.002 16.002v4.001h8.001l0.5-0.25 3.501-3.501v-0.25h-12.002zM10.002 22.128v3.876h6.001v-3.876h-6.001z"></path>
<path d="M10.939 0c-0.981 0-1.592 0.457-2.063 0.938s-0.875 1.117-0.875 2.063v1h-4.001v28.004h16.002v-4.001h-12.002v-20.003h4.001v-4.001h8.001v4.001h4.001v6.001h4.001v-10.002h-4.001v-0.875c-0.048-0.861-0.34-1.442-0.813-2-0.448-0.529-1.254-1.059-2.313-1.063v-0.062h-9.939z"></path>
<path d="M25.441 15.94c-0.356 0.098-0.684 0.295-0.938 0.563l-6.001 5.938c-0.471 0.462-0.689 1.228-0.563 1.875v1.625h6.251l-1.688 2.5c-0.303 0.298-0.49 0.706-0.563 1.125v2.375h2c0.528 0.008 1.056-0.261 1.438-0.625l6.001-6.001c0.367-0.38 0.575-0.847 0.563-1.375 0.006-0.083 0.006-0.167 0-0.25v-1.75h-1.875c-0.042-0.001-0.083-0.001-0.125 0h-4.251l1.688-2.625c0.303-0.298 0.49-0.662 0.563-1.063v-2.313h-2.5z"></path>
</svg>
