<!-- Generated by IcoMoon.io -->
<svg version="1.1" xmlns="http://www.w3.org/2000/svg" width="32" height="32" viewBox="0 0 32 32">
<title>bluetooth</title>
<path d="M13.97 0c-1.091 0.018-1.968 0.907-1.968 2 0 0 0 0 0 0v-0 7.173l-2.586-2.586c-0.364-0.377-0.874-0.611-1.439-0.611-1.105 0-2 0.896-2 2 0 0.565 0.234 1.075 0.61 1.438l0.001 0.001 5.415 5.415v2.344l-5.415 5.415c-0.377 0.364-0.611 0.874-0.611 1.439 0 1.105 0.896 2 2 2 0.565 0 1.075-0.234 1.438-0.61l0.001-0.001 2.586-2.586v7.173c0 1.105 0.896 2 2 2 0.552 0 1.052-0.224 1.414-0.586l8.001-8.001c0.362-0.362 0.586-0.862 0.586-1.414s-0.224-1.052-0.586-1.414l-4.587-4.587 4.587-4.587c0.362-0.362 0.586-0.862 0.586-1.414s-0.224-1.052-0.586-1.414l-8.001-8.001c-0.362-0.362-0.862-0.586-1.415-0.586-0.011 0-0.022 0-0.033 0l0.002-0zM16.002 6.829l3.172 3.172-3.172 3.172zM16.002 18.831l3.172 3.172-3.172 3.172z"></path>
<path d="M6.001 6.001h2v2h-2zM6.001 24.004h2v2h-2zM12.002 30.005h2v2h-2zM12.002 0h2v2h-2z"></path>
</svg>
