<!-- Generated by IcoMoon.io -->
<svg version="1.1" xmlns="http://www.w3.org/2000/svg" width="32" height="32" viewBox="0 0 32 32">
<title>bluetooth-disabled</title>
<path d="M12.002 0v9.173l-2.586-2.586c-0.475-0.495-1.185-0.574-1.844-0.574h-1.52v1.403c0 0.732-0.001 1.485 0.535 2l5.415 5.415v2.344l-5.415 5.415c-0.476 0.458-0.586 1.122-0.586 1.773v1.629h1.586c0.677 0 1.356-0.084 1.828-0.574l2.586-2.586v9.173h1.989c0.535 0.004 1.048-0.208 1.426-0.586l4.587-4.587v-6.829h2.828l-4.001-4.001 4.587-4.587c0.781-0.781 0.781-2.047 0-2.829l-8.001-8.001c-0.378-0.378-0.891-0.589-1.426-0.586zM16.002 6.829l3.172 3.172-3.172 3.172zM16.002 18.831l3.172 3.172-3.172 3.172z"></path>
<path d="M22.003 22.003h2.75l2.25 2.188 2.188-2.188h2.813v2.938l-2.188 2.125 2.188 2.125v2.813h-2.875l-2.125-2.125-2.125 2.125h-2.875v-2.813l2.125-2.125-2.125-2.125v-2.938z"></path>
</svg>
