<!-- Generated by IcoMoon.io -->
<svg version="1.1" xmlns="http://www.w3.org/2000/svg" width="32" height="32" viewBox="0 0 32 32">
<title>bookmark-new</title>
<path d="M11.052 0c-2.184 0-3.831 1.36-4.461 2.59-0.628 1.23-0.6 2.41-0.6 2.41v26.238l10.002-5.001 10.002 5.001v-9.235h-4.001v2.766l-6.001-3-6.001 3v-19.769s0.026-0.32 0.162-0.59c0.138-0.268 0.020-0.41 0.9-0.41h9.938c0.834 0 0.7 0.12 0.836 0.394s0.164 0.606 0.164 0.606v1h4.001v-1s0.028-1.168-0.586-2.394c-0.614-1.228-2.248-2.606-4.415-2.606z"></path>
<path d="M22.003 8.001v4.001h-4.001v4.001h4.001v4.001h4.001v-4.001h4.001v-4.001h-4.001v-4.001z"></path>
</svg>
