<!-- Generated by IcoMoon.io -->
<svg version="1.1" xmlns="http://www.w3.org/2000/svg" width="32" height="32" viewBox="0 0 32 32">
<title>call-missed</title>
<path d="M17.997 0v1.562c-0.031 0.133-0.049 0.285-0.049 0.441 0 1.106 0.896 2.002 2.002 2.002 0.038 0 0.077-0.001 0.114-0.003l-0.005 0h1.188l-5.127 5.123-4.751-4.565c-0.361-0.347-0.852-0.561-1.393-0.561-0.015 0-0.031 0-0.046 0l0.002-0h-1.938v1.5c-0.001 0.028-0.002 0.060-0.002 0.093s0.001 0.065 0.002 0.098l-0-0.005c-0.017 0.099-0.027 0.212-0.027 0.328 0 0.555 0.225 1.058 0.589 1.422v0l6.189 5.939 1.374 1.374 1.44-1.374 6.437-6.501v1.126c0 1.105 0.896 2 2 2v0h2v-1.688c0.004-0.047 0.006-0.101 0.006-0.156s-0.002-0.109-0.007-0.163l0 0.007v-8.001h-7.939c-0.009-0-0.020-0-0.031-0s-0.022 0-0.033 0l0.002-0z"></path>
<path d="M0.532 27.43c-0.688-0.686-0.698-2.15 0-2.846l0.080-0.080c8.535-8.491 22.337-8.479 30.855 0.040l0.040 0.040c0.7 0.7 0.638 2.14-0.040 2.886l-3.861 3.995c-0.329 0.331-0.785 0.536-1.288 0.536s-0.959-0.205-1.288-0.536l-2.574-2.574c-0.33-0.329-0.535-0.784-0.535-1.287s0.204-0.958 0.535-1.287l0-0 0.604-0.602c-2.059-1.007-4.481-1.596-7.040-1.596s-4.981 0.589-7.137 1.639l0.097-0.043 0.604 0.602c0.33 0.329 0.535 0.784 0.535 1.287s-0.204 0.958-0.535 1.287l-2.574 2.574c-0.328 0.333-0.783 0.539-1.287 0.539s-0.959-0.206-1.287-0.539l-0-0z"></path>
</svg>
