<!-- Generated by IcoMoon.io -->
<svg version="1.1" xmlns="http://www.w3.org/2000/svg" width="32" height="32" viewBox="0 0 32 32">
<title>call-stop</title>
<path d="M22.004 22.003h-2c-0.514 0-1.057 0.26-1.438 0.625l-2.563 2.563-2.563-2.563c-0.38-0.366-0.924-0.625-1.438-0.625h-2l-0 2c0 0.619 0.181 1.105 0.563 1.5l5.438 5.313 5.438-5.313c0.382-0.395 0.563-0.881 0.563-1.5v-2z"></path>
<path d="M0.519 13.287c-0.687-0.687-0.697-2.15-0-2.848l0.081-0.081c8.535-8.491 22.337-8.478 30.855 0.040l0.040 0.040c0.701 0.701 0.637 2.141-0.040 2.888l-3.862 3.994c-0.713 0.713-1.861 0.713-2.575 0l-2.575-2.575c-0.713-0.713-0.713-1.861-0-2.575l0.603-0.603c-4.455-2.128-9.625-2.128-14.080 0l0.603 0.603c0.713 0.713 0.713 1.861 0 2.575l-2.575 2.575c-0.713 0.713-1.874 0.725-2.575 0z"></path>
</svg>
