<!-- Generated by IcoMoon.io -->
<svg version="1.1" xmlns="http://www.w3.org/2000/svg" width="32" height="32" viewBox="0 0 32 32">
<title>camera-switch</title>
<path d="M26.531 20.952l4.378-4.951h1.091v10.009h-1.067zM14 14h10.001c1.108 0 2 0.892 2 2v10c0 1.108-0.892 2-2 2h-10.001c-1.108 0-2-0.892-2-2v-10c0-1.108 0.892-2 2-2z"></path>
<path d="M8 3.988c-1.108 0-2 0.892-2 2v10.016c0 1.108 0.892 2 2 2h1.996v-2.004c0-2.1 1.904-4.015 4.004-4.004h6v-6.008c0-1.108-0.892-2-2-2zM0 6.006v10.011h0.959l4.51-5.175-4.246-4.837z"></path>
</svg>
