<!-- Generated by IcoMoon.io -->
<svg version="1.1" xmlns="http://www.w3.org/2000/svg" width="32" height="32" viewBox="0 0 32 32">
<title>camera-video</title>
<path d="M23.007 2c3.867 0 7.001 3.134 7.001 7.001 0 2.239-1.052 4.219-2.688 5.501 0.42 0.366 0.688 0.897 0.688 1.5-0.004 4.001 0 6.105 0 12.002 0 1.108-0.892 2-2 2h-18.003c-1.108 0-2-0.892-2-2v-4.313l-5.126 3.813c-0.039 0.026-0.081 0.047-0.125 0.062-0.062 0.010-0.126 0.010-0.187 0-0.041 0.004-0.084 0.004-0.125 0-0.044-0.016-0.086-0.036-0.125-0.062-0.044-0.016-0.086-0.036-0.125-0.062-0.022-0.020-0.043-0.040-0.062-0.062-0.022-0.020-0.043-0.040-0.062-0.062-0.026-0.039-0.047-0.081-0.062-0.125-0.004-0.041-0.004-0.084 0-0.125v-12.127c-0.004-0.041-0.004-0.084 0-0.125 0.016-0.044 0.036-0.086 0.062-0.125 0.020-0.022 0.040-0.043 0.062-0.062 0.020-0.022 0.040-0.043 0.062-0.062 0.020-0.022 0.040-0.043 0.062-0.062 0.020-0.022 0.040-0.043 0.062-0.062 0.039-0.026 0.081-0.047 0.125-0.062 0.062-0.010 0.126-0.010 0.187 0 0.021-0.001 0.042-0.001 0.062 0 0.022 0.020 0.043 0.040 0.062 0.062 0.044 0.016 0.086 0.036 0.125 0.062l5.126 3.813v-2.313c0-0.604 0.268-1.134 0.688-1.5-1.636-1.282-2.688-3.262-2.688-5.501 0-3.867 3.134-7.001 7.001-7.001 2.568 0 4.782 1.377 6.001 3.438 1.218-2.061 3.433-3.438 6.001-3.438zM23.007 6.001c-1.657 0-3 1.343-3 3s1.343 3 3 3c1.657 0 3-1.343 3-3s-1.343-3-3-3zM11.005 6.001c-1.657 0-3 1.343-3 3s1.343 3 3 3c1.657 0 3-1.343 3-3s-1.343-3-3-3zM17.006 12.564c-0.316 0.535-0.683 1.007-1.125 1.438h2.25c-0.442-0.431-0.809-0.903-1.125-1.438z"></path>
</svg>
