<!-- Generated by IcoMoon.io -->
<svg version="1.1" xmlns="http://www.w3.org/2000/svg" width="32" height="32" viewBox="0 0 32 32">
<title>camera-switch</title>
<path d="M26.536 20.955l4.379-4.951h1.090v10.009h-1.068zM14.002 14.002h10.002c1.108 0 2 0.892 2 2v10.002c0 1.108-0.892 2-2 2h-10.002c-1.108 0-2-0.892-2-2v-10.002c0-1.108 0.892-2 2-2z"></path>
<path d="M8.001 3.989c-1.108 0-2 0.892-2 2v10.018c0 1.108 0.892 2 2 2h1.996v-2.004c0-2.1 1.904-4.015 4.005-4.005h6.001v-6.009c0-1.108-0.892-2-2-2zM0 6.009v10.012h0.96l4.509-5.175-4.247-4.839z"></path>
</svg>
