<!-- Generated by IcoMoon.io -->
<svg version="1.1" xmlns="http://www.w3.org/2000/svg" width="32" height="32" viewBox="0 0 32 32">
<title>channel-insecure</title>
<path d="M10.002 0c-3.29 0-6.001 2.711-6.001 6.001v6.001h4.001v-6.001c0-1.143 0.858-2 2-2h4.001c1.143 0 2 0.858 2 2v0.5c0.534-0.298 1.114-0.5 1.75-0.5h2.25c0-3.29-2.711-6.001-6.001-6.001zM3.876 18.003c-1.108 0-2.13 0.9-2 2v10.002h20.128v-4.001h-4.251c-2.021 0-3.751-1.73-3.751-3.751v-4.251z"></path>
<path d="M17.752 8.001c-0.985 0-1.75 0.765-1.75 1.75v12.502c0 0.985 0.765 1.75 1.75 1.75h12.502c0.985 0 1.75-0.765 1.75-1.75v-12.502c0-0.985-0.765-1.75-1.75-1.75h-12.502zM22.003 10.002h4.001v8.001h-4.001v-8.001zM22.003 20.003h4.001v2h-4.001v-2z"></path>
</svg>
