<!-- Generated by IcoMoon.io -->
<svg version="1.1" xmlns="http://www.w3.org/2000/svg" width="32" height="32" viewBox="0 0 32 32">
<title>colorimeter-colorhug</title>
<path d="M14.118 0.029c-0.908 0.098-1.765 0.44-2.499 1-0.976 0.74-1.623 1.905-1.623 3.371v10.62s0.472 1.014 1 1.014 1-1.014 1-1.014v-10.618c0-0.9 0.344-1.407 0.874-1.813 0.532-0.404 1.327-0.6 2.125-0.56 0.798 0.036 1.567 0.306 2.123 0.81 0.558 0.506 0.94 1.17 0.94 2.249 0 4.33 2.925 7.017 5.998 6.937 1.711-0.046 3.373-0.956 4.498-2.625l-1.126-1.999c-0.752 1.829-2.135 2.589-3.437 2.623-1.919 0.050-3.936-1.459-3.936-4.936 0-1.583-0.674-2.885-1.623-3.748-0.952-0.86-2.161-1.253-3.377-1.309-0.302-0.014-0.634-0.032-0.938 0zM27.988 4.027v0.248l1.561 2.749c0.024-0.080 0.042-0.166 0.062-0.25zM27.988 4.713c-0.012 0.212-0.040 0.428-0.062 0.624l1.437 2.439c0.046-0.126 0.082-0.246 0.124-0.376zM27.863 5.713c-0.026 0.18-0.088 0.332-0.124 0.5l1.311 2.249c0.060-0.122 0.134-0.248 0.188-0.376zM27.677 6.586c-0.048 0.18-0.132 0.34-0.188 0.5l1.188 2.063c0.080-0.13 0.176-0.238 0.25-0.376z"></path>
<path d="M5.452 12.024h11.087c0.806 0 1.453 0.646 1.453 1.451v13.087c0 0.001 0 0.003 0 0.004 0 0.8-0.649 1.449-1.449 1.449-0.001 0-0.003 0-0.004 0h-11.087c-0.001 0-0.003 0-0.004 0-0.8 0-1.449-0.649-1.449-1.449 0-0.001 0-0.003 0-0.004v0-13.087c0-0.806 0.648-1.453 1.453-1.453z"></path>
</svg>
