<!-- Generated by IcoMoon.io -->
<svg version="1.1" xmlns="http://www.w3.org/2000/svg" width="32" height="32" viewBox="0 0 32 32">
<title>colorimeter-colorhug</title>
<path d="M14.119 0.027c-0.908 0.099-1.767 0.443-2.499 1-0.976 0.743-1.624 1.909-1.624 3.374v10.621c0 0 0.471 1.014 1 1.014s1-1.014 1-1.014v-10.621c0-0.898 0.343-1.407 0.875-1.812s1.327-0.6 2.124-0.562c0.797 0.038 1.568 0.308 2.124 0.812s0.937 1.169 0.937 2.249c0 4.329 2.926 7.015 5.997 6.935 1.713-0.045 3.375-0.954 4.498-2.624l-1.125-1.999c-0.75 1.831-2.135 2.59-3.436 2.624-1.92 0.050-3.936-1.459-3.936-4.935 0-1.583-0.673-2.887-1.624-3.748s-2.161-1.254-3.374-1.312c-0.303-0.014-0.634-0.033-0.937 0zM27.988 4.026c0 0.091 0.002 0.161 0 0.25l1.562 2.749c0.023-0.082 0.042-0.167 0.062-0.25zM27.988 4.713c-0.012 0.212-0.040 0.428-0.062 0.625l1.437 2.436c0.047-0.125 0.083-0.245 0.125-0.375zM27.863 5.713c-0.028 0.18-0.089 0.333-0.125 0.5l1.312 2.249c0.059-0.122 0.134-0.247 0.187-0.375zM27.676 6.587c-0.047 0.178-0.131 0.338-0.187 0.5l1.187 2.062c0.080-0.13 0.176-0.236 0.25-0.375z"></path>
<path d="M5.452 12.022h11.087c0.803 0 1.453 0.651 1.453 1.453v13.086c0 0.803-0.651 1.453-1.453 1.453h-11.087c-0.803 0-1.453-0.651-1.453-1.453v-13.086c0-0.803 0.651-1.453 1.453-1.453z"></path>
</svg>
