<!-- Generated by IcoMoon.io -->
<svg version="1.1" xmlns="http://www.w3.org/2000/svg" width="32" height="32" viewBox="0 0 32 32">
<title>computer-fail</title>
<path d="M8.001 2c-3.325 0-6.001 2.676-6.001 6.001v12.002c0 3.325 2.676 6.001 6.001 6.001h16.002c3.325 0 6.001-2.676 6.001-6.001v-12.002c0-3.325-2.676-6.001-6.001-6.001zM12.002 8.001c1.116 0 2.062 0.946 2.062 2.062v1.938c0 1.116-0.946 2-2.062 2s-2-0.884-2-2v-1.938c0-1.116 0.884-2.062 2-2.062zM20.003 8.001c1.116 0 2 0.946 2 2.062v1.938c0 1.116-0.884 2-2 2s-2-0.884-2-2v-1.938c0-1.116 0.884-2.062 2-2.062zM16.002 16.064c6.513 0 10.002 1.748 10.002 2.812v1c-1.994-1.272-8.033-1.812-10.002-1.812s-7.611-0.124-10.002 1.812v-1c0-1.36 3.489-2.812 10.002-2.812zM16.002 28.004c-10.002 0-10.002 2-10.002 2 0 2 2 2 2 2h16.002c2 0 2-2 2-2s0-2-10.002-2z"></path>
</svg>
