<!-- Generated by IcoMoon.io -->
<svg version="1.1" xmlns="http://www.w3.org/2000/svg" width="32" height="32" viewBox="0 0 32 32">
<title>contact-new</title>
<path d="M12.006 3.996c-3.315 0-6.003 2.688-6.003 6.003s2.688 6.003 6.003 6.003v0c3.315 0 6.003-2.688 6.003-6.003s-2.688-6.003-6.003-6.003v0zM9.005 18.003c-0.006 0-0.013-0-0.020-0-4.962 0-8.985 4.023-8.985 8.985 0 0.007 0 0.014 0 0.021v-0.001 1.001c0 2.001 2.001 2.001 2.001 2.001h20.011s2.001 0 2.001-2.001v-1.001c0-0.006 0-0.013 0-0.020 0-4.962-4.023-8.985-8.985-8.985-0.007 0-0.014 0-0.021 0h0.001z"></path>
<path d="M24.025 2.001v3.996h-4.002v3.996h4.002v3.994h4.002v-3.994h4.002v-3.996h-4.002v-3.996z"></path>
</svg>
