<!-- Generated by IcoMoon.io -->
<svg version="1.1" xmlns="http://www.w3.org/2000/svg" width="32" height="32" viewBox="0 0 32 32">
<title>daytime-sunset</title>
<path d="M1 8.001h4.001c0.554 0 1-0.446 1-1v-2c0-0.554-0.446-1-1-1h-4.001c-0.554 0-1 0.446-1 1v2c0 0.554 0.446 1 1 1zM27.004 8.001h4.001c0.554 0 1-0.446 1-1v-2c0-0.554-0.446-1-1-1h-4.001c-0.554 0-1 0.446-1 1v2c0 0.554 0.446 1 1 1zM22.367 15.194l2.828 2.83c0.181 0.181 0.431 0.294 0.707 0.294s0.526-0.112 0.707-0.294l0-0 1.414-1.416c0.181-0.181 0.294-0.431 0.294-0.707s-0.112-0.526-0.294-0.707l-2.828-2.828c-0.181-0.181-0.431-0.294-0.707-0.294s-0.526 0.112-0.707 0.294l-1.414 1.414c-0.181 0.181-0.294 0.431-0.294 0.707s0.112 0.526 0.294 0.707l0 0zM18.003 17.003v8.001c0 0.554-0.446 1-1 1h-2c-0.001 0-0.001 0-0.002 0-0.551 0-0.998-0.447-0.998-0.998 0-0.001 0-0.001 0-0.002v0-8.001c0-0.554 0.446-1 1-1h2c0.554 0 1 0.446 1 1zM6.809 12.366l-2.83 2.828c-0.181 0.181-0.294 0.431-0.294 0.707s0.112 0.526 0.294 0.707l0 0 1.416 1.414c0.181 0.181 0.431 0.294 0.707 0.294s0.526-0.112 0.707-0.294l2.828-2.828c0.181-0.181 0.294-0.431 0.294-0.707s-0.112-0.526-0.294-0.707l-1.414-1.414c-0.181-0.181-0.431-0.294-0.707-0.294s-0.526 0.112-0.707 0.294l-0 0z"></path>
<path d="M16.002 14.002c-4.395 0-8.001-3.607-8.001-8.001 0-1.105 0.896-2 2-2v0h12.002c1.105 0 2 0.896 2 2v0c0 4.395-3.607 8.001-8.001 8.001zM16.002 10.002c1.446 0 2.478-0.872 3.18-2h-6.361c0.702 1.128 1.734 2 3.18 2zM13.416 22.589l-2.828 2.828 5.415 5.415 5.415-5.415-2.828-2.828-2.586 2.586z"></path>
<path d="M20.003 24.004v-2h2v2zM10.002 24.004v-2h2v2z"></path>
<path d="M10.002 24.004c0-1.108 0.892-2 2-2s2 0.892 2 2-0.892 2-2 2-2-0.892-2-2zM18.003 24.004c0-1.108 0.892-2 2-2s2 0.892 2 2-0.892 2-2 2-2-0.892-2-2zM10.002 6.001c0 3.314 2.687 6.001 6.001 6.001v0c3.314 0 6.001-2.687 6.001-6.001v0h-6.001z"></path>
</svg>
