<!-- Generated by IcoMoon.io -->
<svg version="1.1" xmlns="http://www.w3.org/2000/svg" width="32" height="32" viewBox="0 0 32 32">
<title>dialog-information</title>
<path d="M16.002 0c-5.501 0-10.002 4.501-10.002 10.002 0 3.176 1.684 5.805 4.001 7.621v6.381h12.002v-6.381c2.316-1.816 4.001-4.445 4.001-7.621 0-5.501-4.501-10.002-10.002-10.002zM16.002 4.001c3.338 0 6.001 2.662 6.001 6.001 0 2.232-1.194 4.097-3.004 5.145l-0.996 0.58v4.277h-4.001v-4.279l-0.996-0.578c-1.81-1.048-3.004-2.912-3.004-5.145 0-3.338 2.664-6.001 6.001-6.001zM12.002 30.005v2h8.001v-2zM10.002 26.004v2h12.002v-2z"></path>
<path d="M14.002 10.002v2h4.001v-2z"></path>
</svg>
