<!-- Generated by IcoMoon.io -->
<svg version="1.1" xmlns="http://www.w3.org/2000/svg" width="32" height="32" viewBox="0 0 32 32">
<title>dialog-question</title>
<path d="M16.002 0.063c-0.8 0-1.631 0.318-2.25 0.938l-12.752 12.752c-1.239 1.239-1.239 3.262 0 4.501l12.752 12.752c1.239 1.239 3.262 1.239 4.501 0l12.752-12.752c1.239-1.239 1.239-3.262 0-4.501l-12.752-12.752c-0.619-0.619-1.45-0.938-2.25-0.938zM15.627 6.001c3.285-0.184 6.192 2.341 6.376 5.626-0 2.803-0.756 3.844-3.188 5.688-0.382 0.287-0.651 0.501-0.75 0.625s-0.063 0.067-0.063 0.063c0.014 1.057-0.943 2-2 2s-2.014-0.944-2-2c0-1.005 0.449-1.887 0.938-2.5s0.983-1.033 1.438-1.375c0.408-0.321 0.922-0.769 1.375-1.313 0.187-0.224 0.258-0.615 0.25-0.875v-0.063c-0.063-1.127-0.999-1.938-2.125-1.875s-1.938 0.874-1.875 2h-4.001c-0.184-3.285 2.341-5.817 5.626-6.001zM16.002 22.003c1.105 0 2 0.896 2 2s-0.896 2-2 2c-1.105 0-2-0.896-2-2s0.896-2 2-2z"></path>
</svg>
