<!-- Generated by IcoMoon.io -->
<svg version="1.1" xmlns="http://www.w3.org/2000/svg" width="32" height="32" viewBox="0 0 32 32">
<title>dialog-warning</title>
<path d="M15.814 0.188c-1.050-0.058-2.076 0.566-2.874 1.938l-12.502 23.187c-1.068 1.93 0.096 4.691 2.188 4.691h26.316c1.964 0 3.807-2.32 2.438-4.689l-12.628-23.065c-0.798-1.292-1.886-2.006-2.938-2.062zM15.942 8.061c1.088-0.034 2.096 0.974 2.062 2.064v7.877c0.014 1.056-0.942 2-2 2-1.056 0-2.014-0.944-2-2v-7.877c0.009-0.978 0.696-1.792 1.612-1.998l0.014-0.003c0.1-0.028 0.206-0.048 0.312-0.060zM16.002 22.003c1.105 0 2 0.896 2 2s-0.896 2-2 2v0c-1.105 0-2-0.896-2-2s0.896-2 2-2v0z"></path>
</svg>
