<!-- Generated by IcoMoon.io -->
<svg version="1.1" xmlns="http://www.w3.org/2000/svg" width="32" height="32" viewBox="0 0 32 32">
<title>dialog-question</title>
<path d="M16.002 0.062c-0.8 0-1.632 0.32-2.25 0.938l-12.752 12.752c-1.24 1.24-1.24 3.26 0 4.501l12.752 12.752c1.24 1.24 3.261 1.24 4.501 0l12.752-12.752c1.24-1.24 1.24-3.261 0-4.501l-12.752-12.752c-0.577-0.576-1.371-0.933-2.249-0.938h-0.001zM15.626 6.001c3.287-0.184 6.193 2.34 6.377 5.627 0 2.8-0.756 3.843-3.188 5.687-0.38 0.288-0.652 0.5-0.75 0.626-0.1 0.122-0.062 0.066-0.062 0.062 0.014 1.056-0.944 2-2 2-1.058 0-2.014-0.944-2-2 0-1.004 0.448-1.886 0.938-2.5 0.42-0.521 0.892-0.974 1.416-1.362l0.021-0.015c0.408-0.32 0.922-0.768 1.376-1.312 0.186-0.224 0.258-0.614 0.25-0.874v-0.062c-0.052-1.050-0.916-1.882-1.974-1.882-0.054 0-0.107 0.002-0.159 0.006l0.007-0c-1.126 0.064-1.938 0.874-1.874 2h-4.001c-0.184-3.284 2.34-5.817 5.625-6.001zM16.002 22.003c1.105 0 2 0.896 2 2s-0.896 2-2 2v0c-1.105 0-2-0.896-2-2s0.896-2 2-2v0z"></path>
</svg>
