<!-- Generated by IcoMoon.io -->
<svg version="1.1" xmlns="http://www.w3.org/2000/svg" width="32" height="32" viewBox="0 0 32 32">
<title>display-projector</title>
<path d="M1.996 10.002c-1.106 0-1.996 1.046-1.996 2.312v9.127c0 1.266 0.832 2.562 1.938 2.562h2c0 1.266 0.948 2 2.054 2h1.992c1.106 0 1.954-0.734 1.954-2h11.978c0 1.266 0.934 2 2.040 2h1.988c1.104 0 1.996-0.734 1.996-2h2.004c1.104 0 1.996-1.296 1.996-2.562v-9.127c0-1.266-0.892-2.312-1.996-2.312zM2.996 12.386c0.55 0 0.996 1.854 0.996 4.617 0 2.76-0.446 4.477-0.998 4.477s-0.998-1.714-0.998-4.477c0-2.76 0.446-4.617 1-4.617zM6.987 12.386c0.552 0 1 2.24 1 5.001s-0.52 4.081-1.070 4.081-0.928-1.702-0.928-4.465c0-2.76 0.448-4.617 1-4.617zM10.91 12.386c0.552 0 1.068 1.854 1.068 4.617 0 2.76-0.446 4.467-0.998 4.467-0.55 0-0.998-1.704-0.998-4.467 0-2.76 0.378-4.617 0.928-4.617zM24.954 12.002c2.758 0.002 4.993 2.239 4.993 4.997 0 0.001 0 0.003 0 0.004v-0c0 2.76-2.236 5.001-4.993 5.001-2.757-0.003-4.991-2.239-4.991-4.997 0-0.001 0-0.003 0-0.004v0c0-2.76 2.234-5.001 4.991-5.001z"></path>
<path d="M27.942 17.003c0 1.657-1.343 3-3 3v0c-1.657 0-3-1.343-3-3v0c0-1.657 1.343-3 3-3v0c1.657 0 3 1.343 3 3v0z"></path>
</svg>
