<!-- Generated by IcoMoon.io -->
<svg version="1.1" xmlns="http://www.w3.org/2000/svg" width="32" height="32" viewBox="0 0 32 32">
<title>display-brightness</title>
<path d="M1 14.002h4.001c0.554 0 1 0.446 1 1v2c0 0.554-0.446 1-1 1h-4.001c-0.001 0-0.001 0-0.002 0-0.551 0-0.998-0.447-0.998-0.998 0-0.001 0-0.001 0-0.002v0-2c0-0.554 0.446-1 1-1zM27.004 14.002h4.001c0.554 0 1 0.446 1 1v2c0 0.554-0.446 1-1 1h-4.001c-0.001 0-0.001 0-0.002 0-0.551 0-0.998-0.447-0.998-0.998 0-0.001 0-0.001 0-0.002v0-2c0-0.554 0.446-1 1-1zM3.981 25.196l2.828-2.828c0.181-0.181 0.431-0.294 0.707-0.294s0.526 0.112 0.707 0.294l1.414 1.414c0.181 0.181 0.294 0.431 0.294 0.707s-0.112 0.526-0.294 0.707l-2.828 2.828c-0.181 0.181-0.431 0.294-0.707 0.294s-0.526-0.112-0.707-0.294l-1.414-1.414c-0.181-0.181-0.294-0.431-0.294-0.707s0.112-0.526 0.294-0.707l0-0zM22.367 6.809l2.828-2.83c0.181-0.181 0.431-0.294 0.707-0.294s0.526 0.112 0.707 0.294l0 0 1.414 1.416c0.181 0.181 0.294 0.431 0.294 0.707s-0.112 0.526-0.294 0.707l-2.828 2.828c-0.181 0.181-0.431 0.294-0.707 0.294s-0.526-0.112-0.707-0.294l-1.414-1.414c-0.181-0.181-0.294-0.431-0.294-0.707s0.112-0.526 0.294-0.707l0-0zM14.002 31.005v-4.001c0-0.554 0.446-1 1-1h2c0.554 0 1 0.446 1 1v4.001c0 0.554-0.446 1-1 1h-2c-0.001 0-0.001 0-0.002 0-0.551 0-0.998-0.447-0.998-0.998 0-0.001 0-0.001 0-0.002v0zM14.002 5.001v-4.001c0-0.554 0.446-1 1-1h2c0.554 0 1 0.446 1 1v4.001c0 0.554-0.446 1-1 1h-2c-0.001 0-0.001 0-0.002 0-0.551 0-0.998-0.447-0.998-0.998 0-0.001 0-0.001 0-0.002v0zM25.196 28.024l-2.828-2.828c-0.181-0.181-0.294-0.431-0.294-0.707s0.112-0.526 0.294-0.707l1.414-1.414c0.181-0.181 0.431-0.294 0.707-0.294s0.526 0.112 0.707 0.294l2.828 2.828c0.181 0.181 0.294 0.431 0.294 0.707s-0.112 0.526-0.294 0.707l-1.414 1.414c-0.181 0.181-0.431 0.294-0.707 0.294s-0.526-0.112-0.707-0.294l-0-0zM6.809 9.637l-2.83-2.828c-0.181-0.181-0.294-0.431-0.294-0.707s0.112-0.526 0.294-0.707l0-0 1.416-1.414c0.181-0.181 0.431-0.294 0.707-0.294s0.526 0.112 0.707 0.294l2.828 2.828c0.181 0.181 0.294 0.431 0.294 0.707s-0.112 0.526-0.294 0.707l-1.414 1.414c-0.181 0.181-0.431 0.294-0.707 0.294s-0.526-0.112-0.707-0.294l-0-0z"></path>
<path d="M16.002 8.001c-4.395 0-8.001 3.607-8.001 8.001s3.607 8.001 8.001 8.001 8.001-3.607 8.001-8.001-3.607-8.001-8.001-8.001zM16.002 12.002c2.234 0 4.001 1.768 4.001 4.001s-1.766 4.001-4.001 4.001c-2.232 0-4.001-1.768-4.001-4.001s1.768-4.001 4.001-4.001z"></path>
</svg>
