<!-- Generated by IcoMoon.io -->
<svg version="1.1" xmlns="http://www.w3.org/2000/svg" width="32" height="32" viewBox="0 0 32 32">
<title>document-send</title>
<path d="M18.003 20.003c0 1.108 0.892 2 2 2s2-0.892 2-2-0.892-2-2-2-2 0.892-2 2zM10.002 20.003c0 1.108 0.892 2 2 2s2-0.892 2-2-0.892-2-2-2-2 0.892-2 2z"></path>
<path d="M6.001 2c-1.105 0-2 0.896-2 2v0 26.004c0 1.105 0.896 2 2 2v0h4.001c1.105 0 2-0.896 2-2s-0.896-2-2-2v0h-2v-22.003h11.174l4.829 4.829v17.175h-6.001v-8.001c0-1.105-0.896-2-2-2s-2 0.896-2 2v0 10.002c0 1.105 0.896 2 2 2v0h10.002c1.105 0 2-0.896 2-2v0-20.003c-0-0.552-0.224-1.052-0.586-1.414l-6.001-6.001c-0.362-0.362-0.862-0.586-1.414-0.586h-0z"></path>
<path d="M16.002 13.174l-5.415 5.415 2.828 2.828 2.586-2.586 2.586 2.586 2.828-2.828z"></path>
<path d="M20.003 20.003v2h2v-2zM10.002 20.003v2h2v-2z"></path>
</svg>
