<!-- Generated by IcoMoon.io -->
<svg version="1.1" xmlns="http://www.w3.org/2000/svg" width="32" height="32" viewBox="0 0 32 32">
<title>document-properties</title>
<path d="M13.986 27.983h-5.934v-21.987h9.12l6.808 6.808v11.15l3.998 6.028v-18.052c-0.004-0.537-0.235-1.068-0.625-1.437l-7.933-7.87c-0.369-0.39-0.9-0.621-1.437-0.625h-11.93c-1.047 0-1.999 0.952-1.999 1.999v25.922c0 1.047 0.952 1.999 1.999 1.999h10.025z"></path>
<path d="M18.024 15.716c-0.649-0.118-1.333-0.091-1.987-0.006l1.951 3.455c0.402 0.71-0.047 1.525-0.9 2.017l-1.539 0.889c-0.861 0.478-1.819 0.415-2.22-0.295l-1.95-3.456c-0.413 0.512-0.792 1.080-1.028 1.694-1.13 2.939 0.473 5.78 3.581 6.345 0.649 0.118 1.333 0.091 1.987 0.006 0.053-0.008 3.035 5.527 3.035 5.527l7.005 0.124-5.331-8.254c0.413-0.512 0.741-1.087 0.977-1.701 1.13-2.939-0.473-5.78-3.581-6.344z"></path>
</svg>
