<!-- Generated by IcoMoon.io -->
<svg version="1.1" xmlns="http://www.w3.org/2000/svg" width="32" height="32" viewBox="0 0 32 32">
<title>document-new</title>
<path d="M5.875 2c-1.104 0-2 0.895-2 2v0 26c0 1.105 0.895 2 2 2h8c0.008 0 0.018 0 0.028 0 1.105 0 2-0.895 2-2s-0.896-2-2-2c-0.010 0-0.020 0-0.030 0l0.002-0h-6v-22h11.172l4.828 4.828v5.172c-0 0.008-0 0.018-0 0.028 0 1.105 0.895 2 2 2s2-0.895 2-2c0-0.010-0-0.020-0-0.030l0 0.002v-6c-0-0.552-0.224-1.052-0.586-1.414l-6-6c-0.362-0.362-0.862-0.586-1.414-0.586h-0z"></path>
<path d="M21.875 20.006v3.993h-4v3.993h4v3.993h4v-3.993h4v-3.993h-4v-3.993z"></path>
</svg>
