<!-- Generated by IcoMoon.io -->
<svg version="1.1" xmlns="http://www.w3.org/2000/svg" width="32" height="32" viewBox="0 0 32 32">
<title>document-page-setup</title>
<path d="M4.001 12.002v14.002h24.044zM8.002 18.11l6.232 3.956h-6.232z"></path>
<path d="M6.033 2.029c-1.047 0-2 0.953-2 2v5.126l4.001 2.375v-5.501h9.126l6.814 6.814v7.251l4.001 2.375v-10.502c-0.004-0.537-0.235-1.069-0.625-1.438l-7.939-7.876c-0.369-0.39-0.901-0.621-1.438-0.625zM4.033 28.033v1.938c0 1.047 0.953 2 2 2h19.941c1.047-0 2-0.953 2-2v-1.938z"></path>
</svg>
