<!-- Generated by IcoMoon.io -->
<svg version="1.1" xmlns="http://www.w3.org/2000/svg" width="32" height="32" viewBox="0 0 32 32">
<title>document-open</title>
<path d="M1.97 5.973c-1.092 0.017-1.97 0.906-1.97 2 0 0.010 0 0.020 0 0.030l-0-0.002v18.003s-0.028 0.918 0.46 1.894c0.492 0.978 1.876 2.106 3.541 2.106h3.665c0.098 0.017 0.211 0.027 0.326 0.027s0.228-0.010 0.338-0.028l-0.012 0.002h19.687s0.918 0.028 1.894-0.46c0.978-0.49 2.106-1.874 2.106-3.541v-6.001c0-1.105-0.896-2-2-2v0h-22.003c-1.105 0-2 0.896-2 2v0 6.001h-2v-18.003c0-0.008 0-0.018 0-0.028 0-1.105-0.896-2-2-2-0.011 0-0.021 0-0.032 0l0.002-0zM10.002 22.003h18.003v4.001h-18.003z"></path>
<path d="M8.001 22.003h22.003v6.001h-22.003zM30.005 20.003h2v2h-2zM6.001 18.003h2v2h-2zM2 6.001h4.001v10.002h-4.001z"></path>
<path d="M10.002 0c-1.105 0-2 0.896-2 2v0 14.002h4.001v-12.002h8.173l5.829 5.829v6.173h4.001v-7.001c-0-0.552-0.224-1.052-0.586-1.414l-7.001-7.001c-0.362-0.362-0.862-0.586-1.414-0.586h-0z"></path>
<path d="M20.003 2v8.001h8.001z"></path>
<path d="M30.005 18.003h2v2h-2z"></path>
</svg>
