<!-- Generated by IcoMoon.io -->
<svg version="1.1" xmlns="http://www.w3.org/2000/svg" width="32" height="32" viewBox="0 0 32 32">
<title>document-revert</title>
<path d="M6 2c-1.105 0-2 0.895-2 2v0 26c0 1.105 0.895 2 2 2h20c1.105-0 2-0.895 2-2v0-8c0-2.667-1.628-4.551-3.105-5.289s-2.895-0.711-2.895-0.711h-3.172l0.566-0.566c0.006-0.006 0.014-0.012 0.020-0.020 0.374-0.374 0.585-0.883 0.585-1.414v-2h-2c-0.53 0-1.039 0.211-1.414 0.586l-5.414 5.414 5.395 5.395c0.377 0.387 0.894 0.605 1.434 0.605h2v-2c-0-0.53-0.211-1.039-0.586-1.414l-0.586-0.586h3.172c0 0 0.582 0.028 1.105 0.289s0.895 0.378 0.895 1.711v6h-16v-22h11.172l4.828 4.828v1.172c-0 0.008-0 0.018-0 0.028 0 1.105 0.896 2 2 2s2-0.896 2-2c0-0.010-0-0.020-0-0.030l0 0.002v-2c-0-0.552-0.224-1.052-0.586-1.414l-6-6c-0.362-0.362-0.862-0.586-1.414-0.586h-0z"></path>
</svg>
