<!-- Generated by IcoMoon.io -->
<svg version="1.1" xmlns="http://www.w3.org/2000/svg" width="32" height="32" viewBox="0 0 32 32">
<title>document-send</title>
<path d="M5.875 2c-1.104 0-2 0.895-2 2v0 26c0 1.105 0.895 2 2 2h4c0.008 0 0.018 0 0.028 0 1.105 0 2-0.895 2-2s-0.896-2-2-2c-0.010 0-0.020 0-0.030 0l0.002-0h-2v-22h11.172l4.828 4.828v17.172h-6v-7.172l0.586 0.586c0.375 0.375 0.884 0.586 1.414 0.586h2v-2c0-0.54-0.218-1.057-0.605-1.434l-5.395-5.395-5.414 5.414c-0.375 0.375-0.586 0.884-0.586 1.414v2h2c0.53-0 1.040-0.211 1.414-0.586 0.008-0.006 0.014-0.014 0.020-0.020l0.566-0.566v9.172c0 1.105 0.895 2 2 2h10c1.105-0 2-0.895 2-2v0-20c-0-0.552-0.224-1.052-0.586-1.414l-6-6c-0.362-0.362-0.862-0.586-1.414-0.586h-0z"></path>
</svg>
