<!-- Generated by IcoMoon.io -->
<svg version="1.1" xmlns="http://www.w3.org/2000/svg" width="32" height="32" viewBox="0 0 32 32">
<title>document-revert-rtl</title>
<path d="M5.875 2c-1.105 0-2 0.895-2 2v0 8c-0 0.008-0 0.018-0 0.028 0 1.105 0.896 2 2 2s2-0.896 2-2c0-0.010-0-0.020-0-0.030l0 0.002v-6h11.172l4.828 4.828v17.172h-16v-6c0-1.333 0.372-1.449 0.895-1.711s1.105-0.289 1.105-0.289h3.172l-0.586 0.586c-0.375 0.375-0.586 0.884-0.586 1.414v2h2c0.54 0 1.057-0.218 1.434-0.605l5.395-5.395-5.414-5.414c-0.375-0.375-0.884-0.586-1.414-0.586h-2v2c0 0.53 0.211 1.040 0.586 1.414 0.006 0.008 0.014 0.014 0.020 0.020l0.566 0.566h-3.172c0 0-1.418-0.028-2.895 0.711s-3.105 2.622-3.105 5.289v8c0 1.105 0.895 2 2 2h20c1.105-0 2-0.895 2-2v0-20c-0-0.552-0.224-1.052-0.586-1.414l-6-6c-0.362-0.362-0.862-0.586-1.414-0.586h-0z"></path>
</svg>
