<!-- Generated by IcoMoon.io -->
<svg version="1.1" xmlns="http://www.w3.org/2000/svg" width="32" height="32" viewBox="0 0 32 32">
<title>document-page-setup</title>
<path d="M6.001 2c-1.105 0-2 0.896-2 2v0 4.001c0 1.105 0.896 2 2 2s2-0.896 2-2v0-2h11.174l4.829 4.829v9.173c0 1.105 0.896 2 2 2s2-0.896 2-2v0-10.002c-0-0.552-0.224-1.052-0.586-1.414l-6.001-6.001c-0.362-0.362-0.862-0.586-1.414-0.586h-0zM6.001 28.004c-1.105 0-2 0.896-2 2s0.896 2 2 2v0h20.003c1.105 0 2-0.896 2-2s-0.896-2-2-2v0zM4.001 11.47v14.534h24.224zM8.001 18.535l5.781 3.469h-5.781z"></path>
<path d="M4.001 28.004h2v2h-2zM26.004 28.004h2v2h-2z"></path>
</svg>
