<!-- Generated by IcoMoon.io -->
<svg version="1.1" xmlns="http://www.w3.org/2000/svg" width="32" height="32" viewBox="0 0 32 32">
<title>drive-harddisk</title>
<path d="M6.001 2.070c-2 0-2 2-2 2v24.004s0 2 2 2h20.003s2 0 2-2v-24.004s0-2-2-2zM16.002 6.071c4.419 0 8.001 3.582 8.001 8.001s-3.582 8.001-8.001 8.001v0h-8.001v-8.001c0-4.419 3.582-8.001 8.001-8.001v0zM16.002 10.072c-2.209 0-4.001 1.791-4.001 4.001s1.791 4.001 4.001 4.001v0c2.209 0 4.001-1.791 4.001-4.001s-1.791-4.001-4.001-4.001v0z"></path>
</svg>
