<!-- Generated by IcoMoon.io -->
<svg version="1.1" xmlns="http://www.w3.org/2000/svg" width="32" height="32" viewBox="0 0 32 32">
<title>drive-harddisk-system</title>
<path d="M6.395 0c-2.421 0.022-4.377 1.981-4.395 4.401v23.203c0 2.398 1.99 4.401 4.395 4.401h19.217c2.421-0.021 4.377-1.981 4.393-4.401v-23.203c0-2.398-1.988-4.401-4.393-4.401zM6.395 4.001h19.217c0.248 0 0.392 0.14 0.392 0.402v23.201c0 0.26-0.144 0.402-0.392 0.402h-19.217c-0.248-0.002-0.394-0.142-0.394-0.404v-23.201c0-0.26 0.146-0.402 0.394-0.402z"></path>
<path d="M15.69 6.001c-0.532 0.020-1.090 0.118-1.626 0.25-3.504 0.894-6.053 4.022-6.053 7.745 0 0.691 0.088 1.361 0.253 2l-0.012-0.055c0.89 3.503 4.016 6.053 7.737 6.053 0.356 0 0.707-0.023 1.051-0.069l-0.040 0.004-0.776-5.961c-0.066 0.021-0.141 0.033-0.22 0.034h-0c-1.105 0-2-0.896-2-2s0.896-2 2-2c1.105 0 2 0.896 2 2v0c-0.003 0.236-0.056 0.459-0.15 0.66l0.004-0.010 5.403 2.774c0.772-1.66 0.94-3.561 0.494-5.361-0.883-3.512-4.014-6.071-7.742-6.071-0.113 0-0.226 0.002-0.338 0.007l0.016-0.001z"></path>
<path d="M17.325 16.002l2.678 8.001c1.468 4.113 6.001 0.768 2.994-2z"></path>
</svg>
