<!-- Generated by IcoMoon.io -->
<svg version="1.1" xmlns="http://www.w3.org/2000/svg" width="28" height="32" viewBox="0 0 28 32">
<title>drive-harddisk-system</title>
<path d="M4.399 0c-2.404 0-4.391 2.003-4.391 4.403v23.199c0 2.4 1.988 4.403 4.391 4.403h19.222c2.404 0 4.391-2.003 4.391-4.403v-23.199c0-2.4-1.988-4.403-4.391-4.403h-19.222zM4.399 4.001h19.222c0.248 0 0.391 0.141 0.391 0.402v23.199c0 0.262-0.143 0.402-0.391 0.402h-19.222c-0.248 0-0.391-0.141-0.391-0.402v-23.199c0-0.262 0.143-0.402 0.391-0.402z"></path>
<path d="M13.697 6.001c-0.531 0.022-1.089 0.117-1.625 0.25-4.289 1.062-6.875 5.399-5.813 9.689 0.9 3.635 4.151 6.046 7.733 6.052 0.336 0.001 0.675-0.020 1.016-0.063l-0.778-5.96c-0.069 0.020-0.141 0.034-0.219 0.034-1.105 0-2-0.895-2-2s0.895-2 2-2c1.105 0 2 0.895 2 2 0 0.235-0.057 0.45-0.145 0.65l5.402 2.774c0.772-1.661 0.94-3.562 0.494-5.362-0.929-3.753-4.345-6.215-8.064-6.063z"></path>
<path d="M15.332 16.002l2.678 8.001c1.469 4.113 6.001 0.769 2.994-2z"></path>
</svg>
