<!-- Generated by IcoMoon.io -->
<svg version="1.1" xmlns="http://www.w3.org/2000/svg" width="32" height="32" viewBox="0 0 32 32">
<title>drive-multidisk</title>
<path d="M6.393 0c-2.421 0.021-4.377 1.981-4.393 4.401v15.202c0 2.398 1.988 4.401 4.393 4.401h13.22c2.42-0.023 4.375-1.982 4.391-4.401v-15.202c0-2.398-1.988-4.401-4.391-4.401zM13.002 4.001c3.843 0 7.001 3.158 7.001 7.001s-3.158 7.001-7.001 7.001h-7.013l0.012-7.001c-0.046-3.843 3.16-7.001 7.001-7.001zM13.002 8.001c-1.68 0-3 1.32-3 3s1.32 3 3 3 3-1.32 3-3-1.32-3-3-3z"></path>
<path d="M26.004 8.001v19.629c0 0.26-0.128 0.374-0.374 0.374h-13.252c-0.248 0-0.376-0.114-0.376-0.376v-1.624h-4.001v1.626c0 2.398 1.972 4.375 4.377 4.375h13.252c2.412-0.011 4.364-1.964 4.375-4.376v-15.249c0-2.272-1.772-4.181-4.001-4.377z"></path>
</svg>
