<!-- Generated by IcoMoon.io -->
<svg version="1.1" xmlns="http://www.w3.org/2000/svg" width="32" height="32" viewBox="0 0 32 32">
<title>edit-find-replace</title>
<path d="M11.002 0c-6.051 0-11.002 4.957-11.002 11.002 0 3.999 2.18 7.501 5.401 9.421l2.726-3.046c-2.451-1.106-4.127-3.528-4.127-6.342 0-0.011 0-0.023 0-0.034v0.002c0-3.883 3.112-7.001 7.001-7.001 0.013-0 0.027-0 0.042-0 2.745 0 5.119 1.589 6.253 3.898l0.018 0.041 2.938-2.938c-2.008-3.027-5.399-4.996-9.251-5.001h-0.001zM20.815 17.941l-2.812 2.812 6.563 6.627c0.736 0.752 2.092 0.768 2.844 0.030 0.754-0.736 0.768-2.090 0.032-2.844z"></path>
<path d="M6.005 22.003l17.999-18.003c2 0 4.001 2 4.001 4.001l-18.003 18.003h-4.001z"></path>
<path d="M26.004 2c2 0 4.001 2 4.001 4.001l2-2c0-2-1.504-4.001-4.001-4.001z"></path>
</svg>
