<!-- Generated by IcoMoon.io -->
<svg version="1.1" xmlns="http://www.w3.org/2000/svg" width="32" height="32" viewBox="0 0 32 32">
<title>edit-cut</title>
<path d="M9.001 4.015c-2.762 0-5.001 2.239-5.001 5.001s2.239 5.001 5.001 5.001v0c0.892 0 1.712-0.28 2.436-0.688l3.941 3.689-3.941 3.687c-0.697-0.418-1.536-0.671-2.432-0.686l-0.004-0c-2.762 0-5.001 2.239-5.001 5.001s2.239 5.001 5.001 5.001c2.762 0 5.001-2.239 5.001-5.001v0c0-0.46-0.072-0.892-0.188-1.314l4.249-4.125 8.939 8.439h3.002v-2l-16.19-15.69c0.116-0.392 0.185-0.844 0.188-1.31v-0.002c0-2.762-2.239-5.001-5.001-5.001v0zM9.001 7.015c1.105 0 2 0.896 2 2s-0.896 2-2 2v0c-1.105 0-2-0.896-2-2s0.896-2 2-2v0zM27.004 6.015l-7.877 7.437 2.626 2.564 8.251-8.001v-2zM9.001 23.017c1.105 0 2 0.896 2 2s-0.896 2-2 2v0c-1.105 0-2-0.896-2-2s0.896-2 2-2v0z"></path>
</svg>
