<!-- Generated by IcoMoon.io -->
<svg version="1.1" xmlns="http://www.w3.org/2000/svg" width="32" height="32" viewBox="0 0 32 32">
<title>edit-select-all</title>
<path d="M2.004 2.001h2.004v2.004h-2.004v-2.004z"></path>
<path d="M6.011 2.001h2.004v2.004h-2.004v-2.004z"></path>
<path d="M10.018 2.001h2.004v2.004h-2.004v-2.004z"></path>
<path d="M14.025 2.001h2.004v2.004h-2.004v-2.004z"></path>
<path d="M18.032 2.001h2.004v2.004h-2.004v-2.004z"></path>
<path d="M22.039 2.001h2.004v2.004h-2.004v-2.004z"></path>
<path d="M26.047 2.001h2.004v2.004h-2.004v-2.004z"></path>
<path d="M26.047 6.009h2.004v2.004h-2.004v-2.004z"></path>
<path d="M26.047 10.016h2.004v2.004h-2.004v-2.004z"></path>
<path d="M26.047 14.023h2.004v2.004h-2.004v-2.004z"></path>
<path d="M26.047 18.030h2.004v2.004h-2.004v-2.004z"></path>
<path d="M26.047 22.037h2.004v2.004h-2.004v-2.004z"></path>
<path d="M26.047 26.044h2.004v2.004h-2.004v-2.004z"></path>
<path d="M22.039 26.044h2.004v2.004h-2.004v-2.004z"></path>
<path d="M18.032 26.044h2.004v2.004h-2.004v-2.004z"></path>
<path d="M14.025 26.044h2.004v2.004h-2.004v-2.004z"></path>
<path d="M10.018 26.044h2.004v2.004h-2.004v-2.004z"></path>
<path d="M6.011 26.044h2.004v2.004h-2.004v-2.004z"></path>
<path d="M2.004 26.044h2.004v2.004h-2.004v-2.004z"></path>
<path d="M2.004 22.037h2.004v2.004h-2.004v-2.004z"></path>
<path d="M2.004 18.030h2.004v2.004h-2.004v-2.004z"></path>
<path d="M2.004 14.023h2.004v2.004h-2.004v-2.004z"></path>
<path d="M2.004 10.016h2.004v2.004h-2.004v-2.004z"></path>
<path d="M2.004 6.009h2.004v2.004h-2.004v-2.004z"></path>
<path d="M6.011 16.236h8.014v8.014h-8.014v-8.014z"></path>
<path d="M16.029 16.236h8.014v8.014h-8.014v-8.014z"></path>
<path d="M6.011 6.009h18.032v8.014h-18.032v-8.014z"></path>
</svg>
