<!-- Generated by IcoMoon.io -->
<svg version="1.1" xmlns="http://www.w3.org/2000/svg" width="32" height="32" viewBox="0 0 32 32">
<title>edit-cut</title>
<path d="M6.997 17.989c-3.84 0-6.996 3.156-6.996 6.996s3.156 6.996 6.996 6.996c3.84 0 6.996-3.156 6.996-6.996s-3.156-6.996-6.996-6.996zM6.997 21.987c1.68 0 2.998 1.319 2.998 2.998s-1.319 2.998-2.998 2.998c-1.68 0-2.998-1.319-2.998-2.998s1.319-2.998 2.998-2.998z"></path>
<path d="M24.986 17.989c-3.84 0-6.996 3.156-6.996 6.996s3.156 6.996 6.996 6.996c3.84 0 6.996-3.156 6.996-6.996s-3.156-6.996-6.996-6.996zM24.986 21.987c1.68 0 2.998 1.319 2.998 2.998s-1.319 2.998-2.998 2.998c-1.68 0-2.998-1.319-2.998-2.998s1.319-2.998 2.998-2.998z"></path>
<path d="M6.19 0c-2.12 1.107-2.811 3.516-1.588 5.434l8.835 14.554-3.49 4.733 2.826 4.168 3.218-4.966 3.156 4.966 2.801-3.991-3.402-4.91 8.835-14.554c1.224-1.918 0.532-4.327-1.588-5.434l-9.802 15.99-9.802-15.99z"></path>
</svg>
