<!-- Generated by IcoMoon.io -->
<svg version="1.1" xmlns="http://www.w3.org/2000/svg" width="32" height="32" viewBox="0 0 32 32">
<title>edit-paste</title>
<path d="M8.062 10.065v13.937h10l3.982-3.974-0.044-9.963-13.937-0z"></path>
<path d="M11.060 0.003h8.003c0.586 0 1.061 0.475 1.061 1.061v5.878c0 0.586-0.475 1.061-1.061 1.061h-8.003c-0.586 0-1.061-0.475-1.061-1.061v-5.878c0-0.586 0.475-1.061 1.061-1.061z"></path>
<path d="M5 2.003c-0.586 0-1.293 0.072-2 0.625s-1.062 1.537-1.062 2.25v24.062c0 0.768 0.255 1.63 0.875 2.25 0.571 0.571 1.418 0.772 2.187 0.75v0.063h19.937c0.726 0 1.52-0.256 2.125-0.812s0.937-1.421 0.937-2.25v-24.187c0-0.667-0.238-1.459-0.812-2s-1.338-0.75-1.937-0.75h-3.312v4h2.062v21.999h-18.062v-21.999h1.937v-4h-2.875z"></path>
</svg>
