<!-- Generated by IcoMoon.io -->
<svg version="1.1" xmlns="http://www.w3.org/2000/svg" width="32" height="32" viewBox="0 0 32 32">
<title>edit-clear</title>
<path d="M12.002 4.001l-12.002 12.002 12.002 12.002h18.073c1.062-0.069 1.9-0.932 1.93-1.997l0-0.003v-20.003c0-1.060-0.692-2-2.018-2zM14.002 10.002h2.062c0.51 0.022 1.020 0.258 1.376 0.626l2.562 2.56 2.626-2.56c0.53-0.462 0.892-0.612 1.374-0.626h2v2c0 0.572-0.068 1.1-0.5 1.5l-2.562 2.562 2.5 2.5c0.376 0.376 0.562 0.908 0.562 1.438v2h-2c-0.53 0-1.060-0.186-1.438-0.562l-2.562-2.562-2.562 2.56c-0.364 0.349-0.859 0.564-1.405 0.564-0.012 0-0.024-0-0.035-0l0.002 0h-2v-2c0-0.53 0.186-1.060 0.562-1.438l2.564-2.5-2.566-2.562c-0.351-0.332-0.569-0.801-0.569-1.321 0-0.063 0.003-0.125 0.009-0.187l-0.001 0.008z"></path>
</svg>
