<!-- Generated by IcoMoon.io -->
<svg version="1.1" xmlns="http://www.w3.org/2000/svg" width="32" height="32" viewBox="0 0 32 32">
<title>edit-select</title>
<path d="M4 10.002v2c0 0.514 0.26 1.057 0.625 1.438l2.563 2.563-2.563 2.563c-0.365 0.381-0.625 0.924-0.625 1.438v2h2c0.619 0 1.105-0.181 1.5-0.563l5.313-5.438-5.313-5.438c-0.395-0.382-0.881-0.563-1.5-0.563h-2z"></path>
<path d="M28.004 10.002v2c0 0.514-0.26 1.057-0.625 1.438l-2.563 2.563 2.563 2.563c0.365 0.381 0.625 0.924 0.625 1.438v2h-2c-0.619 0-1.105-0.181-1.5-0.563l-5.313-5.438 5.313-5.438c0.395-0.382 0.881-0.563 1.5-0.563h2z"></path>
</svg>
