<!-- Generated by IcoMoon.io -->
<svg version="1.1" xmlns="http://www.w3.org/2000/svg" width="32" height="32" viewBox="0 0 32 32">
<title>edit-select-all</title>
<path d="M2.004 2.002h2.004v2.004h-2.004zM6.011 2.002h2.004v2.004h-2.004zM10.018 2.002h2.004v2.004h-2.004zM14.025 2.002h2.004v2.004h-2.004zM18.032 2.002h2.004v2.004h-2.004zM22.039 2.002h2.004v2.004h-2.004zM26.046 2.002h2.004v2.004h-2.004zM26.046 6.009h2.004v2.004h-2.004zM26.046 10.016h2.004v2.004h-2.004zM26.046 14.023h2.004v2.004h-2.004zM26.046 18.030h2.004v2.004h-2.004zM26.046 22.037h2.004v2.004h-2.004zM26.046 26.044h2.004v2.004h-2.004zM22.039 26.044h2.004v2.004h-2.004zM18.032 26.044h2.004v2.004h-2.004zM14.025 26.044h2.004v2.004h-2.004zM10.018 26.044h2.004v2.004h-2.004zM6.011 26.044h2.004v2.004h-2.004zM2.004 26.044h2.004v2.004h-2.004zM2.004 22.037h2.004v2.004h-2.004zM2.004 18.030h2.004v2.004h-2.004zM2.004 14.023h2.004v2.004h-2.004zM2.004 10.016h2.004v2.004h-2.004zM2.004 6.009h2.004v2.004h-2.004zM6.011 16.235h8.014v8.014h-8.014zM16.028 16.235h8.014v8.014h-8.014zM6.011 6.009h18.032v8.014h-18.032z"></path>
</svg>
