<!-- Generated by IcoMoon.io -->
<svg version="1.1" xmlns="http://www.w3.org/2000/svg" width="32" height="32" viewBox="0 0 32 32">
<title>edit-undo</title>
<path d="M8.001 12.002v4.001h13.002c1.681 0 3 1.32 3 3s-1.32 3-3 3h-1v4.001h1c3.843 0 7.001-3.158 7.001-7.001s-3.158-7.001-7.001-7.001h-13.002z"></path>
<path d="M14.002 6.045v2c0 0.514-0.26 1.057-0.625 1.438l-4.563 4.563 4.563 4.563c0.365 0.381 0.625 0.924 0.625 1.438v2h-2c-0.619 0-1.105-0.181-1.5-0.563l-7.314-7.439 7.314-7.439c0.395-0.382 0.881-0.563 1.5-0.563z"></path>
</svg>
