<!-- Generated by IcoMoon.io -->
<svg version="1.1" xmlns="http://www.w3.org/2000/svg" width="32" height="32" viewBox="0 0 32 32">
<title>edit-clear-all</title>
<path d="M22.179 0.102c-0.011-0-0.024-0-0.037-0-0.74 0-1.386 0.402-1.732 0.999l-0.005 0.010-6.626 11.252c-0.188 0.299-0.299 0.662-0.299 1.052 0 1.105 0.896 2.001 2.001 2.001 0.745 0 1.395-0.407 1.739-1.011l0.005-0.010 6.626-11.252c0.183-0.296 0.291-0.655 0.291-1.039 0-1.092-0.875-1.979-1.961-2l-0.002-0z"></path>
<path d="M10.439 10.189l9.896 6.109c1.207 0.63 1.64 2.227 0.329 3.195l-1.244 0.433-12.040-7.044 0.035-1.815c0.578-1.171 1.51-1.632 3.023-0.877z"></path>
<path d="M6.109 14.979l11.982 6.95-2.089 3.085c-0.442 0.486-0.265 1.149 0.177 1.414l1.901 1.635h-10.741c-4.382 0-6.395-4.13-4.287-7.779z"></path>
</svg>
