<!-- Generated by IcoMoon.io -->
<svg version="1.1" xmlns="http://www.w3.org/2000/svg" width="32" height="32" viewBox="0 0 32 32">
<title>emblem-important</title>
<path d="M16.002 2c-7.733 0-14.002 6.269-14.002 14.002s6.269 14.002 14.002 14.002v0c7.733 0 14.002-6.269 14.002-14.002s-6.269-14.002-14.002-14.002v0zM15.814 5.939c0.057-0.006 0.123-0.009 0.189-0.009 1.105 0 2 0.896 2 2 0 0.025-0 0.050-0.001 0.075l0-0.004v10.001c0 1.105-0.896 2-2 2s-2-0.896-2-2v0-10.002c-0-0.014-0.001-0.031-0.001-0.048 0-0.95 0.662-1.745 1.549-1.949l0.013-0.003c0.068-0.023 0.152-0.044 0.238-0.060l0.012-0.002zM16.002 22.003c1.105 0 2 0.896 2 2s-0.896 2-2 2v0c-1.105 0-2-0.896-2-2s0.896-2 2-2v0z"></path>
</svg>
