<!-- Generated by IcoMoon.io -->
<svg version="1.1" xmlns="http://www.w3.org/2000/svg" width="32" height="32" viewBox="0 0 32 32">
<title>emblem-shared</title>
<path d="M11.94 15.94c0 3.28-2.659 5.938-5.938 5.938s-5.938-2.659-5.938-5.938v0c0-3.28 2.659-5.938 5.938-5.938s5.938 2.659 5.938 5.938v0z"></path>
<path d="M31.88 25.941c0 3.28-2.659 5.938-5.938 5.938s-5.938-2.659-5.938-5.938v0c0-3.28 2.659-5.938 5.938-5.938s5.938 2.659 5.938 5.938v0z"></path>
<path d="M31.88 5.938c0 3.28-2.659 5.938-5.938 5.938s-5.938-2.659-5.938-5.938v0c0-3.28 2.659-5.938 5.938-5.938s5.938 2.659 5.938 5.938v0z"></path>
<path d="M25.253 4.313l-20.128 9.751-3.626 1.813 3.626 1.813 20.066 10.127 1.813-3.626-16.44-8.314 16.44-8.001-1.75-3.563z"></path>
</svg>
