<!-- Generated by IcoMoon.io -->
<svg version="1.1" xmlns="http://www.w3.org/2000/svg" width="32" height="32" viewBox="0 0 32 32">
<title>emblem-shared</title>
<path d="M11.94 15.94c-0.001 3.279-2.66 5.937-5.939 5.937v0c-3.279 0-5.937-2.657-5.939-5.935v-0c0-0.001 0-0.001 0-0.002 0-3.28 2.659-5.939 5.939-5.939 0.001 0 0.001 0 0.002 0h-0c3.279 0.001 5.937 2.66 5.937 5.939v0zM31.881 25.942c0 3.28-2.659 5.939-5.939 5.939-0.001 0-0.001 0-0.002 0h0c-3.279-0.001-5.937-2.66-5.937-5.939 0-0.001 0-0.003 0-0.004v0c0.002-3.278 2.66-5.935 5.939-5.935v0c3.28 0 5.939 2.659 5.939 5.939v0zM31.881 5.939c0 3.28-2.659 5.939-5.939 5.939-0.001 0-0.001 0-0.002 0h0c-3.279-0.001-5.937-2.66-5.937-5.939 0-0.001 0-0.003 0-0.004v0c0.002-3.278 2.66-5.935 5.939-5.935v0c3.28 0 5.939 2.659 5.939 5.939v0z"></path>
<path d="M25.232 4.293l-23.738 11.558 23.714 11.94 1.798-3.577-16.498-8.301 16.474-8.025z"></path>
</svg>
