<!-- Generated by IcoMoon.io -->
<svg version="1.1" xmlns="http://www.w3.org/2000/svg" width="32" height="32" viewBox="0 0 32 32">
<title>emblem-synchronizing</title>
<path d="M29.808 4.002c-0.085 0.016-0.168 0.036-0.25 0.062-0.894 0.2-1.585 1.084-1.563 2v3.376c0.008 2.626 0.008 2.626-3.125 2.625h-2.875c-1.047 0-2 0.953-2 2-0.016 0.145-0.016 0.292 0 0.438v1.563h12.002v-10.002c0.012-0.125 0.012-0.25 0-0.375v-1.625h-1.625c-0.183-0.047-0.373-0.068-0.563-0.062z"></path>
<path d="M0.009 16.002v10.002c-0.012 0.125-0.012 0.25 0 0.375v1.625h1.625c0.183 0.047 0.373 0.068 0.563 0.062 0.085-0.016 0.168-0.036 0.25-0.062 0.894-0.2 1.585-1.084 1.563-2v-3.375c-0.009-2.625-0.009-2.625 3.125-2.625h2.875c1.047-0 2-0.953 2-2 0.016-0.145 0.016-0.292 0-0.438v-1.563z"></path>
<path d="M16.002 2c-6.307 0-11.641 4.252-13.377 10.002h4.188c1.547-3.531 5.077-6.001 9.189-6.001s7.642 2.47 9.189 6.001h4.188c-1.736-5.749-7.070-10.002-13.377-10.002zM2.625 20.003c1.736 5.749 7.070 10.002 13.377 10.002s11.641-4.252 13.377-10.002h-4.188c-1.547 3.531-5.077 6.001-9.189 6.001s-7.642-2.47-9.189-6.001h-4.188z"></path>
</svg>
