<!-- Generated by IcoMoon.io -->
<svg version="1.1" xmlns="http://www.w3.org/2000/svg" width="32" height="32" viewBox="0 0 32 32">
<title>emoji-food</title>
<path d="M19.997 2v16.186c-1.164 0.41-2 1.504-2 2.808v6.017c0 1.754 1.306 2.992 3 2.992 1.71 0 3-1.218 3-2.992v-6.017c0-1.304-0.838-2.398-2-2.808v-2.184h1.328c0.004 0 0.008 0 0.012 0 1.458 0 2.64-1.182 2.64-2.64 0-0.001 0-0.003 0-0.004v0-3.357c0-4.765-1.98-8.001-5.981-8.001zM3.995 4.001v6.901c0 1.698 1.396 3.096 3.1 3.096h0.9v4.189c-1.164 0.41-2 1.504-2 2.808v6.017c0 1.658 1.338 2.992 3 2.992 1.66 0 3-1.334 3-2.992v-6.017c0-1.304-0.838-2.398-2-2.808v-4.189h0.898c1.704 0 3.104-1.398 3.104-3.098v-6.899c0-1.032-0.934-2-2.002-2v8.901c0 0.628-0.476 1.1-1.102 1.1h-0.9v-9.966l-2-0.004v9.97h-0.898c-0.007 0-0.016 0-0.024 0-0.594 0-1.076-0.482-1.076-1.076 0-0.009 0-0.017 0-0.026l-0 0.001v-8.901c-1.096 0-2 0.92-2 2z"></path>
</svg>
