<!-- Generated by IcoMoon.io -->
<svg version="1.1" xmlns="http://www.w3.org/2000/svg" width="32" height="32" viewBox="0 0 32 32">
<title>emoji-body</title>
<path d="M16.002 0.1c2.243 0 4.061 1.818 4.061 4.061s-1.818 4.061-4.061 4.061v0c-2.243 0-4.061-1.818-4.061-4.061s1.818-4.061 4.061-4.061v0zM2.972 10.104c7.067-0.1 18.849-0.028 25.858 0.030 0 0 0.942-0.016 0.942 0.926v0.456c0 0.494-0.514 0.63-0.514 0.63l-9.255 0.752v7.105l4.191 9.217c0.336 0.556-0.39 0.714-0.39 0.714l-1.294 0.012c-0.622 0-0.856-0.524-0.856-0.524l-5.031-8.693c-0.592-1.344-0.63-1.174-1.19 0l-5.301 8.681c-0.18 0.536-0.876 0.548-0.876 0.548l-1.402-0.020s-0.512-0.016-0.394-0.516l4.543-9.419v-7.105l-9.309-0.692c-0.512-0.172-0.724-0.648-0.724-0.648v-0.48s-0.020-0.976 1.004-0.976z"></path>
</svg>
