<!-- Generated by IcoMoon.io -->
<svg version="1.1" xmlns="http://www.w3.org/2000/svg" width="32" height="32" viewBox="0 0 32 32">
<title>emoji-flags</title>
<path d="M4.007 1.998v28.009h4.001v-28.009z"></path>
<path d="M6.008 1.998c-1.105 0-2.001 0.896-2.001 2.001v0 12.004c0 1.105 0.896 2.001 2.001 2.001v0h6.768l1.444 2.895c0.336 0.661 1.011 1.106 1.79 1.106 0 0 0.001 0 0.001 0h10.003c1.105 0 2.001-0.896 2.001-2.001v0-12.004c0-1.105-0.896-2.001-2.001-2.001v0h-6.768l-1.445-2.895c-0.336-0.661-1.011-1.106-1.79-1.106-0 0-0.001 0-0.001 0h0zM8.009 5.999h6.768l1.445 2.895c0.336 0.661 1.011 1.106 1.79 1.106 0 0 0.001 0 0.001 0h6.002v8.003h-6.768l-1.444-2.895c-0.336-0.661-1.011-1.106-1.79-1.106-0 0-0.001 0-0.001 0h-6.002z"></path>
<path d="M6.008 16.002h8.003l2.001 4.001h10.003v-12.004h-8.003l-2.001-4.001h-10.003z"></path>
</svg>
