<!-- Generated by IcoMoon.io -->
<svg version="1.1" xmlns="http://www.w3.org/2000/svg" width="32" height="32" viewBox="0 0 32 32">
<title>emoji-activities</title>
<path d="M16.005 0.001c-8.821 0-16.005 7.19-16.005 16.001s7.184 16.001 16.005 16.001 16.005-7.19 16.005-16.001-7.184-16.001-16.005-16.001zM16.005 3.994c0.254 0 0.504 0.024 0.754 0.040-1.040 3.275-0.374 6.868 1.961 9.413 2.357 2.565 5.916 3.519 9.283 2.707-0.066 6.562-5.4 11.856-11.971 11.856-0.009 0-0.019 0-0.028-0h-0.011c0.728-3.307-0.23-6.778-2.747-9.089-2.489-2.285-5.982-2.967-9.199-2.025-0.024-0.262-0.039-0.574-0.042-0.888l-0-0.006c-0-0.010-0-0.022-0-0.034 0-6.613 5.361-11.974 11.974-11.974 0.009 0 0.018 0 0.027 0h-0.001zM18.76 4.318c4.736 1.136 8.329 4.978 9.084 9.764l0.009 0.068c-2.787 0.8-5.736 0.042-7.659-2.051-1.909-2.079-2.425-5.070-1.434-7.781zM6.962 18.635c1.811-0.054 3.563 0.502 4.932 1.761 2.033 1.865 2.581 4.688 1.861 7.401-4.545-0.884-8.124-4.244-9.312-8.591l-0.020-0.084c0.84-0.286 1.693-0.46 2.541-0.486z"></path>
</svg>
