<!-- Generated by IcoMoon.io -->
<svg version="1.1" xmlns="http://www.w3.org/2000/svg" width="32" height="32" viewBox="0 0 32 32">
<title>error-correct</title>
<path d="M5.359 20.589l11.7-11.704 6.001 6.001-11.662 11.748-8.053 2.144z"></path>
<path d="M10.030 0.028c-2.666 0-4.549 1.632-5.289 3.106-0.74 1.478-0.712 2.894-0.712 2.894v3.172l-0.566-0.566-0.016-0.020c-0.362-0.362-0.862-0.585-1.414-0.586h-2v2c0 0.552 0.224 1.052 0.586 1.414l5.415 5.415 5.395-5.395c0.374-0.364 0.606-0.871 0.606-1.434 0-0 0-0.001 0-0.001v0-2h-2c-0.552 0-1.052 0.224-1.414 0.586l-0.586 0.586v-3.172s0.028-0.582 0.29-1.104c0.26-0.524 0.378-0.896 1.71-0.896h11.922l-3.326 3.321 6.107 6.107 3.541-3.541c0.284-0.284 0.46-0.676 0.46-1.109s-0.176-0.826-0.46-1.109l-0-0-3.675-3.669-3.168-2.82c-0.894-0.762-1.774-1.18-3.398-1.18z"></path>
</svg>
