<!-- Generated by IcoMoon.io -->
<svg version="1.1" xmlns="http://www.w3.org/2000/svg" width="32" height="32" viewBox="0 0 32 32">
<title>face-wink</title>
<path d="M16.002 2c-7.733 0-14.002 6.269-14.002 14.002s6.269 14.002 14.002 14.002v0c7.733 0 14.002-6.269 14.002-14.002s-6.269-14.002-14.002-14.002v0zM12.002 10.002c1.118 0 2.062 0.946 2.062 2.062v1.938c0 1.116-0.944 2-2.060 2-1.12 0-2-0.884-2-2v-1.938c-0.002-1.116 0.878-2.062 1.998-2.062zM18.879 12.002h1.812c1.044 0 1.938 0.432 1.938 1s-0.894 1-1.94 1h-1.81c-1.046 0-1.876-0.432-1.876-1s0.83-1 1.876-1zM6.001 18.129c1.432 2.146 4.471 3.875 10.002 3.875 4.905 0 8.423-1.5 10.002-3.877v1c0 1.362-1.676 4.815-10.002 4.815-7.761 0-10.002-3.749-10.002-4.813z"></path>
</svg>
