<!-- Generated by IcoMoon.io -->
<svg version="1.1" xmlns="http://www.w3.org/2000/svg" width="32" height="32" viewBox="0 0 32 32">
<title>face-raspberry</title>
<path d="M16.002 2c-7.733 0-14.002 6.269-14.002 14.002s6.269 14.002 14.002 14.002c7.733 0 14.002-6.269 14.002-14.002s-6.269-14.002-14.002-14.002zM12.002 10.002c1.117 0 2.063 0.946 2.063 2.063v1.938c0 1.117-0.946 2-2.063 2s-2-0.883-2-2v-1.938c0-1.117 0.883-2.063 2-2.063zM20.003 10.002c1.117 0 2 0.946 2 2.063v1.938c0 1.117-0.883 2-2 2s-2-0.883-2-2v-1.938c0-1.117 0.883-2.063 2-2.063zM6.001 18.128c1.993 1.274 8.034 1.875 10.002 1.875 0.984 0 2.858 0.029 4.813-0.187s3.993-0.719 5.188-1.688v1c0 0.883-1.507 1.838-4.313 2.375l0.5 1.063c0.558 1.207 0.167 2.552-0.875 3.063l-0.5 0.25c-1.042 0.511-2.35-0.059-2.938-1.25l-1.25-2.563c-0.034-0.069-0.038-0.070-0.062-0.125-0.192 0.002-0.365 0-0.563 0-6.513 0-10.002-1.748-10.002-2.813v-1z"></path>
</svg>
