<!-- Generated by IcoMoon.io -->
<svg version="1.1" xmlns="http://www.w3.org/2000/svg" width="32" height="32" viewBox="0 0 32 32">
<title>face-smile</title>
<path d="M16.003 2c-7.733 0-14.002 6.269-14.002 14.002s6.269 14.002 14.002 14.002c7.733 0 14.002-6.269 14.002-14.002s-6.269-14.002-14.002-14.002zM12.002 10.002c1.117 0 2.063 0.946 2.063 2.063v1.938c0 1.117-0.946 2-2.063 2s-2-0.883-2-2v-1.938c0-1.117 0.883-2.063 2-2.063zM20.003 10.002c1.117 0 2 0.946 2 2.063v1.938c0 1.117-0.883 2-2 2s-2-0.883-2-2v-1.938c0-1.117 0.883-2.063 2-2.063zM6.001 18.142c1.993 1.274 8.034 1.835 10.002 1.835s7.61 0.102 10.002-1.835v1c0 1.362-3.489 2.809-10.002 2.809s-10.002-1.744-10.002-2.809z"></path>
</svg>
