<!-- Generated by IcoMoon.io -->
<svg version="1.1" xmlns="http://www.w3.org/2000/svg" width="32" height="32" viewBox="0 0 32 32">
<title>face-wink</title>
<path d="M16.003 2c-7.733 0-14.002 6.269-14.002 14.002s6.269 14.002 14.002 14.002c7.733 0 14.002-6.269 14.002-14.002s-6.269-14.002-14.002-14.002zM12.002 10.002c1.117 0 2.063 0.946 2.063 2.063v1.938c0 1.117-0.946 2-2.063 2s-2-0.883-2-2v-1.938c0-1.117 0.883-2.063 2-2.063zM18.878 12.002h1.813c1.045 0 1.938 0.432 1.938 1s-0.893 1-1.938 1h-1.813c-1.045 0-1.875-0.432-1.875-1s0.83-1 1.875-1zM6.001 18.128c1.431 2.149 4.471 3.876 10.002 3.876 4.905 0 8.423-1.501 10.002-3.876v1c0 1.362-1.676 4.813-10.002 4.813-7.763 0-10.002-3.748-10.002-4.813v-1z"></path>
</svg>
