<!-- Generated by IcoMoon.io -->
<svg version="1.1" xmlns="http://www.w3.org/2000/svg" width="32" height="32" viewBox="0 0 32 32">
<title>face-monkey</title>
<path d="M15.69 0.063c-2.455 1.468-2.125 3.265-1.813 4.063-3.615 0.537-7.099 2.623-8.251 6.376-0.567-0.423-1.176-0.688-1.875-0.688-2.068 0-3.751 2.166-3.751 4.751s1.683 4.688 3.751 4.688c0.933 0 1.772-0.423 2.438-1.125 5.439-2.548 14.187-2.933 19.753 0.062 0.639 0.645 1.422 1.063 2.313 1.063 2.068 0 3.751-2.103 3.751-4.688s-1.683-4.751-3.751-4.751c-0.857 0-1.622 0.386-2.25 1-1.015-3.405-3.68-5.821-7.626-6.564-0.341-1.278-0.569-3.832 3.25-3.563-4.34-1.586-5.438 3.251-5.438 3.251-0.531-0.234-1.931-1.277-0.5-3.876zM12.94 10.127c0.76 0 1.438 1.293 1.438 2.938s-0.678 3-1.438 3c-0.76 0-1.313-1.355-1.313-3s0.553-2.938 1.313-2.938zM18.94 10.127c0.76 0 1.438 1.293 1.438 2.938s-0.678 3-1.438 3c-0.76 0-1.313-1.355-1.313-3s0.553-2.938 1.313-2.938zM4.001 11.939c0.512 0 0.948 0.299 1.313 0.688-0.066 1.058-0.037 2.237 0.25 3.501-0.383 0.588-0.904 1-1.563 1-1.144 0-2.063-1.133-2.063-2.563s0.919-2.625 2.063-2.625zM28.067 11.939c1.144 0 2.125 1.196 2.125 2.625s-0.982 2.563-2.125 2.563c-0.745 0-1.319-0.524-1.688-1.25 0.11-0.96 0.074-1.871 0-2.75 0.376-0.701 0.969-1.188 1.688-1.188z"></path>
<path d="M15.94 17.94c-7.761 0-14.065 3.134-14.065 7.001s6.303 7.001 14.065 7.001c7.761 0 14.065-3.134 14.065-7.001s-6.303-7.001-14.065-7.001zM6.001 22.066c0 0 0.734 4.063 9.939 4.063 8.775 0 10.189-4.001 10.189-4.001s-0.079 5.954-10.189 5.876c-10.298-0.080-9.939-5.938-9.939-5.938z"></path>
</svg>
