<!-- Generated by IcoMoon.io -->
<svg version="1.1" xmlns="http://www.w3.org/2000/svg" width="32" height="32" viewBox="0 0 32 32">
<title>face-yawn</title>
<path d="M16.002 2c-7.733 0-14.002 6.269-14.002 14.002s6.269 14.002 14.002 14.002c7.733 0 14.002-6.269 14.002-14.002s-6.269-14.002-14.002-14.002zM11.064 8.001c1.469 0 2.938 0.892 2.938 2.625-3-0.677-6.251 3.466-6.001 0 0.125-1.733 1.594-2.625 3.063-2.625zM20.941 8.001c1.469 0 2.938 0.892 3.063 2.625 0.25 3.466-3-0.677-6.001 0 0-1.733 1.469-2.625 2.938-2.625zM16.002 14.002c2.762 0 5.001 2.687 5.001 6.001s-2.239 6.001-5.001 6.001c-2.762 0-5.001-2.687-5.001-6.001s2.239-6.001 5.001-6.001z"></path>
</svg>
