<!-- Generated by IcoMoon.io -->
<svg version="1.1" xmlns="http://www.w3.org/2000/svg" width="32" height="32" viewBox="0 0 32 32">
<title>face-sick</title>
<path d="M16.002 2c-7.733 0-14.002 6.269-14.002 14.002s6.269 14.002 14.002 14.002c7.733 0 14.002-6.269 14.002-14.002s-6.269-14.002-14.002-14.002zM8.626 9.376c0.084 0.006 0.168 0.014 0.25 0.062l2.25 1.313 2.313-1.313c0.331-0.183 0.681-0.042 0.813 0.313s-0.044 0.817-0.375 1l-1.438 0.813 1.438 0.813c0.328 0.188 0.449 0.585 0.313 0.938s-0.484 0.438-0.813 0.25l-2.25-1.25-2.313 1.25c-0.331 0.184-0.681 0.105-0.813-0.25s0.044-0.817 0.375-1l1.375-0.813-1.375-0.75c-0.328-0.188-0.511-0.647-0.375-1 0.102-0.265 0.375-0.4 0.625-0.375zM18.94 9.376c0.084 0.006 0.168 0.014 0.25 0.062l2.25 1.313 2.313-1.313c0.331-0.183 0.681-0.042 0.813 0.313s-0.044 0.817-0.375 1l-1.438 0.813 1.438 0.813c0.328 0.188 0.511 0.585 0.375 0.938s-0.547 0.438-0.875 0.25l-2.25-1.313-2.313 1.313c-0.331 0.184-0.681 0.105-0.813-0.25s0.044-0.817 0.375-1l1.438-0.813-1.438-0.813c-0.328-0.188-0.511-0.585-0.375-0.938 0.102-0.265 0.375-0.4 0.625-0.375zM10.252 18.065c1.208-0.108 2.536 0.182 3.751 1.063 0.699 0.44 0.825 0.548 2 0.688 0.319 0.111 1.214-0.082 2-0.688 0.561-0.409 1.123-0.591 1.688-0.75 2.619-0.736 5.149 0.873 6.313 2.5v1c-1.023-0.572-2.121-1.196-3.25-1.563l0.938 1.875c0.656 1.295 0.265 2.798-0.875 3.375s-2.595-0.018-3.25-1.313l-1.188-2.313c-0.102-0.202-0.135-0.417-0.187-0.625-0.053 0.021-0.142 0.056-0.187 0.062-1.083 0.627-3.119 0.393-4.001 0-1.834-0.875-1.819-1.335-3.063-1.375-1.705 0.038-3.687 0.798-4.938 1.875v-1c0.527-1.358 2.238-2.633 4.251-2.813z"></path>
</svg>
