<!-- Generated by IcoMoon.io -->
<svg version="1.1" xmlns="http://www.w3.org/2000/svg" width="32" height="32" viewBox="0 0 32 32">
<title>face-smirk</title>
<path d="M16.033 2c-7.733 0-14.002 6.269-14.002 14.002s6.269 14.002 14.002 14.002c7.733 0 14.002-6.269 14.002-14.002s-6.269-14.002-14.002-14.002zM12.033 10.001c1.117 0 2.063 0.946 2.063 2.063v1.938c0 1.117-0.946 2-2.063 2s-2-0.883-2-2v-1.938c0-1.117 0.883-2.063 2-2.063zM20.034 10.001c1.117 0 2 0.946 2 2.063v1.938c0 1.117-0.883 2-2 2s-2-0.883-2-2v-1.938c0-1.117 0.883-2.063 2-2.063zM7.207 15.44c1.559 6.613 9.387 8.866 15.413 6.575 0.014 1.196-0.39 2.195-2.309 2.572-4.332 0.852-10.323-0.285-13.362-5.187-1.332-2.15-0.254-3.371 0.258-3.96z"></path>
</svg>
