<!-- Generated by IcoMoon.io -->
<svg version="1.1" xmlns="http://www.w3.org/2000/svg" width="32" height="32" viewBox="0 0 32 32">
<title>face-raspberry</title>
<path d="M16.002 2c-7.733 0-14.002 6.269-14.002 14.002s6.269 14.002 14.002 14.002v0c7.733 0 14.002-6.269 14.002-14.002s-6.269-14.002-14.002-14.002v0zM12.002 10.002c1.116 0 2.062 0.946 2.062 2.062v1.938c0 1.116-0.946 2-2.062 2s-2-0.884-2-2v-1.938c0-1.116 0.884-2.062 2-2.062zM20.003 10.002c1.116 0 2 0.946 2 2.062v1.938c0 1.116-0.884 2-2 2s-2-0.884-2-2v-1.938c0-1.116 0.884-2.062 2-2.062zM6.001 18.129c1.994 1.272 8.033 1.874 10.002 1.874 0.984 0 2.858 0.030 4.813-0.188 1.956-0.216 3.993-0.72 5.189-1.686v1c0 0.882-1.506 1.838-4.313 2.374l0.5 1.062c0.558 1.208 0.166 2.552-0.876 3.064l-0.5 0.25c-1.040 0.51-2.35-0.060-2.938-1.25l-1.248-2.564c-0.036-0.068-0.040-0.070-0.064-0.124h-0.562c-6.513 0-10.002-1.748-10.002-2.812v-1z"></path>
</svg>
