<!-- Generated by IcoMoon.io -->
<svg version="1.1" xmlns="http://www.w3.org/2000/svg" width="32" height="32" viewBox="0 0 32 32">
<title>face-shutmouth</title>
<path d="M16.002 2c-7.733 0-14.002 6.269-14.002 14.002s6.269 14.002 14.002 14.002c7.733 0 14.002-6.269 14.002-14.002s-6.269-14.002-14.002-14.002zM12.002 10.002c1.117 0 2.063 0.946 2.063 2.063v1.938c0 1.117-0.946 2-2.063 2s-2-0.883-2-2v-1.938c0-1.117 0.883-2.063 2-2.063zM20.003 10.002c1.117 0 2 0.946 2 2.063v1.938c0 1.117-0.883 2-2 2s-2-0.883-2-2v-1.938c0-1.117 0.883-2.063 2-2.063zM8.001 18.003l8.001 2 8.001-2c0.165 1.181-0.322 2.108-1.343 2.336l-2.658 0.664 2.618 0.655c1.43 0.383 1.383 1.499 1.383 2.346l-8.001-2-8.001 2c-0.131-1.263 0.075-1.967 1.041-2.26l2.96-0.74-3.009-0.67c-0.949-0.256-1.158-1.363-0.992-2.33z"></path>
</svg>
