<!-- Generated by IcoMoon.io -->
<svg version="1.1" xmlns="http://www.w3.org/2000/svg" width="32" height="32" viewBox="0 0 32 32">
<title>face-confused</title>
<path d="M16.002 2c-7.733 0-14.002 6.269-14.002 14.002s6.269 14.002 14.002 14.002c7.733 0 14.002-6.269 14.002-14.002s-6.269-14.002-14.002-14.002zM12.002 10.001c1.117 0 2.063 0.946 2.063 2.063v1.938c0 1.117-0.946 2-2.063 2s-2-0.883-2-2v-1.938c0-1.117 0.883-2.063 2-2.063zM20.003 10.001c1.117 0 2 0.946 2 2.063v1.938c0 1.117-0.883 2-2 2s-2-0.883-2-2v-1.938c0-1.117 0.883-2.063 2-2.063zM9.189 17.628c0.129-0.018-0.558 0.026-0.425 0.062 8.963-0.062 2.9 5.164 13.176 5.288 0.535 0.145 0.833 0.715 0.688 1.25s-0.653 0.833-1.188 0.688c-9.897-0.028-5.813-5.413-12.377-5.288-0.535-0.145-0.833-0.715-0.688-1.25 0.109-0.401 0.426-0.698 0.813-0.75z"></path>
</svg>
