<!-- Generated by IcoMoon.io -->
<svg version="1.1" xmlns="http://www.w3.org/2000/svg" width="32" height="32" viewBox="0 0 32 32">
<title>face-angry</title>
<path d="M16.002 2c-7.733 0-14.002 6.269-14.002 14.002s6.269 14.002 14.002 14.002c7.733 0 14.002-6.269 14.002-14.002s-6.269-14.002-14.002-14.002zM8.001 10.252c0 0 0.948 1.678 2.5 1.688h3.501v2.063c0 1.113-1.334 2-3 2s-3-0.888-3-2zM24.004 10.252v3.751c0 1.113-1.334 2-3 2s-3-0.888-3-2v-2.063h3.438c1.552-0.010 2.563-1.688 2.563-1.688zM16.065 18.003c6.513 0 6.001 0.768 6.001 1.523v0.532h-12.064v-0.576c0-0.699-0.449-1.479 6.063-1.479z"></path>
</svg>
