<!-- Generated by IcoMoon.io -->
<svg version="1.1" xmlns="http://www.w3.org/2000/svg" width="32" height="32" viewBox="0 0 32 32">
<title>face-worried</title>
<path d="M16.002 2c-7.733 0-14.002 6.269-14.002 14.002s6.269 14.002 14.002 14.002c7.733 0 14.002-6.269 14.002-14.002s-6.269-14.002-14.002-14.002zM12.002 10.002c1.117 0 2.063 0.946 2.063 2.063v1.938c0 1.117-0.946 2-2.063 2s-2-0.883-2-2v-1.938c0-1.117 0.883-2.063 2-2.063zM20.003 10.002c1.117 0 2 0.946 2 2.063v1.938c0 1.117-0.883 2-2 2s-2-0.883-2-2v-1.938c0-1.117 0.883-2.063 2-2.063zM26.004 21.889c-1.531-0.856-3.225-1.842-4.952-1.88-1.306 0.039-2.478 1.308-3.049 1.394-1.083 0.627-3.119 0.393-4.001 0-1.834-0.875-1.843-1.361-3.087-1.401-1.705 0.038-3.663 0.809-4.914 1.887v-1c0.843-2.172 4.762-4.090 8.001-1.742 0.699 0.44 0.855 0.533 2.030 0.673 0.319 0.111 1.185-0.068 1.971-0.673 3.164-2.307 6.585-0.237 8.001 1.742z"></path>
</svg>
