<!-- Generated by IcoMoon.io -->
<svg version="1.1" xmlns="http://www.w3.org/2000/svg" width="32" height="32" viewBox="0 0 32 32">
<title>face-kiss</title>
<path d="M16.002 2c-7.733 0-14.002 6.269-14.002 14.002s6.269 14.002 14.002 14.002v0c7.733 0 14.002-6.269 14.002-14.002s-6.269-14.002-14.002-14.002v0zM11.064 10.002c1.47 0 2.938 0.45 2.938 2.184-5.121-1.208-4.837 3.377-6.001 0.44-0.64-1.614 1.594-2.624 3.062-2.624zM20.941 10.002c1.468 0 3.409 0.922 3.062 2.626-0.634 3.112-1.056-1.916-6.001-0.442 0-1.734 1.468-2.184 2.938-2.184zM14.002 16.002c0.82-0.020 1.5 0.268 2.062 0.688 0.564-0.42 1.304-0.714 2.126-0.688 1.262 0.040 1.812 1.52 1.812 2.374 0 1.55 0.95 1.532 2 1.658-1.268 0.3-1.974 2.448-1.968 3.531 0.010 1.944-1.86 2.512-4.033 2.5-2.17-0.008-3.975-0.502-3.969-2.468 0-0.816-0.706-3.18-2.064-3.533 1.36-0.186 2.032-0.5 2.032-1.72 0-1.616 1.058-2.32 2-2.342z"></path>
<path d="M18.003 20.551c-0.34 0.16-0.64 0.32-0.644 0.544-0.036 0.54-0.748 0.962-1.344 0.96s-1.188-0.42-1.188-0.96c0-0.224-0.222-0.38-0.544-0.544 1.060-0.79 2.506-0.676 3.721 0z"></path>
</svg>
