<!-- Generated by IcoMoon.io -->
<svg version="1.1" xmlns="http://www.w3.org/2000/svg" width="32" height="32" viewBox="0 0 32 32">
<title>face-sad</title>
<path d="M16.002 2c-7.733 0-14.002 6.269-14.002 14.002s6.269 14.002 14.002 14.002v0c7.733 0 14.002-6.269 14.002-14.002s-6.269-14.002-14.002-14.002v0zM12.002 10.002c1.118 0 2.062 0.946 2.062 2.062v1.938c0 1.116-0.944 2-2.060 2-1.12 0-2-0.884-2-2v-1.938c-0.002-1.116 0.878-2.062 1.998-2.062zM20.003 10.002c1.118 0 2 0.946 2 2.062v1.938c0 1.116-0.882 2-2 2-1.116 0-2-0.884-2-2v-1.938c0-1.116 0.884-2.062 2-2.062zM26.004 21.889c-1.992-1.274-8.033-1.834-10.002-1.834-1.966 0-7.609-0.102-10.002 1.834v-1c0-1.362 3.489-2.808 10.002-2.808s10.002 1.742 10.002 2.808z"></path>
</svg>
