<!-- Generated by IcoMoon.io -->
<svg version="1.1" xmlns="http://www.w3.org/2000/svg" width="32" height="32" viewBox="0 0 32 32">
<title>face-cool</title>
<path d="M16.002 2c-7.733 0-14.002 6.269-14.002 14.002s6.269 14.002 14.002 14.002v0c7.733 0 14.002-6.269 14.002-14.002s-6.269-14.002-14.002-14.002v0zM4.441 10.063c7.827-0.074 15.946 0 23.127 0 0 3.284-2.5 5.939-5.561 5.939-2.552 0-4.667-1.86-5.315-4.377h-1.376c-0.648 2.516-2.762 4.377-5.315 4.377-3.060 0-5.561-2.654-5.561-5.939zM6.001 18.129c1.432 2.146 4.471 3.875 10.002 3.875 4.905 0 8.423-1.5 10.002-3.877v1c0 1.362-1.676 4.815-10.002 4.815-7.761 0-10.002-3.749-10.002-4.813z"></path>
</svg>
