<!-- Generated by IcoMoon.io -->
<svg version="1.1" xmlns="http://www.w3.org/2000/svg" width="32" height="32" viewBox="0 0 32 32">
<title>face-confused</title>
<path d="M16.002 2c-7.733 0-14.002 6.269-14.002 14.002s6.269 14.002 14.002 14.002v0c7.733 0 14.002-6.269 14.002-14.002s-6.269-14.002-14.002-14.002v0zM12.002 10.002c1.116 0 2.062 0.946 2.062 2.062v1.938c0 1.116-0.946 2-2.062 2s-2-0.884-2-2v-1.94c0-1.114 0.884-2.060 2-2.060zM20.003 10.002c1.116 0 2 0.946 2 2.062v1.938c0 1.116-0.884 2-2 2s-2-0.884-2-2v-1.94c0-1.114 0.884-2.060 2-2.060zM9.189 17.627c0.128-0.018-0.56 0.028-0.426 0.064 8.963-0.064 2.9 5.163 13.178 5.287 0.423 0.128 0.725 0.514 0.725 0.971 0 0.1-0.014 0.196-0.041 0.287l0.002-0.007c-0.104 0.42-0.477 0.726-0.922 0.726-0.094 0-0.185-0.014-0.271-0.039l0.007 0.002c-9.899-0.028-5.815-5.413-12.38-5.289-0.424-0.127-0.727-0.514-0.727-0.971 0-0.099 0.014-0.195 0.041-0.286l-0.002 0.007c0.098-0.39 0.414-0.685 0.808-0.749l0.006-0.001z"></path>
</svg>
