<!-- Generated by IcoMoon.io -->
<svg version="1.1" xmlns="http://www.w3.org/2000/svg" width="32" height="32" viewBox="0 0 32 32">
<title>face-cool</title>
<path d="M16.003 2c-7.733 0-14.002 6.269-14.002 14.002s6.269 14.002 14.002 14.002c7.733 0 14.002-6.269 14.002-14.002s-6.269-14.002-14.002-14.002zM4.439 10.064c7.826-0.075 15.946-0 23.128 0 0 3.284-2.5 5.938-5.563 5.938-2.551 0-4.666-1.861-5.313-4.376h-1.375c-0.647 2.514-2.762 4.376-5.313 4.376-3.064 0-5.563-2.654-5.563-5.938zM6.001 18.128c1.431 2.149 4.471 3.876 10.002 3.876 4.905 0 8.423-1.501 10.002-3.876v1c0 1.362-1.676 4.813-10.002 4.813-7.763 0-10.002-3.748-10.002-4.813v-1z"></path>
</svg>
