<!-- Generated by IcoMoon.io -->
<svg version="1.1" xmlns="http://www.w3.org/2000/svg" width="32" height="32" viewBox="0 0 32 32">
<title>find-location</title>
<path d="M14 0v2.063c-6.326 0.526-11.381 5.605-11.877 11.939h-2.125v2h2.125c0.496 6.334 5.55 11.414 11.877 11.939v2.063h2v-2.063c6.377-0.468 11.45-5.562 11.939-11.939h2.063v-2h-2.063c-0.49-6.378-5.56-11.536-11.939-12.002v-2h-2zM15.063 5.626c5.214 0 9.376 4.163 9.376 9.376s-4.163 9.376-9.376 9.376c-5.214 0-9.501-4.163-9.501-9.376s4.288-9.376 9.501-9.376zM15 8.001c-3.867 0-7.001 3.134-7.001 7.001s3.135 7.001 7.001 7.001c3.867 0 7.001-3.134 7.001-7.001s-3.134-7.001-7.001-7.001z"></path>
</svg>
