<!-- Generated by IcoMoon.io -->
<svg version="1.1" xmlns="http://www.w3.org/2000/svg" width="32" height="32" viewBox="0 0 32 32">
<title>focus-legacy-systray</title>
<path d="M15.876 3.999l-15.872 0.020-0.004 23.944h19.943l0.055-19.841c0-2.249-1.873-4.122-4.122-4.122zM6.037 10.001h2.001c0.619 0 1.105 0.181 1.5 0.563l5.314 5.439-5.314 5.439c-0.395 0.382-0.881 0.563-1.5 0.563h-2.001v-2.001c0-0.514 0.26-1.057 0.625-1.438l2.563-2.563-2.563-2.563c-0.365-0.381-0.625-0.924-0.625-1.438z"></path>
<path d="M19.978 4.062c0 0 2.063 0.968 2.063 3.939v20.006h1.969v-20.006c0-2.501-4.032-3.939-4.032-3.939z"></path>
<path d="M23.948 4.062c0 0 2.063 0.968 2.063 3.939v20.006h2.001v-20.006c0-2.501-4.064-3.939-4.064-3.939z"></path>
</svg>
