<!-- Generated by IcoMoon.io -->
<svg version="1.1" xmlns="http://www.w3.org/2000/svg" width="32" height="32" viewBox="0 0 32 32">
<title>folder-visiting</title>
<path d="M4.001 2s-0.918-0.028-1.894 0.46c-0.978 0.49-2.106 1.874-2.106 3.541v20.003s-0.028 0.918 0.46 1.894c0.492 0.978 1.876 2.106 3.541 2.106h24.004s0.918 0.028 1.894-0.46c0.978-0.49 2.106-1.874 2.106-3.541v-16.002s0.028-0.918-0.46-1.894c-0.49-0.978-1.874-2.106-3.541-2.106h-9.173l-3.415-3.414c-0.362-0.362-0.862-0.586-1.414-0.586h-0zM4.001 6.001h9.173l3.415 3.415c0.362 0.362 0.862 0.586 1.414 0.586h10.002v16.002h-24.004z"></path>
</svg>
