<!-- Generated by IcoMoon.io -->
<svg version="1.1" xmlns="http://www.w3.org/2000/svg" width="32" height="32" viewBox="0 0 32 32">
<title>folder-open</title>
<path d="M0.062 4l-0.062 22.020c0 1.667 1.148 3.011 2.125 3.5s1.875 0.5 1.875 0.5h24c0 0 0.898-0.012 1.875-0.5s2.129-1.833 2.125-3.5v-10h-26.063l-0.938 10.063c-0.033 0.524-0.539 0.97-1.063 0.938s-0.97-0.539-0.938-1.063l1-11c0.020-0.446 0.374-0.854 0.813-0.938 0.062-0.006 0.125-0.006 0.187 0h23l0.062-6.020c0-2-1.931-1.98-1.931-1.98h-10.132l-3.938-4.020h-10c0 0-2 0-2 2z"></path>
</svg>
