<!-- Generated by IcoMoon.io -->
<svg version="1.1" xmlns="http://www.w3.org/2000/svg" width="32" height="32" viewBox="0 0 32 32">
<title>folder-publicshare</title>
<path d="M12.002 16.002c0 3.314-2.687 6.001-6.001 6.001v0c-3.314 0-6.001-2.687-6.001-6.001v0c0-3.314 2.687-6.001 6.001-6.001v0c3.314 0 6.001 2.687 6.001 6.001v0z"></path>
<path d="M25.11 4.213l-23.584 11.79 23.584 11.792 1.788-3.581-16.422-8.211 16.422-8.211z"></path>
<path d="M32.005 6.001c0 3.314-2.687 6.001-6.001 6.001v0c-3.314 0-6.001-2.687-6.001-6.001v0c0-3.314 2.687-6.001 6.001-6.001v0c3.314 0 6.001 2.687 6.001 6.001v0zM32.005 26.004c0 3.314-2.687 6.001-6.001 6.001v0c-3.314 0-6.001-2.687-6.001-6.001v0c0-3.314 2.687-6.001 6.001-6.001v0c3.314 0 6.001 2.687 6.001 6.001v0z"></path>
</svg>
