<!-- Generated by IcoMoon.io -->
<svg version="1.1" xmlns="http://www.w3.org/2000/svg" width="32" height="32" viewBox="0 0 32 32">
<title>folder-templates</title>
<path d="M6.001 18.003h2v2h-2zM4.001 20.003h2v2h-2zM6.001 22.003h2v2h-2zM4.001 24.004h2v2h-2zM6.001 26.004h2v2h-2zM4.001 28.004h2v2h-2zM8.001 28.004h2v2h-2zM12.002 28.004h2v2h-2zM16.002 28.004h2v2h-2zM20.003 28.004h2v2h-2zM6.001 30.005h2v2h-2zM10.002 30.005h2v2h-2zM14.002 30.005h2v2h-2zM18.003 30.005h2v2h-2zM22.003 30.005h2v2h-2zM24.004 28.004h2v2h-2z"></path>
<path d="M6.001 2c-1.105 0-2 0.896-2 2v0 14.002h4.001v-12.002h10.174l5.829 5.829v16.174h4.001v-17.003c-0-0.552-0.224-1.052-0.586-1.414l-7.001-7.001c-0.362-0.362-0.862-0.586-1.414-0.586h-0z"></path>
<path d="M18.003 4.001v8.001h8.001z"></path>
</svg>
