<!-- Generated by IcoMoon.io -->
<svg version="1.1" xmlns="http://www.w3.org/2000/svg" width="32" height="32" viewBox="0 0 32 32">
<title>folder-drag-accept</title>
<path d="M0 4v22.020c0 1.667 1.148 3.011 2.125 3.5s1.875 0.5 1.875 0.5h24c0 0 0.898-0.012 1.875-0.5s2.155-1.834 2.125-3.5v-6h-26.063l-0.938 6.063c-0.033 0.524-0.539 0.97-1.063 0.938s-0.97-0.539-0.938-1.063l1-7c0.020-0.446 0.374-0.854 0.813-0.938 0.062-0.006 0.125-0.006 0.187 0h23l0-10.020c0-2-2-2-2-2l-10 0-4-4c-2.863 0.004-10 0-10 0s-2 0-2 2z"></path>
</svg>
