<!-- Generated by IcoMoon.io -->
<svg version="1.1" xmlns="http://www.w3.org/2000/svg" width="32" height="32" viewBox="0 0 32 32">
<title>folder-remote</title>
<path d="M2.061 0.001c0 0-1.999 0-1.999 1.999l-0.062 18.008c0 1.666 1.147 3.010 2.124 3.498s1.874 0.5 1.874 0.5h7.995v3.997h-11.056c-0.526 0-0.937 0.411-0.937 0.937v2.124c0 0.526 0.411 0.937 0.937 0.937h26.109c0.526 0 0.937-0.411 0.937-0.937v-2.124c0-0.526-0.411-0.937-0.937-0.937h-11.056v-3.997h7.995c3.997 0 3.997-3.997 3.997-3.997v-9.994h-22.049l-0.937 10.056c-0.033 0.523-0.539 0.97-1.062 0.937s-0.97-0.539-0.937-1.062l0.999-10.993c0.020-0.445 0.374-0.854 0.812-0.937 0.062-0.006 0.125-0.006 0.187 0h20.987l0.062-2.018c0-1.999-1.928-1.979-1.928-1.979h-8.128l-3.935-4.017z"></path>
</svg>
