<!-- Generated by IcoMoon.io -->
<svg version="1.1" xmlns="http://www.w3.org/2000/svg" width="32" height="32" viewBox="0 0 32 32">
<title>folder-templates</title>
<path d="M6.001 18.002h2v2h-2v-2z"></path>
<path d="M4.001 20.003h2v2h-2v-2z"></path>
<path d="M6.001 22.003h2v2h-2v-2z"></path>
<path d="M4.001 24.003h2v2h-2v-2z"></path>
<path d="M6.001 26.004h2v2h-2v-2z"></path>
<path d="M4.001 28.004h2v2h-2v-2z"></path>
<path d="M8.002 28.004h2v2h-2v-2z"></path>
<path d="M12.002 28.004h2v2h-2v-2z"></path>
<path d="M16.003 28.004h2v2h-2v-2z"></path>
<path d="M20.003 28.004h2v2h-2v-2z"></path>
<path d="M5.626 2c-0.917 0.175-1.642 1.067-1.625 2v16.002h4.001v-14.002h10.001v6.001h6.001v15.997h4.001v-16.872c0.012-0.528-0.195-1.058-0.563-1.438l-7.126-7.126c-0.38-0.367-0.91-0.575-1.438-0.563h-12.877c-0.062-0.002-0.125-0.002-0.187 0-0.062-0.002-0.125-0.002-0.187 0z"></path>
<path d="M6.001 30.004h2v2h-2v-2z"></path>
<path d="M10.002 30.004h2v2h-2v-2z"></path>
<path d="M14.002 30.004h2v2h-2v-2z"></path>
<path d="M18.003 30.004h2v2h-2v-2z"></path>
<path d="M22.004 30.004h2v2h-2v-2z"></path>
<path d="M24.004 27.629h2v2.375h-2v-2.375z"></path>
</svg>
