<!-- Generated by IcoMoon.io -->
<svg version="1.1" xmlns="http://www.w3.org/2000/svg" width="32" height="32" viewBox="0 0 32 32">
<title>folder-drag-accept</title>
<path d="M2.029 1.999c-1.105 0-2.001 0.896-2.001 2.001v0 11.667c-0.017 0.098-0.027 0.211-0.027 0.326s0.010 0.228 0.028 0.338l-0.002-0.012v9.687s-0.028 0.918 0.46 1.895c0.492 0.978 1.877 2.107 3.543 2.107h3.665c0.098 0.017 0.211 0.027 0.326 0.027s0.228-0.010 0.338-0.028l-0.012 0.002h19.689s0.918 0.028 1.897-0.46c0.976-0.49 2.105-1.875 2.105-3.541v-4.001c0-1.105-0.896-2.001-2.001-2.001v0h-22.006c-1.105 0-2.001 0.896-2.001 2.001v0 4.001h-2.001v-8.002h22.006c1.105 0 2.001-0.896 2.001-2.001v0-8.002c0-1.105-0.896-2.001-2.001-2.001v0h-9.177l-3.415-3.415c-0.362-0.362-0.862-0.586-1.414-0.586h-0zM4.029 6h7.174l3.415 3.415c0.362 0.362 0.862 0.586 1.414 0.586h8.002v4.001h-20.005zM10.031 24.005h18.005v2.001h-18.005z"></path>
<path d="M2.029 20.003h2.001s0-2.001 2.001-2.001l20.005-2.001v-8.002h-10.003l-4.001-4.001h-10.003z"></path>
<path d="M8.030 22.004h22.006v6.002h-22.006zM26.035 16.002h2.001v2.001h-2.001zM30.036 20.003h2.001v2.001h-2.001zM6.030 20.003h2.001v2.001h-2.001z"></path>
</svg>
