<!-- Generated by IcoMoon.io -->
<svg version="1.1" xmlns="http://www.w3.org/2000/svg" width="32" height="32" viewBox="0 0 32 32">
<title>folder-music</title>
<path d="M7.009 16.030c-3.843 0-7.008 3.101-7.008 6.944s3.165 7.008 7.008 7.008c3.843 0 7.008-3.165 7.008-7.008s-3.165-6.944-7.008-6.944zM7.009 20.016c1.681 0 3.022 1.277 3.022 2.957s-1.341 3.022-3.022 3.022c-1.681 0-3.022-1.341-3.022-3.022s1.341-2.957 3.022-2.957z"></path>
<path d="M23.012 16.030c-3.843 0-7.008 3.101-7.008 6.944s3.165 7.008 7.008 7.008c3.843 0 7.008-3.165 7.008-7.008s-3.165-6.944-7.008-6.944zM23.012 20.016c1.681 0 3.022 1.277 3.022 2.957s-1.341 3.022-3.022 3.022c-1.681 0-3.022-1.341-3.022-3.022s1.341-2.957 3.022-2.957z"></path>
<path d="M10.002 4.001h4.001v19.034h-4.001v-19.034z"></path>
<path d="M26.004 4.001h4.001v19.128h-4.001v-19.128z"></path>
<path d="M10.002 4.001h20.003v4.001h-20.003v-4.001z"></path>
</svg>
