<!-- Generated by IcoMoon.io -->
<svg version="1.1" xmlns="http://www.w3.org/2000/svg" width="32" height="32" viewBox="0 0 32 32">
<title>font-select</title>
<path d="M0 10.001v2c0 0.514 0.26 1.057 0.625 1.438l2.563 2.563-2.563 2.563c-0.365 0.381-0.625 0.924-0.625 1.438v2h2c0.619 0 1.105-0.181 1.5-0.563l5.313-5.438-5.313-5.438c-0.395-0.382-0.881-0.563-1.5-0.563h-2z"></path>
<path d="M32.006 10.001v2c0 0.514-0.26 1.057-0.625 1.438l-2.563 2.563 2.563 2.563c0.365 0.381 0.625 0.924 0.625 1.438v2h-2c-0.619 0-1.105-0.181-1.5-0.563l-5.313-5.438 5.313-5.438c0.395-0.382 0.881-0.563 1.5-0.563h2z"></path>
<path d="M14.002 6.001v4.001h3.813c-0.11 0 0.187 0.342 0.187 0.187v1.875h-2c-3.432 0-6.077 2.22-6.126 4.938-0.025 1.359 0.639 2.707 1.75 3.626s2.62 1.438 4.376 1.438h6.001v-11.877c0-2.343-1.794-4.188-4.188-4.188h-3.813zM16.003 16.065h2v2h-2c-1.039 0-1.56-0.291-1.813-0.5s-0.315-0.356-0.313-0.5c0.006-0.288 0.185-1 2.125-1z"></path>
</svg>
