<!-- Generated by IcoMoon.io -->
<svg version="1.1" xmlns="http://www.w3.org/2000/svg" width="32" height="32" viewBox="0 0 32 32">
<title>font-select</title>
<path d="M0 10.002v2c0 0.514 0.26 1.056 0.626 1.438l2.56 2.562-2.558 2.562c-0.368 0.38-0.628 0.924-0.628 1.438v2h2c0.62 0 1.104-0.18 1.5-0.562l5.313-5.439-5.313-5.439c-0.396-0.38-0.88-0.562-1.5-0.562zM32.005 10.002v2c0 0.514-0.26 1.056-0.624 1.438l-2.564 2.562 2.564 2.562c0.364 0.38 0.624 0.924 0.624 1.438v2h-2c-0.62 0-1.104-0.18-1.5-0.562l-5.313-5.439 5.313-5.439c0.396-0.38 0.88-0.562 1.5-0.562z"></path>
<path d="M14.002 6.025v4.001h3.841c-0.11 0 0.168 0.318 0.168 0.164v1.848h-2.008c-3.433 0-6.061 2.25-6.109 4.969-0.026 1.36 0.61 2.726 1.72 3.645 1.112 0.92 2.632 1.4 4.389 1.4h6.009v-11.862c0-2.342-1.774-4.165-4.169-4.165zM16.002 16.038h2.008v2.010h-2.008c-1.040 0-1.588-0.274-1.84-0.484-0.252-0.208-0.272-0.344-0.268-0.488 0.006-0.288 0.168-1.040 2.108-1.040z"></path>
</svg>
