<!-- Generated by IcoMoon.io -->
<svg version="1.1" xmlns="http://www.w3.org/2000/svg" width="32" height="32" viewBox="0 0 32 32">
<title>format-text-direction</title>
<path d="M4.001 0v4.001h12.002c0.856 0 2 1.228 2 2v2h-10.002c-1.84 0-3.471 0.768-4.501 1.938-0.932 1.057-1.501 2.453-1.501 3.983 0 0.028 0 0.056 0.001 0.084l-0-0.004c0.012 1.44 0.538 2.906 1.562 4.063 1.026 1.158 2.62 1.938 4.441 1.938h14.002v-14.002c0-3.314-2.687-6.001-6.001-6.001v0zM8.001 12.002h10.002v4.001h-10.002c-0.796 0-1.134-0.22-1.438-0.562-0.335-0.384-0.544-0.885-0.56-1.435l-0-0.003c-0.006-0.56 0.208-1.108 0.5-1.438 0.286-0.33 0.652-0.562 1.498-0.562z"></path>
<path d="M24.004 30.005h2c0.53 0 1.060-0.186 1.438-0.562l4.563-4.565v-1.748l-0.562-0.564-4.001-4.001c-0.364-0.348-0.858-0.562-1.403-0.562-0.012 0-0.025 0-0.037 0l0.002-0h-2v2c0 0.53 0.186 1.060 0.562 1.438l2.562 2.562-2.56 2.562c-0.349 0.364-0.564 0.859-0.564 1.405 0 0.012 0 0.024 0 0.035l-0-0.002v2z"></path>
<path d="M1.876 22.003v4.001h26.128v-4.001z"></path>
</svg>
