<!-- Generated by IcoMoon.io -->
<svg version="1.1" xmlns="http://www.w3.org/2000/svg" width="32" height="32" viewBox="0 0 32 32">
<title>format-text-italic</title>
<path d="M8.989 6.001v4.001h12.002c0.856 0 1.214 0.562 0.964 1.464l-0.702 2.536h-10.482c-3.679 0-6.263 2.686-7.013 5.481-0.376 1.4-0.348 2.954 0.476 4.311 0.824 1.354 2.504 2.21 4.321 2.21h13.522l3.731-13.466c0.87-3.14-1.456-6.537-4.817-6.537zM10.77 18.003h9.373l-1.11 4.001h-10.478c-0.796 0-0.818-0.144-0.906-0.29-0.088-0.144-0.188-0.588-0.028-1.19 0.324-1.206 1.46-2.52 3.15-2.52z"></path>
</svg>
