<!-- Generated by IcoMoon.io -->
<svg version="1.1" xmlns="http://www.w3.org/2000/svg" width="32" height="32" viewBox="0 0 32 32">
<title>gnome-power-manager</title>
<path d="M6.938 0c-0.981 0-1.592 0.458-2.063 0.939s-0.875 1.119-0.875 2.067l0 0.994h-4.001v28.004c0 0 14.002 0 14.002 0v-4.001l-9.903 0.099-0.099-20.102h4c0-1.331 0-4.001 0-4.001h6.001l-0 4.001h4.001l0 2h4.001l-0-6.001h-4.001v-0.806c-0.048-0.863-0.341-1.508-0.813-2.067-0.448-0.53-1.254-1.061-2.313-1.065v-0.063h-7.939z"></path>
<path d="M12.002 20.003h4.001c0.553-2.207 2.131-7.449 6.001-8.001h6.001v4.001h4.001v4.001h-4.001v4.001h4.001v4.001h-4.001v4.001h-6.001c-3.87-0.552-5.448-5.794-6.001-8.001h-4.001z"></path>
</svg>
