<!-- Generated by IcoMoon.io -->
<svg version="1.1" xmlns="http://www.w3.org/2000/svg" width="32" height="32" viewBox="0 0 32 32">
<title>go-bottom</title>
<path d="M7.415 6.587l-2.828 2.828 11.416 11.416 11.416-11.416-2.828-2.828-8.587 8.587zM4.005 21.971l-0.008 4.001 24.004 0.036 0.008-4.001-22.003-0.032z"></path>
<path d="M6.001 8.001v-2h-2v2zM28.004 8.001v-2h-2v2z"></path>
<path d="M28.004 8.001c0-1.108-0.892-2-2-2s-2 0.892-2 2 0.892 2 2 2 2-0.892 2-2zM8.001 8.001c0-1.108-0.892-2-2-2s-2 0.892-2 2 0.892 2 2 2 2-0.892 2-2z"></path>
</svg>
