<!-- Generated by IcoMoon.io -->
<svg version="1.1" xmlns="http://www.w3.org/2000/svg" width="32" height="32" viewBox="0 0 32 32">
<title>go-home</title>
<path d="M5.992 9.974c-1.091 0.018-1.968 0.906-1.968 2 0 0.010 0 0.020 0 0.030l-0-0.002v14.001c0 1.105 0.896 2 2 2v0h20.002c1.105 0 2-0.895 2-2v0-14.001c0-1.105-0.895-2-2-2s-2 0.896-2 2v0 12.001h-16.001v-12.001c0-0.008 0-0.018 0-0.028 0-1.105-0.896-2-2-2-0.011 0-0.023 0-0.034 0l0.002-0z"></path>
<path d="M16.063 2.001c-0.012-0-0.026-0-0.040-0-0.436 0-0.84 0.14-1.168 0.376l0.006-0.004-14.001 10.001c-0.51 0.367-0.838 0.959-0.838 1.628 0 1.105 0.896 2 2 2 0.436 0 0.839-0.139 1.168-0.376l-0.006 0.004 12.841-9.171 12.837 9.171c0.323 0.233 0.726 0.372 1.162 0.372 1.105 0 2-0.896 2-2 0-0.669-0.328-1.261-0.832-1.624l-0.006-0.004-14.001-10.001c-0.312-0.225-0.699-0.363-1.118-0.372l-0.002-0z"></path>
<path d="M12.025 16.002h6.001v12.001h-6z"></path>
<path d="M31.027 14.002c-0.552 0-1 0.448-1 1s0.448 1 1 1v0c0.552 0 1-0.448 1-1s-0.448-1-1-1v0zM1.024 14.002c-0.552 0-1 0.448-1 1s0.448 1 1 1v0c0.552 0 1-0.448 1-1s-0.448-1-1-1v0z"></path>
</svg>
