<!-- Generated by IcoMoon.io -->
<svg version="1.1" xmlns="http://www.w3.org/2000/svg" width="32" height="32" viewBox="0 0 32 32">
<title>go-home</title>
<path d="M5.576 10.001c-0.901 0.207-1.563 1.002-1.563 1.952 0 0.017 0 0.034 0.001 0.051l-0-0.002v14.003c0 1.105 0.896 2 2 2h20.004c1.105-0 2-0.896 2-2v0-14.003c0-0.008 0-0.018 0-0.028 0-1.105-0.896-2.001-2.001-2.001s-2.001 0.896-2.001 2.001c0 0.010 0 0.020 0 0.030l-0-0.002v12.002h-16.003v-12.002c0-0.014 0.001-0.031 0.001-0.048 0-1.105-0.896-2.001-2.001-2.001-0.155 0-0.306 0.018-0.451 0.051l0.013-0.003z"></path>
<path d="M15.828 2c-0.379 0.035-0.721 0.17-1.006 0.379l0.006-0.004-14.003 10.002c-0.503 0.37-0.825 0.96-0.825 1.625 0 1.112 0.901 2.013 2.013 2.013 0.447 0 0.859-0.145 1.193-0.392l-0.006 0.004 12.815-9.127 12.815 9.127c0.328 0.242 0.741 0.388 1.188 0.388 1.112 0 2.013-0.901 2.013-2.013 0-0.665-0.323-1.255-0.82-1.621l-0.006-0.004-14.003-10.002c-0.326-0.24-0.736-0.385-1.179-0.385-0.069 0-0.137 0.004-0.204 0.010l0.008-0.001z"></path>
<path d="M12.015 16.002h6.001v12.002h-6.001v-12.002z"></path>
<path d="M30.019 14.002h2c-1.105 0-2 0.896-2 2v-2c0 1.105 0.896 2 2 2h-2c1.105 0 2-0.896 2-2v2c0-1.105-0.896-2-2-2z"></path>
<path d="M0.013 14.002h2c-1.105 0-2 0.896-2 2v-2c0 1.105 0.896 2 2 2h-2c1.105 0 2-0.896 2-2v2c0-1.105-0.896-2-2-2z"></path>
</svg>
