<!-- Generated by IcoMoon.io -->
<svg version="1.1" xmlns="http://www.w3.org/2000/svg" width="32" height="32" viewBox="0 0 32 32">
<title>go-jump</title>
<path d="M13.002 4.001c-3.86 0.017-6.984 3.141-7.001 6.999v1.002h4.001v-1c0-1.68 1.32-3 3-3s3 1.32 3 3v13.002h4.001v-13.002c0-3.843-3.158-7.001-7.001-7.001z"></path>
<path d="M26.004 18.003h-2c-0.514 0-1.056 0.26-1.438 0.626l-4.563 4.561-4.563-4.561c-0.38-0.366-0.924-0.626-1.438-0.626h-2v2c0 0.62 0.18 1.104 0.562 1.5l7.439 7.313 7.439-7.313c0.38-0.396 0.562-0.88 0.562-1.5z"></path>
</svg>
