<!-- Generated by IcoMoon.io -->
<svg version="1.1" xmlns="http://www.w3.org/2000/svg" width="32" height="32" viewBox="0 0 32 32">
<title>go-last</title>
<path d="M9.415 4.587l-2.828 2.828 8.587 8.587-8.587 8.587 2.828 2.828 11.416-11.416zM22.007 3.997l-0.004 2-0.028 20.003-0.004 2 4.001 0.008 0.004-2 0.028-20.003 0.004-2z"></path>
<path d="M8.001 26.004h-2v2h2zM8.001 4.001h-2v2h2z"></path>
<path d="M8.001 4.001c-1.108 0-2 0.892-2 2s0.892 2 2 2 2-0.892 2-2-0.892-2-2-2zM8.001 24.004c-1.108 0-2 0.892-2 2s0.892 2 2 2 2-0.892 2-2-0.892-2-2-2z"></path>
</svg>
