<!-- Generated by IcoMoon.io -->
<svg version="1.1" xmlns="http://www.w3.org/2000/svg" width="32" height="32" viewBox="0 0 32 32">
<title>go-top</title>
<path d="M16.002 11.174l-11.416 11.416 2.828 2.828 8.587-8.587 8.587 8.587 2.828-2.828zM28 5.997l-24.004 0.036 0.008 4.001 24.004-0.036z"></path>
<path d="M6.001 24.004v2h-2v-2zM28.004 24.004v2h-2v-2z"></path>
<path d="M28.004 24.004c0 1.108-0.892 2-2 2s-2-0.892-2-2 0.892-2 2-2 2 0.892 2 2zM8.001 24.004c0 1.108-0.892 2-2 2s-2-0.892-2-2 0.892-2 2-2 2 0.892 2 2z"></path>
</svg>
