<!-- Generated by IcoMoon.io -->
<svg version="1.1" xmlns="http://www.w3.org/2000/svg" width="32" height="32" viewBox="0 0 32 32">
<title>goa-panel</title>
<path d="M8.064 2v8.001h-6.001c-1.091 0-1.938 0.847-1.938 1.938s0.847 2 1.938 2h6.001v4.126h-6.001c-1.091 0-1.938 0.847-1.938 1.938s0.847 2 1.938 2h6.001v8.001l2-0.187c7.351-0.689 11.535-8.047 11.877-13.752 0.473-0.133 1.061 0.022 1.375 0.375v0.062c0.329 0.315 0.749 0.822 1.25 1.313s1.207 0.958 2.125 1.063c0.944 0.080 1.777-0.316 2.313-0.938 0.523-0.606 0.799-1.415 0.75-2.25-0-0.022 0.001-0.041 0-0.062-0.073-2.018-1.469-3.384-2.438-4.438-0.655-0.718-1.039-1.583-0.813-2.25 0.196-0.572 0.926-0.983 1.625-0.938h0.125c1.146-0.040 1.41 0.006 2.625 0v-2c-1.124 0.006-1.473-0.037-2.625 0-0.027 0.001-0.034-0.001-0.062 0-1.487-0.073-3.024 0.735-3.563 2.313-0.573 1.693 0.344 3.257 1.25 4.251 1.013 1.102 1.852 2.105 1.875 3.188h0.062c0.020 0.254-0.116 0.647-0.313 0.875s-0.396 0.332-0.625 0.313c-0.334-0.038-0.589-0.222-0.938-0.563-0.34-0.332-0.708-0.784-1.188-1.25-0.014-0.014-0.049 0.014-0.062 0-0.731-0.791-1.805-1.214-2.813-1.125-0.894-6.238-5.825-10.94-11.814-11.814l-2-0.187zM10.064 6.188c4.086 0.855 7.411 4.239 7.939 8.626 0.627 5.217-2.783 10.051-7.939 11.064v-19.69z"></path>
<path d="M12.69 7.751c-1.556-0.262-2.425 2.672-0.589 1.639-0.046-1.86 1.364 0.182 0.153 0.532-0.91 0.179-1.311-0.141-1.885 0.91-0.714 0.745-0.363 2.388 0.639 1.014 0.78-0.578 1.259 1.567 1.183-0.042 0.149 0.328 0.751 1.019 1.21 0.717 1.133 0.222 1.244 1.324-0.032 1.058-1.271 0.231-3.302-1.876-3.327 0.524 0.040 1.3 0.014 2.6 0.022 3.901 1.906-0.694 1.917 2.155 1.828 3.44 0.185 1.006 0.326 3.799 1.85 2.413 0.981-1.393 1.871-2.746 1.695-4.508 0.463-0.701 1.912-2.726 0.126-2.593-0.668-0.516-1.397-3.44-0.377-1.625 0.092 1.534 1.478 1.964 2.059 0.417 0.701-0.786-1.839-0.95-0.617-1.396 0.897 1.14 1.863 0.052 1.059-0.989-0.747-1.598-1.679-4.351-3.444-4.595-0.542 0.442-0.992-0.268-0.246-0.4-0.373-0.271-0.926-0.155-1.308-0.418z"></path>
</svg>
