<!-- Generated by IcoMoon.io -->
<svg version="1.1" xmlns="http://www.w3.org/2000/svg" width="32" height="32" viewBox="0 0 32 32">
<title>help-faq</title>
<path d="M4.001 10.002c-2.216 0-4.001 1.784-4.001 4.001v14.002c0 2.216 1.784 4.001 4.001 4.001h18.003c2.216 0 4.001-1.784 4.001-4.001v-7.601l6.001-6.401h-6.001c0-2.216-1.784-4.001-4.001-4.001zM12.878 14.002c2.624-0.148 4.977 1.872 5.125 4.501 0 2.242-0.616 3.088-2.562 4.563-0.211 0.15-0.395 0.314-0.559 0.497l-0.003 0.003c-0.080 0.1-0.064 0.066-0.064 0.062 0.012 0.846-0.78 1.564-1.624 1.564-0.859-0.010-1.553-0.705-1.562-1.563v-0.001c0-0.802 0.358-1.508 0.75-2 0.33-0.424 0.7-0.794 1.11-1.114l0.014-0.011c0.326-0.256 0.762-0.628 1.126-1.062 0.148-0.18 0.194-0.48 0.186-0.688v-0.062c-0.036-0.839-0.725-1.505-1.569-1.505-0.041 0-0.082 0.002-0.123 0.005l0.005-0c-0.902 0.050-1.626 0.724-1.702 1.516-0.052 0.727-0.655 1.297-1.391 1.297-0.016 0-0.032-0-0.048-0.001l0.002 0c-0.74-0.004-1.363-0.5-1.559-1.177l-0.003-0.012c-0.020-0.141-0.032-0.304-0.032-0.469 0-0.211 0.019-0.418 0.055-0.618l-0.003 0.021c0.010-0.028 0.012-0.060 0.024-0.086 0.404-2.048 2.18-3.537 4.407-3.661zM13.19 26.816c0.884 0 1.624 0.74 1.624 1.626 0 0.884-0.74 1.562-1.624 1.562-0.008 0-0.017 0-0.026 0-0.848 0-1.536-0.688-1.536-1.536 0-0.009 0-0.018 0-0.028l-0 0.001c0-0.884 0.678-1.626 1.56-1.626zM4.001 2c-2.216 0-4.001 1.784-4.001 4.001v1.136c1.141-0.703 2.52-1.124 3.997-1.136l0.003-0h18.003c2.752 0 5.101 1.526 6.537 3.697l3.465-3.697h-6.001c0-2.216-1.784-4.001-4.001-4.001z"></path>
</svg>
