<!-- Generated by IcoMoon.io -->
<svg version="1.1" xmlns="http://www.w3.org/2000/svg" width="32" height="32" viewBox="0 0 32 32">
<title>help-contents</title>
<path d="M6.051 0l0.068 0.004c-0.047-0.002-0.103-0.003-0.159-0.003s-0.112 0.001-0.167 0.003l0.008-0h-0.040l-0.048 0.004c-2.079 0.133-3.715 1.852-3.715 3.953 0 0.046 0.001 0.091 0.002 0.136l-0-0.007v23.832c-0.001 0.036-0.002 0.079-0.002 0.122 0 2.188 1.774 3.963 3.963 3.963 0.043 0 0.086-0.001 0.128-0.002l-0.006 0h19.839c0.037 0.001 0.080 0.002 0.124 0.002 2.187 0 3.961-1.773 3.961-3.961 0-0.043-0.001-0.086-0.002-0.128l0 0.006v-17.923c-0.011-1.119-0.482-2.126-1.233-2.843l-0.002-0.001-5.915-5.917c-0.717-0.755-1.724-1.228-2.842-1.24l-0.002-0h-0.016zM6.017 4.001c-0.004-0.004 0.010 0 0.004 0h13.932c-0.020 0 0.028 0.022 0.014 0.008l6.029 6.033c-0.014-0.014 0.008 0.038 0.008 0.020v17.921c-0.002-0.16-0.186 0.020-0.024 0.024h-19.955c0.162-0.002-0.020-0.184-0.024-0.024v-23.96c0.002 0.11 0.054 0.010 0.016-0.020z"></path>
<path d="M16.002 9.755c-4.481 0-8.121 3.641-8.121 8.121 0 4.483 3.641 8.123 8.121 8.123s8.121-3.641 8.121-8.121c0-4.483-3.641-8.123-8.121-8.123zM16.002 11.756c0.010-0 0.022-0 0.034-0 3.362 0 6.087 2.725 6.087 6.087 0 0.012-0 0.024-0 0.036v-0.002c0 0.011 0 0.025 0 0.038 0 3.362-2.725 6.087-6.087 6.087-0.012 0-0.024-0-0.036-0h0.002c-0.010 0-0.022 0-0.034 0-3.362 0-6.087-2.725-6.087-6.087 0-0.012 0-0.024 0-0.036v0.002c-0-0.011-0-0.025-0-0.038 0-3.362 2.725-6.087 6.087-6.087 0.012 0 0.024 0 0.036 0h-0.002z"></path>
<path d="M16.002 13.878c-2.2 0-4.001 1.8-4.001 4.001 0 2.198 1.8 4.001 4.001 4.001s4.001-1.802 4.001-4.001c0-2.2-1.8-4.001-4.001-4.001zM16.002 15.878c1.126 0 2 0.874 2 2 0 1.124-0.874 2-2 2s-2-0.876-2-2c0-1.126 0.874-2 2-2z"></path>
<path d="M12.664 11.202c-1.533 0.628-2.724 1.828-3.324 3.328l-0.014 0.040 3.817 1.908c0.258-0.659 0.755-1.177 1.382-1.456l0.017-0.007zM19.341 11.202l-1.878 3.815c0.644 0.272 1.142 0.81 1.4 1.462l3.815-1.908c-0.615-1.54-1.805-2.74-3.299-3.354l-0.040-0.014zM13.14 19.341l-3.815 1.906c0.618 1.514 1.82 2.696 3.341 3.306l1.906-3.815c-0.645-0.267-1.151-0.762-1.424-1.383l-0.007-0.017zM18.863 19.341c-0.266 0.632-0.792 1.138-1.43 1.398l1.908 3.815c1.521-0.617 2.708-1.793 3.324-3.267l0.015-0.040z"></path>
</svg>
