<!-- Generated by IcoMoon.io -->
<svg version="1.1" xmlns="http://www.w3.org/2000/svg" width="32" height="32" viewBox="0 0 32 32">
<title>help-contents</title>
<path d="M6.050 0l0.066 0.004c-0.083-0.002-0.167-0.002-0.25 0-0.022 0-0.044-0.001-0.066 0l0.066 3.996-0.156-3.992c-2.171 0.169-3.749 1.906-3.711 4.082v23.828c-0.034 2.319 1.762 4.116 4.082 4.082h19.836c2.32 0.034 4.116-1.764 4.082-4.082v-17.918c-0.016-1.085-0.45-2.090-1.234-2.844l-5.914-5.918c-0.753-0.785-1.756-1.223-2.844-1.238h-0.016zM6.015 4c-0.004-0.004 0.010 0.002 0.004 0h13.93c-0.020-0 0.029 0.022 0.016 0.008l6.028 6.032c-0.014-0.014 0.008 0.037 0.008 0.020v17.918c-0.002-0.159-0.187 0.021-0.023 0.023h-19.954c0.163-0.002-0.021-0.183-0.023-0.023v-23.958c0.002 0.112 0.054 0.012 0.016-0.020z"></path>
<path d="M16 9.754c-4.482 0-8.121 3.64-8.121 8.121s3.64 8.121 8.121 8.121c4.482 0 8.121-3.64 8.121-8.121s-3.64-8.121-8.121-8.121zM16 11.754c3.408 0 6.121 2.713 6.121 6.121s-2.713 6.121-6.121 6.121c-3.408 0-6.121-2.713-6.121-6.121s2.713-6.121 6.121-6.121z"></path>
<path d="M16 13.875c-2.199 0-4 1.801-4 4s1.801 4 4 4c2.199 0 4-1.801 4-4s-1.801-4-4-4zM16 15.875c1.125 0 2 0.875 2 2s-0.875 2-2 2c-1.125 0-2-0.875-2-2s0.875-2 2-2z"></path>
<path d="M12.662 11.199c-1.536 0.618-2.727 1.83-3.338 3.37l3.815 1.907c0.256-0.651 0.755-1.191 1.399-1.462zM19.338 11.199l-1.876 3.815c0.643 0.272 1.142 0.811 1.399 1.462l3.815-1.907c-0.61-1.54-1.801-2.752-3.338-3.37zM13.139 19.337l-3.815 1.907c0.618 1.514 1.82 2.696 3.338 3.306l1.907-3.815c-0.638-0.26-1.163-0.765-1.431-1.399zM18.861 19.337c-0.267 0.634-0.793 1.139-1.43 1.399l1.907 3.815c1.518-0.61 2.72-1.792 3.338-3.306z"></path>
</svg>
