<!-- Generated by IcoMoon.io -->
<svg version="1.1" xmlns="http://www.w3.org/2000/svg" width="32" height="32" viewBox="0 0 32 32">
<title>help-faq</title>
<path d="M4 10c-2.216 0-4 1.784-4 4v14c0 2.216 1.784 4 4 4h18c2.216 0 4-1.784 4-4v-7.602l6-6.398h-6c0-2.216-1.784-4-4-4zM12.875 14c2.628-0.147 4.978 1.872 5.125 4.5-0 2.242-0.617 3.087-2.563 4.563-0.305 0.23-0.483 0.401-0.563 0.5s-0.062 0.066-0.062 0.062c0.012 0.845-0.78 1.563-1.625 1.563s-1.574-0.717-1.563-1.563c0-0.804 0.359-1.509 0.75-2s0.761-0.851 1.125-1.125c0.326-0.257 0.762-0.628 1.125-1.063 0.15-0.179 0.194-0.48 0.187-0.688v-0.062c-0.051-0.901-0.786-1.551-1.688-1.5s-1.625 0.724-1.702 1.516c-0.077 0.792-0.684 1.297-1.435 1.297s-1.358-0.505-1.563-1.188c-0.053-0.392-0.034-0.813 0.020-1.066 0.010-0.028 0.012-0.059 0.023-0.086 0.405-2.048 2.18-3.535 4.406-3.66zM13.188 26.813c0.884 0 1.625 0.741 1.625 1.625s-0.741 1.563-1.625 1.563c-0.884 0-1.563-0.679-1.563-1.563s0.679-1.625 1.563-1.625z"></path>
<path d="M4 2c-2.216 0-4 1.784-4 4v1.137c1.186-0.702 2.544-1.137 4-1.137h18c2.752 0 5.1 1.526 6.535 3.695l3.465-3.695h-6c0-2.216-1.784-4-4-4z"></path>
</svg>
