<!-- Generated by IcoMoon.io -->
<svg version="1.1" xmlns="http://www.w3.org/2000/svg" width="32" height="32" viewBox="0 0 32 32">
<title>image-x-generic</title>
<path d="M2.062 2.063v27.942h27.942v-27.942h-27.942zM6.063 6.063h19.941v19.941h-19.941v-19.941z"></path>
<path d="M19.065 16.628c-0.933-0.129-2.092-0.259-3.063 0.5-0.806 0.631-1.531 1.454-2.188 2.063s-1.32 0.875-1.188 0.875h-7.689v2h7.689c1.164 0 1.772-0.763 2.5-1.438s1.502-1.388 2.125-1.875c0.213-0.166 0.817-0.29 1.563-0.187s1.399 0.375 2.188 0.375c0.293 0 0.408 0.066 0.625 0.25s0.481 0.488 0.75 0.875c0.269 0.387 0.564 0.843 1 1.25s1.123 0.75 1.875 0.75h1.688v-2h-1.688c-0.198 0-0.303-0.004-0.5-0.187s-0.471-0.536-0.75-0.938-0.584-0.843-1.063-1.25c-0.479-0.407-1.155-0.75-1.938-0.75-0.066 0-1.005-0.184-1.938-0.313z"></path>
<path d="M10.881 7.768c-1.721 0-3.113 1.445-3.113 3.166s1.392 3.113 3.113 3.113c1.721 0 3.166-1.392 3.166-3.113s-1.445-3.166-3.166-3.166zM10.881 9.773c0.64 0 1.161 0.521 1.161 1.161s-0.521 1.108-1.161 1.108c-0.64 0-1.108-0.468-1.108-1.108s0.468-1.161 1.108-1.161z"></path>
</svg>
