<!-- Generated by IcoMoon.io -->
<svg version="1.1" xmlns="http://www.w3.org/2000/svg" width="32" height="32" viewBox="0 0 32 32">
<title>input-gaming</title>
<path d="M4.493 6.001c-0.306 0-0.512 0.146-0.582 0.406l-3.39 17.245c-0.45 1.692 3.122 3.715 5.481 2.352l5.501-8.001h9.001l5.501 8.001c2.356 1.36 5.931-0.66 5.477-2.352l-3.386-17.243c-0.070-0.262-0.28-0.408-0.582-0.408zM8.501 8.001h1c0.276 0 0.5 0.224 0.5 0.5v0 1.5h1.5c0.276 0 0.5 0.224 0.5 0.5v0 1c0 0.276-0.224 0.5-0.5 0.5v0h-1.5v1.5c0 0.276-0.224 0.5-0.5 0.5v0h-1c-0.276 0-0.5-0.224-0.5-0.5v0-1.5h-1.5c-0.276 0-0.5-0.224-0.5-0.5v0-1c0-0.276 0.224-0.5 0.5-0.5v0h1.5v-1.5c0-0.276 0.224-0.5 0.5-0.5v0zM22.931 8.001c0.011-0 0.023-0.001 0.036-0.001s0.025 0 0.038 0.001l-0.002-0c0.552 0 1 0.448 1 1v0c0 0.552-0.448 1-1 1v0c-0.552 0-1-0.448-1-1v0c0-0.001 0-0.002 0-0.003 0-0.527 0.408-0.959 0.925-0.997l0.003-0zM20.931 10.002c0.011-0 0.023-0.001 0.036-0.001s0.025 0 0.038 0.001l-0.002-0c0.552 0 1 0.448 1 1v0c0 0.552-0.448 1-1 1v0c-0.552 0-1-0.448-1-1v0c0-0.001 0-0.002 0-0.003 0-0.527 0.408-0.959 0.925-0.997l0.003-0zM24.932 10.002c0.011-0 0.023-0.001 0.036-0.001s0.025 0 0.038 0.001l-0.002-0c0.552 0 1 0.448 1 1v0c0 0.552-0.448 1-1 1v0c-0.552 0-1-0.448-1-1v0c0-0.001 0-0.002 0-0.003 0-0.527 0.408-0.959 0.925-0.997l0.003-0zM22.931 12.002c0.011-0 0.023-0.001 0.036-0.001s0.025 0 0.038 0.001l-0.002-0c0.552 0 1 0.448 1 1v0c0 0.552-0.448 1-1 1v0c-0.552 0-1-0.448-1-1v0c0-0.001 0-0.002 0-0.003 0-0.527 0.408-0.959 0.925-0.997l0.003-0z"></path>
</svg>
