<!-- Generated by IcoMoon.io -->
<svg version="1.1" xmlns="http://www.w3.org/2000/svg" width="33" height="32" viewBox="0 0 33 32">
<title>input-tablet</title>
<path d="M16.509 0.005l-2.004 0.055 0.062 1c0.094 0.931-0.405 1.94-1.188 2.438-0.706 0.498-1.81 0.397-3.188 0.438-0.697 0.006-1.406 0.168-2.063 0.563s-1.3 1.094-1.438 2.001c-0.317 1.785 0.908 3.268 2.313 3.564 1.615 0.352 3.29 0.151 5.252 0 0.512-0.039 1.201 0.041 1.625 0.25 0.668 0.522 0.569 0.806 0.563 1.751h-11.316l-0.438 1.438-3.939 14.004-0.75 2.563h33.072l-0.75-2.563-3.627-12.058-3.173 3.074 2.299 7.546h-22.569l2.876-10.003h6.627l3.689-3.939v-1c-0.006-1.223-0.812-2.194-1.688-2.626s-1.861-0.501-2.688-0.438c-1.992 0.154-3.48 0.25-4.626 0h-0.062c-0.399-0.084-0.835-0.42-0.688-1.25 0.038-0.249 0.155-0.393 0.438-0.563s0.705-0.31 1.063-0.313h0.062c1.128-0.033 2.755 0.235 4.189-0.813 1.638-1.197 2.308-2.791 2.126-4.251z"></path>
<path d="M28.532 8.707c-0.818-0.818-2.144-0.818-2.962 0-0.070 0.071-0.134 0.147-0.193 0.227l-9.908 9.908-0.901 3.797 3.742-0.78 10.002-10.002c0.078-0.057 0.152-0.12 0.221-0.188 0.818-0.818 0.818-2.144 0-2.962z"></path>
</svg>
