<!-- Generated by IcoMoon.io -->
<svg version="1.1" xmlns="http://www.w3.org/2000/svg" width="32" height="32" viewBox="0 0 32 32">
<title>input-touchpad</title>
<path d="M6.063 2c-3.344 0.009-6.053 2.718-6.061 6.062v15.879c0.008 3.344 2.715 6.053 6.058 6.063h17.88c3.346-0.007 6.057-2.717 6.065-6.062v-15.881c-0.009-3.344-2.717-6.052-6.060-6.061h-0.001zM6.063 6.001h17.879c1.192 0 2.062 0.87 2.062 2.062v11.94h-22.003v-11.94c0-1.192 0.872-2.062 2.062-2.062zM4.003 22.003h10.002v4.001h-7.943c-1.19 0-2.060-0.87-2.060-2.062zM16.004 22.003h10.002v1.938c0 1.192-0.872 2.062-2.064 2.062h-7.939z"></path>
<path d="M4.001 6.001h22.003v14.002h-22.003z"></path>
</svg>
