<!-- Generated by IcoMoon.io -->
<svg version="1.1" xmlns="http://www.w3.org/2000/svg" width="32" height="32" viewBox="0 0 32 32">
<title>insert-image</title>
<path d="M4.001 0v18.003h24.004v-18.003zM8.001 4.001h16.002v10.002h-16.002z"></path>
<path d="M10.002 10.002c4.642 2 6.090-3.32 12.002 0v2h-12.002z"></path>
<path d="M22.010 22.081h-2.003c-0.514 0-1.058 0.26-1.439 0.626l-2.566 2.566-2.566-2.566c-0.381-0.366-0.925-0.626-1.439-0.626h-2.003l-0 2.003c0 0.62 0.181 1.106 0.563 1.502l5.444 5.319 5.444-5.319c0.382-0.396 0.563-0.882 0.563-1.502v-2.003z"></path>
</svg>
