<!-- Generated by IcoMoon.io -->
<svg version="1.1" xmlns="http://www.w3.org/2000/svg" width="32" height="32" viewBox="0 0 32 32">
<title>insert-text</title>
<path d="M22.004 24.004h-2c-0.514 0-1.057 0.236-1.438 0.567l-2.563 2.327-2.563-2.327c-0.38-0.332-0.924-0.567-1.438-0.567h-2l-0 1.816c0 0.562 0.18 1.003 0.563 1.362l5.438 4.823 5.438-4.823c0.382-0.359 0.563-0.8 0.563-1.362v-1.816z"></path>
<path d="M8.001-0v4.001h12.002c0.856 0 2 1.228 2 2v2h-10.002c-1.839 0-3.472 0.768-4.501 1.938s-1.513 2.622-1.5 4.063c0.013 1.441 0.538 2.906 1.563 4.063s2.621 1.938 4.438 1.938h14.002v-14.002c0-3.269-2.64-6.001-6.001-6.001h-12.002zM12.002 12.002h10.002v4.001h-10.002c-0.796 0-1.134-0.22-1.438-0.563s-0.558-0.879-0.563-1.438c-0.005-0.559 0.209-1.107 0.5-1.438s0.655-0.563 1.5-0.563z"></path>
</svg>
