<!-- Generated by IcoMoon.io -->
<svg version="1.1" xmlns="http://www.w3.org/2000/svg" width="32" height="32" viewBox="0 0 32 32">
<title>insert-object</title>
<path d="M16.002 0l-10.002 6.287v9.429l10.002 6.287 10.002-6.287v-9.429zM16.002 12.002l-7.291-4.353 7.291-4.585 7.293 4.585z"></path>
<path d="M22.003 24.004h-2c-0.514 0-1.056 0.236-1.438 0.568l-2.56 2.326-2.564-2.326c-0.383-0.338-0.884-0.55-1.434-0.568l-0.004-0h-2v1.816c0 0.56 0.18 1.002 0.562 1.36l5.441 4.825 5.437-4.823c0.347-0.322 0.564-0.781 0.564-1.291 0-0.025-0.001-0.050-0.002-0.075l0 0.004v-1.816z"></path>
</svg>
