<!-- Generated by IcoMoon.io -->
<svg version="1.1" xmlns="http://www.w3.org/2000/svg" width="32" height="32" viewBox="0 0 32 32">
<title>insert-text</title>
<path d="M22.003 24.004h-2c-0.514 0-1.056 0.236-1.438 0.568l-2.56 2.326-2.564-2.326c-0.383-0.338-0.884-0.55-1.434-0.568l-0.004-0h-2v1.816c0 0.56 0.18 1.002 0.562 1.36l5.441 4.825 5.437-4.823c0.347-0.322 0.564-0.781 0.564-1.291 0-0.025-0.001-0.050-0.002-0.075l0 0.004v-1.816z"></path>
<path d="M8.001 0v4.001h12.002c0.856 0 2 1.228 2 2v2h-10.002c-1.84 0-3.473 0.76-4.501 1.93-0.916 1.058-1.473 2.447-1.473 3.966 0 0.044 0 0.087 0.001 0.131l-0-0.007c0 0.002 0 0.005 0 0.007 0 1.553 0.574 2.971 1.522 4.055l-0.006-0.007c1.024 1.158 2.64 1.926 4.457 1.926h14.002v-14.002c0-3.314-2.687-6.001-6.001-6.001v0zM12.002 12.002h10.002v4.001h-10.002c-0.796 0-1.158-0.232-1.46-0.574-0.319-0.389-0.512-0.891-0.512-1.438 0-0.003 0-0.005 0-0.008v0c-0.006-0.56 0.186-1.080 0.476-1.41s0.652-0.57 1.496-0.57z"></path>
</svg>
