<!-- Generated by IcoMoon.io -->
<svg version="1.1" xmlns="http://www.w3.org/2000/svg" width="32" height="32" viewBox="0 0 32 32">
<title>mail-attachment</title>
<path d="M11.971 10.032c-1.092-0.017-1.97-0.906-1.97-2 0-0.011 0-0.021 0-0.032l-0 0.002c0-2.852 1.52-5.496 3.984-6.927 1.145-0.674 2.523-1.073 3.993-1.073s2.848 0.398 4.031 1.093l-0.037-0.020c2.401 1.413 3.988 3.985 3.988 6.926v0c0 1.105-0.895 2-2 2s-2-0.896-2-2v0c0-1.434-0.76-2.75-1.992-3.464-0.569-0.337-1.255-0.536-1.987-0.536s-1.418 0.199-2.006 0.546l0.018-0.010c-1.2 0.705-1.992 1.989-1.992 3.457 0 0.002 0 0.005 0 0.007v-0c0 0.008 0 0.018 0 0.028 0 1.105-0.896 2-2 2-0.011 0-0.021-0-0.032-0l0.002 0zM15.001 24.005c-2.755-0.017-4.984-2.246-5-4.999v-0.002c0-1.105 0.896-2 2-2s2 0.895 2 2v0c0 0.576 0.424 1 1 1s1-0.424 1-1c0-1.105 0.895-2 2-2s2 0.895 2 2v0c0 2.74-2.26 5-5 5z"></path>
<path d="M17.972 9.978c-1.092 0.017-1.97 0.906-1.97 2 0 0.009 0 0.017 0 0.026v-0.001 6.941c0 1.105 0.895 2 2 2s2-0.895 2-2v0-6.939c0-0.008 0-0.017 0-0.026 0-1.105-0.895-2-2-2-0.011 0-0.021 0-0.032 0l0.002-0zM23.972 5.978c-1.092 0.017-1.97 0.906-1.97 2 0 0.009 0 0.017 0 0.026v-0.001 13.635c0 1.105 0.895 2 2 2s2-0.895 2-2v0-13.635c0-0.008 0-0.017 0-0.026 0-1.105-0.895-2-2-2-0.011 0-0.021 0-0.032 0l0.002-0zM11.971 5.978c-1.092 0.017-1.97 0.906-1.97 2 0 0.009 0 0.017 0 0.026v-0.001 10.813c0 1.105 0.896 2 2 2s2-0.895 2-2v0-10.811c0-0.008 0-0.017 0-0.026 0-1.105-0.896-2-2-2-0.011 0-0.021 0-0.032 0l0.002-0zM5.971 7.978c-1.092 0.017-1.97 0.906-1.97 2 0 0.009 0 0.017 0 0.026v-0.001 12.001c0 1.105 0.896 2 2 2s2-0.895 2-2v0-12.001c0-0.008 0-0.017 0-0.026 0-1.105-0.896-2-2-2-0.011 0-0.021 0-0.032 0l0.002-0z"></path>
<path d="M24.076 19.983c-0.017-0.001-0.037-0.001-0.058-0.001-0.663 0-1.251 0.323-1.615 0.819l-0.004 0.006-5.398 7.201h-4.012l-5.398-7.089c-0.367-0.515-0.962-0.847-1.635-0.847-1.105 0-2 0.895-2 2 0 0.484 0.172 0.927 0.457 1.273l-0.003-0.003 6.001 7.877c0.369 0.48 0.944 0.786 1.59 0.786 0 0 0 0 0.001 0h6c0.652 0 1.231-0.312 1.596-0.795l0.004-0.005 6.001-8.001c0.26-0.334 0.417-0.76 0.417-1.223 0-1.085-0.863-1.968-1.941-1.999l-0.003-0z"></path>
</svg>
