<!-- Generated by IcoMoon.io -->
<svg version="1.1" xmlns="http://www.w3.org/2000/svg" width="32" height="32" viewBox="0 0 32 32">
<title>mail-unread</title>
<path d="M5.563 8.001c-0.926 0.188-1.613 0.995-1.613 1.963 0 0.652 0.312 1.232 0.795 1.597l0.005 0.004 11.252 9.001 11.252-9.001c0.46-0.37 0.752-0.932 0.752-1.563 0-1.105-0.896-2.001-2.001-2.001-0.475 0-0.911 0.165-1.254 0.442l0.004-0.003-8.751 7.001-8.751-7.001c-0.347-0.296-0.8-0.476-1.296-0.476-0.139 0-0.274 0.014-0.405 0.041l0.013-0.002z"></path>
<path d="M3.813 6.001c-1.021 0.099-1.813 0.953-1.813 1.992 0 0.003 0 0.006 0 0.009v-0 18.003c0 1.105 0.896 2 2 2h24.004c1.105-0 2-0.896 2-2v0-18.003c-0-1.105-0.896-2-2-2h-24.004c-0.028-0.001-0.061-0.002-0.094-0.002s-0.066 0.001-0.098 0.002l0.005-0zM6.001 10.002h20.003v14.002h-20.003v-14.002z"></path>
</svg>
