<!-- Generated by IcoMoon.io -->
<svg version="1.1" xmlns="http://www.w3.org/2000/svg" width="32" height="32" viewBox="0 0 32 32">
<title>mail-send-receive</title>
<path d="M18.003 14.002v-2c0-0.53-0.186-1.060-0.562-1.438l-6.563-6.563h-1.75l-0.564 0.562-6.001 6.001c-0.347 0.364-0.56 0.857-0.56 1.401 0 0.013 0 0.026 0 0.040l-0-0.002-0.002 2h2c0.53 0 1.060-0.186 1.438-0.562l4.563-4.563 4.563 4.561c0.376 0.378 0.908 0.564 1.44 0.564h2z"></path>
<path d="M8.001 8.001v14.002h4.001v-14.002z"></path>
<path d="M30.005 16.002v2c0 0.53-0.186 1.060-0.562 1.438l-6.563 6.563h-1.75l-0.564-0.562-6.001-6.001c-0.347-0.364-0.56-0.857-0.56-1.401 0-0.013 0-0.026 0-0.040l-0 0.002-0.002-2h2c0.53 0 1.060 0.186 1.438 0.562l4.563 4.563 4.563-4.561c0.376-0.378 0.908-0.564 1.44-0.564h2z"></path>
<path d="M20.003 8.001v14.002h4.001v-14.002z"></path>
</svg>
