<!-- Generated by IcoMoon.io -->
<svg version="1.1" xmlns="http://www.w3.org/2000/svg" width="32" height="32" viewBox="0 0 32 32">
<title>mail-replied</title>
<path d="M16.003 10.001l-2 0c-0.531 0-1.061 0.186-1.438 0.563l-6.564 6.563v1.75l6.564 6.564c0.376 0.376 0.907 0.563 1.438 0.563l2 0v-2c0-0.531-0.186-1.061-0.563-1.438l-4.563-4.563 4.563-4.563c0.376-0.376 0.563-0.907 0.563-1.438v-2z"></path>
<path d="M24.004 8.001v5.001c0 1.681-1.32 3-3 3h-11.002v4.001h11.002c3.843 0 7.001-3.158 7.001-7.001v-5.001h-4.001z"></path>
</svg>
