<!-- Generated by IcoMoon.io -->
<svg version="1.1" xmlns="http://www.w3.org/2000/svg" width="32" height="32" viewBox="0 0 32 32">
<title>mail-send</title>
<path d="M2 0v4.001c1.105 0 2 0.896 2 2s-0.896 2-2 2v2c1.105 0 2 0.896 2 2s-0.896 2-2 2v2c1.105 0 2 0.896 2 2s-0.896 2-2 2v2c1.105 0 2 0.896 2 2s-0.896 2-2 2v4.001h4.001c0-1.105 0.896-2 2-2s2 0.896 2 2h2c0-1.105 0.896-2 2-2s2 0.896 2 2h2c0-1.105 0.896-2 2-2s2 0.896 2 2h2c0-1.105 0.896-2 2-2s2 0.896 2 2h4.001v-4.001c-1.105 0-2-0.896-2-2s0.896-2 2-2v-2c-1.105 0-2-0.896-2-2s0.896-2 2-2v-2c-1.105 0-2-0.896-2-2s0.896-2 2-2v-2c-1.105 0-2-0.896-2-2s0.896-2 2-2v-4.001h-4.001c0 1.105-0.896 2-2 2s-2-0.896-2-2h-2c0 1.105-0.896 2-2 2s-2-0.896-2-2h-2c0 1.105-0.896 2-2 2s-2-0.896-2-2h-2c0 1.105-0.896 2-2 2s-2-0.896-2-2h-4.001zM6.001 4.001h22.003v22.003h-4.001v-4.126c0-2.134-1.558-3.961-3.438-4.501-0.988 0.959-2.141 1.375-3.563 1.375s-2.575-0.416-3.563-1.375c-1.553 0.559-3.436 1.954-3.438 4.438v4.188h-4.001v-22.003z"></path>
<path d="M21.619 12.617c0 2.549-2.067 4.616-4.616 4.616s-4.616-2.067-4.616-4.616v0c0-2.549 2.067-4.616 4.616-4.616s4.616 2.067 4.616 4.616v0z"></path>
</svg>
