<!-- Generated by IcoMoon.io -->
<svg version="1.1" xmlns="http://www.w3.org/2000/svg" width="32" height="32" viewBox="0 0 32 32">
<title>mail-mark-important</title>
<path d="M3.561 3.441c-0.924 0.189-1.61 0.995-1.61 1.962 0 0.651 0.311 1.23 0.793 1.595l0.005 0.004 11.254 9.001 11.252-9.001c0.459-0.37 0.751-0.932 0.751-1.562 0-1.105-0.896-2.001-2.001-2.001-0.475 0-0.911 0.165-1.254 0.442l0.004-0.003-8.751 7.001-8.751-7.001c-0.347-0.296-0.8-0.477-1.296-0.477-0.138 0-0.273 0.014-0.403 0.041l0.013-0.002z"></path>
<path d="M1.626 2c-0.918 0.176-1.642 1.068-1.626 2v18.003c0 1.048 0.954 2 2 2h12.002v-4.001h-10.002v-14.002h20.003v8.001h4.001v-10.002c0-1.046-0.952-2-2-2h-24.004c-0.028-0.001-0.061-0.002-0.094-0.002s-0.066 0.001-0.099 0.002l0.005-0c-0.028-0.001-0.060-0.001-0.093-0.001s-0.065 0.001-0.098 0.002l0.005-0z"></path>
<path d="M17.753 16.142c-0.009-0-0.019-0-0.030-0-0.95 0-1.72 0.77-1.72 1.72 0 0.004 0 0.009 0 0.013v-0.001 12.392c-0 0.005-0 0.011-0 0.016 0 0.95 0.77 1.72 1.72 1.72 0.011 0 0.021-0 0.032-0l-0.002 0h12.502c0.009 0 0.020 0 0.030 0 0.95 0 1.72-0.77 1.72-1.72 0-0.006-0-0.011-0-0.017v0.001-12.39c0-0.005 0-0.011 0-0.016 0-0.95-0.77-1.72-1.72-1.72-0.011 0-0.021 0-0.032 0l0.002-0zM22.003 18.123h4.001v7.933h-4.001zM22.003 28.038h4.001v1.982h-4.001z"></path>
</svg>
