<!-- Generated by IcoMoon.io -->
<svg version="1.1" xmlns="http://www.w3.org/2000/svg" width="32" height="32" viewBox="0 0 32 32">
<title>media-seek-backward</title>
<path d="M13.942 8.001c-0.359 0.012-0.692 0.117-0.977 0.291l0.009-0.005-10.002 6.001c-0.585 0.356-0.97 0.99-0.97 1.714s0.385 1.358 0.961 1.709l0.009 0.005 10.002 6.001c0.294 0.179 0.649 0.284 1.028 0.284 1.104 0 1.999-0.895 2-1.999v-12.002c0-0 0-0.001 0-0.001 0-1.105-0.896-2-2-2-0.021 0-0.042 0-0.063 0.001l0.003-0zM12.002 13.534v4.937l-4.115-2.468z"></path>
<path d="M14.002 22.003h2v2h-2zM14.002 8.001h2v2h-2z"></path>
<path d="M27.944 8.001c-0.359 0.012-0.692 0.117-0.977 0.291l0.009-0.005-10.002 6.001c-0.585 0.356-0.97 0.99-0.97 1.714s0.385 1.358 0.961 1.709l0.009 0.005 10.002 6.001c0.294 0.179 0.648 0.284 1.028 0.284 1.104 0 1.999-0.895 2-1.999v-12.002c0-0 0-0.001 0-0.001 0-1.105-0.896-2-2-2-0.021 0-0.042 0-0.063 0.001l0.003-0zM26.004 13.534v4.937l-4.115-2.468z"></path>
<path d="M28.004 22.003h2v2h-2zM28.004 8.001h2v2h-2zM14.002 10.002l-10.002 6.001 10.002 6.001zM28.004 10.002l-10.002 6.001 10.002 6.001z"></path>
</svg>
