<!-- Generated by IcoMoon.io -->
<svg version="1.1" xmlns="http://www.w3.org/2000/svg" width="32" height="32" viewBox="0 0 32 32">
<title>media-playlist-shuffle</title>
<path d="M2 6.001v4.001h6.001c1.143 0 2 0.858 2 2v8.001c0 3.29 2.711 6.001 6.001 6.001h12.002v-4.001h-12.002c-1.143 0-2-0.858-2-2v-8.001c0-3.29-2.711-6.001-6.001-6.001h-6.001z"></path>
<path d="M23.566 18.003c-0.941 0.175-1.643 0.99-1.643 1.968 0 0.58 0.247 1.103 0.642 1.468l0.001 0.001 2.563 2.563-2.563 2.563c-0.368 0.368-0.596 0.876-0.596 1.438 0 1.123 0.91 2.033 2.033 2.033 0.561 0 1.070-0.228 1.438-0.596l4.001-4.001 1.375-1.438-1.375-1.438-4.001-4.001c-0.364-0.377-0.874-0.611-1.439-0.611-0.155 0-0.305 0.018-0.45 0.051l0.013-0.003z"></path>
<path d="M23.566 2c-0.941 0.175-1.643 0.99-1.643 1.968 0 0.58 0.247 1.103 0.642 1.468l0.001 0.001 2.563 2.563-2.563 2.563c-0.368 0.368-0.596 0.876-0.596 1.438 0 1.123 0.91 2.033 2.033 2.033 0.561 0 1.070-0.228 1.438-0.596l4.001-4.001 1.375-1.438-1.375-1.438-4.001-4.001c-0.364-0.377-0.874-0.611-1.439-0.611-0.155 0-0.305 0.018-0.45 0.051l0.013-0.003z"></path>
<path d="M16.002 6.001c-0.459 0-0.882 0.088-1.313 0.187 0.963 1.102 1.723 2.356 2.063 3.813h11.252v-4.001h-12.002zM2 22.003v4.001h6.001c0.459 0 0.882-0.088 1.313-0.187-0.963-1.102-1.723-2.356-2.063-3.813h-5.251z"></path>
<path d="M22.003 18.003h2v2h-2v-2z"></path>
<path d="M22.003 28.004h2v2h-2v-2z"></path>
<path d="M22.003 2h2v2h-2v-2z"></path>
<path d="M22.003 12.002h2v2h-2v-2z"></path>
</svg>
