<!-- Generated by IcoMoon.io -->
<svg version="1.1" xmlns="http://www.w3.org/2000/svg" width="32" height="32" viewBox="0 0 32 32">
<title>media-flash</title>
<path d="M9.127 4.001c-1.698 0-3.126 1.428-3.126 3.126v17.751c0 1.7 1.428 3.126 3.126 3.126h15.752c1.696 0 3.124-1.428 3.124-3.126v-15.812l-4.875-5.065zM10.002 8.001h12.252l1.75 1.876v14.126h-14.002z"></path>
<path d="M13.878 10.002c-1.036 0-1.876 0.84-1.876 1.876v0 4.061c0 1.036 0.84 1.876 1.876 1.876h0.124v-5.813h2v5.813h4.127c1.034 0 1.874-0.84 1.874-1.874v-4.065c-0.001-1.035-0.84-1.873-1.874-1.874h-0.126v6.063h-2v-6.063z"></path>
</svg>
