<!-- Generated by IcoMoon.io -->
<svg version="1.1" xmlns="http://www.w3.org/2000/svg" width="32" height="32" viewBox="0 0 32 32">
<title>media-playlist-consecutive-rtl</title>
<path d="M4.001 14.002v4.001h25.941v-4.001h-25.941z"></path>
<path d="M7.751 10.002c-0.466 0.052-0.877 0.257-1.188 0.563l0-0-4.001 4.001-1.375 1.438 1.375 1.438 4.001 4.001c0.368 0.368 0.876 0.596 1.438 0.596 1.123 0 2.033-0.91 2.033-2.033 0-0.561-0.228-1.070-0.596-1.438l-2.563-2.563 2.563-2.563c0.393-0.366 0.637-0.887 0.637-1.464 0-1.105-0.896-2.001-2.001-2.001-0.115 0-0.227 0.010-0.336 0.028l0.012-0.002z"></path>
<path d="M10.001 10.002h-2v2h2v-2z"></path>
<path d="M10.001 20.003h-2v2h2v-2z"></path>
</svg>
