<!-- Generated by IcoMoon.io -->
<svg version="1.1" xmlns="http://www.w3.org/2000/svg" width="32" height="32" viewBox="0 0 32 32">
<title>media-playlist-repeat</title>
<path d="M19.963 17.983c-0.54 0.017-1.024 0.246-1.374 0.606l-5.415 5.415 5.415 5.415c0.364 0.377 0.874 0.611 1.439 0.611 1.105 0 2-0.896 2-2 0-0.565-0.234-1.075-0.61-1.438l-0.001-0.001-2.586-2.586 2.586-2.586c0.374-0.364 0.607-0.872 0.607-1.435 0-1.105-0.896-2-2-2-0.021 0-0.041 0-0.062 0.001l0.003-0z"></path>
<path d="M8.001 6.001c-3.288 0-6.001 2.71-6.001 6.001v8.001c0 3.291 2.712 6.001 6.001 6.001h2v-4.001h-2c-1.142 0-2-0.858-2-2v-8.001c0-1.142 0.858-2 2-2h16.002c1.144 0 2 0.858 2 2v8.001c0 1.142-0.856 2-2 2h-8.001v4.001h8.001c3.291 0 6.001-2.71 6.001-6.001v-8.001c0-3.29-2.71-6.001-6.001-6.001z"></path>
<path d="M20.003 18.003h2v2h-2zM20.003 28.004h2v2h-2z"></path>
</svg>
