<!-- Generated by IcoMoon.io -->
<svg version="1.1" xmlns="http://www.w3.org/2000/svg" width="32" height="32" viewBox="0 0 32 32">
<title>media-optical-dvd</title>
<path d="M15.98 1.991c-7.686 0-13.989 6.303-13.989 13.989s6.303 14.033 13.989 14.033c7.686 0 14.033-6.348 14.033-14.033s-6.348-13.989-14.033-13.989zM15.98 10.010c3.362 0 6.014 2.608 6.014 5.97s-2.653 6.014-6.014 6.014c-3.362 0-5.97-2.653-5.97-6.014s2.608-5.97 5.97-5.97z"></path>
<path d="M16.012 12.013c-2.198 0-4.027 1.796-4.027 3.994s1.829 3.994 4.027 3.994c2.198 0 3.994-1.796 3.994-3.994s-1.796-3.994-3.994-3.994zM16.012 14.010c1.117 0 1.997 0.88 1.997 1.997s-0.88 1.997-1.997 1.997c-1.117 0-1.997-0.88-1.997-1.997s0.88-1.997 1.997-1.997z"></path>
</svg>
