<!-- Generated by IcoMoon.io -->
<svg version="1.1" xmlns="http://www.w3.org/2000/svg" width="32" height="32" viewBox="0 0 32 32">
<title>media-playlist-consecutive</title>
<path d="M2.063 14.002v4.001h25.941v-4.001h-25.941z"></path>
<path d="M23.566 10.002c-0.941 0.175-1.643 0.99-1.643 1.968 0 0.58 0.247 1.103 0.642 1.468l0.001 0.001 2.563 2.563-2.563 2.563c-0.368 0.368-0.596 0.876-0.596 1.438 0 1.123 0.91 2.033 2.033 2.033 0.561 0 1.070-0.228 1.438-0.596l4.001-4.001 1.375-1.438-1.375-1.438-4.001-4.001c-0.364-0.377-0.874-0.611-1.439-0.611-0.155 0-0.305 0.018-0.45 0.051l0.013-0.003z"></path>
<path d="M22.003 10.002h2v2h-2v-2z"></path>
<path d="M22.003 20.003h2v2h-2v-2z"></path>
</svg>
