<!-- Generated by IcoMoon.io -->
<svg version="1.1" xmlns="http://www.w3.org/2000/svg" width="32" height="32" viewBox="0 0 32 32">
<title>media-eject</title>
<path d="M15.972 4.001c-0.541 0.009-1.029 0.231-1.384 0.586l-10.002 10.002c-0.362 0.362-0.586 0.862-0.586 1.414 0 1.105 0.895 2 2 2h20.003c1.105-0 2-0.896 2-2 0-0.552-0.224-1.052-0.586-1.414l-10.002-10.002c-0.362-0.362-0.862-0.586-1.415-0.586-0.010 0-0.021 0-0.031 0l0.002-0zM16.002 8.829l5.173 5.173h-10.346zM4.005 21.999l-0.008 4.001 24.004 0.036 0.008-4.001-22.003-0.032z"></path>
<path d="M26.004 16.002v2h2v-2zM4.001 16.002v2h2v-2zM6.001 16.002l10.002-10.002 10.002 10.002z"></path>
</svg>
