<!-- Generated by IcoMoon.io -->
<svg version="1.1" xmlns="http://www.w3.org/2000/svg" width="32" height="32" viewBox="0 0 32 32">
<title>media-floppy</title>
<path d="M5.939 2c-2.168 0.017-3.922 1.77-3.939 3.937v18.942l0.626 0.56 3.375 3.378v-22.817h20.003v20.003h-4.001v4.001h4.063c2.168-0.017 3.922-1.77 3.939-3.937v-20.127c-0.016-2.169-1.769-3.924-3.937-3.941h-0.002z"></path>
<path d="M10.002 18.003c-1.108 0-2 0.892-2 2v8.001c0 1.108 0.892 2 2 2h8.001c1.108 0 2-0.892 2-2v-8.001c0-1.108-0.892-2-2-2zM10.002 20.003h4.001v8.001h-4.001z"></path>
</svg>
