<!-- Generated by IcoMoon.io -->
<svg version="1.1" xmlns="http://www.w3.org/2000/svg" width="32" height="32" viewBox="0 0 32 32">
<title>microphone-sensitivity-muted</title>
<path d="M11.002 1.974c2.77 0 5.001 2.23 5.001 5.001v10.027c0 2.77-2.23 5.001-5.001 5.001-0.003 0-0.007 0-0.010 0-2.756 0-4.991-2.234-4.991-4.991 0-0.004 0-0.007 0-0.011v0.001-10.027c0-2.77 2.23-5.001 5.001-5.001z"></path>
<path d="M11.016-3.715c-4.977 0.002-9.010 4.061-9.013 9.067v11.616c0.002 5.007 4.036 9.065 9.012 9.067h0c4.977-0.002 9.010-4.061 9.013-9.067v-11.616c-0.002-5.007-4.036-9.065-9.012-9.067h-0zM11.016-1.706c0.011-0 0.025-0 0.038-0 3.854 0 6.979 3.143 6.979 7.021 0 0.014-0 0.028-0 0.042v-0.002 11.614c0 0.012 0 0.026 0 0.040 0 3.878-3.124 7.021-6.979 7.021-0.014 0-0.028-0-0.042-0h0.002c-0.011 0-0.025 0-0.038 0-3.854 0-6.979-3.143-6.979-7.021 0-0.014 0-0.028 0-0.042v0.002-11.616c-0-0.012-0-0.026-0-0.040 0-3.878 3.124-7.021 6.979-7.021 0.014 0 0.028 0 0.042 0h-0.002z"></path>
<path d="M4.001 11.002c0 0.552-0.448 1-1 1v0c-0.552 0-1-0.448-1-1v0c0-0.552 0.448-1 1-1v0c0.552 0 1 0.448 1 1v0zM20.003 11.002c0 0.552-0.448 1-1 1v0c-0.552 0-1-0.448-1-1v0c0-0.552 0.448-1 1-1v0c0.552 0 1 0.448 1 1v0z"></path>
<path d="M4.001 28.004c-1.105 0-2 0.896-2 2s0.896 2 2 2v0h14.002c1.105 0 2-0.896 2-2s-0.896-2-2-2v0z"></path>
<path d="M2 30.005h18.003v2h-18.003z"></path>
<path d="M8.001 24.004h6.001v8.001h-6.001z"></path>
<path d="M26.004 2c-2.196 0-4.001 1.802-4.001 4.001s1.804 4.001 4.001 4.001c2.198 0 4.001-1.802 4.001-4.001s-1.802-4.001-4.001-4.001zM26.004 4.001c1.116 0 2 0.884 2 2s-0.884 2-2 2-2-0.884-2-2 0.884-2 2-2zM26.004 12.002c-2.196 0-4.001 1.802-4.001 4.001s1.804 4.001 4.001 4.001c2.198 0 4.001-1.802 4.001-4.001s-1.802-4.001-4.001-4.001zM26.004 14.002c1.116 0 2 0.884 2 2s-0.884 2-2 2-2-0.884-2-2 0.884-2 2-2z"></path>
<path d="M22.003 22.003h2.75l2.25 2.188 2.188-2.188h2.812v2.938l-2.188 2.124 2.188 2.126v2.812h-2.874l-2.126-2.126-2.124 2.126h-2.876v-2.812l2.126-2.126-2.126-2.122z"></path>
</svg>
