<!-- Generated by IcoMoon.io -->
<svg version="1.1" xmlns="http://www.w3.org/2000/svg" width="32" height="32" viewBox="0 0 32 32">
<title>microphone-sensitivity-medium</title>
<path d="M26.003 2.001c-2.209 0-4 1.791-4 4s1.791 4 4 4c2.209 0 4-1.791 4-4s-1.791-4-4-4zM26.003 4.001c1.105 0 2 0.896 2 2s-0.895 2-2 2c-1.105 0-2-0.896-2-2s0.895-2 2-2z"></path>
<path d="M11.001 1.976c2.762 0 5 2.239 5 5v10.027c0 2.762-2.239 5-5 5s-5-2.239-5-5v-10.027c0-2.762 2.239-5 5-5z"></path>
<path d="M11.015-3.721c-4.975 0-9.009 4.058-9.009 9.063v11.626c0 5.005 4.033 9.063 9.009 9.063s9.009-4.058 9.009-9.063v-11.626c0-5.005-4.033-9.063-9.009-9.063zM11.015-1.721c3.905 0 7.020 3.134 7.020 7.063v11.626c0 3.929-3.116 7.063-7.020 7.063s-7.020-3.134-7.020-7.063v-11.626c0-3.929 3.116-7.063 7.020-7.063z"></path>
<path d="M4 11.002c0 0.552-0.448 1-1 1s-1-0.448-1-1v0c0-0.552 0.448-1 1-1s1 0.448 1 1v0z"></path>
<path d="M20.002 11.002c0 0.552-0.448 1-1 1s-1-0.448-1-1v0c0-0.552 0.448-1 1-1s1 0.448 1 1v0z"></path>
<path d="M3.813 28.003c-1.065 0.051-1.909 0.927-1.909 2 0 1.106 0.897 2.002 2.002 2.002 0.033 0 0.066-0.001 0.098-0.002l-0.005 0h14.001c0.008 0 0.018 0 0.028 0 1.105 0 2-0.896 2-2s-0.896-2-2-2c-0.010 0-0.020 0-0.030 0l0.002-0h-14.001c-0.028-0.001-0.061-0.002-0.094-0.002s-0.066 0.001-0.098 0.002l0.005-0z"></path>
<path d="M2 30.004h18.001v2h-18.001v-2z"></path>
<path d="M8.001 24.003h6.001v8.001h-6v-8.001z"></path>
<path d="M30.003 26.003c0 2.209-1.791 4-4 4s-4-1.791-4-4v0c0-2.209 1.791-4 4-4s4 1.791 4 4v0z"></path>
<path d="M30.003 16.002c0 2.209-1.791 4-4 4s-4-1.791-4-4v0c0-2.209 1.791-4 4-4s4 1.791 4 4v0z"></path>
</svg>
