<!-- Generated by IcoMoon.io -->
<svg version="1.1" xmlns="http://www.w3.org/2000/svg" width="32" height="32" viewBox="0 0 32 32">
<title>modem</title>
<path d="M22.213 20.003c-1.563 1.297-3.361 3.037-6.13 4.020l-14.083-0.020v6.001h28.004v-6.001l-4.001-4.001zM21.003 23.597c0.779 0 1.406 0.627 1.406 1.406s-0.627 1.406-1.406 1.406c-0.779 0-1.406-0.627-1.406-1.406s0.627-1.406 1.406-1.406zM25.003 23.644c0.753 0 1.36 0.606 1.36 1.36s-0.606 1.36-1.36 1.36c-0.753 0-1.36-0.606-1.36-1.36s0.606-1.36 1.36-1.36z"></path>
<path d="M22.896 6.11c0.656 0 1.19 0.525 1.19 1.19v0.077c-0.021 8.124-6.613 14.703-14.742 14.703h-0.038c-0.669 0-1.19-0.548-1.19-1.229v-3.685c0-0.681 0.548-1.228 1.229-1.228h2.457c0.681 0 1.229 0.548 1.229 1.228v0.576c3.141-1.11 5.608-3.577 6.718-6.718h-0.576c-0.681 0-1.229-0.548-1.229-1.229v-2.457c0-0.681 0.548-1.229 1.229-1.229h3.724z"></path>
</svg>
