<!-- Generated by IcoMoon.io -->
<svg version="1.1" xmlns="http://www.w3.org/2000/svg" width="32" height="32" viewBox="0 0 32 32">
<title>modem</title>
<path d="M22.213 20.003c-1.562 1.296-3.361 3.036-6.131 4.021l-14.082-0.020v6.001h28.004v-6.001l-4.001-4.001zM21.003 23.598c0.78 0 1.406 0.626 1.406 1.406s-0.628 1.406-1.406 1.406c-0.001 0-0.001 0-0.002 0-0.776 0-1.404-0.629-1.404-1.404 0-0.001 0-0.001 0-0.002v0c0-0.78 0.626-1.406 1.406-1.406zM25.004 23.644c0.752 0 1.36 0.606 1.36 1.36s-0.608 1.36-1.36 1.36c-0.001 0-0.003 0-0.004 0-0.749 0-1.356-0.607-1.356-1.356 0-0.001 0-0.003 0-0.004v0c0-0.754 0.606-1.36 1.36-1.36z"></path>
<path d="M22.895 6.109c0.656 0 1.19 0.526 1.19 1.19v0.078c-0.023 8.125-6.614 14.702-14.742 14.702-0 0-0 0-0 0h-0.038c-0.659-0.005-1.191-0.541-1.191-1.2 0-0.010 0-0.020 0-0.029l-0 0.001v-3.685c0-0.68 0.548-1.228 1.228-1.228h2.458c0.68 0 1.228 0.548 1.228 1.228v0.576c3.148-1.135 5.584-3.572 6.693-6.644l0.024-0.077h-0.574c-0.001 0-0.003 0-0.004 0-0.677 0-1.226-0.549-1.226-1.226 0-0.001 0-0.001 0-0.002v0-2.454c0-0.68 0.548-1.23 1.23-1.23h3.725z"></path>
</svg>
