<!-- Generated by IcoMoon.io -->
<svg version="1.1" xmlns="http://www.w3.org/2000/svg" width="32" height="32" viewBox="0 0 32 32">
<title>multimedia-volume-control</title>
<path d="M4.001 10.002h4.969l5.941-6.001h1.092v24.004h-0.95l-6.081-6.001h-4.971z"></path>
<path d="M28.004 16.002c0-4.333-1.478-8.041-4.001-10.002h-2v4.001c1.214 1.578 2 3.521 2 6.001 0 2.482-0.786 4.441-2 6.001v4.001h2c2.446-1.99 4.001-5.747 4.001-10.002z"></path>
<path d="M22.003 16.002c0-2.514-0.624-4.433-2-6.001h-2v12.002h2c1.344-1.674 2-3.485 2-6.001z"></path>
</svg>
