<!-- Generated by IcoMoon.io -->
<svg version="1.1" xmlns="http://www.w3.org/2000/svg" width="32" height="32" viewBox="0 0 32 32">
<title>network-wireless-acquiring</title>
<path d="M20.003 26.004c0 2.209-1.791 4.001-4.001 4.001s-4.001-1.791-4.001-4.001c0-2.209 1.791-4.001 4.001-4.001s4.001 1.791 4.001 4.001z"></path>
<path d="M16.002 4.001c-5.629 0-10.345 2-14.002 5.172v2.829h2.962c3.039-2.53 6.44-4.001 11.040-4.001s8.001 1.559 11.040 4.001h2.962v-2.763c-3.281-2.932-8.373-5.238-14.002-5.238z"></path>
<path d="M16.002 10.002c-3.008 0-5.721 0.721-7.751 2h15.377c-2.042-1.254-4.702-2-7.626-2z"></path>
<path d="M7.978 14.002h0.031c1.653 0 2.993 1.34 2.993 2.993v0.031c0 1.653-1.34 2.993-2.993 2.993h-0.031c-1.653 0-2.993-1.34-2.993-2.993v-0.031c0-1.653 1.34-2.993 2.993-2.993z"></path>
<path d="M15.979 14.002h0.031c1.653 0 2.993 1.34 2.993 2.993v0.031c0 1.653-1.34 2.993-2.993 2.993h-0.031c-1.653 0-2.993-1.34-2.993-2.993v-0.031c0-1.653 1.34-2.993 2.993-2.993z"></path>
<path d="M23.98 14.002h0.031c1.653 0 2.993 1.34 2.993 2.993v0.031c0 1.653-1.34 2.993-2.993 2.993h-0.031c-1.653 0-2.993-1.34-2.993-2.993v-0.031c0-1.653 1.34-2.993 2.993-2.993z"></path>
</svg>
