<!-- Generated by IcoMoon.io -->
<svg version="1.1" xmlns="http://www.w3.org/2000/svg" width="32" height="32" viewBox="0 0 32 32">
<title>network-wireless-connected</title>
<path d="M16.002 4.001v2h2v-1.938c-0.647-0.055-1.32-0.063-2-0.063zM18.003 6.001v2h2v-2zM20.003 6.001h2v-1.188c-0.651-0.191-1.303-0.312-2-0.438zM22.003 6.001v2h2v-2zM24.004 6.001h1c-0.331-0.168-0.653-0.289-1-0.438zM24.004 8.001v2h2v-2zM26.004 8.001h2v2h2c-1.116-1.344-2.462-2.515-4.001-3.438zM30.005 10.002v2h-2v2h-2v2h-2v2h-2v2h-2v-2h-2v2h-2v-2h-2v2h-2v-2h-2v-2h-2v-2h-2v-2h-2v-2h-1.125c-3.132 3.703-0.875 8.753-0.875 14.002 0 10.433 2.78 12.002 14.002 12.002s14.002-1.569 14.002-12.002c0-4.748 2.591-10.884 0-14.002zM4.001 10.002h2v-2h-1.125c-0.29 0.247-0.602 0.484-0.875 0.75zM6.001 8.001h2v-2h-0.125c-0.656 0.348-1.279 0.698-1.875 1.125zM8.001 6.001h2v-1c-0.693 0.249-1.362 0.606-2 0.938zM10.002 6.001v2h2v-2zM12.002 6.001h2v-1.875c-0.687 0.073-1.352 0.167-2 0.313zM14.002 6.001v2h2v-2zM16.002 8.001v2h2v-2zM18.003 10.002v2h2v-2zM20.003 10.002h2v-2h-2zM22.003 10.002v2h2v-2zM24.004 12.002v2h2v-2zM26.004 12.002h2v-2h-2zM24.004 14.002h-2v2h2zM22.003 16.002h-2v2h2zM20.003 16.002v-2h-2v2zM18.003 16.002h-2v2h2zM16.002 16.002v-2h-2v2zM14.002 16.002h-2v2h2zM12.002 16.002v-2h-2v2zM10.002 14.002v-2h-2v2zM8.001 12.002v-2h-2v2zM8.001 10.002h2v-2h-2zM10.002 10.002v2h2v-2zM12.002 10.002h2v-2h-2zM14.002 10.002v2h2v-2zM16.002 12.002v2h2v-2zM14.002 12.002h-2v2h2zM20.003 14.002h2v-2h-2z"></path>
<path d="M20.003 26.004c0 2.209-1.791 4.001-4.001 4.001s-4.001-1.791-4.001-4.001c0-2.209 1.791-4.001 4.001-4.001s4.001 1.791 4.001 4.001z"></path>
</svg>
