<!-- Generated by IcoMoon.io -->
<svg version="1.1" xmlns="http://www.w3.org/2000/svg" width="32" height="32" viewBox="0 0 32 32">
<title>network-wireless-signal-excellent</title>
<path d="M20.003 26.004c0 2.209-1.791 4.001-4.001 4.001v0c-2.209 0-4.001-1.791-4.001-4.001v0c0-2.209 1.791-4.001 4.001-4.001v0c2.209 0 4.001 1.791 4.001 4.001v0z"></path>
<path d="M16.002 4.001c-5.629 0-10.346 2-14.002 5.173v2.828h2.96c3.040-2.528 6.441-4.001 11.042-4.001s8.001 1.56 11.042 4.001h2.96v-2.76c-3.28-2.934-8.373-5.241-14.002-5.241z"></path>
<path d="M16.002 10.002c-4.335 0-8.041 1.478-10.002 4.001v2h4.001c1.578-1.212 3.519-2 6.001-2s4.441 0.788 6.001 2h4.001v-2c-1.99-2.446-5.747-4.001-10.002-4.001z"></path>
<path d="M16.002 16.002c-2.514 0-4.433 0.624-6.001 2v2h12.002v-2c-1.674-1.344-3.487-2-6.001-2z"></path>
</svg>
