<!-- Generated by IcoMoon.io -->
<svg version="1.1" xmlns="http://www.w3.org/2000/svg" width="32" height="32" viewBox="0 0 32 32">
<title>network-error</title>
<path d="M10.002 14.002c-0.619 0-1.229 0.181-1.625 0.563l-7.189 7.439 7.314 7.439c0.395 0.382 0.881 0.563 1.5 0.563h2v-2c-0-0.514-0.259-1.058-0.625-1.438l-2.563-2.563h7.251c0.043-0.554 0.226-2 1.446-4.001h-8.759l2.438-2.563c0.366-0.381 0.813-0.924 0.813-1.438v-2z"></path>
<path d="M25.004 18.003c-3.867 0-7.001 3.134-7.001 7.001s3.134 7.001 7.001 7.001c3.867 0 7.001-3.134 7.001-7.001s-3.134-7.001-7.001-7.001zM20.003 23.941h10.002v2.063h-10.002v-2.063z"></path>
<path d="M24.965 16.065l5.852-6.063-7.314-7.439c-0.395-0.382-0.881-0.563-1.5-0.563h-2v2c0 0.514 0.259 1.058 0.625 1.438l2.563 2.563h-9.189c-1.057-0.014-2 0.943-2 2s0.944 2.015 2 2h9.251l-2.438 2.563c-0.366 0.381-0.813 0.924-0.813 1.438v0.852c1.241-0.754 3.818-1.014 4.962-0.789z"></path>
</svg>
