<!-- Generated by IcoMoon.io -->
<svg version="1.1" xmlns="http://www.w3.org/2000/svg" width="32" height="32" viewBox="0 0 32 32">
<title>network-cellular-4g</title>
<path d="M4.126 0c-2.302 0-4.126 1.824-4.126 4.126v23.754c0 2.302 1.824 4.126 4.126 4.126h23.754c2.302 0 4.126-1.824 4.126-4.126v-23.754c0-2.302-1.824-4.126-4.126-4.126zM4.001 6.001h4.001v8.001h2v-2h4.001v14.002h-4.001v-8.001h-2c-2 0-4.001-1.684-4.001-4.001zM20.128 6.063h3.813c0.006-0-0.006 0.063 0 0.062 1.055-0.041 2.145 0.152 3 0.938 0.83 0.762 1.187 2.015 1.125 3.188h0.062v1.75h-4.001v-1.938c-0.035-0.004 0.006-0.004-0.062 0h-3.938c-0.055 0-0.044 0.004-0.062 0-0.012 0.008-0.058-0.006-0.062 0-0.014 0.045 0.014 0.093 0 0.125v11.689c-0.047-0.043 0 0.125 0 0.125h3.938c0.014-0.039 0.059-0.032 0.062 0 0.002 0.016 0-0.111 0-0.062v-3.876h-2v-4.001h6.001v7.876c0 1.125-0.454 1.999-1.125 2.75-0.632 0.707-1.704 1.264-2.938 1.25v0.062h-3.938c-1.25 0-1.989-0.483-2.688-1.125-0.662-0.608-1.288-1.58-1.25-2.875 0-0.004-0.063 0.004-0.062 0v-12.127c0.125-0.875 0.411-1.778 1.125-2.563s1.892-1.25 3-1.25z"></path>
</svg>
