<!-- Generated by IcoMoon.io -->
<svg version="1.1" xmlns="http://www.w3.org/2000/svg" width="32" height="32" viewBox="0 0 32 32">
<title>network-vpn-no-route</title>
<path d="M16 2c-3.29 0-6 2.71-6 6v2h-2v12h4.125c-0-0.028-0.012-0.050-0.012-0.078 0.006-1.579 0.666-2.838 1.359-3.707 0.113-0.142 0.214-0.189 0.328-0.316h-3.73c-1.044-0.001-1.897-0.817-1.957-1.846l-0-0.005c-0.212-3.784 2.409-6.912 5.887-7.813v-0.234c0-1.128 0.872-2 2-2s2 0.872 2 2v0.254c3.212 0.824 5.728 3.569 6 7.027v-5.281h-2v-2c0-3.29-2.71-6-6-6zM24 16.328c-0.071 1.266-0.325 2.417-0.918 3.43-0.511 0.872-1.232 1.561-2.043 2.242h2.961zM16.285 21.125c-0.012 0.026-0.039 0.094-0.039 0.094s-0.059 0.164-0.059 0.164c0.004-0.008 0.014-0.027 0.020-0.043 0.028-0.079 0.067-0.191 0.078-0.215zM4 26v4h8.715c-0.376-0.605-0.605-1.308-0.605-2.063 0-0.741 0.257-1.38 0.645-1.938zM19.387 26c0.387 0.558 0.645 1.196 0.645 1.938 0 0.755-0.229 1.458-0.605 2.063h8.574v-4z"></path>
<path d="M15.696 9.938c3.285-0.184 6.191 2.34 6.375 5.625-0 2.803-0.755 3.844-3.188 5.688-0.382 0.287-0.651 0.501-0.75 0.625s-0.062 0.066-0.062 0.062c0.014 1.057-0.943 2-2 2s-2.014-0.943-2-2c0-1.005 0.448-1.887 0.938-2.5s0.983-1.033 1.438-1.375c0.408-0.321 0.922-0.769 1.375-1.313 0.187-0.224 0.258-0.615 0.25-0.875v-0.062c-0.063-1.126-0.999-1.938-2.125-1.875s-1.938 0.874-1.875 2h-4c-0.184-3.285 2.34-5.816 5.625-6zM16.071 25.938c1.105 0 2 0.895 2 2s-0.895 2-2 2c-1.105 0-2-0.895-2-2s0.895-2 2-2z"></path>
</svg>
