<!-- Generated by IcoMoon.io -->
<svg version="1.1" xmlns="http://www.w3.org/2000/svg" width="32" height="32" viewBox="0 0 32 32">
<title>network-vpn-no-route</title>
<path d="M16.002 2c-3.29 0-6.001 2.71-6.001 6.001v2h-2v12.002h4.127c0-0.028-0.012-0.050-0.012-0.080 0.004-1.578 0.664-2.836 1.36-3.707 0.112-0.14 0.212-0.188 0.326-0.316h-3.731c-1.044-0.001-1.897-0.817-1.956-1.847l-0-0.005c-0.214-3.783 2.406-6.913 5.887-7.813v-0.234c0-1.128 0.872-2 2-2s2 0.872 2 2v0.254c3.212 0.824 5.729 3.571 6.001 7.029v-5.283h-2v-2c0-3.29-2.71-6.001-6.001-6.001zM24.004 16.33c-0.072 1.266-0.324 2.418-0.918 3.43-0.51 0.872-1.232 1.56-2.042 2.242h2.96zM16.288 21.129l-0.040 0.092-0.060 0.164c0.006-0.008 0.016-0.026 0.020-0.042 0.030-0.080 0.068-0.19 0.080-0.216zM4.001 26.004v4.001h8.715c-0.375-0.584-0.6-1.297-0.604-2.061v-0.001c0-0.74 0.256-1.38 0.644-1.938zM19.389 26.004c0.388 0.558 0.646 1.196 0.646 1.938 0 0.754-0.23 1.458-0.606 2.062h8.575v-4.001z"></path>
<path d="M15.698 9.94c3.285-0.184 6.193 2.34 6.377 5.625 0 2.804-0.756 3.845-3.188 5.689-0.382 0.288-0.652 0.5-0.75 0.626-0.1 0.124-0.062 0.066-0.062 0.060 0.014 1.058-0.944 2-2 2-1.058 0-2.014-0.942-2-2 0-1.004 0.448-1.886 0.936-2.5 0.421-0.52 0.895-0.973 1.419-1.359l0.021-0.015c0.406-0.32 0.92-0.768 1.374-1.312 0.186-0.224 0.258-0.616 0.25-0.876v-0.060c-0.052-1.050-0.916-1.882-1.974-1.882-0.054 0-0.107 0.002-0.159 0.006l0.007-0c-1.126 0.062-1.938 0.874-1.874 2h-4.001c-0.184-3.287 2.34-5.817 5.625-6.001zM16.074 25.942c1.105 0 2 0.896 2 2s-0.896 2-2 2v0c-1.105 0-2-0.896-2-2s0.896-2 2-2v0z"></path>
</svg>
