<!-- Generated by IcoMoon.io -->
<svg version="1.1" xmlns="http://www.w3.org/2000/svg" width="32" height="32" viewBox="0 0 32 32">
<title>network-wireless-no-route</title>
<path d="M15.698 9.94c3.285-0.184 6.193 2.34 6.377 5.625 0 2.804-0.756 3.845-3.188 5.689-0.382 0.288-0.652 0.5-0.75 0.626-0.1 0.124-0.062 0.066-0.062 0.060 0.014 1.058-0.944 2-2 2-1.058 0-2.014-0.942-2-2 0-1.004 0.448-1.886 0.936-2.5 0.421-0.52 0.895-0.973 1.419-1.359l0.021-0.015c0.406-0.32 0.92-0.768 1.374-1.312 0.186-0.224 0.258-0.616 0.25-0.876v-0.060c-0.052-1.050-0.916-1.882-1.974-1.882-0.054 0-0.107 0.002-0.159 0.006l0.007-0c-1.126 0.062-1.938 0.874-1.874 2h-4.001c-0.184-3.287 2.34-5.817 5.625-6.001zM16.074 25.942c1.105 0 2 0.896 2 2s-0.896 2-2 2v0c-1.105 0-2-0.896-2-2s0.896-2 2-2v0z"></path>
<path d="M16.002 4.001c-5.629 0-10.346 2-14.002 5.173v2.828h2.96c3.040-2.53 6.441-4.001 11.042-4.001s8.001 1.56 11.042 4.001h2.96v-2.76c-3.28-2.936-8.373-5.241-14.002-5.241zM9.361 11.642c-1.168 0.36-2.494 1.366-3.361 2.36v2h2.032c-0.032-1.36 0.204-3.305 1.328-4.361zM22.643 11.642c1.124 1.056 1.36 3 1.328 4.361h2.032v-2c-0.866-0.994-2.192-2-3.361-2.36zM10.002 18.003v2h2.032c0.048-0.686 0.276-1.44 1.026-2z"></path>
</svg>
