<!-- Generated by IcoMoon.io -->
<svg version="1.1" xmlns="http://www.w3.org/2000/svg" width="32" height="32" viewBox="0 0 32 32">
<title>network-wireless-no-route</title>
<path d="M15.698 9.939c3.285-0.184 6.192 2.341 6.376 5.626-0 2.803-0.756 3.844-3.188 5.688-0.382 0.287-0.651 0.501-0.75 0.625s-0.062 0.066-0.062 0.062c0.014 1.057-0.943 2-2 2s-2.014-0.944-2-2c0-1.005 0.449-1.887 0.938-2.5s0.983-1.033 1.438-1.375c0.408-0.321 0.922-0.769 1.375-1.313 0.187-0.224 0.258-0.615 0.25-0.875v-0.062c-0.063-1.127-0.999-1.938-2.125-1.875s-1.938 0.874-1.875 2h-4.001c-0.184-3.285 2.341-5.817 5.626-6.001zM16.073 25.941c1.105 0 2 0.896 2 2s-0.896 2-2 2c-1.105 0-2-0.896-2-2s0.896-2 2-2z"></path>
<path d="M10.002 20.003h2.032c0.048-0.687 0.278-1.439 1.029-2h-3.060z"></path>
<path d="M6.001 16.002h2.032c-0.031-1.361 0.205-3.305 1.328-4.361-1.168 0.36-2.495 1.367-3.36 2.361z"></path>
<path d="M26.004 16.002h-2.032c0.031-1.361-0.205-3.305-1.328-4.361 1.168 0.36 2.494 1.367 3.36 2.361z"></path>
</svg>
