<!-- Generated by IcoMoon.io -->
<svg version="1.1" xmlns="http://www.w3.org/2000/svg" width="32" height="32" viewBox="0 0 32 32">
<title>network-cellular-no-route</title>
<path d="M-0 18.003v12.002h6.001v-12.002h-6.001z"></path>
<path d="M24.003 0v30.005h6.001v-30.005h-6.001z"></path>
<path d="M15.698 9.939c3.285-0.184 6.192 2.341 6.376 5.626-0 2.803-0.756 3.844-3.188 5.688-0.382 0.287-0.651 0.501-0.75 0.625s-0.062 0.066-0.062 0.062c0.014 1.057-0.943 2-2 2s-2.014-0.944-2-2c0-1.005 0.449-1.887 0.938-2.5s0.983-1.033 1.438-1.375c0.408-0.321 0.922-0.769 1.375-1.313 0.187-0.224 0.258-0.615 0.25-0.875v-0.062c-0.063-1.127-0.999-1.938-2.125-1.875s-1.938 0.874-1.875 2h-4.001c-0.184-3.285 2.341-5.817 5.626-6.001zM16.073 25.941c1.105 0 2 0.896 2 2s-0.896 2-2 2c-1.105 0-2-0.896-2-2s0.896-2 2-2z"></path>
<path d="M16.002 6.001v2.063c2.361 0.001 4.524 1.063 6.001 2.75v-4.813h-6.001zM8.001 12.002v18.003h4.813c-0.376-0.596-0.625-1.316-0.625-2.063 0-1.299 0.75-2.295 1.75-3-1.002-0.696-1.768-1.649-1.75-3 0-1.563 0.688-2.826 1.375-3.688 0.156-0.195 0.28-0.27 0.438-0.438h-3.938c-0.001 0-0.003 0-0.004 0-0.992 0-1.804-0.77-1.871-1.744l-0-0.006c-0.083-1.484 0.265-2.875 0.938-4.063h-1.125zM22.003 21.003c-0.571 0.615-1.229 1.165-2 1.75-0.182 0.137-0.338 0.287-0.438 0.375-0.002 0.008-0.060-0.008-0.062 0-0.016 0.022-0.062 0.058-0.062 0.062-0.022 0.023-0.010 0.074-0.062 0.125-0.279 0.681-0.594 1.213-1.188 1.625 1 0.706 1.75 1.701 1.75 3 0 0.747-0.249 1.467-0.625 2.063h2.688v-9.001z"></path>
</svg>
