<!-- Generated by IcoMoon.io -->
<svg version="1.1" xmlns="http://www.w3.org/2000/svg" width="32" height="32" viewBox="0 0 32 32">
<title>network-wired-acquiring</title>
<path d="M-0 21.981h10.036v9.948h-10.036v-9.948z"></path>
<path d="M10.053 2.053h10.036v9.948h-10.036v-9.948z"></path>
<path d="M22.058 22.061h10.036v9.948h-10.036v-9.948z"></path>
<path d="M7.087 14.083v0c1.653 0 2.994 1.34 2.994 2.994v0.010c0 1.653-1.34 2.994-2.994 2.994v0c-1.653 0-2.994-1.34-2.994-2.994v-0.010c0-1.653 1.34-2.994 2.994-2.994z"></path>
<path d="M15.090 14.083v0c1.653 0 2.993 1.34 2.993 2.994v0.010c0 1.653-1.34 2.994-2.994 2.994v0c-1.653 0-2.994-1.34-2.994-2.994v-0.010c0-1.653 1.34-2.994 2.994-2.994z"></path>
<path d="M23.094 14.083v0c1.653 0 2.994 1.34 2.994 2.994v0.010c0 1.653-1.34 2.994-2.994 2.994v0c-1.653 0-2.994-1.34-2.994-2.994v-0.010c0-1.653 1.34-2.994 2.994-2.994z"></path>
</svg>
