<!-- Generated by IcoMoon.io -->
<svg version="1.1" xmlns="http://www.w3.org/2000/svg" width="32" height="32" viewBox="0 0 32 32">
<title>network-offline</title>
<path d="M10.002 14.002c-0.619 0-1.229 0.181-1.625 0.563l-7.189 7.439 7.314 7.439c0.395 0.382 0.881 0.563 1.5 0.563h2v-2c-0-0.514-0.259-1.058-0.625-1.438l-2.563-2.563h11.189v-4.001h-11.252l2.438-2.563c0.366-0.381 0.813-0.924 0.813-1.438v-2z"></path>
<path d="M22.003 22.003h2.75l2.25 2.188 2.188-2.188h2.813v2.938l-2.188 2.125 2.188 2.125v2.813h-2.875l-2.125-2.125-2.125 2.125h-2.875v-2.813l2.125-2.125-2.125-2.125v-2.938z"></path>
<path d="M22.003 18.003c0.619-0 1.229-0.181 1.625-0.563l7.189-7.439-7.314-7.439c-0.395-0.382-0.881-0.563-1.5-0.563h-2v2c0 0.514 0.259 1.058 0.625 1.438l2.563 2.563h-9.189c-1.057-0.014-2 0.943-2 2s0.944 2.015 2 2h9.251l-2.438 2.563c-0.366 0.381-0.813 0.924-0.813 1.438v2z"></path>
</svg>
