<!-- Generated by IcoMoon.io -->
<svg version="1.1" xmlns="http://www.w3.org/2000/svg" width="32" height="32" viewBox="0 0 32 32">
<title>network-no-route</title>
<path d="M20.003 2v2c0 0.514 0.26 1.058 0.626 1.438l2.56 2.562h-6.727c2.794 0.153 5.194 1.705 6.526 3.963l0.021 0.038h0.246l-0.148 0.156c0.54 0.99 0.898 2.094 0.964 3.295l0.004 0.058v0.054c0 0.53-0.042 1.032-0.104 1.524l6.845-7.087-7.313-7.439c-0.396-0.38-0.88-0.562-1.5-0.562zM14.002 8.001c-0.588-0.008-1.118 0.3-1.492 0.742 0.832-0.4 1.742-0.642 2.696-0.742zM8.137 14.814l-6.949 7.189 7.313 7.439c0.396 0.38 0.88 0.562 1.5 0.562h2v-2c0-0.514-0.26-1.058-0.624-1.438l-2.564-2.562h3.943c-0.425-0.567-0.68-1.281-0.68-2.056 0-0.009 0-0.017 0-0.026v0.001c0.002-0.71 0.148-1.344 0.36-1.92h-3.685l1.96-2.062h-2.53l-0.106-1.888c-0.003-0.074-0.004-0.161-0.004-0.248 0-0.349 0.024-0.692 0.071-1.029l-0.004 0.039z"></path>
<path d="M15.698 9.94c3.285-0.184 6.193 2.34 6.377 5.625 0 2.804-0.756 3.845-3.188 5.689-0.382 0.288-0.652 0.5-0.75 0.626-0.1 0.124-0.062 0.066-0.062 0.060 0.014 1.058-0.944 2-2 2-1.058 0-2.014-0.942-2-2 0-1.004 0.448-1.886 0.936-2.5 0.421-0.52 0.895-0.973 1.419-1.359l0.021-0.015c0.406-0.32 0.92-0.768 1.374-1.312 0.186-0.224 0.258-0.616 0.25-0.876v-0.060c-0.052-1.050-0.916-1.882-1.974-1.882-0.054 0-0.107 0.002-0.159 0.006l0.007-0c-1.126 0.062-1.938 0.874-1.874 2h-4.001c-0.184-3.287 2.34-5.817 5.625-6.001zM16.074 25.942c1.105 0 2 0.896 2 2s-0.896 2-2 2v0c-1.105 0-2-0.896-2-2s0.896-2 2-2v0z"></path>
</svg>
