<!-- Generated by IcoMoon.io -->
<svg version="1.1" xmlns="http://www.w3.org/2000/svg" width="32" height="32" viewBox="0 0 32 32">
<title>network-wireless-signal-none</title>
<path d="M20.003 26.004c0 2.209-1.791 4.001-4.001 4.001s-4.001-1.791-4.001-4.001v0c0-2.209 1.791-4.001 4.001-4.001s4.001 1.791 4.001 4.001v0z"></path>
<path d="M16.002 4.001c-5.629 0-10.345 2-14.002 5.172v2.829h2.962c3.039-2.53 6.44-4.001 11.040-4.001s8.001 1.559 11.040 4.001h2.962v-2.763c-3.281-2.932-8.373-5.238-14.002-5.238z"></path>
<path d="M16.002 10.002c-4.334 0-8.041 1.478-10.002 4.001v2h4.001c1.578-1.213 3.518-2 6.001-2s4.439 0.787 6.001 2h4.001v-2c-1.99-2.446-5.748-4.001-10.002-4.001z"></path>
<path d="M16.002 16.003c-2.515 0-4.432 0.623-6.001 2v2h12.002v-2c-1.674-1.344-3.486-2-6.001-2z"></path>
</svg>
