<!-- Generated by IcoMoon.io -->
<svg version="1.1" xmlns="http://www.w3.org/2000/svg" width="32" height="32" viewBox="0 0 32 32">
<title>network-vpn-acquiring</title>
<path d="M8.001 22.003v2.020h6.001v1.981h-10.002v4.001h24.004v-4.001h-10.002v-1.981h6.001v-2.020h-16.002z"></path>
<path d="M16.002 2c-3.29 0-6.001 2.71-6.001 6.001v2h-2v2.020h16.002v-2.020h-2v-2c0-3.29-2.71-6.001-6.001-6.001zM16.002 6.001c1.128 0 2 0.872 2 2v2h-4.001v-2c0-1.128 0.872-2 2-2z"></path>
<path d="M10.002 17.003c0 1.657-1.343 3-3 3s-3-1.343-3-3c0-1.657 1.343-3 3-3s3 1.343 3 3z"></path>
<path d="M18.003 17.003c0 1.657-1.343 3-3 3s-3-1.343-3-3c0-1.657 1.343-3 3-3s3 1.343 3 3z"></path>
<path d="M26.004 17.003c0 1.657-1.343 3-3 3s-3-1.343-3-3c0-1.657 1.343-3 3-3s3 1.343 3 3z"></path>
</svg>
