<!-- Generated by IcoMoon.io -->
<svg version="1.1" xmlns="http://www.w3.org/2000/svg" width="32" height="32" viewBox="0 0 32 32">
<title>network-server</title>
<path d="M3 28.004h26.004c0.554 0 1 0.446 1 1v2c0 0.554-0.446 1-1 1h-26.004c-0.001 0-0.001 0-0.002 0-0.551 0-0.998-0.447-0.998-0.998 0-0.001 0-0.001 0-0.002v0-2c0-0.554 0.446-1 1-1z"></path>
<path d="M10.002 0c-2.18 0-4.001 1.82-4.001 4.001v16.002c0 2.18 1.82 4.001 4.001 4.001h12.002c2.18 0 4.001-1.82 4.001-4.001v-16.002c0-2.18-1.82-4.001-4.001-4.001zM10.002 4.001h12.002v16.002h-12.002z"></path>
<path d="M12.002 6.001h8.001v2h-8.001zM18.003 10.002h2v2h-2zM14.002 22.003h4.001v8.001h-4.001z"></path>
</svg>
