<!-- Generated by IcoMoon.io -->
<svg version="1.1" xmlns="http://www.w3.org/2000/svg" width="32" height="32" viewBox="0 0 32 32">
<title>network-cellular-4g</title>
<path d="M4.127 0c-2.304 0-4.127 1.824-4.127 4.127v23.752c0 2.302 1.824 4.127 4.127 4.127h23.752c2.302 0 4.127-1.824 4.127-4.127v-23.752c0-2.304-1.824-4.127-4.127-4.127zM4.001 6.001h4.001v8.001h2v-2h4.001v14.002h-4.001v-8.001h-2c-2 0-4.001-1.684-4.001-4.001zM20.129 6.063h3.813c0.006 0-0.006 0.064 0 0.062 1.054-0.040 2.144 0.154 3 0.94 0.83 0.76 1.186 2.014 1.124 3.186h0.062v1.75h-4.001v-1.936c-0.034-0.006 0.006-0.006-0.060 0h-4.005c-0.012 0.006-0.058-0.008-0.060 0-0.016 0.044 0.012 0.092 0 0.124v11.69c-0.048-0.044 0 0.124 0 0.124h3.937c0.014-0.040 0.060-0.032 0.062 0v-3.939h-2v-4.001h6.001v7.877c0 1.124-0.454 2-1.124 2.75-0.72 0.77-1.742 1.251-2.876 1.251-0.023 0-0.045-0-0.068-0.001l0.003 0v0.062h-3.935c-1.25 0-1.988-0.482-2.688-1.126-0.769-0.686-1.251-1.679-1.251-2.786 0-0.031 0-0.062 0.001-0.093l-0 0.005c0-0.004-0.062 0.004-0.060 0v-12.128c0.124-0.874 0.41-1.778 1.124-2.56 0.714-0.786 1.892-1.252 3-1.252z"></path>
</svg>
