<!-- Generated by IcoMoon.io -->
<svg version="1.1" xmlns="http://www.w3.org/2000/svg" width="32" height="32" viewBox="0 0 32 32">
<title>network-error</title>
<path d="M20.003 2v2c0 0.514 0.26 1.058 0.626 1.438l2.56 2.562h-9.187c-1.056-0.014-2 0.944-2 2s0.944 2.014 2 2h9.251l-2.438 2.562c-0.364 0.38-0.812 0.924-0.812 1.438v0.852c1.24-0.754 3.819-1.014 4.961-0.79l5.853-6.063-7.313-7.439c-0.396-0.38-0.88-0.562-1.5-0.562zM10.002 14.002c-0.62 0-1.23 0.18-1.624 0.562l-7.189 7.439 7.313 7.439c0.396 0.38 0.88 0.562 1.5 0.562h2v-2c0-0.514-0.26-1.058-0.624-1.438l-2.564-2.562h7.251c0.044-0.554 0.226-2 1.446-4.001h-8.759l2.438-2.562c0.364-0.38 0.812-0.924 0.812-1.438v-2z"></path>
<path d="M25.004 18.003c-3.867 0-7.001 3.134-7.001 7.001s3.134 7.001 7.001 7.001v0c3.867 0 7.001-3.134 7.001-7.001s-3.134-7.001-7.001-7.001v0zM20.003 23.942h10.002v2.062h-10.002z"></path>
</svg>
