<!-- Generated by IcoMoon.io -->
<svg version="1.1" xmlns="http://www.w3.org/2000/svg" width="32" height="32" viewBox="0 0 32 32">
<title>network-wired-acquiring</title>
<path d="M0 21.981h10.036v9.948h-10.036zM10.052 2.053h10.036v9.948h-10.036zM22.057 22.061h10.036v9.948h-10.036z"></path>
<path d="M7.087 14.082c1.659 0 2.993 1.337 2.993 2.995v0.010c0 1.659-1.335 2.993-2.993 2.993-0.002 0-0.004 0-0.006 0-1.65 0-2.987-1.337-2.987-2.987 0-0.002 0-0.004 0-0.006v0-0.010c0-1.659 1.335-2.993 2.993-2.993zM15.090 14.082c1.659 0 2.993 1.337 2.993 2.995v0.010c0 1.659-1.335 2.993-2.993 2.993-0.002 0-0.004 0-0.006 0-1.65 0-2.987-1.337-2.987-2.987 0-0.002 0-0.004 0-0.006v0-0.010c0-1.659 1.335-2.993 2.993-2.993z"></path>
<path d="M15.090 14.082c1.659 0 2.993 1.337 2.993 2.995v0.010c0 1.659-1.335 2.993-2.993 2.993-0.002 0-0.004 0-0.006 0-1.65 0-2.987-1.337-2.987-2.987 0-0.002 0-0.004 0-0.006v0-0.010c0-1.659 1.335-2.993 2.993-2.993zM23.093 14.082c1.659 0 2.993 1.337 2.993 2.995v0.010c0 1.659-1.335 2.993-2.993 2.993-0.002 0-0.004 0-0.006 0-1.65 0-2.987-1.337-2.987-2.987 0-0.002 0-0.004 0-0.006v0-0.010c0-1.659 1.335-2.993 2.993-2.993z"></path>
</svg>
