<!-- Generated by IcoMoon.io -->
<svg version="1.1" xmlns="http://www.w3.org/2000/svg" width="32" height="32" viewBox="0 0 32 32">
<title>network-cellular-gprs</title>
<path d="M4.127 0c-2.304 0-4.127 1.824-4.127 4.127v23.752c0 2.302 1.824 4.127 4.127 4.127h23.752c2.302 0 4.127-1.824 4.127-4.127v-23.752c0-2.304-1.824-4.127-4.127-4.127zM12.252 6.063h7.689c0.006 0-0.006 0.064 0 0.062 1.054-0.040 2.144 0.152 3 0.94 0.828 0.76 1.186 2.014 1.124 3.186h0.062v1.75h-4.001v-1.936c-0.034-0.006 0.008-0.006-0.060 0h-7.879c-0.014 0.006-0.060-0.008-0.064 0-0.014 0.044 0.014 0.092 0 0.124v11.688c-0.046-0.042-0.006 0.122 0 0.126h7.819c0.014-0.040 0.060-0.032 0.062 0v-3.939h-4.003v-4.001h8.001v7.877c0 1.124-0.454 2-1.126 2.75-0.72 0.77-1.742 1.251-2.876 1.251-0.021 0-0.042-0-0.063-0l0.003 0v0.062h-7.815c-1.248 0-1.988-0.482-2.686-1.126-0.769-0.686-1.251-1.679-1.251-2.786 0-0.031 0-0.062 0.001-0.093l-0 0.005c0-0.004-0.064 0.004-0.064 0v-12.126c0.126-0.876 0.412-1.78 1.126-2.564s1.892-1.25 3-1.25z"></path>
</svg>
