<!-- Generated by IcoMoon.io -->
<svg version="1.1" xmlns="http://www.w3.org/2000/svg" width="32" height="32" viewBox="0 0 32 32">
<title>non-starred</title>
<path d="M15.95 0.252c-0.953 0.020-1.697 0.537-2.121 0.99s-0.669 0.903-0.894 1.367c-0.45 0.927-0.768 1.94-1.085 2.904s-0.638 1.883-0.9 2.402c-0.040 0.080-0.036 0.064-0.071 0.121l-7.195-0.001c-0 0-0.001 0-0.001 0-0.915 0-1.689 0.582-1.946 1.384l-0.004 0.014c-0.465 1.487 0.201 2.453 0.741 3.296s1.218 1.634 1.904 2.405c0.686 0.771 1.377 1.512 1.898 2.124s0.845 1.216 0.786 1.039c-0.163-0.488-0.032 0.086-0.232 0.784s-0.539 1.615-0.865 2.552c-0.326 0.937-0.647 1.883-0.801 2.855-0.077 0.486-0.122 0.983-0.016 1.576s0.452 1.38 1.183 1.87c0.721 0.483 1.544 0.54 2.149 0.469s1.095-0.248 1.572-0.451c0.955-0.407 1.857-0.966 2.745-1.528s1.752-1.13 2.435-1.519c0.682-0.388 1.331-0.47 0.886-0.471-0.5-0.001 0.145 0.072 0.807 0.465s1.502 0.967 2.366 1.535 1.735 1.133 2.669 1.547c0.467 0.207 0.951 0.39 1.561 0.463s1.469 0 2.182-0.526c0.086-0.063 0.162-0.129 0.233-0.199l0.001-0.001c1.027-1.027 1.113-2.43 0.948-3.459s-0.533-1.949-0.885-2.83c-0.352-0.882-0.697-1.718-0.884-2.369-0.187-0.649-0.147-1.060-0.153-1.045-0 0 0 0-0 0-0.106 0.318 0.176-0.225 0.721-0.755 0.549-0.535 1.303-1.195 2.052-1.914s1.5-1.486 2.090-2.404c0.59-0.918 1.121-2.197 0.621-3.581-0.285-0.774-1.038-1.319-1.923-1.319-0.001 0-0.001 0-0.002 0l-7.191-0.001c-0.039-0.063-0.040-0.049-0.084-0.135-0.284-0.549-0.634-1.483-0.991-2.46s-0.719-1.994-1.2-2.912c-0.24-0.459-0.502-0.902-0.932-1.342s-1.186-0.957-2.172-0.937zM16.048 5.849c0.127 0.33 0.233 0.542 0.364 0.9 0.356 0.974 0.714 1.991 1.188 2.908 0.237 0.459 0.493 0.898 0.913 1.338s1.151 0.97 2.142 0.97h4.733c-0.199 0.211-0.295 0.368-0.525 0.589-0.66 0.634-1.405 1.284-2.071 1.932s-1.308 1.139-1.704 2.306c-0.001 0-0.001 0-0.002 0s-0.001 0-0.002 0h0c-0.414 1.236-0.174 2.328 0.108 3.308s0.677 1.899 1.009 2.73c0.145 0.362 0.181 0.567 0.288 0.879-0.321-0.194-0.551-0.3-0.906-0.534-0.816-0.536-1.678-1.133-2.526-1.636s-1.521-1.045-2.93-1.048c-1.387 0-2.096 0.523-2.966 1.018s-1.757 1.084-2.597 1.615c-0.377 0.239-0.629 0.352-0.969 0.549 0.092-0.295 0.12-0.48 0.232-0.803 0.308-0.885 0.664-1.831 0.927-2.75s0.628-1.717 0.186-3.040c-0.348-1.042-0.902-1.61-1.517-2.331s-1.316-1.47-1.955-2.189c-0.203-0.228-0.302-0.388-0.486-0.607l4.52 0c0 0 0 0 0.001 0 0.014 0 0.029-0 0.043-0l-0.002 0c0.927-0.020 1.681-0.503 2.125-0.953s0.71-0.91 0.947-1.379c0.473-0.938 0.799-1.958 1.119-2.93 0.113-0.343 0.206-0.539 0.315-0.854z"></path>
</svg>
