<!-- Generated by IcoMoon.io -->
<svg version="1.1" xmlns="http://www.w3.org/2000/svg" width="32" height="32" viewBox="0 0 32 32">
<title>object-rotate-left</title>
<path d="M4.001 18.003v2c0 0.53 0.186 1.060 0.562 1.438l7.441 7.439 7.437-7.441c0.376-0.374 0.562-0.906 0.562-1.436v-2h-2c-0.53 0-1.060 0.186-1.438 0.562l-4.561 4.563-4.565-4.561c-0.364-0.349-0.859-0.564-1.405-0.564-0.012 0-0.024 0-0.035 0l0.002-0z"></path>
<path d="M17.003 6.001c-3.86 0.017-6.984 3.141-7.001 6.999v11.003h4.001v-11.002c0-1.68 1.32-3 3-3h9.001v-4.001z"></path>
</svg>
