<!-- Generated by IcoMoon.io -->
<svg version="1.1" xmlns="http://www.w3.org/2000/svg" width="32" height="32" viewBox="0 0 32 32">
<title>object-flip-vertical</title>
<path d="M14.002 6.001v20.003h4.001v-20.003z"></path>
<path d="M8.001 20.003v2c0 0.53 0.186 1.060 0.562 1.438l7.441 7.439 7.437-7.441c0.376-0.374 0.562-0.906 0.562-1.436v-2h-2c-0.53 0-1.060 0.186-1.438 0.562l-4.561 4.563-4.565-4.561c-0.364-0.349-0.859-0.564-1.405-0.564-0.012 0-0.024 0-0.035 0l0.002-0zM8.001 12.002v-2c0-0.53 0.186-1.060 0.564-1.438l7.437-7.439 7.439 7.441c0.376 0.374 0.562 0.906 0.562 1.436v2h-2c-0.53 0-1.060-0.186-1.436-0.562l-4.565-4.565-4.561 4.567c-0.364 0.347-0.857 0.56-1.401 0.56-0.014 0-0.028-0-0.042-0l0.002 0z"></path>
</svg>
