<!-- Generated by IcoMoon.io -->
<svg version="1.1" xmlns="http://www.w3.org/2000/svg" width="32" height="32" viewBox="0 0 32 32">
<title>object-flip-horizontal</title>
<path d="M6.001 14.002v4.001h20.003v-4.001z"></path>
<path d="M20.003 8.001v2c0 0.514 0.26 1.056 0.626 1.438l4.561 4.563-4.561 4.563c-0.366 0.38-0.626 0.924-0.626 1.438v2h2c0.62 0 1.104-0.18 1.5-0.562l7.313-7.439-7.313-7.439c-0.396-0.38-0.88-0.562-1.5-0.562zM12.002 8.001v2c0 0.514-0.26 1.056-0.624 1.438l-4.565 4.563 4.565 4.563c0.364 0.38 0.624 0.924 0.624 1.438v2h-2c-0.62 0-1.104-0.18-1.5-0.562l-7.313-7.439 7.313-7.439c0.396-0.38 0.88-0.562 1.5-0.562z"></path>
</svg>
