<!-- Generated by IcoMoon.io -->
<svg version="1.1" xmlns="http://www.w3.org/2000/svg" width="32" height="32" viewBox="0 0 32 32">
<title>orientation-landscape</title>
<path d="M4.255 6.081c-0.002 0-0.004 0-0.006 0-1.226 0-2.22 0.994-2.22 2.22 0 0.002 0 0.004 0 0.006v-0 15.694c0 0.002 0 0.004 0 0.006 0 1.226 0.994 2.22 2.22 2.22 0.002 0 0.004 0 0.006 0h23.479c0.002 0 0.004 0 0.006 0 1.226 0 2.22-0.994 2.22-2.22 0-0.002 0-0.004 0-0.006v0-15.694c0-0.002 0-0.004 0-0.006 0-1.226-0.994-2.22-2.22-2.22-0.002 0-0.004 0-0.006 0h0zM15.94 12.082l8.001 8.001h-16.002z"></path>
</svg>
