<!-- Generated by IcoMoon.io -->
<svg version="1.1" xmlns="http://www.w3.org/2000/svg" width="32" height="32" viewBox="0 0 32 32">
<title>package-x-generic</title>
<path d="M6.001 16.002h20.003v14.12c0 0.984-0.944 1.874-1.992 1.874h-16.010c-1.078 0-2-0.86-2-2z"></path>
<path d="M13.59 5.941c-0.611 0.019-1.151 0.308-1.505 0.752l-0.003 0.004-5.631 6.915c-0.279 0.341-0.448 0.782-0.448 1.262 0 0.002 0 0.003 0 0.005v-0 2c0 1.105 0.896 2 2 2s2-0.896 2-2v-1.29l5.185-6.363c0.292-0.345 0.469-0.796 0.469-1.287 0-1.105-0.896-2-2-2-0.024 0-0.049 0-0.073 0.001l0.004-0zM18.017 11.948c-1.097 0.010-1.982 0.902-1.982 2 0 0.996 0.728 1.822 1.68 1.975l0.011 0.002 4.341 0.76v0.32c0 1.105 0.896 2 2 2s2-0.896 2-2v0-2c0-0.001 0-0.002 0-0.004 0-0.983-0.709-1.801-1.644-1.969l-0.012-0.002-5.997-1.046c-0.114-0.023-0.245-0.036-0.378-0.036-0.008 0-0.015 0-0.023 0h0.001z"></path>
</svg>
