<!-- Generated by IcoMoon.io -->
<svg version="1.1" xmlns="http://www.w3.org/2000/svg" width="32" height="32" viewBox="0 0 32 32">
<title>preferences-system</title>
<path d="M7.099 0.18c-0.825 0.017-1.609 0.174-2.335 0.448l0.048-0.016 3.771 3.761c0.774 0.772 0.774 2 0 2.774l-1.422 1.416c-0.355 0.357-0.847 0.578-1.39 0.578s-1.035-0.221-1.39-0.578l-0-0-3.775-3.761c-0.259 0.676-0.416 1.457-0.432 2.273l-0 0.007c0.005 3.815 3.098 6.905 6.913 6.905 0.003 0 0.006 0 0.008 0h-0c0.826-0.017 1.61-0.174 2.337-0.448l-0.048 0.016 2.348 2.342c0.018-0 0.040-0 0.062-0s0.044 0 0.065 0l-0.003-0 4.141-4.129-2.41-2.404c0.25-0.712 0.434-1.484 0.434-2.28-0.005-3.815-3.098-6.905-6.913-6.905-0.003 0-0.006 0-0.008 0h0zM20.201 15.962l-4.141 4.129c0.011 0.026 0.032 0.087 0.052 0.149l0.010 0.035 2.288 2.28c-0.259 0.676-0.417 1.457-0.434 2.273l-0 0.007c0.005 3.815 3.098 6.905 6.913 6.905 0.004 0 0.007 0 0.011 0h-0.001c0.868 0 1.708-0.204 2.472-0.494l-4.017-4.007c-0.359-0.364-0.58-0.865-0.58-1.417s0.222-1.053 0.581-1.417l-0 0 1.36-1.356c0.386-0.386 0.914-0.616 1.42-0.616s1.034 0.23 1.42 0.616l3.895 3.883c0.21-0.66 0.372-1.366 0.372-2.094-0.005-3.815-3.098-6.905-6.913-6.905-0.003 0-0.006 0-0.008 0h0c-0.826 0.017-1.61 0.174-2.337 0.448l0.048-0.016-2.41-2.404z"></path>
<path d="M27.72 0l-3.084 2.876c-0.904 0.84-1.060 2.296-0.534 3.413l-11.778 11.994c-0.009-0-0.020-0-0.031-0s-0.022 0-0.033 0h0.002c-0.39-0.199-0.85-0.316-1.338-0.316-0.121 0-0.24 0.007-0.357 0.021l0.014-0.001c-0.686 0.098-1.285 0.416-1.733 0.879l-0.001 0.001-7.893 7.997c-0.531 0.538-0.858 1.276-0.858 2.090 0 1.646 1.338 2.98 2.989 2.98 0.834 0 1.588-0.341 2.13-0.89l0-0 7.893-7.995c0.562-0.542 0.911-1.301 0.911-2.141 0-0.487-0.117-0.947-0.325-1.352l0.008 0.017 11.778-11.932c1.116 0.498 2.546 0.294 3.415-0.584l2.834-3.12-4.009-3.937z"></path>
</svg>
