<!-- Generated by IcoMoon.io -->
<svg version="1.1" xmlns="http://www.w3.org/2000/svg" width="32" height="32" viewBox="0 0 32 32">
<title>preferences-system-devices</title>
<path d="M18.003 12.002c-2.18 0-4.001 1.82-4.001 4.001v6.001c0 2.18 1.82 4.001 4.001 4.001h10.002c2.18 0 4.001-1.82 4.001-4.001v-6.001c0-2.18-1.82-4.001-4.001-4.001zM18.003 16.002h10.002v6.001h-10.002z"></path>
<path d="M23.003 30.005c-5.001 0-5.001-1-5.001-1 0-1 1-1 1-1h8.001c1 0 1 1 1 1s0 1-5.001 1zM6.001 2v2h10.002v-2zM4.001 6.001c-1.108 0-2 0.892-2 2v4.001c0 1.108 0.892 2 2 2v-2h9.551c1.098-1.22 2.672-2 4.451-2h2v-2c0-1.108-0.892-2-2-2h-12.002zM6.001 14.002v6.001h6.001v-4.001c0-0.706 0.14-1.372 0.364-2z"></path>
</svg>
