<!-- Generated by IcoMoon.io -->
<svg version="1.1" xmlns="http://www.w3.org/2000/svg" width="32" height="32" viewBox="0 0 32 32">
<title>preferences-desktop-keyboard-shortcuts</title>
<path d="M3.004 16.002c-1.664 0-3.004 1.338-3.004 3v8.001c0 1.662 1.34 3 3.004 3h18.023c1.664 0 3.004-1.338 3.004-3v-8.001c0-1.662-1.34-3-3.004-3zM3.128 18.003c6.373 0.538 12.234 0.46 17.773 0 0.606-0.050 1.128 0.52 1.128 1.126v5.749c0 0.606-0.524 1.058-1.128 1.126-6.009 0.68-11.93 0.654-17.773 0-0.602-0.068-1.126-0.52-1.126-1.126v-5.749c0-0.606 0.522-1.176 1.126-1.126zM19.023 0c-1.662 0-3 1.338-3 3v8.001c0 1.662 1.338 3 3 3h8.011c1.664 0 3.004-1.338 3.004-3v-8.001c0-1.662-1.34-3-3.004-3zM19.149 2c2.588 0.256 5.175 0.244 7.761 0 0.604-0.058 1.126 0.52 1.126 1.126v5.751c0 0.604-0.524 1.050-1.126 1.124-2.51 0.308-5.085 0.36-7.761 0-0.6-0.080-1.126-0.52-1.126-1.126v-5.749c0-0.604 0.524-1.184 1.126-1.124zM3.004 2c-1.664 0-3.004 1.338-3.004 3v6.001c0 1.662 1.34 3 3.004 3h8.009c1.664 0 3.004-1.338 3.004-3v-6.001c0-1.662-1.34-3-3.004-3zM3.128 4.001c3.385 0.4 5.697 0.26 7.761 0 0.6-0.076 1.126 0.52 1.126 1.126v5.749c0 0.606-0.524 1.048-1.126 1.126-1.165 0.159-2.512 0.25-3.881 0.25s-2.715-0.091-4.035-0.267l0.155 0.017c-0.6-0.076-1.126-0.52-1.126-1.126v-5.749c0-0.604 0.524-1.194 1.126-1.124z"></path>
</svg>
