<!-- Generated by IcoMoon.io -->
<svg version="1.1" xmlns="http://www.w3.org/2000/svg" width="32" height="32" viewBox="0 0 32 32">
<title>preferences-other</title>
<path d="M0.004 24.004c0.008-0.448 0.225-1.061 0.608-1.409l4.324-4.234c0.465-0.487 1.574-0.585 2.022-0.314 0.161 0.004 2.271 1.263 2.577 1.731 1.233 1.892-0.688 3.655-2.348 3.094l-0.699-0.423-3.205 3.144c-1.275 1.053-3.383 0.184-3.278-1.59z"></path>
<path d="M23.242 0.237c0.779-0.203 1.582-0.222 2.342-0.162l-2.72 4.612c-0.559 0.948-0.246 2.142 0.708 2.696l1.749 1.017c0.953 0.554 2.155 0.241 2.714-0.707l2.72-4.612c0.425 0.629 0.801 1.332 1.004 2.107 0.973 3.706-1.263 7.497-4.994 8.469-0.779 0.203-1.582 0.222-2.342 0.162l-1.605 2.23-6.82-0.045c0 0 3.038-5.155 3.254-5.19-0.425-0.629-0.801-1.332-1.004-2.107-0.973-3.706 1.263-7.497 4.994-8.469z"></path>
<path d="M7.199 1.438c-0.46 0.094-0.887 0.262-1.311 0.438-0.033 1.249 0.174 2.884-0.312 3.313-0.477 0.422-2.074 0.069-3.308-0.063-0.262 0.473-0.47 0.971-0.624 1.5 0.955 0.792 2.278 1.678 2.309 2.313 0.032 0.642-1.251 1.61-2.122 2.5 0.207 0.516 0.5 0.987 0.811 1.438 1.215-0.253 2.729-0.747 3.246-0.375 0.526 0.379 0.53 2.011 0.687 3.251 0.498 0.15 1.024 0.209 1.56 0.25 0.562-1.109 1.133-2.64 1.748-2.813 0.631-0.177 1.925 0.916 2.996 1.563 0.437-0.303 0.825-0.674 1.186-1.063-0.507-1.145-1.44-2.584-1.186-3.188s1.948-0.939 3.121-1.375c0.008-0.147 0.062-0.288 0.062-0.438 0-0.383-0.069-0.758-0.125-1.125-1.211-0.322-2.931-0.483-3.246-1.063-0.313-0.576 0.483-2.123 0.874-3.313-0.402-0.357-0.838-0.674-1.311-0.938-1 0.75-2.166 1.989-2.809 1.875-0.633-0.112-1.324-1.639-1.997-2.688-0.080 0.014-0.17-0.016-0.25 0zM8.447 5.188c1.862 0 3.371 1.511 3.371 3.375s-1.509 3.376-3.371 3.376c-1.861 0-3.371-1.511-3.371-3.376s1.509-3.376 3.371-3.376z"></path>
<path d="M5.995 18.003h19.974l0.016 12.127c0 0.985-0.944 1.875-1.99 1.875h-15.987c-1.077 0-1.997-0.859-1.997-2z"></path>
<path d="M31.926 23.958c-0.008-0.448-0.225-1.061-0.608-1.409l-4.324-4.234c-0.465-0.487-1.574-0.585-2.022-0.314-0.161 0.004-2.271 1.263-2.577 1.731-1.233 1.892 0.688 3.655 2.348 3.094l0.699-0.423 3.205 3.144c1.275 1.053 3.383 0.185 3.278-1.59z"></path>
</svg>
