<!-- Generated by IcoMoon.io -->
<svg version="1.1" xmlns="http://www.w3.org/2000/svg" width="32" height="32" viewBox="0 0 32 32">
<title>preferences-desktop-font</title>
<path d="M6 10.025v4.001h3.84c-0.11 0 0.168 0.319 0.168 0.164v1.848h-2.008c-3.432 0-6.061 2.251-6.11 4.97-0.025 1.359 0.612 2.726 1.723 3.645s2.631 1.399 4.387 1.399h6.009v-11.861c0-2.343-1.775-4.165-4.169-4.165h-3.84zM8.001 20.038h2.008v2.012h-2.008c-1.039 0-1.588-0.276-1.84-0.484s-0.272-0.344-0.27-0.488c0.006-0.288 0.17-1.039 2.11-1.039z"></path>
<path d="M15.998 8.001v18.050h6.005c1.877 0 3.538-0.745 4.598-1.918s1.532-2.674 1.512-4.133c-0.020-1.46-0.525-2.932-1.578-4.087s-2.69-1.91-4.532-1.91h-2.004v-6.001h-4.001zM19.999 18.003h2.004c0.844 0 1.251 0.251 1.574 0.606s0.528 0.894 0.535 1.446c0.008 0.552-0.177 1.059-0.481 1.395s-0.712 0.602-1.629 0.602h-2.004v-4.047z"></path>
</svg>
