<!-- Generated by IcoMoon.io -->
<svg version="1.1" xmlns="http://www.w3.org/2000/svg" width="32" height="32" viewBox="0 0 32 32">
<title>preferences-desktop-display</title>
<path d="M24.004 2c3.325 0 6.001 2.676 6.001 6.001v12.002c0 3.325-2.676 6.001-6.001 6.001h-16.002c-3.325 0-6.001-2.676-6.001-6.001v-12.002c0-3.325 2.676-6.001 6.001-6.001h16.002zM24.004 6.001h-16.002c-1.108 0-2 0.892-2 2v12.002c0 1.108 0.892 2 2 2h16.002c1.108 0 2-0.892 2-2v-12.002c0-1.108-0.892-2-2-2z"></path>
<path d="M16.002 28.004c-10.002 0-10.002 2-10.002 2 0 2 2 2 2 2h16.002c2 0 2-2 2-2s0-2-10.002-2z"></path>
<path d="M6.001 4.001l-2 19.052 24.004-1.049zM8.038 11.994l9.965 8.009-9.931 0.051z"></path>
</svg>
