<!-- Generated by IcoMoon.io -->
<svg version="1.1" xmlns="http://www.w3.org/2000/svg" width="32" height="32" viewBox="0 0 32 32">
<title>preferences-desktop-screensaver</title>
<path d="M24.221 12.002c1.24 1.502 1.991 3.422 1.991 5.521 0 4.799-3.89 8.689-8.689 8.689-2.099 0-4.019-0.752-5.521-1.991 1.051 4.478 5.067 7.784 9.866 7.784 5.599 0 10.137-4.539 10.137-10.137 0-4.799-3.306-8.815-7.784-9.866z"></path>
<path d="M13.025 5.582v0c0.796 0 1.442 0.646 1.442 1.442v0c0 0.796-0.646 1.442-1.442 1.442v0c-0.796 0-1.442-0.646-1.442-1.442v0c0-0.796 0.646-1.442 1.442-1.442z"></path>
<path d="M21.026 7.626v0c0.772 0 1.398 0.626 1.398 1.398v0c0 0.772-0.626 1.398-1.398 1.398v0c-0.772 0-1.398-0.626-1.398-1.398v0c0-0.772 0.626-1.398 1.398-1.398z"></path>
<path d="M15.025 11.583v0c0.796 0 1.442 0.646 1.442 1.442v0c0 0.796-0.646 1.442-1.442 1.442v0c-0.796 0-1.442-0.646-1.442-1.442v0c0-0.796 0.646-1.442 1.442-1.442z"></path>
<path d="M7.011 17.012l-1.49-4.511-4.511-1.49 4.511-1.49 1.49-4.511 1.49 4.511 4.511 1.49-4.511 1.49z"></path>
</svg>
