<!-- Generated by IcoMoon.io -->
<svg version="1.1" xmlns="http://www.w3.org/2000/svg" width="32" height="32" viewBox="0 0 32 32">
<title>preferences-system-time</title>
<path d="M15.003 0.027c-8.262 0-14.975 6.714-14.975 14.975s6.714 14.975 14.975 14.975c8.262 0 14.975-6.714 14.975-14.975s-6.714-14.975-14.975-14.975zM15.003 3.974c6.1 0 11.028 4.929 11.028 11.028s-4.929 11.028-11.028 11.028c-6.1 0-11.028-4.929-11.028-11.028s4.929-11.028 11.028-11.028z"></path>
<path d="M8.626 7.939c-0.432 0.117-0.744 0.506-0.744 0.967 0 0.283 0.118 0.539 0.306 0.72l0 0 6.188 6.126c0.035 0.021 0.076 0.042 0.118 0.060l0.007 0.002c0.035 0.021 0.076 0.042 0.118 0.060l0.007 0.002c0.035 0.021 0.076 0.042 0.118 0.060l0.007 0.002c0.009 0 0.020 0.001 0.031 0.001s0.022-0 0.033-0.001l-0.002 0c0.035 0.021 0.076 0.042 0.118 0.060l0.007 0.002c0.028 0.003 0.061 0.004 0.094 0.004s0.066-0.002 0.098-0.005l-0.004 0h5.876c0.004 0 0.009 0 0.014 0 0.552 0 1-0.448 1-1s-0.448-1-1-1c-0.005 0-0.010 0-0.015 0h-5.5l-5.938-5.751c-0.184-0.204-0.449-0.332-0.744-0.332-0.069 0-0.136 0.007-0.2 0.020l0.006-0.001z"></path>
</svg>
