<!-- Generated by IcoMoon.io -->
<svg version="1.1" xmlns="http://www.w3.org/2000/svg" width="32" height="32" viewBox="0 0 32 32">
<title>preferences-color</title>
<path d="M16.002 2c-4.407 0-8.001 3.595-8.001 8.001s3.595 8.001 8.001 8.001c4.407 0 8.001-3.595 8.001-8.001s-3.595-8.001-8.001-8.001zM16.002 4.133c0.005 0 0.010-0 0.016-0 3.232 0 5.853 2.62 5.853 5.853 0 0.006 0 0.011-0 0.017v-0.001c0 0.005 0 0.010 0 0.016 0 3.232-2.62 5.853-5.853 5.853-0.006 0-0.011 0-0.017-0h0.001c-0.004 0-0.009 0-0.014 0-3.232 0-5.853-2.62-5.853-5.853 0-0.006 0-0.011 0-0.017v0.001c0-0.005-0-0.010-0-0.016 0-3.232 2.62-5.853 5.853-5.853 0.005 0 0.010 0 0.015 0h-0.001z"></path>
<path d="M8.001 16.002c-4.407 0-8.001 3.595-8.001 8.001s3.595 8.001 8.001 8.001c4.407 0 8.001-3.595 8.001-8.001s-3.595-8.001-8.001-8.001zM8.001 18.135c0.005 0 0.010-0 0.016-0 3.232 0 5.853 2.62 5.853 5.853 0 0.006 0 0.011-0 0.017v-0.001c0 0.005 0 0.010 0 0.016 0 3.232-2.62 5.853-5.853 5.853-0.006 0-0.011 0-0.017-0h0.001c-0.004 0-0.009 0-0.014 0-3.232 0-5.853-2.62-5.853-5.853 0-0.006 0-0.011 0-0.017v0.001c0-0.005-0-0.010-0-0.016 0-3.232 2.62-5.853 5.853-5.853 0.005 0 0.010 0 0.015 0h-0.001z"></path>
<path d="M32.001 24.004c0 4.418-3.58 7.999-7.997 8.001h-0c-4.419 0-8.001-3.582-8.001-8.001v0c0-4.419 3.582-8.001 8.001-8.001v0c4.417 0.002 7.997 3.584 7.997 8.001v0z"></path>
<path d="M14.936 24.004c0 3.83-3.105 6.935-6.935 6.935v0c-3.829-0.001-6.933-3.106-6.933-6.935v0c0-3.829 3.104-6.934 6.933-6.935h0c3.83 0 6.935 3.105 6.935 6.935v0z"></path>
</svg>
