<!-- Generated by IcoMoon.io -->
<svg version="1.1" xmlns="http://www.w3.org/2000/svg" width="32" height="32" viewBox="0 0 32 32">
<title>preferences-desktop-keyboard-shortcuts</title>
<path d="M3.004 16.002c-1.664 0-3.004 1.338-3.004 3v8.001c0 1.662 1.34 3 3.004 3h18.023c1.664 0 3.004-1.338 3.004-3v-8.001c0-1.662-1.34-3-3.004-3zM3.129 18.003c6.372 0.537 12.233 0.462 17.773 0 0.605-0.050 1.126 0.519 1.126 1.125v5.751c0 0.606-0.524 1.057-1.126 1.125-6.009 0.679-11.93 0.654-17.773 0-0.603-0.067-1.126-0.519-1.126-1.125v-5.751c0-0.606 0.522-1.176 1.126-1.125z"></path>
<path d="M19.024 0c-1.664 0-3.004 1.338-3.004 3v8.001c0 1.662 1.34 3 3.004 3h8.010c1.664 0 3.004-1.338 3.004-3v-8.001c0-1.662-1.34-3-3.004-3zM19.15 2c2.587 0.256 5.173 0.244 7.76 0 0.604-0.057 1.126 0.519 1.126 1.125v5.751c0 0.606-0.524 1.051-1.126 1.125-2.51 0.307-5.084 0.358-7.76 0-0.601-0.081-1.126-0.519-1.126-1.125v-5.751c0-0.606 0.523-1.185 1.126-1.125z"></path>
<path d="M3.004 2c-1.664 0-3.004 1.338-3.004 3v6.001c0 1.662 1.34 3 3.004 3h8.010c1.664 0 3.004-1.338 3.004-3v-6.001c0-1.662-1.34-3-3.004-3zM3.129 4.001c3.384 0.399 5.697 0.262 7.76 0 0.602-0.076 1.126 0.519 1.126 1.125v5.751c0 0.606-0.525 1.048-1.126 1.125-2.43 0.313-4.997 0.354-7.76 0-0.602-0.077-1.126-0.519-1.126-1.125v-5.751c0-0.606 0.524-1.196 1.126-1.125z"></path>
</svg>
