<!-- Generated by IcoMoon.io -->
<svg version="1.1" xmlns="http://www.w3.org/2000/svg" width="32" height="32" viewBox="0 0 32 32">
<title>printer-warning</title>
<path d="M17.753 16.002c-0.007-0-0.016-0-0.024-0-0.953 0-1.726 0.773-1.726 1.726 0 0.009 0 0.017 0 0.025v-0.001 12.502c0 0.984 0.764 1.75 1.75 1.75h12.502c0.007 0 0.016 0 0.024 0 0.953 0 1.726-0.773 1.726-1.726 0-0.009-0-0.017-0-0.025v0.001-12.502c0-0.007 0-0.016 0-0.024 0-0.953-0.773-1.726-1.726-1.726-0.009 0-0.017 0-0.025 0h0.001zM22.003 18.003h4.001v8.001h-4.001zM22.003 28.004h4.001v2h-4.001z"></path>
<path d="M4.001 8.001c-1 0-2 1-2 2v8.001c0 1 1 2 2 2h2v-4.001h8.001c0.236-1.080 1.104-2 2.25-2h13.752v-4.001c0-1-1-2-2-2zM8.001 2v4.001h16.002v-4.001z"></path>
<path d="M8.001 18.003v10.002h6.001v-10.002z"></path>
</svg>
