<!-- Generated by IcoMoon.io -->
<svg version="1.1" xmlns="http://www.w3.org/2000/svg" width="32" height="32" viewBox="0 0 32 32">
<title>printer-warning</title>
<path d="M17.752 16.002c-0.985 0-1.75 0.765-1.75 1.75v12.502c0 0.985 0.765 1.75 1.75 1.75h12.502c0.985 0 1.75-0.765 1.75-1.75v-12.502c0-0.985-0.765-1.75-1.75-1.75h-12.502zM22.003 18.003h4.001v8.001h-4.001v-8.001zM22.003 28.004h4.001v2h-4.001v-2z"></path>
<path d="M4 8.001c-1 0-2 1-2 2v8.001c0 1 1 2 2 2h2v-4.001h8.001c0.236-1.079 1.103-1.875 2.25-1.875h13.752v-4.126c0-1-1-2-2-2h-24.004z"></path>
<path d="M8.001 2v4.001h16.002v-4.001h-16.002z"></path>
<path d="M8.001 18.003v10.002h6.001v-10.002z"></path>
</svg>
