<!-- Generated by IcoMoon.io -->
<svg version="1.1" xmlns="http://www.w3.org/2000/svg" width="32" height="32" viewBox="0 0 32 32">
<title>printer-error</title>
<path d="M4.001 8.001c-1 0-2 1-2 2v8.001c0 1 1 2 2 2h2v-4.001l24.004 0.008v-6.009c0-1-1-2-2-2zM8.001 2v4.001h16.002v-4.001z"></path>
<path d="M8.001 18.003v10.002h8.001l-0.012-10.002z"></path>
<path d="M25.004 18.003c-3.867 0-7.001 3.134-7.001 7.001s3.134 7.001 7.001 7.001v0c3.867 0 7.001-3.134 7.001-7.001s-3.134-7.001-7.001-7.001v0zM20.003 23.942h10.002v2.062h-10.002z"></path>
</svg>
