<!-- Generated by IcoMoon.io -->
<svg version="1.1" xmlns="http://www.w3.org/2000/svg" width="32" height="32" viewBox="0 0 32 32">
<title>radio-mixed</title>
<path d="M15.94 2.125c-7.717 0-14.002 6.285-14.002 14.002s6.285 14.002 14.002 14.002c7.717 0 14.002-6.285 14.002-14.002s-6.285-14.002-14.002-14.002zM15.94 4.126c6.643 0 12.064 5.358 12.064 12.002s-5.421 12.002-12.064 12.002c-6.643 0-12.002-5.358-12.002-12.002s5.358-12.002 12.002-12.002z"></path>
<path d="M9.376 12.127c-2.117 0.119-3.788 1.865-3.788 4.001 0 2.213 1.794 4.007 4.007 4.007 0.077 0 0.154-0.002 0.23-0.006l-0.011 0h12.252c0.017 0 0.037 0 0.057 0 2.21 0 4.001-1.791 4.001-4.001s-1.791-4.001-4.001-4.001c-0.020 0-0.040 0-0.060 0l0.003-0h-12.252c-0.065-0.004-0.142-0.006-0.219-0.006s-0.153 0.002-0.229 0.006l0.011-0z"></path>
</svg>
