<!-- Generated by IcoMoon.io -->
<svg version="1.1" xmlns="http://www.w3.org/2000/svg" width="32" height="32" viewBox="0 0 32 32">
<title>radio-checked</title>
<path d="M16.002 10.002c-3.313 0-6.001 2.688-6.001 6.001s2.688 6.001 6.001 6.001 6.001-2.688 6.001-6.001-2.688-6.001-6.001-6.001z"></path>
<path d="M16.010 2c-7.721 0-14.010 6.289-14.010 14.010s6.289 14.014 14.010 14.014c7.721 0 14.014-6.293 14.014-14.014s-6.293-14.010-14.014-14.010zM16.010 4.001c0.002 0 0.005 0 0.008 0 6.631 0 12.006 5.375 12.006 12.006 0 0.001 0 0.003 0 0.004v-0c0 0.001 0 0.003 0 0.004 0 6.633-5.377 12.010-12.010 12.010-0.001 0-0.003 0-0.004 0h0c-0.001 0-0.003 0-0.004 0-6.631 0-12.006-5.375-12.006-12.006 0-0.003 0-0.006 0-0.008v0c0-0.002 0-0.005 0-0.008 0-6.628 5.373-12.002 12.002-12.002 0.003 0 0.006 0 0.008 0h-0z"></path>
</svg>
