<!-- Generated by IcoMoon.io -->
<svg version="1.1" xmlns="http://www.w3.org/2000/svg" width="32" height="32" viewBox="0 0 32 32">
<title>rotation-locked</title>
<path d="M12.021 9.968c-2.17 0-3.986 1.752-3.986 3.924v2.178h-1.929v8.097h11.891v-8.097h-2.053v-2.178c0-2.174-1.754-3.928-3.924-3.928zM12.021 11.961c1.090 0 1.931 0.831 1.931 1.931v2.178h-3.924v-2.178c0-1.1 0.905-1.933 1.993-1.933z"></path>
<path d="M12.575 0c-1.026 0-2.051 0.387-2.818 1.156l-8.46 8.454c-0.714 0.724-1.155 1.72-1.155 2.818 0 1.102 0.444 2.101 1.164 2.826l-0-0 0.767 0.757 2.802-2.838-0.757-0.747 8.454-8.45 15.432 15.526-8.454 8.457-2.413-2.519-2.882 2.756 2.477 2.581c0.725 0.712 1.72 1.152 2.818 1.152s2.093-0.44 2.818-1.153l-0.001 0.001 8.454-8.454c0.712-0.726 1.151-1.72 1.151-2.818 0-1.095-0.438-2.089-1.148-2.815l0.001 0.001-15.428-15.532c-0.717-0.717-1.708-1.16-2.803-1.16-0.007 0-0.014 0-0.020 0h0.001z"></path>
</svg>
