<!-- Generated by IcoMoon.io -->
<svg version="1.1" xmlns="http://www.w3.org/2000/svg" width="32" height="32" viewBox="0 0 32 32">
<title>rotation-allowed</title>
<path d="M12.434 0c-1.026 0.001-2.035 0.353-2.805 1.122l-8.476 8.476c-1.538 1.538-1.509 4.135 0 5.671l0.941 0.744h5.671l-3.808-3.611 8.476-8.413 15.394 15.518c0.030 0.031 0.087 0.038 0.062 0.062l-8.476 8.476-3.461-3.788v5.609l0.594 0.921 0.062 0.062c1.538 1.538 4.071 1.538 5.609 0l8.476-8.476c1.538-1.538 1.526-4.072 0-5.609l-15.456-15.643c-0.769-0.774-1.779-1.123-2.804-1.122z"></path>
<path d="M3.45 25.955l5.602 5.602 5.605-5.605z"></path>
<path d="M2.026 17.997v1.994h2.836c0.941 0 1.744 0.28 2.286 0.744s0.876 1.099 0.876 2.076v4.472h1.994v-4.472c0-1.485-0.606-2.759-1.574-3.587s-2.247-1.227-3.584-1.227h-2.836z"></path>
</svg>
