<!-- Generated by IcoMoon.io -->
<svg version="1.1" xmlns="http://www.w3.org/2000/svg" width="32" height="32" viewBox="0 0 32 32">
<title>scanner</title>
<path d="M6.001 0c-1.157 0-2.12 0.398-2.938 1.125-0.409 0.363-0.779 0.836-1 1.5s-0.224 1.549 0.125 2.25l2 4.001c0.176 0.355 0.406 0.855 0.75 1.375 0.48-0.146 0.988-0.25 1.5-0.25h19.128c0.512 0 1.020 0.104 1.5 0.25 0.344-0.521 0.574-1.020 0.75-1.375l2-4.001c0.349-0.702 0.346-1.586 0.125-2.25s-0.591-1.137-1-1.5c-0.818-0.727-1.781-1.125-2.938-1.125h-20.003zM6.251 4.001h19.503l-1.563 3.125c-0.236 0.475-0.354 0.743-0.438 0.875h-15.502c-0.084-0.133-0.202-0.401-0.438-0.875l-1.563-3.125z"></path>
<path d="M8.001 12.002c-0.975 0-1.871 0.288-2.625 0.875s-1.375 1.564-1.375 2.688v16.44h24.004v-16.44c0-1.124-0.62-2.101-1.375-2.688s-1.65-0.875-2.625-0.875zM8.001 14.002h16.002v12.002h-16.002zM22.003 28.004h2v2h-2z"></path>
<path d="M6.001 8.001h20.003v-4.001h-20.003v4.001z"></path>
<path d="M10.001 22.066h12.002v2h-12.002v-2z"></path>
<path d="M10.001 16.065h12.002v1.938l-12.002 2z"></path>
</svg>
