<!-- Generated by IcoMoon.io -->
<svg version="1.1" xmlns="http://www.w3.org/2000/svg" width="32" height="32" viewBox="0 0 32 32">
<title>security-low</title>
<path d="M4.001 2v14.002c0 4.144 3.020 7.363 5.688 9.751s5.313 4.001 5.313 4.001l1 0.563 1.063-0.625c0 0 2.589-1.595 5.251-4.001s5.688-5.6 5.688-9.689v-14.002h-24.004zM8.001 6.001h16.002v10.002c0 1.84-1.974 4.638-4.313 6.751-1.812 1.637-2.958 2.278-3.688 2.75-0.708-0.445-1.857-1.050-3.688-2.688-2.332-2.087-4.313-4.855-4.313-6.814v-10.002z"></path>
</svg>
