<!-- Generated by IcoMoon.io -->
<svg version="1.1" xmlns="http://www.w3.org/2000/svg" width="32" height="32" viewBox="0 0 32 32">
<title>security-low</title>
<path d="M4.001 2v14.002c0 4.145 2.996 7.391 5.665 9.779 1.576 1.407 3.315 2.708 5.161 3.853l0.159 0.092 1.032 0.61 1.024-0.62s2.64-1.6 5.301-4.005c2.66-2.408 5.661-5.621 5.661-9.709v-14.002zM8.001 6.001h16.002v10.002c0 1.84-2 4.627-4.341 6.741-1.826 1.65-2.954 2.308-3.673 2.772-0.716-0.452-1.836-1.086-3.657-2.716-2.332-2.086-4.333-4.837-4.333-6.797z"></path>
</svg>
