<!-- Generated by IcoMoon.io -->
<svg version="1.1" xmlns="http://www.w3.org/2000/svg" width="32" height="32" viewBox="0 0 32 32">
<title>send-to</title>
<path d="M12.002 0l-8.009 5.201 4.677 0.728-4.021 11.614c4.483-0.864 8.771 1.52 9.799 6.507l9.289-9.203 2.266 3.391 2-10.236-9.629 0.39 2.544 3.136-8.917 5.491 1.216-9.97 4.431 0.91z"></path>
<path d="M6.981 20.033c0.004 0 0.008 0 0.012 0 2.753 0 4.985 2.232 4.985 4.985 0 0.004 0 0.007 0 0.011v-0.001c0 0.004 0 0.008 0 0.012 0 2.753-2.232 4.985-4.985 4.985-0.004 0-0.008 0-0.013-0h0.001c-0.003 0-0.006 0-0.010 0-2.753 0-4.985-2.232-4.985-4.985 0-0.004 0-0.007 0-0.011v0.001c0-0.003 0-0.006 0-0.010 0-2.753 2.232-4.985 4.985-4.985 0.004 0 0.007 0 0.011 0h-0.001z"></path>
</svg>
