<!-- Generated by IcoMoon.io -->
<svg version="1.1" xmlns="http://www.w3.org/2000/svg" width="32" height="32" viewBox="0 0 32 32">
<title>software-update-urgent</title>
<path d="M16.002 0.116l-4.531 6.827-6.825-2.296 2.294 6.825-6.825 4.531 6.825 4.531-2.294 6.825 6.825-2.296 4.531 6.827 4.529-6.827 6.827 2.296-2.296-6.825 6.827-4.531-6.827-4.531 2.296-6.825-6.827 2.296zM14.002 8.001h4.001v10.002h-4.001zM16.062 19.477c1.405 0 2.544 1.139 2.544 2.544s-1.139 2.544-2.544 2.544v0c-1.405 0-2.544-1.139-2.544-2.544s1.139-2.544 2.544-2.544v0z"></path>
</svg>
