<!-- Generated by IcoMoon.io -->
<svg version="1.1" xmlns="http://www.w3.org/2000/svg" width="32" height="32" viewBox="0 0 32 32">
<title>start-here</title>
<path d="M27.264 0c-6.651 0-7.897 9.471-4.157 9.471s10.806-9.471 4.155-9.471zM16.222 8.297c1.99 0.12 4.177-7.601 0.434-7.115s-2.426 6.993-0.434 7.115zM7.095 13.096c1.416-0.624 0.18-6.721-2.226-5.061-2.408 1.664 0.81 5.683 2.226 5.061zM11.086 9.902c1.686-0.342 1.78-7.259-1.228-6.019s-0.456 6.365 1.228 6.021zM19.891 25.382c0.3 2.284-1.676 3.413-3.611 1.94-6.161-4.689 10.196-7.027 9.117-13.434-0.894-5.317-17.209-3.681-19.067 4.641-1.256 5.627 5.177 13.434 11.89 13.434 3.303 0 7.113-2.982 7.825-6.761 0.544-2.88-6.405-1.726-6.155 0.18z"></path>
</svg>
