<!-- Generated by IcoMoon.io -->
<svg version="1.1" xmlns="http://www.w3.org/2000/svg" width="32" height="32" viewBox="0 0 32 32">
<title>start-here</title>
<path d="M27.263 0c-6.649 0-7.896 9.47-4.156 9.47s10.805-9.47 4.156-9.47z"></path>
<path d="M16.222 8.297c1.992 0.122 4.177-7.6 0.433-7.115-3.742 0.486-2.426 6.993-0.433 7.115z"></path>
<path d="M7.095 13.095c1.416-0.623 0.182-6.722-2.226-5.059-2.408 1.663 0.81 5.682 2.226 5.059z"></path>
<path d="M11.086 9.903c1.686-0.344 1.779-7.26-1.228-6.020s-0.456 6.364 1.228 6.020v0z"></path>
<path d="M19.891 25.382c0.299 2.285-1.676 3.413-3.611 1.94-6.159-4.689 10.197-7.028 9.119-13.434-0.895-5.317-17.21-3.68-19.067 4.639-1.258 5.628 5.176 13.434 11.89 13.434 3.303 0 7.112-2.982 7.825-6.76 0.544-2.881-6.405-1.726-6.155 0.18v0z"></path>
</svg>
