<!-- Generated by IcoMoon.io -->
<svg version="1.1" xmlns="http://www.w3.org/2000/svg" width="32" height="32" viewBox="0 0 32 32">
<title>star-new</title>
<path d="M16.002 1.375c-2.001-0.008-3.127 7.082-4.751 8.251s-8.688-0.025-9.314 1.875c-0.626 1.901 5.765 5.158 6.376 7.064s-2.677 8.257-1.063 9.439c1.615 1.183 6.687-3.884 8.689-3.876s7.003 5.17 8.626 4.001c1.624-1.17-1.626-7.601-1-9.501s7.049-5.096 6.438-7.001c-0.611-1.906-7.7-0.755-9.314-1.938s-2.688-8.306-4.688-8.314zM14.002 10.002h4.001v4.001h4.001v4.001h-4.001v4.001h-4.001v-4.001h-4.001v-4.001h4.001z"></path>
</svg>
