<!-- Generated by IcoMoon.io -->
<svg version="1.1" xmlns="http://www.w3.org/2000/svg" width="32" height="32" viewBox="0 0 32 32">
<title>system-users</title>
<path d="M22.003 8.001c-2.209 0-4.001 1.791-4.001 4.001v0c0 2.209 1.791 4.001 4.001 4.001v0c2.209 0 4.001-1.791 4.001-4.001v0c0-2.209-1.791-4.001-4.001-4.001v0zM20.003 18.003c-3.325 0-6.001 2.676-6.001 6.001v2c0 1.108 0.892 2 2 2h12.002c1.108 0 2-0.892 2-2v-2c0-3.325-2.676-6.001-6.001-6.001z"></path>
<path d="M10.002 4.001c-2.209 0-4.001 1.791-4.001 4.001v0c0 2.209 1.791 4.001 4.001 4.001v0c2.209 0 4.001-1.791 4.001-4.001v0c0-2.209-1.791-4.001-4.001-4.001v0zM8.001 14.002c-3.325 0-6.001 2.676-6.001 6.001v2c0 1.108 0.892 2 2 2h8.001c0-3.331 2.112-6.077 5.035-7.251-1.079-1.665-2.927-2.75-5.029-2.75-0.002 0-0.004 0-0.006 0h0zM18.003 20.539c-1.2 0.68-2 1.952-2 3.465 1.108 0 2-0.892 2-2v-0.5z"></path>
</svg>
