<!-- Generated by IcoMoon.io -->
<svg version="1.1" xmlns="http://www.w3.org/2000/svg" width="32" height="32" viewBox="0 0 32 32">
<title>system-lock-screen</title>
<path d="M6.001 14.002h20.003c1.108 0 2 0.892 2 2v6.001c0 1.108-0.892 2-2 2h-20.003c-1.108 0-2-0.892-2-2v-6.001c0-1.108 0.892-2 2-2z"></path>
<path d="M4.001 20.003h24.004v8.001h-24.004z"></path>
<path d="M14.002 2c-3.29 0-6.001 2.71-6.001 6.001v12.002c0 3.291 2.71 6.001 6.001 6.001h4.001c3.291 0 6.001-2.71 6.001-6.001v-12.002c0-3.29-2.71-6.001-6.001-6.001zM14.002 6.001h4.001c1.142 0 2 0.858 2 2v12.002c0 1.142-0.858 2-2 2h-4.001c-1.142 0-2-0.858-2-2v-12.002c0-1.142 0.858-2 2-2z"></path>
</svg>
