<!-- Generated by IcoMoon.io -->
<svg version="1.1" xmlns="http://www.w3.org/2000/svg" width="32" height="32" viewBox="0 0 32 32">
<title>system-run</title>
<path d="M22.753 0.5c-0.48 0.87-0.936 2.012-1.438 2.876-0.188-0.014-0.372-0.064-0.562-0.064-0.664 0-1.32 0.098-1.938 0.25-0.61-0.766-1.26-1.796-1.872-2.562-0.632 0.232-1.169 0.485-1.679 0.778l0.052-0.028c0.192 0.966 0.554 2.142 0.75 3.124-0.679 0.493-1.257 1.071-1.735 1.728l-0.015 0.022c-0.982-0.196-2.16-0.558-3.124-0.75-0.266 0.458-0.518 0.994-0.726 1.552l-0.024 0.074c0.766 0.614 1.796 1.264 2.56 1.874-0.153 0.581-0.244 1.249-0.248 1.938v0.003c0 0.19 0.048 0.374 0.062 0.56-0.864 0.504-2.004 0.96-2.874 1.44 0.1 0.548 0.256 1.106 0.436 1.624 0.984-0.020 2.2-0.19 3.188-0.188 0.374 0.784 0.84 1.508 1.438 2.126-0.344 0.934-0.896 2.016-1.25 2.936 0.426 0.352 0.9 0.652 1.374 0.938 0.74-0.64 1.552-1.542 2.314-2.188 0.756 0.346 1.576 0.532 2.436 0.626 0.33 0.954 0.61 2.176 0.94 3.124 0.032 0 0.069 0.001 0.107 0.001 0.579 0 1.148-0.045 1.703-0.133l-0.061 0.008c0.16-0.986 0.22-2.238 0.376-3.25 0.82-0.234 1.62-0.534 2.312-1 0.848 0.528 1.798 1.258 2.624 1.75 0.448-0.38 0.87-0.804 1.25-1.25-0.492-0.828-1.22-1.776-1.75-2.626 0.466-0.69 0.766-1.492 1-2.312 1.014-0.154 2.264-0.214 3.25-0.376 0.081-0.496 0.127-1.067 0.127-1.65 0-0.035-0-0.071-0-0.106l0 0.005c-0.95-0.328-2.172-0.608-3.126-0.936-0.094-0.86-0.28-1.682-0.624-2.438 0.644-0.76 1.546-1.574 2.188-2.312-0.305-0.524-0.616-0.974-0.957-1.398l0.017 0.022c-0.92 0.354-2 0.906-2.936 1.25-0.606-0.574-1.307-1.055-2.076-1.418l-0.049-0.021c-0.002-0.988 0.168-2.204 0.186-3.186-0.448-0.165-0.993-0.316-1.553-0.426l-0.071-0.012zM20.753 7.313c2.209 0 4.001 1.791 4.001 4.001s-1.791 4.001-4.001 4.001v0c-2.209 0-4.001-1.791-4.001-4.001s1.791-4.001 4.001-4.001v0z"></path>
<path d="M7.375 15.502c-0.46 0.094-0.888 0.262-1.312 0.438-0.034 1.248 0.174 2.884-0.312 3.313-0.48 0.42-2.078 0.068-3.313-0.062-0.244 0.429-0.457 0.927-0.613 1.449l-0.013 0.051c0.956 0.792 2.28 1.678 2.312 2.312 0.032 0.642-1.252 1.61-2.124 2.5 0.206 0.516 0.5 0.986 0.812 1.438 1.216-0.254 2.732-0.748 3.251-0.376 0.526 0.38 0.53 2.012 0.688 3.25 0.5 0.15 1.024 0.21 1.562 0.25 0.562-1.108 1.134-2.64 1.75-2.812 0.632-0.178 1.928 0.916 3 1.562 0.438-0.302 0.826-0.674 1.188-1.062-0.508-1.144-1.442-2.584-1.188-3.188 0.256-0.604 1.95-0.94 3.126-1.374 0.008-0.148 0.060-0.288 0.060-0.438 0-0.382-0.068-0.758-0.124-1.126-1.212-0.32-2.934-0.48-3.251-1.060-0.312-0.578 0.484-2.124 0.876-3.314-0.385-0.346-0.815-0.657-1.276-0.919l-0.036-0.019c-1.002 0.75-2.17 1.99-2.814 1.876-0.634-0.112-1.326-1.64-2-2.688-0.080 0.014-0.17-0.016-0.25 0zM8.625 19.253c0.024-0.001 0.053-0.001 0.082-0.001 1.865 0 3.377 1.512 3.377 3.377s-1.512 3.377-3.377 3.377c-0.029 0-0.058-0-0.086-0.001l0.004 0c-1.829-0.046-3.294-1.54-3.294-3.375s1.465-3.33 3.29-3.375l0.004-0z"></path>
</svg>
