<!-- Generated by IcoMoon.io -->
<svg version="1.1" xmlns="http://www.w3.org/2000/svg" width="32" height="32" viewBox="0 0 32 32">
<title>system-file-manager</title>
<path d="M6.375 0c-2.41 0-4.375 2.036-4.375 4.439v23.125c0 2.404 1.964 4.441 4.375 4.441h19.253c2.41 0 4.377-2.036 4.377-4.439v-23.125c0-2.404-1.966-4.441-4.377-4.441zM6.001 6.001h20.003v22.003h-20.003zM8.001 8.001v8.001h16.064v-8.001zM12.69 10.878c0.019-0.001 0.040-0.002 0.062-0.002s0.043 0.001 0.065 0.002l-0.003-0c0.057-0.011 0.122-0.018 0.188-0.018 0.552 0 1 0.448 1 1 0 0.006-0 0.013-0 0.019v-0.001 0.124h4.001v-0.126c0-0.552 0.448-1 1-1s1 0.448 1 1v0 0.126c0 1.090-0.91 2-2 2h-4.001c-1.092 0-2-0.91-2-2v-0.126c-0.001-0.015-0.001-0.032-0.001-0.050 0-0.441 0.286-0.816 0.682-0.949l0.007-0.002zM8.061 18.003v8.001h16.064v-8.001zM12.688 20.879c0.019-0.001 0.040-0.002 0.062-0.002s0.043 0.001 0.065 0.002l-0.003-0c0.057-0.011 0.122-0.018 0.188-0.018 0.552 0 1 0.448 1 1 0 0.006-0 0.013-0 0.019v-0.001 0.124h4.001v-0.126c0-0.552 0.448-1 1-1s1 0.448 1 1v0 0.126c0 1.090-0.91 2-2 2h-3.999c-1.092 0-2-0.91-2-2v-0.126c-0.001-0.015-0.001-0.032-0.001-0.050 0-0.441 0.286-0.816 0.682-0.949l0.007-0.002z"></path>
</svg>
