<!-- Generated by IcoMoon.io -->
<svg version="1.1" xmlns="http://www.w3.org/2000/svg" width="32" height="32" viewBox="0 0 32 32">
<title>system-help</title>
<path d="M3.939 0c-0.003 0-0.006 0-0.010 0-2.17 0-3.929 1.759-3.929 3.929 0 0.004 0 0.007 0 0.011v-0.001 24.126c0 2.184 1.756 3.941 3.939 3.941h24.066c1.108 0 2-0.892 2-2v-22.003c0-1.108-0.892-2-2-2h-24.004c-1.108 0-2-0.892-2-2s0.892-2 2-2h24.004c0-1.118-0.882-2-2-2zM16.002 8.127c0.001 0 0.003 0 0.004 0 5.453 0 9.873 4.421 9.873 9.873 0 0.001 0 0.001 0 0.002v-0c0 5.461-4.423 9.877-9.877 9.877-0.001 0-0.003 0-0.004 0-5.453 0-9.873-4.421-9.873-9.873 0-0.001 0-0.003 0-0.004v0c0-5.461 4.423-9.877 9.877-9.877zM16.002 10.128c-1.274 0-2.44 0.348-3.501 0.874l1.438 3c0.626-0.326 1.312-0.562 2.062-0.562s1.436 0.236 2.062 0.562l1.438-3c-1.060-0.526-2.226-0.876-3.501-0.876zM9.001 14.502c-0.528 1.060-0.876 2.224-0.876 3.501 0 1.296 0.332 2.49 0.876 3.563l3-1.5c-0.326-0.626-0.562-1.31-0.562-2.062 0-0.722 0.198-1.392 0.5-2zM23.065 14.502l-3 1.5c0.302 0.608 0.5 1.278 0.5 2 0 0.752-0.236 1.436-0.562 2.062l3 1.5c0.55-1.044 0.873-2.281 0.873-3.593 0-1.264-0.299-2.458-0.831-3.515l0.020 0.045zM16.002 15.44c-1.434 0-2.562 1.124-2.562 2.562s1.128 2.562 2.562 2.562 2.562-1.122 2.562-2.562c0-1.438-1.128-2.562-2.562-2.562zM18.065 22.003c-0.626 0.326-1.312 0.562-2.062 0.562-0.732-0.010-1.419-0.194-2.025-0.512l0.025 0.012-1.5 3c1.054 0.52 2.236 0.812 3.501 0.812 1.274 0 2.44-0.348 3.501-0.874z"></path>
<path d="M16.002 10.063c-1.284 0-2.49 0.274-3.563 0.814l1.482 3.064c0.78-0.358 1.098-0.424 2.084-0.492 1.094-0.004 1.44 0.27 2.054 0.466l1.44-3.040c-0.996-0.511-2.172-0.811-3.419-0.811-0.028 0-0.056 0-0.084 0l0.004-0zM8.875 14.502c-0.539 1.036-0.861 2.26-0.874 3.558l-0 0.004c0 1.32 0.386 2.532 0.938 3.627l3.054-1.552c-0.316-0.56-0.474-0.992-0.56-2.114 0.086-0.994 0.124-0.94 0.46-1.976zM23.127 14.502l-2.992 1.49c0.3 0.74 0.396 0.962 0.446 2.018-0.012 0.46 0.030 1.060-0.534 2.17l3.020 1.51c0.55-1.054 0.873-2.303 0.874-3.626v-0c0-1.29-0.282-2.484-0.814-3.563zM16.058 22.583c-0.95-0.080-1.236-0.060-2.024-0.468l-1.594 3.138c1.072 0.54 2.278 0.874 3.563 0.874s2.428-0.334 3.501-0.874l-1.492-3.134c-0.792 0.39-0.866 0.348-1.952 0.462z"></path>
<path d="M18.583 18.019c0 1.413-1.148 2.559-2.564 2.56h-0c-0.001 0-0.001 0-0.002 0-1.417 0-2.566-1.146-2.566-2.56v0c0.002-1.412 1.15-2.556 2.566-2.556 0.001 0 0.001 0 0.002 0h-0c1.417 0.001 2.564 1.147 2.564 2.56 0 0 0 0 0 0v0z"></path>
</svg>
