<!-- Generated by IcoMoon.io -->
<svg version="1.1" xmlns="http://www.w3.org/2000/svg" width="32" height="32" viewBox="0 0 32 32">
<title>system-file-manager</title>
<path d="M6.376 0c-2.411 0-4.376 2.036-4.376 4.438v23.128c0 2.402 1.965 4.438 4.376 4.438h19.253c2.411 0 4.376-2.036 4.376-4.438v-23.128c0-2.402-1.965-4.438-4.376-4.438h-19.253zM6 6.001h20.003v22.003h-20.003v-22.003zM8.001 8.001v8.001h16.065v-8.001h-16.065zM12.689 10.877c0.019-0.001 0.041-0.002 0.063-0.002s0.044 0.001 0.065 0.002l-0.003-0c0.056-0.011 0.121-0.018 0.188-0.018 0.552 0 1 0.448 1 1 0 0.006-0 0.012-0 0.019v-0.001 0.125h4.001v-0.125c-0-0.004-0-0.009-0-0.014 0-0.552 0.448-1 1-1s1 0.448 1 1c0 0.005-0 0.010-0 0.015v-0.001 0.125c0 1.091-0.909 2-2 2h-4.001c-1.091 0-2-0.909-2-2v-0.125c-0.001-0.015-0.001-0.032-0.001-0.050 0-0.441 0.286-0.815 0.682-0.948l0.007-0.002zM8.063 18.003v8.001h16.065v-8.001h-16.065zM12.689 20.878c0.019-0.001 0.041-0.002 0.063-0.002s0.044 0.001 0.065 0.002l-0.003-0c0.056-0.011 0.121-0.018 0.188-0.018 0.552 0 1 0.448 1 1 0 0.006-0 0.012-0 0.019v-0.001 0.125h4.001v-0.125c-0-0.004-0-0.009-0-0.014 0-0.552 0.448-1 1-1s1 0.448 1 1c0 0.005-0 0.010-0 0.015v-0.001 0.125c0 1.091-0.909 2-2 2h-4.001c-1.091 0-2-0.909-2-2v-0.125c-0.001-0.015-0.001-0.032-0.001-0.050 0-0.441 0.286-0.815 0.682-0.948l0.007-0.002z"></path>
</svg>
