<!-- Generated by IcoMoon.io -->
<svg version="1.1" xmlns="http://www.w3.org/2000/svg" width="32" height="32" viewBox="0 0 32 32">
<title>system-switch-user</title>
<path d="M22.007 1.998c-2.21 0-4.001 1.791-4.001 4.001s1.791 4.001 4.001 4.001v0c2.21 0 4.001-1.791 4.001-4.001s-1.791-4.001-4.001-4.001v0zM10.003 8c-2.21 0-4.001 1.791-4.001 4.001s1.791 4.001 4.001 4.001v0c2.21 0 4.001-1.791 4.001-4.001s-1.791-4.001-4.001-4.001v0zM20.007 12.001c-2.621 0-4.816 1.671-5.64 4.001h15.279c-0.839-2.35-3.045-4.001-5.637-4.001-0 0-0 0-0 0h-2.001zM8.003 18.003c-3.325 0-6.002 2.677-6.002 6.002v2.001c0 1.108 0.892 2.001 2.001 2.001h12.004c1.108 0 2.001-0.892 2.001-2.001v-2.001c0-3.325-2.677-6.002-6.002-6.002z"></path>
<path d="M30.33 30.007h1.681v-2.001c0.016-3.347 0-10.003 0-10.003h-12.004v1.693c-0.015 0.093-0.024 0.199-0.024 0.308 0 1.105 0.896 2.001 2.001 2.001 0.008 0 0.017-0 0.025-0h3.172l-4.588 4.588c-1.308 1.272-0.37 3.489 1.453 3.435 0.52-0.016 1.014-0.234 1.376-0.606l4.588-4.588v3.173c0 1.362 0.898 2.001 2.321 2.001z"></path>
</svg>
