<!-- Generated by IcoMoon.io -->
<svg version="1.1" xmlns="http://www.w3.org/2000/svg" width="32" height="32" viewBox="0 0 32 32">
<title>tab-new</title>
<path d="M10 4c0 0-1.418-0.028-2.895 0.711s-3.105 2.622-3.105 5.289v10.023h-4v11.977h32.063v-11.977h-4v-10.023c0 0 0.028-1.418-0.711-2.895s-2.622-3.105-5.289-3.105h-12.063zM10 8h12.063c1.333 0 1.449 0.372 1.711 0.895s0.289 1.105 0.289 1.105v13.977l4 0.047v3.977h-24.063v-3.977h0.008l3.992-0.023v-14c0-1.333 0.372-1.449 0.895-1.711s1.105-0.289 1.105-0.289z"></path>
<path d="M14.063 10v4h-4v4h4v4h4v-4h4v-4h-4v-4z"></path>
</svg>
