<!-- Generated by IcoMoon.io -->
<svg version="1.1" xmlns="http://www.w3.org/2000/svg" width="32" height="32" viewBox="0 0 32 32">
<title>tab-new</title>
<path d="M8.012 1.992s-1.419-0.028-2.896 0.71c-1.479 0.741-3.108 2.626-3.108 5.294v18.013h-2.001l-0.008 4.003h0.008l6.004 0.020v-0.020h26.019v-4.003h-2.001v-18.013s0.028-1.419-0.71-2.896c-0.741-1.479-2.626-3.108-5.294-3.108zM8.012 5.995h16.011c1.335 0 1.451 0.372 1.711 0.895 0.262 0.524 0.29 1.107 0.29 1.107v18.013h-20.014v-18.013c0-1.335 0.372-1.451 0.895-1.711 0.524-0.262 1.107-0.29 1.107-0.29z"></path>
<path d="M14.028 9.998v4.003h-4.003v4.003h4.003v4.003h4.003v-4.003h4.003v-4.003h-4.003v-4.003z"></path>
</svg>
