<!-- Generated by IcoMoon.io -->
<svg version="1.1" xmlns="http://www.w3.org/2000/svg" width="32" height="32" viewBox="0 0 32 32">
<title>task-due</title>
<path d="M1.938 5.001v23.942c0 3.062 3 3.062 3 3.062h9.001v-4.001h-8.001v-22.003h2v-4.001h-3s-3 0-3 3zM21.941 2v4.001h2.062v8.063l3.941-0.062v-9.001c0-3-3-3-3-3zM8.063 10.063v13.94h5.879v-6.005s0-3.997 4.001-3.997h4.001v-4.001zM11.002 0h7.939c0.554 0 1 0.446 1 1v6.001c0 0.554-0.446 1-1 1h-7.939c-0.001 0-0.001 0-0.002 0-0.551 0-0.998-0.447-0.998-0.998 0-0.001 0-0.001 0-0.002v0-6.001c0-0.554 0.446-1 1-1z"></path>
<path d="M17.941 16.002c-2 0-2 2-2 2v12.002s0 2 2 2h12.002c2 0 2-2 2-2v-12.002c0-2-2-2-2-2zM21.941 18.003h4.063v8.001h-4.061zM21.941 28.004h4.063l-0.062 2h-4.001z"></path>
</svg>
