<!-- Generated by IcoMoon.io -->
<svg version="1.1" xmlns="http://www.w3.org/2000/svg" width="32" height="32" viewBox="0 0 32 32">
<title>text-editor</title>
<path d="M10.005 20.003l13.998-14.002 4.001 4.001-14.002 14.002h-4.001z"></path>
<path d="M2.188 0c-1.138 0-2.188 1.006-2.188 2.125v27.754c0 1.119 1.050 2.125 2.188 2.125h21.628c1.115-0 2.148-0.97 2.188-2.063 0.001-0.022 0-0.041 0-0.062v-13.877l-4.001 4.001v8.001h-18.003v-24.004h10.002l4.001 4.001 3.063-3.063-4.376-4.251c-0.401-0.417-0.98-0.683-1.563-0.688z"></path>
<path d="M28.384 2.023c-0.263 0-0.527 0.101-0.729 0.303l-2.325 2.322 4.010 4.010 2.325-2.325c0.404-0.404 0.404-1.054 0-1.457l-2.553-2.55c-0.202-0.202-0.465-0.303-0.729-0.303z"></path>
</svg>
