<!-- Generated by IcoMoon.io -->
<svg version="1.1" xmlns="http://www.w3.org/2000/svg" width="32" height="32" viewBox="0 0 32 32">
<title>tools-check-spelling</title>
<path d="M6.001 6.025v4.001h3.841c-0.11 0 0.168 0.318 0.168 0.164v1.848h-2.008c-3.433 0-6.061 2.25-6.111 4.969-0.024 1.36 0.612 2.726 1.724 3.645 1.11 0.92 2.63 1.4 4.387 1.4h6.009v-11.862c0-2.342-1.774-4.165-4.169-4.165zM8.001 16.038h2.008v2.010h-2.008c-1.040 0-1.588-0.274-1.84-0.484-0.252-0.208-0.272-0.344-0.27-0.488 0.006-0.288 0.17-1.040 2.11-1.040zM15.994 4.001v18.049h6.009c1.878 0 3.539-0.744 4.599-1.918 1.060-1.172 1.532-2.672 1.512-4.133-0.009-1.575-0.608-3.008-1.587-4.092l0.005 0.005c-1.054-1.154-2.688-1.91-4.529-1.91h-2.008v-6.001zM19.995 14.002h2.008c0.844 0 1.252 0.252 1.574 0.606 0.324 0.354 0.528 0.894 0.536 1.444 0.008 0.552-0.178 1.060-0.48 1.396-0.304 0.334-0.712 0.6-1.63 0.6h-2.008zM6.001 22.589l-4.709 4.707c-0.181 0.181-0.293 0.432-0.293 0.708 0 0.553 0.448 1.001 1.001 1.001 0.277 0 0.527-0.112 0.708-0.293l3.293-3.294 4.001 4.001 4.001-4.001 4.001 4.001 4.001-4.001 4.001 4.001 4.709-4.707c0.181-0.181 0.293-0.432 0.293-0.708 0-0.553-0.448-1.001-1.001-1.001-0.277 0-0.527 0.112-0.708 0.293v0l-3.293 3.294-4.001-4.001-4.001 4.001-4.001-4.001-4.001 4.001z"></path>
</svg>
