<!-- Generated by IcoMoon.io -->
<svg version="1.1" xmlns="http://www.w3.org/2000/svg" width="32" height="32" viewBox="0 0 32 32">
<title>tools-check-spelling</title>
<path d="M6 6.001v4.001h3.813c-0.11 0 0.187 0.342 0.187 0.187v1.875h-2c-3.432 0-6.077 2.22-6.126 4.938-0.025 1.359 0.639 2.707 1.75 3.626s2.62 1.438 4.376 1.438h6.001v-11.877c0-2.343-1.794-4.188-4.188-4.188h-3.813zM8.001 16.065h2v2h-2c-1.039 0-1.56-0.291-1.813-0.5s-0.315-0.356-0.313-0.5c0.006-0.288 0.185-1 2.125-1z"></path>
<path d="M16.002 4.001v18.065h6.001c1.877 0 3.566-0.765 4.626-1.938s1.52-2.666 1.5-4.126c-0.020-1.46-0.571-2.909-1.625-4.063s-2.658-1.938-4.501-1.938h-2v-6.001h-4.001zM20.003 14.002h2c0.844 0 1.239 0.271 1.563 0.625s0.555 0.886 0.563 1.438c0.008 0.552-0.197 1.040-0.5 1.375s-0.708 0.625-1.625 0.625h-2v-4.063z"></path>
<path d="M6 22.566l-0.688 0.75-4.001 4.001c-0.289 0.179-0.478 0.494-0.478 0.853 0 0.552 0.448 1 1 1 0.359 0 0.674-0.19 0.851-0.474l0.002-0.004 3.313-3.313 3.313 3.313 0.688 0.75 0.688-0.75 3.313-3.313 3.313 3.313 0.688 0.75 0.688-0.75 3.313-3.313 3.313 3.313 0.688 0.75 0.688-0.75 4.001-4.001c0.289-0.179 0.478-0.494 0.478-0.853 0-0.552-0.448-1-1-1-0.359 0-0.674 0.19-0.851 0.474l-0.002 0.004-3.313 3.313-3.313-3.313-0.688-0.75-0.688 0.75-3.313 3.313-3.313-3.313-0.688-0.75-0.688 0.75-3.313 3.313-3.313-3.313-0.688-0.75z"></path>
</svg>
