<!-- Generated by IcoMoon.io -->
<svg version="1.1" xmlns="http://www.w3.org/2000/svg" width="32" height="32" viewBox="0 0 32 32">
<title>touchpad-disabled</title>
<path d="M6.063 0c-3.344 0.009-6.053 2.718-6.061 6.062v15.879c0.008 3.344 2.715 6.053 6.058 6.063h13.943v-4.001h-4.001v-4.001h14.002v-13.94c-0.008-3.346-2.719-6.056-6.064-6.063h-0.001zM6.063 4.001h17.879c1.192 0 2.062 0.87 2.062 2.062v11.94h-22.003v-11.94c0-1.192 0.872-2.062 2.062-2.062zM4.003 20.003h10.002v4.001h-7.943c-1.19 0-2.060-0.87-2.060-2.062z"></path>
<path d="M22.003 22.003h2.75l2.25 2.188 2.188-2.188h2.812v2.938l-2.188 2.124 2.188 2.126v2.812h-2.874l-2.126-2.126-2.124 2.126h-2.876v-2.812l2.126-2.126-2.126-2.122z"></path>
</svg>
