<!-- Generated by IcoMoon.io -->
<svg version="1.1" xmlns="http://www.w3.org/2000/svg" width="32" height="32" viewBox="0 0 32 32">
<title>tv</title>
<path d="M7.251 6.016c-2.909 0-5.251 2.077-5.251 4.986v15.752c0 2.909 2.342 5.251 5.251 5.251h17.503c2.909 0 5.251-2.342 5.251-5.251v-15.752c0-2.909-2.342-4.986-5.251-4.986zM9.001 8.001h14.002c4.009 1.074 3.962 13.715 0 16.002h-14.002c-4.639-3.154-3.172-14.171 0-16.002zM24.049 30.103h-2.092v-2.092h2.092z"></path>
<path d="M12.002 2c0 1.105-0.896 2-2 2s-2-0.896-2-2v0c0-1.105 0.896-2 2-2s2 0.896 2 2v0z"></path>
<path d="M23.98 2c0 1.105-0.896 2-2 2s-2-0.896-2-2v0c0-1.105 0.896-2 2-2s2 0.896 2 2v0z"></path>
<path d="M10.689 1.313l-1.375 1.375 4.938 5.001 0.25 0.313h2.625l0.438-0.062 0.25-0.25 4.876-5.001-1.375-1.375-4.688 4.688h-1.313l-4.626-4.688z"></path>
</svg>
