<!-- Generated by IcoMoon.io -->
<svg version="1.1" xmlns="http://www.w3.org/2000/svg" width="32" height="32" viewBox="0 0 32 32">
<title>tv</title>
<path d="M7.251 6.017c-2.908 0-5.251 2.076-5.251 4.985v15.752c0 0.003 0 0.006 0 0.010 0 2.894 2.346 5.241 5.241 5.241 0.004 0 0.007 0 0.011 0h17.502c0.003 0 0.006 0 0.010 0 2.894 0 5.241-2.346 5.241-5.241 0-0.004 0-0.007 0-0.011v0.001-15.752c0-2.908-2.34-4.985-5.251-4.985zM9.001 8.001h14.002c4.009 1.074 3.961 13.716 0 16.002h-14.002c-4.639-3.154-3.172-14.17 0-16.002zM24.050 30.105h-2.092v-2.094h2.092z"></path>
<path d="M12.002 2c0 1.105-0.896 2-2 2v0c-1.105 0-2-0.896-2-2v0c0-1.105 0.896-2 2-2v0c1.105 0 2 0.896 2 2v0zM23.98 2c0 1.105-0.896 2-2 2v0c-1.105 0-2-0.896-2-2v0c0-1.105 0.896-2 2-2v0c1.105 0 2 0.896 2 2v0z"></path>
<path d="M10.712 1.296l-1.42 1.408 5.237 5.309 3.016-0.048 5.173-5.265-1.426-1.4-4.599 4.681-1.34 0.020z"></path>
</svg>
