<!-- Generated by IcoMoon.io -->
<svg version="1.1" xmlns="http://www.w3.org/2000/svg" width="32" height="32" viewBox="0 0 32 32">
<title>uninterruptible-power-supply</title>
<path d="M8.376 0c-2.404 0-4.376 1.975-4.376 4.376v23.253c0 2.4 1.972 4.376 4.376 4.376h15.252c2.404 0 4.376-1.975 4.376-4.376v-23.253c0-2.4-1.972-4.376-4.376-4.376h-15.252zM8.376 4.001h15.252c0.248 0 0.375 0.113 0.375 0.375v23.254c0 0.262-0.127 0.375-0.375 0.375h-15.252c-0.248 0-0.375-0.113-0.375-0.375v-23.253c0-0.262 0.127-0.375 0.375-0.375z"></path>
<path d="M17.562 10.002c-0.356 0.098-0.684 0.295-0.938 0.563l-6.063 6.001c-0.471 0.462-0.689 1.166-0.563 1.813v1.625h4.942l-2.375 2.548c-0.429 0.439-0.643 1.079-0.563 1.688-0.002 0.062-0.002 0.125 0 0.187v1.563h2c0.528 0.008 1.056-0.198 1.438-0.563l6.001-5.986c0.367-0.38 0.575-0.909 0.563-1.438 0.006-0.083 0.006-0.167 0-0.25v-1.75h-5.13l2.625-2.563c0.429-0.439 0.643-1.079 0.563-1.688 0.002-0.062 0.002-0.125 0-0.187v-1.563h-1.875c-0.042-0.001-0.083-0.001-0.125 0-0.166-0.021-0.334-0.021-0.5 0z"></path>
</svg>
