<!-- Generated by IcoMoon.io -->
<svg version="1.1" xmlns="http://www.w3.org/2000/svg" width="32" height="32" viewBox="0 0 32 32">
<title>uninterruptible-power-supply</title>
<path d="M8.395 0c-2.421 0.022-4.377 1.981-4.395 4.401v23.203c0 2.398 1.99 4.401 4.395 4.401h15.216c2.421-0.021 4.377-1.981 4.393-4.401v-23.203c0-2.398-1.988-4.401-4.393-4.401zM8.395 4.001h15.216c0.248 0 0.392 0.14 0.392 0.402v23.201c0 0.26-0.144 0.402-0.392 0.402h-15.216c-0.248-0.002-0.394-0.142-0.394-0.404v-23.201c0-0.26 0.146-0.402 0.394-0.402z"></path>
<path d="M17.563 10.002c-0.372 0.104-0.69 0.3-0.939 0.561l-0.001 0.001-6.061 6.001c-0.472 0.462-0.69 1.166-0.564 1.812v1.626h4.941l-2.374 2.548c-0.428 0.438-0.64 1.080-0.56 1.686-0.001 0.028-0.002 0.061-0.002 0.094s0.001 0.066 0.002 0.099l-0-0.005v1.562h1.998c0.007 0 0.015 0 0.024 0 0.548 0 1.046-0.214 1.415-0.563l-0.001 0.001 6.001-5.985c0.368-0.38 0.574-0.91 0.562-1.438 0.003-0.037 0.005-0.081 0.005-0.125s-0.002-0.088-0.005-0.131l0 0.006v-1.75h-5.129l2.624-2.562c0.43-0.44 0.644-1.080 0.562-1.688 0.001-0.028 0.002-0.061 0.002-0.094s-0.001-0.066-0.002-0.099l0 0.005v-1.562h-1.998c-0.075-0.010-0.162-0.015-0.25-0.015s-0.175 0.006-0.26 0.017l0.010-0.001z"></path>
<path d="M10.002 6.001h2v2h-2zM14.002 6.001h8.001v2h-8.001z"></path>
</svg>
