<!-- Generated by IcoMoon.io -->
<svg version="1.1" xmlns="http://www.w3.org/2000/svg" width="32" height="32" viewBox="0 0 32 32">
<title>user-home</title>
<path d="M6.016 9.974c-1.092 0.017-1.97 0.906-1.97 2 0 0.010 0 0.020 0 0.030l-0-0.002v14.001c0 1.105 0.896 2 2 2v0h20.002c1.105 0 2-0.895 2-2v0-14.001c0-1.105-0.895-2-2-2s-2 0.896-2 2v0 12.001h-16.001v-12.001c0-0.008 0-0.018 0-0.028 0-1.105-0.896-2-2-2-0.011 0-0.021 0-0.032 0l0.002-0z"></path>
<path d="M16.063 2.001c-0.012-0-0.026-0-0.040-0-0.436 0-0.84 0.14-1.168 0.376l0.006-0.004-14.001 10.001c-0.534 0.365-0.881 0.971-0.881 1.659 0 1.106 0.896 2.002 2.002 2.002 0.455 0 0.875-0.152 1.211-0.408l-0.005 0.004 12.837-9.169 12.837 9.171c0.331 0.252 0.751 0.404 1.207 0.404 1.106 0 2.002-0.896 2.002-2.002 0-0.687-0.346-1.293-0.874-1.654l-0.007-0.004-14.001-10.001c-0.314-0.227-0.704-0.366-1.126-0.374l-0.002-0z"></path>
<path d="M12.025 16.022h6.061v9.981h-6.061z"></path>
<path d="M30.027 14.002h2v2h-2zM0.024 14.002h2v2h-2z"></path>
</svg>
