<!-- Generated by IcoMoon.io -->
<svg version="1.1" xmlns="http://www.w3.org/2000/svg" width="32" height="32" viewBox="0 0 32 32">
<title>user-trash</title>
<path d="M6.001 10.002v18.003h18.003v-18.003h4.001v18.003c0 4.001-4.001 4.001-4.001 4.001h-18.003c-4.001 0-4.001-4.001-4.001-4.001v-18.003zM14.002 12.002h2v12.002h-2zM18.003 12.002h2v12.002h-2zM10.002 12.002h2v12.002h-2zM8.001 0c-4.001 0-4.001 4.001-4.001 4.001h-4.001v4.001h30.005v-4.001h-4.001c0-4.001-4.001-4.001-4.001-4.001h-14.002zM8.001 2h14.002v2h-14.002v-2z"></path>
</svg>
