<!-- Generated by IcoMoon.io -->
<svg version="1.1" xmlns="http://www.w3.org/2000/svg" width="32" height="32" viewBox="0 0 32 32">
<title>user-desktop</title>
<path d="M2 1.999c-1.105 0-2 0.896-2 2v0 22.005s-0.028 0.918 0.46 1.894c0.492 0.978 1.876 2.106 3.541 2.106h3.665c0.098 0.017 0.211 0.027 0.326 0.027s0.228-0.010 0.338-0.028l-0.012 0.002h19.688s0.918 0.028 1.894-0.46c0.978-0.49 2.106-1.874 2.106-3.541v-12.003c0-1.105-0.896-2-2-2v0h-22.005c-1.105 0-2 0.896-2 2v0 12.003h-2v-20.004h7.174l3.415 3.415c0.362 0.362 0.862 0.586 1.414 0.586h10.002c1.105 0 2-0.896 2-2s-0.896-2-2-2v0h-9.174l-3.415-3.415c-0.362-0.362-0.862-0.586-1.414-0.586h-0zM10.002 16.002h18.004v10.002h-18.004z"></path>
<path d="M2 12.002h2s0-2 2-2h12.003l-6.001-6.001h-10.002z"></path>
<path d="M8.002 14.002h22.005v14.003h-22.005zM26.006 8.001h2v2h-2zM30.006 12.002h2v2h-2zM6.001 12.002h2v2h-2z"></path>
</svg>
