<!-- Generated by IcoMoon.io -->
<svg version="1.1" xmlns="http://www.w3.org/2000/svg" width="32" height="32" viewBox="0 0 32 32">
<title>user-trash</title>
<path d="M26.004 10.002v18.003h-18.003v-18.003h-4.001v18.003c0 4.001 4.001 4.001 4.001 4.001h18.003c4.001 0 4.001-4.001 4.001-4.001v-18.003zM18.003 12.002h-2v12.002h2zM14.002 12.002h-2v12.002h2zM22.003 12.002h-2v12.002h2zM24.004 0c4.001 0 4.001 4.001 4.001 4.001h4.001v4.001h-30.005v-4.001h4.001c0-4.001 4.001-4.001 4.001-4.001zM24.004 2h-14.002v2h14.002z"></path>
</svg>
