<!-- Generated by IcoMoon.io -->
<svg version="1.1" xmlns="http://www.w3.org/2000/svg" width="32" height="32" viewBox="0 0 32 32">
<title>user-desktop</title>
<path d="M1.063 2c-0.578 0-1.063 0.484-1.063 1.063v27.879c0 0.597 0.465 1.063 1.063 1.063h29.88c0.597 0 1.063-0.465 1.063-1.063v-17.878c0-0.578-0.484-1.063-1.063-1.063h-24.941v15.002c0 0.554-0.446 1-1 1s-1-0.446-1-1v-16.002c0-0.554 0.446-1 1-1h23.003v-2.813c0-0.654-0.533-1.188-1.188-1.188h-14.815v-2.938c0-0.578-0.484-1.063-1.063-1.063z"></path>
</svg>
