<!-- Generated by IcoMoon.io -->
<svg version="1.1" xmlns="http://www.w3.org/2000/svg" width="32" height="32" viewBox="0 0 32 32">
<title>user-invisible</title>
<path d="M7.001 2c-0.003 0-0.006 0-0.010 0-2.756 0-4.991 2.234-4.991 4.991 0 0.004 0 0.007 0 0.011v-0.001 10.002c0 2.77 2.23 5.001 5.001 5.001h12.752l6.251 8.001v-8.127c2.296-0.47 4-2.473 4.001-4.875v-10.002c0-2.77-2.23-5.001-5.001-5.001zM7.001 6.001h18.003c0.554 0 1 0.446 1 1v10.002c0 0.554-0.446 1-1 1h-18.003c-0.001 0-0.001 0-0.002 0-0.551 0-0.998-0.447-0.998-0.998 0-0.001 0-0.001 0-0.002v0-10.002c0-0.554 0.446-1 1-1z"></path>
</svg>
