<!-- Generated by IcoMoon.io -->
<svg version="1.1" xmlns="http://www.w3.org/2000/svg" width="32" height="32" viewBox="0 0 32 32">
<title>user-status-pending</title>
<path d="M7.001 2c-2.77 0-5.001 2.23-5.001 5.001v1h28.004v-1c0-2.77-2.23-5.001-5.001-5.001h-18.003zM2.125 18.003c0.465 2.283 2.452 4.001 4.876 4.001h12.752l6.251 8.001v-8.126c1.948-0.403 3.478-1.921 3.876-3.876h-27.754z"></path>
<path d="M10.001 13.002c0 1.657-1.343 3-3 3s-3-1.343-3-3v0c0-1.657 1.343-3 3-3s3 1.343 3 3v0z"></path>
<path d="M18.002 13.002c0 1.657-1.343 3-3 3s-3-1.343-3-3v0c0-1.657 1.343-3 3-3s3 1.343 3 3v0z"></path>
<path d="M26.003 13.002c0 1.657-1.343 3-3 3s-3-1.343-3-3v0c0-1.657 1.343-3 3-3s3 1.343 3 3v0z"></path>
</svg>
