<!-- Generated by IcoMoon.io -->
<svg version="1.1" xmlns="http://www.w3.org/2000/svg" width="32" height="32" viewBox="0 0 32 32">
<title>user-away</title>
<path d="M7.001 2c-0.003 0-0.006 0-0.010 0-2.756 0-4.991 2.234-4.991 4.991 0 0.004 0 0.007 0 0.011v-0.001 10.002c0 2.77 2.23 5.001 5.001 5.001h12.752l6.251 8.001v-8.127c2.296-0.47 4-2.473 4.001-4.875v-10.002c0-2.77-2.23-5.001-5.001-5.001zM16.002 6.001h2c0.552 0 1.076 0.2 1.438 0.562l4.001 4.001 1.374 1.438-1.374 1.438-4.001 4.001c-0.364 0.348-0.858 0.562-1.403 0.562-0.012 0-0.025-0-0.037-0l0.002 0h-2v-2c0-0.552 0.2-1.076 0.562-1.438l0.562-0.562h-9.125v-4.001h9.127l-0.564-0.562c-0.348-0.364-0.562-0.858-0.562-1.403 0-0.012 0-0.025 0-0.037l-0 0.002z"></path>
</svg>
