<!-- Generated by IcoMoon.io -->
<svg version="1.1" xmlns="http://www.w3.org/2000/svg" width="32" height="32" viewBox="0 0 32 32">
<title>user-offline</title>
<path d="M7.001 2c-0.003 0-0.006 0-0.010 0-2.756 0-4.991 2.234-4.991 4.991 0 0.004 0 0.007 0 0.011v-0.001 10.002c0 2.77 2.23 5.001 5.001 5.001h12.752l6.251 8.001v-8.127c2.296-0.47 4-2.473 4.001-4.875v-10.002c0-2.77-2.23-5.001-5.001-5.001zM10.002 6.001h2c0.552 0 1.076 0.2 1.438 0.562l2.562 2.562 2.562-2.56c0.362-0.364 0.886-0.564 1.438-0.564h2v2c0 0.552-0.2 1.076-0.562 1.438l-2.562 2.562 2.56 2.562c0.364 0.362 0.564 0.886 0.564 1.438v2h-2c-0.552 0-1.076-0.2-1.438-0.562l-2.562-2.562-2.562 2.56c-0.364 0.349-0.859 0.564-1.405 0.564-0.012 0-0.024-0-0.035-0l0.002 0h-2v-2c0-0.552 0.2-1.076 0.562-1.438l2.564-2.562-2.566-2.562c-0.347-0.364-0.56-0.857-0.56-1.401 0-0.013 0-0.026 0-0.040l-0 0.002z"></path>
</svg>
