<!-- Generated by IcoMoon.io -->
<svg version="1.1" xmlns="http://www.w3.org/2000/svg" width="32" height="32" viewBox="0 0 32 32">
<title>user-not-tracked</title>
<path d="M13.411 0.001c-0.515 0.045-0.916 0.474-0.916 0.997 0 0.102 0.015 0.2 0.043 0.293l-0.002-0.007 0.85 3.086c-0.848 0.22-1.676 0.526-2.476 0.914l-2.042-3.53c-0.177-0.301-0.499-0.5-0.867-0.5-0.553 0-1.002 0.449-1.002 1.002 0 0.185 0.050 0.358 0.137 0.507l-0.003-0.005 2.034 3.514c-0.747 0.48-1.384 0.943-1.994 1.439l0.040-0.031-2.506-2.508c-0.181-0.181-0.431-0.294-0.708-0.294-0.553 0-1.001 0.448-1.001 1.001 0 0.276 0.112 0.526 0.293 0.707v0l2.442 2.44c-0.562 0.534-1.094 1.050-1.586 1.586l-1.44-1.44c-0.181-0.181-0.431-0.294-0.708-0.294-0.553 0-1.001 0.448-1.001 1.001 0 0.276 0.112 0.526 0.293 0.707v0l1.528 1.526c-1.77 2.152-2.82 3.892-2.82 3.892s1.744 2.9 4.55 5.846l2.216-2.214c-1.794-1.868-2.766-3.632-2.766-3.632s4.268-8.001 12.001-8.001c0.76 0 1.474 0.094 2.164 0.234l2.934-2.934c-0.42-0.217-0.937-0.441-1.469-0.633l-0.097-0.031 1.14-3.292c0.047-0.111 0.073-0.241 0.073-0.376 0-0.552-0.448-1-1-1-0.452 0-0.834 0.3-0.958 0.711l-0.002 0.007-1.196 3.442c-0.477-0.081-1.028-0.127-1.589-0.128h-0.001c-0.21 0-0.416 0.036-0.624 0.050l-0.912-3.3c-0.113-0.438-0.504-0.756-0.97-0.756-0.030 0-0.059 0.001-0.088 0.004l0.004-0zM29.983 8.87c-0.27 0.008-0.512 0.121-0.688 0.3l-0 0-1.44 1.442c-0.122-0.132-0.26-0.264-0.388-0.394l-2.194 2.192c1.768 1.852 2.73 3.592 2.73 3.592s-4.268 8.001-12.001 8.001c-0.736 0-1.43-0.092-2.1-0.224l-2.96 2.958c1.594 0.772 3.292 1.266 5.060 1.266 8.837 0 16.001-12.001 16.001-12.001s-1.050-1.74-2.82-3.892l1.528-1.526c0.187-0.182 0.302-0.436 0.302-0.717 0-0.552-0.448-1-1-1-0.011 0-0.021 0-0.032 0.001l0.002-0zM16.001 10.004c-3.314 0-6.001 2.687-6.001 6.001v0c0 0.124 0.028 0.24 0.036 0.362l3.684-3.684c0.128-0.466 0.488-0.826 0.945-0.952l0.009-0.002 1.688-1.688c-0.124-0.008-0.24-0.034-0.364-0.034zM21.97 15.71l-6.265 6.263c0.1 0.004 0.194 0.032 0.296 0.032 3.314 0 6.001-2.687 6.001-6.001v0c0-0.1-0.026-0.194-0.032-0.294z"></path>
<path d="M28.044 2.057v0.008c-0.036-0.002-0.077-0.004-0.12-0.004h-0c-0.541 0.016-1.026 0.245-1.376 0.606l-23.913 23.909c-0.379 0.365-0.615 0.876-0.615 1.443 0 0.142 0.015 0.281 0.043 0.415l-0.002-0.013v1.584h1.774c0.057 0.006 0.123 0.009 0.189 0.009 0.565 0 1.075-0.234 1.439-0.61l23.915-23.907c0.373-0.364 0.604-0.871 0.604-1.432 0-0.002 0-0.004 0-0.006v0-2z"></path>
</svg>
