<!-- Generated by IcoMoon.io -->
<svg version="1.1" xmlns="http://www.w3.org/2000/svg" width="32" height="32" viewBox="0 0 32 32">
<title>user-info</title>
<path d="M12.002 0c-3.314 0-6.001 2.687-6.001 6.001s2.687 6.001 6.001 6.001v0c3.314 0 6.001-2.687 6.001-6.001s-2.687-6.001-6.001-6.001v0zM9.001 14.002c-0.006 0-0.013-0-0.020-0-4.96 0-8.981 4.021-8.981 8.981 0 0.007 0 0.014 0 0.021v-0.001 1c0 2 2 2 2 2h12.002v-8.251c0-1.66 1.174-3.108 2.71-3.581-0.513-0.106-1.104-0.167-1.708-0.17h-0.002zM18.003 18.003v8.001h2v-8.001z"></path>
<path d="M17.753 16.002c-0.007-0-0.016-0-0.024-0-0.953 0-1.726 0.773-1.726 1.726 0 0.009 0 0.017 0 0.025v-0.001 12.502c0 0.984 0.766 1.75 1.75 1.75h12.502c0.007 0 0.016 0 0.024 0 0.953 0 1.726-0.773 1.726-1.726 0-0.009-0-0.017-0-0.025v0.001-12.502c0-0.007 0-0.016 0-0.024 0-0.953-0.773-1.726-1.726-1.726-0.009 0-0.017 0-0.025 0h0.001zM22.003 18.003h4.001v2h-4.001zM22.003 22.003h4.001v8.001h-4.001z"></path>
</svg>
