<!-- Generated by IcoMoon.io -->
<svg version="1.1" xmlns="http://www.w3.org/2000/svg" width="32" height="32" viewBox="0 0 32 32">
<title>user-away</title>
<path d="M26.004 30.005v-9.001h-7.001z"></path>
<path d="M7.001 2c-2.77 0-5.001 2.23-5.001 5.001v10.002c0 2.77 2.23 5.001 5.001 5.001h18.003c2.77 0 5.001-2.23 5.001-5.001v-10.002c0-2.77-2.23-5.001-5.001-5.001h-18.003zM16.002 6.001h2c0.552 0 1.076 0.201 1.438 0.563l4.001 4.001 1.375 1.438-1.375 1.438-4.001 4.001c-0.362 0.362-0.885 0.563-1.438 0.563h-2v-2c0-0.552 0.201-1.076 0.563-1.438l0.563-0.563h-9.126v-4.001h9.126l-0.563-0.563c-0.362-0.362-0.563-0.885-0.563-1.438v-2z"></path>
</svg>
