<!-- Generated by IcoMoon.io -->
<svg version="1.1" xmlns="http://www.w3.org/2000/svg" width="32" height="32" viewBox="0 0 32 32">
<title>user-bookmarks</title>
<path d="M11.052 0c-2.184 0-3.831 1.36-4.461 2.59-0.628 1.23-0.6 2.41-0.6 2.41v26.238l10.002-5.001 9.996 5.001 0.020-15.236h-0.008l-0.008-11.002s0.028-1.168-0.586-2.394c-0.614-1.228-2.248-2.606-4.415-2.606zM11.052 4.001h9.941c0.832 0 0.698 0.12 0.834 0.394 0.083 0.177 0.141 0.382 0.163 0.598l0.001 0.008 0.008 15.002-0.004 4.767-6.005-3-6.001 3v-19.769s0.026-0.32 0.164-0.59c0.138-0.268 0.020-0.41 0.9-0.41z"></path>
</svg>
