<!-- Generated by IcoMoon.io -->
<svg version="1.1" xmlns="http://www.w3.org/2000/svg" width="32" height="32" viewBox="0 0 32 32">
<title>utilities-system-monitor</title>
<path d="M4.391 0c-2.41 0-4.391 2.016-4.391 4.419v21.167c0 2.4 1.98 4.419 4.391 4.419h23.224c2.41 0 4.391-2.016 4.391-4.419v-21.167c0-2.4-1.98-4.419-4.391-4.419zM4.391 4.001h23.224c0.24 0 0.39 0.14 0.39 0.418v21.167c0 0.278-0.15 0.418-0.39 0.418h-23.224c-0.24 0-0.39-0.14-0.39-0.418v-21.167c0-0.278 0.15-0.418 0.39-0.418z"></path>
<path d="M18.905 7.915c-0.445 0.011-0.817 0.311-0.936 0.719l-0.002 0.007-3.428 12.122-1.732-2.352c-0.184-0.248-0.475-0.407-0.804-0.408h-6.001v2h5.493l2.64 3.595c0.184 0.25 0.477 0.41 0.807 0.41 0.456 0 0.841-0.305 0.961-0.723l0.002-0.007 3.062-10.816 2.080 6.833c0.129 0.413 0.508 0.708 0.956 0.708h4.001v-2h-3.259l-2.86-9.381c-0.13-0.412-0.509-0.706-0.956-0.706-0.008 0-0.017 0-0.025 0l0.001-0z"></path>
</svg>
