<!-- Generated by IcoMoon.io -->
<svg version="1.1" xmlns="http://www.w3.org/2000/svg" width="32" height="32" viewBox="0 0 32 32">
<title>video-display</title>
<path d="M6.001 2c-3.325 0-6.001 2.676-6.001 6.001v14.002c0 3.325 2.676 6.001 6.001 6.001h20.003c3.325 0 6.001-2.676 6.001-6.001v-14.002c0-3.325-2.676-6.001-6.001-6.001zM6.001 6.001h20.003c1.108 0 2 0.892 2 2v14.002c0 1.108-0.892 2-2 2h-20.003c-1.108 0-2-0.892-2-2v-14.002c0-1.108 0.892-2 2-2z"></path>
<path d="M16.002 32.005c6.001 0 8.001-2 8.001-2h-16.002c0 0 2 2 8.001 2z"></path>
</svg>
