<!-- Generated by IcoMoon.io -->
<svg version="1.1" xmlns="http://www.w3.org/2000/svg" width="32" height="32" viewBox="0 0 32 32">
<title>video-joined-displays</title>
<path d="M12 12c3.324 0 6 2.676 6 6v2c0 3.324-2.676 6-6 6h-6c-3.324 0-6-2.676-6-6v-2c0-3.324 2.676-6 6-6zM12 16h-6c-1.108 0-2 0.892-2 2v2c0 1.108 0.892 2 2 2h6c1.108 0 2-0.892 2-2v-2c0-1.108-0.892-2-2-2z"></path>
<path d="M9 28c-5 0-5 1-5 1 0 1 1 1 1 1h8c1 0 1-1 1-1s0-1-5-1z"></path>
<path d="M26 6.125c3.324 0 6 2.676 6 6v7.875c0 3.324-2.676 6-6 6h-6c-3.324 0-6-2.676-6-6v-7.875c0-3.324 2.676-6 6-6zM26 10.125h-6c-1.108 0-2 0.892-2 2v7.875c0 1.108 0.892 2 2 2h6c1.108 0 2-0.892 2-2v-7.875c0-1.108-0.892-2-2-2z"></path>
<path d="M23 28c-5 0-5 1-5 1 0 1 1 1 1 1h8c1 0 1-1 1-1s0-1-5-1z"></path>
</svg>
