<!-- Generated by IcoMoon.io -->
<svg version="1.1" xmlns="http://www.w3.org/2000/svg" width="32" height="32" viewBox="0 0 32 32">
<title>view-app-grid</title>
<path d="M8.001 6.001v0c1.105 0 2 0.896 2 2v0c0 1.105-0.896 2-2 2v0c-1.105 0-2-0.896-2-2v0c0-1.105 0.896-2 2-2z"></path>
<path d="M16.002 6.001v0c1.105 0 2 0.896 2 2v0c0 1.105-0.896 2-2 2v0c-1.105 0-2-0.896-2-2v0c0-1.105 0.896-2 2-2z"></path>
<path d="M24.003 6.001v0c1.105 0 2 0.896 2 2v0c0 1.105-0.896 2-2 2v0c-1.105 0-2-0.896-2-2v0c0-1.105 0.896-2 2-2z"></path>
<path d="M8.001 14.002v0c1.105 0 2 0.896 2 2v0c0 1.105-0.896 2-2 2v0c-1.105 0-2-0.896-2-2v0c0-1.105 0.896-2 2-2z"></path>
<path d="M16.002 14.002v0c1.105 0 2 0.896 2 2v0c0 1.105-0.896 2-2 2v0c-1.105 0-2-0.896-2-2v0c0-1.105 0.896-2 2-2z"></path>
<path d="M24.003 14.002v0c1.105 0 2 0.896 2 2v0c0 1.105-0.896 2-2 2v0c-1.105 0-2-0.896-2-2v0c0-1.105 0.896-2 2-2z"></path>
<path d="M8.001 22.003v0c1.105 0 2 0.896 2 2v0c0 1.105-0.896 2-2 2v0c-1.105 0-2-0.896-2-2v0c0-1.105 0.896-2 2-2z"></path>
<path d="M16.002 22.003v0c1.105 0 2 0.896 2 2v0c0 1.105-0.896 2-2 2v0c-1.105 0-2-0.896-2-2v0c0-1.105 0.896-2 2-2z"></path>
<path d="M24.003 22.003v0c1.105 0 2 0.896 2 2v0c0 1.105-0.896 2-2 2v0c-1.105 0-2-0.896-2-2v0c0-1.105 0.896-2 2-2z"></path>
</svg>
