<!-- Generated by IcoMoon.io -->
<svg version="1.1" xmlns="http://www.w3.org/2000/svg" width="32" height="32" viewBox="0 0 32 32">
<title>view-more-horizontal</title>
<path d="M32.005 12.77v6.463c0 0.426-0.448 0.77-1.004 0.77h-5.993c-0.556 0-1.004-0.344-1.004-0.77v-6.461c0-0.428 0.448-0.77 1.004-0.77h5.993c0.556 0 1.004 0.342 1.004 0.768zM20.003 12.77v6.463c0 0.426-0.448 0.77-1.004 0.77h-5.993c-0.556 0-1.004-0.344-1.004-0.77v-6.461c0-0.43 0.448-0.77 1.004-0.77h5.993c0.556 0 1.004 0.342 1.004 0.768zM8.001 12.77v6.463c0 0.426-0.448 0.77-1.004 0.77h-5.993c-0.556 0-1.004-0.344-1.004-0.77v-6.461c0-0.43 0.448-0.77 1.004-0.77h5.993c0.556 0 1.004 0.34 1.004 0.768z"></path>
</svg>
