<!-- Generated by IcoMoon.io -->
<svg version="1.1" xmlns="http://www.w3.org/2000/svg" width="32" height="32" viewBox="0 0 32 32">
<title>view-paged</title>
<path d="M2 0v26.004h24.004v-26.004h-24.004zM6.001 4.001h16.002v18.003h-16.002v-18.003z"></path>
<path d="M28.005 6.001v22.003h-20.003v4.001h24.004v-26.004z"></path>
<path d="M17.253 8.001h-6.501c-0.414 0-0.75 0.336-0.75 0.75v2.501c0 0.414 0.336 0.75 0.75 0.75h6.501c0.414 0 0.75-0.336 0.75-0.75v-2.501c0-0.414-0.336-0.75-0.75-0.75z"></path>
<path d="M17.253 14.002h-6.501c-0.414 0-0.75 0.336-0.75 0.75v2.5c0 0.414 0.336 0.75 0.75 0.75h6.501c0.414 0 0.75-0.336 0.75-0.75v-2.5c0-0.414-0.336-0.75-0.75-0.75z"></path>
</svg>
