<!-- Generated by IcoMoon.io -->
<svg version="1.1" xmlns="http://www.w3.org/2000/svg" width="32" height="32" viewBox="0 0 32 32">
<title>view-restore</title>
<path d="M23.992 2.007l-3.999 0.016 0.036 9.989h9.96v-3.999h-5.978z"></path>
<path d="M29.948-0.004c-0.541 0.018-1.026 0.248-1.375 0.609l-0.001 0.001-7.965 7.997c-0.395 0.366-0.642 0.888-0.642 1.468 0 1.104 0.895 1.999 1.999 1.999 0.583 0 1.107-0.249 1.473-0.647l0.001-0.001 7.969-7.997c0.372-0.363 0.603-0.87 0.603-1.43 0-1.104-0.895-1.999-1.999-1.999-0.022 0-0.044 0-0.066 0.001l0.003-0zM2.027 12.012c-1.104 0-1.999 0.895-1.999 1.999v0 15.994c0 1.104 0.895 1.999 1.999 1.999v0h15.994c1.104 0 1.999-0.895 1.999-1.999v0-15.994c0-1.104-0.895-1.999-1.999-1.999v0zM4.027 16.010h11.996v11.996h-11.996z"></path>
<path d="M2.027 16.010c-1.104 0-1.999 0.895-1.999 1.999s0.895 1.999 1.999 1.999v0h15.994c1.104 0 1.999-0.895 1.999-1.999s-0.895-1.999-1.999-1.999v0z"></path>
<path d="M29.989 10.012h1.999v1.999h-1.999zM19.993 0.016h1.999v1.999h-1.999zM18.022 30.005h1.999v1.999h-1.999zM0.028 30.005h1.999v1.999h-1.999z"></path>
<path d="M21.992 0.016c1.108 0 1.999 0.892 1.999 1.999s-0.892 1.999-1.999 1.999-1.999-0.892-1.999-1.999 0.892-1.999 1.999-1.999zM29.989 8.013c1.108 0 1.999 0.892 1.999 1.999s-0.892 1.999-1.999 1.999-1.999-0.892-1.999-1.999 0.892-1.999 1.999-1.999z"></path>
</svg>
