<!-- Generated by IcoMoon.io -->
<svg version="1.1" xmlns="http://www.w3.org/2000/svg" width="32" height="32" viewBox="0 0 32 32">
<title>view-paged</title>
<path d="M2 0v26.004h24.004v-26.004zM6.001 4.001h16.002v18.003h-16.002z"></path>
<path d="M28.004 6.001v22.003h-20.003v4.001h24.004v-26.004z"></path>
<path d="M17.253 8.001h-6.501c-0.001 0-0.001 0-0.002 0-0.413 0-0.748 0.335-0.748 0.748 0 0.001 0 0.001 0 0.002v-0 2.5c0 0.416 0.334 0.75 0.75 0.75h6.501c0.001 0 0.001 0 0.002 0 0.413 0 0.748-0.335 0.748-0.748 0-0.001 0-0.001 0-0.002v0-2.5c0-0.001 0-0.001 0-0.002 0-0.413-0.335-0.748-0.748-0.748-0.001 0-0.001 0-0.002 0h0zM17.253 14.002h-6.501c-0.001 0-0.001 0-0.002 0-0.413 0-0.748 0.335-0.748 0.748 0 0.001 0 0.001 0 0.002v-0 2.5c0 0.416 0.334 0.75 0.75 0.75h6.501c0.001 0 0.001 0 0.002 0 0.413 0 0.748-0.335 0.748-0.748 0-0.001 0-0.001 0-0.002v0-2.5c0-0.001 0-0.001 0-0.002 0-0.413-0.335-0.748-0.748-0.748-0.001 0-0.001 0-0.002 0h0z"></path>
</svg>
