<!-- Generated by IcoMoon.io -->
<svg version="1.1" xmlns="http://www.w3.org/2000/svg" width="32" height="32" viewBox="0 0 32 32">
<title>view-dual</title>
<path d="M0 2v26.004h12.002c0.352 0 1.070 0.28 1.644 0.664 0.576 0.384 0.934 0.742 0.934 0.742l1.438 1.454 1.422-1.47s1.792-1.39 2.562-1.39h12.002v-26.004h-12.002c-1.802 0-3.144 0.706-4.087 1.402-0.050-0.034-0.036-0.036-0.090-0.070-0.92-0.608-2.168-1.332-3.825-1.332zM4.001 6.001h8.001c0.276 0 1.030 0.276 1.626 0.668 0.594 0.392 0.984 0.77 0.984 0.77l1.434 1.386 1.39-1.43s1.804-1.394 2.566-1.394h8.001v18.003h-8.001c-1.78 0-3.124 0.696-4.067 1.386-0.036-0.024-0.026-0.026-0.062-0.050-0.92-0.616-2.2-1.336-3.873-1.336h-8.001z"></path>
<path d="M11.252 10.002h-4.501c-0.001 0-0.001 0-0.002 0-0.413 0-0.748 0.335-0.748 0.748 0 0.001 0 0.001 0 0.002v-0 2.5c0 0.414 0.334 0.75 0.75 0.75h4.501c0.001 0 0.001 0 0.002 0 0.413 0 0.748-0.335 0.748-0.748 0-0.001 0-0.001 0-0.002v0-2.5c0-0.001 0-0.001 0-0.002 0-0.413-0.335-0.748-0.748-0.748-0.001 0-0.001 0-0.002 0h0zM11.252 16.002h-4.501c-0.001 0-0.001 0-0.002 0-0.413 0-0.748 0.335-0.748 0.748 0 0.001 0 0.001 0 0.002v-0 2.5c0 0.416 0.334 0.75 0.75 0.75h4.501c0.001 0 0.001 0 0.002 0 0.413 0 0.748-0.335 0.748-0.748 0-0.001 0-0.001 0-0.002v0-2.5c0-0.001 0-0.001 0-0.002 0-0.413-0.335-0.748-0.748-0.748-0.001 0-0.001 0-0.002 0h0zM25.254 10.002h-4.501c-0.001 0-0.001 0-0.002 0-0.413 0-0.748 0.335-0.748 0.748 0 0.001 0 0.001 0 0.002v-0 2.5c0 0.416 0.334 0.75 0.75 0.75h4.501c0.001 0 0.001 0 0.002 0 0.413 0 0.748-0.335 0.748-0.748 0-0.001 0-0.001 0-0.002v0-2.5c0-0.001 0-0.001 0-0.002 0-0.413-0.335-0.748-0.748-0.748-0.001 0-0.001 0-0.002 0h0zM25.254 16.002h-4.501c-0.001 0-0.001 0-0.002 0-0.413 0-0.748 0.335-0.748 0.748 0 0.001 0 0.001 0 0.002v-0 2.5c0 0.416 0.334 0.75 0.75 0.75h4.501c0.001 0 0.001 0 0.002 0 0.413 0 0.748-0.335 0.748-0.748 0-0.001 0-0.001 0-0.002v0-2.5c0-0.001 0-0.001 0-0.002 0-0.413-0.335-0.748-0.748-0.748-0.001 0-0.001 0-0.002 0h0z"></path>
</svg>
