<!-- Generated by IcoMoon.io -->
<svg version="1.1" xmlns="http://www.w3.org/2000/svg" width="32" height="32" viewBox="0 0 32 32">
<title>view-dual</title>
<path d="M0 2v26.004h12.002c0.351 0 1.051 0.303 1.625 0.688s0.938 0.75 0.938 0.75l1.438 1.438 1.438-1.5c0 0 1.793-1.375 2.563-1.375h12.002v-26.004h-12.002c-1.753 0-3.121 0.695-4.063 1.375-0.060-0.041-0.062-0.021-0.125-0.062-0.921-0.608-2.157-1.313-3.813-1.313h-12.002zM4.001 6.001h8.001c0.276 0 1.030 0.295 1.625 0.688s1 0.75 1 0.75l1.438 1.375 1.375-1.438c0 0 1.8-1.375 2.563-1.375h8.001v18.003h-8.001c-1.754 0-3.121 0.695-4.063 1.375-0.039-0.027-0.022-0.035-0.062-0.062-0.921-0.616-2.205-1.313-3.876-1.313h-8.001v-18.003z"></path>
<path d="M11.252 10.001h-4.501c-0.414 0-0.75 0.336-0.75 0.75v2.5c0 0.414 0.336 0.75 0.75 0.75h4.501c0.414 0 0.75-0.336 0.75-0.75v-2.5c0-0.414-0.336-0.75-0.75-0.75z"></path>
<path d="M11.252 16.002h-4.501c-0.414 0-0.75 0.336-0.75 0.75v2.501c0 0.414 0.336 0.75 0.75 0.75h4.501c0.414 0 0.75-0.336 0.75-0.75v-2.501c0-0.414-0.336-0.75-0.75-0.75z"></path>
<path d="M25.254 10.001h-4.501c-0.414 0-0.75 0.336-0.75 0.75v2.501c0 0.414 0.336 0.75 0.75 0.75h4.501c0.414 0 0.75-0.336 0.75-0.75v-2.501c0-0.414-0.336-0.75-0.75-0.75z"></path>
<path d="M25.254 16.002h-4.501c-0.414 0-0.75 0.336-0.75 0.75v2.501c0 0.414 0.336 0.75 0.75 0.75h4.501c0.414 0 0.75-0.336 0.75-0.75v-2.501c0-0.414-0.336-0.75-0.75-0.75z"></path>
</svg>
