<!-- Generated by IcoMoon.io -->
<svg version="1.1" xmlns="http://www.w3.org/2000/svg" width="32" height="32" viewBox="0 0 32 32">
<title>view-mirror</title>
<path d="M4.298 0c-1.802 0-4.298 1.383-4.298 3.149v25.592c0 1.767 2.495 3.221 4.298 3.221l8.984-5.889c1.405-0.911 2.884-1.454 2.884-3.221v-13.813c0-1.767-1.877-2.44-2.884-3.221zM4.298 2.873l9.58 5.85c0.132 0.076 0.196 0.154 0.196 0.315v13.813c0 0.13-0.081 0.223-0.173 0.276l-9.604 5.889c-0.186-0-0.282-0.084-0.282-0.276v-25.591c-0-0.192 0.105-0.273 0.282-0.276z"></path>
<path d="M27.759 0c1.802 0 4.298 1.383 4.298 3.149v25.592c0 1.767-2.495 3.221-4.298 3.221l-8.703-5.889c-1.405-0.911-2.884-1.454-2.884-3.221v-13.813c0-1.767 1.877-2.44 2.884-3.221zM27.759 2.873l-9.455 5.85c-0.132 0.076-0.196 0.154-0.196 0.315v13.813c0 0.13 0.081 0.223 0.173 0.276l9.479 5.889c0.186-0 0.282-0.084 0.282-0.276v-25.591c0-0.192-0.105-0.273-0.282-0.276z"></path>
</svg>
