<!-- Generated by IcoMoon.io -->
<svg version="1.1" xmlns="http://www.w3.org/2000/svg" width="32" height="32" viewBox="0 0 32 32">
<title>view-grid</title>
<path d="M6.77 6.001h6.463c0.425 0 0.769 0.45 0.769 1.005v5.992c0 0.555-0.344 1.005-0.769 1.005h-6.463c-0.425 0-0.769-0.45-0.769-1.005v-5.992c0-0.555 0.344-1.005 0.769-1.005z"></path>
<path d="M18.772 6.001h6.462c0.425 0 0.769 0.45 0.769 1.005v5.992c0 0.555-0.344 1.005-0.769 1.005h-6.462c-0.425 0-0.769-0.45-0.769-1.005v-5.992c0-0.555 0.344-1.005 0.769-1.005z"></path>
<path d="M6.77 18.003h6.463c0.425 0 0.769 0.45 0.769 1.005v5.992c0 0.555-0.344 1.005-0.769 1.005h-6.463c-0.425 0-0.769-0.45-0.769-1.005v-5.992c0-0.555 0.344-1.005 0.769-1.005z"></path>
<path d="M18.772 18.003h6.462c0.425 0 0.769 0.45 0.769 1.005v5.992c0 0.555-0.344 1.005-0.769 1.005h-6.462c-0.425 0-0.769-0.45-0.769-1.005v-5.992c0-0.555 0.344-1.005 0.769-1.005z"></path>
</svg>
