<!-- Generated by IcoMoon.io -->
<svg version="1.1" xmlns="http://www.w3.org/2000/svg" width="32" height="32" viewBox="0 0 32 32">
<title>view-wrapped-rtl</title>
<path d="M3.563 10.002c-0.941 0.175-1.643 0.99-1.643 1.968 0 0.58 0.247 1.103 0.642 1.468l0.001 0.001 4.001 4.001 1.438 1.375 1.438-1.375 4.001-4.001c0.368-0.368 0.596-0.876 0.596-1.438 0-1.123-0.91-2.033-2.033-2.033-0.562 0-1.070 0.228-1.438 0.596l-2.563 2.563-2.563-2.563c-0.364-0.377-0.874-0.611-1.439-0.611-0.155 0-0.305 0.018-0.45 0.051l0.013-0.003z"></path>
<path d="M12.002 2c-3.29 0-6.001 2.711-6.001 6.001v8.001h4.001v-8.001c0-1.143 0.858-2 2-2h8.001c1.143 0 2 0.858 2 2v16.002c0 1.143-0.858 2-2 2h-8.001v4.001h8.001c3.29 0 6.001-2.711 6.001-6.001v-16.002c0-3.29-2.711-6.001-6.001-6.001h-8.001z"></path>
<path d="M14.002 12.002v-2h-2v2h2z"></path>
<path d="M4.001 12.002v-2h-2v2h2z"></path>
</svg>
