<!-- Generated by IcoMoon.io -->
<svg version="1.1" xmlns="http://www.w3.org/2000/svg" width="32" height="32" viewBox="0 0 32 32">
<title>view-sort-ascending</title>
<path d="M2.769 6.001h2.462c0.425 0 0.769 0.339 0.769 0.758v2.485c0 0.418-0.344 0.758-0.769 0.758h-2.462c-0.425 0-0.769-0.339-0.769-0.758v-2.485c0-0.418 0.344-0.758 0.769-0.758z"></path>
<path d="M2.769 14.033h2.462c0.425 0 0.769 0.339 0.769 0.758v2.485c0 0.418-0.344 0.758-0.769 0.758h-2.462c-0.425 0-0.769-0.339-0.769-0.758v-2.485c0-0.418 0.344-0.758 0.769-0.758z"></path>
<path d="M2.769 22.003h2.462c0.425 0 0.769 0.339 0.769 0.758v2.485c0 0.418-0.344 0.758-0.769 0.758h-2.462c-0.425 0-0.769-0.339-0.769-0.758v-2.485c0-0.418 0.344-0.758 0.769-0.758z"></path>
<path d="M14.002 6.001v8.001h-6.126l10.252 11.564 10.252-11.564h-6.376v-8.001z"></path>
</svg>
