<!-- Generated by IcoMoon.io -->
<svg version="1.1" xmlns="http://www.w3.org/2000/svg" width="32" height="32" viewBox="0 0 32 32">
<title>view-fullscreen</title>
<path d="M3.969 17.975c-1.091 0.018-1.968 0.907-1.968 2 0 0.010 0 0.020 0 0.030l-0-0.002v8.001c0 1.105 0.896 2 2 2v0h8.001c1.105 0 2-0.896 2-2s-0.896-2-2-2v0h-6.001v-6.001c0-0.008 0-0.018 0-0.028 0-1.105-0.896-2-2-2-0.011 0-0.023 0-0.034 0l0.002-0z"></path>
<path d="M12.962 16.983c-0.54 0.017-1.024 0.246-1.374 0.606l-9.002 9.002c-0.377 0.364-0.611 0.874-0.611 1.439 0 1.105 0.896 2 2 2 0.565 0 1.075-0.234 1.438-0.61l0.001-0.001 9.001-9.001c0.374-0.364 0.607-0.872 0.607-1.435 0-1.105-0.896-2-2-2-0.021 0-0.043 0-0.064 0.001l0.003-0z"></path>
<path d="M2 28.004h2v2h-2z"></path>
<path d="M20.003 2c-1.105 0-2 0.896-2 2s0.896 2 2 2v0h6.001v6.001c0 1.105 0.896 2 2 2s2-0.896 2-2v0-8.001c0-1.105-0.896-2-2-2v0z"></path>
<path d="M28.004 2h2v2h-2z"></path>
<path d="M27.972 1.98c-0.542 0.014-1.028 0.242-1.38 0.602l-0 0-9.001 8.939c-0.364 0.362-0.59 0.864-0.59 1.418 0 1.105 0.896 2.001 2.001 2.001 0.551 0 1.049-0.223 1.411-0.583l-0 0 9.001-8.939c0.377-0.364 0.611-0.874 0.611-1.439 0-1.105-0.896-2-2-2-0.018 0-0.036 0-0.053 0.001l0.003-0z"></path>
<path d="M2 18.003h2v2h-2zM12.002 28.004h2v2h-2zM28.004 12.002h2v2h-2zM18.003 2h2v2h-2z"></path>
</svg>
