<!-- Generated by IcoMoon.io -->
<svg version="1.1" xmlns="http://www.w3.org/2000/svg" width="32" height="32" viewBox="0 0 32 32">
<title>view-continuous</title>
<path d="M19.253 22.003h-6.501c-0.001 0-0.001 0-0.002 0-0.413 0-0.748 0.335-0.748 0.748 0 0.001 0 0.001 0 0.002v-0 2.5c0 0.416 0.334 0.75 0.75 0.75h6.501c0.001 0 0.001 0 0.002 0 0.413 0 0.748-0.335 0.748-0.748 0-0.001 0-0.001 0-0.002v0-2.5c0-0.001 0-0.001 0-0.002 0-0.413-0.335-0.748-0.748-0.748-0.001 0-0.001 0-0.002 0h0zM19.253 0h-6.501c-0.001 0-0.001 0-0.002 0-0.413 0-0.748 0.335-0.748 0.748 0 0.001 0 0.001 0 0.002v-0 2.5c0 0.416 0.334 0.75 0.75 0.75h6.501c0.001 0 0.001 0 0.002 0 0.413 0 0.748-0.335 0.748-0.748 0-0.001 0-0.001 0-0.002v0-2.5c0-0.001 0-0.001 0-0.002 0-0.413-0.335-0.748-0.748-0.748-0.001 0-0.001 0-0.002 0h0zM19.253 28.004h-6.501c-0.001 0-0.001 0-0.002 0-0.413 0-0.748 0.335-0.748 0.748 0 0.001 0 0.001 0 0.002v-0 2.5c0 0.416 0.334 0.75 0.75 0.75h6.501c0.001 0 0.001 0 0.002 0 0.413 0 0.748-0.335 0.748-0.748 0-0.001 0-0.001 0-0.002v0-2.5c0-0.001 0-0.001 0-0.002 0-0.413-0.335-0.748-0.748-0.748-0.001 0-0.001 0-0.002 0h0zM19.253 6.001h-6.501c-0.001 0-0.001 0-0.002 0-0.413 0-0.748 0.335-0.748 0.748 0 0.001 0 0.001 0 0.002v-0 2.5c0 0.416 0.334 0.75 0.75 0.75h6.501c0.001 0 0.001 0 0.002 0 0.413 0 0.748-0.335 0.748-0.748 0-0.001 0-0.001 0-0.002v0-2.5c0-0.001 0-0.001 0-0.002 0-0.413-0.335-0.748-0.748-0.748-0.001 0-0.001 0-0.002 0h0z"></path>
<path d="M28.004 14.002h-24.004v4.001h24.004z"></path>
</svg>
