<!-- Generated by IcoMoon.io -->
<svg version="1.1" xmlns="http://www.w3.org/2000/svg" width="32" height="32" viewBox="0 0 32 32">
<title>view-continuous</title>
<path d="M19.253 22.004h-6.501c-0.414 0-0.75 0.336-0.75 0.75v2.5c0 0.414 0.336 0.75 0.75 0.75h6.501c0.414 0 0.75-0.336 0.75-0.75v-2.5c0-0.414-0.336-0.75-0.75-0.75z"></path>
<path d="M19.253 0h-6.501c-0.414 0-0.75 0.336-0.75 0.75v2.501c0 0.414 0.336 0.75 0.75 0.75h6.501c0.414 0 0.75-0.336 0.75-0.75v-2.501c0-0.414-0.336-0.75-0.75-0.75z"></path>
<path d="M19.253 28.004h-6.501c-0.414 0-0.75 0.336-0.75 0.75v2.5c0 0.414 0.336 0.75 0.75 0.75h6.501c0.414 0 0.75-0.336 0.75-0.75v-2.5c0-0.414-0.336-0.75-0.75-0.75z"></path>
<path d="M19.253 6.001h-6.501c-0.414 0-0.75 0.336-0.75 0.75v2.501c0 0.414 0.336 0.75 0.75 0.75h6.501c0.414 0 0.75-0.336 0.75-0.75v-2.501c0-0.414-0.336-0.75-0.75-0.75z"></path>
<path d="M28.004 14.003h-24.003v4.001h24.003v-4.001z"></path>
</svg>
