<!-- Generated by IcoMoon.io -->
<svg version="1.1" xmlns="http://www.w3.org/2000/svg" width="32" height="32" viewBox="0 0 32 32">
<title>weather-snow</title>
<path d="M19.075 0c-2.554 0-4.628 1.946-4.911 4.438-0.65-0.244-1.317-0.438-2.051-0.438-3.296 0-5.968 2.687-5.968 6.001 0 0.196 0.044 0.371 0.062 0.563-0.596-0.359-1.306-0.563-2.051-0.563-2.197 0-3.978 1.791-3.978 4.001s1.781 4.001 3.978 4.001h2.051c-0.090-0.273-0.141-0.586-0.141-0.912 0-1.657 1.336-3.001 2.984-3.001 0.271 0 0.534 0.036 0.783 0.104l-0.021-0.005c0.009-0 0.020-0 0.031-0s0.022 0 0.033 0h-0.002c0.544-0.568 1.307-0.921 2.151-0.921 0.184 0 0.365 0.017 0.54 0.049l-0.018-0.003c0.399-0.573 0.98-0.995 1.657-1.183l0.021-0.005c0.357-1.249 1.468-2.153 2.793-2.188l0.004-0c0.015-0 0.032-0 0.049-0 1.36 0 2.508 0.915 2.867 2.167l0.005 0.021c0.698 0.193 1.279 0.614 1.672 1.178l0.006 0.010c0.203-0.050 0.436-0.078 0.676-0.078 0.83 0 1.581 0.341 2.121 0.89l0 0c0.215-0.056 0.462-0.088 0.717-0.088 1.648 0 2.984 1.343 2.984 3.001 0 0.345-0.058 0.676-0.164 0.984l0.006-0.021h1.057c1.648 0 2.984-1.343 2.984-3s-1.336-3-2.984-3c-0.412 0-0.824 0.098-1.181 0.25 0.105-0.404 0.186-0.813 0.186-1.25 0-2.459-1.777-4.457-4.103-4.876 0.083-0.363 0.124-0.737 0.124-1.125 0-2.762-2.227-5.001-4.973-5.001z"></path>
<path d="M16.878 11.877c-0.497 0.063-0.878 0.483-0.878 0.993 0 0.025 0.001 0.049 0.003 0.073l-0-0.003v1.313l-0.563-0.25c-0.128-0.063-0.278-0.1-0.438-0.1-0.556 0-1.006 0.451-1.006 1.006 0 0.397 0.23 0.74 0.563 0.904l0.006 0.003 1.438 0.688v3.626l-3.313-2.063 0.125-1.75c0.003-0.029 0.005-0.063 0.005-0.097 0-0.555-0.45-1.005-1.005-1.005-0.523 0-0.952 0.399-1 0.91l-0 0.004-0.062 0.813-1.188-0.75c-0.165-0.124-0.372-0.198-0.597-0.198-0.552 0-1 0.448-1 1 0 0.382 0.214 0.714 0.53 0.883l0.005 0.003 1.313 0.813-0.625 0.5c-0.251 0.185-0.413 0.48-0.413 0.813 0 0.556 0.451 1.006 1.006 1.006 0.223 0 0.43-0.073 0.597-0.196l-0.003 0.002 1.313-1 3.376 2.063-3.438 2.125-1.313-0.938c-0.184-0.206-0.451-0.336-0.748-0.336-0.552 0-1 0.448-1 1 0 0.392 0.226 0.732 0.554 0.896l0.006 0.003 0.688 0.5-1.375 0.813c-0.297 0.183-0.492 0.506-0.492 0.875 0 0.565 0.458 1.024 1.024 1.024 0.196 0 0.38-0.055 0.536-0.151l-0.004 0.003 1.25-0.75 0.062 0.75c0.034 0.526 0.469 0.94 1 0.94 0.553 0 1.002-0.449 1.002-1.002 0-0.022-0.001-0.044-0.002-0.065l0 0.003-0.125-1.813 3.313-2.063v3.626l-1.438 0.688c-0.339 0.167-0.569 0.51-0.569 0.906 0 0.556 0.451 1.006 1.006 1.006 0.159 0 0.31-0.037 0.444-0.103l0.557-0.247v1.375c-0 0.004-0 0.009-0 0.014 0 0.552 0.448 1 1 1s1-0.448 1-1c0-0.005-0-0.010-0-0.015v0.001-1.375l0.563 0.25c0.128 0.063 0.278 0.1 0.438 0.1 0.556 0 1.006-0.451 1.006-1.006 0-0.397-0.23-0.74-0.563-0.904l-0.006-0.003-1.438-0.688v-3.626l3.313 2-0.125 1.875c-0 0.010-0.001 0.021-0.001 0.033 0 0.553 0.448 1.001 1.001 1.001 0.542 0 0.984-0.431 1-0.97l0-0.002 0.062-0.75 1.188 0.75c0.165 0.124 0.372 0.198 0.597 0.198 0.552 0 1-0.448 1-1 0-0.382-0.214-0.714-0.529-0.883l-0.005-0.003-1.375-0.813 0.688-0.5c0.257-0.185 0.422-0.483 0.422-0.82 0-0.556-0.451-1.006-1.006-1.006-0.227 0-0.437 0.075-0.606 0.203l0.003-0.002-1.313 1-3.375-2.063 3.375-2.063 1.375 0.938c0.179 0.17 0.422 0.275 0.689 0.275 0.552 0 1-0.448 1-1 0-0.394-0.227-0.734-0.558-0.898l-0.006-0.003-0.625-0.438 1.375-0.875c0.297-0.183 0.492-0.506 0.492-0.875 0-0.565-0.458-1.024-1.024-1.024-0.196 0-0.38 0.055-0.536 0.151l0.004-0.003-1.25 0.75-0.062-0.75c-0.034-0.526-0.469-0.94-1-0.94-0.553 0-1.002 0.449-1.002 1.002 0 0.022 0.001 0.044 0.002 0.065l-0-0.003 0.125 1.813-3.313 2.063v-3.626l1.438-0.688c0.339-0.167 0.569-0.51 0.569-0.906 0-0.556-0.451-1.007-1.006-1.007-0.159 0-0.31 0.037-0.444 0.103l-0.557 0.247v-1.313c0.002-0.021 0.003-0.046 0.003-0.071 0-0.552-0.448-1-1-1-0.045 0-0.089 0.003-0.133 0.009l0.005-0.001z"></path>
</svg>
