<!-- Generated by IcoMoon.io -->
<svg version="1.1" xmlns="http://www.w3.org/2000/svg" width="32" height="32" viewBox="0 0 32 32">
<title>weather-clear</title>
<path d="M15.991 5.987c-5.499 0-10.013 4.513-10.013 10.013s4.513 10.013 10.013 10.013c5.499 0 10.013-4.514 10.013-10.013s-4.513-10.013-10.013-10.013z"></path>
<path d="M28 14c0.275 1.425 0.224 2.741 0 4l4-2z"></path>
<path d="M4 14c-0.275 1.425-0.224 2.741 0 4l-4-2z"></path>
<path d="M18 28c-1.425 0.275-2.741 0.224-4 0l2 4z"></path>
<path d="M18 4c-1.425-0.275-2.741-0.224-4 0l2-4z"></path>
<path d="M8.929 25.899c-1.202-0.813-2.096-1.78-2.828-2.828l-1.414 4.243z"></path>
<path d="M25.9 8.929c-0.813-1.202-1.78-2.096-2.828-2.828l4.243-1.414z"></path>
<path d="M6.101 8.929c0.813-1.202 1.78-2.096 2.828-2.828l-4.243-1.414z"></path>
<path d="M23.071 25.899c1.202-0.813 2.096-1.78 2.828-2.828l1.414 4.243z"></path>
</svg>
