<!-- Generated by IcoMoon.io -->
<svg version="1.1" xmlns="http://www.w3.org/2000/svg" width="32" height="32" viewBox="0 0 32 32">
<title>weather-few-clouds</title>
<path d="M16 6c-5.499 0-10 4.501-10 10 0 3.567 1.915 6.725 4.75 8.5 0.337-0.152 0.698-0.28 1.063-0.375 0.457-3.633 3.439-6.5 7.188-6.5 2.005 0 3.677 0.947 5 2.25 0.35-0.067 0.616-0.25 1-0.25 0.086 0 0.165-0.004 0.25 0 0.448-1.133 0.75-2.34 0.75-3.625 0-5.499-4.501-10-10-10z"></path>
<path d="M19 20c-2.761 0-5 2.239-5 5 0 0.437 0.082 0.846 0.187 1.25-0.359-0.152-0.773-0.25-1.187-0.25-1.657 0-3 1.343-3 3s1.343 3 3 3h16c1.657 0 3-1.343 3-3s-1.343-3-3-3c0-2.209-1.791-4-4-4-0.631 0-1.219 0.177-1.75 0.438-0.874-1.456-2.429-2.438-4.25-2.438z"></path>
<path d="M28 14c0.275 1.425 0.224 2.741 0 4l4-2z"></path>
<path d="M4 14c-0.275 1.425-0.224 2.741 0 4l-4-2z"></path>
<path d="M18 4c-1.425-0.275-2.741-0.224-4 0l2-4z"></path>
<path d="M8.929 25.899c-1.202-0.813-2.096-1.78-2.828-2.828l-1.414 4.243z"></path>
<path d="M25.9 8.929c-0.813-1.202-1.78-2.096-2.828-2.828l4.243-1.414z"></path>
<path d="M6.101 8.929c0.813-1.202 1.78-2.096 2.828-2.828l-4.243-1.414z"></path>
</svg>
