<!-- Generated by IcoMoon.io -->
<svg version="1.1" xmlns="http://www.w3.org/2000/svg" width="32" height="32" viewBox="0 0 32 32">
<title>weather-fog</title>
<path d="M6.662 1.987c-1.246 0-2.001 0.66-2.547 1.188-0.546 0.53-0.964 1.086-1.352 1.586-0.386 0.5-0.74 0.944-0.968 1.164s-0.244 0.062 0.23 0.062c-0.001 0-0.001 0-0.002 0-1.102 0-1.995 0.893-1.995 1.995s0.892 1.993 1.992 1.995h0c1.248 0 2.007-0.658 2.553-1.186 0.544-0.53 0.96-1.086 1.346-1.586 0.258-0.332 0.502-0.621 0.755-0.901l-0.011 0.013c0.216 0.242 0.446 0.506 0.74 0.888 0.388 0.5 0.804 1.060 1.348 1.588 0.546 0.53 1.304 1.188 2.553 1.188 1.246 0 2.001-0.658 2.547-1.188 0.546-0.528 0.966-1.084 1.352-1.584 0.257-0.333 0.5-0.622 0.752-0.902l-0.012 0.013c0.214 0.242 0.446 0.506 0.74 0.888 0.388 0.5 0.802 1.060 1.348 1.588 0.546 0.53 1.304 1.188 2.553 1.188 1.246 0 2.001-0.658 2.547-1.188 0.546-0.528 0.964-1.086 1.352-1.586 0.294-0.38 0.52-0.648 0.738-0.89 0.216 0.242 0.446 0.508 0.742 0.89 0.386 0.5 0.802 1.060 1.348 1.59s1.304 1.188 2.551 1.188c1.102 0 1.995-0.893 1.995-1.995s-0.893-1.995-1.995-1.995v0c0.474 0 0.46 0.16 0.23-0.062-0.332-0.354-0.651-0.733-0.948-1.13l-0.025-0.034c-0.386-0.5-0.802-1.060-1.348-1.59-0.544-0.53-1.3-1.188-2.547-1.188-1.248 0-2.007 0.66-2.553 1.188-0.544 0.528-0.96 1.086-1.346 1.586-0.296 0.38-0.528 0.644-0.742 0.886-0.243-0.267-0.487-0.555-0.719-0.853l-0.025-0.033c-0.386-0.5-0.8-1.060-1.346-1.59s-1.3-1.188-2.551-1.188c-1.246 0-2.005 0.66-2.551 1.188-0.546 0.53-0.96 1.086-1.348 1.586-0.257 0.331-0.5 0.62-0.753 0.899l0.011-0.013c-0.242-0.266-0.485-0.555-0.717-0.853l-0.025-0.034c-0.388-0.5-0.802-1.060-1.348-1.59s-1.302-1.188-2.549-1.188zM6.662 11.993c-1.246 0-2.001 0.66-2.547 1.188-0.546 0.53-0.964 1.086-1.352 1.586-0.386 0.5-0.74 0.944-0.968 1.164s-0.244 0.062 0.23 0.062c-0.001 0-0.001 0-0.002 0-1.102 0-1.995 0.893-1.995 1.995s0.892 1.993 1.992 1.995h0c1.248 0 2.007-0.658 2.553-1.188 0.544-0.528 0.96-1.084 1.346-1.584 0.296-0.382 0.528-0.646 0.744-0.888 0.216 0.242 0.446 0.506 0.74 0.888 0.388 0.5 0.804 1.060 1.348 1.588 0.546 0.53 1.304 1.188 2.553 1.188 1.246 0 2.001-0.658 2.547-1.188 0.546-0.528 0.966-1.086 1.352-1.586 0.257-0.332 0.499-0.62 0.752-0.899l-0.012 0.013c0.214 0.242 0.446 0.506 0.74 0.886 0.388 0.5 0.802 1.060 1.348 1.59s1.304 1.188 2.553 1.188c1.246 0 2.001-0.658 2.547-1.188 0.546-0.528 0.964-1.086 1.352-1.586 0.294-0.38 0.52-0.648 0.738-0.89 0.216 0.242 0.446 0.508 0.742 0.89 0.386 0.5 0.802 1.060 1.348 1.59s1.304 1.188 2.551 1.188c1.102 0 1.995-0.893 1.995-1.995s-0.893-1.995-1.995-1.995v0c0.474 0 0.46 0.16 0.23-0.062-0.332-0.354-0.651-0.733-0.948-1.13l-0.025-0.034c-0.386-0.5-0.802-1.060-1.348-1.59-0.544-0.53-1.3-1.188-2.547-1.188-1.248 0-2.007 0.66-2.553 1.188-0.544 0.528-0.96 1.086-1.346 1.586-0.296 0.38-0.528 0.644-0.742 0.886-0.243-0.267-0.487-0.555-0.719-0.853l-0.025-0.033c-0.386-0.5-0.8-1.060-1.346-1.59s-1.3-1.188-2.549-1.188c-1.246 0-2.005 0.66-2.551 1.188s-0.96 1.086-1.348 1.586c-0.257 0.331-0.5 0.62-0.753 0.899l0.011-0.013c-0.242-0.267-0.485-0.555-0.717-0.853l-0.025-0.034c-0.388-0.5-0.802-1.060-1.348-1.59s-1.304-1.188-2.551-1.188zM6.662 22c-1.246 0-2.001 0.66-2.547 1.188s-0.964 1.086-1.352 1.586c-0.386 0.5-0.74 0.942-0.968 1.164-0.228 0.22-0.244 0.060 0.23 0.062-0.001 0-0.001 0-0.002 0-1.102 0-1.995 0.893-1.995 1.995s0.892 1.993 1.992 1.995h0c1.248 0 2.007-0.658 2.553-1.188 0.544-0.528 0.96-1.086 1.346-1.586 0.296-0.38 0.528-0.644 0.744-0.886 0.216 0.242 0.446 0.506 0.74 0.886 0.388 0.5 0.804 1.060 1.348 1.59 0.546 0.53 1.304 1.188 2.553 1.188 1.246 0 2.001-0.658 2.547-1.188 0.546-0.528 0.966-1.086 1.352-1.586 0.294-0.38 0.522-0.644 0.74-0.886 0.214 0.24 0.446 0.506 0.74 0.886 0.388 0.5 0.802 1.060 1.348 1.59s1.304 1.188 2.553 1.188c1.246 0 2.001-0.66 2.547-1.188s0.964-1.086 1.352-1.586c0.294-0.38 0.52-0.648 0.738-0.89 0.216 0.242 0.446 0.508 0.742 0.89 0.386 0.5 0.802 1.060 1.348 1.59s1.304 1.188 2.551 1.188c1.102 0 1.995-0.893 1.995-1.995s-0.893-1.995-1.995-1.995v0c0.474 0 0.46 0.16 0.23-0.062-0.332-0.354-0.651-0.733-0.948-1.13l-0.025-0.034c-0.386-0.5-0.802-1.058-1.348-1.586-0.544-0.53-1.3-1.192-2.547-1.192-1.248 0-2.007 0.658-2.553 1.188-0.544 0.528-0.96 1.086-1.346 1.586-0.296 0.38-0.528 0.644-0.742 0.886-0.243-0.267-0.486-0.555-0.719-0.853l-0.025-0.033c-0.386-0.5-0.8-1.060-1.346-1.59s-1.3-1.188-2.551-1.188c-1.246 0-2.005 0.66-2.551 1.188s-0.96 1.086-1.348 1.586c-0.294 0.38-0.526 0.644-0.742 0.886-0.242-0.267-0.485-0.555-0.717-0.853l-0.025-0.034c-0.388-0.5-0.802-1.060-1.348-1.59s-1.304-1.188-2.551-1.188z"></path>
</svg>
