<!-- Generated by IcoMoon.io -->
<svg version="1.1" xmlns="http://www.w3.org/2000/svg" width="32" height="32" viewBox="0 0 32 32">
<title>weather-showers-scattered</title>
<path d="M18.987 2c-2.554 0-4.629 1.946-4.911 4.439-0.65-0.244-1.318-0.438-2.054-0.438-3.298 0.010-5.967 2.686-5.967 5.985 0 0.006 0 0.011 0 0.017v-0.001c0 0.196 0.044 0.37 0.060 0.562-0.583-0.353-1.287-0.562-2.040-0.562-2.201 0-3.985 1.784-3.985 3.985 0 0.006 0 0.011 0 0.017v-0.001c0 2.21 1.78 4.001 3.981 4.001h0.744c0.33-0.704 0.734-1.362 1.306-1.938l4.911-4.939 4.911 4.941c0.566 0.568 0.928 1.24 1.242 1.936h0.934l2.86-2.876 2.854 2.876h5.097c1.648 0 2.984-1.344 2.984-3s-1.334-3-2.982-3c-0.412 0-0.824 0.1-1.18 0.25 0.104-0.404 0.186-0.814 0.186-1.25 0-2.46-1.778-4.457-4.103-4.877 0.079-0.333 0.124-0.715 0.124-1.107 0-0.006 0-0.012-0-0.018v0.001c0-2.76-2.226-5.001-4.973-5.001z"></path>
<path d="M11.002 15.842l-3.535 3.535c-0.902 0.907-1.459 2.156-1.459 3.537s0.558 2.63 1.46 3.537l-0-0c0.906 0.901 2.156 1.458 3.536 1.458s2.629-0.557 3.536-1.459l-0 0c0.902-0.907 1.459-2.156 1.459-3.537s-0.557-2.63-1.46-3.537l0 0zM11.002 18.671l2.12 2.12c1.18 1.18 1.18 3.064 0 4.245s-3.060 1.18-4.241 0c-0.547-0.541-0.885-1.292-0.885-2.121s0.339-1.58 0.885-2.121l0-0zM21.003 19.843l-3.535 3.535c-0.902 0.907-1.459 2.156-1.459 3.537s0.558 2.63 1.46 3.537l-0-0c0.906 0.901 2.156 1.458 3.536 1.458s2.629-0.557 3.536-1.459l-0 0c0.902-0.907 1.459-2.156 1.459-3.537s-0.558-2.63-1.46-3.537l0 0zM21.003 22.671l2.12 2.12c1.18 1.18 1.18 3.064 0 4.245s-3.060 1.18-4.241 0c-0.547-0.541-0.885-1.292-0.885-2.121s0.338-1.58 0.885-2.121l0-0z"></path>
</svg>
