<!-- Generated by IcoMoon.io -->
<svg version="1.1" xmlns="http://www.w3.org/2000/svg" width="32" height="32" viewBox="0 0 32 32">
<title>weather-windy</title>
<path d="M16.096 0.222c-1.287-0.332-2.669-0.297-3.978 0.144-0.827 0.257-1.418 1.016-1.418 1.913 0 1.104 0.895 1.999 1.999 1.999 0.25 0 0.489-0.046 0.709-0.129l-0.014 0.005c1.128-0.381 2.361-0.064 3.166 0.816s1.016 2.138 0.539 3.232-1.539 1.797-2.729 1.804c-0.004-0-0.009-0-0.014-0-1.104 0-1.999 0.895-1.999 1.999s0.895 1.999 1.999 1.999c0.013 0 0.026-0 0.039-0l-0.002 0c2.763-0.016 5.267-1.671 6.371-4.205s0.61-5.493-1.257-7.531c-0.933-1.019-2.125-1.714-3.412-2.046z"></path>
<path d="M0 10.006v3.998h14.753v-3.998z"></path>
<path d="M27.792 8.245c-1.069-0.315-2.227-0.323-3.33 0.027-0.815 0.265-1.393 1.018-1.393 1.905 0 1.104 0.895 1.999 2 1.999 0.217 0 0.426-0.035 0.622-0.099l-0.014 0.004c0.67-0.213 1.368-0.018 1.862 0.566s0.628 1.464 0.312 2.198-0.959 1.147-1.651 1.152c-0.004-0-0.009-0-0.014-0-1.104 0-1.999 0.895-1.999 1.999s0.895 1.999 1.999 1.999c0.013 0 0.026-0 0.039-0l-0.002 0c2.315-0.014 4.388-1.446 5.302-3.572s0.558-4.594-0.937-6.36c-0.748-0.883-1.726-1.504-2.795-1.819z"></path>
<path d="M13.992 16.002v3.998h11.993v-3.998z"></path>
<path d="M18.919 31.981c-1.003 0.088-2.031-0.123-2.94-0.648-0.596-0.349-0.99-0.986-0.99-1.716 0-1.094 0.887-1.982 1.982-1.982 0.365 0 0.707 0.099 1.001 0.271l-0.009-0.005c0.386 0.223 0.849 0.182 1.191-0.105s0.466-0.742 0.312-1.163c-0.153-0.421-0.535-0.691-0.98-0.691-0.010 0-0.022 0-0.034 0-1.094 0-1.982-0.887-1.982-1.982s0.887-1.982 1.982-1.982c0.012 0 0.024 0 0.036 0l-0.002-0c2.1 0 3.987 1.326 4.704 3.299s0.12 4.201-1.487 5.551c-0.804 0.675-1.78 1.064-2.784 1.152z"></path>
<path d="M1.999 21.991v3.998h16.74v-3.998z"></path>
</svg>
