<!-- Generated by IcoMoon.io -->
<svg version="1.1" xmlns="http://www.w3.org/2000/svg" width="32" height="32" viewBox="0 0 32 32">
<title>weather-few-clouds-night</title>
<path d="M19 20c-2.761 0-5 2.239-5 5 0 0.437 0.082 0.846 0.187 1.25-0.359-0.152-0.773-0.25-1.187-0.25-1.657 0-3 1.343-3 3s1.343 3 3 3h16c1.657 0 3-1.343 3-3s-1.343-3-3-3c0-2.209-1.791-4-4-4-0.631 0-1.219 0.177-1.75 0.438-0.874-1.456-2.429-2.438-4.25-2.438z"></path>
<path d="M13.641 2.215c-6.591 1.129-11.645 6.882-11.645 13.785 0 4.659 2.31 8.788 5.832 11.336 0.622-1.625 2.127-2.787 3.883-3.277 0.28-2.094 1.415-3.917 3.031-5.109-1.733-2.716-2.746-5.93-2.746-9.379 0-2.628 0.601-5.113 1.645-7.355z"></path>
<path d="M16 2c-0.805 0-1.591 0.083-2.359 0.215-1.043 2.243-1.645 4.727-1.645 7.355 0 3.449 1.013 6.663 2.746 9.379 1.198-0.883 2.653-1.43 4.258-1.43 1.995 0 3.641 0.969 4.973 2.25 0.359-0.069 0.632-0.25 1.027-0.25 1.55 0 2.947 0.577 4.039 1.512 0.61-1.564 0.961-3.255 0.961-5.031 0-7.708-6.292-14-14-14z"></path>
</svg>
