<!-- Generated by IcoMoon.io -->
<svg version="1.1" xmlns="http://www.w3.org/2000/svg" width="32" height="32" viewBox="0 0 32 32">
<title>weather-severe-alert</title>
<path d="M19.003 4c-2.568 0-4.654 1.946-4.938 4.438-0.654-0.244-1.324-0.438-2.063-0.438-3.314 0-6.001 2.687-6.001 6.001 0 0.196 0.044 0.371 0.062 0.563-0.599-0.359-1.313-0.563-2.063-0.563-2.209 0-4.001 1.791-4.001 4.001s1.791 4.001 4.001 4.001h10.002v-4.251c0-2.021 1.73-3.751 3.751-3.751h10.127c-0.418-1.972-1.998-3.517-4.001-3.876 0.084-0.363 0.125-0.737 0.125-1.125 0-2.762-2.239-5.001-5.001-5.001z"></path>
<path d="M17.753 16.002c-0.985 0-1.75 0.765-1.75 1.75v12.502c0 0.985 0.765 1.75 1.75 1.75h12.502c0.985 0 1.75-0.765 1.75-1.75v-12.502c0-0.985-0.765-1.75-1.75-1.75h-12.502zM22.004 18.003h4.001v8.001h-4.001v-8.001zM22.004 28.004h4.001v2h-4.001v-2z"></path>
</svg>
