<!-- Generated by IcoMoon.io -->
<svg version="1.1" xmlns="http://www.w3.org/2000/svg" width="32" height="32" viewBox="0 0 32 32">
<title>weather-overcast</title>
<path d="M19.003 8.001c-2.568 0-4.654 1.946-4.938 4.438-0.654-0.244-1.324-0.438-2.063-0.438-3.314 0-6.001 2.687-6.001 6.001 0 0.196 0.044 0.371 0.062 0.563-0.599-0.359-1.313-0.563-2.063-0.563-2.209 0-4.001 1.791-4.001 4.001s1.791 4.001 4.001 4.001h25.004c1.657 0 3-1.343 3-3s-1.343-3-3-3c-0.414 0-0.829 0.098-1.188 0.25 0.105-0.404 0.187-0.813 0.187-1.25 0-2.459-1.787-4.457-4.126-4.876 0.084-0.363 0.125-0.737 0.125-1.125 0-2.762-2.239-5.001-5.001-5.001z"></path>
</svg>
