<!-- Generated by IcoMoon.io -->
<svg version="1.1" xmlns="http://www.w3.org/2000/svg" width="32" height="32" viewBox="0 0 32 32">
<title>weather-overcast</title>
<path d="M19.003 8.001c-2.555 0.007-4.657 1.935-4.937 4.416l-0.002 0.023c-0.654-0.244-1.322-0.438-2.062-0.438-3.314 0-6.001 2.687-6.001 6.001v0c0 0.196 0.044 0.37 0.062 0.562-0.6-0.358-1.312-0.562-2.062-0.562-2.209 0-4.001 1.791-4.001 4.001s1.791 4.001 4.001 4.001v0h25.004c1.657 0 3-1.343 3-3s-1.343-3-3-3v0c-0.414 0-0.828 0.1-1.188 0.25 0.106-0.404 0.188-0.814 0.188-1.25 0-2.46-1.786-4.457-4.127-4.877 0.081-0.338 0.128-0.726 0.128-1.124 0-2.762-2.239-5.001-5.001-5.001-0.001 0-0.001 0-0.002 0h0z"></path>
</svg>
