<!-- Generated by IcoMoon.io -->
<svg version="1.1" xmlns="http://www.w3.org/2000/svg" width="32" height="32" viewBox="0 0 32 32">
<title>weather-storm</title>
<path d="M19.023 0.088c-2.546 0-4.615 1.946-4.897 4.437-0.648-0.244-1.314-0.436-2.046-0.436-3.287 0-5.951 2.686-5.951 6.001 0 0.196 0.044 0.372 0.062 0.562-0.581-0.353-1.284-0.562-2.035-0.562-0.003 0-0.007 0-0.010 0h0c-2.194 0.009-3.969 1.79-3.969 3.985 0 0.006 0 0.011 0 0.017v-0.001c0.002 2.212 1.632 3.913 3.823 3.913h10.002v-3c-0.032-1.572 1.48-2.94 3.036-2.974 1.6-0.034 2.998 1.36 2.964 2.974v3h9.001c1.644 0 2.91-1.254 2.91-2.912 0-1.656-1.332-3-2.974-3-0.412 0-0.822 0.1-1.18 0.25 0.106-0.404 0.188-0.814 0.188-1.25 0-2.46-1.772-4.457-4.093-4.877 0.084-0.362 0.124-0.736 0.124-1.124 0-2.762-2.22-5.001-4.959-5.001z"></path>
<path d="M16.987 13.99c-0.545 0.009-0.984 0.453-0.984 1 0 0.004 0 0.009 0 0.013v-0.001 5.001h-6.001v2h-3.415l-5.293 5.293c-0.181 0.181-0.294 0.432-0.294 0.708 0 0.553 0.448 1.001 1.001 1.001 0.276 0 0.526-0.112 0.707-0.293v0l4.707-4.709h2.586v6.001c0 0.552 0.448 1 1 1s1-0.448 1-1v0-6.849c0.007-0.046 0.012-0.098 0.012-0.152s-0.004-0.106-0.012-0.158l0.001 0.006v-0.848h4.001v1.414l4.001 4.001v2.586c0 0.552 0.448 1 1 1s1-0.448 1-1v0-2h2.724l4.761 2.856c0.153 0.101 0.341 0.16 0.543 0.16 0.552 0 1-0.448 1-1 0-0.373-0.204-0.698-0.506-0.87l-0.005-0.003-5.241-3.144h-3.861l-3.416-3.415v-1.434c0.007-0.046 0.012-0.098 0.012-0.152s-0.004-0.106-0.012-0.158l0.001 0.006v-5.849c0-0.004 0-0.008 0-0.012 0-0.552-0.448-1-1-1-0.006 0-0.011 0-0.017 0h0.001z"></path>
</svg>
