<!-- Generated by IcoMoon.io -->
<svg version="1.1" xmlns="http://www.w3.org/2000/svg" width="32" height="32" viewBox="0 0 32 32">
<title>weather-storm</title>
<path d="M19.022 0.087c-2.546 0-4.615 1.946-4.897 4.439-0.648-0.244-1.313-0.438-2.045-0.438-3.286 0-5.95 2.687-5.95 6.001 0 0.196 0.044 0.371 0.062 0.563-0.594-0.359-1.302-0.563-2.045-0.563-2.191 0-3.967 1.791-3.967 4.001s1.631 3.912 3.822 3.912h10.002v-3c-0.033-1.571 1.478-2.942 3.036-2.975 1.599-0.034 2.998 1.362 2.965 2.975v3h9.001c1.643 0 2.91-1.255 2.91-2.912s-1.332-3.001-2.975-3.001c-0.411 0-0.822 0.098-1.178 0.25 0.104-0.404 0.186-0.813 0.186-1.25 0-2.459-1.772-4.457-4.091-4.876 0.083-0.363 0.124-0.737 0.124-1.125 0-2.762-2.22-5.001-4.959-5.001z"></path>
<path d="M16.815 14.002c-0.466 0.091-0.813 0.496-0.813 0.981 0 0.007 0 0.013 0 0.020v-0.001 5.001h-6.001v2h-3.438l-0.25 0.313-5.001 5.001c-0.286 0.179-0.473 0.492-0.473 0.849 0 0.552 0.447 0.999 0.999 0.999 0.357 0 0.67-0.187 0.847-0.469l0.002-0.004 4.688-4.688h2.625v6.001c0 0.552 0.448 1 1 1s1-0.448 1-1v0-6.751c0.015-0.066 0.024-0.141 0.024-0.219s-0.009-0.153-0.026-0.226l0.001 0.007v-0.813h4.001v1.438l0.313 0.25 3.688 3.688v2.625c0 0.552 0.448 1 1 1s1-0.448 1-1v0-2h2.688l4.813 2.875c0.144 0.084 0.316 0.133 0.5 0.133 0.557 0 1.008-0.451 1.008-1.008 0-0.373-0.202-0.698-0.503-0.873l-0.005-0.003-5.001-3-0.25-0.125h-3.876l-3.375-3.375v-1.375c0.015-0.066 0.024-0.141 0.024-0.219s-0.009-0.153-0.026-0.226l0.001 0.007v-5.813c0-0.006 0-0.013 0-0.019 0-0.552-0.447-0.999-0.999-0.999-0.067 0-0.132 0.007-0.195 0.019l0.006-0.001z"></path>
</svg>
