<!-- Generated by IcoMoon.io -->
<svg version="1.1" xmlns="http://www.w3.org/2000/svg" width="32" height="32" viewBox="0 0 32 32">
<title>window-close</title>
<path d="M8.001 8.001h2c0.021-0 0.042-0.001 0.063 0 0.51 0.022 1.020 0.257 1.375 0.625l4.563 4.563 4.626-4.563c0.531-0.461 0.893-0.611 1.375-0.625h2v2c0 0.573-0.069 1.101-0.5 1.5l-4.563 4.563 4.501 4.501c0.376 0.376 0.563 0.907 0.563 1.438v2h-2c-0.531-0-1.061-0.186-1.438-0.563l-4.563-4.563-4.563 4.563c-0.376 0.376-0.907 0.563-1.438 0.563h-2v-2c0-0.531 0.186-1.061 0.563-1.438l4.563-4.501-4.563-4.563c-0.422-0.389-0.606-0.939-0.563-1.5v-2z"></path>
</svg>
