<!-- Generated by IcoMoon.io -->
<svg version="1.1" xmlns="http://www.w3.org/2000/svg" width="32" height="32" viewBox="0 0 32 32">
<title>x-office-calendar</title>
<path d="M5.938 2.022c-2.105 0-4 1.69-4 3.875v20.228c0 2.185 1.895 3.875 4 3.875h20.063c2.105 0 4-1.69 4-3.875v-20.228c0-2.185-1.895-3.875-4-3.875zM5.938 10h4.063v4h-4.063zM12 10h6v4h-6zM20 10h6v4h-6zM5.938 16h4.063v4h-4.063zM12 16h6v4h-6zM20 16h6v4h-6zM5.938 22h4.063v4h-4.063zM12 22h6v4h-6zM20 22h6v4h-6z"></path>
<path d="M20 16h6v4h-6v-4z"></path>
</svg>
