<!-- Generated by IcoMoon.io -->
<svg version="1.1" xmlns="http://www.w3.org/2000/svg" width="32" height="32" viewBox="0 0 32 32">
<title>x-office-document</title>
<path d="M6.001 2c-1.105 0-2 0.896-2 2v0 26.004c0 1.105 0.896 2 2 2v0h20.003c1.105 0 2-0.896 2-2v0-19.003c-0-0.552-0.224-1.052-0.586-1.414l-7.001-7.001c-0.362-0.362-0.862-0.586-1.414-0.586h-0zM8.001 6.001h10.174l5.829 5.829v16.174h-16.002z"></path>
<path d="M18.003 4.001v8.001h8.001z"></path>
<path d="M12.838 9.973c-1.72 0-3.136 1.416-3.136 3.138 0 1.72 1.416 3.136 3.136 3.136s3.138-1.416 3.138-3.136c0-1.72-1.418-3.138-3.138-3.138zM12.838 11.974c0.64 0 1.138 0.498 1.138 1.138s-0.5 1.136-1.138 1.136c-0.004 0-0.009 0-0.014 0-0.62 0-1.122-0.502-1.122-1.122 0-0.005 0-0.010 0-0.015v0.001c0-0.64 0.496-1.138 1.136-1.138z"></path>
<path d="M17.975 15.974h4.001v2h-4.001zM9.973 19.975h12.002v2h-12.002zM9.973 23.976h12.002v2h-12.002z"></path>
</svg>
