<!-- Generated by IcoMoon.io -->
<svg version="1.1" xmlns="http://www.w3.org/2000/svg" width="32" height="32" viewBox="0 0 32 32">
<title>x-office-drawing</title>
<path d="M6.001 2c-1.105 0-2 0.896-2 2v0 26.004c0 1.105 0.896 2 2 2v0h20.003c1.105 0 2-0.896 2-2v0-19.003c-0-0.552-0.224-1.052-0.586-1.414l-7.001-7.001c-0.362-0.362-0.862-0.586-1.414-0.586h-0zM8.001 6.001h10.174l5.829 5.829v16.174h-16.002z"></path>
<path d="M18.003 4.001v8.001h8.001z"></path>
<path d="M17.109 20.635c-0.934-0.128-2.092-0.208-3.062 0.552-0.808 0.63-1.554 1.426-2.212 2.034-0.656 0.608-1.304 0.876-1.172 0.876h-4.687v2h4.687c1.164 0 1.8-0.736 2.528-1.41 0.728-0.676 1.462-1.44 2.086-1.926 0.212-0.166 0.814-0.248 1.56-0.146 0.744 0.104 1.414 0.356 2.2 0.356 0.294 0 0.434 0.074 0.65 0.26 0.216 0.182 0.46 0.5 0.73 0.888s0.56 0.84 0.996 1.246c0.436 0.408 1.092 0.762 1.844 0.762h1.72v-2h-1.72c-0.198 0-0.28-0.038-0.476-0.222-0.198-0.184-0.44-0.524-0.72-0.926-0.28-0.4-0.6-0.866-1.078-1.274-0.519-0.449-1.199-0.725-1.942-0.734l-0.002-0c-0.066 0-0.998-0.206-1.93-0.336zM12.838 11.702c-1.72 0-3.136 1.416-3.136 3.136s1.416 3.136 3.136 3.136c1.72 0 3.138-1.416 3.138-3.136s-1.418-3.138-3.138-3.138zM12.838 13.702c0.64 0 1.138 0.496 1.138 1.136s-0.498 1.136-1.138 1.136c-0.004 0-0.009 0-0.014 0-0.62 0-1.122-0.502-1.122-1.122 0-0.005 0-0.010 0-0.015v0.001c0-0.64 0.496-1.138 1.136-1.138z"></path>
</svg>
