<!-- Generated by IcoMoon.io -->
<svg version="1.1" xmlns="http://www.w3.org/2000/svg" width="32" height="32" viewBox="0 0 32 32">
<title>x-office-spreadsheet</title>
<path d="M6.001 2c-1.105 0-2 0.896-2 2v0 26.004c0 1.105 0.896 2 2 2v0h20.003c1.105 0 2-0.896 2-2v0-19.003c-0-0.552-0.224-1.052-0.586-1.414l-7.001-7.001c-0.362-0.362-0.862-0.586-1.414-0.586h-0zM8.001 6.001h10.174l5.829 5.829v16.174h-16.002z"></path>
<path d="M18.003 4.001v8.001h8.001z"></path>
<path d="M9.973 7.973h2v2h-2zM13.974 7.973h2v2h-2zM9.973 11.974h2v2h-2zM13.974 11.974h2v2h-2zM9.973 23.976h2v2h-2zM13.974 23.976h2v2h-2zM17.975 23.976h2v2h-2zM9.973 21.997h12.002v-2.022l-2.938-5.105-3.062 4.095-2.938-2.122-3.062 3.132z"></path>
</svg>
