<!-- Generated by IcoMoon.io -->
<svg version="1.1" xmlns="http://www.w3.org/2000/svg" width="32" height="32" viewBox="0 0 32 32">
<title>x-office-calendar</title>
<path d="M5.939 2.020c-2.106 0-4.001 1.692-4.001 3.877v20.233c0 2.184 1.894 3.875 4.001 3.875h20.065c2.104 0 4.001-1.69 4.001-3.875v-20.233c0-2.184-1.896-3.875-4.001-3.875zM5.939 10.002h4.063v4.001h-4.063zM12.002 10.002h6.001v4.001h-6.001zM20.003 10.002h6.001v4.001h-6.001zM5.939 16.002h4.063v4.001h-4.063zM12.002 16.002h6.001v4.001h-6.001zM20.003 16.002h6.001v4.001h-6.001zM5.939 22.003h4.063v4.001h-4.063zM12.002 22.003h6.001v4.001h-6.001zM20.003 22.003h6.001v4.001h-6.001z"></path>
<path d="M20.003 16.002h6.001v4.001h-6.001z"></path>
</svg>
