<!-- Generated by IcoMoon.io -->
<svg version="1.1" xmlns="http://www.w3.org/2000/svg" width="32" height="32" viewBox="0 0 32 32">
<title>ac-adapter</title>
<path d="M17.561 10.017c-0.356 0.098-0.684 0.295-0.938 0.563l-6.063 6.001c-0.471 0.462-0.689 1.166-0.563 1.813v1.625h4.942l-2.375 2.548c-0.429 0.439-0.643 1.079-0.563 1.688-0.002 0.062-0.002 0.125 0 0.187v1.563h2c0.528 0.008 1.056-0.198 1.438-0.563l6.001-5.986c0.367-0.38 0.575-0.909 0.563-1.438 0.006-0.083 0.006-0.167 0-0.25v-1.75h-5.13l2.625-2.563c0.429-0.439 0.643-1.079 0.563-1.688 0.002-0.062 0.002-0.125 0-0.187v-1.563h-1.875c-0.042-0.001-0.083-0.001-0.125 0-0.166-0.021-0.334-0.021-0.5 0z"></path>
<path d="M10.939 0c-0.984 0-1.593 0.456-2.063 0.938s-0.875 1.118-0.875 2.063v1h-4.001v28.004h24.004v-28.004h-4.001v-0.875c-0.048-0.861-0.341-1.441-0.813-2-0.447-0.53-1.25-1.059-2.313-1.063v-0.062h-9.939zM12.001 4.001h8.001v4.001h4.001v20.003h-16.002v-20.003h4.001v-4.001z"></path>
</svg>
