<!-- Generated by IcoMoon.io -->
<svg version="1.1" xmlns="http://www.w3.org/2000/svg" width="32" height="32" viewBox="0 0 32 32">
<title>accessories-text-editor</title>
<path d="M10.997 12.018c-0.552 0-1 0.448-1 1s0.448 1 1 1v0h11.997c0.552 0 1-0.448 1-1s-0.448-1-1-1v0zM10.997 16.016c-0.552 0-1 0.448-1 1s0.448 1 1 1v0h9.997c0.552 0 1-0.448 1-1s-0.448-1-1-1v0zM10.997 20.015c-0.552 0-1 0.448-1 1s0.448 1 1 1v0h11.997c0.552 0 1-0.448 1-1s-0.448-1-1-1v0zM10.997 24.014c-0.552 0-1 0.448-1 1s0.448 1 1 1v0h5.998c0.552 0 1-0.448 1-1s-0.448-1-1-1v0z"></path>
<path d="M7.998 2.020c-2.179 0-3.999 1.819-3.999 3.999v21.994c0 2.179 1.819 3.999 3.999 3.999h17.995c2.179 0 3.999-1.819 3.999-3.999v-21.994c0-2.179-1.819-3.999-3.999-3.999v25.993h-17.995v-25.993z"></path>
<path d="M10.981 0.007c-0.545 0.009-0.984 0.453-0.984 1 0 0.004 0 0.009 0 0.013v-0.001 5.998c0 0.552 0.448 1 1 1s1-0.448 1-1v0-5.998c0-0.004 0-0.008 0-0.012 0-0.552-0.448-1-1-1-0.006 0-0.011 0-0.017 0h0.001zM14.98 0.007c-0.545 0.009-0.984 0.453-0.984 1 0 0.004 0 0.009 0 0.013v-0.001 5.998c0 0.552 0.448 1 1 1s1-0.448 1-1v0-5.998c0-0.004 0-0.008 0-0.012 0-0.552-0.448-1-1-1-0.006 0-0.011 0-0.017 0h0.001zM18.979 0.007c-0.545 0.009-0.984 0.453-0.984 1 0 0.004 0 0.009 0 0.013v-0.001 5.998c0 0.552 0.448 1 1 1s1-0.448 1-1v0-5.998c0-0.004 0-0.008 0-0.012 0-0.552-0.448-1-1-1-0.006 0-0.011 0-0.017 0h0.001zM22.977 0.007c-0.545 0.009-0.984 0.453-0.984 1 0 0.004 0 0.009 0 0.013v-0.001 5.998c0 0.552 0.448 1 1 1s1-0.448 1-1v0-5.998c0-0.004 0-0.008 0-0.012 0-0.552-0.448-1-1-1-0.006 0-0.011 0-0.017 0h0.001z"></path>
</svg>
