<!-- Generated by IcoMoon.io -->
<svg version="1.1" xmlns="http://www.w3.org/2000/svg" width="32" height="32" viewBox="0 0 32 32">
<title>accessories-dictionary</title>
<path d="M19.132 2.261c-1.128 0.177-2.48 0.757-4.001 1.563-3.087-1.698-5.492-1.767-7.501-1.25-2.129 0.548-3.856 1.393-6.564 1.313h-1v21.628h1c2.644 0 4.934-1.22 7.064-1.75s3.966-0.574 6.313 1.5l0.625 0.563 0.688-0.563c2.334-2.127 4.097-2.099 6.188-1.563s4.343 1.795 7.001 1.813h1.063v-21.628h-1c-3.015 0-4.593-0.897-6.564-1.438-0.985-0.27-2.045-0.387-3.313-0.187zM19.382 4.199c0.964-0.159 1.743-0.037 2.563 0.187 1.444 0.396 3.338 1.173 6.063 1.375v17.503c-1.732-0.259-3.515-0.975-5.563-1.5-2.215-0.568-4.822-0.333-7.376 1.625-2.575-1.91-5.201-2.119-7.439-1.563-2.070 0.515-3.832 1.192-5.563 1.438v-17.503c2.528-0.151 4.464-0.839 6.063-1.25 1.839-0.473 3.471-0.57 6.501 1.25l0.5 0.25 0.5-0.25c1.64-0.935 2.787-1.403 3.751-1.563z"></path>
<path d="M14.069 4.699h2v19.209h-2v-19.209z"></path>
<path d="M26.008 4.949v22.816l-21.941 0.125v-22.878h-4.001v26.942l2-0.062 27.942-0.125v-26.817h-4.001z"></path>
<path d="M1.817 29.453v-4.376l8.44-2.262 4.455 1.194 5.007-1.342 7.485 2.005v4.905z"></path>
</svg>
