<!-- Generated by IcoMoon.io -->
<svg version="1.1" xmlns="http://www.w3.org/2000/svg" width="32" height="32" viewBox="0 0 32 32">
<title>accessories-calculator</title>
<path d="M4.063 0c-1.084 0-2 0.658-2 1.876v28.252c0 1.174 0.754 1.876 2 1.876h26.066c1.040 0 1.876-0.702 1.876-1.876v-28.252c0.001-0.018 0.001-0.040 0.001-0.061 0-1.003-0.813-1.816-1.816-1.816-0.021 0-0.043 0-0.064 0.001l0.003-0zM6.001 4.063h22.065v5.939h-22.065zM6.377 12.002h3.248c0.222 0 0.376 0.154 0.376 0.376v3.251c0 0.22-0.154 0.374-0.376 0.374h-3.248c-0.006 0-0.012 0-0.018 0-0.198 0-0.358-0.16-0.358-0.358 0-0.007 0-0.013 0-0.019l-0 0.001v-3.248c0-0.22 0.154-0.374 0.376-0.374zM12.378 12.002h3.251c0.22 0 0.374 0.154 0.374 0.376v3.251c0 0.22-0.154 0.374-0.376 0.374h-3.248c-0.006 0-0.012 0-0.018 0-0.198 0-0.358-0.16-0.358-0.358 0-0.007 0-0.013 0.001-0.019l-0 0.001v-3.248c0-0.22 0.154-0.374 0.376-0.374zM18.379 12.002h3.248c0.222 0 0.376 0.154 0.376 0.376v3.251c0 0.22-0.154 0.374-0.376 0.374h-3.248c-0.006 0-0.012 0-0.018 0-0.198 0-0.358-0.16-0.358-0.358 0-0.007 0-0.013 0-0.019l-0 0.001v-3.248c0-0.22 0.154-0.374 0.376-0.374zM24.38 12.002h3.248c0.222 0 0.376 0.154 0.376 0.376v3.251c0 0.22-0.154 0.374-0.376 0.374h-3.248c-0.006 0-0.012 0-0.018 0-0.198 0-0.358-0.16-0.358-0.358 0-0.007 0-0.013 0-0.019l-0 0.001v-3.248c0-0.22 0.154-0.374 0.376-0.374zM6.377 18.003h3.248c0.222 0 0.376 0.154 0.376 0.376v3.248c0 0.222-0.154 0.376-0.376 0.376h-3.248c-0.006 0-0.012 0-0.018 0-0.198 0-0.358-0.16-0.358-0.358 0-0.006 0-0.013 0-0.019l-0 0.001v-3.248c0-0.224 0.154-0.376 0.376-0.376zM12.378 18.003h3.251c0.22 0 0.374 0.154 0.374 0.376v3.248c0 0.222-0.154 0.376-0.376 0.376h-3.248c-0.006 0-0.012 0-0.018 0-0.198 0-0.358-0.16-0.358-0.358 0-0.006 0-0.013 0.001-0.019l-0 0.001v-3.248c0-0.224 0.154-0.376 0.376-0.376zM18.379 18.003h3.248c0.222 0 0.376 0.154 0.376 0.376v3.248c0 0.222-0.154 0.376-0.376 0.376h-3.248c-0.006 0-0.012 0-0.018 0-0.198 0-0.358-0.16-0.358-0.358 0-0.006 0-0.013 0-0.019l-0 0.001v-3.248c0-0.224 0.154-0.376 0.376-0.376zM24.38 18.003h3.248c0.222 0 0.376 0.154 0.376 0.376v3.248c0 0.222-0.154 0.376-0.376 0.376h-3.248c-0.006 0-0.012 0-0.018 0-0.198 0-0.358-0.16-0.358-0.358 0-0.006 0-0.013 0-0.019l-0 0.001v-3.248c0-0.222 0.154-0.376 0.376-0.376zM6.377 24.004h3.248c0.222 0 0.376 0.154 0.376 0.376v3.248c0 0.222-0.154 0.376-0.376 0.376h-3.248c-0.006 0-0.012 0-0.018 0-0.198 0-0.358-0.16-0.358-0.358 0-0.006 0-0.013 0-0.019l-0 0.001v-3.248c0-0.222 0.154-0.376 0.376-0.376zM12.378 24.004h3.251c0.22 0 0.374 0.154 0.374 0.376v3.248c0 0.222-0.154 0.376-0.376 0.376h-3.248c-0.006 0-0.012 0-0.018 0-0.198 0-0.358-0.16-0.358-0.358 0-0.006 0-0.013 0.001-0.019l-0 0.001v-3.248c0-0.222 0.154-0.376 0.376-0.376zM18.379 24.004h3.248c0.222 0 0.376 0.154 0.376 0.376v3.248c0 0.222-0.154 0.376-0.376 0.376h-3.248c-0.006 0-0.012 0-0.018 0-0.198 0-0.358-0.16-0.358-0.358 0-0.006 0-0.013 0-0.019l-0 0.001v-3.248c0-0.222 0.154-0.376 0.376-0.376zM24.38 24.004h3.248c0.222 0 0.376 0.154 0.376 0.376v3.248c0 0.222-0.154 0.376-0.376 0.376h-3.248c-0.006 0-0.012 0-0.018 0-0.198 0-0.358-0.16-0.358-0.358 0-0.006 0-0.013 0-0.019l-0 0.001v-3.248c0-0.222 0.154-0.376 0.376-0.376z"></path>
</svg>
