<!-- Generated by IcoMoon.io -->
<svg version="1.1" xmlns="http://www.w3.org/2000/svg" width="32" height="32" viewBox="0 0 32 32">
<title>address-book-new</title>
<path d="M6.001 2c-4.001 0-4.001 4.001-4.001 4.001h16.002v-4.001zM24.004 14.002v14.002h-22.003s0 4.001 4.001 4.001h18.003s0.918 0.028 1.894-0.46c0.978-0.49 2.106-1.874 2.106-3.541v-14.002z"></path>
<path d="M1 8.001h4.001c0.552 0 1 0.448 1 1s-0.448 1-1 1h-4.001c-0.552 0-1-0.448-1-1s0.448-1 1-1v0zM1 12.002h4.001c0.552 0 1 0.448 1 1s-0.448 1-1 1h-4.001c-0.552 0-1-0.448-1-1s0.448-1 1-1v0zM1 16.002h4.001c0.552 0 1 0.448 1 1s-0.448 1-1 1h-4.001c-0.552 0-1-0.448-1-1s0.448-1 1-1v0zM1 20.003h4.001c0.552 0 1 0.448 1 1s-0.448 1-1 1h-4.001c-0.552 0-1-0.448-1-1s0.448-1 1-1v0zM1 24.004h4.001c0.552 0 1 0.448 1 1s-0.448 1-1 1h-4.001c-0.552 0-1-0.448-1-1s0.448-1 1-1v0z"></path>
<path d="M14.572 10.009c-3.679 0.239-6.572 3.281-6.572 6.999 0 0.308 0.020 0.612 0.058 0.909l-0.004-0.035c0.458 3.47 3.397 6.121 6.956 6.121 0.007 0 0.015 0 0.022-0h-0.001c1.7 0 3.289-0.552 3.289-0.552l-0.632-1.898s-1.412 0.45-2.662 0.45h-0.004c-0.009 0-0.020 0-0.030 0-2.538 0-4.633-1.895-4.948-4.348l-0.003-0.025c-0.026-0.191-0.041-0.412-0.041-0.636 0-2.325 1.589-4.278 3.741-4.833l0.035-0.008c0.399-0.102 0.858-0.16 1.33-0.16 0.828 0 1.614 0.18 2.321 0.503l-0.035-0.014c1.052 0.482 1.78 1.26 2.008 2.118 0.248 0.928 0.174 1.94-0.168 2.55-0.196 0.352-0.806 0.708-1.23 0.852v-1c0-1.646-1.354-3-3-3-1.644 0-3 1.354-3 3 0 1.644 1.356 3 3 3 0.352 0 0.686-0.074 1-0.188v0.090l0.9 0.094c1.882 0.192 3.384-0.634 4.077-1.872 0.694-1.236 0.71-2.714 0.356-4.043-0.416-1.568-1.64-2.744-3.108-3.418-0.913-0.427-1.983-0.676-3.112-0.676-0.191 0-0.38 0.007-0.568 0.021l0.025-0.002zM15.002 16.002c0.564 0 1 0.436 1 1s-0.436 1-1 1c-0.004 0-0.009 0-0.014 0-0.545 0-0.986-0.442-0.986-0.986 0-0.005 0-0.010 0-0.015v0.001c0-0.564 0.436-1 1-1z"></path>
<path d="M24.004 0.010v3.995h-4.001v3.993h4.001v3.995h4.001v-3.995h4.001v-3.993h-4.001v-3.995z"></path>
</svg>
