<!-- Generated by IcoMoon.io -->
<svg version="1.1" xmlns="http://www.w3.org/2000/svg" width="32" height="32" viewBox="0 0 32 32">
<title>airplane-mode</title>
<path d="M12.996 2c-1.588 0.002-1.562 0.066-1.064 2.062l3.251 9.94h-9.001l-2.436-3.563c-0.28-0.42-0.246-0.438-0.688-0.438h-0.438c-0.856 0-0.562 0.876-0.562 0.876l0.562 5.125-0.562 5.127s-0.28 0.874 0.5 0.874h0.5c0.422 0 0.408-0.018 0.688-0.438l2.436-3.563h9.001l-3.251 9.877c-0.522 2.090-0.528 2.124 1.064 2.124 0.864 0 0.866-0.024 1.436-1l7.377-11.002h6.189c1.108 0 2-0.892 2-2s-0.892-2-2-2h-6.189l-7.377-11.002c-0.532-0.914-0.566-0.996-1.312-1z"></path>
</svg>
