<!-- Generated by IcoMoon.io -->
<svg version="1.1" xmlns="http://www.w3.org/2000/svg" width="32" height="32" viewBox="0 0 32 32">
<title>airplane-mode</title>
<path d="M12.993 2c-1.588 0.002-1.561 0.067-1.063 2.063l3.25 9.938h-9l-2.438-3.563c-0.279-0.418-0.245-0.437-0.688-0.438h-0.438c-0.855 0-0.563 0.875-0.563 0.875l0.563 5.125-0.563 5.125c0 0-0.28 0.875 0.5 0.875h0.5c0.423 0 0.408-0.018 0.688-0.438l2.438-3.563h9l-3.25 9.875c-0.523 2.094-0.529 2.125 1.063 2.125 0.864 0 0.868-0.023 1.438-1l7.375-11h6.188c1.108 0 2-0.892 2-2s-0.892-2-2-2h-6.188l-7.375-11c-0.533-0.914-0.567-0.996-1.313-1z"></path>
</svg>
