<!-- Generated by IcoMoon.io -->
<svg version="1.1" xmlns="http://www.w3.org/2000/svg" width="32" height="32" viewBox="0 0 32 32">
<title>alarm</title>
<path d="M14.976 11.977c-0.545 0.009-0.984 0.453-0.984 0.999 0 0.006 0 0.011 0 0.017v-0.001 4.997h-2.998c-0.552 0-0.999 0.447-0.999 0.999s0.447 0.999 0.999 0.999v0h3.998c0.552 0 0.999-0.447 0.999-0.999v0-5.996c0-0.005 0-0.010 0-0.016 0-0.552-0.447-0.999-0.999-0.999-0.006 0-0.011 0-0.017 0h0.001z"></path>
<path d="M14.968 6.124c-7.116 0-12.926 5.816-12.926 12.932s5.811 12.924 12.926 12.924c7.116 0 12.926-5.811 12.926-12.926s-5.811-12.93-12.926-12.93zM14.968 10.088c0.009-0 0.019-0 0.030-0 4.934 0 8.935 4 8.935 8.935 0 0.011-0 0.023-0 0.034v-0.002c0 0.009 0 0.019 0 0.030 0 4.934-4 8.935-8.935 8.935-0.011 0-0.021-0-0.032-0h0.002c-0.008 0-0.018 0-0.028 0-4.934 0-8.935-4-8.935-8.935 0-0.011 0-0.021 0-0.032v0.002c-0-0.009-0-0.021-0-0.032 0-4.934 4-8.935 8.935-8.935 0.010 0 0.020 0 0.030 0h-0.002z"></path>
<path d="M8.558 1.999c-3.618 0.009-6.549 2.94-6.558 6.557v0.001c0 0.809 0.168 1.533 0.438 2.249 2.411-3.642 6.364-6.2 10.929-6.682-1.195-1.306-2.907-2.122-4.809-2.125h-0zM21.426 1.999c-1.905 0-3.616 0.825-4.809 2.125 4.594 0.532 8.506 3.063 10.894 6.687l0.035 0.057c0.277-0.682 0.438-1.474 0.438-2.303 0-0.002 0-0.004 0-0.006v0c-0.008-3.619-2.939-6.551-6.557-6.56h-0.001z"></path>
<path d="M8.236 25.776c-0.541 0.009-1.028 0.231-1.383 0.586v0l-2.249 2.187c-0.382 0.365-0.62 0.878-0.62 1.447 0 1.104 0.895 1.999 1.999 1.999 0.549 0 1.046-0.221 1.408-0.58l-0 0 2.249-2.187c0.386-0.365 0.627-0.881 0.627-1.453 0-1.104-0.895-1.999-1.999-1.999-0.012 0-0.023 0-0.035 0l0.002-0zM22.054 25.964c-1.060 0.055-1.898 0.928-1.898 1.996 0 0.529 0.205 1.009 0.54 1.367l-0.001-0.001 1.813 1.999c0.369 0.428 0.912 0.698 1.518 0.698 1.104 0 1.999-0.895 1.999-1.999 0-0.538-0.213-1.027-0.559-1.386l0.001 0.001-1.811-1.999c-0.368-0.417-0.904-0.678-1.5-0.678-0.035 0-0.069 0.001-0.104 0.003l0.005-0z"></path>
</svg>
