<!-- Generated by IcoMoon.io -->
<svg version="1.1" xmlns="http://www.w3.org/2000/svg" width="32" height="32" viewBox="0 0 32 32">
<title>alarm</title>
<path d="M14.748 11.948c-0.464 0.091-0.809 0.494-0.809 0.978 0 0.006 0 0.012 0 0.018v-0.001 4.978h-2.987c-0.004-0-0.009-0-0.014-0-0.55 0-0.996 0.446-0.996 0.996s0.446 0.996 0.996 0.996c0.005 0 0.010-0 0.015-0h3.982c0.55-0 0.996-0.446 0.996-0.996v0-5.974c0-0.005 0-0.011 0-0.018 0-0.55-0.446-0.996-0.996-0.996-0.066 0-0.131 0.006-0.193 0.019l0.006-0.001z"></path>
<path d="M14.884 6.098c-7.089 0-12.831 5.803-12.831 12.892s5.741 12.892 12.831 12.892c7.089 0 12.892-5.803 12.892-12.892s-5.803-12.892-12.892-12.892zM14.884 10.046c4.956 0 8.945 3.989 8.945 8.944s-3.989 8.945-8.944 8.945c-4.956 0-8.883-3.989-8.883-8.944s3.927-8.944 8.883-8.944z"></path>
<path d="M8.525 1.991c-3.597 0-6.534 2.937-6.534 6.534 0 0.806 0.168 1.528 0.436 2.24 2.402-3.629 6.34-6.178 10.89-6.659-1.19-1.294-2.895-2.116-4.792-2.116zM21.344 1.991c-1.897 0-3.601 0.821-4.792 2.116 4.555 0.5 8.504 3.069 10.89 6.721 0.282-0.728 0.436-1.475 0.436-2.302 0-3.597-2.937-6.534-6.534-6.534z"></path>
<path d="M7.778 25.701c-0.37 0.102-0.686 0.297-0.932 0.559l-0.001 0.001-2.24 2.178c-0.472 0.368-0.773 0.936-0.773 1.575 0 1.1 0.892 1.992 1.992 1.992 0.608 0 1.152-0.272 1.517-0.701l0.002-0.003 2.24-2.178c0.412-0.367 0.671-0.898 0.671-1.491 0-1.1-0.892-1.992-1.992-1.992-0.172 0-0.339 0.022-0.498 0.063l0.014-0.003z"></path>
<path d="M21.779 25.887c-0.963 0.151-1.691 0.975-1.691 1.969 0 0.512 0.193 0.978 0.51 1.331l-0.002-0.002 1.805 1.991c0.367 0.494 0.948 0.81 1.604 0.81 1.1 0 1.992-0.892 1.992-1.992 0-0.562-0.233-1.070-0.607-1.432l-0.001-0.001-1.805-1.991c-0.368-0.432-0.912-0.705-1.52-0.705-0.1 0-0.199 0.007-0.295 0.022l0.011-0.001z"></path>
</svg>
