<!-- Generated by IcoMoon.io -->
<svg version="1.1" xmlns="http://www.w3.org/2000/svg" width="32" height="32" viewBox="0 0 32 32">
<title>application-rssxml</title>
<path d="M12.002 24.003c0 2.209-1.791 4.001-4.001 4.001s-4.001-1.791-4.001-4.001v0c0-2.209 1.791-4.001 4.001-4.001s4.001 1.791 4.001 4.001v0z"></path>
<path d="M4.001 4v2c0 1.101 0.907 2 2 2 9.943 0 18.003 8.060 18.003 18.003 0 1.101 0.907 2 2 2h2v-2c0-12.152-9.851-22.003-22.003-22.003h-2zM4.001 12.002v2c0 1.101 0.907 2 2 2 5.524 0 10.002 4.478 10.002 10.002 0 1.101 0.907 2 2 2h2v-2c0-7.733-6.269-14.002-14.002-14.002h-2z"></path>
</svg>
