<!-- Generated by IcoMoon.io -->
<svg version="1.1" xmlns="http://www.w3.org/2000/svg" width="32" height="32" viewBox="0 0 32 32">
<title>application-rssxml</title>
<path d="M12.002 24.004c0 2.209-1.791 4.001-4.001 4.001v0c-2.209 0-4.001-1.791-4.001-4.001v0c0-2.209 1.791-4.001 4.001-4.001v0c2.209 0 4.001 1.791 4.001 4.001v0z"></path>
<path d="M4.001 12.002h2.028v2.028h-2.028zM18.031 26.032h1.972v1.972h-1.972zM26.032 26.032h1.972v1.972h-1.972zM4.001 4.001h2.028v2.028h-2.028z"></path>
<path d="M6.029 16.030c5.549 0 10.001 4.455 10.001 10.002h4.001c0-7.709-6.291-14.002-14.002-14.002z"></path>
<path d="M6.029 8.057c0.009-0 0.019-0 0.030-0 9.912 0 17.947 8.035 17.947 17.947 0 0.010 0 0.020-0 0.030v-0.002h4.001c-0.002-12.11-9.863-21.975-21.977-21.975z"></path>
<path d="M8.001 14.002c0 1.105-0.896 2-2 2v0c-1.105 0-2-0.896-2-2v0c0-1.105 0.896-2 2-2v0c1.105 0 2 0.896 2 2v0zM8.001 6.001c0 1.105-0.896 2-2 2v0c-1.105 0-2-0.896-2-2v0c0-1.105 0.896-2 2-2v0c1.105 0 2 0.896 2 2v0zM20.003 26.004c0 1.105-0.896 2-2 2v0c-1.105 0-2-0.896-2-2v0c0-1.105 0.896-2 2-2v0c1.105 0 2 0.896 2 2v0zM28.004 26.004c0 1.105-0.896 2-2 2v0c-1.105 0-2-0.896-2-2v0c0-1.105 0.896-2 2-2v0c1.105 0 2 0.896 2 2v0z"></path>
</svg>
