<!-- Generated by IcoMoon.io -->
<svg version="1.1" xmlns="http://www.w3.org/2000/svg" width="32" height="32" viewBox="0 0 32 32">
<title>applications-multimedia</title>
<path d="M18.003 16.002v8.564c-0.589-0.342-1.27-0.563-2-0.563-2.209 0-4.001 1.791-4.001 4.001s1.791 4.001 4.001 4.001c2.209 0 4.001-1.791 4.001-4.001v-10.001h8.001v6.563c-0.589-0.342-1.27-0.563-2-0.563-2.209 0-4.001 1.791-4.001 4.001s1.791 4.001 4.001 4.001c2.209 0 4.001-1.791 4.001-4.001v-12.002h-12.002z"></path>
<path d="M3.938 0c0 0-1.938 2-1.938 4.001v24.004c0 2.019-2 4.001-2 4.001h2c0 0 0.846-0.854 1.438-2h2c-0.592 1.146-1.438 2-1.438 2h2c0 0 2-2.043 2-4.001v-4.001h2v-2h-2v-10.001h16.002v2h6.001v-10.001c0-2 1.938-4.001 1.938-4.001h-6.001c0 0-1.938 2-1.938 4.001v6.001h-16.002v-6.001c0-2 1.938-4.001 1.938-4.001zM4.564 2h2c-0.306 0.612-0.563 1.304-0.563 2h-2c0-0.696 0.257-1.389 0.563-2zM26.567 2h2c-0.306 0.612-0.563 1.304-0.563 2h-2c0-0.696 0.257-1.389 0.563-2zM4.001 6.001h2v2h-2zM26.004 6.001h2v2h-2zM4.001 10.002h2v2h-2zM26.004 10.002h2v2h-2zM4.001 14.002h2v2h-2zM4.001 18.003h2v2h-2zM4.001 22.003h2v2h-2zM4.001 26.004h2v2h-2z"></path>
</svg>
