<!-- Generated by IcoMoon.io -->
<svg version="1.1" xmlns="http://www.w3.org/2000/svg" width="32" height="32" viewBox="0 0 32 32">
<title>application-x-appliance</title>
<path d="M7.995 3.998c0 2.208-1.79 3.998-3.998 3.998v0c-2.208 0-3.998-1.79-3.998-3.998v0c0-2.208 1.79-3.998 3.998-3.998v0c2.208 0 3.998 1.79 3.998 3.998v0zM7.995 27.983c0 2.208-1.79 3.998-3.998 3.998v0c-2.208 0-3.998-1.79-3.998-3.998v0c0-2.208 1.79-3.998 3.998-3.998v0c2.208 0 3.998 1.79 3.998 3.998v0zM31.981 27.983c0 2.208-1.79 3.998-3.998 3.998v0c-2.208 0-3.998-1.79-3.998-3.998v0c0-2.208 1.79-3.998 3.998-3.998v0c2.208 0 3.998 1.79 3.998 3.998v0zM31.981 3.998c0 2.208-1.79 3.998-3.998 3.998v0c-2.208 0-3.998-1.79-3.998-3.998v0c0-2.208 1.79-3.998 3.998-3.998v0c2.208 0 3.998 1.79 3.998 3.998v0z"></path>
<path d="M1.999 1.999v27.983h27.983v-27.983zM5.996 5.996h19.988v19.988h-19.988z"></path>
<path d="M9.994 9.994v11.993h11.993v-11.993zM11.993 11.993h7.995v7.995h-7.995z"></path>
<path d="M23.986 20.987c0 1.656-1.342 2.998-2.998 2.998v0c-1.656 0-2.998-1.342-2.998-2.998v0c0-1.656 1.342-2.998 2.998-2.998v0c1.656 0 2.998 1.342 2.998 2.998v0zM13.992 20.987c0 1.656-1.342 2.998-2.998 2.998v0c-1.656 0-2.998-1.342-2.998-2.998v0c0-1.656 1.342-2.998 2.998-2.998v0c1.656 0 2.998 1.342 2.998 2.998v0zM13.992 11.025c-0.002 1.672-1.344 3.026-2.998 3.026 0 0 0 0 0 0v0c-1.654 0-2.996-1.354-2.998-3.026v-0c0-1.674 1.342-3.030 2.998-3.030v0c1.656 0 2.998 1.357 2.998 3.030v0zM23.986 10.993c0 1.656-1.342 2.998-2.998 2.998v0c-1.656 0-2.998-1.342-2.998-2.998v0c0-1.656 1.342-2.998 2.998-2.998v0c1.656 0 2.998 1.342 2.998 2.998v0z"></path>
<path d="M21.695 20.28l-1.415 1.415 6.996 6.996 1.415-1.415zM10.286 20.28l-6.996 6.996 1.415 1.415 6.996-6.996zM27.316 3.384l-6.996 6.936 1.405 1.419 6.996-6.934zM4.801 3.388l-1.413 1.413 6.846 6.844 1.413-1.413z"></path>
</svg>
