<!-- Generated by IcoMoon.io -->
<svg version="1.1" xmlns="http://www.w3.org/2000/svg" width="32" height="32" viewBox="0 0 32 32">
<title>application-exit</title>
<path d="M32.005 10.002v2c0 0.514-0.26 1.057-0.625 1.438l-2.563 2.563 2.563 2.563c0.365 0.381 0.625 0.924 0.625 1.438v2h-2c-0.619 0-1.105-0.181-1.5-0.563l-5.313-5.438 5.313-5.438c0.395-0.382 0.881-0.563 1.5-0.563h2z"></path>
<path d="M2 2v28.004h20.003v-28.004h-20.003zM16.002 6.001h2v20.003h-12.002l10.002-6.001v-14.002zM10.002 10.002h4.001v2h-4.001v-2z"></path>
</svg>
