<!-- Generated by IcoMoon.io -->
<svg version="1.1" xmlns="http://www.w3.org/2000/svg" width="32" height="32" viewBox="0 0 32 32">
<title>application-x-appliance</title>
<path d="M8.052 4.088c0 2.223-1.802 4.026-4.026 4.026s-4.026-1.802-4.026-4.026v0c0-2.223 1.802-4.026 4.026-4.026s4.026 1.802 4.026 4.026v0z"></path>
<path d="M8.052 27.931c0 2.223-1.802 4.026-4.026 4.026s-4.026-1.802-4.026-4.026v0c0-2.223 1.802-4.026 4.026-4.026s4.026 1.802 4.026 4.026v0z"></path>
<path d="M32.019 27.931c0 2.223-1.802 4.026-4.026 4.026s-4.026-1.802-4.026-4.026v0c0-2.223 1.802-4.026 4.026-4.026s4.026 1.802 4.026 4.026v0z"></path>
<path d="M32.019 4.026c0 2.223-1.802 4.026-4.026 4.026s-4.026-1.802-4.026-4.026v0c0-2.223 1.802-4.026 4.026-4.026s4.026 1.802 4.026 4.026v0z"></path>
<path d="M2.122 2.122v27.9h27.9v-27.9h-27.9zM6.116 6.117h19.911v19.911h-19.911v-19.911z"></path>
<path d="M9.924 10.049v11.984h12.109v-11.984h-12.109zM11.921 12.046h8.114v7.989h-8.114v-7.989z"></path>
<path d="M24.030 21.003c0 1.672-1.355 3.027-3.027 3.027s-3.027-1.355-3.027-3.027v0c0-1.672 1.355-3.027 3.027-3.027s3.027 1.355 3.027 3.027v0z"></path>
<path d="M14.043 21.003c0 1.672-1.355 3.027-3.027 3.027s-3.027-1.355-3.027-3.027v0c0-1.672 1.355-3.027 3.027-3.027s3.027 1.355 3.027 3.027v0z"></path>
<path d="M14.043 11.079c0 1.672-1.355 3.027-3.027 3.027s-3.027-1.355-3.027-3.027v0c0-1.672 1.355-3.027 3.027-3.027s3.027 1.355 3.027 3.027v0z"></path>
<path d="M24.155 11.079c0 1.672-1.355 3.027-3.027 3.027s-3.027-1.355-3.027-3.027v0c0-1.672 1.355-3.027 3.027-3.027s3.027 1.355 3.027 3.027v0z"></path>
<path d="M21.72 20.41l-1.373 1.373 6.803 6.866 1.436-1.436-6.866-6.803z"></path>
<path d="M11.172 20.41l-6.803 6.803 1.373 1.436 6.866-6.866-1.436-1.373z"></path>
<path d="M27.15 4.431l-6.803 6.803 1.373 1.436 6.866-6.866-1.436-1.373z"></path>
<path d="M5.742 4.431l-1.373 1.373 6.803 6.866 1.436-1.436-6.866-6.803z"></path>
</svg>
