<!-- Generated by IcoMoon.io -->
<svg version="1.1" xmlns="http://www.w3.org/2000/svg" width="32" height="32" viewBox="0 0 32 32">
<title>application-x-executable</title>
<path d="M16.002 1.938c-0.511 0-1.046 0.171-1.438 0.563l-12.064 12.064c-0.784 0.784-0.784 2.092 0 2.875l8.689 8.689 2-1.063c-0.034-0.336-0.062-0.655-0.062-1s0.028-0.664 0.062-1l-3.688-2c0.195-0.89 0.457-1.745 0.813-2.563l4.188 0.563c0.339-0.58 0.743-1.127 1.188-1.625l-1.813-3.813c0.671-0.597 1.348-1.165 2.125-1.625l3.063 2.938c0.611-0.273 1.269-0.478 1.938-0.625l0.813-4.188c0.431-0.040 0.871-0.062 1.313-0.062s0.882 0.023 1.313 0.062l0.813 4.188c0.669 0.147 1.326 0.352 1.938 0.625l1.375-1.313-11.127-11.127c-0.392-0.392-0.926-0.563-1.438-0.563zM23.128 18.065c-3.314 0-6.001 2.687-6.001 6.001 0 1.594 0.612 3.051 1.625 4.126l8.501-8.501c-1.075-1.014-2.532-1.625-4.126-1.625zM14.502 29.067l-0.313 0.062 0.375 0.375c0.121 0.121 0.297 0.166 0.438 0.25-0.168-0.236-0.354-0.438-0.5-0.688z"></path>
</svg>
