<!-- Generated by IcoMoon.io -->
<svg version="1.1" xmlns="http://www.w3.org/2000/svg" width="32" height="32" viewBox="0 0 32 32">
<title>applications-utilities</title>
<path d="M5.869 0h0.264c3.253 0 5.869 2.664 5.869 5.973v20.059c0 3.308-2.616 5.973-5.869 5.973h-0.264c-3.252 0-5.869-2.664-5.869-5.973v-20.059c0-3.308 2.616-5.973 5.869-5.973zM11.058 0c1.756 1.428 2.938 3.587 2.938 6.001v2h4.251c-0.15-2.184 2.496-4.001 4.001-4.001 1.36 0 2 0.024 2 2v2h2.436c2.458-1.2 3.565-3.939 3.565-5.375 0-1.472-4.773-2.624-7.377-2.624zM14.002 10.002v8.627c5.533 5.325 12.252 4.813 12.252 4.813s0.706-3.040-3.813-8.061l-4.751-5.379h-3.563c-0.046 0.006-0.086-0.002-0.126 0zM19.953 15.066l3.37 3.477c-3.601 0.332-4.303-1.712-3.369-3.475z"></path>
</svg>
