<!-- Generated by IcoMoon.io -->
<svg version="1.1" xmlns="http://www.w3.org/2000/svg" width="32" height="32" viewBox="0 0 32 32">
<title>application-x-executable</title>
<path d="M14.378 4.563c-0.188 0.112-0.384 0.25-0.58 0.38l-2.664 2.664c1.285 0.494 2.18 1.719 2.18 3.152 0 1.86-1.508 3.369-3.369 3.369-1.433 0-2.657-0.895-3.144-2.157l-0.008-0.023-2.128 2.128c1.012-0.138 2.034-0.272 2.4 0.052 0.484 0.428 0.278 2.062 0.31 3.312 0.426 0.176 0.854 0.342 1.314 0.438 0.080 0.016 0.17-0.014 0.25 0 0.674-1.050 1.366-2.576 2-2.688 0.644-0.114 1.81 1.124 2.812 1.874 0.474-0.262 0.91-0.58 1.312-0.936-0.39-1.19-1.188-2.738-0.874-3.314 0.316-0.58 2.038-0.74 3.251-1.062 0.056-0.366 0.124-0.742 0.124-1.124 0-0.15-0.054-0.292-0.062-0.44-1.174-0.434-2.87-0.77-3.124-1.374-0.256-0.604 0.68-2.042 1.186-3.186-0.354-0.393-0.743-0.743-1.165-1.049l-0.021-0.015zM22.129 11.064c-0.33 0.95-0.61 2.172-0.94 3.126-0.86 0.094-1.68 0.28-2.436 0.624-0.76-0.644-1.574-1.546-2.312-2.186-0.524 0.304-0.974 0.613-1.398 0.953l0.022-0.017c0.354 0.92 0.906 2.002 1.25 2.938-0.596 0.618-1.062 1.34-1.438 2.126-0.988 0-2.204-0.168-3.186-0.188-0.18 0.518-0.336 1.076-0.438 1.624 0.87 0.48 2.012 0.936 2.876 1.44-0.012 0.186-0.064 0.37-0.064 0.56 0 0.666 0.098 1.32 0.25 1.94-0.764 0.608-1.796 1.26-2.56 1.874 0.030 0.088 0.080 0.166 0.116 0.254l1.226 1.226c0.834-0.2 1.736-0.446 2.532-0.606 0.496 0.686 1.064 1.252 1.75 1.75-0.054 0.27-0.136 0.566-0.208 0.856 0.348-0.126 0.68-0.31 0.964-0.594l2.864-2.864c-1.709-0.476-2.941-2.018-2.941-3.849 0-2.203 1.786-3.989 3.989-3.989 0.007 0 0.013 0 0.020 0h-0.001c1.838 0 3.369 1.246 3.837 2.934l2.676-2.676c0.12-0.12 0.22-0.248 0.312-0.382-0.070-0.124-0.12-0.26-0.2-0.376 0.192-0.304 0.41-0.62 0.63-0.94 0.034-0.696-0.2-1.4-0.74-1.942l-0.354-0.352c-0.56 0.384-1.122 0.774-1.66 1.11-0.69-0.466-1.492-0.766-2.312-1-0.154-1.014-0.214-2.264-0.374-3.251-0.497-0.080-1.070-0.126-1.654-0.126-0.034 0-0.068 0-0.101 0l0.005-0zM3.633 12.28c-0.174 0.136-0.346 0.276-0.508 0.41l0.028 0.070z"></path>
<path d="M17.417 0.586c-0.362-0.362-0.862-0.587-1.415-0.587s-1.053 0.224-1.415 0.587l-14 14.002c-0.361 0.362-0.585 0.861-0.585 1.413s0.223 1.051 0.585 1.413l14.002 14.004c0.362 0.362 0.862 0.587 1.415 0.587s1.053-0.224 1.415-0.587l14.002-14.002c0.361-0.362 0.585-0.861 0.585-1.413s-0.223-1.051-0.585-1.413l0 0zM16 4.829l11.176 11.176-11.174 11.172-11.174-11.176z"></path>
</svg>
