<!-- Generated by IcoMoon.io -->
<svg version="1.1" xmlns="http://www.w3.org/2000/svg" width="32" height="32" viewBox="0 0 32 32">
<title>application-x-firmware</title>
<path d="M11.031 12.029c-1.644 0-3.001 1.356-3.001 3.001 0 1.646 1.356 3.001 3.001 3.001 1.646 0 3.001-1.354 3.001-3.001 0-1.644-1.354-3.001-3.001-3.001zM11.031 14.030c0.564 0 1 0.436 1 1s-0.436 1-1 1c-0.004 0-0.009 0-0.014 0-0.545 0-0.986-0.442-0.986-0.986 0-0.005 0-0.010 0-0.015v0.001c0-0.564 0.436-1 1-1zM1.028 20.032v2.001h2.427l3.501 6.002h4.075v-2.001h-2.927l-3.501-6.002zM29.036 18.031c-1.644 0-3.001 1.356-3.001 3.001 0 1.646 1.356 3.001 3.001 3.001 1.646 0 3.001-1.354 3.001-3.001 0-1.644-1.354-3.001-3.001-3.001zM29.036 20.032c0.564 0 1 0.436 1 1s-0.436 1-1 1c-0.004 0-0.009 0-0.014 0-0.545 0-0.986-0.442-0.986-0.986 0-0.005 0-0.010 0-0.015v0.001c0-0.564 0.436-1 1-1z"></path>
<path d="M1.028 14.030v2.001h2.427l3.501 6.002h19.579v-2.001h-18.431l-3.501-6.002zM1.028 8.028v2.001h6.010l2.087 3.345 1.696-1.062-2.673-4.281zM5.089 2.035v2.001l5.375 0.004 1.21 2.005 1.712-1.032-1.794-2.973z"></path>
<path d="M22.898 20.528l-1.726 1.008 2.251 3.877 1.726-1.008zM16.901 20.532l-1.734 1 2.313 4.001 1.734-1zM10.929 20.594l-1.796 0.876 1.939 4.001 1.796-0.876z"></path>
<path d="M18.033 0.026v2.001h-2.001v2.001h-2.001v2.001h2.001v2.001h-2.001v2.001h2.001v2.001h-2.001v2.001h2.001v2.001h2.001v2.001h2.001v-2.001h2.001v2.001h2.001v-2.001h2.001v2.001h2.001v-2.001h2.001v-2.001h2.001v-2.001h-2.001v-2.001h2.001v-2.001h-2.001v-2.001h2.001v-2.001h-2.001v-2.001h-2.001v-2.001h-2.001v2.001h-2.001v-2.001h-2.001v2.001h-2.001v-2.001z"></path>
<path d="M25.035 24.033c-1.644 0-3.001 1.356-3.001 3.001 0 1.646 1.356 3.001 3.001 3.001 1.646 0 3.001-1.354 3.001-3.001 0-1.644-1.354-3.001-3.001-3.001zM25.035 26.033c0.564 0 1 0.436 1 1s-0.436 1-1 1c-0.004 0-0.009 0-0.014 0-0.545 0-0.986-0.442-0.986-0.986 0-0.005 0-0.010 0-0.015v0.001c0-0.564 0.436-1 1-1zM19.033 24.033c-1.644 0-3.001 1.356-3.001 3.001 0 1.646 1.356 3.001 3.001 3.001 1.646 0 3.001-1.354 3.001-3.001 0-1.644-1.354-3.001-3.001-3.001zM19.033 26.033c0.564 0 1 0.436 1 1s-0.436 1-1 1c-0.004 0-0.009 0-0.014 0-0.545 0-0.986-0.442-0.986-0.986 0-0.005 0-0.010 0-0.015v0.001c0-0.564 0.436-1 1-1zM13.032 24.033c-1.644 0-3.001 1.356-3.001 3.001 0 1.646 1.356 3.001 3.001 3.001 1.646 0 3.001-1.354 3.001-3.001 0-1.644-1.354-3.001-3.001-3.001zM13.032 26.033c0.564 0 1 0.436 1 1s-0.436 1-1 1c-0.004 0-0.009 0-0.014 0-0.545 0-0.986-0.442-0.986-0.986 0-0.005 0-0.010 0-0.015v0.001c0-0.564 0.436-1 1-1zM3.029 0.026c-1.644 0-3.001 1.356-3.001 3.001 0 1.646 1.356 3.001 3.001 3.001 1.646 0 3.001-1.354 3.001-3.001 0-1.644-1.354-3.001-3.001-3.001zM3.029 2.027c0.564 0 1 0.436 1 1s-0.436 1-1 1c-0.004 0-0.009 0-0.014 0-0.545 0-0.986-0.442-0.986-0.986 0-0.005 0-0.010 0-0.015v0.001c0-0.564 0.436-1 1-1z"></path>
</svg>
