<!-- Generated by IcoMoon.io -->
<svg version="1.1" xmlns="http://www.w3.org/2000/svg" width="32" height="32" viewBox="0 0 32 32">
<title>applications-science</title>
<path d="M9.814 0.188c-1.015 0.105-1.8 0.956-1.8 1.99 0 0.756 0.42 1.415 1.039 1.755l0.010 0.005 0.938 0.5v5.501c-0.252 0.399-0.512 0.749-0.875 1.375-0.545 0.94-1.215 2.081-1.938 3.376-1.447 2.588-3.081 5.633-4.376 8.001-1.141 2.088-1.125 4.883 0.563 7.001 0.020 0.026 0.043 0.037 0.062 0.062 1.348 1.78 3.434 2.25 5.188 2.25h14.752c1.755 0 3.84-0.47 5.188-2.25 0.018-0.023 0.044-0.039 0.062-0.062 1.673-2.1 1.675-4.856 0.563-6.939-0.008-0.018 0.008-0.045 0-0.062-2.336-4.756-4.944-8.437-7.126-12.814v-5.376l1-0.563c0.62-0.348 1.032-1.001 1.032-1.75 0-1.105-0.896-2.001-2-2.001-0.011 0-0.022 0-0.033 0l0.002-0h-12.064c-0.028-0.001-0.061-0.002-0.094-0.002s-0.066 0.001-0.098 0.002l0.005-0zM14.002 4.189h4.063v6.251c-0 0.009-0 0.019-0 0.029 0 0.307 0.069 0.598 0.193 0.858l-0.005-0.012c2.404 4.915 5.152 8.642 7.376 13.189 0.025 0.054 0.045 0.095 0.068 0.135l-0.005-0.010c0.48 0.877 0.52 1.762-0.187 2.625-0.054 0.025-0.095 0.045-0.135 0.068l0.010-0.005c-0.289 0.396-0.919 0.688-2 0.688h-14.752c-1.081 0-1.711-0.291-2-0.688-0.030-0.017-0.071-0.038-0.113-0.057l-0.012-0.005c-0.708-0.863-0.667-1.748-0.187-2.625 1.292-2.363 2.941-5.434 4.376-8.001 0.717-1.283 1.411-2.405 1.938-3.313s0.947-1.678 1-1.75c0.227-0.313 0.366-0.702 0.375-1.123l0-0.002v-6.251z"></path>
<path d="M12.439 18.006l-4.438 7.999h16.002l-4.438-7.999h-7.126z"></path>
</svg>
