<!-- Generated by IcoMoon.io -->
<svg version="1.1" xmlns="http://www.w3.org/2000/svg" width="32" height="32" viewBox="0 0 32 32">
<title>applications-graphics</title>
<path d="M15.786 0.006c-4.221 0.060-9.892 1.604-9.795 6.561 0.1 5.175 5.835 3.325 6.301 5.439 0.070-0.090 0.176-0.164 0.25-0.25 0.394-0.428 0.79-0.776 1.186-1.188 0.624-0.704 1.272-1.358 1.934-2.062 2.212-2.356 2.308-2.5 7.593-6.501-2.070-1.24-4.517-1.93-6.595-2-0.268-0.008-0.592-0.002-0.874 0zM11.98 3.066c1.654 0 2.994 1.344 2.994 3-0.001 1.655-1.343 2.996-2.998 2.996s-2.998-1.342-2.998-2.998 1.342-2.998 2.998-2.998c0.001 0 0.003 0 0.004 0h-0zM26.52 4.391c-2.836 4.471-4.737 7.113-6.741 9.177-1.278 1.314-2.326 2.622-3.244 3.561-1.678 1.782-3.877 3.885-6.301 6.189 0.126 2.938 1.62 5.493 6.489 6.437 7.797 1.512 16.056-3.649 15.224-14.124-0.356-4.497-2.81-8.563-5.427-11.24zM27.204 12.006c1.105 0 2 0.896 2 2s-0.896 2-2 2v0c-1.105 0-2-0.896-2-2s0.896-2 2-2v0zM25.956 18.007c1.077 0.035 1.937 0.917 1.937 1.999s-0.86 1.964-1.934 1.999l-0.003 0c-1.105 0-2-0.896-2-2s0.896-2 2-2v0zM15.974 22.003c1.105 0 2 0.896 2 2s-0.896 2-2 2v0c-1.105 0-2-0.896-2-2s0.896-2 2-2v0zM21.963 22.003c1.105 0 2 0.896 2 2s-0.896 2-2 2v0c-1.105 0-2-0.896-2-2s0.896-2 2-2v0zM0 27.004c3.104 0 2.788-3.577 4.295-4.573 1.748-1.154 3.279 0.276 3.585 1.452 0.384 1.484-0.234 3.262-2.26 3.771-2.148 0.536-5.325 0.552-5.619-0.652z"></path>
<path d="M28.078 0.006c-3.601 2.598-8.413 6.605-12.232 10.668-0.346 0.37-0.68 0.726-1.008 1.094-0.208 0.216-0.424 0.392-0.63 0.616-0.132 0.154-0.252 0.326-0.38 0.48-3.747 4.141-7.441 9.361-9.835 13.266 5.957-4.595 9.833-8.331 12.296-10.942 0.48-0.492 1.060-1.134 1.7-1.846 2.408-2.67 5.853-6.877 10.089-13.336z"></path>
</svg>
