<!-- Generated by IcoMoon.io -->
<svg version="1.1" xmlns="http://www.w3.org/2000/svg" width="32" height="32" viewBox="0 0 32 32">
<title>appointment-soon</title>
<path d="M13.002 0c-7.157 0-13.002 5.845-13.002 13.002s5.845 13.002 13.002 13.002c0.34 0 0.666-0.036 1-0.062v-4.063c-0.334 0.036-0.654 0.124-1 0.124-0.009 0-0.020 0-0.030 0-4.955 0-8.971-4.017-8.971-8.971 0-0.011 0-0.021 0-0.032v0.002c0-4.995 4.007-9.001 9.001-9.001s9.001 4.007 9.001 9.001c0 0.346-0.088 0.666-0.126 1h4.065c0.026-0.334 0.062-0.66 0.062-1 0-7.157-5.845-13.002-13.002-13.002z"></path>
<path d="M12.986 5.985c-0.546 0.009-0.984 0.453-0.984 1 0 0.006 0 0.011 0 0.017v-0.001 5.001h-3c-0.552 0-1 0.448-1 1s0.448 1 1 1v0h4.001c0.552 0 1-0.448 1-1v0-6.001c0-0.005 0-0.010 0-0.016 0-0.552-0.448-1-1-1-0.006 0-0.011 0-0.017 0h0.001z"></path>
<path d="M17.753 16.142c-0.009-0-0.019-0-0.030-0-0.95 0-1.72 0.77-1.72 1.72 0 0.004 0 0.009 0 0.013v-0.001 12.392c-0 0.005-0 0.011-0 0.016 0 0.95 0.77 1.72 1.72 1.72 0.011 0 0.021-0 0.032-0l-0.002 0h12.502c0.009 0 0.020 0 0.030 0 0.95 0 1.72-0.77 1.72-1.72 0-0.006-0-0.011-0-0.017v0.001-12.39c0-0.005 0-0.011 0-0.016 0-0.95-0.77-1.72-1.72-1.72-0.011 0-0.021 0-0.032 0l0.002-0zM22.003 18.123h4.001v7.933h-4.001zM22.003 28.038h4.001v1.982h-4.001z"></path>
</svg>
