<!-- Generated by IcoMoon.io -->
<svg version="1.1" xmlns="http://www.w3.org/2000/svg" width="32" height="32" viewBox="0 0 32 32">
<title>appointment-missed</title>
<path d="M12.986 9.986c-0.546 0.009-0.984 0.453-0.984 1 0 0.006 0 0.011 0 0.017v-0.001 5.001h-3c-0.552 0-1 0.448-1 1s0.448 1 1 1v0h4.001c0.552 0 1-0.448 1-1v0-6.001c0-0.005 0-0.010 0-0.016 0-0.552-0.448-1-1-1-0.006 0-0.011 0-0.017 0h0.001z"></path>
<path d="M22.003 22.003h2.75l2.25 2.188 2.188-2.188h2.812v2.938l-2.188 2.124 2.188 2.126v2.812h-2.876l-2.124-2.126-2.126 2.126h-2.874v-2.812l2.124-2.126-2.124-2.122z"></path>
<path d="M13.002 4.001c-7.157 0-13.002 5.845-13.002 13.002s5.845 13.002 13.002 13.002c0.008 0 0.018 0 0.028 0 2.592 0 5.004-0.769 7.021-2.092l-0.049 0.030v-5.313c-1.646 2.064-4.16 3.375-6.98 3.375-0.008 0-0.015 0-0.023-0h0.001c-0.009 0-0.020 0-0.030 0-4.955 0-8.971-4.017-8.971-8.971 0-0.011 0-0.021 0-0.032v0.002c0-4.995 4.007-9.001 9.001-9.001s9.001 4.007 9.001 9.001c0 1.066-0.228 2.054-0.562 3h4.189c0.23-0.899 0.366-1.932 0.374-2.996l0-0.005c0-7.157-5.845-13.002-13.002-13.002z"></path>
</svg>
