<!-- Generated by IcoMoon.io -->
<svg version="1.1" xmlns="http://www.w3.org/2000/svg" width="32" height="32" viewBox="0 0 32 32">
<title>appointment-new</title>
<path d="M24.004 2v3.995h-4.001v3.993h4.001v3.995h4.001v-3.995h4.001v-3.993h-4.001v-3.995z"></path>
<path d="M12.986 11.986c-0.546 0.009-0.984 0.453-0.984 1 0 0.006 0 0.011 0 0.017v-0.001 5.001h-3c-0.552 0-1 0.448-1 1s0.448 1 1 1v0h4.001c0.552 0 1-0.448 1-1v0-6.001c0-0.005 0-0.010 0-0.016 0-0.552-0.448-1-1-1-0.006 0-0.011 0-0.017 0h0.001z"></path>
<path d="M13.002 6.001c-7.157 0-13.002 5.845-13.002 13.002s5.845 13.002 13.002 13.002 13.002-5.845 13.002-13.002c0-1.032-0.146-2.036-0.374-3h-4.189c0.334 0.946 0.562 1.934 0.562 3 0 4.995-4.007 9.001-9.001 9.001-0.009 0-0.020 0-0.030 0-4.955 0-8.971-4.017-8.971-8.971 0-0.011 0-0.021 0-0.032v0.002c0-4.995 4.007-9.001 9.001-9.001 1.864 0 3.581 0.54 5.001 1.5v-4.501c-1.47-0.632-3.181-1-4.978-1-0.008 0-0.016 0-0.024 0h0.001z"></path>
</svg>
