<!-- Generated by IcoMoon.io -->
<svg version="1.1" xmlns="http://www.w3.org/2000/svg" width="32" height="32" viewBox="0 0 32 32">
<title>appointment-missed</title>
<path d="M12.814 10.002c-0.466 0.091-0.813 0.496-0.813 0.983 0 0.006 0 0.012 0 0.019v-0.001 5.001h-3c-0.004-0-0.009-0-0.014-0-0.552 0-1 0.448-1 1s0.448 1 1 1c0.005 0 0.010-0 0.015-0h4c0.552-0 1-0.448 1-1v0-6.001c0-0.005 0-0.011 0-0.018 0-0.552-0.448-1-1-1-0.066 0-0.131 0.006-0.194 0.019l0.006-0.001z"></path>
<path d="M22.003 22.003h2.75l2.25 2.188 2.188-2.188h2.813v2.938l-2.188 2.125 2.188 2.125v2.813h-2.875l-2.125-2.125-2.125 2.125h-2.875v-2.813l2.125-2.125-2.125-2.125v-2.938z"></path>
<path d="M13.002 4.001c-7.157 0-13.002 5.845-13.002 13.002s5.845 13.002 13.002 13.002c2.583 0 4.971-0.751 7.001-2.063v-5.313c-1.642 2.055-4.143 3.375-7.001 3.375-4.995 0-9.001-4.006-9.001-9.001s4.006-9.001 9.001-9.001c4.995 0 9.001 4.006 9.001 9.001 0 1.066-0.228 2.055-0.563 3h4.188c0.23-0.964 0.375-1.969 0.375-3 0-7.157-5.845-13.002-13.002-13.002z"></path>
</svg>
