<!-- Generated by IcoMoon.io -->
<svg version="1.1" xmlns="http://www.w3.org/2000/svg" width="32" height="32" viewBox="0 0 32 32">
<title>audio-volume-high</title>
<path d="M0 10.002h4.969l5.941-6.001h1.092v24.004h-0.95l-6.081-6.001h-4.971z"></path>
<path d="M30.005 16.002c0-5.629-2-10.346-5.173-14.002h-2.828v2.96c2.53 3.040 4.001 6.441 4.001 11.042s-1.56 8.001-4.001 11.042v2.96h2.762c2.932-3.28 5.239-8.373 5.239-14.002z"></path>
<path d="M24.004 16.002c0-4.333-1.478-8.041-4.001-10.002h-2v4.001c1.214 1.578 2 3.521 2 6.001 0 2.482-0.786 4.441-2 6.001v4.001h2c2.446-1.99 4.001-5.747 4.001-10.002z"></path>
<path d="M18.003 16.002c0-2.514-0.624-4.433-2-6.001h-2v12.002h2c1.344-1.674 2-3.485 2-6.001z"></path>
</svg>
