<!-- Generated by IcoMoon.io -->
<svg version="1.1" xmlns="http://www.w3.org/2000/svg" width="32" height="32" viewBox="0 0 32 32">
<title>audio-card</title>
<path d="M25.797 1.999c-1.020 0.099-1.811 0.952-1.811 1.99 0 0.003 0 0.006 0 0.009v-0 25.984c-0 0.008-0 0.018-0 0.028 0 1.104 0.895 1.999 1.999 1.999s1.999-0.895 1.999-1.999c0-0.010-0-0.020-0-0.030l0 0.002v-23.986h1.999c0.008 0 0.018 0 0.028 0 1.104 0 1.999-0.895 1.999-1.999s-0.895-1.999-1.999-1.999c-0.010 0-0.020 0-0.030 0l0.002-0h-3.998c-0.028-0.001-0.061-0.002-0.094-0.002s-0.066 0.001-0.098 0.002l0.005-0z"></path>
<path d="M25.984 11.993v5.996h5.996v-5.996h-5.996zM27.983 13.992h1.999v1.999h-1.999v-1.999z"></path>
<path d="M25.984 19.988v5.996h5.996v-5.996h-5.996zM27.983 21.987h1.999v1.999h-1.999v-1.999z"></path>
<path d="M0 7.995v23.986h19.988v-3.998h1.999v-3.998h-5.996v3.998h-11.993v-15.99h5.996v-3.998h-9.994z"></path>
<path d="M11.993 1.999l9.994 7.995h-5.997v9.057h-3.998z"></path>
<path d="M15.981 18.998c0 2.754-2.233 4.987-4.987 4.987s-4.987-2.233-4.987-4.987v0c0-2.754 2.233-4.987 4.987-4.987s4.987 2.233 4.987 4.987v0z"></path>
</svg>
