<!-- Generated by IcoMoon.io -->
<svg version="1.1" xmlns="http://www.w3.org/2000/svg" width="32" height="32" viewBox="0 0 32 32">
<title>audio-headset</title>
<path d="M15.939 0.001c-6.613 0-12.049 6.017-11.939 11.439 0.124 6.045 1.868 9.391 2.25 10.563h2.8c-2.32-4.584-2.096-10.313-2.096-10.313 0-4.746 4.014-8.627 8.987-8.627 4.97 0 9.001 3.84 8.985 8.751-0.048 3.348-0.344 4.568-2.012 9.627h3.142c0.45-1.29 1.948-4.132 1.948-9.813-0.002-5.66-5.454-11.627-12.065-11.627z"></path>
<path d="M25.202 14.12c-1.68-0.468-3.532 0.736-4.158 2.702l-0.852 2.686c-0.624 1.966 0.224 3.926 1.902 4.394 1.68 0.468 3.532-0.736 4.156-2.702l0.852-2.686c0.626-1.966-0.224-3.926-1.9-4.394zM6.905 14.122c1.68-0.47 3.532 0.736 4.156 2.7l0.854 2.686c0.624 1.966-0.224 3.926-1.902 4.394-1.68 0.47-3.532-0.736-4.156-2.7l-0.856-2.69c-0.624-1.966 0.224-3.926 1.902-4.394z"></path>
<path d="M18.008 26.003h0.032c1.1 0 1.984 0.894 1.984 2 0 1.11-0.884 2-1.984 2h-0.032c-1.096-0.002-1.984-0.892-1.984-1.988 0-0.004 0-0.008 0-0.013v0.001c0-1.106 0.886-2 1.984-2z"></path>
<path d="M25.392 18.813c-0.534 0.023-0.959 0.461-0.959 0.999 0 0.431 0.272 0.798 0.654 0.939l0.007 0.002 2.904 1.072-0.036 3.492c-0.010 1.064-0.292 1.716-0.644 2.106-0.354 0.39-0.808 0.58-1.44 0.58h-7.849c-0.552 0-1 0.448-1 1s0.448 1 1 1v0h7.845c1.096 0 2.174-0.406 2.926-1.236s1.148-2.014 1.16-3.434l0.048-4.9-4.224-1.554c-0.106-0.042-0.23-0.067-0.359-0.067-0.012 0-0.025 0-0.037 0.001l0.002-0z"></path>
</svg>
