<!-- Generated by IcoMoon.io -->
<svg version="1.1" xmlns="http://www.w3.org/2000/svg" width="32" height="32" viewBox="0 0 32 32">
<title>audio-headphones</title>
<path d="M8.128 18.171l-0.302 0.088c1.975-0.577 4.061 0.551 4.658 2.52l1.35 4.453c0.597 1.969-0.52 4.034-2.495 4.611l0.302-0.088c-1.975 0.577-4.061-0.551-4.658-2.52l-1.35-4.453c-0.597-1.969 0.52-4.034 2.495-4.611z"></path>
<path d="M15.94 2c-6.612 0-12.050 6.018-11.939 11.439 0.096 4.732 1.617 9.392 2 10.564 3.167 0 0 0 3.051 0-2.323-4.584-2.098-10.314-2.098-10.314 0-4.746 4.014-8.626 8.986-8.626s9.001 3.654 8.986 8.564c-0.047 3.349-0.343 5.318-2.011 10.377h3.142c0.449-1.289 1.948-6.382 1.948-10.564 0-5.66-5.453-11.439-12.065-11.439z"></path>
<path d="M23.877 18.236l0.302 0.088c-1.975-0.577-4.061 0.551-4.658 2.52l-1.35 4.453c-0.597 1.969 0.52 4.034 2.495 4.611l-0.302-0.088c1.975 0.577 4.061-0.551 4.658-2.52l1.35-4.453c0.597-1.969-0.52-4.034-2.495-4.611z"></path>
</svg>
