<!-- Generated by IcoMoon.io -->
<svg version="1.1" xmlns="http://www.w3.org/2000/svg" width="32" height="32" viewBox="0 0 32 32">
<title>audio-volume-muted</title>
<path d="M22 22h2.75l2.25 2.188 2.188-2.188h2.813v2.938l-2.188 2.125 2.188 2.125v2.813h-2.875l-2.125-2.125-2.125 2.125h-2.875v-2.813l2.125-2.125-2.125-2.125z"></path>
<path d="M0 10h4.969l5.938-6h1.094v23.998l-0.951 0.002-6.081-6.001h-4.969z"></path>
<path d="M22 2v2.961c2.529 3.039 4 6.439 4 11.039 0 1.447-0.17 2.765-0.457 4h4.066c0.25-1.289 0.391-2.628 0.391-4 0-5.628-2.001-10.343-5.172-14z"></path>
<path d="M18 6v4c1.213 1.578 2 3.518 2 6s-0.787 4.439-2 6v4h2v-6h3.5c0.316-1.252 0.5-2.594 0.5-4 0-4.333-1.478-8.040-4-10z"></path>
<path d="M18 16c0-2.515-0.623-4.431-2-6h-2v12h2c1.344-1.674 2-3.485 2-6z"></path>
</svg>
