<!-- Generated by IcoMoon.io -->
<svg version="1.1" xmlns="http://www.w3.org/2000/svg" width="32" height="32" viewBox="0 0 32 32">
<title>audio-x-generic</title>
<path d="M10.002 2v14.69c-0.878-0.426-1.909-0.679-2.997-0.688l-0.003-0c-3.86 0.017-6.984 3.141-7.001 6.999v0.002c0 3.843 3.158 7.001 7.001 7.001 3.837-0.019 6.947-3.107 7.001-6.934l0-0.005v-15.062h12.002v8.687c-0.878-0.426-1.909-0.679-2.997-0.688l-0.003-0c-3.86 0.017-6.984 3.141-7.001 6.999v0.002c0 3.843 3.158 7.001 7.001 7.001 3.801 0 6.931-3.092 7.001-6.875v-21.129z"></path>
</svg>
