<!-- Generated by IcoMoon.io -->
<svg version="1.1" xmlns="http://www.w3.org/2000/svg" width="32" height="32" viewBox="0 0 32 32">
<title>audio-speakers</title>
<path d="M2 10.002h4.97l5.938-6.001 1.094 0.031v24.004l-0.951 0.002-6.082-6.034h-4.97z"></path>
<path d="M23.753 2c-0.466 0.052-0.877 0.257-1.188 0.563l0-0-4.001 4.001c-0.368 0.368-0.596 0.876-0.596 1.438 0 1.123 0.91 2.033 2.033 2.033 0.561 0 1.070-0.228 1.438-0.596l4.001-4.001c0.392-0.366 0.637-0.887 0.637-1.464 0-1.105-0.896-2.001-2-2.001-0.115 0-0.227 0.010-0.336 0.028l0.012-0.002z"></path>
<path d="M19.565 22.003c-0.941 0.175-1.643 0.99-1.643 1.968 0 0.58 0.247 1.103 0.642 1.468l0.001 0.001 4.001 4.001c0.368 0.368 0.876 0.596 1.438 0.596 1.123 0 2.033-0.91 2.033-2.033 0-0.561-0.228-1.070-0.596-1.438l-4.001-4.001c-0.364-0.377-0.874-0.611-1.439-0.611-0.155 0-0.305 0.018-0.45 0.051l0.013-0.003z"></path>
<path d="M19.815 14.002c-1.065 0.051-1.909 0.927-1.909 2 0 1.106 0.897 2.003 2.003 2.003 0.033 0 0.066-0.001 0.098-0.002l-0.005 0 8.064 0.062c0.008 0 0.018 0 0.028 0 1.105 0 2-0.896 2-2s-0.896-2.001-2-2.001c-0.010 0-0.020 0-0.030 0l0.002-0-8.064-0.062c-0.028-0.001-0.061-0.002-0.094-0.002s-0.066 0.001-0.098 0.002l0.005-0z"></path>
<path d="M18.003 8.001h2v2h-2v-2z"></path>
<path d="M18.003 22.003h2v2h-2v-2z"></path>
</svg>
