<!-- Generated by IcoMoon.io -->
<svg version="1.1" xmlns="http://www.w3.org/2000/svg" width="32" height="32" viewBox="0 0 32 32">
<title>audio-headphones</title>
<path d="M7.977 18.215c1.896-0.554 3.907 0.588 4.507 2.564l1.35 4.453c0.6 1.976-0.448 4.013-2.344 4.567-1.898 0.556-3.909-0.588-4.507-2.564l-1.35-4.453c-0.6-1.974 0.446-4.013 2.344-4.567z"></path>
<path d="M15.94 2c-6.613 0-12.050 6.017-11.94 11.44 0.096 4.731 1.618 9.391 2 10.564h3.052c-2.324-4.585-2.1-10.314-2.1-10.314 0-4.747 4.015-8.627 8.987-8.627 4.971 0 9.001 3.655 8.985 8.565-0.048 3.348-0.344 5.317-2.012 10.376h3.142c0.45-1.29 1.948-6.381 1.948-10.564 0-5.661-5.453-11.44-12.064-11.44z"></path>
<path d="M24.028 18.281c-1.896-0.556-3.907 0.588-4.507 2.564l-1.35 4.453c-0.6 1.974 0.448 4.013 2.344 4.567 1.898 0.554 3.909-0.588 4.507-2.564l1.35-4.453c0.6-1.976-0.446-4.013-2.344-4.567z"></path>
</svg>
