<!-- Generated by IcoMoon.io -->
<svg version="1.1" xmlns="http://www.w3.org/2000/svg" width="32" height="32" viewBox="0 0 32 32">
<title>audio-card</title>
<path d="M25.984 1.999c-1.104 0-1.999 0.895-1.999 1.999v0 25.984c0 1.104 0.895 1.999 1.999 1.999s1.999-0.895 1.999-1.999v0-23.986h1.999c1.104 0 1.999-0.895 1.999-1.999s-0.895-1.999-1.999-1.999v0z"></path>
<path d="M25.984 11.993v5.996h5.996v-5.996zM27.983 13.992h1.999v1.999h-1.999zM25.984 19.988v5.996h5.996v-5.996zM27.983 21.987h1.999v1.999h-1.999z"></path>
<path d="M0 7.995v23.986h19.988v-3.998h1.999v-3.998h-5.996v3.998h-11.993v-15.99h5.996v-3.998h-1.999z"></path>
<path d="M11.993 1.999l9.994 7.995h-5.996v9.057h-3.998z"></path>
<path d="M15.98 18.999c0 2.754-2.233 4.987-4.987 4.987v0c-2.754 0-4.987-2.233-4.987-4.987v0c0-2.754 2.233-4.987 4.987-4.987v0c2.754 0 4.987 2.233 4.987 4.987v0z"></path>
</svg>
