<!-- Generated by IcoMoon.io -->
<svg version="1.1" xmlns="http://www.w3.org/2000/svg" width="32" height="32" viewBox="0 0 32 32">
<title>avatar-default</title>
<path d="M21.113 16.19c-1.411 1.247-3.079 1.813-5.11 1.813s-3.707-0.581-5.118-1.828c-2.219 0.727-4.873 2.576-4.876 5.806l-0.008 6.024c-0.001 1.108 0.892 2 2 2h16.002c1.108 0 2-0.892 2-2v-6.001c0-2.774-2.205-5.112-4.891-5.813z"></path>
<path d="M22.003 10.001c0 3.314-2.687 6.001-6.001 6.001s-6.001-2.687-6.001-6.001v0c0-3.314 2.687-6.001 6.001-6.001s6.001 2.687 6.001 6.001v0z"></path>
</svg>
