<!-- Generated by IcoMoon.io -->
<svg version="1.1" xmlns="http://www.w3.org/2000/svg" width="32" height="32" viewBox="0 0 32 32">
<title>battery-full</title>
<path d="M10.002 10.002v4.001h12.002v-4.001h-12.002z"></path>
<path d="M10.939 0c-0.981 0-1.592 0.457-2.063 0.938s-0.875 1.055-0.875 2v1.063h-4.001v28.004h24.004v-28.004h-4.001v-0.875c-0.048-0.861-0.34-1.442-0.813-2-0.448-0.529-1.254-1.059-2.313-1.063v-0.062h-9.939zM12.001 4.001h8.001v4.001h4.001v20.003h-16.002v-20.003h4.001v-4.001z"></path>
<path d="M10.002 16.002v4.001h12.002v-4.001h-12.002z"></path>
<path d="M10.002 22.003v4.001h12.002v-4.001h-12.002z"></path>
</svg>
