<!-- Generated by IcoMoon.io -->
<svg version="1.1" xmlns="http://www.w3.org/2000/svg" width="32" height="32" viewBox="0 0 32 32">
<title>battery-missing</title>
<path d="M10.94 0c-0.984 0-1.592 0.456-2.064 0.938-0.47 0.48-0.874 1.118-0.874 2.062v1h-4.001v28.004h24.004v-28.004h-4.001v-0.876c-0.030-0.773-0.333-1.471-0.815-2.003l0.002 0.003c-0.562-0.651-1.388-1.060-2.31-1.060-0.001 0-0.002 0-0.003 0h0v-0.064h-0.126zM12.002 4.001h8.001v3.062c0.46 0.264 0.852 0.592 1.25 0.938h2.75v20.003h-4.563c-0.351 0.601-0.838 1.087-1.42 1.428l-0.019 0.010c-0.24 0.14-0.482 0.284-0.75 0.374-0.062 0.020-0.124 0.046-0.188 0.062-0.054 0.017-0.138 0.039-0.223 0.059l-0.027 0.005c-0.26 0.054-0.54 0.062-0.812 0.062-0.362 0-0.728-0.032-1.062-0.126-0.064-0.016-0.126-0.040-0.188-0.060-0.264-0.090-0.512-0.238-0.75-0.376-0.601-0.351-1.087-0.838-1.428-1.42l-0.010-0.019h-4.563v-20.003h2.624c0.42-0.368 0.886-0.662 1.376-0.938v-1.062z"></path>
<path d="M15.636 8.011c3.286-0.184 6.193 2.34 6.377 5.625 0 2.804-0.756 3.845-3.188 5.689-0.382 0.288-0.652 0.5-0.75 0.624-0.1 0.126-0.062 0.068-0.062 0.064 0.014 1.056-0.944 2-2 2-1.058 0-2.014-0.944-2-2 0-1.006 0.448-1.888 0.936-2.5 0.421-0.521 0.895-0.974 1.419-1.361l0.021-0.015c0.406-0.32 0.92-0.768 1.374-1.312 0.186-0.224 0.258-0.616 0.25-0.876v-0.060c-0.052-1.050-0.916-1.882-1.974-1.882-0.054 0-0.107 0.002-0.159 0.006l0.007-0c-1.126 0.062-1.938 0.872-1.874 2h-4.001c-0.184-3.287 2.34-5.817 5.625-6.001zM16.012 24.014c1.105 0 2 0.896 2 2s-0.896 2-2 2v0c-1.105 0-2-0.896-2-2s0.896-2 2-2v0z"></path>
</svg>
