<!-- Generated by IcoMoon.io -->
<svg version="1.1" xmlns="http://www.w3.org/2000/svg" width="32" height="32" viewBox="0 0 32 32">
<title>battery-caution</title>
<path d="M10.002 22.003v4.001h4.001v-4.001l-4.001 0z"></path>
<path d="M10.939 0c-0.981 0-1.592 0.457-2.063 0.938s-0.875 1.117-0.875 2.063v1h-4.001v28.004h10.002v-4.001h-6.001v-20.003h4.001v-4.001h8.001v4.001h4.001v6.001h4.001v-10.002h-4.001v-0.875c-0.048-0.861-0.34-1.442-0.813-2-0.448-0.529-1.254-1.059-2.313-1.063v-0.062h-9.939z"></path>
<path d="M17.753 16.002c-0.985 0-1.75 0.765-1.75 1.75v12.502c0 0.985 0.765 1.75 1.75 1.75h12.502c0.985 0 1.75-0.765 1.75-1.75v-12.502c0-0.985-0.765-1.75-1.75-1.75h-12.502zM22.003 18.003h4.001v8.001h-4.001v-8.001zM22.003 28.004h4.001v2h-4.001v-2z"></path>
</svg>
