<!-- Generated by IcoMoon.io -->
<svg version="1.1" xmlns="http://www.w3.org/2000/svg" width="32" height="32" viewBox="0 0 32 32">
<title>bluetooth-active</title>
<path d="M13.722 0.019c-0.99 0.128-1.748 0.967-1.748 1.982 0 0.005 0 0.011 0 0.016v-0.001 7.115l-2.559-2.559c-0.367-0.367-0.875-0.595-1.436-0.595-1.121 0-2.030 0.909-2.030 2.030 0 0.561 0.227 1.068 0.595 1.436l5.43 5.43v2.247l-5.43 5.43c-0.367 0.367-0.595 0.875-0.595 1.436 0 1.121 0.909 2.030 2.030 2.030 0.561 0 1.068-0.227 1.436-0.595l2.559-2.559v7.115c-0 0.014-0.001 0.030-0.001 0.047 0 1.103 0.894 1.998 1.998 1.998 0.563 0 1.072-0.233 1.435-0.608l7.99-7.99c0.375-0.364 0.609-0.872 0.609-1.436s-0.233-1.072-0.608-1.435l-0.001-0-4.556-4.556 4.556-4.556c0.375-0.364 0.609-0.872 0.609-1.436s-0.233-1.072-0.608-1.435l-0.001-0.001-7.989-7.989c-0.361-0.359-0.859-0.581-1.408-0.581-0.098 0-0.194 0.007-0.288 0.021l0.011-0.001zM15.969 6.885l3.121 3.121-3.121 3.121v-6.242zM15.969 18.869l3.121 3.121-3.121 3.121v-6.242z"></path>
<path d="M5.983 6.011h1.997v1.997h-1.997v-1.997z"></path>
<path d="M5.983 23.987h1.997v1.997h-1.997v-1.997z"></path>
<path d="M11.975 29.979h1.997v1.997h-1.997v-1.997z"></path>
<path d="M11.975 0.019h1.997v1.997h-1.997v-1.997z"></path>
</svg>
