<!-- Generated by IcoMoon.io -->
<svg version="1.1" xmlns="http://www.w3.org/2000/svg" width="32" height="32" viewBox="0 0 32 32">
<title>bluetooth-disabled</title>
<path d="M12.002 0v9.173l-2.586-2.586c-0.476-0.494-1.184-0.574-1.844-0.574h-1.52v1.402c0 0.732 0 1.486 0.536 2l5.415 5.415v2.344l-5.415 5.415c-0.476 0.458-0.586 1.12-0.586 1.774v1.628h1.586c0.676 0 1.356-0.084 1.828-0.574l2.586-2.586v9.173h1.988c0.004 0 0.009 0 0.013 0 0.552 0 1.052-0.224 1.413-0.586l4.587-4.587v-6.829h2.828l-4.001-4.001 4.587-4.587c0.362-0.362 0.586-0.862 0.586-1.414s-0.224-1.052-0.586-1.414l-8.001-8.001c-0.362-0.362-0.862-0.586-1.415-0.586-0.004 0-0.008 0-0.012 0h0.001zM16.002 6.829l3.172 3.172-3.172 3.172zM16.002 18.831l3.172 3.172-3.172 3.172z"></path>
<path d="M22.003 22.003h2.75l2.25 2.188 2.188-2.188h2.812v2.938l-2.188 2.124 2.188 2.126v2.812h-2.874l-2.126-2.124-2.124 2.124h-2.876v-2.812l2.126-2.126-2.126-2.122z"></path>
</svg>
