<!-- Generated by IcoMoon.io -->
<svg version="1.1" xmlns="http://www.w3.org/2000/svg" width="32" height="32" viewBox="0 0 32 32">
<title>call-stop</title>
<path d="M22.003 22.003h-2c-0.514 0-1.056 0.26-1.438 0.626l-2.56 2.56-2.564-2.56c-0.38-0.366-0.924-0.626-1.438-0.626h-2v2c0 0.62 0.18 1.104 0.562 1.5l5.441 5.313 5.437-5.313c0.38-0.396 0.562-0.88 0.562-1.5v-2z"></path>
<path d="M0.52 13.286c-0.688-0.684-0.7-2.15 0-2.844l0.080-0.080c8.535-8.495 22.337-8.481 30.855 0.036l0.040 0.040c0.7 0.7 0.636 2.14-0.040 2.886l-3.861 3.995c-0.329 0.331-0.785 0.536-1.288 0.536s-0.959-0.205-1.288-0.536l-2.574-2.572c-0.33-0.329-0.535-0.784-0.535-1.287s0.204-0.958 0.535-1.287l0-0 0.604-0.602c-2.059-1.007-4.481-1.597-7.041-1.597s-4.982 0.589-7.138 1.639l0.097-0.043 0.606 0.602c0.33 0.329 0.535 0.784 0.535 1.287s-0.204 0.958-0.535 1.287l-2.576 2.576c-0.328 0.333-0.783 0.539-1.287 0.539s-0.959-0.206-1.287-0.539l-0-0z"></path>
</svg>
