<!-- Generated by IcoMoon.io -->
<svg version="1.1" xmlns="http://www.w3.org/2000/svg" width="32" height="32" viewBox="0 0 32 32">
<title>call-missed</title>
<path d="M17.997 0v1.563c-0.031 0.132-0.049 0.283-0.049 0.438 0 1.106 0.897 2.002 2.003 2.002 0.038 0 0.076-0.001 0.114-0.003l-0.005 0h1.188l-5.126 5.126-4.751-4.563c-0.361-0.348-0.853-0.563-1.396-0.563-0.015 0-0.030 0-0.044 0l0.002-0h-1.938v1.5c-0.001 0.028-0.002 0.061-0.002 0.094s0.001 0.066 0.002 0.098l-0-0.005c-0.017 0.099-0.027 0.212-0.027 0.328 0 0.556 0.225 1.059 0.589 1.423v0l6.188 5.938 1.375 1.375 1.438-1.375 6.438-6.501v1.125c0 1.105 0.896 2 2 2h2v-1.688c0.004-0.047 0.006-0.101 0.006-0.156s-0.002-0.109-0.007-0.163l0 0.007v-8.001h-7.939c-0.009-0-0.020-0-0.031-0s-0.022 0-0.033 0l0.002-0h-2z"></path>
<path d="M0.532 27.431c-0.687-0.687-0.697-2.15-0-2.848l0.081-0.081c8.535-8.491 22.337-8.477 30.855 0.040l0.040 0.040c0.701 0.701 0.637 2.141-0.040 2.888l-3.862 3.994c-0.713 0.713-1.861 0.713-2.575 0l-2.575-2.575c-0.713-0.713-0.713-1.861-0-2.575l0.603-0.603c-4.455-2.128-9.625-2.128-14.080 0l0.603 0.603c0.713 0.713 0.713 1.861 0 2.575l-2.575 2.575c-0.713 0.713-1.874 0.725-2.575 0z"></path>
</svg>
