<!-- Generated by IcoMoon.io -->
<svg version="1.1" xmlns="http://www.w3.org/2000/svg" width="32" height="32" viewBox="0 0 32 32">
<title>camera-video</title>
<path d="M13.002 2c-3.86 0.017-6.984 3.141-7.001 6.999v0.002c0 3.843 3.158 7.001 7.001 7.001s7.001-3.158 7.001-7.001-3.158-7.001-7.001-7.001zM13.002 6.001c1.68 0 3 1.32 3 3s-1.32 3-3 3-3-1.32-3-3 1.32-3 3-3z"></path>
<path d="M25.004 2c-3.86 0.017-6.984 3.141-7.001 6.999v0.002c0 3.843 3.158 7.001 7.001 7.001s7.001-3.158 7.001-7.001-3.158-7.001-7.001-7.001zM25.004 6.001c1.68 0 3 1.32 3 3s-1.32 3-3 3-3-1.32-3-3 1.32-3 3-3z"></path>
<path d="M8.001 12.002v14.002c0 1.666 1.128 3.050 2.106 3.541 0.976 0.488 1.894 0.46 1.894 0.46h14.002s0.918 0.028 1.894-0.46c0.978-0.49 2.106-1.874 2.106-3.541v-14.002h-2zM12.002 16.002h14.002v10.002h-14.002z"></path>
<path d="M1.976 14.002c-1.094 0.014-1.976 0.904-1.976 2 0 0 0 0 0 0v0 8.001c0 0 0 0 0 0 0 1.105 0.896 2 2 2 0.414 0 0.798-0.126 1.117-0.341l-0.007 0.005 6.001-4.001c0.54-0.364 0.891-0.973 0.891-1.664s-0.351-1.3-0.883-1.66l-0.007-0.005-6.001-4.001c-0.312-0.211-0.696-0.336-1.11-0.336-0.009 0-0.017 0-0.026 0h0.001zM4.001 19.743l0.394 0.26-0.394 0.26z"></path>
<path d="M2 24.004h-2v2h2zM2 14.002h-2v2h2zM2 16.002l6.001 4.001-6.001 4.001zM28.004 16.002h4.001v4.001l-2 2h-2z"></path>
<path d="M28.004 14.002v12.002c0 2-2 2-2 2h-14.002s-2 0-2-2v-12.002z"></path>
</svg>
