<!-- Generated by IcoMoon.io -->
<svg version="1.1" xmlns="http://www.w3.org/2000/svg" width="32" height="32" viewBox="0 0 32 32">
<title>camera-photo</title>
<path d="M12.002 4.001c-1.1 0-2 0.9-2 2v2h-6.001c-1.104 0-2 0.9-2 2v16.002c0 1.1 0.896 2 2 2h24.004c1.104 0 2-0.9 2-2v-16.002c0-1.1-0.896-2-2-2h-6.001v-2c0-1.1-0.9-2-2-2h-8.001zM16.002 10.002c4.419 0 8.001 3.582 8.001 8.001s-3.582 8.001-8.001 8.001c-4.419 0-8.001-3.582-8.001-8.001s3.582-8.001 8.001-8.001zM16.002 14.002c-2.209 0-4.001 1.791-4.001 4.001s1.791 4.001 4.001 4.001c2.209 0 4.001-1.791 4.001-4.001s-1.791-4.001-4.001-4.001z"></path>
</svg>
