<!-- Generated by IcoMoon.io -->
<svg version="1.1" xmlns="http://www.w3.org/2000/svg" width="32" height="32" viewBox="0 0 32 32">
<title>changes-prevent</title>
<path d="M6.001 14.002h20.003c1.108 0 2 0.892 2 2v6.001c0 1.108-0.892 2-2 2h-20.003c-1.108 0-2-0.892-2-2v-6.001c0-1.108 0.892-2 2-2z"></path>
<path d="M14.002 2s-1.418-0.028-2.894 0.71c-1.478 0.74-3.106 2.624-3.106 5.291v8.001h4.001v-8.001c0-1.334 0.372-1.45 0.894-1.71 0.526-0.262 1.106-0.29 1.106-0.29h4.001s0.582 0.028 1.106 0.29c0.522 0.26 0.894 0.376 0.894 1.71v8.001h4.001v-8.001c0-2.666-1.628-4.551-3.106-5.291-1.474-0.738-2.894-0.71-2.894-0.71z"></path>
<path d="M4.001 20.003h24.004v8.001h-24.004z"></path>
</svg>
