<!-- Generated by IcoMoon.io -->
<svg version="1.1" xmlns="http://www.w3.org/2000/svg" width="32" height="32" viewBox="0 0 32 32">
<title>changes-allow</title>
<path d="M6.001 18.003h20.003c1.108 0 2 0.892 2 2v6.001c0 1.108-0.892 2-2 2h-20.003c-1.108 0-2-0.892-2-2v-6.001c0-1.108 0.892-2 2-2z"></path>
<path d="M14.002 0s-1.418-0.028-2.894 0.712c-1.478 0.738-3.106 2.62-3.106 5.289v6.001h4.001v-6.001c0-1.334 0.372-1.45 0.894-1.71 0.526-0.262 1.106-0.29 1.106-0.29h4.001s0.582 0.028 1.106 0.29c0.522 0.26 0.894 0.376 0.894 1.71v16.002h4.001v-16.002c0-2.666-1.628-4.551-3.106-5.289-1.474-0.74-2.894-0.712-2.894-0.712z"></path>
<path d="M4.001 24.004h24.004v8.001h-24.004z"></path>
</svg>
