<!-- Generated by IcoMoon.io -->
<svg version="1.1" xmlns="http://www.w3.org/2000/svg" width="32" height="32" viewBox="0 0 32 32">
<title>channel-insecure</title>
<path d="M10.002 0c-3.29 0-6.001 2.71-6.001 6.001v6.001h4.001v-6.001c0-1.142 0.858-2 2-2h4.001c1.142 0 2 0.858 2 2v0.5c0.534-0.3 1.114-0.5 1.75-0.5h2.25c0-3.291-2.71-6.001-6.001-6.001zM4.001 18.003s-2 0-2 2v10.002h20.003v-4.001h-4.251c-2.020 0-3.751-1.73-3.751-3.751v-4.251z"></path>
<path d="M17.753 8.001c-0.007-0-0.016-0-0.024-0-0.953 0-1.726 0.773-1.726 1.726 0 0.008 0 0.017 0 0.025v-0.001 12.502c0 0.984 0.764 1.75 1.75 1.75h12.502c0.007 0 0.016 0 0.024 0 0.953 0 1.726-0.773 1.726-1.726 0-0.009-0-0.017-0-0.025v0.001-12.502c0-0.007 0-0.016 0-0.024 0-0.953-0.773-1.726-1.726-1.726-0.009 0-0.017 0-0.025 0h0.001zM22.003 10.002h4.001v8.001h-4.001zM22.003 20.003h4.001v2h-4.001z"></path>
</svg>
