<!-- Generated by IcoMoon.io -->
<svg version="1.1" xmlns="http://www.w3.org/2000/svg" width="32" height="32" viewBox="0 0 32 32">
<title>checkbox-mixed</title>
<path d="M6.938 2c-2.729 0-4.938 2.209-4.938 4.938v18.128c0 2.729 2.21 4.938 4.938 4.938h18.128c2.729 0 4.938-2.209 4.938-4.938v-18.128c0-2.729-2.209-4.938-4.938-4.938h-18.128zM6.938 4.001h18.128c1.665 0 2.938 1.273 2.938 2.938v18.128c0 1.665-1.273 2.938-2.938 2.938h-18.128c-1.665 0-2.938-1.273-2.938-2.938v-18.128c0-1.665 1.273-2.938 2.938-2.938z"></path>
<path d="M9.376 12.127c-2.117 0.119-3.788 1.865-3.788 4.001 0 2.213 1.794 4.007 4.007 4.007 0.077 0 0.154-0.002 0.23-0.006l-0.011 0h12.252c0.017 0 0.037 0 0.057 0 2.21 0 4.001-1.791 4.001-4.001s-1.791-4.001-4.001-4.001c-0.020 0-0.040 0-0.060 0l0.003-0h-12.252c-0.065-0.004-0.142-0.006-0.219-0.006s-0.153 0.002-0.229 0.006l0.011-0z"></path>
</svg>
