<!-- Generated by IcoMoon.io -->
<svg version="1.1" xmlns="http://www.w3.org/2000/svg" width="32" height="32" viewBox="0 0 32 32">
<title>checkbox-checked</title>
<path d="M6.938 2c-2.729 0-4.938 2.209-4.938 4.938v18.128c0 2.729 2.21 4.938 4.938 4.938h18.128c2.729 0 4.938-2.209 4.938-4.938v-18.128c0-2.729-2.209-4.938-4.938-4.938h-18.128zM6.938 4.001h18.128c1.665 0 2.938 1.273 2.938 2.938v18.128c0 1.665-1.273 2.938-2.938 2.938h-18.128c-1.665 0-2.938-1.273-2.938-2.938v-18.128c0-1.665 1.273-2.938 2.938-2.938z"></path>
<path d="M28.358 5.647l-11.355 11.105-3.876-3.876-4.251 4.251 8.126 8.126 2.125-2.125 9.23-9.48z"></path>
</svg>
