<!-- Generated by IcoMoon.io -->
<svg version="1.1" xmlns="http://www.w3.org/2000/svg" width="32" height="32" viewBox="0 0 32 32">
<title>color-select</title>
<path d="M8.001 28.859c0 1.736-1.41 3.146-3.146 3.146s-3.146-1.41-3.146-3.146c0-1.736 3.592-6.696 3.592-6.696s2.7 4.96 2.7 6.696z"></path>
<path d="M20.003 4.001l-12.002 12.002-2 4.885 0.984 1.116 5.017-2 12.002-12.002zM20.003 6.001l2 2-8.001 8.001h-4.001z"></path>
<path d="M28.004 5.501c0 0.001 0 0.001 0 0.002 0 3.038-2.463 5.501-5.501 5.501s-5.501-2.463-5.501-5.501c0-0.001 0-0.001 0-0.002v0c0-0.001 0-0.001 0-0.002 0-3.038 2.463-5.501 5.501-5.501s5.501 2.463 5.501 5.501c0 0.001 0 0.001 0 0.002v-0z"></path>
<path d="M13.189 4.001l1.375 1.438 8.001 8.001 1.438 1.375 2.25-2.25-0.813-2-8.001-8.001-2.313-0.5z"></path>
</svg>
