<!-- Generated by IcoMoon.io -->
<svg version="1.1" xmlns="http://www.w3.org/2000/svg" width="32" height="32" viewBox="0 0 32 32">
<title>color-select</title>
<path d="M22.503 0c-2.068 0-3.811 1.188-4.751 2.876l-0.312-0.314-2.312-0.5-1.94 1.938 1.376 1.438 2 2-8.563 8.563-2 4.877 1 1.124 5.001-2 8.563-8.563 2 2 1.438 1.374 2.25-2.25-0.812-2-0.312-0.312c1.684-0.94 2.874-2.682 2.874-4.751 0-3.038-2.463-5.501-5.501-5.501v0zM17.565 8.439l2 2-5.563 5.563h-4.001zM5.313 22.191s-3.625 4.953-3.625 6.689c0 1.734 1.452 3.124 3.188 3.124 1.732 0 3.124-1.39 3.124-3.126 0-1.734-2.688-6.687-2.688-6.687z"></path>
</svg>
