<!-- Generated by IcoMoon.io -->
<svg version="1.1" xmlns="http://www.w3.org/2000/svg" width="32" height="32" viewBox="0 0 32 32">
<title>computer-fail</title>
<path d="M8.001 2c-3.325 0-6.001 2.676-6.001 6.001v12.002c0 3.325 2.676 6.001 6.001 6.001h16.002c3.325 0 6.001-2.676 6.001-6.001v-12.002c0-3.325-2.676-6.001-6.001-6.001h-16.002zM12.002 8.001c1.117 0 2.063 0.946 2.063 2.063v1.938c0 1.117-0.946 2-2.063 2s-2-0.883-2-2v-1.938c0-1.117 0.883-2.063 2-2.063zM20.003 8.001c1.117 0 2 0.946 2 2.063v1.938c0 1.117-0.883 2-2 2s-2-0.883-2-2v-1.938c0-1.117 0.883-2.063 2-2.063zM16.002 16.065c6.513 0 10.002 1.748 10.002 2.813v1c-1.993-1.274-8.034-1.813-10.002-1.813s-7.61-0.124-10.002 1.813v-1c0-1.362 3.489-2.813 10.002-2.813z"></path>
<path d="M16.002 28.004c-10.002 0-10.002 2-10.002 2 0 2 2 2 2 2h16.002c2 0 2-2 2-2s0-2-10.002-2z"></path>
</svg>
