<!-- Generated by IcoMoon.io -->
<svg version="1.1" xmlns="http://www.w3.org/2000/svg" width="32" height="32" viewBox="0 0 32 32">
<title>content-loading</title>
<path d="M10.002 16.002c0 2.209-1.791 4.001-4.001 4.001v0c-2.209 0-4.001-1.791-4.001-4.001v0c0-2.209 1.791-4.001 4.001-4.001v0c2.209 0 4.001 1.791 4.001 4.001v0zM20.003 16.002c0 2.209-1.791 4.001-4.001 4.001v0c-2.209 0-4.001-1.791-4.001-4.001v0c0-2.209 1.791-4.001 4.001-4.001v0c2.209 0 4.001 1.791 4.001 4.001v0zM30.005 16.002c0 2.209-1.791 4.001-4.001 4.001v0c-2.209 0-4.001-1.791-4.001-4.001v0c0-2.209 1.791-4.001 4.001-4.001v0c2.209 0 4.001 1.791 4.001 4.001v0z"></path>
</svg>
