<!-- Generated by IcoMoon.io -->
<svg version="1.1" xmlns="http://www.w3.org/2000/svg" width="32" height="32" viewBox="0 0 32 32">
<title>daytime-sunset</title>
<path d="M0 30v2h30v-2z"></path>
<path d="M1 2c-0.554 0-1 0.446-1 1s0.446 1 1 1h2c0.554 0 1-0.446 1-1s-0.446-1-1-1zM6.102 2c0.504 4.493 4.271 8 8.898 8s8.395-3.507 8.898-8zM27 2c-0.554 0-1 0.446-1 1s0.446 1 1 1h2c0.554 0 1-0.446 1-1s-0.446-1-1-1zM23.484 8.484c-0.256 0-0.511 0.097-0.707 0.293-0.392 0.392-0.392 1.022 0 1.414l1.414 1.414c0.196 0.196 0.451 0.293 0.707 0.293s0.511-0.097 0.707-0.293c0.392-0.392 0.392-1.022 0-1.414l-1.414-1.414c-0.098-0.098-0.212-0.17-0.332-0.219s-0.247-0.074-0.375-0.074zM6.324 8.504c-0.188 0.036-0.369 0.127-0.516 0.273l-1.414 1.414c-0.392 0.392-0.392 1.022 0 1.414 0.196 0.196 0.451 0.297 0.707 0.297s0.511-0.101 0.707-0.297l1.414-1.414c0.392-0.392 0.392-1.022 0-1.414-0.098-0.098-0.212-0.17-0.332-0.219-0.18-0.073-0.378-0.091-0.566-0.055zM15 12c-0.554 0-1 0.446-1 1v5h-6l7 9 7.125-9h-6.125v-5c0-0.415-0.25-0.771-0.609-0.922-0.12-0.051-0.253-0.078-0.391-0.078z"></path>
</svg>
