<!-- Generated by IcoMoon.io -->
<svg version="1.1" xmlns="http://www.w3.org/2000/svg" width="32" height="32" viewBox="0 0 32 32">
<title>daytime-sunrise</title>
<path d="M0 30v2h30v-2z"></path>
<path d="M15 3l-7 9h6v5c0 0.554 0.446 1 1 1 0.138 0 0.271-0.028 0.391-0.078 0.359-0.151 0.609-0.506 0.609-0.922v-5h6zM5.102 18.098c-0.256 0-0.511 0.101-0.707 0.297-0.392 0.392-0.392 1.022 0 1.414l1.414 1.414c0.294 0.294 0.721 0.366 1.082 0.219 0.12-0.049 0.234-0.121 0.332-0.219 0.392-0.392 0.392-1.022 0-1.414l-1.414-1.414c-0.196-0.196-0.451-0.297-0.707-0.297zM24.898 18.102c-0.256 0-0.511 0.097-0.707 0.293l-1.414 1.414c-0.392 0.392-0.392 1.022 0 1.414 0.196 0.196 0.451 0.293 0.707 0.293 0.128 0 0.255-0.025 0.375-0.074s0.234-0.121 0.332-0.219l1.414-1.414c0.392-0.392 0.392-1.022 0-1.414-0.196-0.196-0.451-0.293-0.707-0.293zM15 20c-4.628 0-8.395 3.507-8.898 8h17.797c-0.504-4.493-4.271-8-8.898-8zM1 26c-0.554 0-1 0.446-1 1s0.446 1 1 1h2c0.554 0 1-0.446 1-1s-0.446-1-1-1zM27 26c-0.554 0-1 0.446-1 1s0.446 1 1 1h2c0.554 0 1-0.446 1-1s-0.446-1-1-1z"></path>
</svg>
