<!-- Generated by IcoMoon.io -->
<svg version="1.1" xmlns="http://www.w3.org/2000/svg" width="32" height="32" viewBox="0 0 32 32">
<title>dialog-warning</title>
<path d="M15.815 0.188c-1.051-0.057-2.077 0.566-2.875 1.938l-12.502 23.191c-1.067 1.927 0.096 4.688 2.188 4.688h26.316c1.964 0 3.807-2.319 2.438-4.688l-12.627-23.066c-0.798-1.293-1.887-2.006-2.938-2.063zM15.94 8.064c1.089-0.034 2.097 0.974 2.063 2.063v7.876c0.014 1.057-0.943 2-2 2s-2.015-0.944-2-2v-7.876c-0.016-0.933 0.708-1.825 1.625-2 0.102-0.029 0.207-0.050 0.313-0.062zM16.003 22.003c1.105 0 2 0.896 2 2s-0.896 2-2 2c-1.105 0-2-0.896-2-2s0.896-2 2-2z"></path>
</svg>
