<!-- Generated by IcoMoon.io -->
<svg version="1.1" xmlns="http://www.w3.org/2000/svg" width="32" height="32" viewBox="0 0 32 32">
<title>dialog-password</title>
<path d="M10.002 6.001c-5.5 0-10.002 4.502-10.002 10.002s4.502 10.002 10.002 10.002c3.173 0 5.808-1.689 7.626-4.001h11.189l0.438-1.5 2.063-8.001 0.625-2.5h-14.315c-1.819-2.311-4.453-4.001-7.626-4.001zM10.002 10.002c2.232 0 4.076 1.19 5.126 3l0.625 1h11.064l-1.063 4.001h-10.002l-0.625 1c-1.049 1.81-2.894 3-5.126 3-3.338 0-6.001-2.663-6.001-6.001s2.663-6.001 6.001-6.001z"></path>
<path d="M29 16.002h-10.998l-1.125 4 11.127 0z"></path>
<path d="M10.002 16.002c0 1.105-0.896 2-2 2s-2-0.896-2-2v0c0-1.105 0.896-2 2-2s2 0.896 2 2v0z"></path>
</svg>
