<!-- Generated by IcoMoon.io -->
<svg version="1.1" xmlns="http://www.w3.org/2000/svg" width="32" height="32" viewBox="0 0 32 32">
<title>dialog-password</title>
<path d="M10.002 6.001c-5.501 0-10.002 4.501-10.002 10.002s4.501 10.002 10.002 10.002c3.178 0 5.805-1.684 7.621-4.001h11.222l3.12-12.002h-14.342c-1.814-2.316-4.441-4.001-7.621-4.001zM10.002 10.002c2.232 0 4.097 1.194 5.147 3.004l0.578 0.996h11.062l-1.038 4.001h-10.024l-0.58 0.996c-1.046 1.81-2.91 3.004-5.145 3.004-3.337 0-6.001-2.662-6.001-6.001s2.664-6.001 6.001-6.001z"></path>
<path d="M29 16.002h-10.998l-1.124 4.001h11.126z"></path>
<path d="M10.002 16.002c0 1.105-0.896 2-2 2v0c-1.105 0-2-0.896-2-2v0c0-1.105 0.896-2 2-2v0c1.105 0 2 0.896 2 2v0z"></path>
</svg>
