<!-- Generated by IcoMoon.io -->
<svg version="1.1" xmlns="http://www.w3.org/2000/svg" width="32" height="32" viewBox="0 0 32 32">
<title>dialog-information</title>
<path d="M16.003 0c-5.5 0-10.002 4.502-10.002 10.002 0 3.173 1.689 5.808 4.001 7.626v6.376h12.002v-6.376c2.311-1.819 4.001-4.453 4.001-7.626 0-5.5-4.502-10.002-10.002-10.002zM16.003 4.001c3.338 0 6.001 2.663 6.001 6.001 0 2.232-1.19 4.076-3 5.126l-1 0.625v4.251h-4.001v-4.251l-1-0.625c-1.81-1.049-3-2.894-3-5.126 0-3.338 2.663-6.001 6.001-6.001z"></path>
<path d="M12.002 30.005v2h8.001v-2h-8.001z"></path>
<path d="M10.002 26.004v2h12.002v-2h-12.002z"></path>
<path d="M14.002 10.002v2h4.001v-2h-4.001z"></path>
</svg>
