<!-- Generated by IcoMoon.io -->
<svg version="1.1" xmlns="http://www.w3.org/2000/svg" width="32" height="32" viewBox="0 0 32 32">
<title>display-projector</title>
<path d="M1.996 10.002c-1.106 0-1.996 1.046-1.996 2.313v9.126c0 1.266 0.832 2.563 1.937 2.563h2c0 1.267 0.949 2 2.055 2h1.992c1.106 0 1.953-0.734 1.953-2h11.978c0 1.267 0.934 2 2.040 2h1.989c1.106 0 1.996-0.734 1.996-2h2.004c1.106 0 1.996-1.296 1.996-2.563v-9.126c0-1.267-0.89-2.313-1.996-2.313zM2.995 12.386c0.551 0 0.998 1.855 0.998 4.616s-0.447 4.477-0.998 4.477c-0.551 0-0.998-1.715-0.998-4.477s0.447-4.616 0.998-4.616zM6.987 12.386c0.551 0 0.998 2.239 0.998 5.001s-0.517 4.082-1.068 4.082c-0.551 0-0.928-1.704-0.928-4.466s0.447-4.617 0.998-4.617zM10.91 12.386c0.551 0 1.068 1.855 1.068 4.617s-0.447 4.466-0.998 4.466c-0.551 0-0.998-1.704-0.998-4.466s0.377-4.617 0.928-4.617zM24.955 12.002c2.756 0 4.991 2.239 4.991 5.001s-2.235 5.001-4.991 5.001c-2.756 0-4.991-2.239-4.991-5.001s2.235-5.001 4.991-5.001z"></path>
<path d="M27.941 17.003c0 1.657-1.343 3-3 3s-3-1.343-3-3v0c0-1.657 1.343-3 3-3s3 1.343 3 3v0z"></path>
</svg>
