<!-- Generated by IcoMoon.io -->
<svg version="1.1" xmlns="http://www.w3.org/2000/svg" width="32" height="32" viewBox="0 0 32 32">
<title>document-open-recent</title>
<path d="M15.002 0.027c-8.262 0-14.975 6.714-14.975 14.975s6.714 14.975 14.975 14.975c8.262 0 14.975-6.714 14.975-14.975s-6.714-14.975-14.975-14.975zM15.002 3.974c6.1 0 11.028 4.929 11.028 11.028s-4.929 11.028-11.028 11.028c-6.1 0-11.028-4.929-11.028-11.028s4.929-11.028 11.028-11.028z"></path>
<path d="M20.816 8.001c-0.201 0.054-0.371 0.164-0.499 0.311l-0.001 0.001-5.313 5.313-3.313-3.313c-0.179-0.289-0.494-0.478-0.853-0.478-0.552 0-1 0.448-1 1 0 0.359 0.19 0.674 0.474 0.851l0.004 0.002 4.001 4.001c0.179 0.17 0.421 0.274 0.688 0.274s0.509-0.104 0.688-0.274l-0 0 6.001-6.001c0.177-0.18 0.286-0.428 0.286-0.701 0-0.552-0.448-1-1-1-0.057 0-0.113 0.005-0.167 0.014l0.006-0.001z"></path>
</svg>
