<!-- Generated by IcoMoon.io -->
<svg version="1.1" xmlns="http://www.w3.org/2000/svg" width="32" height="32" viewBox="0 0 32 32">
<title>document-save</title>
<path d="M8.814 18.003c-0.264 0.060-0.484 0.219-0.623 0.434l-0.002 0.004-2 3c-0.17 0.179-0.275 0.422-0.275 0.689 0 0.552 0.448 1 1 1 0.394 0 0.734-0.227 0.898-0.558l0.003-0.006 2-3c0.116-0.161 0.185-0.362 0.185-0.58 0-0.552-0.448-1-1-1-0.065 0-0.129 0.006-0.191 0.018l0.006-0.001zM22.816 18.003c-0.465 0.092-0.811 0.497-0.811 0.982 0 0.218 0.070 0.419 0.188 0.584l-0.002-0.003 2 3c0.166 0.337 0.506 0.564 0.9 0.564 0.552 0 1-0.448 1-1 0-0.267-0.105-0.51-0.276-0.689l0 0-2-3c-0.181-0.273-0.488-0.451-0.836-0.451-0.058 0-0.115 0.005-0.17 0.014l0.006-0.001z"></path>
<path d="M14.002 2v11.127l-2.563-2.563c-0.376-0.376-0.907-0.563-1.438-0.563h-2v2c0 0.531 0.186 1.061 0.563 1.438l6.563 6.563h1.75l6.564-6.564c0.376-0.376 0.563-0.907 0.563-1.438v-2h-2c-0.531 0-1.061 0.186-1.438 0.563l-2.563 2.563v-11.127z"></path>
<path d="M6.001 22.003v8.001h20.003v-8.001zM12.689 24.879c0.042-0.002 0.083-0.002 0.125 0 0.582-0.111 1.198 0.408 1.188 1v0.125h4.001v-0.125c-0.008-0.528 0.472-1.014 1-1.014s1.008 0.486 1 1.014v0.125c0 1.091-0.909 2-2 2h-4.001c-1.091 0-2-0.909-2-2v-0.125c-0.022-0.434 0.274-0.865 0.688-1z"></path>
</svg>
