<!-- Generated by IcoMoon.io -->
<svg version="1.1" xmlns="http://www.w3.org/2000/svg" width="32" height="32" viewBox="0 0 32 32">
<title>document-print-preview</title>
<path d="M8.002 2v4.001h16.002v-4.001zM4.001 8.001c-1 0-2 1-2 2v8.001c0 1 1 2 2 2h2v-4.001h10.252c1.327-1.265 3.102-2.063 5.063-2.063 3.564 0 6.582 2.56 7.251 5.938 0.786-0.275 1.438-1.061 1.438-1.875v-8.001c0-1-1-2-2-2zM8.002 18.003v10.002h10.189c-2.508-1.183-4.251-3.751-4.251-6.689 0-1.191 0.303-2.313 0.813-3.313z"></path>
<path d="M21.316 15.877c-2.992 0-5.438 2.447-5.438 5.438s2.447 5.438 5.438 5.438c0.974 0 1.895-0.297 2.688-0.75 0.081 0.17 0.186 0.314 0.312 0.437l0 0 3.688 3.626c0.272 0.272 0.648 0.44 1.063 0.44 0.83 0 1.503-0.673 1.503-1.503 0-0.415-0.168-0.791-0.44-1.063v0l-3.688-3.626c-0.123-0.127-0.268-0.232-0.429-0.309l-0.009-0.004c0.453-0.793 0.75-1.714 0.75-2.688 0-2.992-2.447-5.438-5.438-5.438zM21.316 17.878c1.911 0 3.438 1.527 3.438 3.438s-1.527 3.438-3.438 3.438c-1.911 0-3.438-1.527-3.438-3.438s1.527-3.438 3.438-3.438z"></path>
</svg>
