<!-- Generated by IcoMoon.io -->
<svg version="1.1" xmlns="http://www.w3.org/2000/svg" width="32" height="32" viewBox="0 0 32 32">
<title>document-print-preview</title>
<path d="M8.001 2v4.001h16.002v-4.001zM4.001 8.001c-1 0-2 1-2 2v8.001c0 1 1 2 2 2h2v-4.001h10.252c1.309-1.269 3.093-2.054 5.061-2.062h0.002c3.565 0 6.583 2.56 7.251 5.937 0.786-0.274 1.44-1.060 1.44-1.874v-8.001c0-1-1-2-2-2zM8.001 18.003v10.002h10.19c-2.527-1.214-4.243-3.75-4.251-6.688v-0.001c0-1.19 0.304-2.312 0.812-3.313z"></path>
<path d="M21.315 15.878c-2.999 0.009-5.428 2.438-5.437 5.436v0.001c0.008 3 2.437 5.43 5.436 5.439h0.001c0.976 0 1.896-0.296 2.688-0.75 0.081 0.17 0.185 0.315 0.312 0.438l0 0 3.689 3.623c0.272 0.272 0.648 0.441 1.063 0.441 0.83 0 1.503-0.673 1.503-1.503 0-0.415-0.168-0.79-0.44-1.062v0l-3.689-3.627c-0.123-0.126-0.268-0.23-0.429-0.306l-0.009-0.004c0.454-0.792 0.75-1.714 0.75-2.688-0.008-3.001-2.438-5.431-5.438-5.439h-0.001zM21.315 17.879c1.912 0 3.441 1.526 3.441 3.437s-1.528 3.439-3.441 3.439c-0.004 0-0.009 0-0.014 0-1.89 0-3.422-1.532-3.422-3.422 0-0.006 0-0.011 0-0.017v0.001c0-1.91 1.526-3.439 3.437-3.439z"></path>
</svg>
