<!-- Generated by IcoMoon.io -->
<svg version="1.1" xmlns="http://www.w3.org/2000/svg" width="32" height="32" viewBox="0 0 32 32">
<title>document-revert</title>
<path d="M6.001 2c-1.105 0-2 0.896-2 2v0 26.004c0 1.105 0.896 2 2 2v0h20.003c1.105 0 2-0.896 2-2v0-8.001s0.028-1.418-0.71-2.894c-0.74-1.478-2.624-3.106-5.291-3.106h-6.001c-1.105 0-2 0.896-2 2s0.896 2 2 2v0h6.001c1.334 0 1.45 0.372 1.71 0.894 0.262 0.524 0.29 1.106 0.29 1.106v6.001h-16.002v-22.003h11.174l4.829 4.829v1.172c0 1.105 0.896 2 2 2s2-0.896 2-2v0-2c-0-0.552-0.224-1.052-0.586-1.414l-6.001-6.001c-0.362-0.362-0.862-0.586-1.414-0.586h-0z"></path>
<path d="M16.588 12.588l-5.415 5.415 5.415 5.415 2.828-2.828-2.586-2.586 2.586-2.586z"></path>
<path d="M18.003 22.003h2v2h-2zM18.003 12.002h2v2h-2z"></path>
<path d="M18.003 12.002c1.108 0 2 0.892 2 2s-0.892 2-2 2-2-0.892-2-2 0.892-2 2-2zM18.003 20.003c1.108 0 2 0.892 2 2s-0.892 2-2 2-2-0.892-2-2 0.892-2 2-2z"></path>
</svg>
