<!-- Generated by IcoMoon.io -->
<svg version="1.1" xmlns="http://www.w3.org/2000/svg" width="32" height="32" viewBox="0 0 32 32">
<title>document-revert-symbolic-rtl</title>
<path d="M6.001 2c-1.105 0-2 0.896-2 2v0 8.001c0 1.105 0.896 2 2 2s2-0.896 2-2v0-6.001h11.174l4.829 4.829v17.175h-16.002v-6.001s0.028-0.582 0.29-1.106c0.26-0.522 0.376-0.894 1.71-0.894h6.001c1.105 0 2-0.896 2-2s-0.896-2-2-2v0h-6.001c-2.666 0-4.551 1.628-5.291 3.106-0.738 1.474-0.71 2.894-0.71 2.894v8.001c0 1.105 0.896 2 2 2v0h20.003c1.105 0 2-0.896 2-2v0-20.003c-0-0.552-0.224-1.052-0.586-1.414l-6.001-6.001c-0.362-0.362-0.862-0.586-1.414-0.586h-0z"></path>
<path d="M15.416 12.588l-2.828 2.828 2.586 2.586-2.586 2.586 2.828 2.828 5.415-5.415z"></path>
<path d="M14.002 22.003h-2v2h2zM14.002 12.002h-2v2h2z"></path>
<path d="M14.002 12.002c-1.108 0-2 0.892-2 2s0.892 2 2 2 2-0.892 2-2-0.892-2-2-2zM14.002 20.003c-1.108 0-2 0.892-2 2s0.892 2 2 2 2-0.892 2-2-0.892-2-2-2z"></path>
</svg>
