<!-- Generated by IcoMoon.io -->
<svg version="1.1" xmlns="http://www.w3.org/2000/svg" width="32" height="32" viewBox="0 0 32 32">
<title>document-new</title>
<path d="M18.003 24.004v4.001h12.002v-4.001h-10.002z"></path>
<path d="M6.001 2c-1.105 0-2 0.896-2 2v0 26.004c0 1.105 0.896 2 2 2v0h8.001c1.105 0 2-0.896 2-2s-0.896-2-2-2v0h-6.001v-22.003h11.174l4.829 4.829v5.173c0 1.105 0.896 2 2 2s2-0.896 2-2v0-6.001c-0-0.552-0.224-1.052-0.586-1.414l-6.001-6.001c-0.362-0.362-0.862-0.586-1.414-0.586h-0z"></path>
<path d="M22.003 20.003v12.002h4.001v-12.002z"></path>
</svg>
