<!-- Generated by IcoMoon.io -->
<svg version="1.1" xmlns="http://www.w3.org/2000/svg" width="32" height="32" viewBox="0 0 32 32">
<title>document-save</title>
<path d="M8.981 17.991c-0.34 0.010-0.636 0.188-0.81 0.454l-0.002 0.004-2 3c-0.115 0.161-0.184 0.362-0.184 0.578 0 0.552 0.448 1 1 1 0.356 0 0.669-0.186 0.846-0.466l0.002-0.004 2-3c0.11-0.158 0.176-0.355 0.176-0.566 0-0.552-0.448-1-1-1-0.010 0-0.020 0-0.029 0l0.001-0zM22.991 17.991c-0.55 0.003-0.996 0.449-0.996 1 0 0.212 0.066 0.408 0.178 0.569l-0.002-0.003 2 3c0.18 0.284 0.492 0.47 0.848 0.47 0.552 0 1-0.448 1-1 0-0.217-0.069-0.418-0.186-0.582l0.002 0.003-2-3c-0.181-0.277-0.49-0.458-0.84-0.458-0.001 0-0.003 0-0.004 0h0z"></path>
<path d="M14.002 2v11.128l-2.562-2.566c-0.364-0.347-0.857-0.56-1.401-0.56-0.013 0-0.026 0-0.040 0l0.002-0h-2v2c0 0.53 0.186 1.060 0.562 1.438l6.565 6.563h1.75l0.56-0.562 6.001-6.001c0.38-0.378 0.564-0.908 0.564-1.438v-2h-2c-0.53 0-1.060 0.186-1.438 0.562l-2.562 2.564v-11.128z"></path>
<path d="M6.001 22.003v8.001h20.003v-8.001zM12.69 24.88c0.018-0.001 0.040-0.001 0.062-0.001s0.043 0.001 0.065 0.002l-0.003-0c0.582-0.112 1.2 0.406 1.188 1v0.124h4.001v-0.126c0.014-0.55 0.452-0.993 0.998-1.014l0.002-0c0.548 0.022 0.986 0.465 1 1.013l0 0.001v0.126c0 1.090-0.91 2-2 2h-4.001c-1.090 0-2-0.91-2-2v-0.126c-0-0.008-0-0.018-0-0.028 0-0.447 0.284-0.827 0.681-0.97l0.007-0.002z"></path>
</svg>
