<!-- Generated by IcoMoon.io -->
<svg version="1.1" xmlns="http://www.w3.org/2000/svg" width="32" height="32" viewBox="0 0 32 32">
<title>document-properties</title>
<path d="M18.019 15.698c-0.305-0.050-0.656-0.079-1.013-0.079-0.344 0-0.682 0.027-1.011 0.078l0.037-0.005 1.952 3.46c0.4 0.708-0.048 1.524-0.9 2.016l-1.54 0.89c-0.862 0.48-1.82 0.416-2.222-0.296l-1.952-3.458c-0.411 0.486-0.757 1.046-1.012 1.654l-0.016 0.042c-1.13 2.94 0.474 5.784 3.584 6.348 0.648 0.12 1.334 0.092 1.988 0.006 0.052-0.008 3.036 5.53 3.036 5.53l7.010 0.124-5.334-8.26c0.412-0.512 0.74-1.086 0.976-1.7 1.132-2.94-0.472-5.784-3.582-6.35z"></path>
<path d="M6 2.003c-1.105 0-2 0.895-2 2v0 25.999c0 1.105 0.895 2 2 2v0h8c1.105 0 2-0.895 2-2s-0.895-2-2-2v0h-6v-21.999h11.172l4.828 4.828v13.171c0 1.105 0.895 2 2 2s2-0.895 2-2v0-13.999c-0-0.552-0.224-1.052-0.586-1.414l-6-6c-0.362-0.362-0.862-0.586-1.414-0.586h-0z"></path>
</svg>
