<!-- Generated by IcoMoon.io -->
<svg version="1.1" xmlns="http://www.w3.org/2000/svg" width="32" height="32" viewBox="0 0 32 32">
<title>drive-optical</title>
<path d="M5.001 2c-0.003 0-0.006 0-0.010 0-2.756 0-4.991 2.234-4.991 4.991 0 0.004 0 0.007 0 0.011v-0.001 16.002c0 2.77 2.23 5.001 5.001 5.001v-4.001c-0.001 0-0.001 0-0.002 0-0.551 0-0.998-0.447-0.998-0.998 0-0.001 0-0.001 0-0.002v0-3h24.004v3c0 0.554-0.446 1-1 1v4.001c2.77 0 5.001-2.23 5.001-5.001v-16.002c0-2.77-2.23-5.001-5.001-5.001z"></path>
<path d="M5.751 22.081c0 5.381 4.599 9.809 10.234 9.809s10.27-4.427 10.27-9.809h-4.035c0 3.305-2.774 5.955-6.235 5.955s-6.199-2.65-6.199-5.955z"></path>
<path d="M12.002 22.003c0 2.198 1.804 4.001 4.001 4.001 2.198 0 4.001-1.802 4.001-4.001h-2c0 1.116-0.884 2-2 2s-2-0.884-2-2z"></path>
</svg>
