<!-- Generated by IcoMoon.io -->
<svg version="1.1" xmlns="http://www.w3.org/2000/svg" width="32" height="32" viewBox="0 0 32 32">
<title>drive-removable-media</title>
<path d="M5.001 2c-0.003 0-0.006 0-0.010 0-2.756 0-4.991 2.234-4.991 4.991 0 0.004 0 0.007 0 0.011v-0.001 16.002c0 2.77 2.23 5.001 5.001 5.001h22.003c2.77 0 5.001-2.23 5.001-5.001v-16.002c0-2.77-2.23-5.001-5.001-5.001zM5.001 20.003h23.003v3c0 0.554-0.446 1-1 1h-22.003c-0.001 0-0.001 0-0.002 0-0.551 0-0.998-0.447-0.998-0.998 0-0.001 0-0.001 0-0.002v0-3z"></path>
</svg>
