<!-- Generated by IcoMoon.io -->
<svg version="1.1" xmlns="http://www.w3.org/2000/svg" width="32" height="32" viewBox="0 0 32 32">
<title>drive-harddisk</title>
<path d="M6.376 0c-2.404 0-4.376 1.975-4.376 4.376v23.253c0 2.4 1.972 4.376 4.376 4.376h19.253c2.404 0 4.376-1.975 4.376-4.376v-23.253c0-2.4-1.972-4.376-4.376-4.376h-19.253zM6.376 4.001h19.253c0.248 0 0.375 0.113 0.375 0.375v23.254c0 0.262-0.127 0.375-0.375 0.375h-19.253c-0.248 0-0.375-0.113-0.375-0.375v-23.253c0-0.262 0.127-0.375 0.375-0.375z"></path>
<path d="M15.69 6.001c-0.531 0.022-1.089 0.117-1.625 0.25-4.289 1.062-6.875 5.399-5.813 9.689 0.9 3.635 4.151 6.046 7.733 6.052 0.336 0.001 0.675-0.020 1.016-0.063l-0.778-5.96c-0.069 0.020-0.141 0.034-0.219 0.034-1.105 0-2-0.895-2-2s0.895-2 2-2c1.105 0 2 0.895 2 2 0 0.235-0.057 0.45-0.145 0.65l5.402 2.774c0.772-1.661 0.94-3.562 0.494-5.362-0.929-3.753-4.345-6.215-8.064-6.063z"></path>
<path d="M17.325 16.002l2.678 8.001c1.469 4.113 6.001 0.769 2.994-2z"></path>
</svg>
