<!-- Generated by IcoMoon.io -->
<svg version="1.1" xmlns="http://www.w3.org/2000/svg" width="32" height="32" viewBox="0 0 32 32">
<title>drive-harddisk-solidstate</title>
<path d="M6.395 0c-2.421 0.022-4.377 1.981-4.395 4.401v23.203c0 2.398 1.99 4.401 4.395 4.401h19.217c2.421-0.021 4.377-1.981 4.393-4.401v-23.203c0-2.398-1.988-4.401-4.393-4.401zM6.395 4.001h19.217c0.248 0 0.392 0.14 0.392 0.402v23.201c0 0.26-0.144 0.402-0.392 0.402h-19.217c-0.248-0.002-0.394-0.142-0.394-0.404v-23.201c0-0.26 0.146-0.402 0.394-0.402z"></path>
<path d="M10.002 8.001h12.002v14.002h-12.002z"></path>
<path d="M8.095 10.002v2h15.908v-2h-14.908zM8.095 14.002v2h15.908v-2h-14.908zM8.095 18.003v2h15.908v-2h-14.908z"></path>
<path d="M12.002 6.001v18.003h2v-18.003zM16.002 6.001v18.003h2v-18.003zM20.003 6.001v18.003h2v-18.003z"></path>
</svg>
