<!-- Generated by IcoMoon.io -->
<svg version="1.1" xmlns="http://www.w3.org/2000/svg" width="32" height="32" viewBox="0 0 32 32">
<title>drive-optical</title>
<path d="M5.001 2c-2.77 0-5.001 2.23-5.001 5.001v16.003c0 2.77 2.23 5.001 5.001 5.001v-4.001c-0.554 0-1-0.446-1-1v-3h24.004v3c0 0.554-0.446 1-1 1v4.001c2.77 0 5.001-2.23 5.001-5.001v-16.003c0-2.77-2.23-5.001-5.001-5.001h-22.004z"></path>
<path d="M5.751 22.081c0 5.383 4.598 9.81 10.233 9.81s10.27-4.427 10.27-9.81h-4.035c0 3.305-2.775 5.956-6.235 5.956s-6.199-2.651-6.199-5.956z"></path>
<path d="M12.002 22.003c0 2.198 1.803 4.001 4.001 4.001s4.001-1.803 4.001-4.001h-2c0 1.117-0.884 2-2 2s-2-0.884-2-2h-2z"></path>
</svg>
