<!-- Generated by IcoMoon.io -->
<svg version="1.1" xmlns="http://www.w3.org/2000/svg" width="32" height="32" viewBox="0 0 32 32">
<title>drive-harddisk-solidstate</title>
<path d="M6.376 0c-2.404 0-4.376 1.975-4.376 4.376v23.253c0 2.4 1.972 4.376 4.376 4.376h19.253c2.404 0 4.376-1.975 4.376-4.376v-23.253c0-2.4-1.972-4.376-4.376-4.376h-19.253zM6.376 4.001h19.253c0.248 0 0.375 0.113 0.375 0.375v23.254c0 0.262-0.127 0.375-0.375 0.375h-19.253c-0.248 0-0.375-0.113-0.375-0.375v-23.253c0-0.262 0.127-0.375 0.375-0.375z"></path>
<path d="M10.002 8.001h12.002v14.002h-12.002v-14.002z"></path>
<path d="M8.126 10.002v2h15.877v-2h-15.877z"></path>
<path d="M8.126 14.002v2h15.877v-2h-15.877z"></path>
<path d="M8.126 18.003v2h15.877v-2h-15.877z"></path>
<path d="M12.002 6.001v18.003h2v-18.003h-2z"></path>
<path d="M16.002 6.001v18.003h2v-18.003h-2z"></path>
<path d="M20.003 6.001v18.003h2v-18.003h-2z"></path>
</svg>
