<!-- Generated by IcoMoon.io -->
<svg version="1.1" xmlns="http://www.w3.org/2000/svg" width="32" height="32" viewBox="0 0 32 32">
<title>drive-multidisk</title>
<path d="M6.392 0c-2.404 0-4.391 2.003-4.391 4.403v15.198c0 2.4 1.988 4.403 4.391 4.403h13.221c2.404 0 4.391-2.003 4.391-4.403v-15.198c0-2.4-1.988-4.403-4.391-4.403h-13.221zM13.002 4.001c3.843 0 7.001 3.158 7.001 7.001s-3.158 7-7.001 7.001h-7.013l0.012-7.001c-0.047-3.843 3.158-7.001 7.001-7.001zM13.002 8.001c-1.681 0-3 1.32-3 3s1.32 3 3 3c1.681 0 3-1.32 3-3s-1.32-3-3-3z"></path>
<path d="M26.004 8.001v19.628c0 0.262-0.127 0.375-0.375 0.375h-13.252c-0.248 0-0.375-0.113-0.375-0.375v-1.625h-4.001v1.625c0 2.4 1.972 4.376 4.376 4.376h13.252c2.404 0 4.376-1.975 4.376-4.376v-15.252c0-2.272-1.773-4.18-4.001-4.376z"></path>
</svg>
