<!-- Generated by IcoMoon.io -->
<svg version="1.1" xmlns="http://www.w3.org/2000/svg" width="32" height="32" viewBox="0 0 32 32">
<title>edit-paste</title>
<path d="M8.062 10.064v13.938h10l3.982-3.974-0.044-9.964h-13.938zM11.060 0.002h8.004c0.585 0 1.060 0.475 1.060 1.060v0 5.88c0 0.585-0.475 1.060-1.060 1.060v0h-8.004c-0.585 0-1.060-0.475-1.060-1.060v0-5.88c0-0.585 0.475-1.060 1.060-1.060v0z"></path>
<path d="M5 2.002c-0.586 0-1.316 0.076-2.024 0.628-0.706 0.554-1.040 1.534-1.040 2.248v24.061c0 0.77 0.264 1.608 0.884 2.228s1.56 0.906 2.38 0.824l-0.2 0.012h19.939c0.726 0 1.492-0.244 2.098-0.8 0.604-0.558 0.964-1.434 0.964-2.262v-24.189c0-0.666-0.266-1.48-0.84-2.020-0.496-0.453-1.158-0.73-1.886-0.73-0.009 0-0.017 0-0.026 0h-3.311v4h2.062v22.001h-18.062v-22.001h1.936v-4z"></path>
</svg>
