<!-- Generated by IcoMoon.io -->
<svg version="1.1" xmlns="http://www.w3.org/2000/svg" width="32" height="32" viewBox="0 0 32 32">
<title>edit-delete</title>
<path d="M16.002 2.062c-0.004 0-0.008 0-0.012 0-7.692 0-13.928 6.236-13.928 13.928 0 0.004 0 0.008 0 0.013v-0.001c0 0.004 0 0.008 0 0.012 0 7.692 6.236 13.928 13.928 13.928 0.004 0 0.008 0 0.013 0h-0.001c0.004 0 0.008 0 0.012 0 7.692 0 13.928-6.236 13.928-13.928 0-0.004 0-0.008 0-0.013v0.001c0-0.004 0-0.008 0-0.012 0-7.692-6.236-13.928-13.928-13.928-0.004 0-0.008 0-0.013 0h0.001zM10.002 10.002h2.062c0.51 0.022 1.020 0.258 1.376 0.626l2.562 2.56 2.624-2.56c0.532-0.462 0.894-0.612 1.376-0.626h2v2c0 0.572-0.068 1.1-0.5 1.5l-2.562 2.562 2.5 2.5c0.376 0.376 0.562 0.908 0.562 1.438v2h-2c-0.53 0-1.060-0.186-1.438-0.562l-2.562-2.562-2.562 2.56c-0.364 0.349-0.859 0.564-1.405 0.564-0.012 0-0.024-0-0.035-0l0.002 0h-2v-2c0-0.53 0.186-1.060 0.562-1.438l2.562-2.5-2.56-2.562c-0.353-0.332-0.573-0.803-0.573-1.325 0-0.062 0.003-0.123 0.009-0.183l-0.001 0.008z"></path>
</svg>
