<!-- Generated by IcoMoon.io -->
<svg version="1.1" xmlns="http://www.w3.org/2000/svg" width="32" height="32" viewBox="0 0 32 32">
<title>edit-find</title>
<path d="M13.018 2c-6.057 0-11.014 4.949-11.014 11.002s4.957 11.002 11.014 11.002 11.012-4.949 11.012-11.002-4.955-11.002-11.012-11.002zM13.018 6.001c0.010-0 0.022-0 0.034-0 3.853 0 6.977 3.124 6.977 6.977 0 0.008 0 0.017-0 0.025v-0.001c0 3.889-3.114 7.001-7.011 7.001-0.011 0-0.023 0-0.036 0-3.853 0-6.977-3.124-6.977-6.977 0-0.008 0-0.017 0-0.025v0.001c0-3.889 3.114-7.001 7.013-7.001z"></path>
<path d="M20.003 17.983c-1.104 0.001-1.998 0.896-1.998 2 0 0.562 0.232 1.070 0.605 1.434l0 0 8.009 8.001c0.364 0.377 0.874 0.611 1.439 0.611 1.105 0 2-0.896 2-2 0-0.565-0.234-1.075-0.61-1.438l-0.001-0.001-8.007-8.001c-0.364-0.374-0.872-0.606-1.434-0.606-0.002 0-0.004 0-0.006 0h0z"></path>
</svg>
