<!-- Generated by IcoMoon.io -->
<svg version="1.1" xmlns="http://www.w3.org/2000/svg" width="32" height="32" viewBox="0 0 32 32">
<title>edit-redo</title>
<path d="M11.002 12.002c-3.86 0.017-6.984 3.141-7.001 6.999v0.002c0 3.843 3.16 7.001 7.001 7.001h1v-4.001h-1c-1.68 0-3-1.32-3-3s1.32-3 3-3h13.002v-4.001z"></path>
<path d="M18.003 6.001v2c0 0.514 0.26 1.056 0.626 1.438l4.561 4.563-4.561 4.563c-0.366 0.38-0.626 0.924-0.626 1.438v2h2c0.62 0 1.104-0.18 1.5-0.562l7.313-7.439-7.313-7.439c-0.396-0.38-0.88-0.562-1.5-0.562z"></path>
</svg>
