<!-- Generated by IcoMoon.io -->
<svg version="1.1" xmlns="http://www.w3.org/2000/svg" width="32" height="32" viewBox="0 0 32 32">
<title>edit-clear-all</title>
<path d="M22.175 0.1c-0.010-0-0.021-0-0.032-0-0.741 0-1.387 0.403-1.733 1.001l-0.005 0.010-6.623 11.252c-0.209 0.311-0.334 0.695-0.334 1.107 0 1.105 0.896 2 2 2 0.767 0 1.434-0.432 1.769-1.066l0.005-0.011 6.627-11.252c0.183-0.296 0.292-0.656 0.292-1.040 0-1.093-0.877-1.982-1.966-2l-0.002-0z"></path>
<path d="M10.44 10.19l9.896 6.109c1.208 0.628 1.64 2.226 0.33 3.194l-1.244 0.432-12.042-7.043 0.036-1.816c0.58-1.17 1.51-1.63 3.024-0.876z"></path>
<path d="M6.109 14.978l11.982 6.951-2.090 3.084c-0.158 0.164-0.256 0.388-0.256 0.635 0 0.327 0.172 0.615 0.43 0.777l0.004 0.002 1.9 1.636h-10.742c-4.381 0-6.395-4.131-4.287-7.781z"></path>
</svg>
