<!-- Generated by IcoMoon.io -->
<svg version="1.1" xmlns="http://www.w3.org/2000/svg" width="32" height="32" viewBox="0 0 32 32">
<title>edit-clear</title>
<path d="M12.002 4.001l-12.002 12.002 12.002 12.002h18.073c1.061-0.044 1.93-0.984 1.93-2v-20.003c0-1.062-0.691-2-2.018-2h-17.985zM14.002 10.002h2c0.021-0 0.042-0.001 0.063 0 0.51 0.022 1.020 0.257 1.375 0.625l2.563 2.563 2.625-2.563c0.531-0.461 0.893-0.611 1.375-0.625h2v2c0 0.573-0.069 1.101-0.5 1.5l-2.563 2.563 2.5 2.5c0.376 0.376 0.563 0.907 0.563 1.438v2h-2c-0.531-0-1.061-0.186-1.438-0.563l-2.563-2.563-2.563 2.563c-0.376 0.376-0.907 0.563-1.438 0.563h-2v-2c0-0.531 0.186-1.061 0.563-1.438l2.563-2.5-2.563-2.563c-0.422-0.389-0.606-0.939-0.563-1.5v-2z"></path>
</svg>
