<!-- Generated by IcoMoon.io -->
<svg version="1.1" xmlns="http://www.w3.org/2000/svg" width="32" height="32" viewBox="0 0 32 32">
<title>edit-undo</title>
<path d="M8.001 12.002v4.001h13.002c1.68 0 3 1.32 3 3s-1.32 3-3 3h-1v4.001h1c3.843 0 7.001-3.158 7.001-7.001s-3.158-7.001-7.001-7.001z"></path>
<path d="M14.002 6.045v2c0 0.514-0.26 1.058-0.626 1.438l-4.561 4.563 4.561 4.563c0.366 0.38 0.626 0.924 0.626 1.44v2h-2c-0.62 0-1.104-0.182-1.5-0.564l-7.313-7.439 7.313-7.439c0.396-0.38 0.88-0.56 1.5-0.56z"></path>
</svg>
