<!-- Generated by IcoMoon.io -->
<svg version="1.1" xmlns="http://www.w3.org/2000/svg" width="32" height="32" viewBox="0 0 32 32">
<title>edit-undo-rtl</title>
<path d="M11.001 12.002c-3.843 0-7.001 3.158-7.001 7.001s3.158 7.001 7.001 7.001h1v-4.001h-1c-1.681 0-3-1.32-3-3s1.32-3 3-3h13.002v-4.001h-13.002z"></path>
<path d="M18.003 6.001v2c0 0.514 0.26 1.057 0.625 1.438l4.563 4.563-4.563 4.563c-0.365 0.381-0.625 0.924-0.625 1.438v2h2c0.619 0 1.105-0.181 1.5-0.563l7.314-7.439-7.314-7.439c-0.395-0.382-0.881-0.563-1.5-0.563z"></path>
</svg>
