<!-- Generated by IcoMoon.io -->
<svg version="1.1" xmlns="http://www.w3.org/2000/svg" width="32" height="32" viewBox="0 0 32 32">
<title>edit-clear-symbolic-rtl</title>
<path d="M20.003 4.001l12.002 12.002-12.002 12.002h-18.073c-1.062-0.069-1.9-0.932-1.93-1.997l-0-0.003v-20.003c0-1.060 0.692-2 2.018-2zM18.003 10.002h-2.062c-0.542 0.031-1.024 0.264-1.376 0.626l-2.563 2.561-2.626-2.56c-0.528-0.462-0.89-0.614-1.374-0.626h-2v2c0 0.572 0.068 1.1 0.5 1.5l2.562 2.562-2.5 2.5c-0.348 0.364-0.562 0.858-0.562 1.403 0 0.012 0 0.025 0 0.037l-0-0.002v2h2c0.53 0 1.060-0.186 1.438-0.562l2.562-2.562 2.562 2.56c0.376 0.378 0.908 0.564 1.438 0.564h2v-2c0-0.53-0.186-1.060-0.562-1.438l-2.562-2.5 2.56-2.562c0.353-0.332 0.573-0.803 0.573-1.325 0-0.062-0.003-0.123-0.009-0.183l0.001 0.008z"></path>
</svg>
