<!-- Generated by IcoMoon.io -->
<svg version="1.1" xmlns="http://www.w3.org/2000/svg" width="32" height="32" viewBox="0 0 32 32">
<title>edit-find-replace</title>
<path d="M11.002-0c-6.052 0-11.002 4.958-11.002 11.002 0 3.998 2.179 7.502 5.402 9.421l2.724-3.045c-2.443-1.083-4.126-3.514-4.126-6.376 0-3.883 3.113-7.001 7.001-7.001 2.795 0 5.191 1.596 6.314 3.938l2.938-2.938c-1.97-3.008-5.406-5.001-9.252-5.001zM20.816 17.94l-2.813 2.813 6.564 6.626c0.736 0.753 2.092 0.768 2.845 0.032s0.768-2.092 0.031-2.845z"></path>
<path d="M6.005 22.003l17.999-18.003c2 0 4.001 2 4.001 4.001l-18.003 18.003h-4.001z"></path>
<path d="M26.004 2c2 0 4.001 2 4.001 4.001l2-2c0-2-1.504-4.001-4.001-4.001z"></path>
</svg>
