<!-- Generated by IcoMoon.io -->
<svg version="1.1" xmlns="http://www.w3.org/2000/svg" width="32" height="32" viewBox="0 0 32 32">
<title>emblem-documents</title>
<path d="M24.004 6.001v4.001h2v18.003h-14.002v4.001h14.002s0.918 0.028 1.894-0.46c0.978-0.49 2.106-1.874 2.106-3.541v-18.003s0.028-0.918-0.46-1.894c-0.49-0.978-1.872-2.106-3.541-2.106z"></path>
<path d="M8.001 28.004c0 2.209 1.791 4.001 4.001 4.001v0-4.001zM7.001 6.001h8.001c0.552 0 1 0.448 1 1s-0.448 1-1 1h-8.001c-0.552 0-1-0.448-1-1s0.448-1 1-1v0zM7.001 14.002h8.001c0.552 0 1 0.448 1 1s-0.448 1-1 1h-8.001c-0.552 0-1-0.448-1-1s0.448-1 1-1v0zM7.001 10.002h6.001c0.552 0 1 0.448 1 1s-0.448 1-1 1h-6.001c-0.552 0-1-0.448-1-1s0.448-1 1-1v0zM7.001 18.003h6.001c0.552 0 1 0.448 1 1s-0.448 1-1 1h-6.001c-0.552 0-1-0.448-1-1s0.448-1 1-1v0z"></path>
<path d="M3 0c-1.628 0-3 1.372-3 3v20.003c0 1.628 1.372 3 3 3h16.002c1.628 0 3-1.372 3-3v-20.003c0-1.628-1.372-3-3-3zM4.001 4.001h14.002v18.003h-14.002z"></path>
</svg>
