<!-- Generated by IcoMoon.io -->
<svg version="1.1" xmlns="http://www.w3.org/2000/svg" width="32" height="32" viewBox="0 0 32 32">
<title>emblem-synchronizing</title>
<path d="M29.808 4.001c-0.099 0.019-0.183 0.041-0.265 0.068l0.015-0.004c-0.894 0.2-1.586 1.084-1.564 2v3.374c0.010 2.626 0.010 2.626-3.124 2.626h-2.876c-1.046 0-2 0.952-2 2-0.008 0.065-0.012 0.141-0.012 0.218s0.004 0.153 0.013 0.227l-0.001-0.009v1.564h12.002v-10.002c0.006-0.056 0.009-0.122 0.009-0.188s-0.003-0.132-0.010-0.196l0.001 0.008v-1.624h-1.624c-0.152-0.041-0.326-0.065-0.506-0.065-0.020 0-0.040 0-0.059 0.001l0.003-0zM0.010 16.002v10.002c-0.006 0.056-0.009 0.122-0.009 0.188s0.003 0.132 0.010 0.196l-0.001-0.008v1.624h1.624c0.184 0.048 0.374 0.068 0.562 0.062 0.086-0.016 0.168-0.036 0.25-0.062 0.894-0.2 1.586-1.084 1.564-2v-3.377c-0.010-2.624-0.010-2.624 3.124-2.624h2.876c1.046 0 2-0.952 2-2 0.008-0.066 0.012-0.142 0.012-0.219s-0.004-0.153-0.013-0.228l0.001 0.009v-1.562z"></path>
<path d="M16.002 2c-6.307 0-11.642 4.253-13.378 10.002h4.189c1.591-3.563 5.102-6.001 9.184-6.001 0.002 0 0.004 0 0.006 0h-0c0.002 0 0.004 0 0.006 0 4.081 0 7.593 2.438 9.158 5.937l0.025 0.064h4.189c-1.738-5.749-7.073-10.002-13.378-10.002zM2.624 20.003c1.738 5.749 7.071 10.002 13.378 10.002s11.642-4.253 13.378-10.002h-4.189c-1.591 3.563-5.102 6.001-9.184 6.001-0.002 0-0.004 0-0.006 0h0c-0.002 0-0.004 0-0.006 0-4.081 0-7.593-2.438-9.158-5.937l-0.025-0.064z"></path>
</svg>
