<!-- Generated by IcoMoon.io -->
<svg version="1.1" xmlns="http://www.w3.org/2000/svg" width="32" height="32" viewBox="0 0 32 32">
<title>emblem-documents</title>
<path d="M4.001 0c-2.182 0-4.001 1.819-4.001 4.001v18.003c0 2.182 1.819 4.001 4.001 4.001h14.002c2.182 0 4.001-1.819 4.001-4.001v-18.003c0-2.182-1.819-4.001-4.001-4.001h-14.002zM4.001 4.001h14.002v18.003h-14.002v-18.003z"></path>
<path d="M24.004 6.001v4.001h2v18.003h-18.003c0 2.182 1.819 4.001 4.001 4.001h14.002c2.182 0 4.001-1.819 4.001-4.001v-18.003c0-2.182-1.819-4.001-4.001-4.001z"></path>
<path d="M7.001 6.001h6.001c0.552 0 1 0.448 1 1s-0.448 1-1 1h-6.001c-0.552 0-1-0.448-1-1s0.448-1 1-1z"></path>
<path d="M7.001 10.002h8.001c0.552 0 1 0.448 1 1s-0.448 1-1 1h-8.001c-0.552 0-1-0.448-1-1s0.448-1 1-1z"></path>
<path d="M7.001 14.002h4.001c0.552 0 1 0.448 1 1s-0.448 1-1 1h-4.001c-0.552 0-1-0.448-1-1s0.448-1 1-1z"></path>
<path d="M7.001 18.003h8.001c0.552 0 1 0.448 1 1s-0.448 1-1 1h-8.001c-0.552 0-1-0.448-1-1s0.448-1 1-1z"></path>
</svg>
