<!-- Generated by IcoMoon.io -->
<svg version="1.1" xmlns="http://www.w3.org/2000/svg" width="32" height="32" viewBox="0 0 32 32">
<title>emoji-recent</title>
<path d="M16.977 0.040c-8.269 0.006-14.971 6.707-14.976 14.976v0.001c0.007 8.268 6.708 14.969 14.976 14.974h0.001c8.267-0.007 14.967-6.707 14.974-14.974v-0.001c-0.006-8.268-6.706-14.969-14.974-14.976h-0.001zM16.977 3.987c0.003 0 0.006 0 0.010 0 6.085 0 11.018 4.933 11.018 11.018 0 0.004 0 0.008 0 0.013v-0.001c0 0.003 0 0.007 0 0.010 0 6.085-4.933 11.018-11.018 11.018-0.004 0-0.007 0-0.011 0h0.001c-0.004 0-0.008 0-0.012 0-6.085 0-11.018-4.933-11.018-11.018 0-0.004 0-0.007 0-0.011v0.001c0-0.004 0-0.008 0-0.012 0-6.085 4.933-11.018 11.018-11.018 0.004 0 0.008 0 0.013 0h-0.001z"></path>
<path d="M22.789 8.015c-0.201 0.054-0.371 0.164-0.499 0.311l-0.001 0.001-5.313 5.313-3.314-3.313c-0.179-0.29-0.494-0.48-0.855-0.48-0.552 0-1 0.448-1 1 0 0.36 0.19 0.676 0.476 0.852l0.004 0.002 4.001 4.001c0.179 0.169 0.421 0.273 0.687 0.273s0.508-0.104 0.688-0.274l-0 0 6.001-6.001c0.176-0.18 0.285-0.427 0.285-0.699 0-0.552-0.448-1-1-1-0.056 0-0.111 0.005-0.164 0.013l0.006-0.001z"></path>
</svg>
