<!-- Generated by IcoMoon.io -->
<svg version="1.1" xmlns="http://www.w3.org/2000/svg" width="32" height="32" viewBox="0 0 32 32">
<title>emoji-symbols</title>
<path d="M30.005 11.534c-0.007-4.152-3.374-7.515-7.527-7.515-0.005 0-0.010 0-0.015 0h0.001c-2.74 0-5.141 1.46-6.461 3.645-1.344-2.199-3.731-3.645-6.456-3.645-0.002 0-0.003 0-0.005 0h0c-0.004 0-0.009 0-0.014 0-4.153 0-7.52 3.363-7.527 7.514v0.001c0 0.001 0 0.003 0 0.004 0 2.158 0.914 4.103 2.376 5.469l0.004 0.004h-0.002l11.452 10.994 11.794-10.994c1.466-1.369 2.38-3.314 2.38-5.472 0-0.002 0-0.004 0-0.005v0z"></path>
</svg>
