<!-- Generated by IcoMoon.io -->
<svg version="1.1" xmlns="http://www.w3.org/2000/svg" width="32" height="32" viewBox="0 0 32 32">
<title>emoji-people</title>
<path d="M16.011 3.998c-3.315 0-6.002 2.687-6.002 6.002s2.687 6.002 6.002 6.002v0c3.315 0 6.002-2.687 6.002-6.002s-2.687-6.002-6.002-6.002v0zM13.010 18.003c-0.006 0-0.013-0-0.020-0-4.961 0-8.983 4.022-8.983 8.983 0 0.007 0 0.014 0 0.021v-0.001 1c0 2.001 2.001 2.001 2.001 2.001h20.007s2.001 0 2.001-2.001v-1c0-0.006 0-0.013 0-0.020 0-4.961-4.022-8.983-8.983-8.983-0.007 0-0.014 0-0.021 0h0.001z"></path>
</svg>
