<!-- Generated by IcoMoon.io -->
<svg version="1.1" xmlns="http://www.w3.org/2000/svg" width="32" height="32" viewBox="0 0 32 32">
<title>emoji-nature</title>
<path d="M12.008 2s-6.001 0-6.001 6.001v10.002s0.088 2.838 0.056 4.001c0 2-1.074 2.826-2.808 4.243-1.254 0.98-1.548 2.62-0.614 3.395 0.86 0.712 2.324 0.608 3.321-0.686l2.040-2.95c1.396-2.028 1.966-3.753 2-6.001l0.006-12.002c0-2 1.994-2 1.994-2v13.15l6.007-6.149v-5.001c0-2 1.994-2 1.994-2l0.006 5.001 3.995-4.071c0.676-0.624 1.006-0.93 2-0.93l0.006 2-8.007 8.001h8.001s0.006 2-2 2h-8.001l-4.001 4.001c0 0.852 0 4.013 4.001 4.013l8.007-0.012s6.001 0 5.995-5.981v-18.023z"></path>
</svg>
