<!-- Generated by IcoMoon.io -->
<svg version="1.1" xmlns="http://www.w3.org/2000/svg" width="32" height="32" viewBox="0 0 32 32">
<title>error-correct</title>
<path d="M5.357 20.585l11.699-11.701 6 6-11.658 11.746-8.054 2.144z"></path>
<path d="M10.028 0.029c-2.667 0-4.55 1.629-5.289 3.105s-0.711 2.895-0.711 2.895v3.172l-0.566-0.566c-0.006-0.006-0.010-0.012-0.016-0.020-0.373-0.373-0.883-0.585-1.414-0.585h-2v2c0 0.53 0.211 1.039 0.586 1.414l5.414 5.414 5.395-5.395c0.387-0.376 0.605-0.894 0.605-1.434v-2h-2c-0.53 0-1.039 0.211-1.414 0.586l-0.586 0.586v-3.172c0 0 0.027-0.583 0.289-1.105s0.378-0.895 1.711-0.895h11.918l-3.324 3.32 6.105 6.105 3.539-3.539c0.615-0.615 0.615-1.604 0-2.219l-3.672-3.668-3.168-2.82c-0.896-0.763-1.774-1.18-3.398-1.18z"></path>
</svg>
