<!-- Generated by IcoMoon.io -->
<svg version="1.1" xmlns="http://www.w3.org/2000/svg" width="32" height="32" viewBox="0 0 32 32">
<title>face-worried</title>
<path d="M16.002 2c-7.733 0-14.002 6.269-14.002 14.002s6.269 14.002 14.002 14.002v0c7.733 0 14.002-6.269 14.002-14.002s-6.269-14.002-14.002-14.002v0zM12.002 10.002c1.116 0 2.062 0.946 2.062 2.062v1.938c0 1.116-0.946 2-2.062 2s-2-0.884-2-2v-1.938c0-1.116 0.884-2.062 2-2.062zM20.003 10.002c1.116 0 2 0.946 2 2.062v1.938c0 1.116-0.884 2-2 2s-2-0.884-2-2v-1.938c0-1.116 0.884-2.062 2-2.062zM26.004 21.889c-1.532-0.856-3.224-1.84-4.953-1.88-1.304 0.040-2.478 1.308-3.048 1.394-1.084 0.628-3.12 0.392-4.001 0-1.834-0.874-1.842-1.36-3.086-1.4-1.706 0.038-3.665 0.808-4.915 1.886v-1c0.844-2.172 4.761-4.091 8.001-1.742 0.7 0.44 0.854 0.534 2.030 0.674 0.32 0.11 1.184-0.068 1.97-0.674 3.164-2.306 6.585-0.238 8.001 1.74z"></path>
</svg>
