<!-- Generated by IcoMoon.io -->
<svg version="1.1" xmlns="http://www.w3.org/2000/svg" width="32" height="32" viewBox="0 0 32 32">
<title>face-monkey</title>
<path d="M15.69 0.062c-2.454 1.468-2.128 3.267-1.812 4.063-3.617 0.538-7.101 2.624-8.251 6.377-0.568-0.424-1.176-0.688-1.876-0.688-2.068 0-3.751 2.168-3.751 4.751 0 2.586 1.682 4.689 3.751 4.689 0.934 0 1.772-0.424 2.438-1.126 5.439-2.546 14.186-2.932 19.753 0.064 0.64 0.644 1.42 1.062 2.312 1.062 2.068 0 3.751-2.102 3.751-4.689 0-2.584-1.682-4.751-3.751-4.751-0.856 0-1.622 0.386-2.25 1-1.014-3.405-3.681-5.821-7.625-6.563-0.34-1.278-0.57-3.833 3.25-3.563-4.341-1.586-5.441 3.251-5.441 3.251-0.53-0.236-1.93-1.278-0.5-3.877zM12.94 10.128c0.76 0 1.438 1.292 1.438 2.936 0 1.646-0.68 3-1.44 3s-1.31-1.354-1.31-3c0-1.644 0.552-2.936 1.312-2.936zM18.941 10.128c0.76 0 1.438 1.292 1.438 2.936 0 1.646-0.68 3-1.44 3s-1.31-1.354-1.31-3c0-1.644 0.552-2.936 1.312-2.936zM4.001 11.938c0.512 0 0.948 0.3 1.312 0.686-0.021 0.267-0.033 0.578-0.033 0.891 0 0.925 0.103 1.825 0.298 2.691l-0.015-0.081c-0.382 0.588-0.904 1-1.562 1-1.144 0-2.062-1.132-2.062-2.56 0-1.43 0.92-2.626 2.062-2.626zM28.066 11.938c1.144 0 2.126 1.194 2.126 2.624s-0.98 2.564-2.126 2.564c-0.744 0-1.318-0.524-1.686-1.252 0.11-0.96 0.072-1.87 0-2.75 0.374-0.7 0.968-1.186 1.686-1.186z"></path>
<path d="M15.94 17.941c-7.761 0-14.064 3.134-14.064 7.001s6.301 7.001 14.062 7.001c7.761 0 14.066-3.134 14.066-7.001s-6.303-7.001-14.064-7.001zM6.001 22.063s0.734 4.063 9.94 4.063c8.773 0 10.19-4.001 10.19-4.001s-0.080 5.959-10.19 5.879c-10.3-0.080-9.94-5.939-9.94-5.939z"></path>
</svg>
