<!-- Generated by IcoMoon.io -->
<svg version="1.1" xmlns="http://www.w3.org/2000/svg" width="32" height="32" viewBox="0 0 32 32">
<title>face-tired</title>
<path d="M16.002 2c-7.733 0-14.002 6.269-14.002 14.002s6.269 14.002 14.002 14.002v0c7.733 0 14.002-6.269 14.002-14.002s-6.269-14.002-14.002-14.002v0zM13.252 13.502c0.362-0.106 0.7 0.126 0.75 0.5 0.003 0.028 0.005 0.060 0.005 0.093 0 0.363-0.235 0.672-0.562 0.781l-5.571 1.626c-0.362 0.106-0.698-0.062-0.748-0.438-0.003-0.028-0.005-0.059-0.005-0.092 0-0.363 0.234-0.67 0.559-0.781l0.006-0.002zM18.503 13.502c0.084-0.012 0.16-0.026 0.25 0l5.563 1.688c0.364 0.106 0.614 0.5 0.562 0.874-0.050 0.376-0.386 0.544-0.748 0.438l-5.567-1.626c-0.331-0.112-0.565-0.42-0.565-0.782 0-0.032 0.002-0.064 0.005-0.096l-0 0.004c0.033-0.262 0.238-0.467 0.497-0.5l0.003-0zM8.813 20.003h14.378c0.442 0 0.812 0.446 0.812 1s-0.37 1-0.812 1h-14.378c-0.442 0-0.812-0.446-0.812-1s0.37-1 0.812-1z"></path>
</svg>
