<!-- Generated by IcoMoon.io -->
<svg version="1.1" xmlns="http://www.w3.org/2000/svg" width="32" height="32" viewBox="0 0 32 32">
<title>face-shutmouth</title>
<path d="M16.002 2c-7.733 0-14.002 6.269-14.002 14.002s6.269 14.002 14.002 14.002v0c7.733 0 14.002-6.269 14.002-14.002s-6.269-14.002-14.002-14.002v0zM12.002 10.002c1.116 0 2.062 0.946 2.062 2.062v1.938c0 1.116-0.946 2-2.062 2s-2-0.884-2-2v-1.938c0-1.116 0.884-2.062 2-2.062zM20.003 10.002c1.116 0 2 0.946 2 2.062v1.938c0 1.116-0.884 2-2 2s-2-0.884-2-2v-1.938c0-1.116 0.884-2.062 2-2.062zM8.001 18.003l8.001 2 8.001-2c0.166 1.18-0.32 2.108-1.342 2.336l-2.658 0.664 2.618 0.654c1.43 0.384 1.382 1.5 1.382 2.346l-8.001-2-8.001 2c-0.13-1.262 0.074-1.966 1.040-2.26l2.96-0.74-3.008-0.67c-0.952-0.256-1.16-1.362-0.992-2.33z"></path>
</svg>
