<!-- Generated by IcoMoon.io -->
<svg version="1.1" xmlns="http://www.w3.org/2000/svg" width="32" height="32" viewBox="0 0 32 32">
<title>face-glasses</title>
<path d="M16.002 2c-5.546 0.002-10.336 3.235-12.592 7.918l-0.036 0.084h5.127c0.712-1.169 1.98-1.938 3.428-1.938 0.004 0 0.007 0 0.011 0h-0.001c1.132 0 2.144 0.488 2.874 1.25 0.4-0.264 0.826-0.312 1.126-0.312 0.33 0 0.788 0.044 1.186 0.312 0.722-0.767 1.743-1.246 2.876-1.25h0.001c0.003 0 0.007 0 0.010 0 1.448 0 2.716 0.769 3.418 1.921l0.010 0.018h5.189c-2.292-4.767-7.082-7.999-12.628-8.001h-0zM11.94 10.063c-1.126 0-2 0.876-2 2v1.938c0 1.126 0.874 2 2 2 1.124 0 2-0.874 2-2v-1.938c0-1.124-0.876-2-2-2zM20.003 10.063c-1.126 0-2 0.876-2 2v1.938c0 1.126 0.874 2 2 2s2-0.874 2-2v-1.938c0-1.124-0.874-2-2-2zM15.94 11.628c0 0.018-0.064 0.042-0.062 0.060 0.012 0.126 0.060 0.248 0.060 0.376v1.938c0 2.2-1.8 4.001-4.001 4.001-2.198 0-4.001-1.8-4.001-4.001v-2h-5.373c-0.358 1.184-0.564 2.546-0.564 3.955 0 0.016 0 0.032 0 0.048v-0.002c0 7.733 6.269 14.002 14.002 14.002s14.002-6.269 14.002-14.002v0c0-0.016 0-0.034 0-0.053 0-1.407-0.205-2.765-0.588-4.048l0.026 0.1h-5.439v2c0 2.2-1.8 4.001-4.001 4.001s-4.001-1.8-4.001-4.001v-1.938c0-0.084-0.006-0.166 0-0.25-0.001-0.018-0.001-0.040-0.001-0.062s0.001-0.043 0.002-0.065l-0 0.003c-0.022-0.020-0.042-0.040-0.061-0.061l-0.001-0.001zM6.001 20.129c1.994 1.272 8.033 1.874 10.002 1.874s7.611 0.060 10.002-1.876v1c0 1.362-3.489 2.814-10.002 2.814s-10.002-1.748-10.002-2.812z"></path>
</svg>
