<!-- Generated by IcoMoon.io -->
<svg version="1.1" xmlns="http://www.w3.org/2000/svg" width="32" height="32" viewBox="0 0 32 32">
<title>face-angel</title>
<path d="M4.376 8.189c-1.51 2.235-2.375 4.914-2.375 7.814 0 7.733 6.269 14.002 14.002 14.002s14.002-6.269 14.002-14.002c0-2.9-0.866-5.579-2.375-7.814-0.398 0.271-0.849 0.502-1.25 0.688-1.701 0.788-3.71 1.125-5.876 1.125h-9.001c-2.166 0-4.175-0.337-5.876-1.125-0.401-0.186-0.852-0.416-1.25-0.688zM12.002 12.002c1.117 0 2.063 0.946 2.063 2.063v1.938c0 1.117-0.946 2-2.063 2s-2-0.883-2-2v-1.938c0-1.117 0.883-2.063 2-2.063zM20.003 12.002c1.117 0 2 0.946 2 2.063v1.938c0 1.117-0.883 2-2 2s-2-0.883-2-2v-1.938c0-1.117 0.883-2.063 2-2.063zM6.001 18.128c1.431 2.149 4.471 3.876 10.002 3.876 4.905 0 8.423-1.501 10.002-3.876v1c0 1.362-1.676 4.813-10.002 4.813-7.763 0-10.002-3.748-10.002-4.813z"></path>
<path d="M11.501 0c-1.918 0-3.654 0.376-5.001 1s-2.5 1.59-2.5 3c0 1.41 1.153 2.376 2.5 3s3.083 1 5.001 1h9.001c1.918 0 3.654-0.376 5.001-1s2.5-1.59 2.5-3c0-1.41-1.153-2.376-2.5-3s-3.083-1-5.001-1h-9.001zM11.501 2h9.001c1.669 0 3.195 0.352 4.188 0.813s1.313 0.936 1.313 1.188c0 0.252-0.32 0.727-1.313 1.188s-2.519 0.813-4.188 0.813h-9.001c-1.669 0-3.195-0.352-4.188-0.813s-1.313-0.936-1.313-1.188c0-0.252 0.319-0.727 1.313-1.188s2.519-0.813 4.188-0.813z"></path>
</svg>
