<!-- Generated by IcoMoon.io -->
<svg version="1.1" xmlns="http://www.w3.org/2000/svg" width="32" height="32" viewBox="0 0 32 32">
<title>face-uncertain</title>
<path d="M16.002 2c-7.733 0-14.002 6.269-14.002 14.002s6.269 14.002 14.002 14.002c7.733 0 14.002-6.269 14.002-14.002s-6.269-14.002-14.002-14.002zM12.002 10.002c1.117 0 2.063 0.946 2.063 2.063v1.938c0 1.117-0.946 2-2.063 2s-2-0.883-2-2v-1.938c0-1.117 0.883-2.063 2-2.063zM20.003 10.002c1.117 0 2 0.946 2 2.063v1.938c0 1.117-0.883 2-2 2s-2-0.883-2-2v-1.938c0-1.117 0.883-2.063 2-2.063zM8.001 18.003l16.002 4.001v2l-16.002-4.001v-2z"></path>
</svg>
