<!-- Generated by IcoMoon.io -->
<svg version="1.1" xmlns="http://www.w3.org/2000/svg" width="32" height="32" viewBox="0 0 32 32">
<title>face-crying</title>
<path d="M16.002 2c-7.733 0-14.002 6.269-14.002 14.002s6.269 14.002 14.002 14.002c7.733 0 14.002-6.269 14.002-14.002s-6.269-14.002-14.002-14.002zM12.002 10.002c1.117 0 2.063 0.82 2.063 1.75v1.563c0 0.931-0.946 1.688-2.063 1.688s-2-0.757-2-1.688v-1.563c0-0.931 0.883-1.75 2-1.75zM20.003 10.002c1.117 0 2 0.757 2 1.688v1.625c0 0.931-0.883 1.688-2 1.688s-2-0.757-2-1.688v-1.625c0-0.931 0.883-1.688 2-1.688zM23.504 14.565c2.416 0.898 4.093 1.873 4.438 3.125s-0.612 2.484-1.875 2.5c-1.038 0.014-1.537-0.431-1.875-1.75-0.334-1.321 0.166-2.585-0.688-3.876zM15.94 19.941c5.177 0 7.939 1.961 7.939 3.125v1.063c-1.585-1.393-6.375-2-7.939-2s-6.038-0.118-7.939 2v-1.063c0-1.49 2.761-3.125 7.939-3.125z"></path>
</svg>
