<!-- Generated by IcoMoon.io -->
<svg version="1.1" xmlns="http://www.w3.org/2000/svg" width="32" height="32" viewBox="0 0 32 32">
<title>face-smirk</title>
<path d="M16.032 2c-7.733 0-14.002 6.269-14.002 14.002s6.269 14.002 14.002 14.002v0c7.733 0 14.002-6.269 14.002-14.002s-6.269-14.002-14.002-14.002v0zM12.032 10.002c1.118 0 2.064 0.946 2.064 2.062v1.938c0 1.116-0.946 2-2.064 2-1.116 0-2-0.884-2-2v-1.94c0-1.116 0.884-2.062 2-2.062zM20.033 10.002c1.118 0 2 0.946 2 2.062v1.938c0 1.116-0.882 2-2 2-1.116 0-2-0.884-2-2v-1.94c0-1.116 0.884-2.062 2-2.062zM7.207 15.44c1.56 6.613 9.387 8.865 15.412 6.575 0.014 1.196-0.39 2.194-2.308 2.572-4.333 0.852-10.324-0.286-13.362-5.189-1.332-2.148-0.254-3.37 0.258-3.961z"></path>
</svg>
