<!-- Generated by IcoMoon.io -->
<svg version="1.1" xmlns="http://www.w3.org/2000/svg" width="32" height="32" viewBox="0 0 32 32">
<title>face-devilish</title>
<path d="M16.002 2c-3.305 0-6.356 1.148-8.751 3.063-2.268-0.888-4.188-1.899-5.376-2.938l-0.187 1.188c-0.067 0.542 0.206 3.026 2.313 5.501-1.264 2.104-2 4.556-2 7.189 0 7.733 6.269 14.002 14.002 14.002s14.002-6.269 14.002-14.002c0-2.582-0.719-4.987-1.938-7.064 2.022-2.437 2.379-4.78 2.313-5.313l-0.187-1.188c-1.158 1.012-2.998 1.942-5.188 2.813-0.012-0.010-0.051 0.010-0.062 0-2.431-2.031-5.525-3.251-8.939-3.251zM12.002 10.002c1.117 0 2.063 0.946 2.063 2.063v1.938c0 1.117-0.946 2-2.063 2s-2-0.883-2-2v-1.938c0-1.117 0.883-2.063 2-2.063zM20.003 10.002c1.117 0 2 0.946 2 2.063v1.938c0 1.117-0.883 2-2 2s-2-0.883-2-2v-1.938c0-1.117 0.883-2.063 2-2.063zM24.004 19.959c-0.058 0.688-1.85 6.007-8.001 6.020-5.578 0.012-8.001-5.118-8.001-5.97z"></path>
</svg>
