<!-- Generated by IcoMoon.io -->
<svg version="1.1" xmlns="http://www.w3.org/2000/svg" width="32" height="32" viewBox="0 0 32 32">
<title>face-laugh</title>
<path d="M16.002 2c-7.733 0-14.002 6.269-14.002 14.002s6.269 14.002 14.002 14.002c7.733 0 14.002-6.269 14.002-14.002s-6.269-14.002-14.002-14.002zM11.064 9.439c1.469 0 2.938 0.892 2.938 2.625-3-0.677-6.251 3.466-6.001 0 0.125-1.733 1.594-2.625 3.063-2.625zM20.941 9.439c1.469 0 2.938 0.892 3.063 2.625 0.25 3.466-3-0.677-6.001 0 0-1.733 1.469-2.625 2.938-2.625zM6.001 18.065c4.001 2.607 15.977 2.607 20.066 0l-0.062 1.063c-0.073 0.86-2 6.751-10.002 6.814s-10.002-5.561-10.002-6.626v-1.25z"></path>
</svg>
