<!-- Generated by IcoMoon.io -->
<svg version="1.1" xmlns="http://www.w3.org/2000/svg" width="32" height="32" viewBox="0 0 32 32">
<title>face-angel</title>
<path d="M4.377 8.189c-1.488 2.178-2.376 4.868-2.376 7.766 0 0.017 0 0.033 0 0.050v-0.003c0 7.733 6.269 14.002 14.002 14.002s14.002-6.269 14.002-14.002v0c0-2.9-0.866-5.579-2.376-7.813-0.396 0.27-0.848 0.5-1.248 0.686-1.7 0.79-3.711 1.126-5.877 1.126h-9.001c-2.166 0-4.175-0.336-5.877-1.126-0.483-0.219-0.893-0.448-1.281-0.706l0.032 0.020zM12.002 12.002c1.116 0 2.062 0.946 2.062 2.062v1.938c0 1.116-0.946 2-2.062 2s-2-0.884-2-2v-1.938c0-1.116 0.884-2.062 2-2.062zM20.003 12.002c1.116 0 2 0.946 2 2.062v1.938c0 1.116-0.884 2-2 2s-2-0.884-2-2v-1.938c0-1.116 0.884-2.062 2-2.062zM6.001 18.129c1.43 2.146 4.471 3.875 10.002 3.875 4.905 0 8.421-1.5 10.002-3.877v1c0 1.362-1.676 4.815-10.002 4.815-7.761 0-10.002-3.749-10.002-4.813z"></path>
<path d="M11.474 0c-1.916 0-3.653 0.344-5.001 0.968-1.346 0.624-2.472 1.622-2.472 3.032s1.126 2.408 2.472 3.032c1.348 0.624 3.084 0.968 5.001 0.968h9.057c1.916 0 3.653-0.344 5.001-0.968 1.346-0.624 2.472-1.622 2.472-3.032s-1.126-2.408-2.472-3.032c-1.348-0.624-3.084-0.968-5.001-0.968zM11.474 2h9.057c1.668 0 3.166 0.324 4.161 0.786 0.992 0.46 1.312 0.962 1.312 1.214s-0.32 0.754-1.312 1.214c-0.994 0.46-2.492 0.786-4.161 0.786h-9.057c-1.668 0-3.166-0.324-4.161-0.786-0.992-0.46-1.312-0.962-1.312-1.214s0.32-0.754 1.312-1.214c0.994-0.46 2.492-0.786 4.161-0.786z"></path>
</svg>
