<!-- Generated by IcoMoon.io -->
<svg version="1.1" xmlns="http://www.w3.org/2000/svg" width="32" height="32" viewBox="0 0 32 32">
<title>face-embarrassed</title>
<path d="M16.002 2c-7.733 0-14.002 6.269-14.002 14.002s6.269 14.002 14.002 14.002c7.733 0 14.002-6.269 14.002-14.002s-6.269-14.002-14.002-14.002zM11.064 12.355c1.469 0 2.938 0.892 2.938 2.625-3-0.677-6.251 3.466-6.001 0 0.125-1.733 1.594-2.625 3.063-2.625zM20.941 12.355c1.469 0 2.938 0.892 3.063 2.625 0.25 3.466-3-0.677-6.001 0 0-1.733 1.469-2.625 2.938-2.625zM8.941 17.472c0.83 0 1.5 0.67 1.5 1.5s-0.67 1.5-1.5 1.5c-0.83 0-1.5-0.67-1.5-1.5s0.67-1.5 1.5-1.5zM22.976 17.472c0.83 0 1.5 0.67 1.5 1.5s-0.67 1.5-1.5 1.5c-0.83 0-1.5-0.67-1.5-1.5s0.67-1.5 1.5-1.5zM14.794 21.998h2.344c0.412 0 1.094 0.446 1.094 1s-0.681 1.031-1.094 1.031h-2.344c-0.412 0-0.969-0.477-0.969-1.031s0.556-1 0.969-1z"></path>
</svg>
