<!-- Generated by IcoMoon.io -->
<svg version="1.1" xmlns="http://www.w3.org/2000/svg" width="32" height="32" viewBox="0 0 32 32">
<title>face-crying</title>
<path d="M16.002 2c-7.733 0-14.002 6.269-14.002 14.002s6.269 14.002 14.002 14.002v0c7.733 0 14.002-6.269 14.002-14.002s-6.269-14.002-14.002-14.002v0zM12.002 10.002c1.116 0 2.062 0.82 2.062 1.75v1.562c0 0.932-0.946 1.688-2.062 1.688s-2-0.756-2-1.688v-1.562c0-0.93 0.884-1.75 2-1.75zM20.003 10.002c1.116 0 2 0.756 2 1.688v1.624c0 0.932-0.884 1.688-2 1.688s-2-0.756-2-1.688v-1.624c0-0.932 0.884-1.688 2-1.688zM23.504 14.564c2.416 0.898 4.093 1.874 4.439 3.126 0.043 0.154 0.068 0.332 0.068 0.515 0 1.082-0.865 1.962-1.942 1.986l-0.002 0c-1.038 0.014-1.536-0.432-1.874-1.75-0.334-1.32 0.166-2.586-0.688-3.877zM15.94 19.943c5.177 0 7.939 1.96 7.939 3.124v1.062c-1.586-1.392-6.375-2-7.941-2-1.562 0-6.037-0.116-7.937 2v-1.060c0-1.49 2.76-3.126 7.939-3.126z"></path>
</svg>
