<!-- Generated by IcoMoon.io -->
<svg version="1.1" xmlns="http://www.w3.org/2000/svg" width="32" height="32" viewBox="0 0 32 32">
<title>face-glasses</title>
<path d="M16.002 2c-5.583 0-10.378 3.274-12.627 8.001h5.126c0.701-1.168 1.985-1.938 3.438-1.938 1.132 0 2.146 0.487 2.875 1.25 0.401-0.265 0.825-0.313 1.125-0.313 0.331 0 0.788 0.044 1.188 0.313 0.73-0.763 1.744-1.25 2.875-1.25 1.453 0 2.737 0.77 3.438 1.938h5.188c-2.249-4.727-7.044-8.001-12.627-8.001zM11.939 10.064c-1.125 0-2 0.875-2 2v1.938c0 1.125 0.875 2 2 2s2-0.875 2-2v-1.938c0-1.125-0.875-2-2-2zM20.003 10.064c-1.125 0-2 0.875-2 2v1.938c0 1.125 0.875 2 2 2s2-0.875 2-2v-1.938c0-1.125-0.875-2-2-2zM15.94 11.627c0.002 0.018-0.064 0.044-0.062 0.062 0.012 0.125 0.062 0.247 0.062 0.375v1.938c0 2.199-1.802 4.001-4.001 4.001s-4.001-1.802-4.001-4.001v-1.938c0-0.021-0-0.042 0-0.062h-5.376c-0.373 1.261-0.563 2.618-0.563 4.001 0 7.733 6.269 14.002 14.002 14.002s14.002-6.269 14.002-14.002c0-1.383-0.189-2.739-0.563-4.001h-5.438c0 0.021 0 0.041 0 0.062v1.938c0 2.199-1.802 4.001-4.001 4.001s-4.001-1.802-4.001-4.001v-1.938c0-0.084-0.006-0.167 0-0.25-0.002-0.042-0.002-0.083 0-0.125-0.022-0.020-0.043-0.041-0.062-0.062zM6.001 20.128c1.993 1.274 8.034 1.875 10.002 1.875s7.61 0.062 10.002-1.875v1c0 1.362-3.489 2.813-10.002 2.813s-10.002-1.748-10.002-2.813z"></path>
</svg>
