<!-- Generated by IcoMoon.io -->
<svg version="1.1" xmlns="http://www.w3.org/2000/svg" width="32" height="32" viewBox="0 0 32 32">
<title>face-sick</title>
<path d="M16.002 2c-7.733 0-14.002 6.269-14.002 14.002s6.269 14.002 14.002 14.002v0c7.733 0 14.002-6.269 14.002-14.002s-6.269-14.002-14.002-14.002v0zM8.627 9.377c0.001 0 0.002 0 0.003 0 0.090 0 0.176 0.022 0.25 0.061l-0.003-0.001 2.25 1.314 2.312-1.312c0.33-0.184 0.68-0.042 0.812 0.312 0.026 0.078 0.041 0.168 0.041 0.262 0 0.311-0.164 0.584-0.411 0.736l-0.004 0.002-1.44 0.812 1.44 0.812c0.224 0.133 0.371 0.374 0.371 0.648 0 0.105-0.022 0.206-0.061 0.297l0.002-0.005c-0.138 0.352-0.484 0.436-0.812 0.248l-2.25-1.25-2.314 1.25c-0.33 0.184-0.68 0.106-0.812-0.25-0.026-0.078-0.040-0.168-0.040-0.261 0-0.312 0.165-0.585 0.413-0.737l0.004-0.002 1.374-0.812-1.374-0.75c-0.33-0.188-0.512-0.648-0.376-1 0.092-0.224 0.309-0.379 0.562-0.379 0.023 0 0.045 0.001 0.067 0.004l-0.003-0zM18.941 9.377c0.001 0 0.002 0 0.003 0 0.090 0 0.176 0.022 0.25 0.061l-0.003-0.001 2.25 1.314 2.312-1.312c0.33-0.184 0.68-0.042 0.812 0.312 0.026 0.078 0.041 0.168 0.041 0.262 0 0.311-0.164 0.584-0.411 0.736l-0.004 0.002-1.438 0.812 1.438 0.812c0.328 0.188 0.51 0.586 0.374 0.94-0.136 0.352-0.546 0.436-0.874 0.248l-2.25-1.312-2.312 1.312c-0.332 0.184-0.68 0.106-0.814-0.25-0.026-0.078-0.040-0.168-0.040-0.261 0-0.312 0.165-0.585 0.413-0.737l0.004-0.002 1.438-0.812-1.44-0.812c-0.326-0.188-0.51-0.586-0.374-0.94 0.093-0.223 0.309-0.378 0.561-0.378 0.023 0 0.045 0.001 0.067 0.004l-0.003-0zM10.252 18.063c0.141-0.013 0.305-0.020 0.471-0.020 1.235 0 2.376 0.407 3.294 1.095l-0.014-0.010c0.7 0.44 0.826 0.548 2 0.688 0.32 0.112 1.214-0.080 2-0.688 0.56-0.408 1.122-0.59 1.688-0.748 2.618-0.736 5.149 0.872 6.313 2.5v1c-1.022-0.572-2.12-1.196-3.25-1.564l0.938 1.876c0.656 1.294 0.264 2.798-0.876 3.375-1.14 0.578-2.594-0.018-3.25-1.312l-1.186-2.312c-0.102-0.202-0.136-0.418-0.188-0.626-0.052 0.023-0.115 0.044-0.18 0.060l-0.008 0.002c-1.082 0.628-3.12 0.394-4.001 0-1.834-0.874-1.818-1.334-3.062-1.374-1.706 0.038-3.687 0.798-4.939 1.874v-1c0.528-1.356 2.238-2.632 4.251-2.812z"></path>
</svg>
