<!-- Generated by IcoMoon.io -->
<svg version="1.1" xmlns="http://www.w3.org/2000/svg" width="32" height="32" viewBox="0 0 32 32">
<title>face-embarrassed</title>
<path d="M16.002 2c-7.733 0-14.002 6.269-14.002 14.002s6.269 14.002 14.002 14.002v0c7.733 0 14.002-6.269 14.002-14.002s-6.269-14.002-14.002-14.002v0zM11.064 12.356c1.47 0 2.938 0.892 2.938 2.624-3-0.676-6.251 3.467-6.001 0 0.126-1.732 1.594-2.624 3.062-2.624zM20.941 12.356c1.468 0 2.938 0.892 3.062 2.624 0.25 3.467-3-0.676-6.001 0 0-1.732 1.468-2.624 2.938-2.624zM8.939 17.473c0.829 0 1.5 0.672 1.5 1.5s-0.672 1.5-1.5 1.5v0c-0.829 0-1.5-0.672-1.5-1.5s0.672-1.5 1.5-1.5v0zM22.975 17.473c0.829 0 1.5 0.672 1.5 1.5s-0.672 1.5-1.5 1.5v0c-0.829 0-1.5-0.672-1.5-1.5s0.672-1.5 1.5-1.5v0zM14.794 21.997h2.344c0.412 0 1.094 0.446 1.094 1s-0.68 1.032-1.094 1.032h-2.344c-0.412 0-0.968-0.478-0.968-1.032s0.556-1 0.968-1z"></path>
</svg>
