<!-- Generated by IcoMoon.io -->
<svg version="1.1" xmlns="http://www.w3.org/2000/svg" width="32" height="32" viewBox="0 0 32 32">
<title>face-plain</title>
<path d="M16.002 2c-7.733 0-14.002 6.269-14.002 14.002s6.269 14.002 14.002 14.002c7.733 0 14.002-6.269 14.002-14.002s-6.269-14.002-14.002-14.002zM12.002 10.002c1.117 0 2.063 0.946 2.063 2.063v1.938c0 1.117-0.946 2-2.063 2s-2-0.883-2-2v-1.938c0-1.117 0.883-2.063 2-2.063zM20.003 10.002c1.117 0 2 0.946 2 2.063v1.938c0 1.117-0.883 2-2 2s-2-0.883-2-2v-1.938c0-1.117 0.883-2.063 2-2.063zM7.001 20.003h18.003c0.554 0 1 0.446 1 1s-0.446 1-1 1h-18.003c-0.554 0-1-0.446-1-1s0.446-1 1-1z"></path>
</svg>
