<!-- Generated by IcoMoon.io -->
<svg version="1.1" xmlns="http://www.w3.org/2000/svg" width="32" height="32" viewBox="0 0 32 32">
<title>face-kiss</title>
<path d="M16.002 2c-7.733 0-14.002 6.269-14.002 14.002s6.269 14.002 14.002 14.002c7.733 0 14.002-6.269 14.002-14.002s-6.269-14.002-14.002-14.002zM11.064 10.002c1.469 0 2.938 0.45 2.938 2.183-5.122-1.207-4.837 3.378-6.001 0.442-0.641-1.615 1.594-2.625 3.063-2.625zM20.941 10.002c1.469 0 3.41 0.923 3.063 2.625-0.634 3.113-1.056-1.915-6.001-0.442 0-1.733 1.469-2.183 2.938-2.183zM14.002 16.002c0.821-0.020 1.499 0.267 2.063 0.688 0.564-0.42 1.305-0.713 2.125-0.688 1.263 0.040 1.813 1.52 1.813 2.375-0.001 1.55 0.951 1.53 2 1.657-1.268 0.302-1.975 2.45-1.969 3.532 0.010 1.945-1.861 2.512-4.032 2.5-2.171-0.008-3.975-0.503-3.969-2.469 0.002-0.815-0.705-3.182-2.063-3.532 1.358-0.186 2.032-0.5 2.032-1.719 0-1.618 1.058-2.321 2-2.344z"></path>
<path d="M18.003 20.552c-0.339 0.16-0.642 0.32-0.644 0.544-0.036 0.54-0.749 0.962-1.344 0.959-0.596-0.002-1.188-0.419-1.188-0.959 0.002-0.224-0.223-0.379-0.544-0.544 1.058-0.791 2.506-0.677 3.72 0z"></path>
</svg>
