<!-- Generated by IcoMoon.io -->
<svg version="1.1" xmlns="http://www.w3.org/2000/svg" width="32" height="32" viewBox="0 0 32 32">
<title>face-surprise</title>
<path d="M16.002 2c-7.733 0-14.002 6.269-14.002 14.002s6.269 14.002 14.002 14.002v0c7.733 0 14.002-6.269 14.002-14.002s-6.269-14.002-14.002-14.002v0zM12.002 10.002c1.116 0 2.062 0.946 2.062 2.062v1.938c0 1.116-0.946 2-2.062 2s-2-0.884-2-2v-1.938c0-1.116 0.884-2.062 2-2.062zM20.003 10.002c1.116 0 2 0.946 2 2.062v1.938c0 1.116-0.884 2-2 2s-2-0.884-2-2v-1.938c0-1.116 0.884-2.062 2-2.062zM16.002 19.191c2.12 0 3.861 1.84 3.877 4.063 0 2.232-1.746 4.063-3.877 4.063s-3.875-1.83-3.875-4.063 1.744-4.063 3.875-4.063z"></path>
</svg>
