<!-- Generated by IcoMoon.io -->
<svg version="1.1" xmlns="http://www.w3.org/2000/svg" width="32" height="32" viewBox="0 0 32 32">
<title>face-devilish</title>
<path d="M16.002 2c-0.005 0-0.011 0-0.017 0-3.317 0-6.364 1.155-8.761 3.084l0.027-0.021c-2.268-0.888-4.187-1.898-5.377-2.938l-0.186 1.188c-0.068 0.542 0.206 3.028 2.312 5.501-1.256 2.049-2 4.531-2 7.185 0 0.001 0 0.003 0 0.004v-0c0 7.733 6.269 14.002 14.002 14.002s14.002-6.269 14.002-14.002v0c0-2.58-0.72-4.987-1.938-7.063 2.022-2.436 2.38-4.781 2.314-5.315l-0.188-1.186c-1.158 1.012-2.998 1.94-5.189 2.812-0.012-0.010-0.052 0.010-0.062 0-2.392-2.022-5.51-3.251-8.916-3.251-0.008 0-0.017 0-0.025 0h0.001zM12.002 10.002c1.116 0 2.062 0.946 2.062 2.062v1.938c0 1.116-0.946 2-2.062 2s-2-0.884-2-2v-1.938c0-1.116 0.884-2.062 2-2.062zM20.003 10.002c1.116 0 2 0.946 2 2.062v1.938c0 1.116-0.884 2-2 2s-2-0.884-2-2v-1.938c0-1.116 0.884-2.062 2-2.062zM24.004 19.959c-0.060 0.688-1.85 6.007-8.001 6.021-5.579 0.012-8.001-5.119-8.001-5.971z"></path>
</svg>
