<!-- Generated by IcoMoon.io -->
<svg version="1.1" xmlns="http://www.w3.org/2000/svg" width="32" height="32" viewBox="0 0 32 32">
<title>face-yawn</title>
<path d="M16.002 2c-7.733 0-14.002 6.269-14.002 14.002s6.269 14.002 14.002 14.002v0c7.733 0 14.002-6.269 14.002-14.002s-6.269-14.002-14.002-14.002v0zM11.064 8.001c1.47 0 2.938 0.892 2.938 2.626-3-0.678-6.251 3.465-6.001 0 0.126-1.734 1.594-2.626 3.062-2.626zM20.941 8.001c1.468 0 2.938 0.892 3.062 2.626 0.25 3.465-3-0.678-6.001 0 0-1.734 1.468-2.626 2.938-2.626zM16.002 14.002c2.76 0 5.001 2.686 5.001 6.001s-2.24 6.001-5.001 6.001-5.001-2.686-5.001-6.001 2.24-6.001 5.001-6.001z"></path>
</svg>
