<!-- Generated by IcoMoon.io -->
<svg version="1.1" xmlns="http://www.w3.org/2000/svg" width="32" height="32" viewBox="0 0 32 32">
<title>face-tired</title>
<path d="M16.002 2c-7.733 0-14.002 6.269-14.002 14.002s6.269 14.002 14.002 14.002c7.733 0 14.002-6.269 14.002-14.002s-6.269-14.002-14.002-14.002zM13.252 13.502c0.363-0.107 0.699 0.125 0.75 0.5s-0.2 0.768-0.563 0.875l-5.563 1.625c-0.363 0.107-0.699-0.063-0.75-0.438s0.2-0.768 0.563-0.875l5.563-1.688zM18.503 13.502c0.083-0.012 0.159-0.027 0.25 0l5.563 1.688c0.363 0.107 0.614 0.5 0.563 0.875s-0.387 0.544-0.75 0.438l-5.563-1.625c-0.363-0.107-0.614-0.5-0.563-0.875 0.038-0.281 0.251-0.467 0.5-0.5zM8.814 20.003h14.377c0.443 0 0.813 0.446 0.813 1s-0.369 1-0.813 1h-14.377c-0.443 0-0.813-0.446-0.813-1s0.369-1 0.813-1z"></path>
</svg>
