<!-- Generated by IcoMoon.io -->
<svg version="1.1" xmlns="http://www.w3.org/2000/svg" width="32" height="32" viewBox="0 0 32 32">
<title>find-location</title>
<path d="M14 0v2.062c-6.343 0.56-11.351 5.59-11.873 11.893l-0.003 0.047h-2.126v2h2.126c0.524 6.35 5.533 11.381 11.826 11.936l0.050 0.004v2.062h2v-2.062c6.377-0.468 11.45-5.561 11.94-11.94h2.062v-2h-2.060c-0.492-6.379-5.563-11.536-11.942-12.002v-2zM15.062 5.627c0.014-0 0.031-0 0.048-0 5.154 0 9.331 4.178 9.331 9.331 0 0.016-0 0.031-0 0.047v-0.002c0 0.014 0 0.030 0 0.046 0 5.154-4.178 9.331-9.331 9.331-0.016 0-0.032-0-0.049-0h0.002c-5.213 0-9.501-4.165-9.501-9.377s4.289-9.377 9.501-9.377zM15.002 8.001c-3.867 0-7.001 3.134-7.001 7.001s3.134 7.001 7.001 7.001v0c3.867 0 7.001-3.134 7.001-7.001s-3.134-7.001-7.001-7.001v0z"></path>
</svg>
