<!-- Generated by IcoMoon.io -->
<svg version="1.1" xmlns="http://www.w3.org/2000/svg" width="32" height="32" viewBox="0 0 32 32">
<title>focus-legacy-systray</title>
<path d="M15.876 3.999l-15.872 0.020-0.004 23.945h19.944l0.054-19.841c0-2.251-1.872-4.123-4.121-4.123zM6.038 10.001h2.001c0.62 0 1.104 0.18 1.5 0.562l5.313 5.44-5.313 5.439c-0.396 0.38-0.88 0.562-1.5 0.562h-2.001v-2.001c0-0.514 0.26-1.056 0.624-1.438l2.563-2.563-2.561-2.563c-0.368-0.38-0.626-0.924-0.626-1.438z"></path>
<path d="M19.977 4.061s2.065 0.968 2.065 3.939v20.005h1.969v-20.006c0-2.501-4.033-3.939-4.033-3.939zM23.947 4.061s2.065 0.968 2.065 3.939v20.005h2.001v-20.006c0-2.501-4.063-3.939-4.063-3.939z"></path>
</svg>
