<!-- Generated by IcoMoon.io -->
<svg version="1.1" xmlns="http://www.w3.org/2000/svg" width="32" height="32" viewBox="0 0 32 32">
<title>folder-music</title>
<path d="M7.001 16.002c-3.86 0.017-6.984 3.141-7.001 6.999v0.002c0 3.843 3.158 7.001 7.001 7.001s7.001-3.158 7.001-7.001-3.158-7.001-7.001-7.001zM7.001 20.003c1.68 0 3 1.32 3 3s-1.32 3-3 3-3-1.32-3-3 1.32-3 3-3zM23.003 16.002c-3.86 0.017-6.984 3.141-7.001 6.999v0.002c0 3.843 3.158 7.001 7.001 7.001s7.001-3.158 7.001-7.001-3.158-7.001-7.001-7.001zM23.003 20.003c1.68 0 3 1.32 3 3s-1.32 3-3 3-3-1.32-3-3 1.32-3 3-3z"></path>
<path d="M10.002 4.001v19.003h4.001v-15.002h12.002v15.002h4.001v-19.003z"></path>
</svg>
