<!-- Generated by IcoMoon.io -->
<svg version="1.1" xmlns="http://www.w3.org/2000/svg" width="32" height="32" viewBox="0 0 32 32">
<title>folder-pictures</title>
<path d="M12.087 3.997c-1.099 0-1.999 0.9-1.999 1.999v1.999h-5.997c-1.103 0-1.999 0.9-1.999 1.999v15.991c0 1.099 0.896 1.999 1.999 1.999h23.987c1.103 0 1.999-0.899 1.999-1.999v-15.991c0-1.099-0.895-1.999-1.999-1.999h-5.997v-1.999c0-1.099-0.899-1.999-1.999-1.999zM16.085 9.994c4.416 0 7.996 3.58 7.996 7.996s-3.58 7.996-7.996 7.996v0c-4.416 0-7.996-3.58-7.996-7.996s3.58-7.996 7.996-7.996v0zM16.085 13.991c-2.208 0-3.998 1.79-3.998 3.998s1.79 3.998 3.998 3.998v0c2.208 0 3.998-1.79 3.998-3.998s-1.79-3.998-3.998-3.998v0z"></path>
</svg>
