<!-- Generated by IcoMoon.io -->
<svg version="1.1" xmlns="http://www.w3.org/2000/svg" width="32" height="32" viewBox="0 0 32 32">
<title>folder-saved-search</title>
<path d="M13.017 1.991c-6.059 0-11.023 4.959-11.023 11.011s4.965 11.011 11.023 11.011c6.059 0 11.023-4.959 11.023-11.011s-4.965-11.011-11.023-11.011zM13.017 6.010c3.895 0 7 3.101 7 6.992s-3.105 6.992-7 6.992c-3.895 0-7-3.101-7-6.992s3.105-6.992 7-6.992z"></path>
<path d="M19.627 18.003c-0.941 0.175-1.643 0.99-1.643 1.968 0 0.58 0.247 1.103 0.642 1.468l0.001 0.001 8.001 8.001c0.362 0.355 0.859 0.574 1.407 0.574 1.111 0 2.011-0.9 2.011-2.011 0-0.563-0.232-1.073-0.605-1.438l-0-0-8.001-8.001c-0.363-0.37-0.869-0.6-1.428-0.6-0.136 0-0.269 0.014-0.397 0.039l0.013-0.002z"></path>
</svg>
