<!-- Generated by IcoMoon.io -->
<svg version="1.1" xmlns="http://www.w3.org/2000/svg" width="32" height="32" viewBox="0 0 32 32">
<title>folder-new</title>
<path d="M24.004 18.009v3.995h-4.001v3.995h4.001v3.993h4.001v-3.993h4.001v-3.995h-4.001v-3.995z"></path>
<path d="M4.001 2c-1.666 0-3.050 1.128-3.541 2.106-0.486 0.974-0.46 1.894-0.46 1.894v20.003c0 1.666 1.128 3.050 2.106 3.541 0.976 0.488 1.894 0.46 1.894 0.46h12.002s2 0 2-2-2-2-2-2h-12.002v-20.003h9.173l4.001 4.001h10.83v4.001c0 2 2 2 2 2s2 0 2-2v-4.001s0.028-0.918-0.46-1.894c-0.49-0.978-1.874-2.106-3.541-2.106h-9.173l-4.001-4.001z"></path>
</svg>
