<!-- Generated by IcoMoon.io -->
<svg version="1.1" xmlns="http://www.w3.org/2000/svg" width="32" height="32" viewBox="0 0 32 32">
<title>folder-open</title>
<path d="M2 2c-1.105 0-2 0.896-2 2v0 22.003s-0.028 0.918 0.46 1.894c0.492 0.978 1.876 2.106 3.541 2.106h3.665c0.098 0.017 0.211 0.027 0.326 0.027s0.228-0.010 0.338-0.028l-0.012 0.002h19.687s0.918 0.028 1.894-0.46c0.978-0.49 2.106-1.874 2.106-3.541v-8.001c0-1.105-0.896-2-2-2v0h-22.003c-1.105 0-2 0.896-2 2v0 8.001h-2v-20.003h7.173l3.415 3.415c0.362 0.362 0.862 0.586 1.414 0.586h-2c-1.105 0-2 0.896-2 2s0.896 2 2 2v0h12.002c1.105 0 2-0.896 2-2v0-4.001c0-1.105-0.896-2-2-2v0h-9.173l-3.415-3.414c-0.362-0.362-0.862-0.586-1.414-0.586h-0zM10.002 20.003h18.003v6.001h-18.003z"></path>
<path d="M2 16.002h2s0-2 2-2h16.002l-10.002-10.002h-10.002z"></path>
<path d="M8.001 18.003h22.003v10.002h-22.003zM26.004 12.002h2v2h-2zM30.005 16.002h2v2h-2zM6.001 16.002h2v2h-2z"></path>
</svg>
