<!-- Generated by IcoMoon.io -->
<svg version="1.1" xmlns="http://www.w3.org/2000/svg" width="32" height="32" viewBox="0 0 32 32">
<title>folder-new</title>
<path d="M24 18.006v3.994h-4v3.993h4v3.993h4v-3.993h4v-3.993h-4v-3.994z"></path>
<path d="M4 2c-1.667 0-3.051 1.128-3.539 2.105s-0.461 1.895-0.461 1.895v20c0 1.667 1.128 3.051 2.105 3.539s1.895 0.461 1.895 0.461h12c0 0 2 0 2-2s-2-2-2-2h-12v-20h9.172l4 4h10.828v4c0 2 2 2 2 2s2 0 2-2v-4c0 0 0.028-0.918-0.461-1.895s-1.872-2.105-3.539-2.105h-9.172l-4-4z"></path>
</svg>
