<!-- Generated by IcoMoon.io -->
<svg version="1.1" xmlns="http://www.w3.org/2000/svg" width="32" height="32" viewBox="0 0 32 32">
<title>folder-download</title>
<path d="M6.062 15.99c-1.104 0-2 0.896-2 2 0 0.552 0.224 1.052 0.586 1.414l10 10c0.362 0.362 0.862 0.586 1.414 0.586s1.052-0.224 1.414-0.586l10-10c0.362-0.362 0.586-0.862 0.586-1.414 0-1.104-0.895-2-1.999-2h-1c-0.552 0-1.052 0.224-1.414 0.586l-7.586 7.586-7.586-7.586c-0.362-0.362-0.862-0.586-1.414-0.586h-0z"></path>
<path d="M6.062 17.99v-2h-2v2zM28.061 17.99v-2h-2v2zM18.061 16.99v-2c0-0.554-0.446-1-1-1h-2c-0.554 0-1 0.446-1 1v2c0 0.554 0.446 1 1 1h2c0.554 0 1-0.446 1-1zM18.061 10.991v-2c0-0.554-0.446-1-1-1h-2c-0.554 0-1 0.446-1 1v2c0 0.554 0.446 1 1 1h2c0.554 0 1-0.446 1-1zM18.061 4.991v-2c0-0.554-0.446-1-1-1h-2c-0.554 0-1 0.446-1 1v2c0 0.554 0.446 1 1 1h2c0.554 0 1-0.446 1-1z"></path>
</svg>
