<!-- Generated by IcoMoon.io -->
<svg version="1.1" xmlns="http://www.w3.org/2000/svg" width="32" height="32" viewBox="0 0 32 32">
<title>folder-download</title>
<path d="M4.001 16.009v2c-0 0.021-0.001 0.042 0 0.063 0.022 0.51 0.257 1.020 0.625 1.375l10.439 10.564 1.938-0.006 10.439-10.558c0.376-0.376 0.563-0.907 0.563-1.438v-2h-3.415c-0.531 0-1.061 0.186-1.438 0.563l-7.113 7.69-0.006 0.281-0.037-0.281-7.17-7.69c-0.389-0.422-0.939-0.606-1.5-0.563z"></path>
<path d="M15.002 14.002h2c0.552 0 1 0.448 1 1v2c0 0.552-0.448 1-1 1h-2c-0.552 0-1-0.448-1-1v-2c0-0.552 0.448-1 1-1z"></path>
<path d="M15.002 2h2c0.552 0 1 0.448 1 1v2c0 0.552-0.448 1-1 1h-2c-0.552 0-1-0.448-1-1v-2c0-0.552 0.448-1 1-1z"></path>
<path d="M15.002 8.001h2c0.552 0 1 0.403 1 0.9v2.2c0 0.497-0.448 0.9-1 0.9h-2c-0.552 0-1-0.403-1-0.9v-2.2c0-0.497 0.448-0.9 1-0.9z"></path>
</svg>
