<!-- Generated by IcoMoon.io -->
<svg version="1.1" xmlns="http://www.w3.org/2000/svg" width="32" height="32" viewBox="0 0 32 32">
<title>folder-remote</title>
<path d="M4.001 0c-1.105 0-2 0.896-2 2v0 18.003s-0.028 0.918 0.46 1.894c0.49 0.978 1.874 2.106 3.541 2.106h3.665c0.098 0.017 0.211 0.027 0.326 0.027s0.228-0.010 0.338-0.028l-0.012 0.002h15.686s0.918 0.028 1.894-0.46c0.978-0.49 2.106-1.874 2.106-3.541v-8.001c0-1.105-0.896-2-2-2v0h-18.003c-1.105 0-2 0.896-2 2v0 8.001h-2v-16.002h5.173l3.415 3.415c0.362 0.362 0.862 0.586 1.414 0.586h10.002c1.105 0 2-0.896 2-2s-0.896-2-2-2v0h-9.173l-3.415-3.414c-0.362-0.362-0.862-0.586-1.414-0.586h-0zM12.002 14.002h14.002v6.001h-14.002z"></path>
<path d="M4.001 10.002h2s0-2 2-2h12.002l-6.001-6.001h-10.002z"></path>
<path d="M10.002 12.002h18.003v10.002h-18.003zM26.004 6.001h2v2h-2zM28.004 10.002h2v2h-2zM8.001 10.002h2v2h-2zM3 28.004h26.004c0.554 0 1 0.446 1 1v2c0 0.554-0.446 1-1 1h-26.004c-0.001 0-0.001 0-0.002 0-0.551 0-0.998-0.447-0.998-0.998 0-0.001 0-0.001 0-0.002v0-2c0-0.554 0.446-1 1-1z"></path>
<path d="M14.002 22.003h4.001v8.001h-4.001z"></path>
</svg>
