<!-- Generated by IcoMoon.io -->
<svg version="1.1" xmlns="http://www.w3.org/2000/svg" width="32" height="32" viewBox="0 0 32 32">
<title>font-x-generic</title>
<path d="M6.001 10.021v4.001h3.841c-0.11 0 0.166 0.324 0.166 0.168v1.844h-2.006c-3.433 0-6.065 2.256-6.115 4.975-0.024 1.358 0.612 2.72 1.722 3.641 1.112 0.92 2.636 1.4 4.393 1.4h6.005v-11.862c0-2.34-1.772-4.169-4.165-4.169zM8.001 20.035h2.006v2.012h-2.006c-1.040 0-1.588-0.272-1.84-0.48s-0.276-0.344-0.274-0.488c0.006-0.288 0.174-1.044 2.114-1.044zM15.996 8.001v18.047h6.007c1.876 0 3.535-0.74 4.595-1.914 1.060-1.172 1.534-2.674 1.514-4.133-0.009-1.576-0.607-3.011-1.585-4.096l0.005 0.005c-1.054-1.154-2.686-1.908-4.529-1.908h-2.006v-6.001zM19.997 18.003h2.006c0.844 0 1.25 0.252 1.574 0.606 0.322 0.354 0.528 0.89 0.534 1.442 0.008 0.552-0.176 1.062-0.48 1.4-0.302 0.334-0.71 0.596-1.628 0.596h-2.006z"></path>
</svg>
