<!-- Generated by IcoMoon.io -->
<svg version="1.1" xmlns="http://www.w3.org/2000/svg" width="32" height="32" viewBox="0 0 32 32">
<title>format-text-direction-symbolic-rtl</title>
<path d="M12.002 0.1v4.001h12.002c0.856 0 2 1.226 2 2v2h-10.002c-1.84 0-3.471 0.766-4.501 1.936-0.932 1.057-1.501 2.453-1.501 3.983 0 0.028 0 0.056 0.001 0.084l-0-0.004c0.012 1.44 0.54 2.906 1.562 4.065 1.026 1.156 2.62 1.936 4.441 1.936h14.002v-14.002c0-3.314-2.687-6.001-6.001-6.001v0zM16.002 12.102h10.002v4.001h-10.002c-0.796 0-1.134-0.22-1.438-0.564-0.335-0.384-0.544-0.885-0.56-1.435l-0-0.003c-0.006-0.56 0.208-1.106 0.5-1.436 0.288-0.332 0.654-0.564 1.5-0.564z"></path>
<path d="M8.001 30.005h-2c-0.53 0-1.060-0.186-1.438-0.562l-4.563-4.565v-1.748l0.562-0.564 4.001-4.001c0.378-0.376 0.908-0.562 1.438-0.562h2v2c0 0.53-0.186 1.060-0.562 1.438l-2.562 2.562 2.56 2.562c0.378 0.376 0.564 0.908 0.564 1.438v2z"></path>
<path d="M4.001 22.003v4.001h25.88v-4.001z"></path>
</svg>
