<!-- Generated by IcoMoon.io -->
<svg version="1.1" xmlns="http://www.w3.org/2000/svg" width="32" height="32" viewBox="0 0 32 32">
<title>format-text-bold</title>
<path d="M10.002 6.001v4.001h12.002c0.856 0 2 1.228 2 2v2h-10.002c-1.84 0-3.473 0.76-4.501 1.93-0.917 1.058-1.475 2.448-1.475 3.969 0 0.043 0 0.086 0.001 0.128l-0-0.006c0.012 1.44 0.492 2.898 1.516 4.055 1.026 1.158 2.64 1.926 4.459 1.926h14.002v-14.002c0-3.314-2.687-6.001-6.001-6.001v0zM14.002 18.003h10.002v4.001h-10.002c-0.796 0-1.158-0.232-1.46-0.574-0.32-0.389-0.514-0.892-0.514-1.441 0-0.002 0-0.004 0-0.006v0c-0.004-0.56 0.186-1.080 0.478-1.41 0.29-0.33 0.65-0.57 1.496-0.57z"></path>
<path d="M8.001 6.001v4.001h10.002c0.856 0 2 1.228 2 2v2h-10.002c-1.84 0-3.473 0.76-4.501 1.93-0.917 1.058-1.475 2.448-1.475 3.969 0 0.043 0 0.086 0.001 0.128l-0-0.006c0.012 1.44 0.492 2.898 1.516 4.055 1.026 1.158 2.64 1.926 4.459 1.926h14.002v-14.002c0-3.314-2.687-6.001-6.001-6.001v0zM10.002 18.003h10.002v4.001h-10.002c-0.796 0-1.158-0.232-1.46-0.574-0.32-0.389-0.514-0.892-0.514-1.441 0-0.002 0-0.004 0-0.006v0c-0.004-0.56 0.186-1.080 0.478-1.41 0.29-0.33 0.65-0.57 1.496-0.57z"></path>
</svg>
