<!-- Generated by IcoMoon.io -->
<svg version="1.1" xmlns="http://www.w3.org/2000/svg" width="32" height="32" viewBox="0 0 32 32">
<title>format-text-italic</title>
<path d="M9.001 6.001v4.001h12.002c0.856 0 1.188 0.535 0.938 1.438l-0.688 2.563h-10.502c-3.678 0-6.251 2.705-7.001 5.501-0.375 1.398-0.324 2.958 0.5 4.313s2.496 2.188 4.313 2.188h13.502l0.438-1.438 3.313-12.002c0.869-3.138-1.452-6.564-4.813-6.564h-12.002zM10.751 18.003h9.376l-1.125 4.001h-10.439c-0.796 0-0.849-0.167-0.938-0.313s-0.162-0.585 0-1.188c0.323-1.205 1.436-2.5 3.125-2.5z"></path>
</svg>
