<!-- Generated by IcoMoon.io -->
<svg version="1.1" xmlns="http://www.w3.org/2000/svg" width="32" height="32" viewBox="0 0 32 32">
<title>format-text-direction</title>
<path d="M4.001 0v4.001h12.002c0.856 0 2 1.228 2 2v2h-10.002c-1.839 0-3.472 0.768-4.501 1.938s-1.513 2.622-1.5 4.063c0.012 1.441 0.538 2.906 1.563 4.063s2.621 1.938 4.438 1.938h14.002v-14.002c0-3.269-2.64-6.001-6.001-6.001h-12.002zM8.001 12.002h10.002v4.001h-10.002c-0.796 0-1.134-0.22-1.438-0.563s-0.558-0.879-0.563-1.438c-0.004-0.559 0.209-1.107 0.5-1.438s0.655-0.563 1.5-0.563z"></path>
<path d="M24.004 30.005l2-0c0.531-0 1.061-0.186 1.438-0.563l4.563-4.563v-1.75l-4.563-4.563c-0.376-0.376-0.907-0.563-1.438-0.563l-2-0v2c-0 0.531 0.186 1.061 0.563 1.438l2.563 2.563-2.563 2.563c-0.376 0.376-0.563 0.907-0.563 1.438v2z"></path>
<path d="M1.875 22.003v4.001h26.129v-4.001h-26.129z"></path>
</svg>
