<!-- Generated by IcoMoon.io -->
<svg version="1.1" xmlns="http://www.w3.org/2000/svg" width="32" height="32" viewBox="0 0 32 32">
<title>format-text-bold</title>
<path d="M10.001 6.001v4.001h12.002c0.856 0 2 1.228 2 2v2h-10.002c-1.839 0-3.472 0.768-4.501 1.938s-1.513 2.622-1.5 4.063c0.012 1.441 0.538 2.906 1.563 4.063s2.621 1.938 4.438 1.938h14.002v-14.002c0-3.269-2.64-6.001-6.001-6.001h-12.002zM14.002 18.003h10.002v4.001h-10.002c-0.796 0-1.134-0.22-1.438-0.563s-0.558-0.879-0.563-1.438c-0.004-0.559 0.209-1.107 0.5-1.438s0.655-0.563 1.5-0.563z"></path>
<path d="M8.001 6.001v4.001h10.002c0.856 0 2 1.228 2 2v2h-10.002c-1.839 0-3.472 0.768-4.501 1.938s-1.513 2.622-1.5 4.063c0.012 1.441 0.538 2.906 1.563 4.063s2.621 1.938 4.438 1.938h14.002v-14.002c0-3.269-2.64-6.001-6.001-6.001h-10.002zM10.001 18.003h10.002v4.001h-10.002c-0.796 0-1.134-0.22-1.438-0.563s-0.558-0.879-0.563-1.438c-0.004-0.559 0.209-1.107 0.5-1.438s0.655-0.563 1.5-0.563z"></path>
</svg>
