<!-- Generated by IcoMoon.io -->
<svg version="1.1" xmlns="http://www.w3.org/2000/svg" width="32" height="32" viewBox="0 0 32 32">
<title>gnome-power-manager</title>
<path d="M6.939 0c-0.98 0-1.592 0.458-2.064 0.94-0.47 0.48-0.874 1.12-0.874 2.066v0.994h-4.001v28.004h14.002v-4.001l-9.902 0.1-0.1-20.103h4.001v-4.001h6.001v4.001h4.001v2h4.001v-6.001h-4.001v-0.806c-0.029-0.795-0.332-1.514-0.816-2.070l0.003 0.004c-0.562-0.654-1.39-1.066-2.314-1.068h-0v-0.060h-7.935z"></path>
<path d="M12.002 20.003h4.001c0.552-2.206 2.13-7.449 6.001-8.001h6.001v4.001h4.001v4.001h-4.001v4.001h4.001v4.001h-4.001v4.001h-6.001c-3.871-0.552-5.449-5.795-6.001-8.001h-4.001z"></path>
</svg>
