<!-- Generated by IcoMoon.io -->
<svg version="1.1" xmlns="http://www.w3.org/2000/svg" width="32" height="32" viewBox="0 0 32 32">
<title>go-jump</title>
<path d="M13.002 4.001c-3.843 0-7.001 3.158-7.001 7.001v1h4.001v-1c0-1.681 1.32-3 3-3s3 1.32 3 3v13.002h4.001v-13.002c0-3.843-3.158-7.001-7.001-7.001z"></path>
<path d="M26.004 18.003h-2c-0.514 0-1.057 0.26-1.438 0.625l-4.563 4.563-4.563-4.563c-0.381-0.365-0.924-0.625-1.438-0.625h-2v2c0 0.619 0.181 1.105 0.563 1.5l7.439 7.314 7.439-7.314c0.382-0.395 0.563-0.881 0.563-1.5z"></path>
</svg>
