<!-- Generated by IcoMoon.io -->
<svg version="1.1" xmlns="http://www.w3.org/2000/svg" width="32" height="32" viewBox="0 0 32 32">
<title>goa-panel</title>
<path d="M10.002 23.003c0 2.762-2.239 5.001-5.001 5.001v0c-2.762 0-5.001-2.239-5.001-5.001v0c0-2.762 2.239-5.001 5.001-5.001v0c2.762 0 5.001 2.239 5.001 5.001v0z"></path>
<path d="M23.003 15.002c0 4.971-4.030 9.001-9.001 9.001v0c-4.971 0-9.001-4.030-9.001-9.001v0c0-4.971 4.030-9.001 9.001-9.001v0c4.971 0 9.001 4.030 9.001 9.001v0z"></path>
<path d="M32.005 21.003c0 3.867-3.134 7.001-7.001 7.001v0c-3.867 0-7.001-3.134-7.001-7.001v0c0-3.867 3.134-7.001 7.001-7.001v0c3.867 0 7.001 3.134 7.001 7.001v0z"></path>
<path d="M4.627 20.003h20.377v8.001h-20.377z"></path>
</svg>
