<!-- Generated by IcoMoon.io -->
<svg version="1.1" xmlns="http://www.w3.org/2000/svg" width="32" height="32" viewBox="0 0 32 32">
<title>help-browser</title>
<path d="M16.002 0c-8.831 0-16.002 7.172-16.002 16.002s7.172 16.002 16.002 16.002c8.831 0 16.002-7.172 16.002-16.002s-7.172-16.002-16.002-16.002zM16.002 4.001c6.684 0 12.002 5.318 12.002 12.002s-5.318 12.002-12.002 12.002c-6.684 0-12.002-5.318-12.002-12.002s5.318-12.002 12.002-12.002z"></path>
<path d="M14.69 10.002c-2.573 0-4.688 2.116-4.688 4.688v2.625c0 2.573 2.116 4.688 4.688 4.688h2.625c2.573 0 4.688-2.116 4.688-4.688v-2.625c0-2.573-2.116-4.688-4.688-4.688h-2.625zM14.69 12.002h2.625c1.499 0 2.688 1.189 2.688 2.688v2.625c0 1.499-1.189 2.688-2.688 2.688h-2.625c-1.499 0-2.688-1.189-2.688-2.688v-2.625c0-1.499 1.189-2.688 2.688-2.688z"></path>
<path d="M9.439 2.875c-3.021 1.215-5.363 3.598-6.564 6.626l7.501 3.751c0.504-1.281 1.485-2.341 2.75-2.875l-3.688-7.501zM22.566 2.875l-3.688 7.501c1.265 0.534 2.246 1.595 2.75 2.875l7.501-3.751c-1.2-3.028-3.542-5.411-6.564-6.626zM10.377 18.878l-7.501 3.751c1.214 2.978 3.578 5.301 6.564 6.501l3.751-7.501c-1.254-0.511-2.287-1.504-2.813-2.75zM21.628 18.878c-0.526 1.246-1.559 2.239-2.813 2.75l3.751 7.501c2.985-1.2 5.349-3.523 6.564-6.501l-7.501-3.751z"></path>
</svg>
