<!-- Generated by IcoMoon.io -->
<svg version="1.1" xmlns="http://www.w3.org/2000/svg" width="32" height="32" viewBox="0 0 32 32">
<title>help-browser</title>
<path d="M16.002 0c-8.831 0-16.002 7.171-16.002 16.002s7.171 16.002 16.002 16.002 16.002-7.171 16.002-16.002-7.171-16.002-16.002-16.002zM16.002 4.001c6.683 0 12.002 5.319 12.002 12.002s-5.319 12.002-12.002 12.002-12.002-5.319-12.002-12.002 5.319-12.002 12.002-12.002z"></path>
<path d="M14.678 10.002c-2.58 0.007-4.67 2.097-4.677 4.676v2.649c0.007 2.58 2.097 4.67 4.676 4.677h2.649c2.58-0.007 4.67-2.097 4.677-4.676v-2.649c-0.007-2.58-2.097-4.67-4.676-4.677h-0.001zM14.678 12.002h2.648c1.5 0 2.676 1.176 2.676 2.676v2.648c0 1.5-1.176 2.676-2.676 2.676h-2.648c-1.5 0-2.676-1.176-2.676-2.676v-2.648c0-1.5 1.176-2.676 2.676-2.676z"></path>
<path d="M9.439 2.876c-3.015 1.235-5.356 3.596-6.537 6.546l-0.028 0.079 7.501 3.751c0.504-1.28 1.486-2.34 2.75-2.876zM22.565 2.876l-3.689 7.501c1.267 0.56 2.245 1.579 2.74 2.839l0.012 0.035 7.501-3.751c-1.208-3.030-3.549-5.392-6.487-6.598l-0.078-0.029zM10.376 18.879l-7.501 3.749c1.24 2.976 3.573 5.289 6.486 6.473l0.079 0.028 3.751-7.501c-1.269-0.522-2.264-1.495-2.801-2.715l-0.013-0.033zM21.627 18.879c-0.55 1.253-1.544 2.226-2.778 2.736l-0.034 0.013 3.751 7.501c2.991-1.213 5.323-3.525 6.534-6.423l0.029-0.078z"></path>
</svg>
