<!-- Generated by IcoMoon.io -->
<svg version="1.1" xmlns="http://www.w3.org/2000/svg" width="32" height="32" viewBox="0 0 32 32">
<title>image-x-generic</title>
<path d="M2.064 2.064v27.94h27.94v-27.944zM6.065 6.065h19.939v19.939h-19.943z"></path>
<path d="M19.075 16.602c-0.934-0.13-2.092-0.21-3.064 0.55-0.806 0.63-1.554 1.426-2.21 2.034-0.656 0.61-1.304 0.88-1.172 0.88h-7.687v2h7.689c1.164 0 1.8-0.736 2.528-1.41s1.462-1.442 2.086-1.93c0.212-0.166 0.812-0.248 1.558-0.144 0.746 0.102 1.414 0.36 2.204 0.36 0.292 0 0.43 0.068 0.648 0.252 0.216 0.184 0.46 0.508 0.73 0.896 0.27 0.386 0.56 0.834 0.996 1.24 0.436 0.408 1.092 0.766 1.844 0.766h1.72v-2h-1.72c-0.2 0-0.28-0.040-0.476-0.226-0.198-0.184-0.44-0.52-0.72-0.92-0.28-0.404-0.6-0.872-1.078-1.28-0.52-0.447-1.199-0.722-1.943-0.73h-0.002c-0.066 0-0.998-0.21-1.93-0.34zM10.91 7.771c-1.72 0-3.138 1.416-3.138 3.138 0 1.72 1.416 3.136 3.138 3.136 1.72 0 3.136-1.416 3.136-3.136s-1.416-3.138-3.136-3.138zM10.91 9.771c0.64 0 1.136 0.498 1.136 1.138s-0.498 1.136-1.136 1.136c-0.005 0-0.010 0-0.016 0-0.62 0-1.122-0.502-1.122-1.122 0-0.005 0-0.010 0-0.015v0.001c0-0.64 0.498-1.138 1.138-1.138z"></path>
</svg>
