<!-- Generated by IcoMoon.io -->
<svg version="1.1" xmlns="http://www.w3.org/2000/svg" width="32" height="32" viewBox="0 0 32 32">
<title>image-loading</title>
<path d="M10.001 16.002c0 2.209-1.791 4.001-4.001 4.001s-4.001-1.791-4.001-4.001v0c0-2.21 1.791-4.001 4.001-4.001s4.001 1.791 4.001 4.001v0z"></path>
<path d="M20.003 16.002c0 2.209-1.791 4.001-4.001 4.001s-4.001-1.791-4.001-4.001v0c0-2.209 1.791-4.001 4.001-4.001s4.001 1.791 4.001 4.001v0z"></path>
<path d="M30.004 16.002c0 2.209-1.791 4.001-4.001 4.001s-4.001-1.791-4.001-4.001v0c0-2.209 1.791-4.001 4.001-4.001s4.001 1.791 4.001 4.001v0z"></path>
</svg>
