<!-- Generated by IcoMoon.io -->
<svg version="1.1" xmlns="http://www.w3.org/2000/svg" width="32" height="32" viewBox="0 0 32 32">
<title>input-tablet</title>
<path d="M24.81 8.301l-9.908 9.905-0.9 3.797 3.741-0.78 10.002-10.002c1.098-1.186 1.26-2.22 0.26-3.22s-2.34-0.556-3.194 0.3z"></path>
<path d="M4.383 12.002l-3.857 18.003h30.951l-3.473-16.208-3.369 3.366 1.892 8.841h-21.051l2.14-10.002h6.661l3.999-4.001zM23.938 12.002l-4.001 4.001h0.2l4.001-4.001z"></path>
<path d="M16.002 0v3c-0 0.278-0.113 0.529-0.294 0.712l0-0c-0.176 0.178-0.419 0.288-0.689 0.288-0 0-0.001 0-0.001 0h-6.025c-0 0-0 0-0.001 0-1.655 0-2.996 1.342-2.996 2.996 0 0.552 0.149 1.070 0.41 1.514l-0.008-0.014c0.532 0.926 1.522 1.504 2.59 1.504h6.021c0.36 0 0.68 0.184 0.86 0.496 0.083 0.144 0.132 0.316 0.132 0.5 0 0.002 0 0.003 0 0.004v-0 1h2v-1c0-0.001 0-0.003 0-0.004 0-1.653-1.339-2.994-2.992-2.996h-6.021c-0.001 0-0.002 0-0.003 0-0.364 0-0.681-0.198-0.851-0.491l-0.003-0.005c-0.084-0.145-0.134-0.319-0.134-0.504s0.050-0.359 0.137-0.509l-0.003 0.005c0.171-0.298 0.487-0.496 0.85-0.496 0.004 0 0.007 0 0.011 0h6.024c0.792 0 1.554-0.32 2.112-0.882 0.56-0.564 0.872-1.324 0.872-2.118v-3z"></path>
</svg>
