<!-- Generated by IcoMoon.io -->
<svg version="1.1" xmlns="http://www.w3.org/2000/svg" width="32" height="32" viewBox="0 0 32 32">
<title>input-dialpad</title>
<path d="M7.001 0c0 0-3 0-3 3v18.003c0 3 3 3 3 3h3v4.001c0 1.108 0.892 2 2 2h8.001c1.108 0 2-0.892 2-2v-4.001h3c3 0 3-3 3-3v-18.003c0-3-3-3-3-3zM8.002 4.001h4.001v4.001h-4.001zM14.002 4.001h4.001v4.001h-4.001zM20.003 4.001h4.001v4.001h-4.001zM8.002 10.002h4.001v4.001h-4.001zM14.002 10.002h4.001v4.001h-4.001zM20.003 10.002h4.001v4.001h-4.001zM8.002 16.002h4.001v4.001h-4.001zM14.002 16.002h4.001v4.001h-4.001zM20.003 16.002h4.001v4.001h-4.001zM14.002 22.003h4.001v4.001h-4.001z"></path>
</svg>
