<!-- Generated by IcoMoon.io -->
<svg version="1.1" xmlns="http://www.w3.org/2000/svg" width="32" height="32" viewBox="0 0 32 32">
<title>input-gaming</title>
<path d="M4.492 6c-0.305 0-0.512 0.146-0.582 0.406l-3.387 17.242c-0.453 1.692 3.119 3.713 5.477 2.352l6-8h8l6 8c2.358 1.361 5.93-0.66 5.477-2.352l-3.387-17.242c-0.070-0.26-0.277-0.406-0.582-0.406zM21 9.781c0.811 0 1.469 0.658 1.469 1.469s-0.658 1.469-1.469 1.469c-0.811 0-1.469-0.658-1.469-1.469s0.658-1.469 1.469-1.469zM8.188 8h1.625c0.104 0 0.187 0.084 0.187 0.187v1.813h1.813c0.104 0 0.187 0.084 0.187 0.187v1.625c0 0.104-0.084 0.187-0.187 0.187h-1.813v1.813c0 0.104-0.084 0.187-0.187 0.187h-1.625c-0.104 0-0.187-0.084-0.187-0.187v-1.813h-1.813c-0.104 0-0.187-0.084-0.187-0.187v-1.625c0-0.104 0.084-0.187 0.187-0.187h1.813v-1.813c0-0.104 0.086-0.187 0.187-0.187zM24.912 11.691c0.811 0 1.469 0.658 1.469 1.469s-0.658 1.469-1.469 1.469c-0.811 0-1.469-0.658-1.469-1.469s0.658-1.469 1.469-1.469z"></path>
</svg>
