<!-- Generated by IcoMoon.io -->
<svg version="1.1" xmlns="http://www.w3.org/2000/svg" width="32" height="32" viewBox="0 0 32 32">
<title>input-mouse</title>
<path d="M16.117 0.029c-0.908 0.098-1.765 0.44-2.499 1-0.976 0.74-1.623 1.905-1.623 3.371 0.014 0.549 0.452 0.992 0.998 1.014l0.002 0c0.548-0.022 0.986-0.464 1-1.012l0-0.001c0-0.9 0.344-1.407 0.874-1.813 0.532-0.404 1.327-0.6 2.125-0.56 0.798 0.036 1.567 0.306 2.123 0.81 0.558 0.506 0.94 1.17 0.94 2.249 0 4.33 2.925 7.017 5.998 6.937 1.711-0.046 3.373-0.956 4.498-2.625l-1.126-1.999c-0.752 1.829-2.135 2.589-3.437 2.623-1.919 0.050-3.936-1.459-3.936-4.936 0-1.583-0.674-2.885-1.623-3.748-0.952-0.858-2.161-1.251-3.377-1.307-0.302-0.014-0.634-0.032-0.938 0zM29.988 3.961v0.312l1.561 2.749c0.024-0.080 0.042-0.166 0.062-0.25zM29.988 4.711c-0.012 0.212-0.040 0.428-0.062 0.624l1.437 2.439c0.046-0.126 0.082-0.246 0.124-0.376zM29.862 5.711c-0.026 0.18-0.088 0.332-0.124 0.5l1.311 2.249c0.060-0.122 0.134-0.248 0.188-0.376zM29.676 6.584c-0.048 0.18-0.132 0.34-0.188 0.5l1.188 2.063c0.080-0.132 0.176-0.238 0.25-0.376z"></path>
<path d="M9.996 8.026c-2.215 0-3.998 1.781-3.998 3.998v3.998h5.998v-7.997zM13.994 8.026v7.997h5.998v-3.998c0-2.217-1.783-3.998-3.998-3.998zM5.998 18.022v4.498c0 4.428 3.119 7.497 6.997 7.497 3.876 0 6.997-3.069 6.997-7.497v-4.498h-7.997z"></path>
</svg>
