<!-- Generated by IcoMoon.io -->
<svg version="1.1" xmlns="http://www.w3.org/2000/svg" width="32" height="32" viewBox="0 0 32 32">
<title>input-mouse</title>
<path d="M9.354 8.011c-1.862-0.006-3.369 1.53-3.378 3.451 0.036 1.488 0.044 3.012 0.030 4.536l5.84 0.031 0.038-8.004-2.53-0.012zM14.167 8.034l-0.038 8.004 5.841 0.031c0.030-1.53 0.060-3.064 0.073-4.535 0.006-1.922-1.483-3.476-3.345-3.486l-2.531-0.012zM5.997 18.192c-0.023 1.663-0.074 3-0.075 4.53-0.018 4.020 3.102 7.273 6.999 7.293s7.049-3.201 7.068-7.222c-0.071-1.672-0.092-3.016-0.075-4.601z"></path>
<path d="M16.118 0.027c-0.908 0.099-1.767 0.443-2.499 1-0.976 0.743-1.624 1.909-1.624 3.374-0.008 0.528 0.471 1.014 1 1.014s1.007-0.486 1-1.014c0-0.898 0.343-1.407 0.875-1.812s1.327-0.6 2.124-0.562c0.797 0.038 1.568 0.308 2.124 0.812s0.937 1.169 0.937 2.249c0 4.329 2.926 7.015 5.997 6.935 1.713-0.045 3.375-0.954 4.498-2.624l-1.125-1.999c-0.75 1.831-2.135 2.59-3.436 2.624-1.92 0.050-3.936-1.459-3.936-4.935 0-1.583-0.673-2.887-1.624-3.748s-2.161-1.254-3.374-1.312c-0.303-0.014-0.634-0.033-0.937 0zM29.987 3.963c-0.001 0.021-0.001 0.042 0 0.062 0 0.091 0.002 0.161 0 0.25l1.562 2.749c0.023-0.082 0.042-0.167 0.062-0.25zM29.987 4.713c-0.012 0.212-0.040 0.428-0.062 0.625l1.437 2.436c0.047-0.125 0.083-0.245 0.125-0.375zM29.862 5.712c-0.028 0.18-0.089 0.333-0.125 0.5l1.312 2.249c0.059-0.122 0.134-0.247 0.187-0.375zM29.675 6.587c-0.047 0.178-0.131 0.338-0.187 0.5l1.187 2.062c0.080-0.13 0.176-0.236 0.25-0.375z"></path>
</svg>
