<!-- Generated by IcoMoon.io -->
<svg version="1.1" xmlns="http://www.w3.org/2000/svg" width="32" height="32" viewBox="0 0 32 32">
<title>input-touchpad</title>
<path d="M6.064 2c-3.339 0-6.063 2.725-6.063 6.063v15.877c0 3.339 2.725 6.063 6.063 6.063h17.878c3.339 0 6.063-2.725 6.063-6.063v-15.877c0-3.339-2.725-6.063-6.063-6.063h-17.878zM6.064 6.001h17.878c1.192 0 2.063 0.871 2.063 2.063v11.939h-22.003v-11.939c0-1.192 0.871-2.063 2.063-2.063zM4.001 22.003h10.002v4.001h-7.939c-1.192 0-2.063-0.871-2.063-2.063v-1.938zM16.003 22.003h10.002v1.938c0 1.192-0.871 2.063-2.063 2.063h-7.939v-4.001z"></path>
<path d="M4.001 6.001h22.003v14.002h-22.003v-14.002z"></path>
</svg>
