<!-- Generated by IcoMoon.io -->
<svg version="1.1" xmlns="http://www.w3.org/2000/svg" width="32" height="32" viewBox="0 0 32 32">
<title>input-keyboard</title>
<path d="M2 4.001c-1.108 0-2 0.892-2 2v20.003c0 1.108 0.892 2 2 2h28.004c1.108 0 2-0.892 2-2v-20.003c0-1.108-0.892-2-2-2zM4.501 8.001h3c0.276 0 0.5 0.224 0.5 0.5v0 3c0 0.276-0.224 0.5-0.5 0.5v0h-3c-0.276 0-0.5-0.224-0.5-0.5v0-3c0-0.276 0.224-0.5 0.5-0.5v0zM10.502 8.001h3c0.276 0 0.5 0.224 0.5 0.5v0 3c0 0.276-0.224 0.5-0.5 0.5v0h-3c-0.276 0-0.5-0.224-0.5-0.5v0-3c0-0.276 0.224-0.5 0.5-0.5v0zM16.502 8.001h3c0.276 0 0.5 0.224 0.5 0.5v0 3c0 0.276-0.224 0.5-0.5 0.5v0h-3c-0.276 0-0.5-0.224-0.5-0.5v0-3c0-0.276 0.224-0.5 0.5-0.5v0zM22.503 8.001h3c0.276 0 0.5 0.224 0.5 0.5v0 3c0 0.276-0.224 0.5-0.5 0.5v0h-3c-0.276 0-0.5-0.224-0.5-0.5v0-3c0-0.276 0.224-0.5 0.5-0.5v0zM6.501 14.002h3c0.276 0 0.5 0.224 0.5 0.5v0 3c0 0.276-0.224 0.5-0.5 0.5v0h-3c-0.276 0-0.5-0.224-0.5-0.5v0-3c0-0.276 0.224-0.5 0.5-0.5v0zM12.502 14.002h3c0.276 0 0.5 0.224 0.5 0.5v0 3c0 0.276-0.224 0.5-0.5 0.5v0h-3c-0.276 0-0.5-0.224-0.5-0.5v0-3c0-0.276 0.224-0.5 0.5-0.5v0zM18.503 14.002h3c0.276 0 0.5 0.224 0.5 0.5v0 3c0 0.276-0.224 0.5-0.5 0.5v0h-3c-0.276 0-0.5-0.224-0.5-0.5v0-3c0-0.276 0.224-0.5 0.5-0.5v0zM24.504 14.002h3c0.276 0 0.5 0.224 0.5 0.5v0 3c0 0.276-0.224 0.5-0.5 0.5v0h-3c-0.276 0-0.5-0.224-0.5-0.5v0-3c0-0.276 0.224-0.5 0.5-0.5v0zM4.501 20.003h3c0.276 0 0.5 0.224 0.5 0.5v0 3c0 0.276-0.224 0.5-0.5 0.5v0h-3c-0.276 0-0.5-0.224-0.5-0.5v0-3c0-0.276 0.224-0.5 0.5-0.5v0zM10.502 20.003h11.002c0.276 0 0.5 0.224 0.5 0.5v0 3c0 0.276-0.224 0.5-0.5 0.5v0h-11.002c-0.276 0-0.5-0.224-0.5-0.5v0-3c0-0.276 0.224-0.5 0.5-0.5v0zM24.504 20.003h5.001c0.276 0 0.5 0.224 0.5 0.5v0 3c0 0.276-0.224 0.5-0.5 0.5v0h-5.001c-0.276 0-0.5-0.224-0.5-0.5v0-3c0-0.276 0.224-0.5 0.5-0.5v0z"></path>
</svg>
