<!-- Generated by IcoMoon.io -->
<svg version="1.1" xmlns="http://www.w3.org/2000/svg" width="32" height="32" viewBox="0 0 32 32">
<title>insert-link</title>
<path d="M22.030 24.009h-2.003c-0.515 0-1.057 0.218-1.44 0.523l-2.565 2.143-2.565-2.143c-0.393-0.314-0.894-0.508-1.439-0.521l-0.003-0h-2.003v1.672c0 0.517 0.18 0.923 0.565 1.254l5.489 5.074 5.401-5.074c0.345-0.289 0.564-0.719 0.564-1.201 0-0.018-0-0.037-0.001-0.055l0 0.003v-1.674z"></path>
<path d="M19.633 8.096c-0.851 0.204-1.477 1.011-1.477 1.977 0 1.107 0.824 2.006 1.847 2.022l0.001 0h9.887c0.085 0.015 0.183 0.023 0.282 0.023 1.035 0 1.874-0.906 1.874-2.023s-0.839-2.023-1.874-2.023c-0.1 0-0.197 0.008-0.293 0.024l0.011-0.001h-9.887c-0.056-0.006-0.12-0.010-0.185-0.010s-0.13 0.004-0.193 0.011l0.008-0.001zM1.628 8.096c-0.901 0.204-1.58 1.2-1.488 2.179 0.092 0.981 0.941 1.81 1.862 1.822h9.845c1.071 0.17 2.171-0.841 2.171-2.003 0-1.157-1.099-2.171-2.171-1.999h-9.845c-0.056-0.007-0.121-0.011-0.187-0.011s-0.131 0.004-0.195 0.011l0.008-0.001zM12.133 1.937c-1.721 0.271-3.132 1.39-3.806 2.908l-0.013 0.032c-0.129 0.304-0.237 0.661-0.307 1.032l-0.005 0.034h16.028c-0.052-0.252-0.108-0.527-0.188-0.751-0.71-1.915-2.52-3.254-4.644-3.254-0.017 0-0.034 0-0.051 0l0.003-0h-6.268c-0.252 0-0.505-0.038-0.749 0zM8.002 13.952c0.473 2.267 2.483 4.005 4.882 4.005h6.266c2.397 0 4.41-1.738 4.88-4.005z"></path>
</svg>
