<!-- Generated by IcoMoon.io -->
<svg version="1.1" xmlns="http://www.w3.org/2000/svg" width="32" height="32" viewBox="0 0 32 32">
<title>insert-link</title>
<path d="M22.031 24.009h-2.003c-0.515 0-1.058 0.217-1.44 0.523l-2.566 2.143-2.566-2.143c-0.381-0.306-0.925-0.523-1.44-0.523h-2.003l-0 1.673c0 0.518 0.181 0.924 0.563 1.255l5.49 5.074 5.4-5.074c0.382-0.331 0.563-0.737 0.563-1.255v-1.673z"></path>
<path d="M19.633 8.096c-0.854 0.201-1.485 1.010-1.485 1.978 0 1.11 0.828 2.011 1.854 2.022h9.887c0.083 0.014 0.179 0.022 0.277 0.022 1.035 0 1.874-0.905 1.874-2.022s-0.839-2.022-1.874-2.022c-0.098 0-0.194 0.008-0.287 0.024l0.010-0.001h-9.886c-0.056-0.006-0.12-0.010-0.185-0.010s-0.13 0.004-0.193 0.011l0.008-0.001z"></path>
<path d="M1.628 8.096c-0.901 0.205-1.58 1.199-1.489 2.179s0.942 1.811 1.863 1.821h9.845c1.072 0.171 2.171-0.841 2.171-2s-1.099-2.171-2.171-2h-9.845c-0.124-0.014-0.25-0.014-0.374 0z"></path>
<path d="M12.133 1.936c-1.711 0.259-3.141 1.391-3.817 2.941-0.142 0.326-0.237 0.692-0.313 1.064h16.028c-0.052-0.251-0.107-0.526-0.188-0.751-0.694-1.938-2.542-3.254-4.694-3.254h-6.266c-0.254 0-0.507-0.037-0.751 0zM8.003 13.951c0.471 2.267 2.483 4.005 4.881 4.005h6.266c2.398 0 4.41-1.738 4.881-4.005z"></path>
</svg>
