<!-- Generated by IcoMoon.io -->
<svg version="1.1" xmlns="http://www.w3.org/2000/svg" width="32" height="32" viewBox="0 0 32 32">
<title>insert-image</title>
<path d="M4.001 0v18.003h24.004v-18.003zM8.001 4.001h16.002v10.002h-16.002z"></path>
<path d="M10.002 10.002c4.641 2 6.091-3.321 12.002 0v2h-12.002z"></path>
<path d="M22.009 22.081h-2c-0.516 0-1.060 0.26-1.44 0.626l-2.566 2.564-2.566-2.564c-0.38-0.366-0.924-0.626-1.44-0.626h-2v2.002c0 0.62 0.18 1.106 0.562 1.5l5.445 5.321 5.445-5.321c0.382-0.394 0.562-0.88 0.562-1.5v-2.002z"></path>
</svg>
