<!-- Generated by IcoMoon.io -->
<svg version="1.1" xmlns="http://www.w3.org/2000/svg" width="32" height="32" viewBox="0 0 32 32">
<title>keyboard-brightness</title>
<path d="M0.945 20.003h4.056c0.522 0 0.945 0.448 0.945 1v2c0 0.552-0.423 1-0.945 1h-4.056c-0.522 0-0.945-0.448-0.945-1v-2c0-0.552 0.423-1 0.945-1z"></path>
<path d="M26.971 20.003h4.034c0.552 0 1 0.448 1 1v2c0 0.552-0.448 1-1 1h-4.034c-0.552 0-1-0.448-1-1v-2c0-0.552 0.448-1 1-1z"></path>
<path d="M22.344 12.833l2.852-2.852c0.391-0.391 1.024-0.391 1.414 0l1.414 1.414c0.391 0.391 0.391 1.024 0 1.414l-2.852 2.852c-0.391 0.391-1.024 0.391-1.414 0l-1.414-1.414c-0.391-0.391-0.391-1.024 0-1.414z"></path>
<path d="M6.826 15.659l-2.852-2.852c-0.391-0.391-0.391-1.024 0-1.414l1.414-1.414c0.391-0.391 1.024-0.391 1.414 0l2.852 2.852c0.391 0.391 0.391 1.024 0 1.414l-1.414 1.414c-0.391 0.391-1.024 0.391-1.414 0z"></path>
<path d="M14.002 11.002v-4.001c0-0.552 0.448-1 1-1h2c0.552 0 1 0.448 1 1v4.001c0 0.552-0.448 1-1 1h-2c-0.552 0-1-0.448-1-1z"></path>
<path d="M12.492 18.003c-0.334 0.018-0.644 0.234-0.75 0.522l-1.673 4.435c-0.203 0.467 0.253 1.056 0.808 1.043 0 0 2.141 0 5.135 0s5.135-0 5.135-0c0.555 0.012 1.011-0.576 0.808-1.043l-1.673-4.435c-0.145-0.386-0.674-0.612-1.096-0.47-0.426 0.138-1.641 0.522-3.173 0.522s-2.748-0.383-3.173-0.522c-0.11-0.039-0.228-0.057-0.346-0.052z"></path>
</svg>
