<!-- Generated by IcoMoon.io -->
<svg version="1.1" xmlns="http://www.w3.org/2000/svg" width="32" height="32" viewBox="0 0 32 32">
<title>keyboard-brightness</title>
<path d="M0.944 20.003h4.057c0.524 0 0.944 0.446 0.944 1v2c0 0.554-0.42 1-0.944 1h-4.057c-0.525-0.015-0.945-0.445-0.945-0.972 0-0.010 0-0.020 0-0.030l-0 0.001v-2c0-0.554 0.42-1 0.944-1zM26.972 20.003h4.033c0.554 0 1 0.446 1 1v2c0 0.554-0.446 1-1 1h-4.033c-0.001 0-0.001 0-0.002 0-0.551 0-0.998-0.447-0.998-0.998 0-0.001 0-0.001 0-0.002v0-2c0-0.554 0.446-1 1-1zM22.343 12.832l2.852-2.85c0.181-0.181 0.431-0.294 0.707-0.294s0.526 0.112 0.707 0.294l1.414 1.414c0.181 0.181 0.294 0.431 0.294 0.707s-0.112 0.526-0.294 0.707l-2.85 2.852c-0.181 0.182-0.431 0.295-0.708 0.295s-0.527-0.113-0.708-0.295l-1.414-1.414c-0.182-0.181-0.295-0.431-0.295-0.708s0.113-0.527 0.295-0.708l0-0zM6.825 15.658l-2.85-2.85c-0.182-0.181-0.295-0.431-0.295-0.708s0.113-0.527 0.295-0.708l1.414-1.414c0.181-0.181 0.431-0.294 0.707-0.294s0.526 0.112 0.707 0.294l2.852 2.852c0.181 0.181 0.294 0.431 0.294 0.707s-0.112 0.526-0.294 0.707l-1.414 1.414c-0.181 0.182-0.431 0.295-0.708 0.295s-0.527-0.113-0.708-0.295l-0-0zM14.002 11.002v-4.001c0-0.554 0.446-1 1-1h2c0.554 0 1 0.446 1 1v4.001c0 0.554-0.446 1-1 1h-2c-0.001 0-0.001 0-0.002 0-0.551 0-0.998-0.447-0.998-0.998 0-0.001 0-0.001 0-0.002v0z"></path>
<path d="M12.492 18.003c-0.337 0.016-0.622 0.224-0.748 0.517l-0.002 0.006-1.672 4.435c-0.202 0.468 0.252 1.056 0.808 1.044 1.519 0 3.327 0 5.135 0s3.616-0 5.424-0l-0.289 0c0.554 0.012 1.010-0.576 0.806-1.044l-1.672-4.435c-0.146-0.386-0.674-0.612-1.096-0.47-0.426 0.14-1.64 0.522-3.172 0.522-1.137-0.006-2.228-0.196-3.247-0.541l0.073 0.021c-0.093-0.035-0.201-0.055-0.314-0.055-0.011 0-0.023 0-0.034 0.001l0.002-0z"></path>
</svg>
