<!-- Generated by IcoMoon.io -->
<svg version="1.1" xmlns="http://www.w3.org/2000/svg" width="32" height="32" viewBox="0 0 32 32">
<title>mail-replied</title>
<path d="M16.002 10.002h-2c-0.53 0-1.060 0.186-1.438 0.562l-6.563 6.563v1.75l0.562 0.564 6.001 6.001c0.376 0.376 0.908 0.562 1.44 0.562h2v-2c0-0.53-0.188-1.060-0.564-1.438l-4.563-4.563 4.561-4.563c0.378-0.376 0.564-0.908 0.564-1.44v-1.998z"></path>
<path d="M24.004 8.001v5.001c0 1.68-1.32 3-3 3h-11.002v4.001h11.002c3.843 0 7.001-3.158 7.001-7.001v-5.001z"></path>
</svg>
