<!-- Generated by IcoMoon.io -->
<svg version="1.1" xmlns="http://www.w3.org/2000/svg" width="32" height="32" viewBox="0 0 32 32">
<title>mail-mark-important</title>
<path d="M3.562 3.439c-0.926 0.188-1.613 0.995-1.613 1.962 0 0.652 0.312 1.232 0.795 1.597l0.005 0.004 11.252 9.001 11.252-9.001c0.46-0.37 0.751-0.932 0.751-1.563 0-1.105-0.896-2.001-2.001-2.001-0.475 0-0.911 0.165-1.254 0.442l0.004-0.003-8.751 7.001-8.751-7.001c-0.347-0.296-0.8-0.476-1.296-0.476-0.139 0-0.274 0.014-0.405 0.041l0.013-0.002z"></path>
<path d="M1.626 2.002c-0.917 0.175-1.642 1.067-1.625 2v18.002c0 1.047 0.953 2 2 2h12.002v-4h-10.001v-14.001h20.003l-0 8.001h4.001l0-10.001c-0-1.047-0.953-2-2-2h-24.004c-0.062-0.002-0.125-0.002-0.187 0-0.062-0.002-0.125-0.002-0.187 0z"></path>
<path d="M17.753 16.141c-0.985 0-1.75 0.759-1.75 1.735v12.393c0 0.976 0.765 1.735 1.75 1.735h12.502c0.985 0 1.75-0.759 1.75-1.735v-12.393c0-0.977-0.765-1.735-1.75-1.735h-12.502zM22.003 18.124h4.001v7.932h-4.001v-7.932zM22.003 28.038h4.001v1.983h-4.001v-1.983z"></path>
</svg>
