<!-- Generated by IcoMoon.io -->
<svg version="1.1" xmlns="http://www.w3.org/2000/svg" width="32" height="32" viewBox="0 0 32 32">
<title>mail-read</title>
<path d="M15.751 0.003c-0.39 0.073-0.731 0.25-1.001 0.501l0.001-0.001-9.813 8.001c-0.054 0.024-0.094 0.045-0.134 0.067l0.010-0.005s-0.652 0.596-1.314 1.5c-0.446 0.612-0.704 1.664-1 2.626-0.021 0.020-0.042 0.041-0.061 0.061l-0.001 0.001c-0.249 0.308-0.41 0.697-0.438 1.122l-0 0.006v0.060c-0 0.010-0 0.021-0 0.032s0 0.022 0 0.034l-0-0.002c-0.004 0.047-0.006 0.101-0.006 0.156s0.002 0.109 0.007 0.163l-0-0.007v15.689c0 1.105 0.896 2 2 2v0h24.002c1.105 0 2-0.895 2-2v0-15.691c0.004-0.047 0.006-0.101 0.006-0.156s-0.002-0.109-0.007-0.163l0 0.007c0.001-0.019 0.001-0.042 0.001-0.064 0-0.474-0.165-0.909-0.44-1.252l0.003 0.004c-0.021-0.021-0.041-0.041-0.063-0.061l-0.001-0.001c-0.464-1.555-1.238-2.895-2.257-4.008l0.007 0.008c-0.021-0.023-0.040-0.044-0.060-0.064l0 0-9.943-8.061c-0.348-0.308-0.808-0.497-1.312-0.5h-0.001c-0.028-0.001-0.061-0.002-0.094-0.002s-0.066 0.001-0.099 0.002l0.005-0zM16.001 4.565l8.627 7.065 0.062 0.060c0.042 0.052 0.36 0.5 0.688 1l-9.377 7.067-9.375-7.065c0.052-0.080 0.070-0.174 0.124-0.25 0.382-0.524 0.638-0.828 0.688-0.876l0.062-0.060zM6.001 14.754l9.377 7.063 0.624 0.44 0.626-0.44 9.375-7.061v13.247h-20.002z"></path>
</svg>
