<!-- Generated by IcoMoon.io -->
<svg version="1.1" xmlns="http://www.w3.org/2000/svg" width="32" height="32" viewBox="0 0 32 32">
<title>mail-send-receive</title>
<path d="M18.003 14.002l-0-2c-0-0.531-0.186-1.061-0.563-1.438l-6.564-6.564h-1.75l-6.564 6.564c-0.376 0.376-0.563 0.907-0.563 1.438l-0 2h2c0.531 0 1.061-0.186 1.438-0.563l4.563-4.563 4.563 4.563c0.376 0.376 0.907 0.563 1.438 0.563h2z"></path>
<path d="M8.001 8.001v14.002h4.001v-14.002h-4.001z"></path>
<path d="M30.005 16.002l-0 2c-0 0.531-0.186 1.061-0.563 1.438l-6.564 6.564h-1.75l-6.564-6.564c-0.376-0.376-0.563-0.907-0.563-1.438l-0-2h2c0.531-0 1.061 0.186 1.438 0.563l4.563 4.563 4.563-4.563c0.376-0.376 0.907-0.563 1.438-0.563h2z"></path>
<path d="M20.003 8.001v14.002h4.001v-14.002h-4.001z"></path>
</svg>
