<!-- Generated by IcoMoon.io -->
<svg version="1.1" xmlns="http://www.w3.org/2000/svg" width="32" height="32" viewBox="0 0 32 32">
<title>mail-attachment</title>
<path d="M11.972 10.033c-1.090-0.016-1.968-0.907-1.968-2.004 0-0.010 0-0.020 0-0.029l-0 0.001c0-4.397 3.595-8.005 7.976-8.005s7.976 3.608 7.976 8.005c0.001 0.017 0.001 0.038 0.001 0.058 0 1.107-0.894 2.004-1.997 2.004s-1.997-0.897-1.997-2.004c0-0.020 0-0.041 0.001-0.061l-0 0.003c0-2.231-1.761-3.998-3.984-3.998s-3.984 1.767-3.984 3.998c0 0.008 0 0.018 0 0.028 0 1.107-0.894 2.004-1.997 2.004-0.010 0-0.020-0-0.029-0l0.001 0z"></path>
<path d="M15.002 24.005c-2.738 0-5.002-2.264-5.002-5.002 0-1.105 0.896-2.001 2.001-2.001s2.001 0.896 2.001 2.001v0c0 0.576 0.424 1 1 1s1-0.424 1-1c0-0.002 0-0.003 0-0.005 0-1.105 0.896-2.001 2.001-2.001s2.001 0.896 2.001 2.001c0 0.002 0 0.004 0 0.005v-0c0 2.738-2.264 5.002-5.002 5.002z"></path>
<path d="M17.565 10.002c-0.901 0.207-1.563 1.002-1.563 1.952 0 0.017 0 0.034 0.001 0.051l-0-0.002v6.939c-0 0.008-0 0.018-0 0.028 0 1.105 0.896 2 2 2s2-0.896 2-2c0-0.010-0-0.020-0-0.030l0 0.002v-6.939c0-0.014 0.001-0.031 0.001-0.048 0-1.105-0.896-2.001-2-2.001-0.155 0-0.306 0.018-0.451 0.051l0.013-0.003z"></path>
<path d="M23.566 6.001c-0.901 0.207-1.563 1.002-1.563 1.952 0 0.017 0 0.034 0.001 0.051l-0-0.002v13.627c-0 0.008-0 0.018-0 0.028 0 1.105 0.896 2 2 2s2-0.896 2-2c0-0.010-0-0.020-0-0.030l0 0.002v-13.627c0-0.014 0.001-0.031 0.001-0.048 0-1.105-0.896-2.001-2-2.001-0.155 0-0.306 0.018-0.451 0.051l0.013-0.003z"></path>
<path d="M11.564 6.001c-0.901 0.207-1.563 1.002-1.563 1.952 0 0.017 0 0.034 0.001 0.051l-0-0.002v10.814c-0 0.008-0 0.018-0 0.028 0 1.105 0.896 2 2.001 2s2.001-0.896 2.001-2c0-0.010-0-0.020-0-0.030l0 0.002v-10.814c0-0.014 0.001-0.031 0.001-0.048 0-1.105-0.896-2.001-2.001-2.001-0.155 0-0.306 0.018-0.451 0.051l0.013-0.003z"></path>
<path d="M5.563 8.001c-0.901 0.207-1.563 1.002-1.563 1.952 0 0.017 0 0.034 0.001 0.051l-0-0.002v12.002c-0 0.008-0 0.018-0 0.028 0 1.105 0.896 2 2 2s2.001-0.896 2.001-2c0-0.010-0-0.020-0-0.030l0 0.002v-12.002c0-0.014 0.001-0.031 0.001-0.048 0-1.105-0.896-2.001-2.001-2.001-0.155 0-0.306 0.018-0.451 0.051l0.013-0.003z"></path>
<path d="M23.691 20.003c-0.544 0.089-1.006 0.387-1.309 0.807l-0.004 0.006-5.376 7.189h-4.063l-5.376-7.064c-0.333-0.669-1.012-1.12-1.797-1.12-1.105 0-2.001 0.896-2.001 2 0 0.594 0.259 1.127 0.67 1.494l0.002 0.002 6.001 7.876c0.359 0.483 0.923 0.797 1.56 0.813l0.002 0h6.001c0.005 0 0.010 0 0.016 0 0.658 0 1.241-0.317 1.606-0.807l0.004-0.005 6.001-8.001c0.258-0.334 0.414-0.758 0.414-1.219 0-1.105-0.896-2-2-2-0.124 0-0.246 0.011-0.364 0.033l0.012-0.002z"></path>
</svg>
