<!-- Generated by IcoMoon.io -->
<svg version="1.1" xmlns="http://www.w3.org/2000/svg" width="32" height="32" viewBox="0 0 32 32">
<title>mail-read</title>
<path d="M15.752 0.003c-0.39 0.073-0.731 0.25-1.001 0.501l0.001-0.001-9.813 8.001c-0.054 0.025-0.095 0.045-0.135 0.068l0.010-0.005c0 0-0.652 0.595-1.313 1.5-0.447 0.612-0.705 1.663-1 2.625-0.022 0.021-0.042 0.041-0.062 0.062l-0.001 0.001c-0.249 0.307-0.409 0.695-0.437 1.119l-0 0.006c-0.001 0.024 0.001 0.039 0 0.062-0 0.009-0 0.020-0 0.031s0 0.022 0 0.033l-0-0.002c-0.004 0.047-0.006 0.101-0.006 0.156s0.002 0.109 0.007 0.163l-0-0.007v15.689c0 1.105 0.896 2 2 2h24.002c1.105-0 2-0.896 2-2v0-15.689c0.004-0.047 0.006-0.101 0.006-0.156s-0.002-0.109-0.007-0.163l0 0.007c0.001-0.019 0.001-0.041 0.001-0.063 0-0.475-0.165-0.911-0.442-1.254l0.003 0.004c-0.021-0.021-0.041-0.042-0.062-0.062l-0.001-0.001c-0.656-2.376-2.25-4-2.25-4-0.021-0.021-0.041-0.042-0.062-0.062l-0.001-0.001-9.938-8.063c-0.348-0.308-0.808-0.497-1.312-0.5h-0.001c-0.028-0.001-0.061-0.002-0.094-0.002s-0.066 0.001-0.098 0.002l0.005-0zM16.002 4.566l8.626 7.063 0.062 0.062c0.042 0.051 0.361 0.499 0.688 1l-9.376 7.063-9.376-7.063c0.052-0.079 0.070-0.174 0.125-0.25 0.382-0.523 0.638-0.829 0.688-0.875l0.063-0.062 8.501-6.938zM6.001 14.755l9.376 7.063 0.625 0.438 0.625-0.438 9.376-7.063v13.251h-20.002v-13.251z"></path>
</svg>
