<!-- Generated by IcoMoon.io -->
<svg version="1.1" xmlns="http://www.w3.org/2000/svg" width="32" height="32" viewBox="0 0 32 32">
<title>mail-mark-junk</title>
<path d="M22.553 0.148c-0.222-0.093-0.48-0.147-0.75-0.148h-11.598c-0 0-0.001 0-0.002 0-0.554 0-1.056 0.226-1.419 0.59l-8.201 8.201c-0.362 0.361-0.585 0.861-0.586 1.412v0l0.002 11.596c0 0.001 0 0.002 0 0.004 0 0.553 0.225 1.054 0.588 1.417l8.201 8.201c0.361 0.362 0.861 0.585 1.412 0.586l11.598-0.002c0.001 0 0.002 0 0.004 0 0.553 0 1.054-0.225 1.417-0.588l8.201-8.201c0.362-0.361 0.585-0.861 0.586-1.412v-0l-0.002-11.598c0-0.001 0-0.002 0-0.004 0-0.553-0.225-1.054-0.588-1.417l-8.201-8.201c-0.184-0.183-0.404-0.331-0.649-0.431l-0.013-0.005zM20.973 4.001l7.031 7.031v9.942l-7.031 7.031h-9.941l-7.031-7.031v-9.941l7.031-7.031z"></path>
<path d="M13.99 8.001h4.001v6.001l-0.5 4.001h-2.938l-0.56-4.001zM15.99 19.503c1.381 0 2.5 1.119 2.5 2.5s-1.119 2.5-2.5 2.5v0c-1.381 0-2.5-1.119-2.5-2.5s1.119-2.5 2.5-2.5v0z"></path>
</svg>
