<!-- Generated by IcoMoon.io -->
<svg version="1.1" xmlns="http://www.w3.org/2000/svg" width="32" height="32" viewBox="0 0 32 32">
<title>mail-unread</title>
<path d="M5.959 7.981c-1.098 0.009-1.985 0.901-1.985 2 0 0.642 0.302 1.213 0.772 1.579l0.004 0.003 11.252 9.001 11.252-9.001c0.459-0.37 0.751-0.932 0.751-1.562 0-1.105-0.896-2.001-2.001-2.001-0.475 0-0.911 0.165-1.254 0.442l0.004-0.003-8.751 7.001-8.751-7.001c-0.343-0.285-0.788-0.458-1.274-0.458-0.006 0-0.013 0-0.019 0h0.001z"></path>
<path d="M4.001 6.001c-1.105 0-2 0.896-2 2v0 18.003c0 1.105 0.896 2 2 2v0h24.004c1.105 0 2-0.896 2-2v0-18.003c0-1.105-0.896-2-2-2v0zM6.001 10.002h20.003v14.002h-20.003z"></path>
</svg>
