<!-- Generated by IcoMoon.io -->
<svg version="1.1" xmlns="http://www.w3.org/2000/svg" width="32" height="32" viewBox="0 0 32 32">
<title>mark-location</title>
<path d="M15.999 0.003c-5.522 0-9.999 4.477-9.999 9.999 0 0.345 0.028 0.664 0.062 1 0.027 0.334 0.072 0.672 0.125 1 1.145 7.028 5.812 12.006 9.812 16.006 4-4 8.667-8.977 9.812-16.006 0.053-0.328 0.098-0.665 0.125-1 0.034-0.336 0.062-0.655 0.062-1 0-5.522-4.477-9.999-9.999-9.999zM15.999 6.003c2.209 0 4 1.791 4 4s-1.791 4-4 4c-2.209 0-4-1.791-4-4s1.791-4 4-4z"></path>
</svg>
