<!-- Generated by IcoMoon.io -->
<svg version="1.1" xmlns="http://www.w3.org/2000/svg" width="32" height="32" viewBox="0 0 32 32">
<title>mark-location</title>
<path d="M15.999 0.003c-5.523 0-10 4.477-10 10v0c0 0.346 0.028 0.664 0.062 1 0.028 0.334 0.072 0.672 0.126 1 1.144 7.028 5.812 12.006 9.812 16.005 4-4 8.668-8.978 9.812-16.005 0.054-0.328 0.1-0.666 0.126-1 0.034-0.336 0.062-0.654 0.062-1 0-5.523-4.477-10-10-10v0zM15.999 6.003c2.209 0 4 1.791 4 4s-1.791 4-4 4v0c-2.209 0-4-1.791-4-4s1.791-4 4-4v0z"></path>
</svg>
