<!-- Generated by IcoMoon.io -->
<svg version="1.1" xmlns="http://www.w3.org/2000/svg" width="32" height="32" viewBox="0 0 32 32">
<title>media-tape</title>
<path d="M5.001 6.001c-2.77 0-5.001 2.23-5.001 5.001v12.002c0 2.77 2.23 5.001 5.001 5.001h22.004c2.77 0 5.001-2.23 5.001-5.001v-12.002c0-2.77-2.23-5.001-5.001-5.001h-22.004zM9.002 12.002c2.75 0 5.001 2.251 5.001 5.001 0 1.129-0.425 2.161-1.063 3h6.126c-0.638-0.84-1.063-1.871-1.063-3 0-2.75 2.251-5.001 5.001-5.001s5.001 2.251 5.001 5.001c0 2.75-2.251 5.001-5.001 5.001h-14.002c-2.75 0-5.001-2.251-5.001-5.001s2.251-5.001 5.001-5.001zM9.002 14.002c-1.669 0-3.001 1.332-3.001 3s1.332 3 3.001 3c1.669 0 3.001-1.332 3.001-3s-1.332-3.001-3.001-3.001zM23.004 14.002c-1.669 0-3 1.332-3 3s1.332 3 3 3c1.669 0 3-1.332 3-3s-1.332-3.001-3-3.001z"></path>
</svg>
