<!-- Generated by IcoMoon.io -->
<svg version="1.1" xmlns="http://www.w3.org/2000/svg" width="32" height="32" viewBox="0 0 32 32">
<title>media-playlist-consecutive</title>
<path d="M2.036 14.002v4.001h25.968v-4.001z"></path>
<path d="M23.984 9.982c-1.105 0-2 0.896-2 2 0 0.562 0.232 1.070 0.605 1.434l2.587 2.587-2.586 2.586c-0.377 0.364-0.611 0.874-0.611 1.439 0 1.105 0.896 2 2 2 0.565 0 1.075-0.234 1.438-0.61l0.001-0.001 5.415-5.415-5.415-5.415c-0.364-0.374-0.872-0.606-1.434-0.606v0z"></path>
<path d="M22.003 10.002h2v2h-2zM22.003 20.003h2v2h-2z"></path>
</svg>
