<!-- Generated by IcoMoon.io -->
<svg version="1.1" xmlns="http://www.w3.org/2000/svg" width="32" height="32" viewBox="0 0 32 32">
<title>media-floppy</title>
<path d="M5.938 2c-2.151 0-3.938 1.787-3.938 3.938v18.94l0.625 0.563 3.376 3.375v-22.816h20.003v20.003h-4.001v4.001h4.063c2.151 0 3.938-1.787 3.938-3.938v-20.128c0-2.151-1.787-3.938-3.938-3.938z"></path>
<path d="M10.002 18.003c-1.108 0-2 0.892-2 2v8.001c0 1.108 0.892 2 2 2h8.001c1.108 0 2-0.892 2-2v-8.001c0-1.108-0.892-2-2-2h-8.001zM10.002 20.003h4.001v8.001h-4.001v-8.001z"></path>
</svg>
