<!-- Generated by IcoMoon.io -->
<svg version="1.1" xmlns="http://www.w3.org/2000/svg" width="32" height="32" viewBox="0 0 32 32">
<title>media-playlist-repeat</title>
<path d="M19.753 18.003c-0.466 0.052-0.877 0.257-1.188 0.563l0-0-4.001 4.001-1.375 1.438 1.375 1.438 4.001 4.001c0.368 0.368 0.876 0.596 1.438 0.596 1.123 0 2.033-0.91 2.033-2.033 0-0.561-0.228-1.070-0.596-1.438l-2.563-2.563 2.563-2.563c0.392-0.366 0.637-0.887 0.637-1.464 0-1.105-0.896-2-2-2-0.115 0-0.227 0.010-0.336 0.028l0.012-0.002z"></path>
<path d="M8.001 6.001c-3.29 0-6.001 2.711-6.001 6.001v8.001c0 3.29 2.711 6.001 6.001 6.001h2v-4.001h-2c-1.143 0-2-0.858-2-2v-8.001c0-1.143 0.858-2 2-2h16.002c1.143 0 2 0.858 2 2v8.001c0 1.143-0.858 2-2 2h-8.001v4.001h8.001c3.29 0 6.001-2.711 6.001-6.001v-8.001c0-3.29-2.711-6.001-6.001-6.001h-16.002z"></path>
<path d="M20.003 18.003h2v2h-2v-2z"></path>
<path d="M20.003 28.004h2v2h-2v-2z"></path>
</svg>
