<!-- Generated by IcoMoon.io -->
<svg version="1.1" xmlns="http://www.w3.org/2000/svg" width="32" height="32" viewBox="0 0 32 32">
<title>media-skip-forward-rtl</title>
<path d="M30.004 8.001c-0.355 0.016-0.702 0.118-1 0.313l-10.002 6.001c-0.565 0.359-0.875 1.024-0.875 1.688s0.31 1.328 0.875 1.688l10.002 6.001c0.298 0.194 0.645 0.297 1 0.313h2v-16.002h-1.688z"></path>
<path d="M4.001 8.001v16.002h-4.001v-16.002z"></path>
<path d="M16.002 8.001c-0.355 0.016-0.702 0.118-1 0.313l-10.002 6.001c-0.565 0.359-0.875 1.024-0.875 1.688s0.31 1.328 0.875 1.688l10.002 6.001c0.298 0.194 0.645 0.297 1 0.313h2v-16.002h-1.688z"></path>
</svg>
