<!-- Generated by IcoMoon.io -->
<svg version="1.1" xmlns="http://www.w3.org/2000/svg" width="32" height="32" viewBox="0 0 32 32">
<title>media-flash</title>
<path d="M9.126 4.001c-1.697 0-3.125 1.429-3.125 3.125v17.753c0 1.697 1.429 3.125 3.125 3.125h15.752c1.697 0 3.125-1.429 3.125-3.125v-15.815l-4.876-5.063zM10.002 8.001h12.252l1.75 1.875v14.127h-14.002z"></path>
<path d="M13.877 10.002c-1.035 0-1.875 0.841-1.875 1.875v4.063c0 1.035 0.841 1.875 1.875 1.875h0.125v-5.813h2v5.813h4.126c1.035 0 1.875-0.841 1.875-1.875v-4.063c0-1.035-0.841-1.875-1.875-1.875h-0.125v6.063h-2v-6.063h-4.126z"></path>
</svg>
