<!-- Generated by IcoMoon.io -->
<svg version="1.1" xmlns="http://www.w3.org/2000/svg" width="32" height="32" viewBox="0 0 32 32">
<title>media-playlist-shuffle-rtl</title>
<path d="M24.004 6.001c-3.29 0-6.001 2.711-6.001 6.001v8.001c0 1.143-0.858 2-2 2h-12.002v4.001h12.002c3.29 0 6.001-2.711 6.001-6.001v-8.001c0-1.143 0.858-2 2-2h6.001v-4.001h-6.001z"></path>
<path d="M7.751 18.003c-0.466 0.052-0.877 0.257-1.188 0.563l0-0-4.001 4.001-1.375 1.438 1.375 1.438 4.001 4.001c0.368 0.368 0.876 0.596 1.438 0.596 1.123 0 2.033-0.91 2.033-2.033 0-0.561-0.228-1.070-0.596-1.438l-2.563-2.563 2.563-2.563c0.393-0.366 0.637-0.887 0.637-1.464 0-1.105-0.896-2-2.001-2-0.115 0-0.227 0.010-0.336 0.028l0.012-0.002z"></path>
<path d="M7.751 2c-0.466 0.052-0.877 0.257-1.188 0.563l0-0-4.001 4.001-1.375 1.438 1.375 1.438 4.001 4.001c0.368 0.368 0.876 0.596 1.438 0.596 1.123 0 2.033-0.91 2.033-2.033 0-0.562-0.228-1.070-0.596-1.438l-2.563-2.563 2.563-2.563c0.393-0.366 0.637-0.887 0.637-1.464 0-1.105-0.896-2.001-2.001-2.001-0.115 0-0.227 0.010-0.336 0.028l0.012-0.002z"></path>
<path d="M16.002 6.001c0.459 0 0.882 0.088 1.313 0.187-0.963 1.102-1.723 2.356-2.063 3.813h-11.252v-4.001h12.002zM30.005 22.003v4.001h-6.001c-0.459 0-0.882-0.088-1.313-0.187 0.963-1.102 1.723-2.356 2.063-3.813h5.251z"></path>
<path d="M10.001 18.003h-2v2h2v-2z"></path>
<path d="M10.001 28.004h-2v2h2v-2z"></path>
<path d="M10.001 2h-2v2h2v-2z"></path>
<path d="M10.001 12.002h-2v2h2v-2z"></path>
</svg>
