<!-- Generated by IcoMoon.io -->
<svg version="1.1" xmlns="http://www.w3.org/2000/svg" width="32" height="32" viewBox="0 0 32 32">
<title>media-optical-dvd</title>
<path d="M16.002 2c-7.685 0-14.002 6.317-14.002 14.002s6.317 14.002 14.002 14.002 14.002-6.317 14.002-14.002-6.317-14.002-14.002-14.002zM16.002 10.002c3.361 0 6.001 2.64 6.001 6.001s-2.64 6.001-6.001 6.001-6.001-2.64-6.001-6.001 2.64-6.001 6.001-6.001z"></path>
<path d="M16.002 12.002c-2.198 0-4.001 1.802-4.001 4.001s1.802 4.001 4.001 4.001 4.001-1.802 4.001-4.001-1.802-4.001-4.001-4.001zM16.002 14.002c1.116 0 2 0.884 2 2s-0.884 2-2 2-2-0.884-2-2 0.884-2 2-2z"></path>
</svg>
