<!-- Generated by IcoMoon.io -->
<svg version="1.1" xmlns="http://www.w3.org/2000/svg" width="32" height="32" viewBox="0 0 32 32">
<title>media-tape</title>
<path d="M5.001 6.001c-0.003 0-0.006 0-0.010 0-2.756 0-4.991 2.234-4.991 4.991 0 0.004 0 0.007 0 0.011v-0.001 12.002c0 2.77 2.23 5.001 5.001 5.001h22.003c2.77 0 5.001-2.23 5.001-5.001v-12.002c0-2.77-2.23-5.001-5.001-5.001zM9.001 12.002c2.75 0 5.001 2.25 5.001 5.001 0 1.13-0.424 2.16-1.062 3h6.125c-0.636-0.84-1.060-1.87-1.060-3-0.002-2.75 2.246-5.001 4.999-5.001 2.748 0 5.001 2.25 5.001 5.001s-2.252 5.001-5.001 5.001h-14.002c-2.758-0.009-4.992-2.243-5.001-5v-0.001c0-2.75 2.248-5.001 5.001-5.001zM9.001 14.002c-1.668 0-3 1.332-3 3s1.332 3 3 3c1.67 0 3-1.332 3-3s-1.33-3-3-3zM23.003 14.002c-1.668 0-3 1.332-3 3s1.332 3 3 3c1.67 0 3-1.332 3-3s-1.33-3-3-3z"></path>
</svg>
