<!-- Generated by IcoMoon.io -->
<svg version="1.1" xmlns="http://www.w3.org/2000/svg" width="32" height="32" viewBox="0 0 32 32">
<title>media-playback-start</title>
<path d="M10.046 6.001c-0.012-0-0.026-0-0.040-0-1.105 0-2 0.896-2 2 0 0 0 0 0 0v-0 16.002c0 0.001 0 0.002 0 0.003 0 1.105 0.896 2 2 2 0.365 0 0.707-0.098 1.002-0.269l-0.010 0.005 14-8.001c0.61-0.35 1.014-0.998 1.014-1.74s-0.404-1.39-1.004-1.735l-0.010-0.005-14-8.001c-0.274-0.158-0.601-0.254-0.95-0.26l-0.002-0zM12.006 11.452l7.961 4.551-7.961 4.551z"></path>
<path d="M10.005 24.004h-2v2h2zM10.005 6.001h-2v2h2zM10.005 8.001l13.998 8.001-13.998 8.001z"></path>
</svg>
