<!-- Generated by IcoMoon.io -->
<svg version="1.1" xmlns="http://www.w3.org/2000/svg" width="32" height="32" viewBox="0 0 32 32">
<title>media-playback-start-symbolic-rtl</title>
<path d="M21.937 6.001c-0.345 0.009-0.665 0.105-0.944 0.265l0.010-0.005-13.994 8.001c-0.61 0.35-1.014 0.998-1.014 1.74s0.404 1.39 1.004 1.735l0.010 0.005 13.994 8.001c0.286 0.167 0.63 0.266 0.996 0.266 1.105 0 2-0.896 2-2 0-0.002 0-0.004 0-0.006v0-16.002c0-0 0-0.001 0-0.001 0-1.105-0.896-2-2-2-0.021 0-0.042 0-0.063 0.001l0.003-0zM19.999 11.452v9.101l-7.961-4.551z"></path>
<path d="M21.999 24.004h2v2h-2zM21.999 6.001h2v2h-2zM21.999 8.001l-13.998 8.001 13.998 8.001z"></path>
</svg>
