<!-- Generated by IcoMoon.io -->
<svg version="1.1" xmlns="http://www.w3.org/2000/svg" width="32" height="32" viewBox="0 0 32 32">
<title>media-seek-forward</title>
<path d="M18.083 8.001c-0.024-0.001-0.052-0.002-0.080-0.002-1.105 0-2 0.896-2 2 0 0.001 0 0.001 0 0.002v-0 12.002c0.001 1.104 0.896 1.999 2 1.999 0.38 0 0.735-0.106 1.037-0.289l-0.009 0.005 10.002-6.001c0.585-0.356 0.97-0.99 0.97-1.714s-0.385-1.358-0.961-1.709l-0.009-0.005-10.002-6.001c-0.271-0.166-0.596-0.271-0.944-0.286l-0.004-0zM20.003 13.538l4.111 2.464-4.111 2.464z"></path>
<path d="M18.003 22.003h-2v2h2zM18.003 8.001h-2v2h2z"></path>
<path d="M4.081 8.001c-0.024-0.001-0.052-0.002-0.080-0.002-1.105 0-2 0.896-2 2 0 0.001 0 0.001 0 0.002v-0 12.002c0.001 1.104 0.896 1.999 2 1.999 0.38 0 0.735-0.106 1.037-0.289l-0.009 0.005 10.002-6.001c0.585-0.356 0.97-0.99 0.97-1.714s-0.385-1.358-0.961-1.709l-0.009-0.005-10.002-6.001c-0.271-0.166-0.596-0.271-0.944-0.286l-0.004-0zM6.001 13.538l4.111 2.464-4.111 2.464z"></path>
<path d="M4.001 22.003h-2v2h2zM4.001 8.001h-2v2h2zM18.003 10.002l10.002 6.001-10.002 6.001zM4.001 10.002l10.002 6.001-10.002 6.001z"></path>
</svg>
