<!-- Generated by IcoMoon.io -->
<svg version="1.1" xmlns="http://www.w3.org/2000/svg" width="32" height="32" viewBox="0 0 32 32">
<title>media-skip-backward</title>
<path d="M16.008 10.001l-10.003 6.002 10.003 6.002zM30.012 10.001l-10.003 6.002 10.003 6.002z"></path>
<path d="M15.95 8c-0.359 0.012-0.692 0.117-0.977 0.291l0.009-0.005-10.003 6.002c-0.585 0.356-0.97 0.99-0.97 1.714s0.385 1.358 0.961 1.709l0.009 0.005 10.003 6.002c0.293 0.178 0.647 0.283 1.026 0.283 1.104 0 1.999-0.894 2.001-1.998v-12.003c0-0 0-0.001 0-0.001 0-1.105-0.896-2.001-2.001-2.001-0.020 0-0.041 0-0.061 0.001l0.003-0zM14.010 13.534v4.937l-4.117-2.469z"></path>
<path d="M4.001 7.996l-4.001 0.008 0.004 2.001 0.028 12.003 0.008 2.001 4.001-0.008-0.008-2.001-0.028-12.003z"></path>
<path d="M16.008 22.004h2.001v2.001h-2.001zM16.008 8h2.001v2.001h-2.001z"></path>
<path d="M29.954 8c-0.359 0.012-0.692 0.117-0.977 0.291l0.009-0.005-10.003 6.002c-0.585 0.356-0.97 0.99-0.97 1.714s0.385 1.358 0.961 1.709l0.009 0.005 10.003 6.002c0.293 0.178 0.647 0.283 1.026 0.283 1.104 0 1.999-0.894 2.001-1.998v-12.003c0-0 0-0.001 0-0.001 0-1.105-0.896-2.001-2.001-2.001-0.020 0-0.041 0-0.061 0.001l0.003-0zM28.014 13.534v4.937l-4.117-2.469z"></path>
<path d="M30.012 22.004h2.001v2.001h-2.001zM30.012 8h2.001v2.001h-2.001z"></path>
</svg>
