<!-- Generated by IcoMoon.io -->
<svg version="1.1" xmlns="http://www.w3.org/2000/svg" width="32" height="32" viewBox="0 0 32 32">
<title>media-playlist-shuffle-rtl</title>
<path fill="none" stroke="#000" stroke-width="4" stroke-miterlimit="4" stroke-linecap="butt" stroke-linejoin="miter" d="M30.005 8.001h-6.001c-2.216 0-4.001 1.784-4.001 4.001v8.001c0 2.216-1.784 4.001-4.001 4.001h-12.002"></path>
<path fill="none" stroke="#000" stroke-width="4" stroke-miterlimit="4" stroke-linecap="round" stroke-linejoin="miter" d="M8.001 20.003l-4.001 4.001 4.001 4.001M8.001 4.001l-4.001 4.001 4.001 4.001"></path>
<path stroke="#000" fill="#000" stroke-width="2" stroke-miterlimit="4" stroke-linecap="butt" stroke-linejoin="miter" d="M16.002 6.001c0.46 0 0.88 0.088 1.312 0.188-0.962 1.1-1.722 2.354-2.062 3.813h-11.252v-4.001h12.002zM30.005 22.003v4.001h-6.001c-0.46 0-0.88-0.088-1.312-0.188 0.962-1.1 1.722-2.354 2.062-3.813z"></path>
<path stroke="#000" fill="#000" stroke-width="2" stroke-miterlimit="4" stroke-linecap="butt" stroke-linejoin="miter" d="M10.002 18.003h-2v2h2zM10.002 28.004h-2v2h2zM10.002 2h-2v2h2zM10.002 12.002h-2v2h2z"></path>
</svg>
