<!-- Generated by IcoMoon.io -->
<svg version="1.1" xmlns="http://www.w3.org/2000/svg" width="32" height="32" viewBox="0 0 32 32">
<title>media-skip-forward</title>
<path d="M16.084 8c-0.024-0.001-0.052-0.002-0.080-0.002-1.105 0-2.001 0.896-2.001 2.001 0 0.001 0 0.001 0 0.002v-0 12.003c0.001 1.104 0.896 1.999 2.001 1.999 0.38 0 0.735-0.106 1.037-0.29l-0.009 0.005 10.003-6.002c0.585-0.356 0.97-0.99 0.97-1.714s-0.385-1.358-0.961-1.709l-0.009-0.005-10.003-6.002c-0.271-0.166-0.596-0.271-0.944-0.286l-0.004-0zM18.005 13.538l4.111 2.465-4.111 2.465z"></path>
<path d="M28.012 7.996l-0.004 2.001-0.026 12.003-0.008 2.001 4.001 0.008 0.008-2.001 0.026-12.003 0.004-2.001z"></path>
<path d="M16.004 22.004h-2.001v2.001h2.001zM16.004 8h-2.001v2.001h2.001z"></path>
<path d="M2.081 8c-0.024-0.001-0.052-0.002-0.080-0.002-1.105 0-2.001 0.896-2.001 2.001 0 0.001 0 0.001 0 0.002v-0 12.003c0.001 1.104 0.896 1.999 2.001 1.999 0.38 0 0.735-0.106 1.037-0.29l-0.009 0.005 10.003-6.002c0.585-0.356 0.97-0.99 0.97-1.714s-0.385-1.358-0.961-1.709l-0.009-0.005-10.003-6.002c-0.271-0.166-0.596-0.271-0.944-0.286l-0.004-0zM4.001 13.538l4.111 2.465-4.111 2.465z"></path>
<path d="M2.001 22.004h-2.001v2.001h2.001zM2.001 8h-2.001v2.001h2.001zM16.004 10.001l10.003 6.002-10.003 6.002zM2.001 10.001l10.003 6.002-10.003 6.002z"></path>
</svg>
