<!-- Generated by IcoMoon.io -->
<svg version="1.1" xmlns="http://www.w3.org/2000/svg" width="32" height="32" viewBox="0 0 32 32">
<title>media-playlist-shuffle</title>
<path d="M2 6.001v4.001h6.001c1.144 0 2 0.858 2 2v8.001c0 3.291 2.712 6.001 6.001 6.001h12.002v-4.001h-12.002c-1.142 0-2-0.858-2-2v-8.001c0-3.29-2.71-6.001-6.001-6.001z"></path>
<path d="M23.984 17.983c-1.105 0-2 0.896-2 2 0 0.562 0.232 1.070 0.605 1.434l2.587 2.587-2.586 2.586c-0.377 0.364-0.611 0.874-0.611 1.439 0 1.105 0.896 2 2 2 0.565 0 1.075-0.234 1.438-0.61l0.001-0.001 5.415-5.415-5.415-5.415c-0.364-0.374-0.872-0.606-1.434-0.606v0zM23.984 1.98c-1.105 0-2 0.896-2 2 0 0.562 0.232 1.070 0.605 1.434l2.587 2.587-2.586 2.586c-0.377 0.364-0.611 0.874-0.611 1.439 0 1.105 0.896 2 2 2 0.565 0 1.075-0.234 1.438-0.61l0.001-0.001 5.415-5.415-5.415-5.415c-0.364-0.374-0.872-0.606-1.434-0.606v0z"></path>
<path d="M16.002 6.001c-0.46 0-0.88 0.088-1.312 0.188 0.962 1.1 1.722 2.354 2.062 3.813h11.252v-4.001h-12.002zM2 22.003v4.001h6.001c0.46 0 0.88-0.088 1.312-0.188-0.962-1.1-1.722-2.354-2.062-3.813z"></path>
<path d="M22.003 18.003h2v2h-2zM22.003 28.004h2v2h-2zM22.003 2h2v2h-2zM22.003 12.002h2v2h-2z"></path>
</svg>
