<!-- Generated by IcoMoon.io -->
<svg version="1.1" xmlns="http://www.w3.org/2000/svg" width="32" height="32" viewBox="0 0 32 32">
<title>media-playlist-repeat-song-rtl</title>
<path d="M11.982 17.983c-1.105 0-2 0.896-2 2 0 0.562 0.232 1.070 0.605 1.434l2.587 2.587-2.586 2.586c-0.377 0.364-0.611 0.874-0.611 1.439 0 1.105 0.896 2 2 2 0.565 0 1.075-0.234 1.438-0.61l0.001-0.001 5.415-5.415-5.415-5.415c-0.364-0.374-0.872-0.606-1.434-0.606v0z"></path>
<path d="M30.005 18.013v1.99c0 3.291-2.71 6.001-6.001 6.001h-2v-4.001h2c1.144 0 2-0.858 2-2v-1.966zM13.988 10.002h-5.987c-1.142 0-2 0.858-2 2v8.001c0 1.142 0.858 2 2 2h8.001v4.001h-8.001c-3.288 0-6.001-2.71-6.001-6.001v-8.001c0-3.29 2.712-6.001 6.001-6.001h5.965z"></path>
<path d="M12.002 18.003h-2v2h2zM12.002 28.004h-2v2h2zM24.004 0c-4.419 0-8.001 3.582-8.001 8.001s3.582 8.001 8.001 8.001v0c4.419 0 8.001-3.582 8.001-8.001s-3.582-8.001-8.001-8.001v0zM22.003 4.001h4.001v8.001h-4.001l-0.008-3.979-1.992-0.022v-2z"></path>
</svg>
