<!-- Generated by IcoMoon.io -->
<svg version="1.1" xmlns="http://www.w3.org/2000/svg" width="32" height="32" viewBox="0 0 32 32">
<title>microphone-sensitivity-muted</title>
<path d="M11.001 1.975c2.762 0 5 2.239 5 5v10.027c0 2.762-2.239 5-5 5s-5-2.239-5-5v-10.027c0-2.762 2.239-5 5-5z"></path>
<path d="M11.015-3.722c-4.975 0-9.009 4.058-9.009 9.063v11.626c0 5.005 4.033 9.063 9.009 9.063s9.009-4.058 9.009-9.063v-11.626c0-5.005-4.033-9.063-9.009-9.063zM11.015-1.722c3.905 0 7.021 3.135 7.021 7.063v11.626c0 3.929-3.116 7.063-7.021 7.063s-7.021-3.134-7.021-7.063v-11.626c0-3.929 3.116-7.063 7.021-7.063z"></path>
<path d="M4 11.002c0 0.552-0.448 1-1 1s-1-0.448-1-1v0c0-0.552 0.448-1 1-1s1 0.448 1 1v0z"></path>
<path d="M20.002 11.002c0 0.552-0.448 1-1 1s-1-0.448-1-1v0c0-0.552 0.448-1 1-1s1 0.448 1 1v0z"></path>
<path d="M3.813 28.004c-1.065 0.051-1.909 0.927-1.909 2 0 1.106 0.896 2.002 2.002 2.002 0.033 0 0.066-0.001 0.098-0.002l-0.005 0h14.001c0.008 0 0.018 0 0.028 0 1.105 0 2-0.896 2-2s-0.896-2-2-2c-0.010 0-0.020 0-0.030 0l0.002-0h-14.001c-0.028-0.001-0.061-0.002-0.094-0.002s-0.066 0.001-0.098 0.002l0.005-0z"></path>
<path d="M2 30.004h18.002v2h-18.002v-2z"></path>
<path d="M8.001 24.003h6.001v8.001h-6.001v-8.001z"></path>
<path d="M26.003 1.985c-2.198 0-4.017 1.819-4.017 4.017s1.819 4.016 4.017 4.016c2.198 0 4.017-1.819 4.017-4.016s-1.819-4.017-4.017-4.017zM26.003 4.017c1.117 0 1.984 0.868 1.984 1.984s-0.868 1.984-1.984 1.984c-1.117 0-1.984-0.868-1.984-1.984s0.868-1.984 1.984-1.984z"></path>
<path d="M26.003 11.986c-2.198 0-4.017 1.819-4.017 4.017s1.819 4.017 4.017 4.017c2.198 0 4.017-1.819 4.017-4.017s-1.819-4.017-4.017-4.017zM26.003 14.018c1.117 0 1.984 0.868 1.984 1.984s-0.868 1.984-1.984 1.984c-1.117 0-1.984-0.868-1.984-1.984s0.868-1.984 1.984-1.984z"></path>
<path d="M22.002 22.003h2.75l2.25 2.188 2.188-2.188h2.813v2.938l-2.188 2.125 2.188 2.125v2.813h-2.875l-2.125-2.125-2.125 2.125h-2.875v-2.813l2.125-2.125-2.125-2.125v-2.938z"></path>
</svg>
