<!-- Generated by IcoMoon.io -->
<svg version="1.1" xmlns="http://www.w3.org/2000/svg" width="32" height="32" viewBox="0 0 32 32">
<title>microphone-sensitivity-high</title>
<path d="M11 1.976c2.761 0 5 2.239 5 5v10.026c0 2.761-2.239 5-5 5s-5-2.239-5-5v-10.026c0-2.761 2.239-5 5-5z"></path>
<path d="M11.014-3.72c-4.975 0-9.008 4.058-9.008 9.063v11.625c0 5.005 4.033 9.063 9.008 9.063s9.008-4.058 9.008-9.063v-11.625c0-5.005-4.033-9.063-9.008-9.063zM11.014-1.72c3.905 0 7.020 3.134 7.020 7.063v11.625c0 3.928-3.115 7.063-7.020 7.063s-7.020-3.134-7.020-7.063v-11.625c0-3.928 3.115-7.063 7.020-7.063z"></path>
<path d="M4 11.002c0 0.552-0.448 1-1 1s-1-0.448-1-1v0c0-0.552 0.448-1 1-1s1 0.448 1 1v0z"></path>
<path d="M20.001 11.002c0 0.552-0.448 1-1 1s-1-0.448-1-1v0c0-0.552 0.448-1 1-1s1 0.448 1 1v0z"></path>
<path d="M3.75 28.003c-1.052 0.068-1.879 0.937-1.879 2 0 1.107 0.897 2.004 2.004 2.004 0.044 0 0.088-0.001 0.131-0.004l-0.006 0h14.063c0.008 0 0.018 0 0.028 0 1.105 0 2-0.896 2-2s-0.896-2-2-2c-0.010 0-0.020 0-0.030 0l0.002-0h-14.063c-0.037-0.003-0.081-0.004-0.125-0.004s-0.088 0.001-0.131 0.004l0.006-0z"></path>
<path d="M2 30.003h18v2h-18v-2z"></path>
<path d="M8 24.003h6v8h-6v-8z"></path>
<path d="M30.001 26.003c0 2.209-1.791 4-4 4s-4-1.791-4-4v0c0-2.209 1.791-4 4-4s4 1.791 4 4v0z"></path>
<path d="M30.001 16.002c0 2.209-1.791 4-4 4s-4-1.791-4-4v0c0-2.209 1.791-4 4-4s4 1.791 4 4v0z"></path>
<path d="M30.001 6.002c0 2.209-1.791 4-4 4s-4-1.791-4-4v0c0-2.209 1.791-4 4-4s4 1.791 4 4v0z"></path>
</svg>
