<!-- Generated by IcoMoon.io -->
<svg version="1.1" xmlns="http://www.w3.org/2000/svg" width="32" height="32" viewBox="0 0 32 32">
<title>multimedia-player</title>
<path d="M8.939 2c-1.642 0-2.938 1.296-2.938 2.938v22.125c0 1.644 1.296 2.94 2.938 2.94h14.126c1.642 0 2.938-1.296 2.938-2.938v-22.125c0-1.644-1.296-2.94-2.938-2.94zM8.001 4.001h16.002v10.002h-16.002zM16.002 16.002c3.314 0 6.001 2.687 6.001 6.001s-2.687 6.001-6.001 6.001v0c-3.314 0-6.001-2.687-6.001-6.001s2.687-6.001 6.001-6.001v0z"></path>
<path d="M19.003 22.003c0 1.657-1.343 3-3 3v0c-1.657 0-3-1.343-3-3v0c0-1.657 1.343-3 3-3v0c1.657 0 3 1.343 3 3v0z"></path>
</svg>
