<!-- Generated by IcoMoon.io -->
<svg version="1.1" xmlns="http://www.w3.org/2000/svg" width="32" height="32" viewBox="0 0 32 32">
<title>network-wireless</title>
<path d="M9.531 19.67c0.115 0.927 1.047 1.644 2.18 1.644 0.623 0 1.185-0.217 1.584-0.564l0.001-0.001c1.506-1.255 3.906-1.255 5.413 0 0.403 0.461 1.049 0.758 1.777 0.758 1.21 0 2.191-0.818 2.191-1.826 0-0.607-0.356-1.146-0.903-1.478l-0.006-0.004c-3.181-2.651-8.35-2.651-11.531 0-0.438 0.335-0.711 0.814-0.711 1.347 0 0.044 0.002 0.087 0.005 0.13l-0-0.006z"></path>
<path d="M5.411 15.668c0.236 0.839 1.053 1.448 2.026 1.448 0.59 0 1.123-0.224 1.503-0.585l0.001-0.001c3.888-3.564 10.23-3.564 14.119 0 0.386 0.427 0.964 0.696 1.611 0.696 1.154 0 2.089-0.858 2.089-1.915 0-0.593-0.294-1.123-0.756-1.475l-0.003-0.003c-5.485-5.028-14.516-5.028-20.001 0-0.399 0.349-0.646 0.841-0.646 1.385 0 0.159 0.021 0.314 0.061 0.462l-0.003-0.013z"></path>
<path d="M0.929 11.335c0.158 0.932 1.016 1.636 2.051 1.636 0.52 0 0.995-0.178 1.359-0.471l-0.003 0.002c0.064-0.053 0.122-0.107 0.177-0.165l0.002-0.002c6.35-5.903 16.602-5.903 22.952 0 0.375 0.534 1.015 0.881 1.742 0.881 1.146 0 2.075-0.864 2.075-1.929 0-0.676-0.374-1.271-0.94-1.615l-0.008-0.005c-7.935-7.377-20.754-7.377-28.689 0-0.447 0.356-0.728 0.881-0.728 1.467 0 0.070 0.004 0.14 0.012 0.208l-0.001-0.008z"></path>
<path d="M20.003 26.004c0 2.209-1.791 4.001-4.001 4.001s-4.001-1.791-4.001-4.001v0c0-2.209 1.791-4.001 4.001-4.001s4.001 1.791 4.001 4.001v0z"></path>
</svg>
