<!-- Generated by IcoMoon.io -->
<svg version="1.1" xmlns="http://www.w3.org/2000/svg" width="32" height="32" viewBox="0 0 32 32">
<title>network-wireless-signal-none</title>
<path d="M16.002 21.503c-2.48 0-4.501 2.021-4.501 4.501s2.021 4.501 4.501 4.501c2.48 0 4.501-2.021 4.501-4.501s-2.021-4.501-4.501-4.501zM16.002 22.503c1.939 0 3.501 1.561 3.501 3.501s-1.561 3.501-3.501 3.501c-1.939 0-3.501-1.561-3.501-3.501s1.561-3.501 3.501-3.501z"></path>
<path d="M16.002 3.501c-5.747 0-10.592 2.050-14.33 5.294l-0.172 0.152v3.555h3.641l0.141-0.117c2.973-2.472 6.226-3.883 10.72-3.883 4.488 0 7.749 1.5 10.728 3.891l0.137 0.109h3.637v-3.485l-0.168-0.148c-3.375-3.019-8.569-5.368-14.334-5.368zM16.002 4.501c5.415 0 10.311 2.219 13.502 5.012v1.989h-2.336c-3.060-2.412-6.539-4.001-11.166-4.001-4.617 0-8.101 1.506-11.166 4.001h-2.336v-2.055c3.552-3.025 8.069-4.946 13.502-4.946z"></path>
<path d="M16.002 9.501c-4.448 0-8.306 1.503-10.396 4.192l-0.106 0.137v2.672h4.669l0.137-0.102c1.504-1.155 3.32-1.899 5.696-1.899s4.209 0.743 5.692 1.895l0.137 0.105h4.673v-2.676l-0.113-0.141c-2.119-2.605-6.012-4.184-10.388-4.184zM16.002 10.502c4.074 0 7.617 1.505 9.501 3.739v1.262h-3.383c-1.611-1.199-3.619-2-6.118-2-2.502 0-4.494 0.802-6.118 2h-3.383v-1.266c1.852-2.3 5.337-3.735 9.501-3.735z"></path>
<path d="M16.002 15.502c-2.597 0-4.665 0.665-6.329 2.125l-0.172 0.148v2.727h13.002v-2.739l-0.188-0.152c-1.75-1.405-3.712-2.11-6.313-2.11zM16.002 16.502c2.338 0 3.956 0.597 5.501 1.785v1.215h-11.002v-1.223c1.442-1.2 3.153-1.778 5.501-1.778z"></path>
</svg>
