<!-- Generated by IcoMoon.io -->
<svg version="1.1" xmlns="http://www.w3.org/2000/svg" width="32" height="32" viewBox="0 0 32 32">
<title>network-workgroup</title>
<path d="M3.501 8.001c-1.905 0-3.501 1.596-3.501 3.501v9.002c0 1.905 1.596 3.501 3.501 3.501h0.25l-3.001 6.001h18.503l-3-6.001h0.25c1.905 0 3.501-1.596 3.501-3.501v-9.002c0-1.905-1.596-3.501-3.501-3.501h-13.002zM4.001 12.002h12.002v8.001h-12.002v-8.001z"></path>
<path d="M15.503 2c-1.905 0-3.501 1.596-3.501 3.501v0.5h16.003v8.001h-6.001v6.501c0 1.318-0.503 2.54-1.313 3.501h10.564l-3-6.001h0.25c1.905 0 3.501-1.596 3.501-3.501v-9.002c0-1.905-1.596-3.501-3.501-3.501h-13.002z"></path>
</svg>
