<!-- Generated by IcoMoon.io -->
<svg version="1.1" xmlns="http://www.w3.org/2000/svg" width="32" height="32" viewBox="0 0 32 32">
<title>network-cellular-edge</title>
<path d="M4.125 0c-2.3 0-4.125 1.824-4.125 4.127v23.752c0 2.302 1.824 4.127 4.125 4.127h23.754c2.302 0 4.127-1.824 4.127-4.127v-23.752c0-2.304-1.824-4.127-4.127-4.127zM12.002 6.001h12.002v4.001h-12.002v4.001h12.002v4.001h-12.002v4.001h12.002v4.001h-12.002c-1.25 0-1.988-0.482-2.688-1.126-0.66-0.608-1.288-1.58-1.25-2.874h-0.062v-12.002h0.062c-0.026-0.95 0.22-2 0.938-2.812 0.708-0.802 1.868-1.166 3-1.126z"></path>
</svg>
