<!-- Generated by IcoMoon.io -->
<svg version="1.1" xmlns="http://www.w3.org/2000/svg" width="32" height="32" viewBox="0 0 32 32">
<title>network-idle</title>
<path fill="none" opacity="0.35" stroke="#000" stroke-width="1" stroke-miterlimit="4" stroke-linecap="butt" stroke-linejoin="miter" d="M22.003 18.003c0.62 0 1.23-0.18 1.626-0.562l7.187-7.439-7.313-7.439c-0.396-0.38-0.88-0.562-1.5-0.562h-2v2c0 0.514 0.26 1.058 0.626 1.438l2.56 2.562h-9.187c-1.056-0.014-2 0.944-2 2s0.944 2.014 2 2h9.251l-2.438 2.562c-0.364 0.38-0.812 0.924-0.812 1.438v2zM10.002 14.002c-0.62 0-1.23 0.18-1.624 0.562l-7.189 7.439 7.313 7.439c0.396 0.38 0.88 0.562 1.5 0.562h2v-2c0-0.514-0.26-1.058-0.624-1.438l-2.564-2.562h9.189c1.056 0.014 2-0.944 2-2s-0.944-2.014-2-2h-9.251l2.438-2.562c0.366-0.38 0.812-0.924 0.812-1.438v-2z"></path>
</svg>
