<!-- Generated by IcoMoon.io -->
<svg version="1.1" xmlns="http://www.w3.org/2000/svg" width="32" height="32" viewBox="0 0 32 32">
<title>network-wired-no-route</title>
<path d="M0 21.981h10.036v9.948h-10.036zM10.052 2.051v6.062c1.507-1.177 3.394-1.934 5.451-2.067l0.029-0.002c0.14-0.007 0.305-0.011 0.47-0.011 1.481 0 2.886 0.327 4.146 0.913l-0.061-0.025v-4.87zM22.057 22.061h10.036v9.948h-10.036z"></path>
<path d="M15.75 9.938c3.287-0.184 6.194 2.341 6.379 5.626 0 2.805-0.756 3.846-3.189 5.69-0.38 0.288-0.652 0.5-0.75 0.626-0.1 0.124-0.062 0.066-0.062 0.060 0.014 1.058-0.944 2.001-2.001 2.001-1.058 0-2.015-0.942-2.001-2.001 0-1.004 0.448-1.887 0.938-2.501 0.42-0.52 0.892-0.973 1.416-1.36l0.021-0.015c0.408-0.32 0.922-0.768 1.377-1.313 0.186-0.224 0.258-0.616 0.25-0.876v-0.060c-0.052-1.050-0.916-1.883-1.975-1.883-0.054 0-0.107 0.002-0.159 0.006l0.007-0c-1.126 0.062-1.939 0.874-1.875 2.001h-4.002c-0.184-3.287 2.341-5.818 5.626-6.002zM16.126 25.944c1.105 0 2.001 0.896 2.001 2.001s-0.896 2.001-2.001 2.001v0c-1.105 0-2.001-0.896-2.001-2.001s0.896-2.001 2.001-2.001v0z"></path>
</svg>
