<!-- Generated by IcoMoon.io -->
<svg version="1.1" xmlns="http://www.w3.org/2000/svg" width="32" height="32" viewBox="0 0 32 32">
<title>network-vpn</title>
<path d="M14.002 20.003v6.001h4.001v-6.001zM4.001 26.004v4.001h24.004v-4.001z"></path>
<path d="M8.001 10.002h16.002v12.002h-16.002z"></path>
<path d="M16.002 2s-1.418-0.028-2.894 0.71c-1.478 0.74-3.106 2.624-3.106 5.291v6.001h4.001v-6.001c0-1.334 0.372-1.45 0.894-1.71 0.526-0.262 1.106-0.29 1.106-0.29s0.582 0.028 1.106 0.29c0.522 0.26 0.894 0.376 0.894 1.71v6.001h4.001v-6.001c0-2.666-1.628-4.551-3.106-5.291-1.474-0.738-2.894-0.71-2.894-0.71z"></path>
</svg>
