<!-- Generated by IcoMoon.io -->
<svg version="1.1" xmlns="http://www.w3.org/2000/svg" width="32" height="32" viewBox="0 0 32 32">
<title>network-wireless-connected</title>
<path d="M16.002 4.001v2h2v-1.938c-0.646-0.054-1.32-0.062-2-0.062zM18.003 6.001v2h2v-2zM20.003 6.001h2v-1.188c-0.526-0.154-1.202-0.306-1.889-0.421l-0.111-0.015zM22.003 6.001v2h2v-2zM24.004 6.001h1c-0.33-0.168-0.654-0.29-1-0.438zM24.004 8.001v2h2v-2zM26.004 8.001h2v2h2c-1.127-1.353-2.449-2.495-3.931-3.399l-0.069-0.039zM30.005 10.002v2h-2v2h-2v2h-2v2h-2v2h-2v-2h-2v2h-2v-2h-2v2h-2v-2h-2v-2h-2v-2h-2v-2h-2v-2h-1.126c-3.13 3.703-0.874 8.753-0.874 14.002 0 10.432 2.78 12.002 14.002 12.002s14.002-1.568 14.002-12.002c0-4.749 2.592-10.884 0-14.002zM4.001 10.002h2v-2h-1.126c-0.288 0.248-0.6 0.484-0.874 0.75zM6.001 8.001h2v-2h-0.126c-0.656 0.348-1.278 0.698-1.874 1.126zM8.001 6.001h2v-1c-0.692 0.25-1.36 0.606-2 0.938zM10.002 6.001v2h2v-2zM12.002 6.001h2v-1.876c-0.768 0.077-1.45 0.187-2.117 0.336l0.117-0.022zM14.002 6.001v2h2v-2zM16.002 8.001v2h2v-2zM18.003 10.002v2h2v-2zM20.003 10.002h2v-2h-2zM22.003 10.002v2h2v-2zM24.004 12.002v2h2v-2zM26.004 12.002h2v-2h-2zM24.004 14.002h-2v2h2zM22.003 16.002h-2v2h2zM20.003 16.002v-2h-2v2zM18.003 16.002h-2v2h2zM16.002 16.002v-2h-2v2zM14.002 16.002h-2v2h2zM12.002 16.002v-2h-2v2zM10.002 14.002v-2h-2v2zM8.001 12.002v-2h-2v2zM8.001 10.002h2v-2h-2zM10.002 10.002v2h2v-2zM12.002 10.002h2v-2h-2zM14.002 10.002v2h2v-2zM16.002 12.002v2h2v-2zM14.002 12.002h-2v2h2zM20.003 14.002h2v-2h-2z"></path>
<path d="M20.003 26.004c0 2.209-1.791 4.001-4.001 4.001s-4.001-1.791-4.001-4.001v0c0-2.209 1.791-4.001 4.001-4.001s4.001 1.791 4.001 4.001v0z"></path>
</svg>
