<!-- Generated by IcoMoon.io -->
<svg version="1.1" xmlns="http://www.w3.org/2000/svg" width="32" height="32" viewBox="0 0 32 32">
<title>network-workgroup</title>
<path d="M3.501 8.001c-1.904 0-3.501 1.596-3.501 3.501v9.001c0 1.904 1.596 3.501 3.501 3.501h0.25l-1.562 3.126-1.438 2.874h18.503l-1.438-2.874-1.562-3.126h0.25c1.904 0 3.501-1.596 3.501-3.501v-9.001c0-1.904-1.596-3.501-3.501-3.501zM4.001 12.002h12.002v8.001h-12.002z"></path>
<path d="M15.502 2c-1.904 0-3.501 1.596-3.501 3.501v0.5h16.002v8.001h-6.001v6.501c0 1.32-0.504 2.54-1.312 3.501h10.562l-3-6.001h0.252c1.904 0 3.501-1.596 3.501-3.501v-9.001c0-1.904-1.596-3.501-3.501-3.501z"></path>
</svg>
