<!-- Generated by IcoMoon.io -->
<svg version="1.1" xmlns="http://www.w3.org/2000/svg" width="32" height="32" viewBox="0 0 32 32">
<title>network-cellular-acquiring</title>
<path d="M24.004 2.020v12.002h4.001v10.002h-4.001v6.001h6.001v-28.044zM16.002 7.981v6.001h6.001v-6.001zM8.001 11.982v2h6.001v-2zM0.042 19.983l-0.042 10.002h6.043v-6.001h-4.001v-4.001zM8.001 23.984v6.001h6.001v-6.001zM16.002 23.984v6.001h6.001v-6.001z"></path>
<path d="M10.002 19.003c0 1.657-1.343 3-3 3v0c-1.657 0-3-1.343-3-3v0c0-1.657 1.343-3 3-3v0c1.657 0 3 1.343 3 3v0zM18.003 19.003c0 1.657-1.343 3-3 3v0c-1.657 0-3-1.343-3-3v0c0-1.657 1.343-3 3-3v0c1.657 0 3 1.343 3 3v0zM26.004 19.003c0 1.657-1.343 3-3 3v0c-1.657 0-3-1.343-3-3v0c0-1.657 1.343-3 3-3v0c1.657 0 3 1.343 3 3v0z"></path>
</svg>
