<!-- Generated by IcoMoon.io -->
<svg version="1.1" xmlns="http://www.w3.org/2000/svg" width="32" height="32" viewBox="0 0 32 32">
<title>network-wireless-signal-good</title>
<path d="M20.003 26.004c0 2.209-1.791 4.001-4.001 4.001v0c-2.209 0-4.001-1.791-4.001-4.001v0c0-2.209 1.791-4.001 4.001-4.001v0c2.209 0 4.001 1.791 4.001 4.001v0z"></path>
<path d="M16.002 3.501c-5.747 0-10.592 2.050-14.33 5.294l-0.172 0.152v3.555h3.641l0.141-0.117c2.973-2.472 6.226-3.883 10.72-3.883 4.488 0 7.749 1.5 10.728 3.891l0.137 0.109h3.637v-3.485l-0.168-0.148c-3.375-3.019-8.569-5.368-14.334-5.368zM16.002 4.501c5.415 0 10.311 2.219 13.502 5.012v1.989h-2.336c-3.060-2.412-6.539-4.001-11.166-4.001-4.617 0-8.101 1.506-11.166 4.001h-2.336v-2.055c3.552-3.025 8.069-4.946 13.502-4.946z"></path>
<path d="M16.002 10.002c-4.335 0-8.041 1.478-10.002 4.001v2h4.001c1.578-1.212 3.519-2 6.001-2s4.441 0.788 6.001 2h4.001v-2c-1.99-2.446-5.747-4.001-10.002-4.001z"></path>
<path d="M16.002 16.002c-2.514 0-4.433 0.624-6.001 2v2h12.002v-2c-1.674-1.344-3.487-2-6.001-2z"></path>
</svg>
