<!-- Generated by IcoMoon.io -->
<svg version="1.1" xmlns="http://www.w3.org/2000/svg" width="32" height="32" viewBox="0 0 32 32">
<title>network-cellular-acquiring</title>
<path d="M0.044 18.003v12.002h6.001v-6.001h-4.001v-6.001h-2z"></path>
<path d="M24.003 0.044v14.002h4.001v10.001h-4.001v6.001h6.001v-30.005h-6.001z"></path>
<path d="M8.001 24.004v6.001h6.001v-6.001h-6.001z"></path>
<path d="M16.002 24.004v6.001h6.001v-6.001h-6.001z"></path>
<path d="M8.001 12.002v2h6.001v-2h-6.001z"></path>
<path d="M16.002 6.001v8.001h6.001v-8.001h-6.001z"></path>
<path d="M10.001 19.003c0 1.657-1.343 3-3 3s-3-1.343-3-3v0c0-1.657 1.343-3 3-3s3 1.343 3 3v0z"></path>
<path d="M18.002 19.003c0 1.657-1.343 3-3 3s-3-1.343-3-3v0c0-1.657 1.343-3 3-3s3 1.343 3 3v0z"></path>
<path d="M26.003 19.003c0 1.657-1.343 3-3 3s-3-1.343-3-3v0c0-1.657 1.343-3 3-3s3 1.343 3 3v0z"></path>
</svg>
