<!-- Generated by IcoMoon.io -->
<svg version="1.1" xmlns="http://www.w3.org/2000/svg" width="32" height="32" viewBox="0 0 32 32">
<title>network-cellular-edge</title>
<path d="M4.126-0c-2.302 0-4.126 1.824-4.126 4.126v23.754c0 2.302 1.824 4.126 4.126 4.126h23.754c2.302 0 4.126-1.824 4.126-4.126v-23.754c0-2.302-1.824-4.126-4.126-4.126h-23.754zM12.002 6.001h12.002v4.001h-12.002v4.001h12.002v4.001h-12.002v4.001c-0.001-0.001 0.063 0 0.063 0h11.94v4.001h-12.002c-1.25 0-1.989-0.482-2.688-1.125-0.662-0.609-1.288-1.58-1.25-2.875h-0.063v-12.002h0.063c-0.026-0.95 0.22-2 0.938-2.813 0.707-0.802 1.869-1.166 3.001-1.125v-0.063z"></path>
</svg>
