<!-- Generated by IcoMoon.io -->
<svg version="1.1" xmlns="http://www.w3.org/2000/svg" width="32" height="32" viewBox="0 0 32 32">
<title>network-cellular-connected</title>
<path d="M12.002 2c-2.020 0.010-2 2-2 2v22.003c0 2 2 2 2 2h8.001c2 0 2-2 2-2v-16.002c0-1.108-0.892-2-2-2h-6.001v-4.001s-0.018-1.988-2-2zM12.002 10.002h8.001v6.063l-8.001-0.062zM12.002 18.003h2v2h2v-2h2v2h2v2h-2v2h2v2h-2v-2h-2v2h-2v-2h-2v-2h2v-2h-2zM14.002 22.003v2h2v-2zM16.002 22.003h2v-2h-2z"></path>
<path d="M32.005 10.002v2c0 0.514-0.26 1.056-0.626 1.438l-2.558 2.562 2.56 2.562c0.366 0.38 0.626 0.924 0.626 1.438v2h-2c-0.62 0-1.104-0.18-1.5-0.562l-5.315-5.439 5.313-5.439c0.396-0.38 0.88-0.562 1.5-0.562zM0 10.002v2c0 0.514 0.26 1.056 0.626 1.438l2.56 2.562-2.558 2.562c-0.368 0.38-0.628 0.924-0.628 1.438v2h2c0.62 0 1.104-0.18 1.5-0.562l5.313-5.439-5.313-5.439c-0.396-0.38-0.88-0.562-1.5-0.562z"></path>
</svg>
