<!-- Generated by IcoMoon.io -->
<svg version="1.1" xmlns="http://www.w3.org/2000/svg" width="32" height="32" viewBox="0 0 32 32">
<title>network-wireless-hotspot</title>
<path d="M6.001 2c-4.001 0-4.001 4.001-4.001 4.001v20.003c0 4.001 4.001 4.001 4.001 4.001l20.003-0.187c4-0.037 4.001-3.813 4.001-3.813v-20.003c0-4.001-4.001-4.001-4.001-4.001h-20.003zM16.002 6.063c3.629 0 7.259 1.236 10.002 3.751v2.188h-3.626c-3.687-2.821-9.065-2.821-12.752 0h-3.626v-2.188c2.742-2.514 6.372-3.751 10.002-3.751zM16.002 12.189c2.088 0 4.16 0.675 5.751 2 0.087 0.037 0.17 0.079 0.25 0.125v1.688h-12.002v-1.625c0.077-0.068 0.161-0.13 0.25-0.187 1.59-1.325 3.663-2 5.751-2zM16.002 18.003c2.209 0 4.001 1.791 4.001 4.001s-1.791 4.001-4.001 4.001c-2.209 0-4.001-1.791-4.001-4.001s1.791-4.001 4.001-4.001z"></path>
</svg>
