<!-- Generated by IcoMoon.io -->
<svg version="1.1" xmlns="http://www.w3.org/2000/svg" width="32" height="32" viewBox="0 0 32 32">
<title>network-wireless</title>
<path d="M9.547 19.486c0.002 1.007 0.982 1.823 2.191 1.823 0.615 0 1.172-0.211 1.57-0.552l0-0c0.715-0.595 1.683-0.926 2.696-0.926 1.011 0 1.979 0.331 2.694 0.926 0.402 0.366 0.978 0.594 1.618 0.594 1.21 0 2.191-0.818 2.191-1.826 0-0.533-0.274-1.012-0.711-1.346l-0.002-0.001c-1.482-1.236-3.531-2-5.793-2h-0c-2.171 0-4.255 0.722-5.791 2-0.41 0.332-0.664 0.795-0.665 1.308v0z"></path>
<path d="M5.406 15.242c0 0 0 0 0 0.001 0 1.058 0.936 1.916 2.090 1.916 0.588 0 1.118-0.222 1.498-0.58l0-0c1.793-1.645 4.271-2.662 7.008-2.662s5.215 1.017 7.008 2.662l0 0c0.378 0.347 0.901 0.561 1.478 0.561 1.154 0 2.090-0.858 2.090-1.916 0-0.529-0.234-1.008-0.612-1.355v0c-2.55-2.337-6.073-3.783-9.964-3.783s-7.414 1.446-9.964 3.783v0c-0.39 0.348-0.633 0.835-0.633 1.373 0 0 0 0 0 0.001v-0z"></path>
<path d="M0.962 10.999c0.003 1.064 0.932 1.926 2.077 1.926 0.582 0 1.109-0.223 1.486-0.582l0-0c2.934-2.73 6.988-4.419 11.467-4.419s8.533 1.689 11.467 4.418l0 0c0.382 0.4 0.937 0.651 1.555 0.651 1.147 0 2.077-0.865 2.077-1.931 0-0.574-0.27-1.090-0.698-1.444l-0.002-0.002c-3.686-3.426-8.778-5.545-14.402-5.545s-10.716 2.119-14.402 5.545v0c-0.386 0.351-0.625 0.84-0.625 1.381 0 0.002 0 0.004 0 0.006v-0z"></path>
<path d="M20.003 26.004c0 2.209-1.791 4.001-4.001 4.001v0c-2.209 0-4.001-1.791-4.001-4.001v0c0-2.209 1.791-4.001 4.001-4.001v0c2.209 0 4.001 1.791 4.001 4.001v0z"></path>
</svg>
