<!-- Generated by IcoMoon.io -->
<svg version="1.1" xmlns="http://www.w3.org/2000/svg" width="32" height="32" viewBox="0 0 32 32">
<title>network-cellular-no-route</title>
<path d="M0 20.003v10.002h6.001v-10.002zM24.004 2v28.004h6.001v-28.004z"></path>
<path d="M15.698 9.94c3.285-0.184 6.193 2.34 6.377 5.625 0 2.804-0.756 3.845-3.188 5.689-0.382 0.288-0.652 0.5-0.75 0.626-0.1 0.124-0.062 0.066-0.062 0.060 0.014 1.058-0.944 2-2 2-1.058 0-2.014-0.942-2-2 0-1.004 0.448-1.886 0.936-2.5 0.421-0.52 0.895-0.973 1.419-1.359l0.021-0.015c0.406-0.32 0.92-0.768 1.374-1.312 0.186-0.224 0.258-0.616 0.25-0.876v-0.060c-0.052-1.050-0.916-1.882-1.974-1.882-0.054 0-0.107 0.002-0.159 0.006l0.007-0c-1.126 0.062-1.938 0.874-1.874 2h-4.001c-0.184-3.287 2.34-5.817 5.625-6.001zM16.074 25.942c1.105 0 2 0.896 2 2s-0.896 2-2 2v0c-1.105 0-2-0.896-2-2s0.896-2 2-2v0z"></path>
<path d="M16.002 8.001v0.062c2.36 0 4.525 1.064 6.001 2.75v-2.812zM8.001 14.002v16.002h4.813c-0.381-0.583-0.612-1.295-0.624-2.059l-0-0.003c0-1.3 0.75-2.296 1.75-3-1.002-0.696-1.768-1.65-1.75-3 0-1.564 0.688-2.826 1.374-3.689 0.156-0.196 0.28-0.27 0.438-0.438h-3.939c-0.001 0-0.001 0-0.002 0-0.992 0-1.804-0.77-1.872-1.744l-0-0.006c-0.007-0.124-0.012-0.269-0.012-0.415 0-0.584 0.067-1.152 0.193-1.698l-0.010 0.050zM22.003 21.003c-0.606 0.631-1.259 1.205-1.959 1.721l-0.042 0.029c-0.18 0.136-0.34 0.288-0.438 0.376 0 0.006-0.060-0.010-0.062 0-0.016 0.020-0.062 0.058-0.062 0.060-0.022 0.024-0.010 0.076-0.062 0.126-0.28 0.68-0.594 1.214-1.188 1.626 1 0.704 1.75 1.7 1.75 3 0 0.746-0.25 1.466-0.626 2.062h2.688v-3z"></path>
</svg>
