<!-- Generated by IcoMoon.io -->
<svg version="1.1" xmlns="http://www.w3.org/2000/svg" width="32" height="32" viewBox="0 0 32 32">
<title>network-cellular-connected</title>
<path d="M12.002 2c-2.019 0.010-2 2-2 2v22.003c0 2 2 2 2 2h8.001c2 0 2-2 2-2v-16.002c0.002-1.108-0.892-2-2-2h-6.001v-4.001c0 0-0.018-1.989-2-2zM12.002 10.002h8.001v6.063l-8.001-0.062zM12.002 18.003h2v2h2v-2h2v2h2v2h-2v2h2v2h-2v-2h-2v2h-2v-2h-2v-2h2v-2h-2zM14.002 22.003v2h2v-2zM16.002 22.003h2v-2h-2z"></path>
<path d="M32.005 10.002v2c0 0.514-0.26 1.057-0.625 1.438l-2.563 2.563 2.563 2.563c0.365 0.381 0.625 0.924 0.625 1.438v2h-2c-0.619 0-1.105-0.181-1.5-0.563l-5.313-5.438 5.313-5.438c0.395-0.382 0.881-0.563 1.5-0.563h2z"></path>
<path d="M0 10.002v2c0 0.514 0.26 1.057 0.625 1.438l2.563 2.563-2.563 2.563c-0.365 0.381-0.625 0.924-0.625 1.438v2h2c0.619 0 1.105-0.181 1.5-0.563l5.313-5.438-5.313-5.438c-0.395-0.382-0.881-0.563-1.5-0.563h-2z"></path>
</svg>
