<!-- Generated by IcoMoon.io -->
<svg version="1.1" xmlns="http://www.w3.org/2000/svg" width="32" height="32" viewBox="0 0 32 32">
<title>network-server</title>
<path d="M12.002 24.004v4.001h-11.064c-0.526 0-0.938 0.411-0.938 0.938v2.125c0 0.526 0.412 0.938 0.938 0.938 8.71 0 17.419 0 26.129 0 0.526 0 0.938-0.412 0.938-0.938v-2.125c0-0.526-0.412-0.938-0.938-0.938h-11.064v-4.001z"></path>
<path d="M8.001 0c-2.182 0-4.001 1.819-4.001 4.001v16.002c0 2.182 1.819 4.001 4.001 4.001h12.002c2.182 0 4.001-1.819 4.001-4.001v-16.002c0-2.182-1.819-4.001-4.001-4.001h-12.002zM8.001 4.001h12.002v16.002h-12.002v-16.002z"></path>
<path d="M10.002 6.001h8.001v2h-8.001v-2z"></path>
<path d="M16.002 10.002h2v2h-2v-2z"></path>
</svg>
