<!-- Generated by IcoMoon.io -->
<svg version="1.1" xmlns="http://www.w3.org/2000/svg" width="32" height="32" viewBox="0 0 32 32">
<title>network-wired-no-route</title>
<path d="M-0 21.981h10.036v9.948h-10.036v-9.948z"></path>
<path d="M10.053 2.051v6.061c1.558-1.192 3.457-1.954 5.479-2.067 1.616-0.090 3.155 0.254 4.557 0.875v-4.869h-10.035z"></path>
<path d="M22.058 22.061h10.036v9.948h-10.036v-9.948z"></path>
<path d="M15.751 9.937c3.286-0.184 6.194 2.341 6.378 5.627-0 2.804-0.756 3.845-3.189 5.69-0.382 0.287-0.651 0.501-0.75 0.625s-0.062 0.066-0.062 0.062c0.014 1.057-0.944 2.001-2.001 2.001s-2.015-0.944-2.001-2.001c0-1.005 0.449-1.888 0.938-2.501s0.983-1.033 1.438-1.376c0.408-0.321 0.922-0.769 1.376-1.313 0.187-0.224 0.258-0.616 0.25-0.875v-0.062c-0.063-1.127-0.999-1.939-2.126-1.876s-1.939 0.874-1.876 2.001h-4.002c-0.184-3.286 2.341-5.818 5.627-6.002zM16.126 25.944c1.105 0 2.001 0.896 2.001 2.001s-0.896 2.001-2.001 2.001c-1.105 0-2.001-0.896-2.001-2.001s0.896-2.001 2.001-2.001z"></path>
</svg>
