<!-- Generated by IcoMoon.io -->
<svg version="1.1" xmlns="http://www.w3.org/2000/svg" width="32" height="32" viewBox="0 0 32 32">
<title>network-wireless-hotspot</title>
<path d="M6.001 2c-4.001 0-4.001 4.001-4.001 4.001v20.003c0 4.001 4.001 4.001 4.001 4.001l20.003-0.188c4.001-0.036 4.001-3.813 4.001-3.813v-20.003c0-4.001-4.001-4.001-4.001-4.001zM16.002 6.063c3.629 0 7.259 1.236 10.002 3.751v2.188h-3.627c-3.685-2.82-9.061-2.82-12.748 0h-3.629v-2.188c2.742-2.512 6.373-3.751 10.001-3.751zM16.002 12.19c2.088 0 4.161 0.674 5.751 2 0.086 0.036 0.17 0.080 0.25 0.124v1.688h-12.002v-1.626c0.078-0.066 0.16-0.13 0.25-0.186 1.59-1.326 3.663-2 5.751-2zM16.002 18.003c2.209 0 4.001 1.791 4.001 4.001s-1.791 4.001-4.001 4.001v0c-2.209 0-4.001-1.791-4.001-4.001s1.791-4.001 4.001-4.001v0z"></path>
</svg>
