<!-- Generated by IcoMoon.io -->
<svg version="1.1" xmlns="http://www.w3.org/2000/svg" width="32" height="32" viewBox="0 0 32 32">
<title>network-wireless-acquiring</title>
<path d="M20.003 26.004c0 2.209-1.791 4.001-4.001 4.001v0c-2.209 0-4.001-1.791-4.001-4.001v0c0-2.209 1.791-4.001 4.001-4.001v0c2.209 0 4.001 1.791 4.001 4.001v0z"></path>
<path d="M16.002 4.001c-5.629 0-10.346 2-14.002 5.173v2.828h2.96c3.040-2.528 6.441-4.001 11.042-4.001s8.001 1.56 11.042 4.001h2.96v-2.76c-3.28-2.934-8.373-5.241-14.002-5.241z"></path>
<path d="M16.002 10.002c-3.008 0-5.721 0.72-7.751 2h15.378c-2.044-1.254-4.703-2-7.627-2z"></path>
<path d="M6.993 13.994h0.032c1.658 0 2.992 1.334 2.992 2.992v0.032c0 1.658-1.334 2.992-2.992 2.992h-0.032c-0.002 0-0.004 0-0.006 0-1.649 0-2.986-1.337-2.986-2.986 0-0.002 0-0.004 0-0.006v0-0.032c0-1.658 1.334-2.992 2.992-2.992zM14.994 13.994h0.032c1.658 0 2.992 1.334 2.992 2.992v0.032c0 1.658-1.334 2.992-2.992 2.992h-0.032c-0.002 0-0.004 0-0.006 0-1.649 0-2.986-1.337-2.986-2.986 0-0.002 0-0.004 0-0.006v0-0.032c0-1.658 1.334-2.992 2.992-2.992zM23.011 13.994c1.666 0 3.008 1.334 3.008 2.992v0.032c0 1.658-1.34 2.992-3.008 2.992-0.004 0-0.009 0-0.014 0-1.653 0-2.993-1.34-2.994-2.992v-0.032c0-1.658 1.34-2.992 3.008-2.992z"></path>
</svg>
