<!-- Generated by IcoMoon.io -->
<svg version="1.1" xmlns="http://www.w3.org/2000/svg" width="32" height="32" viewBox="0 0 32 32">
<title>non-starred</title>
<path d="M16.021 1.999c-0.532-0.002-0.997 0.234-1.329 0.511s-0.578 0.606-0.802 0.964c-0.449 0.716-0.808 1.574-1.153 2.444s-0.672 1.746-0.987 2.435c-0.315 0.689-0.699 1.176-0.725 1.194s-0.622 0.216-1.399 0.285c-0.777 0.070-1.744 0.087-2.708 0.128s-1.921 0.098-2.767 0.282c-0.423 0.092-0.823 0.214-1.201 0.43s-0.757 0.565-0.923 1.053c-0.166 0.487-0.076 0.987 0.095 1.377s0.415 0.72 0.698 1.036c0.567 0.633 1.303 1.225 2.054 1.811s1.516 1.159 2.098 1.661c0.582 0.502 0.939 1.001 0.948 1.031s0.020 0.637-0.151 1.372c-0.172 0.735-0.448 1.631-0.706 2.528s-0.5 1.789-0.58 2.622c-0.040 0.416-0.044 0.822 0.052 1.235s0.324 0.871 0.753 1.175c0.429 0.303 0.948 0.376 1.386 0.34s0.836-0.162 1.236-0.324c0.799-0.324 1.611-0.813 2.421-1.321s1.609-1.036 2.284-1.415c0.675-0.379 1.282-0.552 1.314-0.552s0.633 0.179 1.304 0.563c0.671 0.384 1.466 0.915 2.27 1.429s1.614 1.014 2.41 1.344c0.398 0.165 0.797 0.294 1.234 0.334s0.956-0.033 1.387-0.333 0.663-0.752 0.763-1.165c0.1-0.413 0.101-0.819 0.065-1.236-0.073-0.834-0.307-1.728-0.557-2.628s-0.52-1.799-0.685-2.535c-0.165-0.736-0.151-1.344-0.141-1.373s0.371-0.527 0.957-1.024c0.586-0.497 1.36-1.064 2.115-1.644s1.492-1.165 2.064-1.793c0.286-0.314 0.537-0.64 0.711-1.029s0.268-0.887 0.106-1.375c-0.162-0.489-0.539-0.845-0.915-1.064s-0.775-0.345-1.197-0.44c-0.844-0.191-1.8-0.251-2.764-0.3s-1.933-0.078-2.71-0.154c-0.777-0.076-1.371-0.278-1.397-0.296s-0.406-0.505-0.715-1.197-0.627-1.573-0.964-2.445c-0.338-0.872-0.689-1.732-1.131-2.451-0.221-0.36-0.463-0.69-0.793-0.97s-0.795-0.521-1.327-0.523zM16.011 4.010c0.086 0.075 0.229 0.239 0.379 0.483 0.31 0.503 0.647 1.295 0.973 2.138s0.649 1.74 1.003 2.533c0.354 0.793 0.66 1.497 1.381 2.007s1.502 0.577 2.392 0.664c0.89 0.087 1.877 0.113 2.809 0.16s1.817 0.121 2.408 0.255c0.286 0.065 0.488 0.144 0.589 0.2-0.048 0.102-0.165 0.283-0.359 0.496-0.4 0.439-1.071 0.993-1.801 1.553s-1.518 1.133-2.19 1.703c-0.672 0.57-1.268 1.064-1.548 1.884s-0.108 1.565 0.081 2.408c0.189 0.844 0.47 1.757 0.712 2.626s0.442 1.701 0.493 2.284c0.025 0.283 0.007 0.494-0.018 0.603-0.115-0.012-0.33-0.062-0.6-0.174-0.557-0.231-1.308-0.682-2.086-1.179s-1.589-1.039-2.358-1.48c-0.769-0.441-1.439-0.837-2.333-0.84s-1.572 0.385-2.346 0.819-1.588 0.972-2.37 1.463c-0.782 0.491-1.541 0.934-2.1 1.161-0.271 0.11-0.485 0.161-0.601 0.173-0.023-0.11-0.040-0.324-0.013-0.607 0.056-0.582 0.265-1.41 0.515-2.278s0.539-1.778 0.735-2.62c0.197-0.842 0.377-1.584 0.104-2.406s-0.868-1.321-1.536-1.896c-0.667-0.575-1.449-1.156-2.174-1.723s-1.394-1.126-1.79-1.568c-0.192-0.215-0.306-0.399-0.353-0.502 0.101-0.055 0.303-0.133 0.589-0.195 0.591-0.129 1.475-0.196 2.407-0.235s1.915-0.056 2.806-0.136 1.678-0.144 2.404-0.648c0.726-0.504 1.035-1.203 1.396-1.993s0.694-1.686 1.028-2.527 0.675-1.628 0.989-2.128c0.153-0.244 0.296-0.408 0.382-0.482z"></path>
</svg>
