<!-- Generated by IcoMoon.io -->
<svg version="1.1" xmlns="http://www.w3.org/2000/svg" width="32" height="32" viewBox="0 0 32 32">
<title>object-flip-horizontal</title>
<path d="M6.001 14.002v4.001h20.003v-4.001h-20.003z"></path>
<path d="M20.003 8.001v2c0 0.514 0.26 1.057 0.625 1.438l4.563 4.563-4.563 4.563c-0.365 0.381-0.625 0.924-0.625 1.438v2h2c0.619 0 1.105-0.181 1.5-0.563l7.314-7.439-7.314-7.439c-0.395-0.382-0.881-0.563-1.5-0.563z"></path>
<path d="M12.002 8.001v2c0 0.514-0.26 1.057-0.625 1.438l-4.563 4.563 4.563 4.563c0.365 0.381 0.625 0.924 0.625 1.438v2h-2c-0.619 0-1.105-0.181-1.5-0.563l-7.314-7.439 7.314-7.439c0.395-0.382 0.881-0.563 1.5-0.563z"></path>
</svg>
