<!-- Generated by IcoMoon.io -->
<svg version="1.1" xmlns="http://www.w3.org/2000/svg" width="32" height="32" viewBox="0 0 32 32">
<title>object-flip-vertical</title>
<path d="M14.002 6.001v20.003h4.001v-20.003h-4.001z"></path>
<path d="M8.001 20.003v2c0 0.531 0.186 1.061 0.563 1.438l7.439 7.439c0 0 4.959-4.959 7.439-7.439 0.376-0.376 0.563-0.907 0.563-1.438v-2h-2c-0.531 0-1.061 0.186-1.438 0.563l-4.563 4.563-4.563-4.563c-0.376-0.376-0.907-0.563-1.438-0.563z"></path>
<path d="M8.002 12.002v-2c0-0.531 0.186-1.061 0.563-1.438l7.439-7.439c0 0 4.959 4.959 7.439 7.439 0.376 0.376 0.563 0.907 0.563 1.438v2h-2c-0.531 0-1.061-0.186-1.438-0.563l-4.563-4.563-4.563 4.563c-0.376 0.376-0.907 0.563-1.438 0.563z"></path>
</svg>
