<!-- Generated by IcoMoon.io -->
<svg version="1.1" xmlns="http://www.w3.org/2000/svg" width="32" height="32" viewBox="0 0 32 32">
<title>orientation-portrait</title>
<path d="M26.135 4.351c0-0.002 0-0.004 0-0.006 0-1.229-0.997-2.226-2.226-2.226-0.002 0-0.004 0-0.006 0h-15.734c-0.002 0-0.004 0-0.006 0-1.229 0-2.226 0.997-2.226 2.226 0 0.002 0 0.004 0 0.006v-0 23.54c0 0.002 0 0.004 0 0.006 0 1.229 0.997 2.226 2.226 2.226 0.002 0 0.004 0 0.006 0h15.734c0.002 0 0.004 0 0.006 0 1.229 0 2.226-0.997 2.226-2.226 0-0.002 0-0.004 0-0.006v0zM20.119 16.067l-8.148 8.002v-16.044z"></path>
</svg>
