<!-- Generated by IcoMoon.io -->
<svg version="1.1" xmlns="http://www.w3.org/2000/svg" width="32" height="32" viewBox="0 0 32 32">
<title>pda</title>
<path d="M8.367 0c-3.596 0-6.304 2.676-6.304 6.001v20.003c0 3.325 2.708 6.001 6.304 6.001h15.147c3.596-0 6.491-2.676 6.491-6.001v-13.181l-3.953 5.755v7.425c0 1.108-0.965 2-2.164 2h-15.834c-1.199-0-2.039-0.892-2.039-2v-20.003c-0-1.108 0.84-2 2.039-2h15.324l2.637-3.501c-0.762-0.289-1.625-0.5-2.502-0.5z"></path>
<path d="M28.085 2.062c0 0-5.039 7.014-8.082 11.94l-2.812 2.335 0.075 3.148-1.527 2.491 1.391-0.002 1.481-1.167 3.35-0.925 1.19-2.962 8.371-12.731z"></path>
</svg>
