<!-- Generated by IcoMoon.io -->
<svg version="1.1" xmlns="http://www.w3.org/2000/svg" width="32" height="32" viewBox="0 0 32 32">
<title>pda</title>
<path d="M8.367 0c-3.597 0-6.307 2.676-6.307 6.001v20.003c0 3.325 2.708 6.001 6.305 6.001h15.146c3.599 0 6.493-2.676 6.493-6.001v-13.182l-3.953 5.757v7.425c0 1.108-0.964 2-2.164 2h-15.834c-1.198 0-2.038-0.892-2.038-2v-20.003c0-1.108 0.84-2 2.040-2h15.322l2.638-3.501c-0.74-0.301-1.598-0.483-2.496-0.5l-0.007-0z"></path>
<path d="M28.084 2.062s-5.039 7.013-8.081 11.94l-2.812 2.334 0.076 3.148-1.528 2.49h1.392l1.48-1.168 3.351-0.924 1.19-2.962 8.371-12.732z"></path>
</svg>
