<!-- Generated by IcoMoon.io -->
<svg version="1.1" xmlns="http://www.w3.org/2000/svg" width="32" height="32" viewBox="0 0 32 32">
<title>preferences-system</title>
<path d="M7.099 0.181c-0.799 0-1.573 0.183-2.287 0.431l3.77 3.76c0.775 0.773 0.775 2.001 0 2.774l-1.422 1.418c-0.775 0.773-2.007 0.773-2.781 0l-3.77-3.76c-0.249 0.712-0.433 1.484-0.433 2.281 0 3.813 3.099 6.904 6.923 6.904 0.799 0 1.573-0.183 2.287-0.431l2.349 2.342c0.018-0 0.040-0 0.062-0s0.043 0 0.065 0l-0.003-0 4.141-4.13-2.411-2.404c0.249-0.712 0.433-1.484 0.433-2.281 0-3.813-3.099-6.904-6.923-6.904zM20.202 15.961l-4.141 4.13c0.011 0.027 0.032 0.088 0.052 0.15l0.010 0.035 2.287 2.281c-0.249 0.712-0.433 1.484-0.433 2.281 0 3.813 3.099 6.904 6.923 6.904 0.867 0 1.707-0.203 2.472-0.493l-4.018-4.007c-0.775-0.773-0.775-2.063 0-2.835l1.36-1.356c0.387-0.386 0.916-0.616 1.422-0.616s1.034 0.23 1.422 0.616l3.894 3.883c0.21-0.659 0.371-1.367 0.371-2.096 0-3.813-3.099-6.904-6.923-6.904-0.799 0-1.573 0.183-2.287 0.431l-2.411-2.404z"></path>
<path d="M27.72 0l-3.085 2.876c-0.903 0.842-1.059 2.298-0.533 3.413l-11.778 11.993c-0.002 0-0.005 0-0.007 0-0.019 0-0.039 0-0.058 0.001l0.003-0c-0.39-0.2-0.851-0.316-1.339-0.316-0.12 0-0.239 0.007-0.356 0.021l0.014-0.001c-0.686 0.098-1.284 0.417-1.733 0.88l-0.001 0.001-7.894 7.996c-0.533 0.538-0.863 1.278-0.863 2.095 0 1.646 1.338 2.98 2.989 2.98 0.835 0 1.591-0.342 2.133-0.893l0-0 7.894-7.996c0.562-0.542 0.912-1.301 0.912-2.141 0-0.487-0.117-0.946-0.325-1.352l0.008 0.017 11.779-11.931c1.116 0.497 2.547 0.294 3.414-0.585l2.835-3.121-4.009-3.936z"></path>
</svg>
