<!-- Generated by IcoMoon.io -->
<svg version="1.1" xmlns="http://www.w3.org/2000/svg" width="32" height="32" viewBox="0 0 32 32">
<title>preferences-system-network-proxy</title>
<path d="M9.92 17.272v4.733h-7.183c-0.413 0-0.737 0.41-0.737 0.934v2.117c0 0.524 0.323 0.934 0.737 0.934 6.843 0 13.687 0 20.53 0 0.413 0 0.737-0.41 0.737-0.934v-2.117c0-0.524-0.323-0.934-0.737-0.934h-7.311v-4.733z"></path>
<path d="M7.601 0c-1.903 0-3.601 1.587-3.601 3.492v13.229c0 1.905 1.698 3.492 3.736 3.492h10.53c2.039 0 3.736-1.587 3.736-3.492v-13.229c0-1.905-1.698-3.492-3.736-3.492zM8.001 4.001h10.002c0 0.633 0-0.632 0 0v12.002h-10.002c0 0 0 0.088 0 0v-12.002c0-0.088 0 0 0 0z"></path>
<path d="M10.002 5.944h6.001v2.005h-6.001v-2.005z"></path>
<path d="M14.002 9.953h2v2.005h-2v-2.005z"></path>
<path d="M18.461 6.001c0.14 0 0 0.418 0 0.952v2.157c0 0.534 0.14 0.952 0.32 0.952 2.968 0 5.936 0 8.904 0 0.179 0 0.32-0.418 0.32-0.952v-2.157c0-0.534-0.14-0.952-0.32-0.952-0.32 0-9.173 0.126-9.224 0z"></path>
<path d="M11.949 23.252c0.158-0.119 0.504 0.077 0.788 0.447l1.146 1.492c0.284 0.369 0.382 0.752 0.223 0.871-2.624 1.97-5.248 3.939-7.872 5.909-0.158 0.119-0.505-0.077-0.788-0.447l-1.146-1.492c-0.284-0.369-0.382-0.752-0.223-0.871 0 0 7.894-5.787 7.872-5.909z"></path>
<path d="M14.055 23.252c-0.158-0.119-0.504 0.077-0.788 0.447l-1.146 1.492c-0.284 0.369-0.382 0.752-0.223 0.871 2.624 1.97 5.248 3.939 7.872 5.909 0.158 0.119 0.505-0.077 0.788-0.447l1.146-1.492c0.284-0.369 0.382-0.752 0.223-0.871 0 0-7.894-5.787-7.872-5.909z"></path>
</svg>
