<!-- Generated by IcoMoon.io -->
<svg version="1.1" xmlns="http://www.w3.org/2000/svg" width="32" height="32" viewBox="0 0 32 32">
<title>preferences-desktop-accessibility</title>
<path d="M16.036 0c-8.838 0-16.002 7.165-16.002 16.002s7.165 16.002 16.002 16.002v0c8.838 0 16.002-7.165 16.002-16.002s-7.165-16.002-16.002-16.002v0zM16.036 4.001c2.209 0 4.001 1.791 4.001 4.001s-1.791 4.001-4.001 4.001v0c-2.209 0-4.001-1.791-4.001-4.001s1.791-4.001 4.001-4.001v0zM7.021 12.002c0.032 0 0.064 0 0.096 0.004 0 0 6.031 0.496 8.921 0.496 2.888 0 8.917-0.496 8.917-0.496 0.025-0.002 0.054-0.003 0.083-0.003 0.552 0 1 0.448 1 1 0 0.276-0.112 0.527-0.293 0.708v0c-0.386 0.386-0.586 0.364-0.852 0.44-1.378 0.37-3.030 0.671-4.721 0.841l-0.136 0.011c0.1 3.755 0.168 6.615 0.708 8.401 0.3 0.984 0.594 1.706 0.82 2.226 0.114 0.26 0.208 0.466 0.286 0.652 0.078 0.184 0.186 0.242 0.186 0.722-0 0.552-0.448 1-1 1-0.276 0-0.525-0.111-0.706-0.292l0 0c-0.456-0.458-0.8-1.054-1.28-1.872-0.482-0.818-1.018-1.798-1.52-2.742-0.798-1.494-1.228-2.36-1.494-2.886-0.264 0.524-0.694 1.392-1.492 2.886-0.504 0.944-1.038 1.924-1.52 2.742-0.48 0.818-0.824 1.414-1.28 1.872-0.181 0.182-0.431 0.294-0.708 0.294-0.552 0-1-0.448-1-1 0-0.001 0-0.001 0-0.002v0c0-0.48 0.11-0.538 0.188-0.722l0.286-0.654c0.226-0.52 0.52-1.24 0.82-2.226 0.54-1.784 0.608-4.645 0.706-8.399-1.8-0.14-3.034-0.47-4.855-0.852-0.266-0.076-0.466-0.054-0.852-0.44-0.182-0.181-0.294-0.432-0.294-0.708 0-0.547 0.44-0.992 0.985-1h0.001z"></path>
</svg>
