<!-- Generated by IcoMoon.io -->
<svg version="1.1" xmlns="http://www.w3.org/2000/svg" width="32" height="32" viewBox="0 0 32 32">
<title>preferences-color</title>
<path d="M16.003 2.015c-4.406 0-7.987 3.581-7.987 7.987s3.581 7.987 7.987 7.987c4.406 0 7.987-3.581 7.987-7.987s-3.581-7.987-7.987-7.987zM16.003 4.12c3.253 0 5.882 2.629 5.882 5.882s-2.629 5.882-5.882 5.882c-3.253 0-5.882-2.629-5.882-5.882s2.629-5.882 5.882-5.882z"></path>
<path d="M8.002 16.017c-4.406 0-7.987 3.581-7.987 7.987s3.581 7.987 7.987 7.987c4.406 0 7.987-3.581 7.987-7.987s-3.581-7.987-7.987-7.987zM8.002 18.122c3.253 0 5.882 2.629 5.882 5.882s-2.629 5.882-5.882 5.882c-3.253 0-5.882-2.629-5.882-5.882s2.629-5.882 5.882-5.882z"></path>
<path d="M32.002 24.004c0 4.418-3.581 7.999-8 7.999s-8-3.581-8-8v0c0-4.418 3.581-8 8-8s8 3.581 8 8v0z"></path>
<path d="M14.936 24.004c0 3.83-3.105 6.934-6.934 6.934s-6.934-3.105-6.934-6.934v0c0-3.83 3.105-6.934 6.934-6.934s6.934 3.105 6.934 6.934v0z"></path>
</svg>
