<!-- Generated by IcoMoon.io -->
<svg version="1.1" xmlns="http://www.w3.org/2000/svg" width="32" height="32" viewBox="0 0 32 32">
<title>preferences-system-devices</title>
<path d="M18 12c-2.181 0-4 1.819-4 4v6c0 2.181 1.819 4 4 4h10c2.181 0 4-1.819 4-4v-6c0-2.181-1.819-4-4-4zM18 16h10v6h-10z"></path>
<path d="M23 30c-5 0-5-1-5-1 0-1 1-1 1-1h8c1 0 1 1 1 1s0 1-5 1z"></path>
<path d="M6 2v2h10v-2zM4 6c-1.108 0-2 0.892-2 2v4c0 1.108 0.892 2 2 2v-2h9.551c1.097-1.22 2.672-2 4.449-2h2v-2c0-1.108-0.892-2-2-2h-12zM6 14v6h6v-4c0-0.706 0.141-1.372 0.363-2z"></path>
</svg>
