<!-- Generated by IcoMoon.io -->
<svg version="1.1" xmlns="http://www.w3.org/2000/svg" width="32" height="32" viewBox="0 0 32 32">
<title>preferences-system-network-proxy</title>
<path d="M9.921 17.273v4.731h-7.187c-0.412 0-0.736 0.41-0.736 0.934v2.116c0 0.524 0.324 0.934 0.736 0.934h20.531c0.412 0 0.736-0.41 0.736-0.934v-2.116c0-0.524-0.324-0.934-0.736-0.934h-7.309v-4.731z"></path>
<path d="M7.601 0c-1.902 0-3.601 1.586-3.601 3.493v13.228c0 1.906 1.698 3.493 3.737 3.493h10.53c2.040 0 3.737-1.586 3.737-3.493v-13.228c0-1.906-1.698-3.493-3.737-3.493zM8.001 4.001h10.002c0 0.634 0-0.632 0 0v12.002h-10.002s0 0.088 0 0v-12.002c0-0.088 0 0 0 0z"></path>
<path d="M10.002 5.943h6.001v2.006h-6.001zM14.002 9.954h2v2.004h-2z"></path>
<path d="M18.461 6.001c0.14 0 0 0.418 0 0.952v2.156c0 0.534 0.14 0.952 0.32 0.952h8.903c0.18 0 0.32-0.418 0.32-0.952v-2.156c0-0.534-0.14-0.952-0.32-0.952-0.32 0-9.171 0.126-9.223 0zM11.948 23.252c0.16-0.12 0.506 0.078 0.788 0.446l1.146 1.494c0.284 0.368 0.382 0.75 0.224 0.87l-7.871 5.909c-0.16 0.118-0.506-0.078-0.79-0.448l-1.146-1.492c-0.282-0.368-0.38-0.752-0.222-0.87 0 0 7.893-5.787 7.871-5.909z"></path>
<path d="M14.056 23.252c-0.16-0.12-0.506 0.078-0.788 0.446l-1.146 1.494c-0.284 0.368-0.382 0.75-0.224 0.87l7.871 5.909c0.16 0.118 0.506-0.078 0.79-0.448l1.146-1.492c0.282-0.368 0.38-0.752 0.222-0.87 0 0-7.893-5.787-7.871-5.909z"></path>
</svg>
