<!-- Generated by IcoMoon.io -->
<svg version="1.1" xmlns="http://www.w3.org/2000/svg" width="32" height="32" viewBox="0 0 32 32">
<title>preferences-system-time</title>
<path d="M15.002 0c-8.261 0-15.002 6.741-15.002 15.002s6.741 15.002 15.002 15.002 15.002-6.741 15.002-15.002-6.741-15.002-15.002-15.002zM15.002 4.001c6.101 0 11.002 4.901 11.002 11.002s-4.901 11.002-11.002 11.002-11.002-4.901-11.002-11.002 4.901-11.002 11.002-11.002z"></path>
<path d="M8.857 7.927c-0.549 0.004-0.992 0.45-0.992 1 0 0.286 0.12 0.543 0.312 0.726l0 0 6.225 6.091c0.181 0.181 0.431 0.294 0.708 0.294 0.094 0 0.185-0.013 0.271-0.037l-0.007 0.002h5.629c0.552 0 1-0.448 1-1s-0.448-1-1-1v0h-5.525l-5.901-5.779c-0.181-0.183-0.433-0.296-0.71-0.296-0.003 0-0.007 0-0.010 0h0.001z"></path>
</svg>
