<!-- Generated by IcoMoon.io -->
<svg version="1.1" xmlns="http://www.w3.org/2000/svg" width="32" height="32" viewBox="0 0 32 32">
<title>preferences-other</title>
<path d="M0.004 24.004c0.008-0.448 0.224-1.060 0.608-1.408l4.323-4.235c0.466-0.486 1.574-0.584 2.022-0.314 0.162 0.004 2.272 1.264 2.578 1.732 1.232 1.892-0.688 3.655-2.348 3.094l-0.7-0.424-3.204 3.144c-1.274 1.050-3.385 0.184-3.283-1.59zM23.244 0.236c0.778-0.202 1.58-0.22 2.34-0.16l-2.72 4.611c-0.174 0.286-0.277 0.632-0.277 1.002 0 0.722 0.392 1.353 0.976 1.69l0.009 0.005 1.748 1.016c0.288 0.172 0.634 0.274 1.005 0.274 0.725 0 1.359-0.39 1.704-0.971l0.005-0.009 2.72-4.613c0.424 0.628 0.8 1.332 1.004 2.106 0.972 3.707-1.264 7.497-4.995 8.469-0.78 0.202-1.58 0.22-2.34 0.16l-1.606 2.232-6.821-0.046s3.040-5.155 3.256-5.191c-0.429-0.603-0.772-1.304-0.992-2.057l-0.012-0.049c-0.974-3.705 1.262-7.497 4.993-8.469z"></path>
<path d="M7.199 1.438c-0.46 0.094-0.886 0.26-1.31 0.438-0.034 1.248 0.172 2.882-0.314 3.313-0.476 0.42-2.072 0.068-3.307-0.062-0.243 0.429-0.456 0.927-0.611 1.449l-0.013 0.051c0.954 0.79 2.276 1.678 2.308 2.312 0.032 0.64-1.25 1.61-2.12 2.5 0.204 0.516 0.498 0.986 0.81 1.438 1.214-0.254 2.728-0.748 3.247-0.376 0.524 0.38 0.528 2.010 0.686 3.251 0.498 0.15 1.024 0.21 1.56 0.25 0.56-1.11 1.132-2.64 1.748-2.812 0.63-0.178 1.924 0.916 2.994 1.562 0.438-0.304 0.826-0.674 1.186-1.062-0.506-1.146-1.44-2.584-1.186-3.188 0.256-0.604 1.948-0.94 3.12-1.374 0.010-0.148 0.064-0.29 0.064-0.44 0-0.38-0.070-0.756-0.126-1.124-1.21-0.32-2.93-0.482-3.245-1.062-0.314-0.576 0.482-2.122 0.874-3.313-0.385-0.346-0.815-0.657-1.276-0.919l-0.036-0.019c-1 0.75-2.164 1.988-2.808 1.876-0.632-0.112-1.324-1.64-1.996-2.688-0.080 0.014-0.17-0.016-0.25 0zM8.447 5.189c0.001 0 0.001 0 0.002 0 1.863 0 3.373 1.51 3.373 3.373s-1.51 3.373-3.373 3.373c-1.861 0-3.37-1.508-3.373-3.368v-0c0-1.866 1.508-3.377 3.37-3.377z"></path>
<path d="M5.995 18.003h19.973l0.016 12.128c0 0.984-0.944 1.874-1.988 1.874h-15.986c-0.002 0-0.004 0-0.006 0-1.1 0-1.992-0.892-1.992-1.992 0-0.003 0-0.006 0-0.008v0z"></path>
<path d="M31.925 23.958c-0.006-0.448-0.224-1.060-0.606-1.408l-4.325-4.235c-0.464-0.486-1.572-0.584-2.020-0.312-0.162 0.004-2.272 1.26-2.578 1.73-1.232 1.892 0.688 3.655 2.348 3.094l0.7-0.424 3.204 3.144c1.274 1.052 3.382 0.184 3.279-1.59z"></path>
</svg>
