<!-- Generated by IcoMoon.io -->
<svg version="1.1" xmlns="http://www.w3.org/2000/svg" width="32" height="32" viewBox="0 0 32 32">
<title>preferences-system-search</title>
<path d="M13.018 2c-6.057 0-11.014 4.949-11.014 11.002s4.957 11.002 11.014 11.002 11.010-4.949 11.010-11.002-4.953-11.002-11.010-11.002zM13.018 6.001c0.011-0 0.023-0 0.036-0 3.851 0 6.973 3.122 6.973 6.973 0 0.010-0 0.020-0 0.030v-0.002c0 3.889-3.112 7.001-7.009 7.001-0.011 0-0.023 0-0.036 0-3.853 0-6.977-3.124-6.977-6.977 0-0.008 0-0.017 0-0.025v0.001c0-3.889 3.116-7.001 7.013-7.001z"></path>
<path d="M20.003 17.983c-1.103 0.002-1.996 0.897-1.996 2 0 0.562 0.232 1.070 0.605 1.434l8.010 8.002c0.364 0.377 0.874 0.611 1.439 0.611 1.105 0 2-0.896 2-2 0-0.565-0.234-1.075-0.61-1.438l-0.001-0.001-8.009-8.001c-0.364-0.374-0.872-0.606-1.434-0.606-0.001 0-0.003 0-0.004 0h0z"></path>
</svg>
