<!-- Generated by IcoMoon.io -->
<svg version="1.1" xmlns="http://www.w3.org/2000/svg" width="32" height="32" viewBox="0 0 32 32">
<title>preferences-desktop-locale</title>
<path d="M4.001 2v28.004h4.001v-28.004z"></path>
<path d="M6.001 2c-1.105 0-2 0.896-2 2v0 12.002c0 1.105 0.896 2 2 2v0h6.767l1.444 2.894c0.336 0.661 1.011 1.106 1.789 1.106 0 0 0.001 0 0.001 0h10.001c1.105 0 2-0.896 2-2v0-12.002c0-1.105-0.896-2-2-2v0h-6.767l-1.444-2.894c-0.336-0.661-1.011-1.106-1.789-1.106-0 0-0.001 0-0.001 0h0zM8.001 6.001h6.767l1.444 2.894c0.336 0.661 1.011 1.106 1.789 1.106 0 0 0.001 0 0.001 0h6.001v8.001h-6.767l-1.444-2.894c-0.336-0.661-1.011-1.106-1.789-1.106-0 0-0.001 0-0.001 0h-6.001z"></path>
<path d="M6.001 16.002h8.001l2 4.001h10.002v-12.002h-8.001l-2-4.001h-10.002z"></path>
</svg>
