<!-- Generated by IcoMoon.io -->
<svg version="1.1" xmlns="http://www.w3.org/2000/svg" width="32" height="32" viewBox="0 0 32 32">
<title>preferences-desktop-locale</title>
<path d="M9.393 4.469c-7.165 0-9.333 2.8-9.333 2.8v20.102c0 0 2.168-2.154 9.333-2.154 5.833 0 8.946 2.154 14.359 2.154 4.179 0 6.39-2.8 6.39-2.8v-20.102c0 0-2.282 2.082-6.461 2.082-6.748 0-7.954-2.082-14.287-2.082zM15.257 10.012c2.658 0 4.751 2.161 4.751 4.876s-2.093 4.938-4.751 4.938c-2.658 0-4.813-2.224-4.813-4.938s2.155-4.876 4.813-4.876zM6.131 11.95l1.938 2.063-1.875-0.062 1.875 2-1.938-0.062 1.938 2.063-2-0.062 0.062-2h-0.062l0.062-1.938h-0.062zM15.257 11.95c-1.588 0-2.938 1.316-2.938 2.938s1.35 2.938 2.938 2.938c1.588 0 2.875-1.316 2.875-2.938s-1.287-2.938-2.875-2.938zM24.008 11.95v2l0.062 1.938h-0.062l0.062 2-2 0.062 1.938-2.063-1.938 0.062 1.875-2-1.875 0.062zM8.131 17.889l1.938 2.063-2-0.062zM22.008 17.889l0.062 2-2 0.062zM10.131 19.889l1.938 2.063-2-0.062zM20.008 19.889l0.062 2-2 0.062z"></path>
</svg>
