<!-- Generated by IcoMoon.io -->
<svg version="1.1" xmlns="http://www.w3.org/2000/svg" width="32" height="32" viewBox="0 0 32 32">
<title>preferences-desktop-screensaver</title>
<path d="M24.222 10.002c1.24 1.5 1.99 3.421 1.99 5.521 0 4.799-3.89 8.689-8.689 8.689v0c-2.1 0-4.021-0.752-5.521-1.99 1.091 4.496 5.081 7.783 9.84 7.783 0.009 0 0.018 0 0.027-0h-0.001c5.599 0 10.138-4.539 10.138-10.138v0c0-4.799-3.306-8.815-7.783-9.865zM13.024 3.581c0.8 0 1.442 0.644 1.442 1.442 0 0.001 0 0.001 0 0.002 0 0.795-0.645 1.44-1.44 1.44v0c-0.001 0-0.003 0-0.004 0-0.795 0-1.44-0.645-1.44-1.44 0 0 0 0 0 0v0c0-0.8 0.644-1.444 1.442-1.444zM21.025 5.627c0.772 0 1.398 0.626 1.398 1.398s-0.626 1.398-1.398 1.398v0c-0.001 0-0.003 0-0.004 0-0.77 0-1.394-0.624-1.394-1.394 0-0.002 0-0.004 0-0.006v0c0-0.774 0.624-1.396 1.4-1.396zM15.024 9.581c0.8 0 1.442 0.644 1.442 1.442 0 0.001 0 0.001 0 0.002 0 0.795-0.645 1.44-1.44 1.44v0c-0.001 0-0.003 0-0.004 0-0.795 0-1.44-0.645-1.44-1.44 0 0 0 0 0 0v0c0-0.8 0.644-1.444 1.442-1.444z"></path>
<path d="M7.011 15.012l-1.49-4.511-4.511-1.49 4.511-1.49 1.49-4.511 1.49 4.511 4.511 1.49-4.511 1.49z"></path>
</svg>
