<!-- Generated by IcoMoon.io -->
<svg version="1.1" xmlns="http://www.w3.org/2000/svg" width="32" height="32" viewBox="0 0 32 32">
<title>preferences-desktop-remote-desktop</title>
<path d="M24.004 2c3.325 0 6.001 2.676 6.001 6.001v12.002c0 3.325-2.676 6.001-6.001 6.001h-16.002c-3.325 0-6.001-2.676-6.001-6.001v-12.002c0-3.325 2.676-6.001 6.001-6.001zM24.004 6.001h-16.002c-1.108 0-2 0.892-2 2v12.002c0 1.108 0.892 2 2 2h16.002c1.108 0 2-0.892 2-2v-12.002c0-1.108-0.892-2-2-2zM16.002 28.004c-10.002 0-10.002 2-10.002 2 0 2 2 2 2 2h16.002c2 0 2-2 2-2s0-2-10.002-2z"></path>
<path d="M9.001 10.002s-1 0-1 1v8.001c0 1 1 1 1 1h8.001c1 0 1-1 1-1v-8.001c0-1-0.874-1-1-1zM10.002 13.998h6.001v4.001h-6.001zM21.003 8.001s-1 0-1 1v1.968s0 1 1 1l2 0.002s1 0 1-1v-1.968s0-1-1-1z"></path>
</svg>
