<!-- Generated by IcoMoon.io -->
<svg version="1.1" xmlns="http://www.w3.org/2000/svg" width="32" height="32" viewBox="0 0 32 32">
<title>printer-network</title>
<path d="M12.002 23.91v4.095h-11.064c-0.003-0-0.007-0-0.010-0-0.513 0-0.928 0.416-0.928 0.928 0 0.004 0 0.007 0 0.011v-0.001 2.124c0 0.526 0.412 0.938 0.938 0.938h26.126c0.003 0 0.007 0 0.010 0 0.513 0 0.928-0.416 0.928-0.928 0-0.004-0-0.007-0-0.011v0.001-2.122c0-0.003 0-0.007 0-0.010 0-0.513-0.416-0.928-0.928-0.928-0.004 0-0.007 0-0.011 0h-11.061v-4.095z"></path>
<path d="M8.017 4.547v11.448h11.986v-8.101l-4.001-3.879h-7.455c-0.344 0-0.53 0.188-0.53 0.53zM5.969 16.022c-1.124 0-1.968 0.7-1.968 1.98v5.939h19.941v-5.939c0-1.282-0.812-1.976-1.906-1.976l-0.004 1.956-16.062 0.070z"></path>
</svg>
