<!-- Generated by IcoMoon.io -->
<svg version="1.1" xmlns="http://www.w3.org/2000/svg" width="32" height="32" viewBox="0 0 32 32">
<title>printer-network</title>
<path d="M12 23.906v4.094h-11.063c-0.526 0-0.938 0.411-0.938 0.938v2.125c0 0.526 0.412 0.938 0.938 0.938h26.125c0.526 0 0.938-0.412 0.938-0.938v-2.125c0-0.526-0.412-0.938-0.938-0.938h-11.063v-4.094z"></path>
<path d="M8.016 4.547v11.445h11.984v-8.102l-4-3.875h-7.453c-0.344 0-0.531 0.187-0.531 0.531zM5.969 16.020c-1.125 0-1.969 0.699-1.969 1.98v5.938h19.938v-5.938c0-1.283-0.812-1.977-1.906-1.977l-0.004 1.957-16.059 0.070z"></path>
</svg>
