<!-- Generated by IcoMoon.io -->
<svg version="1.1" xmlns="http://www.w3.org/2000/svg" width="32" height="32" viewBox="0 0 32 32">
<title>process-stop</title>
<path d="M11.376 4.001l-0.625 0.563-6.188 6.126-0.563 0.625v9.251l0.563 0.625 6.188 6.251 0.625 0.563h9.251l0.625-0.563 6.188-6.251 0.563-0.625v-9.251l-0.563-0.625-6.188-6.126-0.625-0.563h-9.251zM13.064 8.001h5.938l5.001 5.001v5.938l-5.063 5.063h-5.876l-5.063-5.063v-5.938l5.063-5.001z"></path>
<path d="M13.715 10.002l-3.713 3.679v4.579l3.713 3.744h4.579l3.71-3.744v-4.579l-3.71-3.679h-4.579z"></path>
</svg>
