<!-- Generated by IcoMoon.io -->
<svg version="1.1" xmlns="http://www.w3.org/2000/svg" width="32" height="32" viewBox="0 0 32 32">
<title>radio-checked</title>
<path d="M16.002 10.037c-3.292 0-5.966 2.674-5.966 5.966s2.674 5.966 5.966 5.966c3.292 0 5.966-2.674 5.966-5.966s-2.674-5.966-5.966-5.966z"></path>
<path d="M15.94 2.125c-7.717 0-14.002 6.285-14.002 14.002s6.285 14.002 14.002 14.002c7.717 0 14.002-6.285 14.002-14.002s-6.285-14.002-14.002-14.002zM15.94 4.126c6.643 0 12.064 5.358 12.064 12.002s-5.421 12.002-12.064 12.002c-6.643 0-12.002-5.358-12.002-12.002s5.358-12.002 12.002-12.002z"></path>
</svg>
