<!-- Generated by IcoMoon.io -->
<svg version="1.1" xmlns="http://www.w3.org/2000/svg" width="32" height="32" viewBox="0 0 32 32">
<title>rotation-allowed</title>
<path d="M12.434 0c-1.025 0-2.034 0.353-2.804 1.123l-8.476 8.476c-1.538 1.536-1.51 4.134 0 5.67l0.941 0.746h5.672l-3.809-3.612 8.476-8.414 15.396 15.518c0.028 0.032 0.086 0.040 0.060 0.064l-8.476 8.476-3.458-3.789v5.61l0.594 0.921 0.062 0.060c0.72 0.713 1.711 1.153 2.804 1.153s2.084-0.44 2.804-1.153l8.475-8.475c0.71-0.721 1.149-1.711 1.149-2.804s-0.439-2.083-1.149-2.805l0 0-15.458-15.641c-0.701-0.694-1.666-1.123-2.731-1.123-0.026 0-0.051 0-0.077 0.001l0.004-0z"></path>
<path d="M3.451 25.956l5.6 5.602 5.604-5.604z"></path>
<path d="M2.027 17.997v1.994h2.836c0.941 0 1.743 0.279 2.285 0.744s0.877 1.099 0.877 2.076v4.471h1.994v-4.471c0-1.484-0.606-2.758-1.575-3.588-0.967-0.828-2.246-1.227-3.582-1.227z"></path>
</svg>
