<!-- Generated by IcoMoon.io -->
<svg version="1.1" xmlns="http://www.w3.org/2000/svg" width="32" height="32" viewBox="0 0 32 32">
<title>rotation-locked</title>
<path d="M12.021 9.968c-2.17 0-3.986 1.752-3.986 3.923v2.18h-1.931v8.096h11.895v-8.096h-2.055v-2.18c0-2.172-1.754-3.923-3.923-3.923zM12.021 11.96c1.089 0 1.931 0.832 1.931 1.931v2.18h-3.923v-2.18c0-1.099 0.904-1.931 1.993-1.931z"></path>
<path d="M12.573-0c-1.026 0-2.050 0.388-2.818 1.156l-8.458 8.454c-1.537 1.537-1.547 4.106 0.008 5.644l0.767 0.755 2.802-2.834-0.759-0.747 8.458-8.454 15.425 15.526c0 0 0.004 0.004 0.004 0.004l-8.454 8.458-2.413-2.518-2.88 2.756 2.476 2.581c1.537 1.537 4.099 1.537 5.636 0l8.454-8.454c1.537-1.537 1.529-4.096 0.004-5.632l-15.429-15.534c-0.769-0.774-1.796-1.16-2.822-1.16z"></path>
</svg>
