<!-- Generated by IcoMoon.io -->
<svg version="1.1" xmlns="http://www.w3.org/2000/svg" width="32" height="32" viewBox="0 0 32 32">
<title>scanner</title>
<path d="M6.001 0c-1.158 0-2.12 0.4-2.938 1.126-0.453 0.394-0.798 0.901-0.993 1.476l-0.007 0.024c-0.22 0.664-0.224 1.548 0.126 2.25l2 4.001c0.176 0.354 0.406 0.854 0.75 1.374 0.48-0.146 0.988-0.25 1.5-0.25h19.127c0.512 0 1.020 0.104 1.5 0.25 0.344-0.52 0.574-1.020 0.75-1.376l2-4.001c0.35-0.7 0.346-1.584 0.126-2.248-0.202-0.6-0.547-1.106-0.996-1.497l-0.004-0.004c-0.758-0.698-1.774-1.126-2.891-1.126-0.017 0-0.033 0-0.050 0l0.003-0zM6.251 4.001h19.503l-1.562 3.126c-0.236 0.474-0.354 0.74-0.438 0.874h-15.502c-0.084-0.132-0.2-0.4-0.438-0.876zM8.001 12.002c-0.976 0-1.87 0.288-2.626 0.876-0.754 0.584-1.374 1.56-1.374 2.684v16.442h24.004v-16.44c0-1.124-0.62-2.1-1.376-2.686-0.701-0.547-1.594-0.877-2.565-0.877-0.021 0-0.042 0-0.063 0l0.003-0zM8.001 14.002h16.002v12.002h-16.002zM22.003 28.004h2v2h-2z"></path>
<path d="M6.001 8.001h20.003v-4.001h-20.003z"></path>
<path d="M10.002 22.065h12.002v2h-12.002z"></path>
<path d="M10.002 16.064h12.002v1.938l-12.002 2z"></path>
</svg>
