<!-- Generated by IcoMoon.io -->
<svg version="1.1" xmlns="http://www.w3.org/2000/svg" width="32" height="32" viewBox="0 0 32 32">
<title>screen-shared</title>
<path d="M8.001 2c-3.325 0-6.001 2.676-6.001 6.001v12.002c0 3.325 2.676 6.001 6.001 6.001h16.002c3.325 0 6.001-2.676 6.001-6.001v-12.002c0-3.325-2.676-6.001-6.001-6.001zM16.002 6.001l8.001 8.001-8.001 8.001v-6.001c-5.751-0.25-8.001 6.001-8.001 6.001 0-4.689 1.938-10.002 8.001-10.002zM16.002 28.004c-10.002 0-10.002 2-10.002 2 0 2 2 2 2 2h16.002c2 0 2-2 2-2s0-2-10.002-2z"></path>
</svg>
