<!-- Generated by IcoMoon.io -->
<svg version="1.1" xmlns="http://www.w3.org/2000/svg" width="32" height="32" viewBox="0 0 32 32">
<title>semi-starred</title>
<path d="M16.008 2.010c-0.532-0.002-0.997 0.201-1.33 0.479s-0.555 0.643-0.779 1.001c-0.449 0.716-0.786 1.538-1.131 2.407s-0.694 1.776-1.009 2.465c-0.315 0.689-0.691 1.158-0.717 1.176s-0.615 0.234-1.392 0.304-1.763 0.098-2.727 0.139c-0.964 0.040-1.941 0.072-2.787 0.256-0.423 0.092-0.831 0.203-1.209 0.419s-0.734 0.573-0.9 1.060c-0.166 0.488-0.098 1.013 0.073 1.403s0.453 0.73 0.737 1.047c0.567 0.633 1.266 1.211 2.016 1.797s1.554 1.119 2.136 1.621c0.582 0.502 0.909 1.016 0.918 1.046s0.062 0.67-0.109 1.405-0.448 1.624-0.706 2.521c-0.258 0.897-0.504 1.804-0.583 2.637-0.040 0.416-0.086 0.815 0.011 1.228s0.369 0.86 0.798 1.164c0.429 0.303 0.899 0.376 1.337 0.34s0.871-0.141 1.271-0.303c0.799-0.324 1.604-0.857 2.413-1.365s1.617-1.043 2.291-1.422c0.675-0.379 1.297-0.537 1.329-0.537s0.607 0.19 1.278 0.575 1.451 0.93 2.256 1.444c0.805 0.514 1.64 0.995 2.436 1.326 0.398 0.165 0.778 0.302 1.215 0.341s0.96-0.062 1.391-0.362c0.431-0.3 0.679-0.705 0.778-1.118s0.086-0.87 0.050-1.287c-0.073-0.834-0.318-1.728-0.568-2.628s-0.523-1.773-0.689-2.51c-0.165-0.736-0.143-1.373-0.133-1.403s0.375-0.505 0.961-1.002 1.352-1.075 2.108-1.655c0.755-0.58 1.535-1.143 2.107-1.772 0.286-0.314 0.484-0.669 0.658-1.058s0.272-0.858 0.11-1.346c-0.162-0.489-0.542-0.826-0.918-1.046s-0.734-0.363-1.156-0.459c-0.844-0.191-1.827-0.28-2.792-0.329s-1.892-0.078-2.669-0.154-1.432-0.262-1.457-0.281c-0.026-0.018-0.368-0.473-0.677-1.165s-0.653-1.577-0.991-2.449c-0.338-0.872-0.67-1.729-1.112-2.448-0.221-0.36-0.467-0.708-0.797-0.988s-0.806-0.514-1.338-0.516zM16.025 3.999c0.084 0.072 0.213 0.272 0.368 0.524 0.31 0.503 0.661 1.255 0.988 2.098s0.638 1.773 0.992 2.566c0.354 0.793 0.629 1.468 1.351 1.978s1.541 0.595 2.431 0.682c0.89 0.087 1.858 0.106 2.79 0.153s1.837 0.139 2.427 0.273c0.295 0.067 0.511 0.114 0.608 0.171-0.045 0.1-0.159 0.31-0.359 0.529-0.4 0.44-1.075 0.975-1.805 1.535s-1.556 1.145-2.228 1.714c-0.672 0.57-1.28 1.065-1.56 1.884s-0.108 1.554 0.081 2.398 0.508 1.757 0.75 2.626c0.242 0.87 0.454 1.694 0.505 2.277 0.023 0.265-0.034 0.47-0.056 0.585-0.12-0.016-0.353-0.065-0.608-0.171-0.557-0.231-1.293-0.656-2.071-1.153s-1.608-1.061-2.377-1.502c-0.769-0.441-1.416-0.797-2.311-0.8s-1.584 0.345-2.358 0.779-1.569 0.991-2.352 1.481c-0.783 0.491-1.553 0.902-2.112 1.128-0.28 0.113-0.492 0.171-0.605 0.18-0.021-0.116-0.030-0.32-0.005-0.585 0.056-0.582 0.276-1.418 0.526-2.286s0.508-1.796 0.705-2.638c0.197-0.842 0.373-1.577 0.101-2.399s-0.864-1.284-1.532-1.86c-0.667-0.575-1.411-1.171-2.137-1.738s-1.436-1.122-1.832-1.565c-0.198-0.222-0.324-0.423-0.368-0.524 0.097-0.055 0.309-0.116 0.605-0.18 0.591-0.129 1.491-0.214 2.423-0.253s1.897-0.060 2.787-0.139 1.694-0.1 2.42-0.604c0.726-0.505 1.077-1.21 1.438-2s0.675-1.683 1.009-2.524c0.334-0.841 0.637-1.671 0.951-2.172 0.157-0.25 0.335-0.4 0.42-0.471z"></path>
<path d="M16.002 3c-1.853-0.006-2.872 6.268-4.376 7.314s-8.047 0.052-8.626 1.75c-0.58 1.699 5.31 4.548 5.876 6.251s-2.495 7.382-1 8.439c1.495 1.057 6.21-3.445 8.064-3.438 0.016 0 0.045-0.001 0.062 0l0-20.316z"></path>
</svg>
