<!-- Generated by IcoMoon.io -->
<svg version="1.1" xmlns="http://www.w3.org/2000/svg" width="32" height="32" viewBox="0 0 32 32">
<title>semi-starred</title>
<path d="M16.002 3c-1.853-0.006-2.872 6.268-4.376 7.314s-8.047 0.052-8.626 1.75c-0.58 1.699 5.31 4.548 5.876 6.251s-2.495 7.382-1 8.439c1.495 1.057 6.21-3.445 8.064-3.438 0.016 0 0.045-0.001 0.062 0z"></path>
<path d="M15.917 0.258c-0.828 0.018-1.515 0.411-1.961 0.809s-0.737 0.821-0.996 1.254c-0.518 0.866-0.887 1.813-1.246 2.75s-0.693 1.859-0.992 2.536c-0.169 0.383-0.135 0.334-0.227 0.473l-6.837-0.020c-0.002 0-0.003 0-0.005 0-0.891 0-1.647 0.583-1.905 1.388l-0.004 0.014c-0.479 1.533 0.203 2.523 0.746 3.368s1.221 1.631 1.907 2.399 1.379 1.505 1.899 2.114c0.52 0.608 0.842 1.225 0.774 1.020-0.176-0.528-0.036 0.030-0.234 0.723s-0.533 1.609-0.859 2.547-0.649 1.883-0.805 2.868c-0.078 0.492-0.128 1-0.020 1.61s0.475 1.42 1.196 1.903c0.71 0.476 1.493 0.526 2.082 0.457s1.077-0.244 1.551-0.445c0.947-0.403 1.847-0.958 2.735-1.52s1.753-1.129 2.438-1.52c0.683-0.389 1.316-0.488 0.93-0.488-0.45-0.001 0.187 0.086 0.852 0.481 0.664 0.394 1.504 0.968 2.368 1.535s1.738 1.132 2.664 1.543c0.463 0.205 0.942 0.382 1.535 0.453 0.593 0.070 1.416 0 2.121-0.512 0.132-0.098 0.248-0.207 0.349-0.329l0.003-0.003c0.863-1.034 1.016-2.514 0.77-3.536s-0.693-1.793-1.067-2.52c-0.747-1.454-1.183-2.413-0.801-3.501-0.002 0.007 0.001 0 0.003-0.007l0.005-0.013c-0.125 0.369 0.162-0.204 0.711-0.735s1.302-1.188 2.051-1.902c0.749-0.714 1.503-1.474 2.098-2.395s1.141-2.244 0.629-3.661c-0.287-0.777-1.020-1.32-1.881-1.32-0.001 0-0.001 0-0.002 0h-7.235c-0.040-0.064-0.040-0.050-0.086-0.141-0.281-0.547-0.631-1.487-0.988-2.469s-0.72-2.003-1.203-2.93c-0.242-0.463-0.507-0.914-0.938-1.356s-1.172-0.945-2.121-0.926zM15.886 5.52c0.179 0.446 0.34 0.794 0.531 1.321 0.356 0.979 0.718 2 1.195 2.926 0.238 0.463 0.498 0.913 0.918 1.356s1.136 0.957 2.090 0.957h4.692c-0.169 0.176-0.24 0.3-0.43 0.48-0.66 0.63-1.404 1.277-2.071 1.922-0.663 0.642-1.303 1.124-1.711 2.313-0.955 2.736 0.243 5.14 1.016 6.646 0.031 0.060 0.029 0.070 0.059 0.128-0.248-0.154-0.412-0.225-0.676-0.398-0.816-0.536-1.682-1.132-2.528-1.633s-1.524-1.036-2.883-1.039c-0.001 0-0.001 0-0.002 0s-0.001 0-0.002 0h0c-1.336 0-2.047 0.518-2.915 1.012s-1.754 1.082-2.594 1.613c-0.406 0.257-0.685 0.383-1.047 0.59 0.089-0.284 0.115-0.456 0.223-0.766 0.307-0.884 0.661-1.831 0.926-2.754s0.643-1.735 0.187-3.098c-0.358-1.070-0.916-1.628-1.531-2.348s-1.315-1.465-1.953-2.18c-0.167-0.186-0.244-0.315-0.399-0.496l4.481 0.020c0.001 0 0.003 0 0.005 0 0.428 0 0.825-0.135 1.15-0.364l-0.006 0.004c1.101-0.768 1.374-1.616 1.766-2.5s0.733-1.842 1.070-2.723c0.156-0.406 0.287-0.635 0.438-0.981z"></path>
</svg>
