<!-- Generated by IcoMoon.io -->
<svg version="1.1" xmlns="http://www.w3.org/2000/svg" width="32" height="32" viewBox="0 0 32 32">
<title>software-update-urgent</title>
<path d="M16.002 0.116l-4.53 6.826-6.826-2.296 2.296 6.826-6.826 4.53 6.826 4.53-2.296 6.826 6.826-2.296 4.53 6.826 4.53-6.826 6.826 2.296-2.296-6.826 6.826-4.53-6.826-4.53 2.296-6.826-6.826 2.296zM14.016 8.183h3.972v9.867h-3.972zM16.064 19.477c1.405 0 2.544 1.139 2.544 2.544s-1.139 2.544-2.544 2.544c-1.405 0-2.544-1.139-2.544-2.544s1.139-2.544 2.544-2.544z"></path>
</svg>
