<!-- Generated by IcoMoon.io -->
<svg version="1.1" xmlns="http://www.w3.org/2000/svg" width="32" height="32" viewBox="0 0 32 32">
<title>software-update-available</title>
<path d="M16.002 0.125l-4.501 6.814-6.876-2.313 2.313 6.876-6.814 4.501 6.814 4.501-2.313 6.876 6.876-2.313 4.501 6.814 4.501-6.814 6.876 2.313-2.313-6.876 6.814-4.501-6.814-4.501 2.313-6.876-6.876 2.313zM16.002 9.189l1.438 1.375 4.001 4.001c0.447 0.452 0.663 1.122 0.563 1.75v1.688h-1.75c-0.608 0.080-1.249-0.133-1.688-0.563l-0.563-0.563v5.126h-4.001v-5.126l-0.563 0.563c-0.382 0.365-0.91 0.571-1.438 0.563h-2v-1.563c-0.002-0.062-0.002-0.125 0-0.187-0.080-0.608 0.133-1.249 0.563-1.688l4.001-4.001z"></path>
</svg>
