<!-- Generated by IcoMoon.io -->
<svg version="1.1" xmlns="http://www.w3.org/2000/svg" width="32" height="32" viewBox="0 0 32 32">
<title>starred</title>
<path d="M15.95 0.252c-0.861 0.018-1.562 0.426-2.009 0.824s-0.736 0.817-0.993 1.247c-0.514 0.86-0.883 1.801-1.242 2.737s-0.692 1.861-0.994 2.542c-0.167 0.377-0.126 0.324-0.223 0.47l-6.798-0.020c-0.9-0.002-1.695 0.566-1.954 1.398-0.464 1.485 0.197 2.451 0.737 3.292s1.222 1.63 1.908 2.398 1.377 1.504 1.898 2.113c0.521 0.609 0.841 1.214 0.782 1.036-0.163-0.488-0.032 0.086-0.232 0.784s-0.539 1.615-0.865 2.552c-0.326 0.937-0.647 1.883-0.801 2.855-0.077 0.486-0.122 0.983-0.016 1.576s0.452 1.38 1.183 1.87c0.721 0.483 1.544 0.54 2.149 0.469s1.095-0.248 1.572-0.451c0.955-0.407 1.857-0.966 2.745-1.528s1.752-1.13 2.435-1.519c0.682-0.388 1.331-0.47 0.886-0.471-0.5-0.001 0.145 0.072 0.807 0.465s1.502 0.967 2.366 1.535 1.735 1.133 2.669 1.547c0.467 0.207 0.951 0.39 1.561 0.463s1.469 0 2.182-0.526c0.083-0.060 0.161-0.128 0.233-0.2 1.027-1.027 1.113-2.43 0.948-3.459s-0.533-1.949-0.885-2.83c-0.352-0.882-0.697-1.718-0.884-2.369-0.187-0.649-0.147-1.060-0.153-1.045-0 0 0 0-0 0-0.107 0.32 0.173-0.218 0.717-0.744 0.549-0.531 1.303-1.189 2.052-1.903s1.502-1.474 2.094-2.39c0.592-0.916 1.12-2.198 0.621-3.581-0.285-0.789-1.055-1.318-1.921-1.319l-7.192-0.001c-0.039-0.064-0.040-0.048-0.084-0.134-0.285-0.553-0.638-1.493-0.995-2.474s-0.719-2.006-1.2-2.926c-0.24-0.46-0.499-0.904-0.929-1.345s-1.186-0.961-2.175-0.94z"></path>
</svg>
