<!-- Generated by IcoMoon.io -->
<svg version="1.1" xmlns="http://www.w3.org/2000/svg" width="32" height="32" viewBox="0 0 32 32">
<title>star-new</title>
<path d="M16.002 1.376c-2-0.008-3.126 7.081-4.751 8.251-1.624 1.168-8.689-0.026-9.313 1.874-0.626 1.9 5.765 5.157 6.375 7.063s-2.676 8.257-1.062 9.439c1.614 1.182 6.687-3.885 8.689-3.877 2 0.010 7.001 5.171 8.625 4.001 1.624-1.168-1.626-7.601-1-9.501s7.049-5.095 6.439-7.001c-0.61-1.904-7.701-0.754-9.313-1.936-1.614-1.182-2.688-8.309-4.689-8.315zM14.002 10.002h4.001v4.001h4.001v4.001h-4.001v4.001h-4.001v-4.001h-4.001v-4.001h4.001z"></path>
</svg>
