<!-- Generated by IcoMoon.io -->
<svg version="1.1" xmlns="http://www.w3.org/2000/svg" width="32" height="32" viewBox="0 0 32 32">
<title>system-help</title>
<path d="M3.938 0c-2.183 0-3.938 1.755-3.938 3.938v24.129c0 2.183 1.755 3.938 3.938 3.938h24.066c1.108 0 2-0.892 2-2v-22.003c0-1.108-0.892-2-2-2h-24.004c-1.108 0-2-0.892-2-2s0.892-2 2-2h24.004c0-1.117-0.883-2-2-2zM16.002 8.126c5.454 0 9.877 4.416 9.877 9.877s-4.422 9.877-9.877 9.877c-5.454 0-9.877-4.416-9.877-9.877s4.422-9.877 9.877-9.877zM16.002 10.127c-1.274 0-2.44 0.348-3.501 0.875l1.438 3c0.627-0.325 1.312-0.563 2.063-0.563s1.436 0.238 2.063 0.563l1.438-3c-1.060-0.527-2.227-0.875-3.501-0.875zM9.001 14.502c-0.528 1.060-0.875 2.224-0.875 3.501 0 1.297 0.332 2.49 0.875 3.563l3-1.5c-0.325-0.627-0.563-1.311-0.563-2.063 0-0.723 0.198-1.392 0.5-2zM23.066 14.502l-3 1.5c0.302 0.609 0.5 1.278 0.5 2 0 0.751-0.237 1.436-0.563 2.063l3 1.5c0.543-1.073 0.875-2.267 0.875-3.563 0-1.267-0.293-2.446-0.813-3.501zM16.002 15.44c-1.434 0-2.563 1.125-2.563 2.563s1.129 2.563 2.563 2.563c1.434 0 2.563-1.125 2.563-2.563s-1.129-2.563-2.563-2.563zM18.065 22.003c-0.627 0.325-1.312 0.563-2.063 0.563-0.722 0-1.392-0.198-2-0.5l-1.5 3c1.054 0.519 2.237 0.813 3.501 0.813 1.274 0 2.44-0.348 3.501-0.875z"></path>
<path d="M16.002 10.064c-1.284 0-2.49 0.273-3.563 0.813l1.485 3.065c0.781-0.357 1.098-0.424 2.085-0.492 1.093-0.004 1.439 0.27 2.053 0.467l1.441-3.040c-1.073-0.539-2.216-0.813-3.501-0.813zM8.876 14.502c-0.531 1.078-0.875 2.272-0.875 3.563 0 1.318 0.386 2.531 0.938 3.626l3.054-1.552c-0.316-0.559-0.474-0.992-0.559-2.114 0.086-0.993 0.123-0.942 0.461-1.976zM23.128 14.502l-2.994 1.489c0.301 0.742 0.398 0.963 0.447 2.019-0.012 0.459 0.030 1.059-0.534 2.171l3.019 1.51c0.552-1.095 0.875-2.307 0.875-3.626 0-1.291-0.281-2.485-0.813-3.563zM16.058 22.582c-0.949-0.080-1.235-0.059-2.024-0.467l-1.594 3.138c1.073 0.539 2.279 0.875 3.563 0.875s2.428-0.336 3.501-0.875l-1.492-3.134c-0.792 0.39-0.867 0.346-1.953 0.462z"></path>
<path d="M18.584 18.020c0 1.413-1.149 2.559-2.567 2.559s-2.567-1.146-2.567-2.559v0c0-1.413 1.149-2.559 2.567-2.559s2.567 1.146 2.567 2.559v0z"></path>
</svg>
