<!-- Generated by IcoMoon.io -->
<svg version="1.1" xmlns="http://www.w3.org/2000/svg" width="32" height="32" viewBox="0 0 32 32">
<title>system-shutdown</title>
<path d="M10.072 3.628c-0.021-0.001-0.045-0.001-0.069-0.001-0.377 0-0.73 0.104-1.031 0.286l0.009-0.005c-4.202 2.471-6.978 6.97-6.978 12.117 0 1.285 0.173 2.53 0.497 3.712l-0.023-0.098c1.652 6.012 7.062 10.358 13.49 10.374h0.002c0.002 0 0.005 0 0.008 0 6.429 0 11.846-4.331 13.492-10.235l0.023-0.099c0.307-1.095 0.484-2.352 0.484-3.651 0-5.135-2.762-9.624-6.881-12.064l-0.065-0.036c-0.288-0.171-0.636-0.272-1.006-0.272-1.104 0-2 0.895-2 2 0 0.734 0.395 1.375 0.984 1.723l0.009 0.005c2.989 1.76 4.964 4.962 4.964 8.625 0 0.933-0.128 1.836-0.367 2.692l0.017-0.070c-1.181 4.286-5.045 7.382-9.631 7.382-0.009 0-0.019 0-0.028-0h0.001c-4.595-0.001-8.463-3.11-9.618-7.34l-0.016-0.070c-0.218-0.778-0.343-1.671-0.343-2.593 0-3.673 1.985-6.883 4.941-8.615l0.047-0.026c0.614-0.349 1.022-0.999 1.022-1.744 0-1.082-0.859-1.963-1.932-1.998l-0.003-0z"></path>
<path d="M15.956 0c-1.090 0.018-1.967 0.906-1.967 1.999 0 0.011 0 0.021 0 0.032l-0-0.002v9.994c0 1.104 0.895 1.999 1.999 1.999s1.999-0.895 1.999-1.999v0-9.994c0-0.008 0-0.018 0-0.028 0-1.104-0.895-1.999-1.999-1.999-0.011 0-0.023 0-0.034 0l0.002-0z"></path>
</svg>
