<!-- Generated by IcoMoon.io -->
<svg version="1.1" xmlns="http://www.w3.org/2000/svg" width="32" height="32" viewBox="0 0 32 32">
<title>system-shutdown</title>
<path d="M9.667 3.669c-0.262 0.049-0.496 0.142-0.704 0.272l0.008-0.005c-2.104 1.218-3.858 2.928-5.081 5.029-3.874 6.652-1.622 15.278 5.028 19.153s15.274 1.623 19.148-5.029c3.874-6.652 1.622-15.278-5.028-19.153-0.291-0.174-0.643-0.276-1.018-0.276-1.112 0-2.014 0.902-2.014 2.014 0 0.738 0.397 1.384 0.99 1.735l0.009 0.005c4.785 2.788 6.371 8.856 3.584 13.642s-8.854 6.372-13.639 3.584c-4.764-2.776-6.375-8.812-3.637-13.589l0.054-0.054c0.874-1.501 2.134-2.768 3.637-3.638 0.591-0.354 0.981-0.991 0.981-1.72 0-1.103-0.894-1.998-1.997-1.998-0.113 0-0.224 0.009-0.332 0.028l0.012-0.002z"></path>
<path d="M15.541 0.048c-0.9 0.207-1.561 1.001-1.561 1.949 0 0.017 0 0.034 0.001 0.051l-0-0.002v9.986c-0 0.008-0 0.018-0 0.028 0 1.103 0.894 1.998 1.998 1.998s1.997-0.894 1.997-1.998c0-0.010-0-0.020-0-0.030l0 0.002v-9.986c0-0.014 0.001-0.031 0.001-0.048 0-1.103-0.894-1.998-1.998-1.998-0.155 0-0.306 0.018-0.451 0.051l0.013-0.003z"></path>
</svg>
