<!-- Generated by IcoMoon.io -->
<svg version="1.1" xmlns="http://www.w3.org/2000/svg" width="32" height="32" viewBox="0 0 32 32">
<title>system-switch-user</title>
<path d="M5.423 19.375c0.988 0.959 2.155 1.394 3.577 1.394s2.594-0.447 3.582-1.406c1.553 0.559 3.41 1.981 3.413 4.465l0.006 4.633c0 0.852-0.625 1.538-1.401 1.538h-11.2c-0.776 0-1.4-0.686-1.4-1.538v-4.615c0-2.133 1.543-3.932 3.423-4.471z"></path>
<path d="M4.385 14.615c0 2.549 2.066 4.615 4.615 4.615s4.615-2.066 4.615-4.615c0-2.549-2.066-4.615-4.615-4.615s-4.615 2.066-4.615 4.615z"></path>
<path d="M19.423 11.375c0.988 0.959 2.155 1.394 3.577 1.394s2.594-0.447 3.582-1.406c1.553 0.559 3.41 1.981 3.413 4.465l-13.995 0.018c0-2.133 1.543-3.932 3.423-4.471z"></path>
<path d="M18.385 6.615c0 2.549 2.066 4.615 4.615 4.615s4.615-2.066 4.615-4.615c0-2.549-2.066-4.615-4.615-4.615s-4.615 2.066-4.615 4.615z"></path>
<path d="M28.317 29.879h1.68v-2c0.016-3.345 0-10 0-10s-7.972 0-12 0v1.691c-0.191 1.222 0.763 2.323 2 2.309h3.172l-4.586 4.586c-1.308 1.272-0.37 3.487 1.453 3.434 0.52-0.016 1.013-0.233 1.375-0.605l4.586-4.586v3.172c0 1.362 0.898 2 2.32 2z"></path>
</svg>
