<!-- Generated by IcoMoon.io -->
<svg version="1.1" xmlns="http://www.w3.org/2000/svg" width="32" height="32" viewBox="0 0 32 32">
<title>system-software-install</title>
<path d="M6.001 16.002h20.003v14.12c0 0.984-0.944 1.874-1.992 1.874h-16.010c-1.078 0-2-0.86-2-2z"></path>
<path d="M13.588 5.939c-0.61 0.020-1.148 0.31-1.501 0.754l-0.003 0.004-5.633 6.919c-0.279 0.341-0.449 0.78-0.45 1.26v2.001c0 1.105 0.896 2 2 2s2-0.896 2-2v0-1.288l5.185-6.367c0.291-0.345 0.468-0.794 0.468-1.285 0-1.105-0.896-2-2-2-0.023 0-0.046 0-0.069 0.001l0.003-0zM18.015 11.948c-1.096 0.011-1.98 0.903-1.98 2 0 0.996 0.728 1.822 1.681 1.975l0.011 0.002 4.341 0.758v0.32c0 1.105 0.896 2 2 2s2-0.896 2-2v0-2c-0.001-0.982-0.71-1.799-1.644-1.966l-0.012-0.002-5.999-1.052c-0.111-0.022-0.238-0.034-0.368-0.034-0.010 0-0.021 0-0.031 0l0.002-0z"></path>
</svg>
