<!-- Generated by IcoMoon.io -->
<svg version="1.1" xmlns="http://www.w3.org/2000/svg" width="32" height="32" viewBox="0 0 32 32">
<title>system-software-install</title>
<path d="M6.001 16.002h20.003v14.12c0 0.985-0.945 1.875-1.992 1.875h-16.010c-1.078 0-2-0.859-2-2z"></path>
<path d="M13.377 5.938c-0.536 0.073-0.996 0.349-1.309 0.746l-0.003 0.004-5.626 6.939c-0.273 0.339-0.438 0.775-0.438 1.249 0 0.001 0 0.001 0 0.002v-0 2c-0 0.008-0 0.018-0 0.028 0 1.105 0.896 2 2 2s2.001-0.896 2.001-2c0-0.010-0-0.020-0-0.030l0 0.002v-1.313l5.188-6.313c0.319-0.353 0.515-0.823 0.515-1.339 0-1.105-0.896-2.001-2.001-2.001-0.115 0-0.229 0.010-0.339 0.029l0.012-0.002z"></path>
<path d="M17.815 11.939c-0.010-0-0.021-0-0.033-0-1.105 0-2.001 0.896-2.001 2.001 0 1.095 0.879 1.984 1.97 2l0.002 0 4.313 0.75v0.313c-0 0.008-0 0.018-0 0.028 0 1.105 0.896 2 2 2s2-0.896 2-2c0-0.010-0-0.020-0-0.030l0 0.002v-2c0-0.011 0-0.023 0-0.035 0-0.972-0.694-1.782-1.613-1.963l-0.013-0.002-6.001-1c-0.153-0.042-0.328-0.066-0.509-0.066-0.041 0-0.082 0.001-0.122 0.004l0.006-0z"></path>
</svg>
