<!-- Generated by IcoMoon.io -->
<svg version="1.1" xmlns="http://www.w3.org/2000/svg" width="32" height="32" viewBox="0 0 32 32">
<title>system-run</title>
<path d="M22.753 0.5c-0.48 0.871-0.935 2.012-1.438 2.875-0.188-0.014-0.371-0.063-0.563-0.063-0.665 0-1.32 0.097-1.938 0.25-0.61-0.766-1.261-1.797-1.875-2.563-0.569 0.21-1.105 0.453-1.625 0.75 0.192 0.965 0.554 2.142 0.75 3.125-0.686 0.498-1.253 1.064-1.75 1.75-0.983-0.196-2.16-0.558-3.125-0.75-0.297 0.521-0.54 1.056-0.75 1.625 0.766 0.614 1.797 1.265 2.563 1.875-0.153 0.617-0.25 1.273-0.25 1.938 0 0.191 0.049 0.375 0.063 0.563-0.864 0.502-2.005 0.958-2.875 1.438 0.102 0.55 0.257 1.108 0.438 1.625 0.983-0.020 2.199-0.189 3.188-0.187 0.374 0.784 0.841 1.508 1.438 2.125-0.344 0.936-0.896 2.018-1.25 2.938 0.426 0.351 0.899 0.653 1.375 0.938 0.739-0.64 1.551-1.543 2.313-2.188 0.756 0.345 1.577 0.531 2.438 0.625 0.329 0.954 0.609 2.177 0.938 3.125 0.603-0.004 1.174-0.028 1.75-0.125 0.161-0.986 0.221-2.237 0.375-3.25 0.82-0.234 1.623-0.534 2.313-1 0.849 0.529 1.798 1.258 2.625 1.75 0.448-0.381 0.869-0.803 1.25-1.25-0.492-0.827-1.221-1.777-1.75-2.625 0.466-0.69 0.766-1.493 1-2.313 1.013-0.154 2.264-0.214 3.25-0.375 0.097-0.576 0.122-1.147 0.125-1.75-0.949-0.329-2.172-0.608-3.125-0.938-0.094-0.86-0.28-1.682-0.625-2.438 0.645-0.762 1.547-1.574 2.188-2.313-0.285-0.476-0.586-0.949-0.938-1.375-0.92 0.354-2.002 0.906-2.938 1.25-0.617-0.597-1.342-1.063-2.125-1.438-0.002-0.989 0.168-2.205 0.188-3.188-0.518-0.181-1.076-0.335-1.625-0.438zM20.753 7.314c2.209 0 4.001 1.791 4.001 4.001s-1.791 4.001-4.001 4.001c-2.209 0-4.001-1.791-4.001-4.001s1.791-4.001 4.001-4.001z"></path>
<path d="M7.376 15.502c-0.46 0.094-0.888 0.262-1.313 0.438-0.033 1.249 0.174 2.884-0.313 3.313-0.478 0.422-2.077 0.069-3.313-0.063-0.263 0.473-0.471 0.971-0.625 1.5 0.956 0.792 2.281 1.678 2.313 2.313 0.032 0.642-1.253 1.61-2.125 2.5 0.207 0.516 0.5 0.987 0.813 1.438 1.217-0.253 2.733-0.747 3.251-0.375 0.527 0.379 0.53 2.011 0.688 3.25 0.499 0.15 1.025 0.209 1.563 0.25 0.563-1.109 1.135-2.64 1.75-2.813 0.632-0.177 1.927 0.916 3 1.563 0.438-0.303 0.826-0.674 1.188-1.063-0.508-1.145-1.442-2.584-1.188-3.188s1.951-0.939 3.125-1.375c0.009-0.147 0.063-0.288 0.063-0.438 0-0.383-0.069-0.758-0.125-1.125-1.212-0.322-2.935-0.483-3.251-1.063-0.314-0.576 0.484-2.123 0.875-3.313-0.402-0.357-0.839-0.674-1.313-0.938-1.002 0.75-2.169 1.989-2.813 1.875-0.634-0.112-1.326-1.639-2-2.688-0.080 0.014-0.171-0.016-0.25 0zM8.626 19.253c1.864 0 3.376 1.511 3.376 3.375s-1.511 3.375-3.376 3.375c-1.864 0-3.376-1.511-3.376-3.375s1.511-3.375 3.376-3.375z"></path>
</svg>
