<!-- Generated by IcoMoon.io -->
<svg version="1.1" xmlns="http://www.w3.org/2000/svg" width="32" height="32" viewBox="0 0 32 32">
<title>system-reboot</title>
<path d="M22.083 3.644c-0.025-0.001-0.054-0.002-0.083-0.002-1.104 0-1.999 0.895-1.999 1.999 0 0.743 0.405 1.391 1.007 1.736l0.010 0.005c2.99 1.762 4.965 4.966 4.965 8.631 0 0.703-0.073 1.39-0.211 2.052l0.011-0.065c-0.86 4.18-4.244 7.37-8.458 7.93l-0.051 0.006c-0.388 0.053-0.836 0.084-1.291 0.084-3.911 0-7.297-2.251-8.931-5.529l-0.026-0.058c-0.65-1.288-1.030-2.808-1.030-4.416 0-2.758 1.119-5.255 2.927-7.061l0-0c0.362-0.362 0.586-0.862 0.586-1.414 0-1.105-0.895-2-2-2-0.552 0-1.052 0.224-1.414 0.586v0c-2.529 2.534-4.093 6.032-4.093 9.895 0 2.249 0.53 4.374 1.472 6.257l-0.037-0.081c2.337 4.665 7.080 7.811 12.559 7.811 0.632 0 1.254-0.042 1.864-0.123l-0.071 0.008c5.964-0.801 10.694-5.259 11.893-11.012l0.016-0.091c0.175-0.831 0.276-1.787 0.276-2.765 0-5.132-2.761-9.62-6.879-12.058l-0.065-0.036c-0.271-0.165-0.596-0.269-0.943-0.284l-0.004-0z"></path>
<path d="M15.956 0c-1.090 0.018-1.967 0.906-1.967 1.999 0 0.011 0 0.021 0 0.032l-0-0.002v9.994c0 1.104 0.895 1.999 1.999 1.999s1.999-0.895 1.999-1.999v0-9.994c0-0.008 0-0.018 0-0.028 0-1.104-0.895-1.999-1.999-1.999-0.011 0-0.023 0-0.034 0l0.002-0z"></path>
<path d="M9.992 2.027c1.103 0 1.999 0.949 1.999 1.987v8.007l-9.994-9.994z"></path>
</svg>
