<!-- Generated by IcoMoon.io -->
<svg version="1.1" xmlns="http://www.w3.org/2000/svg" width="32" height="32" viewBox="0 0 32 32">
<title>system-users</title>
<path d="M26.581 19.378c-0.988 0.959-2.155 1.394-3.577 1.394s-2.595-0.447-3.583-1.406c-1.553 0.559-3.411 1.981-3.413 4.466l-0.005 4.634c-0.001 0.852 0.624 1.539 1.4 1.539h11.202c0.776 0 1.4-0.686 1.4-1.539v-4.616c0-2.134-1.543-3.933-3.424-4.472z"></path>
<path d="M27.62 14.618c0 2.549-2.067 4.616-4.616 4.616s-4.616-2.067-4.616-4.616v0c0-2.549 2.067-4.616 4.616-4.616s4.616 2.067 4.616 4.616v0z"></path>
<path d="M12.578 11.377c-0.988 0.959-2.155 1.394-3.577 1.394s-2.595-0.447-3.583-1.406c-1.553 0.559-3.411 1.981-3.413 4.466l-0.005 4.634c-0.001 0.852 0.624 1.539 1.4 1.539h11.473c0.124-0.791 0.523-1.446 1.129-2v-4.154c0-2.134-1.543-3.933-3.424-4.472z"></path>
<path d="M13.617 6.616c0 2.549-2.067 4.616-4.616 4.616s-4.616-2.067-4.616-4.616v0c0-2.549 2.067-4.616 4.616-4.616s4.616 2.067 4.616 4.616v0z"></path>
</svg>
