<!-- Generated by IcoMoon.io -->
<svg version="1.1" xmlns="http://www.w3.org/2000/svg" width="32" height="32" viewBox="0 0 32 32">
<title>task-past-due</title>
<path d="M4.939 2c0 0-3 0-3 3v23.941c0 0 0 3.063 3 3.063h15.002v-4.001h-14.002v-22.003h2v-4.001zM21.941 2v4.001h2v14.002h4.001v-15.002c0-3-3-3-3-3z"></path>
<path d="M11.002 0h7.939c0.552 0 1 0.448 1 1v6.001c0 0.552-0.448 1-1 1h-7.939c-0.552 0-1-0.448-1-1v-6.001c0-0.552 0.448-1 1-1z"></path>
<path d="M21.941 22.003h2.75l2.25 2.188 2.188-2.188h2.813v2.938l-2.188 2.125 2.188 2.125v2.813h-2.875l-2.125-2.125-2.125 2.125h-2.875v-2.813l2.125-2.125-2.125-2.125v-2.938z"></path>
</svg>
