<!-- Generated by IcoMoon.io -->
<svg version="1.1" xmlns="http://www.w3.org/2000/svg" width="32" height="32" viewBox="0 0 32 32">
<title>task-past-due</title>
<path d="M4.939 2s-3 0-3 3v23.942s0 3.060 3 3.060h15.002v-4.001h-14.002v-22.001h2v-4.001zM21.941 2v4.001h2v14.002h4.001v-15.002c0-3-3-3-3-3z"></path>
<path d="M11.002 0h7.939c0.554 0 1 0.446 1 1v6.001c0 0.554-0.446 1-1 1h-7.939c-0.001 0-0.001 0-0.002 0-0.551 0-0.998-0.447-0.998-0.998 0-0.001 0-0.001 0-0.002v0-6.001c0-0.554 0.446-1 1-1z"></path>
<path d="M21.941 22.003h2.75l2.25 2.188 2.188-2.188h2.812v2.938l-2.188 2.124 2.188 2.126v2.812h-2.878l-2.124-2.126-2.124 2.126h-2.872v-2.812l2.124-2.126-2.124-2.124z"></path>
</svg>
