<!-- Generated by IcoMoon.io -->
<svg version="1.1" xmlns="http://www.w3.org/2000/svg" width="32" height="32" viewBox="0 0 32 32">
<title>task-due</title>
<path d="M1.938 5.001v23.941c0 3.063 3 3.063 3 3.063h9.001v-4.001h-8.001v-22.003h2v-4.001h-3c0 0-3 0-3 3zM21.941 2v4.001h2.063v8.064l3.938-0.063v-9.001c0-3.001-3-3-3-3zM8.064 10.064v13.94l5.876-0v-6.005c0 0 0-3.997 4.001-3.997h4.001v-4.001z"></path>
<path d="M11.002 0h7.939c0.552 0 1 0.448 1 1v6.001c0 0.552-0.448 1-1 1h-7.939c-0.552 0-1-0.448-1-1v-6.001c0-0.552 0.448-1 1-1z"></path>
<path d="M17.941 16.002c-2 0-2 2-2 2v12.002c0 0 0 2 2 2h12.002c2 0 2-2 2-2v-12.002c0-2-2-2-2-2zM21.941 18.003l4.063 0v8.001l-4.063-0zM21.941 28.004l4.063 0-0.062 2h-4.001z"></path>
</svg>
