<!-- Generated by IcoMoon.io -->
<svg version="1.1" xmlns="http://www.w3.org/2000/svg" width="32" height="32" viewBox="0 0 32 32">
<title>text-editor</title>
<path d="M10.005 20.003l13.998-14.002 4.001 4.001-14.002 14.002h-4.001z"></path>
<path d="M2.188 0c-1.138 0-2.188 1.006-2.188 2.126v27.752c0 1.122 1.050 2.126 2.188 2.126h21.627c1.116 0 2.148-0.97 2.188-2.062v-13.94l-4.001 4.001v8.001h-18.003v-24.004h10.002l4.001 4.001 3.062-3.062-4.375-4.251c-0.396-0.412-0.947-0.673-1.559-0.688l-0.003-0z"></path>
<path d="M28.384 2.022c-0.285 0-0.542 0.116-0.728 0.304l-0 0-2.324 2.32 4.009 4.011 2.326-2.324c0.187-0.186 0.302-0.444 0.302-0.728s-0.116-0.542-0.302-0.728l-0-0-2.554-2.55c-0.186-0.187-0.443-0.304-0.728-0.304h-0z"></path>
</svg>
