<!-- Generated by IcoMoon.io -->
<svg version="1.1" xmlns="http://www.w3.org/2000/svg" width="32" height="32" viewBox="0 0 32 32">
<title>thunderbolt</title>
<path d="M15.704 12h7.386l-8.676 12.483 3.343 0.348-8.369 7.155 3.928-2.072c0.636 0.076 2.021 0.127 2.674 0.127v0c7.737 0 14.009-6.272 14.009-14.011v0c-0.031-4.937-2.562-10.015-8.007-12.659v0l0.32-3.354zM2 16.030c0 5.255 2.882 9.839 7.162 12.227v0l0.637-7.438 2.022 2.411 3.605-7.23-7.427-0 6.32-13.868c-6.94 0.826-12.32 6.735-12.32 13.899z"></path>
</svg>
