<!-- Generated by IcoMoon.io -->
<svg version="1.1" xmlns="http://www.w3.org/2000/svg" width="32" height="32" viewBox="0 0 32 32">
<title>thunderbolt-acquiring</title>
<path d="M12.002 17.003c0 1.657-1.343 3-3 3v0c-1.657 0-3-1.343-3-3v0c0-1.657 1.343-3 3-3v0c1.657 0 3 1.343 3 3v0zM20.003 17.003c0 1.657-1.343 3-3 3v0c-1.657 0-3-1.343-3-3v0c0-1.657 1.343-3 3-3v0c1.657 0 3 1.343 3 3v0zM28.004 17.003c0 1.657-1.343 3-3 3v0c-1.657 0-3-1.343-3-3v0c0-1.657 1.343-3 3-3v0c1.657 0 3 1.343 3 3v0z"></path>
<path d="M18.003 1.984c-2.026 0-4.017 1.676-4.017 4.017v6.001h2v-6.001c0-1.11 1.2-2.016 2.016-2.016 0.806 0 2.016 0.936 2.016 2.016v6.001h2v-6.001c0-2.328-1.98-4.017-4.017-4.017zM29.012 5.839s-0.714-0.030-1.46 0.336c-0.748 0.366-1.564 1.316-1.564 2.664v3.162h2v-3.162c0-0.694 0.188-0.744 0.44-0.868 0.256-0.124 0.54-0.132 0.54-0.132zM5.985 9.123v2.878h2v-2.88zM5.985 22.003v4.921c0 3.012 2.546 5.101 5.041 5.001 1.288-0.061 2.447-0.567 3.337-1.367l-0.005 0.004c0.948-0.848 1.628-2.12 1.628-3.639v-4.921h-2v4.921c0 0.94-0.378 1.628-0.96 2.15-0.584 0.52-1.388 0.824-2.080 0.85-1.274 0.052-2.96-1.148-2.96-3v-4.921zM20.019 22.003v4.001c0 1.272 0.532 2.338 1.308 3.008s1.746 0.976 2.676 0.976c1.972 0 3.985-1.602 3.985-3.985v-4.001h-2v4.001c0 1.208-1.14 1.984-1.984 1.984-0 0-0 0-0 0-0.521 0-0.998-0.184-1.371-0.491l0.004 0.003c-0.364-0.316-0.616-0.742-0.616-1.496v-4.001zM4.001 0v4.001h-2v2c0 2.216 1.784 4.001 4.001 4.001h2c2.216 0 4.001-1.784 4.001-4.001v-2h-2v-4.001h-2v4.001h-2v-4.001z"></path>
</svg>
