<!-- Generated by IcoMoon.io -->
<svg version="1.1" xmlns="http://www.w3.org/2000/svg" width="32" height="32" viewBox="0 0 32 32">
<title>thunderbolt</title>
<path d="M15.706 12.002h7.387l-8.677 12.484 3.345 0.348-8.369 7.157 3.929-2.072c0.636 0.076 2.020 0.128 2.674 0.128 7.738-0.001 14.010-6.274 14.010-14.012 0-0.001 0-0.001 0-0.002v0c-0.032-4.937-2.56-10.015-8.007-12.662l0.32-3.353zM2 16.032c0 0.007-0 0.015-0 0.023 0 5.218 2.858 9.768 7.094 12.17l0.069 0.036 0.638-7.441 2.020 2.412 3.611-7.231h-7.431l6.321-13.87c-6.976 0.867-12.322 6.759-12.322 13.899 0 0.001 0 0.002 0 0.003v-0z"></path>
</svg>
