<!-- Generated by IcoMoon.io -->
<svg version="1.1" xmlns="http://www.w3.org/2000/svg" width="32" height="32" viewBox="0 0 32 32">
<title>thunderbolt-acquiring</title>
<path d="M12 17c0 1.657-1.343 3-3 3s-3-1.343-3-3c0-1.657 1.343-3 3-3s3 1.343 3 3z"></path>
<path d="M20 17c0 1.657-1.343 3-3 3s-3-1.343-3-3c0-1.657 1.343-3 3-3s3 1.343 3 3z"></path>
<path d="M28 17c0 1.657-1.343 3-3 3s-3-1.343-3-3c0-1.657 1.343-3 3-3s3 1.343 3 3z"></path>
<path d="M18 1.984c-2.026 0-4.016 1.675-4.016 4.016v6h2v-6c0-1.109 1.199-2.016 2.016-2.016 0.806 0 2.016 0.935 2.016 2.016v6h2v-6c0-2.327-1.98-4.016-4.016-4.016zM29.008 5.838c0 0-0.714-0.030-1.461 0.336s-1.563 1.317-1.563 2.664v3.162h2v-3.162c0-0.694 0.188-0.743 0.441-0.867s0.539-0.133 0.539-0.133zM5.984 9.121v2.879h2v-2.879zM5.984 22v4.921c0 3.011 2.546 5.098 5.039 5 1.183-0.047 2.383-0.516 3.332-1.363s1.629-2.121 1.629-3.637v-4.921h-2v4.921c0 0.938-0.378 1.628-0.961 2.148s-1.388 0.824-2.078 0.852c-1.275 0.050-2.961-1.149-2.961-3v-4.921zM20.016 22v4c0 1.273 0.533 2.337 1.309 3.008s1.745 0.977 2.676 0.977c1.971 0 3.984-1.603 3.984-3.984v-4h-2v4c0 1.209-1.141 1.984-1.984 1.984-0.477 0-1.002-0.173-1.367-0.488s-0.617-0.742-0.617-1.496v-4zM4 0v4h-2v2c0 2.216 1.784 4 4 4h2c2.216 0 4-1.784 4-4v-2h-2v-4h-2v4h-2v-4z"></path>
</svg>
