<!-- Generated by IcoMoon.io -->
<svg version="1.1" xmlns="http://www.w3.org/2000/svg" width="32" height="32" viewBox="0 0 32 32">
<title>touchpad-disabled</title>
<path d="M6.064-0c-3.339 0-6.064 2.725-6.064 6.064v15.878c0 3.339 2.725 6.064 6.064 6.064h13.94v-4.001h-4.001v-4.001h14.002v-13.94c0-3.339-2.725-6.064-6.064-6.064zM6.064 4h17.878c1.192 0 2.063 0.871 2.063 2.063v11.939h-22.004v-11.939c0-1.192 0.871-2.063 2.063-2.063zM4.001 20.003h10.002v4.001h-7.939c-1.192 0-2.063-0.871-2.063-2.063z"></path>
<path d="M22.004 22.003h2.75l2.25 2.188 2.188-2.188h2.813v2.938l-2.188 2.125 2.188 2.125v2.813h-2.875l-2.125-2.125-2.125 2.125h-2.875v-2.813l2.125-2.125-2.125-2.125v-2.938z"></path>
</svg>
