<!-- Generated by IcoMoon.io -->
<svg version="1.1" xmlns="http://www.w3.org/2000/svg" width="32" height="32" viewBox="0 0 32 32">
<title>user-status-pending</title>
<path d="M7.001 2c-0.003 0-0.006 0-0.010 0-2.756 0-4.991 2.234-4.991 4.991 0 0.004 0 0.007 0 0.011v-0.001 1h28.004v-1c0-2.77-2.23-5.001-5.001-5.001zM2.124 18.003c0.47 2.297 2.474 4.001 4.877 4.001h12.752l6.251 8.001v-8.127c1.953-0.41 3.465-1.922 3.871-3.842l0.006-0.032z"></path>
<path d="M10.002 13.002c0 1.657-1.343 3-3 3v0c-1.657 0-3-1.343-3-3v0c0-1.657 1.343-3 3-3v0c1.657 0 3 1.343 3 3v0zM18.003 13.002c0 1.657-1.343 3-3 3v0c-1.657 0-3-1.343-3-3v0c0-1.657 1.343-3 3-3v0c1.657 0 3 1.343 3 3v0zM26.004 13.002c0 1.657-1.343 3-3 3v0c-1.657 0-3-1.343-3-3v0c0-1.657 1.343-3 3-3v0c1.657 0 3 1.343 3 3v0z"></path>
</svg>
