<!-- Generated by IcoMoon.io -->
<svg version="1.1" xmlns="http://www.w3.org/2000/svg" width="32" height="32" viewBox="0 0 32 32">
<title>user-info</title>
<path d="M15.112 12.189c-1.411 1.247-3.079 1.813-5.11 1.813s-3.707-0.581-5.118-1.828c-2.219 0.727-4.873 2.576-4.876 5.806l-0.008 6.024c-0.001 1.108 0.892 2 2 2h12.002v-10.002c-0.022-0.655 0.72-1.996 2-2l2.282-0.008c-1.43-1.211-2.314-1.581-3.172-1.805z"></path>
<path d="M16.003 6.001c0 3.314-2.687 6.001-6.001 6.001s-6.001-2.687-6.001-6.001v0c0-3.314 2.687-6.001 6.001-6.001s6.001 2.687 6.001 6.001v0z"></path>
<path d="M17.753 16.002c-0.985 0-1.75 0.765-1.75 1.75v12.502c0 0.985 0.765 1.75 1.75 1.75h12.502c0.985 0 1.75-0.765 1.75-1.75v-12.502c0-0.985-0.765-1.75-1.75-1.75zM22.004 18.003h4.001v2h-4.001zM22.004 22.003h4.001v8.001h-4.001z"></path>
</svg>
