<!-- Generated by IcoMoon.io -->
<svg version="1.1" xmlns="http://www.w3.org/2000/svg" width="32" height="32" viewBox="0 0 32 32">
<title>user-not-tracked</title>
<path d="M13.412 0.002c-0.632 0.053-1.056 0.673-0.875 1.281l0.852 3.086c-0.85 0.219-1.678 0.525-2.477 0.914l-2.043-3.532c-0.184-0.329-0.537-0.527-0.914-0.512-0.762 0.028-1.214 0.863-0.82 1.516l2.035 3.516c-0.677 0.434-1.333 0.902-1.953 1.406l-2.508-2.508c-0.189-0.193-0.448-0.302-0.719-0.301-0.894 0.004-1.335 1.090-0.695 1.715l2.442 2.442c-0.563 0.533-1.094 1.049-1.586 1.586l-1.442-1.442c-0.189-0.193-0.448-0.302-0.719-0.301-0.894 0.004-1.335 1.090-0.695 1.715l1.528 1.527c-1.771 2.152-2.821 3.891-2.821 3.891s1.744 2.901 4.551 5.848l2.215-2.215c-1.793-1.868-2.766-3.633-2.766-3.633s4.268-8.001 12.001-8.001c0.758 0 1.473 0.096 2.164 0.234l2.934-2.934c-0.512-0.25-1.032-0.48-1.567-0.664l1.141-3.293c0.236-0.646-0.234-1.332-0.922-1.344-0.437-0.006-0.828 0.272-0.965 0.688l-1.195 3.442c-0.523-0.083-1.053-0.129-1.59-0.129-0.211 0-0.416 0.037-0.625 0.051l-0.91-3.301c-0.113-0.436-0.503-0.743-0.953-0.75-0.034-0.002-0.068-0.002-0.102 0zM29.984 8.87c-0.26 0.008-0.506 0.115-0.688 0.301l-1.442 1.442c-0.122-0.133-0.26-0.264-0.387-0.395l-2.196 2.192c1.768 1.853 2.731 3.594 2.731 3.594s-4.268 8.001-12.001 8.001c-0.736 0-1.43-0.092-2.102-0.223l-2.957 2.957c1.592 0.77 3.289 1.266 5.059 1.266 8.838 0 16.002-12.001 16.002-12.001s-1.050-1.739-2.821-3.891l1.528-1.527c0.651-0.636 0.183-1.74-0.727-1.715zM16.002 10.003c-3.314 0-6.001 2.687-6.001 6.001 0 0.124 0.028 0.241 0.035 0.363l3.688-3.688c0.132-0.473 0.49-0.828 0.953-0.953l1.688-1.688c-0.122-0.007-0.239-0.035-0.363-0.035zM21.971 15.711l-6.266 6.262c0.1 0.004 0.195 0.031 0.297 0.031 3.314 0 6.001-2.687 6.001-6.001 0-0.1-0.026-0.194-0.031-0.293z"></path>
<path d="M28.046 2.057v0.008c-0.036-0.002-0.078-0.004-0.121-0.004h-0c-0.541 0.017-1.025 0.245-1.375 0.605l-0 0-23.913 23.909c-0.379 0.365-0.615 0.876-0.615 1.443 0 0.142 0.015 0.28 0.043 0.414l-0.002-0.013v1.586h1.774c0.057 0.006 0.123 0.009 0.19 0.009 0.565 0 1.075-0.234 1.438-0.61l0.001-0.001 23.913-23.909c0.374-0.364 0.606-0.872 0.606-1.434 0-0.001 0-0.003 0-0.004v0-2h-1.938z"></path>
</svg>
