<!-- Generated by IcoMoon.io -->
<svg version="1.1" xmlns="http://www.w3.org/2000/svg" width="32" height="32" viewBox="0 0 32 32">
<title>user-trash-full</title>
<path d="M24.005 4v-1.938h-14.003v1.938zM25.067 0.061c0.98 0 1.592 0.458 2.062 0.938 0.472 0.48 0.876 1.118 0.876 2.062v0.938h4.001v4.001h-30.006v-4.001h4.001v-0.75c0.048-0.86 0.34-1.504 0.812-2.062 0.563-0.651 1.39-1.062 2.312-1.064h0v-0.060h15.941zM8.002 10.001h-4.001c-3.349 5.855-2.276 11.71 0 17.566 0.87 2.24 1.964 4.439 4.377 4.439h17.254c2.41 0 3.553-2.18 4.375-4.439 2.084-5.723 3.199-11.51 0-17.566h-4.001c3.443 5.897 1.97 11.943 0 18.004h-18.004c-2.192-6.067-3.263-12.103 0-18.004zM17.942 9.969v16.035h-1.938v-16.037zM14.003 9.969c-3.525 4.447-1.66 11.264 0 16.037h-2c-1.65-4.619-3.681-11.258 0-16.037zM21.943 9.969c3.635 5.219 1.712 11.628 0 16.037h-1.938c1.73-4.445 3.327-10.942 0-16.037z"></path>
</svg>
