<!-- Generated by IcoMoon.io -->
<svg version="1.1" xmlns="http://www.w3.org/2000/svg" width="32" height="32" viewBox="0 0 32 32">
<title>user-trash-full</title>
<path d="M8.004 4v-1.938h14.003v1.938zM6.942 0.061c-0.981 0-1.593 0.457-2.063 0.938s-0.875 1.117-0.875 2.063v0.938h-4.001v4.001h30.007v-4.001h-4.001v-0.75c-0.048-0.861-0.341-1.505-0.813-2.063-0.448-0.529-1.254-1.059-2.313-1.063v-0.063h-15.941zM24.008 10.001h4.001c3.348 5.855 2.276 11.711 0 17.567-0.87 2.239-1.965 4.438-4.376 4.438h-17.254c-2.411 0-3.554-2.181-4.376-4.439-2.085-5.725-3.199-11.511 0-17.567h4.001c-3.443 5.897-1.97 11.943 0 18.004h18.004c2.192-6.068 3.264-12.102 0-18.004zM14.068 9.968v16.037h1.938v-16.037zM18.007 9.968c3.525 4.447 1.661 11.265 0 16.037h2c1.65-4.618 3.68-11.257 0-16.037zM10.067 9.968c-3.635 5.219-1.713 11.628 0 16.037h1.938c-1.731-4.444-3.326-10.94 0-16.037z"></path>
</svg>
