<!-- Generated by IcoMoon.io -->
<svg version="1.1" xmlns="http://www.w3.org/2000/svg" width="32" height="32" viewBox="0 0 32 32">
<title>utilities-system-monitor</title>
<path d="M4.376 0c-2.411 0-4.376 2.036-4.376 4.438v21.128c0 2.402 1.965 4.438 4.376 4.438h23.253c2.411 0 4.376-2.036 4.376-4.438v-21.128c0-2.402-1.965-4.438-4.376-4.438h-23.253zM4.376 4.001h23.253c0.241 0 0.375 0.16 0.375 0.438v21.128c0 0.277-0.134 0.438-0.375 0.438h-23.253c-0.241 0-0.375-0.16-0.375-0.438v-21.128c0-0.277 0.135-0.438 0.375-0.438z"></path>
<path d="M18.628 7.939c-0.333 0.097-0.59 0.354-0.686 0.681l-0.002 0.007-3.376 12.189-1.75-2.375c-0.18-0.262-0.476-0.433-0.812-0.438h-6.002v2h5.501l2.625 3.563c0.185 0.24 0.472 0.393 0.795 0.393 0.447 0 0.826-0.293 0.954-0.698l0.002-0.007 3.063-10.877 2.125 6.939c0.134 0.399 0.502 0.682 0.937 0.688h4.001v-2h-3.25l-2.875-9.376c-0.122-0.424-0.507-0.73-0.963-0.73-0.102 0-0.201 0.015-0.294 0.044l0.007-0.002z"></path>
</svg>
