<!-- Generated by IcoMoon.io -->
<svg version="1.1" xmlns="http://www.w3.org/2000/svg" width="32" height="32" viewBox="0 0 32 32">
<title>utilities-terminal</title>
<path d="M4.376 0c-2.411 0-4.376 2.034-4.376 4.438v21.128c0 2.404 1.964 4.438 4.376 4.438h23.253c2.411 0 4.376-2.034 4.376-4.438v-21.128c0-2.404-1.964-4.438-4.376-4.438h-23.253zM4.376 4.001h23.253c0.246 0 0.375 0.162 0.375 0.438v21.128c0 0.276-0.129 0.438-0.375 0.438h-23.253c-0.246 0-0.375-0.162-0.375-0.438v-21.128c0-0.276 0.129-0.438 0.375-0.438z"></path>
<path d="M8.626 11.814c-0.524 0.136-0.905 0.605-0.905 1.163 0 0.357 0.156 0.678 0.404 0.898l0.001 0.001 3.125 3.125-3.125 3.125c-0.224 0.224-0.362 0.533-0.362 0.875 0 0.684 0.554 1.238 1.238 1.238 0.342 0 0.651-0.139 0.875-0.363v0l4.001-4.001c0.233-0.22 0.379-0.53 0.379-0.875s-0.145-0.656-0.378-0.875l-0.001-0.001-4.001-4.001c-0.219-0.231-0.528-0.374-0.871-0.374-0.136 0-0.266 0.023-0.388 0.064l0.008-0.002z"></path>
<path d="M16.002 20.003h6.001v2h-6.001v-2z"></path>
</svg>
