<!-- Generated by IcoMoon.io -->
<svg version="1.1" xmlns="http://www.w3.org/2000/svg" width="32" height="32" viewBox="0 0 32 32">
<title>utilities-terminal</title>
<path d="M4.401 0c-2.414 0-4.401 2.014-4.401 4.419v21.167c0 2.404 1.988 4.419 4.401 4.419h23.203c2.412 0 4.401-2.014 4.401-4.419v-21.167c0-2.404-1.988-4.419-4.401-4.419zM4.401 4.001h23.203c0.248 0 0.4 0.142 0.4 0.418v21.167c0 0.276-0.152 0.418-0.4 0.418h-23.203c-0.248 0-0.4-0.142-0.4-0.418v-21.167c0-0.276 0.152-0.418 0.4-0.418z"></path>
<path d="M8.989 11.792c-0.662 0.002-1.197 0.538-1.197 1.2 0 0.336 0.138 0.64 0.361 0.858l3.153 3.153-3.152 3.152c-0.235 0.22-0.382 0.532-0.382 0.878 0 0.663 0.537 1.2 1.2 1.2 0.346 0 0.658-0.147 0.877-0.381l0.001-0.001 4.001-4.001c0.217-0.217 0.351-0.517 0.351-0.848s-0.134-0.631-0.351-0.848v0l-4.001-4.001c-0.218-0.223-0.522-0.362-0.859-0.362-0 0-0.001 0-0.001 0h0z"></path>
<path d="M16.002 20.003h6.001v2h-6.001z"></path>
</svg>
