<!-- Generated by IcoMoon.io -->
<svg version="1.1" xmlns="http://www.w3.org/2000/svg" width="32" height="32" viewBox="0 0 32 32">
<title>video-joined-displays</title>
<path d="M9.001 26.004c-5.001 0-5.001 1-5.001 1 0 1 1 1 1 1h8.001c1 0 1-1 1-1s0-1-5.001-1zM23.003 26.004c-5.001 0-5.001 1-5.001 1 0 1 1 1 1 1h8.001c1 0 1-1 1-1s0-1-5.001-1z"></path>
<path d="M5.001 8.001c-2.754 0.019-4.982 2.247-5.001 4.999v6.003c0 2.736 2.264 5.001 5.001 5.001h8.001c2.736 0 5.001-2.264 5.001-5.001v-6.001c0-2.736-2.264-5.001-5.001-5.001zM5.001 12.002h8.001c0.588 0 1 0.412 1 1v6.001c0 0.588-0.412 1-1 1h-8.001c-0.013 0.001-0.029 0.001-0.045 0.001-0.528 0-0.956-0.428-0.956-0.956 0-0.016 0-0.032 0.001-0.047l-0 0.002v-6.001c0-0.588 0.412-1 1-1z"></path>
<path d="M19.003 4.001c-2.754 0.019-4.982 2.247-5.001 4.999v10.003c0 2.736 2.264 5.001 5.001 5.001h8.001c2.736 0 5.001-2.264 5.001-5.001v-10.002c0-2.736-2.264-5.001-5.001-5.001zM19.003 8.001h8.001c0.588 0 1 0.412 1 1v10.002c0 0.588-0.412 1-1 1h-8.001c-0.013 0.001-0.029 0.001-0.045 0.001-0.528 0-0.956-0.428-0.956-0.956 0-0.016 0-0.032 0.001-0.047l-0 0.002v-10.002c0-0.588 0.412-1 1-1z"></path>
</svg>
