<!-- Generated by IcoMoon.io -->
<svg version="1.1" xmlns="http://www.w3.org/2000/svg" width="32" height="32" viewBox="0 0 32 32">
<title>view-wrapped-rtl</title>
<path d="M12.046 9.982c1.105 0 2 0.896 2 2 0 0.562-0.232 1.070-0.605 1.434l-5.415 5.415-5.415-5.415c-0.377-0.364-0.611-0.874-0.611-1.439 0-1.105 0.896-2 2-2 0.565 0 1.075 0.234 1.438 0.61l0.001 0.001 2.586 2.586 2.586-2.586c0.364-0.374 0.872-0.606 1.434-0.606v0z"></path>
<path d="M20.028 2c3.288 0 6.001 2.71 6.001 6.001v16.002c0 3.291-2.712 6.001-6.001 6.001h-8.001v-4.001h8.001c1.142 0 2-0.858 2-2v-16.002c0-1.142-0.858-2-2-2h-8.001c-1.144 0-2 0.858-2 2v8.001h-4.001v-8.001c0-3.29 2.71-6.001 6.001-6.001z"></path>
<path d="M14.027 12.002v-2h-2v2zM4.025 12.002v-2h-2v2z"></path>
</svg>
