<!-- Generated by IcoMoon.io -->
<svg version="1.1" xmlns="http://www.w3.org/2000/svg" width="32" height="32" viewBox="0 0 32 32">
<title>view-refresh</title>
<path d="M13.44 4.001c-0.384 0.018-0.745 0.071-1.125 0.125-3.045 0.435-5.957 2.046-7.939 4.688-3.963 5.284-2.846 12.852 2.438 16.815s12.852 2.846 16.815-2.438c0.245-0.343 0.379-0.766 0.375-1.188v-2h-2c-0.628-0.002-1.251 0.308-1.625 0.813-2.666 3.554-7.635 4.228-11.189 1.563s-4.228-7.635-1.563-11.189c2.666-3.554 7.635-4.228 11.189-1.563 0.859 0.644 1.539 1.466 2.063 2.375h-2.875c-1.105 0-2 0.896-2 2v2h12.002v-12.002h-2c-1.105 0-2 0.896-2 2v3.376c-0.765-1.156-1.699-2.165-2.813-3-2.312-1.734-5.065-2.505-7.751-2.375z"></path>
</svg>
