<!-- Generated by IcoMoon.io -->
<svg version="1.1" xmlns="http://www.w3.org/2000/svg" width="32" height="32" viewBox="0 0 32 32">
<title>view-list</title>
<path d="M16.002 8.001h12.002v4.001h-12.002zM16.002 19.971h12.002v4.001h-12.002z"></path>
<path d="M4.769 6.001h6.463c0.003-0 0.007-0 0.010-0 0.419 0 0.759 0.339 0.76 0.758v6.483c0 0 0 0 0 0 0 0.42-0.34 0.76-0.76 0.76-0.004 0-0.007-0-0.011-0h-6.46c-0.003 0-0.006 0-0.010 0-0.419 0-0.759-0.339-0.76-0.758v-6.483c0 0 0-0 0-0 0-0.42 0.34-0.76 0.76-0.76 0.003 0 0.006 0 0.008 0h-0zM4.769 18.003h6.463c0.003-0 0.007-0 0.010-0 0.419 0 0.759 0.339 0.76 0.758v6.443c0 0 0 0 0 0 0 0.42-0.34 0.76-0.76 0.76-0.004 0-0.007-0-0.011-0h-6.46c-0.003 0-0.006 0-0.010 0-0.42 0-0.76-0.34-0.76-0.76 0-0 0-0 0-0v0-6.441c0 0 0-0 0-0 0-0.42 0.34-0.76 0.76-0.76 0.003 0 0.006 0 0.008 0h-0z"></path>
</svg>
