<!-- Generated by IcoMoon.io -->
<svg version="1.1" xmlns="http://www.w3.org/2000/svg" width="32" height="32" viewBox="0 0 32 32">
<title>view-more-horizontal</title>
<path d="M32.005 12.771v6.463c0 0.425-0.45 0.769-1.005 0.769h-5.992c-0.555 0-1.005-0.344-1.005-0.769v-6.463c0-0.425 0.45-0.769 1.005-0.769h5.992c0.555 0 1.005 0.344 1.005 0.769z"></path>
<path d="M20.003 12.771v6.463c0 0.425-0.45 0.769-1.005 0.769h-5.992c-0.555 0-1.005-0.344-1.005-0.769v-6.463c0-0.425 0.45-0.769 1.005-0.769h5.992c0.555 0 1.005 0.344 1.005 0.769z"></path>
<path d="M8.001 12.771v6.463c0 0.425-0.45 0.769-1.005 0.769h-5.992c-0.555 0-1.005-0.344-1.005-0.769v-6.463c0-0.425 0.45-0.769 1.005-0.769h5.992c0.555 0 1.005 0.344 1.005 0.769z"></path>
</svg>
