<!-- Generated by IcoMoon.io -->
<svg version="1.1" xmlns="http://www.w3.org/2000/svg" width="32" height="32" viewBox="0 0 32 32">
<title>view-mirror</title>
<path d="M4.002-0.006c-1.723 0-2.861 0.642-3.428 1.401-0.566 0.752-0.574 1.601-0.574 1.601v26.014s0.008 0.846 0.574 1.601c0.568 0.758 1.705 1.401 3.428 1.401 0.001 0 0.002 0 0.003 0 0.231 0 0.444-0.078 0.613-0.21l-0.002 0.002 11.006-8.504c0.236-0.185 0.386-0.47 0.386-0.79 0-0.001 0-0.002 0-0.003v0-13.507c0-0 0-0 0-0.001 0-0.331-0.16-0.624-0.407-0.806l-0.003-0.002-11.006-8.004c-0.163-0.12-0.368-0.192-0.59-0.192-0 0-0.001 0-0.001 0h0zM3.776 2.069l10.231 7.442v12.503l-10.247 7.916c-0.91-0.074-1.425-0.312-1.583-0.524-0.184-0.242-0.176-0.396-0.176-0.396v-26.014s-0.008-0.154 0.176-0.4c0.16-0.212 0.666-0.454 1.599-0.526z"></path>
<path d="M2.001 1.995h2.001v28.015h-2.001z"></path>
<path d="M28.015-0.006c-0 0-0.001 0-0.001 0-0.222 0-0.426 0.072-0.592 0.194l0.003-0.002-11.006 8.004c-0.25 0.184-0.41 0.477-0.41 0.808 0 0 0 0 0 0.001v-0 13.507c0 0.001 0 0.002 0 0.003 0 0.32 0.15 0.605 0.384 0.788l0.002 0.002 11.006 8.504c0.167 0.13 0.38 0.208 0.611 0.208 0.001 0 0.002 0 0.004 0h-0c1.723 0 2.861-0.642 3.428-1.401 0.566-0.754 0.574-1.601 0.574-1.601v-26.014s-0.008-0.846-0.574-1.601c-0.568-0.76-1.707-1.401-3.428-1.401zM28.015 2.235v27.508l-10.005-7.73v-12.503z"></path>
</svg>
