<!-- Generated by IcoMoon.io -->
<svg version="1.1" xmlns="http://www.w3.org/2000/svg" width="32" height="32" viewBox="0 0 32 32">
<title>view-refresh</title>
<path d="M13.44 4.001c-0.384 0.018-0.744 0.070-1.126 0.126-3.261 0.476-6.049 2.197-7.915 4.657l-0.022 0.030c-3.965 5.285-2.848 12.852 2.434 16.817 5.285 3.961 12.852 2.844 16.815-2.44 0.246-0.34 0.38-0.764 0.376-1.186v-2h-2c-0.662 0.002-1.25 0.318-1.623 0.807l-0.004 0.005c-2.664 3.555-7.635 4.229-11.188 1.562-3.555-2.664-4.229-7.633-1.564-11.188 2.67-3.555 7.639-4.229 11.194-1.564 0.86 0.646 1.54 1.466 2.062 2.376h-2.876c-1.105 0-2 0.896-2 2v0 2h12.002v-12.002h-2c-1.105 0-2 0.896-2 2v0 3.377c-2.164-3.267-5.824-5.391-9.98-5.391-0.205 0-0.409 0.005-0.612 0.015l0.028-0.001z"></path>
</svg>
