<!-- Generated by IcoMoon.io -->
<svg version="1.1" xmlns="http://www.w3.org/2000/svg" width="32" height="32" viewBox="0 0 32 32">
<title>view-sort-ascending</title>
<path d="M2.768 6.001h2.462c0.003-0 0.006-0 0.010-0 0.419 0 0.759 0.339 0.76 0.758v2.482c0 0 0 0 0 0 0 0.42-0.34 0.76-0.76 0.76-0.004 0-0.007-0-0.011-0h-2.46c-0.003 0-0.006 0-0.010 0-0.419 0-0.759-0.339-0.76-0.758v-2.482c0 0 0-0 0-0 0-0.42 0.34-0.76 0.76-0.76 0.003 0 0.006 0 0.008 0h-0zM2.768 14.034h2.462c0.003-0 0.006-0 0.010-0 0.418 0 0.758 0.338 0.76 0.756v2.487c-0.001 0.419-0.341 0.758-0.76 0.758-0.004 0-0.007-0-0.011-0h-2.46c-0.003 0-0.006 0-0.010 0-0.42 0-0.76-0.34-0.76-0.76 0-0 0-0 0-0v0-2.482c0.002-0.418 0.342-0.756 0.76-0.756 0.003 0 0.006 0 0.008 0h-0zM2.768 22.003h2.462c0.003-0 0.006-0 0.010-0 0.419 0 0.759 0.339 0.76 0.758v2.484c-0.001 0.419-0.341 0.758-0.76 0.758-0.004 0-0.007-0-0.011-0h-2.46c-0.003 0-0.006 0-0.010 0-0.419 0-0.759-0.339-0.76-0.758v-2.482c0 0 0-0 0-0 0-0.42 0.34-0.76 0.76-0.76 0.003 0 0.006 0 0.008 0h-0zM14.002 6.001v8.001h-6.127l10.252 11.564 10.252-11.564h-6.375v-8.001z"></path>
</svg>
