<!-- Generated by IcoMoon.io -->
<svg version="1.1" xmlns="http://www.w3.org/2000/svg" width="32" height="32" viewBox="0 0 32 32">
<title>view-grid</title>
<path d="M6.769 6.001h6.463c0.426 0 0.77 0.448 0.77 1.004v5.993c0 0.556-0.344 1.004-0.77 1.004h-6.461c-0.43 0-0.77-0.448-0.77-1.004v-5.993c0-0.556 0.34-1.004 0.768-1.004zM18.771 6.001h6.463c0.426 0 0.77 0.448 0.77 1.004v5.993c0 0.556-0.344 1.004-0.77 1.004h-6.461c-0.43 0-0.77-0.448-0.77-1.004v-5.993c0-0.556 0.34-1.004 0.768-1.004zM6.769 18.003h6.463c0.426 0 0.77 0.448 0.77 1.004v5.993c0 0.556-0.344 1.004-0.77 1.004h-6.461c-0.43 0-0.77-0.448-0.77-1.004v-5.993c0-0.556 0.34-1.004 0.768-1.004zM18.771 18.003h6.463c0.426 0 0.77 0.448 0.77 1.004v5.993c0 0.556-0.344 1.004-0.77 1.004h-6.461c-0.43 0-0.77-0.448-0.77-1.004v-5.993c0-0.556 0.34-1.004 0.768-1.004z"></path>
</svg>
