<!-- Generated by IcoMoon.io -->
<svg version="1.1" xmlns="http://www.w3.org/2000/svg" width="32" height="32" viewBox="0 0 32 32">
<title>view-fullscreen</title>
<path d="M3.563 18.003c-0.901 0.207-1.563 1.002-1.563 1.952 0 0.017 0 0.034 0.001 0.051l-0-0.003v8.001c0 1.105 0.896 2 2 2h8.001c0.008 0 0.018 0 0.028 0 1.105 0 2.001-0.896 2.001-2s-0.896-2-2.001-2c-0.010 0-0.020 0-0.030 0l0.002-0h-6.001v-6.001c0-0.014 0.001-0.031 0.001-0.048 0-1.105-0.896-2-2.001-2-0.155 0-0.306 0.018-0.451 0.051l0.013-0.003z"></path>
<path d="M12.752 17.003c-0.466 0.052-0.877 0.257-1.188 0.563l0-0-9.001 9.001c-0.368 0.368-0.596 0.876-0.596 1.438 0 1.123 0.91 2.033 2.033 2.033 0.561 0 1.070-0.228 1.438-0.596l9.001-9.001c0.393-0.366 0.637-0.887 0.637-1.464 0-1.105-0.896-2-2.001-2-0.115 0-0.227 0.010-0.336 0.028l0.012-0.002z"></path>
<path d="M2 28.004h2v2h-2v-2z"></path>
<path d="M19.815 2c-1.065 0.051-1.909 0.927-1.909 2 0 1.106 0.897 2.003 2.003 2.003 0.033 0 0.066-0.001 0.098-0.002l-0.005 0h6.001v6.001c-0 0.008-0 0.018-0 0.028 0 1.105 0.896 2.001 2 2.001s2-0.896 2-2.001c0-0.010-0-0.020-0-0.030l0 0.002v-8.001c-0-1.105-0.896-2-2-2h-8.001c-0.028-0.001-0.061-0.002-0.094-0.002s-0.066 0.001-0.098 0.002l0.005-0z"></path>
<path d="M28.004 2h2v2h-2v-2z"></path>
<path d="M27.566 2c-0.396 0.091-0.736 0.289-1 0.562l-0.001 0.001-9.001 8.939c-0.368 0.368-0.596 0.876-0.596 1.438 0 1.123 0.91 2.033 2.033 2.033 0.561 0 1.070-0.228 1.438-0.596v0l9.001-8.939c0.431-0.369 0.703-0.914 0.703-1.523 0-1.105-0.896-2.001-2-2.001-0.206 0-0.405 0.031-0.592 0.089l0.014-0.004z"></path>
<path d="M2 18.003h2v2h-2v-2z"></path>
<path d="M12.002 28.004h2v2h-2v-2z"></path>
<path d="M28.004 12.002h2v2h-2v-2z"></path>
<path d="M18.003 2h2v2h-2v-2z"></path>
</svg>
