<!-- Generated by IcoMoon.io -->
<svg version="1.1" xmlns="http://www.w3.org/2000/svg" width="32" height="32" viewBox="0 0 32 32">
<title>view-restore</title>
<path d="M21.63 0.048c-0.9 0.207-1.561 1.001-1.561 1.949 0 0.017 0 0.034 0.001 0.051l-0-0.002v7.99c0 1.103 0.894 1.997 1.997 1.997h7.99c0.008 0 0.018 0 0.028 0 1.103 0 1.998-0.894 1.998-1.998s-0.894-1.998-1.998-1.998c-0.010 0-0.020 0-0.030 0l0.002-0h-5.992v-5.992c0-0.014 0.001-0.031 0.001-0.048 0-1.103-0.894-1.998-1.998-1.998-0.155 0-0.306 0.018-0.451 0.051l0.013-0.003z"></path>
<path d="M29.807 0.048c-0.466 0.052-0.876 0.256-1.186 0.562l0-0-7.99 7.99c-0.367 0.367-0.595 0.875-0.595 1.436 0 1.121 0.909 2.030 2.030 2.030 0.561 0 1.068-0.227 1.436-0.595l7.99-7.99c0.392-0.366 0.636-0.885 0.636-1.462 0-1.103-0.894-1.998-1.998-1.998-0.114 0-0.227 0.010-0.336 0.028l0.012-0.002z"></path>
<path d="M20.070 10.035h1.997v1.997h-1.997v-1.997z"></path>
<path d="M1.906 12.032c-1.020 0.099-1.81 0.952-1.81 1.989 0 0.003 0 0.006 0 0.009v-0 15.979c0 1.103 0.894 1.997 1.997 1.997h15.979c1.103-0 1.997-0.894 1.997-1.997v0-15.979c-0-1.103-0.894-1.997-1.997-1.997h-15.979c-0.028-0.001-0.061-0.002-0.094-0.002s-0.066 0.001-0.098 0.002l0.005-0zM4.090 16.027h11.984v11.984h-11.984v-11.984z"></path>
<path d="M1.906 16.027c-1.063 0.051-1.906 0.926-1.906 1.997 0 1.104 0.895 2 2 2 0.033 0 0.066-0.001 0.098-0.002l-0.005 0h15.979c0.008 0 0.018 0 0.028 0 1.103 0 1.998-0.894 1.998-1.998s-0.894-1.998-1.998-1.998c-0.010 0-0.020 0-0.030 0l0.002-0h-15.979c-0.028-0.001-0.061-0.002-0.094-0.002s-0.066 0.001-0.098 0.002l0.005-0z"></path>
<path d="M30.057 10.035h1.997v1.997h-1.997v-1.997z"></path>
<path d="M20.070 0.048h1.997v1.997h-1.997v-1.997z"></path>
<path d="M18.073 30.009h1.997v1.997h-1.997v-1.997z"></path>
<path d="M0.096 30.009h1.997v1.997h-1.997v-1.997z"></path>
</svg>
