<!-- Generated by IcoMoon.io -->
<svg version="1.1" xmlns="http://www.w3.org/2000/svg" width="32" height="32" viewBox="0 0 32 32">
<title>view-more</title>
<path d="M12.771 0h6.462c0.425 0 0.769 0.45 0.769 1.005v5.992c0 0.555-0.344 1.005-0.769 1.005h-6.463c-0.425 0-0.769-0.45-0.769-1.005v-5.992c0-0.555 0.344-1.005 0.769-1.005z"></path>
<path d="M12.771 12.002h6.462c0.425 0 0.769 0.45 0.769 1.005v5.992c0 0.555-0.344 1.005-0.769 1.005h-6.463c-0.425 0-0.769-0.45-0.769-1.005v-5.992c0-0.555 0.344-1.005 0.769-1.005z"></path>
<path d="M12.771 24.004h6.462c0.425 0 0.769 0.45 0.769 1.005v5.992c0 0.555-0.344 1.005-0.769 1.005h-6.463c-0.425 0-0.769-0.45-0.769-1.005v-5.992c0-0.555 0.344-1.005 0.769-1.005z"></path>
</svg>
