<!-- Generated by IcoMoon.io -->
<svg version="1.1" xmlns="http://www.w3.org/2000/svg" width="32" height="32" viewBox="0 0 32 32">
<title>view-list</title>
<path d="M16.002 8.001h12.002v4.001h-12.002v-4.001z"></path>
<path d="M16.002 19.972h12.002v4.001h-12.002v-4.001z"></path>
<path d="M4.77 6.001h6.463c0.425 0 0.769 0.339 0.769 0.758v6.486c0 0.418-0.344 0.758-0.769 0.758h-6.463c-0.425 0-0.769-0.339-0.769-0.758v-6.486c0-0.418 0.344-0.758 0.769-0.758z"></path>
<path d="M4.77 18.003h6.463c0.425 0 0.769 0.339 0.769 0.758v6.444c0 0.418-0.344 0.758-0.769 0.758h-6.463c-0.425 0-0.769-0.339-0.769-0.758v-6.444c0-0.418 0.344-0.758 0.769-0.758z"></path>
</svg>
