<!-- Generated by IcoMoon.io -->
<svg version="1.1" xmlns="http://www.w3.org/2000/svg" width="32" height="32" viewBox="0 0 32 32">
<title>weather-showers</title>
<path d="M18.934 0c-2.547 0-4.615 1.946-4.897 4.438-0.648-0.244-1.313-0.438-2.046-0.438-3.287 0-5.951 2.687-5.951 6.001 0 0.196 0.044 0.371 0.062 0.563-0.594-0.359-1.302-0.563-2.045-0.563-2.191 0-3.967 1.791-3.967 4.001s1.776 4.001 3.967 4.001h24.796c1.643 0 2.976-1.343 2.976-3s-1.332-3-2.976-3c-0.411 0-0.822 0.098-1.178 0.25 0.104-0.404 0.186-0.813 0.186-1.25 0-2.459-1.772-4.457-4.091-4.876 0.083-0.363 0.124-0.737 0.124-1.125 0-2.762-2.22-5.001-4.959-5.001z"></path>
<path d="M4.813 20.003c-0.416 0.073-0.74 0.396-0.812 0.807l-0.001 0.006-2 9.814c-0.028 0.087-0.044 0.187-0.044 0.291 0 0.548 0.444 0.992 0.992 0.992 0.519 0 0.944-0.398 0.989-0.905l0-0.004 2-9.814c0.014-0.062 0.022-0.134 0.022-0.207 0-0.548-0.444-0.992-0.992-0.992-0.055 0-0.108 0.004-0.16 0.013l0.006-0.001z"></path>
<path d="M8.814 20.003c-0.416 0.073-0.74 0.396-0.812 0.807l-0.001 0.006-2 9.814c-0.028 0.087-0.044 0.187-0.044 0.291 0 0.548 0.444 0.992 0.992 0.992 0.519 0 0.944-0.398 0.989-0.905l0-0.004 2.063-9.814c0.016-0.066 0.025-0.142 0.025-0.22 0-0.548-0.444-0.992-0.992-0.992-0.078 0-0.154 0.009-0.227 0.026l0.007-0.001z"></path>
<path d="M12.814 20.003c-0.416 0.073-0.74 0.396-0.812 0.807l-0.001 0.006-2 9.814c-0.011 0.056-0.017 0.121-0.017 0.188 0 0.562 0.456 1.018 1.018 1.018 0.496 0 0.909-0.354 0.999-0.824l0.001-0.006 2-9.814c0.016-0.066 0.025-0.142 0.025-0.22 0-0.548-0.444-0.992-0.992-0.992-0.078 0-0.154 0.009-0.227 0.026l0.007-0.001z"></path>
<path d="M16.815 20.003c-0.416 0.073-0.74 0.396-0.812 0.807l-0.001 0.006-2 9.814c-0.011 0.056-0.017 0.121-0.017 0.188 0 0.562 0.456 1.018 1.018 1.018 0.496 0 0.909-0.354 0.999-0.824l0.001-0.006 2-9.814c0.016-0.066 0.025-0.142 0.025-0.22 0-0.548-0.444-0.992-0.992-0.992-0.078 0-0.154 0.009-0.227 0.026l0.007-0.001z"></path>
<path d="M20.816 20.003c-0.39 0.096-0.686 0.412-0.749 0.807l-0.001 0.006-2.063 9.814c-0.011 0.056-0.017 0.121-0.017 0.188 0 0.562 0.456 1.018 1.018 1.018 0.496 0 0.909-0.354 0.999-0.824l0.001-0.006 2-9.814c0.016-0.066 0.025-0.142 0.025-0.22 0-0.548-0.444-0.992-0.992-0.992-0.078 0-0.154 0.009-0.227 0.026l0.007-0.001z"></path>
<path d="M24.816 20.003c-0.39 0.096-0.686 0.412-0.749 0.807l-0.001 0.006-2 9.814c-0.028 0.087-0.044 0.187-0.044 0.291 0 0.548 0.444 0.992 0.992 0.992 0.519 0 0.944-0.398 0.989-0.905l0-0.004 2-9.814c0.016-0.066 0.025-0.142 0.025-0.22 0-0.548-0.444-0.992-0.992-0.992-0.078 0-0.154 0.009-0.227 0.026l0.007-0.001z"></path>
</svg>
