<!-- Generated by IcoMoon.io -->
<svg version="1.1" xmlns="http://www.w3.org/2000/svg" width="32" height="32" viewBox="0 0 32 32">
<title>weather-severe-alert</title>
<path d="M19.003 4.001c-2.555 0.007-4.657 1.935-4.937 4.416l-0.002 0.023c-0.654-0.244-1.322-0.438-2.062-0.438-3.314 0-6.001 2.687-6.001 6.001v0c0 0.196 0.044 0.37 0.062 0.562-0.6-0.358-1.312-0.562-2.062-0.562-2.209 0-4.001 1.791-4.001 4.001s1.791 4.001 4.001 4.001v0h10.002v-4.251c0-2.020 1.73-3.751 3.751-3.751h10.126c-0.434-1.982-1.998-3.505-3.97-3.872l-0.031-0.005c0.081-0.338 0.128-0.726 0.128-1.124 0-2.762-2.239-5.001-5.001-5.001-0.001 0-0.001 0-0.002 0h0z"></path>
<path d="M17.753 16.002c-0.007-0-0.016-0-0.024-0-0.953 0-1.726 0.773-1.726 1.726 0 0.009 0 0.017 0 0.025v-0.001 12.502c0 0.984 0.766 1.75 1.75 1.75h12.502c0.007 0 0.016 0 0.024 0 0.953 0 1.726-0.773 1.726-1.726 0-0.009-0-0.017-0-0.025v0.001-12.502c0-0.007 0-0.016 0-0.024 0-0.953-0.773-1.726-1.726-1.726-0.009 0-0.017 0-0.025 0h0.001zM22.003 18.003h4.001v8.001h-4.001zM22.003 28.004h4.001v2h-4.001z"></path>
</svg>
