<!-- Generated by IcoMoon.io -->
<svg version="1.1" xmlns="http://www.w3.org/2000/svg" width="32" height="32" viewBox="0 0 32 32">
<title>weather-few-clouds-night</title>
<path d="M19.003 20.003c-2.762 0-5.001 2.239-5.001 5.001v0c0 0.436 0.082 0.846 0.188 1.25-0.35-0.154-0.758-0.245-1.187-0.25h-0.002c-1.657 0-3 1.343-3 3s1.343 3 3 3v0h16.002c1.657 0 3-1.343 3-3s-1.343-3-3-3v0c0-2.209-1.791-4.001-4.001-4.001v0c-0.632 0-1.22 0.176-1.75 0.438-0.873-1.467-2.448-2.435-4.25-2.438h-0.001z"></path>
<path d="M13.642 2.214c-6.589 1.13-11.644 6.883-11.644 13.788 0 4.661 2.31 8.789 5.833 11.338 0.622-1.626 2.128-2.788 3.885-3.279 0.292-2.105 1.408-3.906 3.006-5.094l0.020-0.014c-1.722-2.652-2.746-5.895-2.746-9.377 0-0.001 0-0.003 0-0.004v0c0-2.628 0.6-5.113 1.646-7.357z"></path>
</svg>
