<!-- Generated by IcoMoon.io -->
<svg version="1.1" xmlns="http://www.w3.org/2000/svg" width="32" height="32" viewBox="0 0 32 32">
<title>weather-fog</title>
<path d="M6.626 2c-1.247-0.001-2.017 0.658-2.563 1.188s-0.926 1.063-1.313 1.563c-0.387 0.5-0.773 0.967-1 1.188s-0.224 0.062 0.25 0.062c-1.105 0-2 0.896-2 2s0.896 2 2 2v0c1.247 0.001 2.017-0.658 2.563-1.188s0.926-1.125 1.313-1.625c0.284-0.367 0.538-0.572 0.75-0.813 0.212 0.24 0.466 0.445 0.75 0.813 0.387 0.5 0.83 1.096 1.375 1.625s1.253 1.187 2.5 1.188c1.247 0.001 2.017-0.658 2.563-1.188s0.989-1.125 1.375-1.625c0.294-0.38 0.472-0.634 0.688-0.875 0.219 0.243 0.446 0.481 0.75 0.875 0.387 0.5 0.83 1.096 1.375 1.625s1.316 1.187 2.563 1.188c1.247 0.001 2.017-0.658 2.563-1.188s0.926-1.125 1.313-1.625c0.284-0.367 0.538-0.572 0.75-0.813 0.212 0.24 0.466 0.445 0.75 0.813 0.387 0.5 0.767 1.096 1.313 1.625s1.316 1.187 2.563 1.188c0.019 0.001 0.041 0.001 0.063 0.001 1.105 0 2.001-0.896 2.001-2.001 0-1.083-0.861-1.966-1.936-2l-0.003-0c0.039 0.016 0.246 0.055 0.125-0.062-0.228-0.221-0.613-0.687-1-1.188s-0.767-1.033-1.313-1.563c-0.546-0.53-1.316-1.187-2.563-1.188s-2.017 0.658-2.563 1.188c-0.546 0.529-0.926 1.063-1.313 1.563-0.299 0.387-0.533 0.696-0.75 0.938-0.22-0.243-0.443-0.541-0.75-0.938-0.387-0.5-0.83-1.033-1.375-1.563s-1.253-1.187-2.5-1.188c-1.247-0.001-2.017 0.658-2.563 1.188s-0.989 1.063-1.375 1.563c-0.307 0.397-0.531 0.695-0.75 0.938-0.217-0.242-0.391-0.553-0.688-0.938-0.387-0.5-0.83-1.033-1.375-1.563s-1.316-1.187-2.563-1.188z"></path>
<path d="M6.626 12.002c-1.247-0.001-2.017 0.658-2.563 1.188s-0.926 1.063-1.313 1.563c-0.387 0.5-0.773 0.967-1 1.188s-0.224 0.062 0.25 0.062c-1.105 0-2 0.896-2 2s0.896 2 2 2v0c1.247 0.001 2.017-0.658 2.563-1.188s0.926-1.125 1.313-1.625c0.284-0.367 0.538-0.572 0.75-0.813 0.212 0.24 0.466 0.445 0.75 0.813 0.387 0.5 0.83 1.096 1.375 1.625s1.253 1.187 2.5 1.188c1.247 0.001 2.017-0.658 2.563-1.188s0.989-1.125 1.375-1.625c0.294-0.38 0.472-0.634 0.688-0.875 0.219 0.243 0.446 0.481 0.75 0.875 0.387 0.5 0.83 1.096 1.375 1.625s1.316 1.187 2.563 1.188c1.247 0.001 2.017-0.658 2.563-1.188s0.926-1.125 1.313-1.625c0.284-0.367 0.538-0.572 0.75-0.813 0.212 0.24 0.466 0.445 0.75 0.813 0.387 0.5 0.767 1.096 1.313 1.625s1.316 1.187 2.563 1.188c0.019 0.001 0.041 0.001 0.063 0.001 1.105 0 2.001-0.896 2.001-2.001 0-1.084-0.861-1.966-1.936-2l-0.003-0c0.039 0.016 0.246 0.055 0.125-0.062-0.228-0.221-0.613-0.687-1-1.188s-0.767-1.033-1.313-1.563c-0.546-0.53-1.316-1.187-2.563-1.188s-2.017 0.658-2.563 1.188c-0.546 0.529-0.926 1.063-1.313 1.563-0.299 0.387-0.533 0.696-0.75 0.938-0.22-0.243-0.443-0.541-0.75-0.938-0.387-0.5-0.83-1.033-1.375-1.563s-1.253-1.187-2.5-1.188c-1.247-0.001-2.017 0.658-2.563 1.188s-0.989 1.063-1.375 1.563c-0.307 0.397-0.531 0.695-0.75 0.938-0.217-0.242-0.391-0.553-0.688-0.938-0.387-0.5-0.83-1.033-1.375-1.563s-1.316-1.187-2.563-1.188z"></path>
<path d="M6.626 22.003c-1.247-0.001-2.017 0.658-2.563 1.188s-0.926 1.063-1.313 1.563c-0.387 0.5-0.773 0.967-1 1.188s-0.224 0.062 0.25 0.062c-1.105 0-2 0.896-2 2s0.896 2 2 2v0c1.247 0.001 2.017-0.658 2.563-1.188s0.926-1.125 1.313-1.625c0.284-0.367 0.538-0.572 0.75-0.813 0.212 0.24 0.466 0.445 0.75 0.813 0.387 0.5 0.83 1.096 1.375 1.625s1.253 1.187 2.5 1.188c1.247 0.001 2.017-0.658 2.563-1.188s0.989-1.125 1.375-1.625c0.294-0.38 0.472-0.634 0.688-0.875 0.219 0.243 0.446 0.481 0.75 0.875 0.387 0.5 0.83 1.096 1.375 1.625s1.316 1.187 2.563 1.188c1.247 0.001 2.017-0.658 2.563-1.188s0.926-1.125 1.313-1.625c0.284-0.367 0.538-0.572 0.75-0.813 0.213 0.241 0.463 0.504 0.75 0.875 0.387 0.5 0.767 1.033 1.313 1.563s1.316 1.187 2.563 1.188c0.019 0.001 0.041 0.001 0.063 0.001 1.105 0 2.001-0.896 2.001-2.001 0-1.084-0.861-1.966-1.936-2l-0.003-0c0.039 0.016 0.246 0.055 0.125-0.062-0.228-0.221-0.613-0.687-1-1.188s-0.767-1.033-1.313-1.563c-0.546-0.53-1.316-1.187-2.563-1.188s-2.017 0.658-2.563 1.188c-0.546 0.529-0.926 1.063-1.313 1.563-0.299 0.387-0.533 0.696-0.75 0.938-0.22-0.243-0.443-0.541-0.75-0.938-0.387-0.5-0.83-1.033-1.375-1.563s-1.253-1.187-2.5-1.188c-1.247-0.001-2.017 0.658-2.563 1.188s-0.989 1.063-1.375 1.563c-0.307 0.397-0.531 0.695-0.75 0.938-0.217-0.242-0.391-0.553-0.688-0.938-0.387-0.5-0.83-1.033-1.375-1.563s-1.316-1.187-2.563-1.188z"></path>
</svg>
