<!-- Generated by IcoMoon.io -->
<svg version="1.1" xmlns="http://www.w3.org/2000/svg" width="32" height="32" viewBox="0 0 32 32">
<title>weather-snow</title>
<path d="M19.067 0.007c-2.553 0-4.627 1.945-4.909 4.437-0.65-0.244-1.316-0.438-2.051-0.438-3.296 0.010-5.964 2.685-5.964 5.982 0 0.006 0 0.011 0 0.017v-0.001c0 0.196 0.044 0.37 0.062 0.562-0.584-0.354-1.289-0.564-2.043-0.564-2.2 0-3.983 1.783-3.983 3.983 0 0.006 0 0.013 0 0.019v-0.001c0 2.209 1.78 3.999 3.977 3.999h2.049c-0.090-0.272-0.141-0.586-0.141-0.912 0-1.656 1.336-2.999 2.983-2.999 0.271 0 0.534 0.036 0.784 0.105l-0.021-0.005c0.009-0 0.019-0 0.030-0s0.021 0 0.032 0h-0.002c0.544-0.569 1.307-0.922 2.152-0.922 0.184 0 0.365 0.017 0.54 0.049l-0.018-0.003c0.399-0.573 0.98-0.993 1.657-1.181l0.021-0.005c0.356-1.249 1.466-2.154 2.791-2.189l0.004-0c0.015-0 0.032-0 0.050-0 1.36 0 2.507 0.914 2.866 2.165l0.005 0.021c0.699 0.192 1.28 0.614 1.673 1.178l0.006 0.010c0.202-0.049 0.434-0.077 0.673-0.077 0.83 0 1.581 0.341 2.122 0.891l0 0c0.214-0.055 0.46-0.087 0.714-0.087 1.648 0 2.983 1.343 2.983 2.999 0 0.345-0.058 0.676-0.164 0.984l0.006-0.021h1.060c1.646 0 2.979-1.344 2.979-2.999s-1.332-2.999-2.977-2.999c-0.414 0-0.826 0.1-1.182 0.25 0.104-0.404 0.186-0.814 0.186-1.25 0-2.459-1.776-4.455-4.101-4.875 0.079-0.332 0.124-0.714 0.124-1.106 0-0.006 0-0.012-0-0.018v0.001c0-2.759-2.225-4.999-4.971-4.999z"></path>
<path d="M16.979 11.988c-0.545 0.009-0.984 0.453-0.984 1 0 0.006 0 0.011 0 0.017v-0.001 1.292l-0.554-0.276c-0.137-0.075-0.301-0.12-0.475-0.12-0.552 0-1 0.448-1 1 0 0.4 0.235 0.745 0.574 0.905l0.006 0.003 1.448 0.728v3.595l-3.331-2.039 0.144-1.779c0.002-0.024 0.003-0.052 0.003-0.080 0-0.553-0.448-1.001-1.001-1.001-0.525 0-0.955 0.404-0.997 0.917l-0 0.004-0.060 0.77-1.216-0.746c-0.159-0.112-0.357-0.179-0.571-0.179-0.552 0-1 0.448-1 1 0 0.379 0.211 0.709 0.522 0.878l0.005 0.003 1.34 0.82-0.664 0.494c-0.247 0.184-0.405 0.476-0.405 0.804 0 0.553 0.448 1.001 1.001 1.001 0.224 0 0.432-0.074 0.598-0.199l-0.003 0.002 1.312-0.972 3.405 2.085-3.429 2.099-1.32-0.974c-0.164-0.123-0.371-0.196-0.595-0.196-0.552 0-1 0.448-1 1 0 0.328 0.158 0.62 0.402 0.802l0.003 0.002 0.672 0.492-1.352 0.828c-0.314 0.173-0.523 0.501-0.523 0.879 0 0.552 0.448 1 1 1 0.211 0 0.407-0.065 0.568-0.177l-0.003 0.002 1.23-0.754 0.064 0.78c0.022 0.535 0.461 0.959 0.999 0.959 0.552 0 1-0.448 1-1 0-0.042-0.003-0.084-0.008-0.125l0.001 0.005-0.146-1.788 3.355-2.049v3.643l-1.426 0.668c-0.36 0.157-0.607 0.509-0.607 0.919 0 0.552 0.448 1 1 1 0.168 0 0.325-0.041 0.464-0.114l-0.005 0.003 0.574-0.27v1.454c0 0.552 0.448 1 1 1s1-0.448 1-1v0-1.454l0.574 0.27c0.133 0.070 0.291 0.111 0.459 0.111 0.552 0 1-0.448 1-1 0-0.41-0.247-0.762-0.6-0.917l-0.006-0.003-1.426-0.668v-3.639l3.279 2.009-0.1 1.829c-0.002 0.026-0.004 0.056-0.004 0.087 0 0.552 0.448 1 1 1 0.545 0 0.988-0.436 0.999-0.977l0-0.001 0.044-0.75 1.234 0.754c0.149 0.093 0.329 0.148 0.523 0.148 0.552 0 1-0.448 1-1 0-0.359-0.189-0.674-0.473-0.85l-0.004-0.002-1.36-0.832 0.66-0.46c0.26-0.183 0.428-0.483 0.428-0.821 0-0.553-0.448-1.001-1.001-1.001-0.215 0-0.414 0.068-0.577 0.183l0.003-0.002-1.37 0.96-3.367-2.057 3.391-2.077 1.38 0.968c0.16 0.113 0.36 0.181 0.575 0.181 0.553 0 1.001-0.448 1.001-1.001 0-0.338-0.167-0.636-0.423-0.818l-0.003-0.002-0.668-0.464 1.372-0.84c0.289-0.179 0.478-0.494 0.478-0.854 0-0.553-0.448-1.002-1.002-1.002-0.194 0-0.375 0.055-0.528 0.15l0.004-0.002-1.246 0.762-0.042-0.76c-0.015-0.54-0.457-0.973-0.999-0.973-0.552 0-1 0.448-1 1 0 0.030 0.001 0.060 0.004 0.089l-0-0.004 0.1 1.835-3.307 2.021v-3.591l1.446-0.728c0.346-0.162 0.58-0.508 0.58-0.908 0-0.552-0.448-1-1-1-0.174 0-0.337 0.044-0.48 0.122l0.005-0.003-0.552 0.276v-1.292c0-0.005 0-0.010 0-0.016 0-0.552-0.448-1-1-1-0.006 0-0.011 0-0.017 0h0.001z"></path>
</svg>
