<!-- Generated by IcoMoon.io -->
<svg version="1.1" xmlns="http://www.w3.org/2000/svg" width="32" height="32" viewBox="0 0 32 32">
<title>weather-showers</title>
<path d="M18.933 0c-2.546 0-4.615 1.946-4.897 4.439-0.648-0.244-1.312-0.438-2.046-0.438-3.287 0-5.949 2.686-5.949 6.001 0 0.196 0.044 0.37 0.062 0.562-0.581-0.353-1.284-0.562-2.035-0.562-0.004 0-0.008 0-0.011 0h0.001c-2.194 0.009-3.969 1.79-3.969 3.985 0 0.006 0 0.011 0 0.017v-0.001c0 2.21 1.776 4.001 3.969 4.001h24.796c1.642 0 2.974-1.344 2.974-3s-1.332-3-2.974-3c-0.412 0-0.822 0.1-1.178 0.25 0.104-0.404 0.186-0.814 0.186-1.25 0-2.46-1.772-4.457-4.091-4.877 0.082-0.36 0.124-0.736 0.124-1.124 0-2.76-2.22-5.001-4.961-5.001z"></path>
<path d="M4.981 19.987c-0.477 0.007-0.871 0.35-0.959 0.802l-0.001 0.006-2 9.841c-0.013 0.060-0.020 0.128-0.020 0.198 0 0.548 0.445 0.993 0.993 0.993 0.478 0 0.878-0.338 0.972-0.789l0.001-0.006 2-9.837c0.015-0.065 0.024-0.14 0.024-0.216 0-0.548-0.444-0.992-0.992-0.992-0.006 0-0.013 0-0.019 0h0.001zM8.989 19.995c-0.477 0.007-0.871 0.35-0.959 0.802l-0.001 0.006-2.004 9.833c-0.013 0.060-0.020 0.128-0.020 0.198 0 0.548 0.445 0.993 0.993 0.993 0.478 0 0.878-0.338 0.972-0.789l0.001-0.006 2.004-9.829c0.015-0.065 0.024-0.14 0.024-0.216 0-0.548-0.444-0.992-0.992-0.992-0.006 0-0.013 0-0.019 0h0.001zM12.99 19.987c-0.477 0.007-0.871 0.35-0.959 0.802l-0.001 0.006-2.004 9.841c-0.013 0.060-0.020 0.128-0.020 0.198 0 0.548 0.445 0.993 0.993 0.993 0.478 0 0.878-0.338 0.972-0.789l0.001-0.006 2.004-9.837c0.015-0.065 0.024-0.14 0.024-0.216 0-0.548-0.444-0.992-0.992-0.992-0.006 0-0.013 0-0.019 0h0.001zM16.995 19.987c-0.477 0.007-0.871 0.35-0.959 0.802l-0.001 0.006-2.004 9.841c-0.013 0.060-0.020 0.128-0.020 0.198 0 0.548 0.445 0.993 0.993 0.993 0.478 0 0.878-0.338 0.972-0.789l0.001-0.006 2-9.837c0.015-0.065 0.024-0.14 0.024-0.216 0-0.548-0.444-0.992-0.992-0.992-0.004 0-0.008 0-0.012 0h0.001zM20.995 19.987c-0.477 0.007-0.871 0.35-0.959 0.802l-0.001 0.006-2 9.841c-0.014 0.062-0.022 0.133-0.022 0.207 0 0.548 0.444 0.992 0.992 0.992 0.481 0 0.882-0.342 0.973-0.796l0.001-0.006 2-9.837c0.015-0.065 0.024-0.14 0.024-0.216 0-0.548-0.444-0.992-0.992-0.992-0.006 0-0.011 0-0.017 0h0.001zM25 19.987c-0.477 0.007-0.871 0.35-0.959 0.802l-0.001 0.006-2 9.841c-0.022 0.078-0.035 0.167-0.035 0.26 0 0.548 0.444 0.992 0.992 0.992 0.5 0 0.913-0.37 0.982-0.851l0.001-0.005 2.004-9.837c0.015-0.065 0.024-0.14 0.024-0.216 0-0.548-0.444-0.992-0.992-0.992-0.006 0-0.011 0-0.017 0h0.001z"></path>
</svg>
