<!-- Generated by IcoMoon.io -->
<svg version="1.1" xmlns="http://www.w3.org/2000/svg" width="32" height="32" viewBox="0 0 32 32">
<title>weather-clear</title>
<path d="M15.994 5.989c-5.501 0-10.015 4.513-10.015 10.014s4.515 10.014 10.015 10.014c5.501 0 10.014-4.513 10.014-10.014s-4.515-10.014-10.014-10.014z"></path>
<path d="M28.004 14.002c0.276 1.426 0.224 2.74 0 4.001l4.001-2zM4.001 14.002c-0.119 0.601-0.187 1.293-0.187 2s0.068 1.399 0.198 2.068l-0.011-0.068-4.001-2zM18.003 28.004c-0.601 0.119-1.293 0.187-2 0.187s-1.399-0.068-2.068-0.198l0.068 0.011 2 4.001zM18.003 4.001c-0.601-0.119-1.293-0.187-2-0.187s-1.399 0.068-2.068 0.198l0.068-0.011 2-4.001zM8.931 25.904c-1.12-0.77-2.060-1.709-2.807-2.792l-0.024-0.036-1.414 4.241zM25.904 8.929c-0.77-1.119-1.709-2.058-2.792-2.805l-0.036-0.024 4.243-1.414zM6.101 8.929c0.771-1.119 1.711-2.059 2.794-2.805l0.036-0.024-4.245-1.414zM23.075 25.904c1.119-0.77 2.058-1.709 2.805-2.792l0.024-0.036 1.414 4.241z"></path>
</svg>
