<!-- Generated by IcoMoon.io -->
<svg version="1.1" xmlns="http://www.w3.org/2000/svg" width="32" height="32" viewBox="0 0 32 32">
<title>weather-few-clouds</title>
<path d="M16.002 6.001c-5.501 0-10.002 4.501-10.002 10.002 0 3.567 1.916 6.727 4.751 8.501 0.296-0.138 0.649-0.266 1.015-0.365l0.048-0.011c0.458-3.633 3.441-6.501 7.189-6.501 2.006 0 3.679 0.948 5.001 2.252 0.35-0.068 0.616-0.252 1-0.252h0.25c0.448-1.132 0.75-2.338 0.75-3.625 0-5.501-4.501-10.002-10.002-10.002z"></path>
<path d="M19.003 20.003c-2.762 0-5.001 2.239-5.001 5.001v0c0 0.436 0.082 0.846 0.188 1.25-0.35-0.154-0.758-0.245-1.187-0.25h-0.002c-1.657 0-3 1.343-3 3s1.343 3 3 3v0h16.002c1.657 0 3-1.343 3-3s-1.343-3-3-3v0c0-2.209-1.791-4.001-4.001-4.001v0c-0.632 0-1.22 0.176-1.75 0.438-0.873-1.467-2.448-2.435-4.25-2.438h-0.001z"></path>
<path d="M28.004 14.002c0.276 1.426 0.224 2.74 0 4.001l4.001-2zM4.001 14.002c-0.119 0.601-0.187 1.293-0.187 2s0.068 1.399 0.198 2.068l-0.011-0.068-4.001-2zM18.003 4.001c-0.601-0.119-1.293-0.187-2-0.187s-1.399 0.068-2.068 0.198l0.068-0.011 2-4.001zM8.931 25.904c-1.12-0.77-2.060-1.709-2.807-2.792l-0.024-0.036-1.414 4.241zM25.904 8.929c-0.77-1.119-1.709-2.058-2.792-2.805l-0.036-0.024 4.243-1.414zM6.101 8.929c0.771-1.119 1.711-2.059 2.794-2.805l0.036-0.024-4.245-1.414z"></path>
</svg>
