<!-- Generated by IcoMoon.io -->
<svg version="1.1" xmlns="http://www.w3.org/2000/svg" width="32" height="32" viewBox="0 0 32 32">
<title>weather-showers-scattered</title>
<path d="M18.986 2c-2.554 0-4.628 1.946-4.911 4.438-0.65-0.244-1.317-0.438-2.051-0.438-3.296 0-5.968 2.687-5.968 6.001 0 0.196 0.044 0.371 0.062 0.563-0.596-0.359-1.306-0.563-2.051-0.563-2.197 0-3.978 1.791-3.978 4.001s1.781 4.001 3.978 4.001h0.746c0.329-0.705 0.733-1.362 1.305-1.938l4.911-4.938 4.911 4.938c0.567 0.57 0.929 1.24 1.243 1.938h0.932l2.86-2.875 2.86 2.875h5.097c1.648 0 2.984-1.343 2.984-3s-1.336-3-2.984-3c-0.412 0-0.824 0.098-1.181 0.25 0.105-0.404 0.186-0.813 0.186-1.25 0-2.459-1.777-4.457-4.103-4.876 0.083-0.363 0.124-0.737 0.124-1.125 0-2.762-2.227-5.001-4.973-5.001z"></path>
<path d="M11.002 15.815l-0.688 0.75-2.875 2.813c-1.945 1.945-1.945 5.119 0 7.064s5.182 1.945 7.126 0c1.945-1.945 1.945-5.119 0-7.064l-2.875-2.813-0.688-0.75zM11.002 18.628l2.125 2.188c1.18 1.18 1.18 3.070 0 4.251s-3.070 1.18-4.251 0v-0.062c-1.136-1.183-1.165-3.023 0-4.188l2.125-2.188z"></path>
<path d="M21.003 19.815l-0.688 0.75-2.875 2.813c-1.945 1.945-1.945 5.119 0 7.064s5.182 1.945 7.126 0c1.945-1.945 1.945-5.119 0-7.064l-2.875-2.813-0.688-0.75zM21.003 22.628l2.125 2.188c1.18 1.18 1.18 3.070 0 4.251s-3.070 1.18-4.251 0v-0.062c-1.136-1.183-1.165-3.023 0-4.188l2.125-2.188z"></path>
</svg>
