<!-- Generated by IcoMoon.io -->
<svg version="1.1" xmlns="http://www.w3.org/2000/svg" width="32" height="32" viewBox="0 0 32 32">
<title>web-browser</title>
<path d="M15.999 9.694v20.759l-4.688-4.576-2.679 5.469c-0.656 1.479-4.067 0.29-3.097-1.688l2.651-5.678h-5.915l13.728-14.286z"></path>
<path d="M14.312 2.128c-7.653 0.92-13.157 7.915-12.187 15.561 0.263 2.069 0.587 2.763 0.587 2.763l3.35-3.263c-0.662-5.506 3.243-10.462 8.749-11.124s10.462 3.243 11.124 8.749c0.627 5.216-2.782 10.049-7.937 11.062l0.062 4c0 0 1.042-0.212 1.247-0.262 6.831-1.668 11.412-8.254 10.565-15.299-0.92-7.653-7.909-13.107-15.561-12.187z"></path>
<path d="M8.225 15.632v-0.411l-0.396 0.037c0.033-0.262 0.066-0.523 0.099-0.785h-0.232l-0.231 0.299-0.232 0.112-0.331-0.186-0.033-0.411 0.066-0.449 0.496-0.374h0.396l0.066-0.225 0.496 0.112 0.364 0.449 0.066-0.748 0.628-0.523 0.231-0.561 0.463-0.187 0.264-0.374 0.595-0.113 0.298-0.448c-0.297 0-0.595 0-0.892 0l0.562-0.262h0.396l0.562-0.187 0.066-0.224-0.198-0.187-0.231-0.075 0.066-0.224-0.165-0.336-0.397 0.149 0.066-0.299-0.463-0.262-0.363 0.635 0.033 0.225-0.363 0.15-0.232 0.486-0.099-0.449-0.628-0.262-0.099-0.336 0.826-0.486 0.364-0.336 0.033-0.411-0.198-0.112-0.264-0.038-0.165 0.411c0 0-0.276 0.054-0.347 0.072-0.908 0.836-2.741 2.641-3.167 6.048 0.016 0.079 0.309 0.537 0.309 0.537l0.694 0.411 0.694 0.187zM15.628 7.069l-0.86-0.337-0.991 0.112-1.223 0.336-0.231 0.225 0.76 0.523v0.299l-0.297 0.299 0.397 0.786 0.264-0.15 0.331-0.523c0.511-0.158 0.968-0.337 1.454-0.561l0.397-1.010zM20.686 7.753l-0.75 0.187-0.437 0.312v0.25l-0.75 0.5 0.187 0.687 0.437-0.312 0.25 0.312 0.312 0.187 0.187-0.562-0.125-0.312 0.125-0.187 0.437-0.375h0.187l-0.187 0.437v0.375c0.178-0.048 0.318-0.102 0.5-0.125l-0.5 0.375v0.25l-0.625 0.437-0.562-0.125v-0.312l-0.25 0.125 0.125 0.312h-0.437l-0.25 0.437-0.312 0.312-0.187 0.062v0.375l0.062 0.312h-0.062v1.062l0.125-0.062 0.187-0.437 0.375-0.25 0.062-0.187 0.562-0.125 0.312 0.375 0.375 0.187-0.187 0.375 0.312-0.062 0.125-0.437-0.375-0.437h0.125l0.437 0.312 0.062 0.437 0.312 0.437 0.125-0.625 0.187-0.062c0.192 0.199 0.338 0.463 0.5 0.687h0.562l0.375 0.25-0.5 0.5h-0.5l-0.687-0.187h-0.375l-0.25 0.312-0.687-0.75-0.5-0.125-0.75 0.125-0.312 0.187v4.812l0.062 0.062 0.5-0.312 0.187 0.187h0.562l0.25 0.312-0.187 0.625 0.375 0.375v0.75l0.25 0.5-0.187 0.5c-0.018 0.323 0 0.614 0 0.937 0.159 0.438 0.287 0.871 0.437 1.312l0.125 0.687v0.375h0.25l0.437-0.25h0.5l0.75-0.875-0.062-0.312 0.5-0.437-0.375-0.375 0.437-0.375 0.437-0.25 0.187-0.25-0.125-0.5v-1.187l0.375-0.75 0.375-0.5 0.5-1.125v-0.312c-0.233 0.029-0.459 0.046-0.687 0.062-0.144 0.010-0.289 0-0.437 0-0.247-0.519-0.437-1.019-0.625-1.562l-0.312-0.375-0.187-0.625 0.125-0.125 0.437 0.5 0.5 1.125 0.312 0.312-0.125 0.437 0.312 0.312 0.5-0.5 0.625-0.437 0.312-0.375v-0.437c-0.078-0.146-0.109-0.291-0.187-0.437l-0.312 0.375-0.25-0.312-0.375-0.25v-0.562l0.437 0.437 0.437-0.062c0.203 0.185 0.384 0.415 0.562 0.625l0.312-0.375c0-0.349-0.399-2.041-1.25-3.5s-2.312-2.812-2.312-2.812l-0.125 0.187-0.437 0.437-0.5-0.5h0.5l0.25-0.25-0.937-0.187-0.5-0.187z"></path>
</svg>
