<!-- Generated by IcoMoon.io -->
<svg version="1.1" xmlns="http://www.w3.org/2000/svg" width="32" height="32" viewBox="0 0 32 32">
<title>window-close</title>
<path d="M8.001 8.001h2.062c0.51 0.022 1.020 0.258 1.376 0.626l4.563 4.559 4.625-4.561c0.532-0.462 0.894-0.612 1.376-0.626h2v2c0 0.572-0.068 1.1-0.5 1.5l-4.563 4.565 4.501 4.501c0.376 0.376 0.562 0.908 0.562 1.438v2h-2c-0.53 0-1.060-0.186-1.438-0.562l-4.563-4.563-4.563 4.561c-0.364 0.349-0.859 0.564-1.405 0.564-0.012 0-0.024-0-0.035-0l0.002 0h-2v-2c0-0.53 0.186-1.060 0.562-1.438l4.563-4.501-4.561-4.563c-0.353-0.332-0.573-0.803-0.573-1.325 0-0.062 0.003-0.123 0.009-0.183l-0.001 0.008z"></path>
</svg>
