<!-- Generated by IcoMoon.io -->
<svg version="1.1" xmlns="http://www.w3.org/2000/svg" width="32" height="32" viewBox="0 0 32 32">
<title>x-office-document</title>
<path d="M5.626 2c-0.932 0.183-1.626 0.993-1.626 1.965 0 0.012 0 0.025 0 0.037l-0-0.002v26.004c0 1.105 0.896 2 2 2h20.003c1.105-0 2-0.896 2-2v0-18.878c0-0.014 0.001-0.030 0.001-0.046 0-0.541-0.215-1.032-0.564-1.392l0 0.001-7.126-7.126c-0.36-0.348-0.85-0.563-1.391-0.563-0.016 0-0.033 0-0.049 0.001l0.002-0h-12.877c-0.028-0.001-0.061-0.002-0.094-0.002s-0.066 0.001-0.098 0.002l0.005-0c-0.028-0.001-0.061-0.002-0.094-0.002s-0.066 0.001-0.098 0.002l0.005-0zM8.002 6.001h10.001v6.001h6.001v16.002h-16.002v-22.003z"></path>
<path d="M12.839 9.999c-1.721 0-3.113 1.445-3.113 3.166s1.392 3.113 3.113 3.113c1.721 0 3.166-1.392 3.166-3.113s-1.445-3.166-3.166-3.166zM12.839 12.004c0.64 0 1.161 0.521 1.161 1.161s-0.521 1.108-1.161 1.108c-0.64 0-1.108-0.468-1.108-1.108s0.468-1.161 1.108-1.161z"></path>
<path d="M18.003 16.002h4.001v2h-4.001v-2z"></path>
<path d="M10.002 20.003h12.002v2h-12.002v-2z"></path>
<path d="M10.002 24.003h12.002v2h-12.002v-2z"></path>
</svg>
