<!-- Generated by IcoMoon.io -->
<svg version="1.1" xmlns="http://www.w3.org/2000/svg" width="32" height="32" viewBox="0 0 32 32">
<title>x-office-presentation</title>
<path d="M4.001 6.001v16.002h24.004v-16.002zM16.002 8.001c2.209 0 4.001 1.791 4.001 4.001v0h-4.001zM14.002 10.002v4.001h4.001c0 2.209-1.791 4.001-4.001 4.001s-4.001-1.791-4.001-4.001c0-2.209 1.791-4.001 4.001-4.001v0z"></path>
<path d="M4.191 4.001c-1.105 0-2 0.896-2 2s0.896 2 2 2v0h23.264c1.105 0 2-0.896 2-2s-0.896-2-2-2v0zM14.988 20.989c-0.546 0.009-0.984 0.453-0.984 1 0 0.005 0 0.010 0 0.015v-0.001 3.505l-3.611 2.762c-0.24 0.185-0.393 0.472-0.393 0.795 0 0.553 0.448 1.001 1.001 1.001 0.23 0 0.441-0.077 0.61-0.208l-0.002 0.002 4.393-3.363v-4.495c0-0.004 0-0.009 0-0.014 0-0.552-0.448-1-1-1-0.006 0-0.011 0-0.017 0h0.001z"></path>
<path d="M14.968 24.998c-0.539 0.017-0.97 0.458-0.97 1 0 0.322 0.152 0.608 0.388 0.791l0.002 0.002 4.001 3.126c0.174 0.149 0.401 0.24 0.65 0.24 0.552 0 1-0.448 1-1 0-0.336-0.165-0.633-0.419-0.814l-0.003-0.002-4.001-3.124c-0.17-0.137-0.388-0.22-0.626-0.22-0.008 0-0.015 0-0.023 0l0.001-0z"></path>
</svg>
