<!-- Generated by IcoMoon.io -->
<svg version="1.1" xmlns="http://www.w3.org/2000/svg" width="32" height="32" viewBox="0 0 32 32">
<title>x-office-presentation</title>
<path d="M4.001 6.001v16.002h24.004v-16.002zM16.003 8.001c2.209 0 4.001 1.791 4.001 4.001h-4.001zM14.002 10.001v4.001h4.001c0 2.209-1.791 4.001-4.001 4.001s-4.001-1.791-4.001-4.001c0-2.209 1.791-4.001 4.001-4.001z"></path>
<path d="M4.001 4c-1.066 0.050-1.912 0.926-1.912 2 0 1.106 0.897 2.002 2.002 2.002 0.034 0 0.068-0.001 0.101-0.003l-0.005 0h23.253c0.008 0 0.018 0 0.028 0 1.105 0 2-0.896 2-2.001s-0.896-2.001-2-2.001c-0.010 0-0.020 0-0.030 0l0.002-0h-23.253c-0.028-0.001-0.061-0.002-0.094-0.002s-0.066 0.001-0.098 0.002l0.005-0z"></path>
<path d="M14.815 21.003c-0.466 0.091-0.813 0.496-0.813 0.983 0 0.006 0 0.012 0 0.019v-0.001 3.501l-3.626 2.75c-0.244 0.189-0.4 0.483-0.4 0.813 0 0.566 0.459 1.025 1.025 1.025 0.236 0 0.454-0.080 0.627-0.214l-0.002 0.002 4.001-3.063 0.375-0.313v-4.501c0-0.005 0-0.011 0-0.018 0-0.552-0.448-1-1-1-0.066 0-0.131 0.006-0.194 0.019l0.006-0.001z"></path>
<path d="M14.752 25.003c-0.468 0.090-0.816 0.496-0.816 0.983 0 0.344 0.174 0.647 0.438 0.827l0.003 0.002 4.001 3.125c0.171 0.133 0.389 0.213 0.625 0.213 0.566 0 1.025-0.459 1.025-1.025 0-0.33-0.156-0.623-0.398-0.811l-0.002-0.002-4.001-3.125c-0.17-0.137-0.388-0.219-0.625-0.219-0.089 0-0.175 0.012-0.257 0.033l0.007-0.002z"></path>
</svg>
